<?xml version="1.0" encoding="UTF-8" standalone="no"?>
<svg
   width="1.7250195in"
   height="2.7264652in"
   viewBox="-120 -168 165.60187 261.74066"
   preserveAspectRatio="none"
   class="card"
   face="JS"
   version="1.1"
   id="svg1623"
   sodipodi:docname="JS.svg"
   xmlns:inkscape="http://www.inkscape.org/namespaces/inkscape"
   xmlns:sodipodi="http://sodipodi.sourceforge.net/DTD/sodipodi-0.dtd"
   xmlns="http://www.w3.org/2000/svg"
   xmlns:svg="http://www.w3.org/2000/svg">
  <sodipodi:namedview
     id="namedview1625"
     pagecolor="#ffffff"
     bordercolor="#000000"
     borderopacity="0.25"
     inkscape:showpageshadow="2"
     inkscape:pageopacity="0.0"
     inkscape:pagecheckerboard="0"
     inkscape:deskcolor="#d1d1d1"
     inkscape:document-units="in"
     showgrid="false" />
  <defs
     id="defs1549" />
  <g
     id="use1583"
     transform="matrix(0.12676923,0,0,0.13039999,-119.59907,-167.52967)">
    <path
       fill="#ffcc44"
       d="m 1220.0293,34.259766 c -31.4112,0 -56.875,47.010098 -56.875,105.000004 0.016,40.08742 12.395,76.65957 31.9043,94.25976 l -45.7402,45.74024 45.7754,45.77539 c -19.517,17.57622 -31.9093,54.13524 -31.9395,94.22461 0,33.25124 8.3726,62.89216 21.4375,82.13085 0.9359,3.77777 47.6967,25.61299 51.8223,18.44727 23.4244,-12.98714 40.4902,-53.10326 40.4902,-100.57812 C 1276.8879,379.17235 1264.5093,342.60019 1245,325 l 45.7402,-45.74023 -45.7754,-45.77539 c 19.5168,-17.57623 31.9093,-54.13524 31.9395,-94.22461 0,-57.989906 -25.4638,-105.000004 -56.875,-105.000004 z m 0,45 c 17.9493,0 32.5,26.862924 32.5,60.000004 0,33.13708 -14.5507,60 -32.5,60 -17.9493,0 -32.5,-26.86292 -32.5,-60 0,-33.13708 14.5507,-60.000004 32.5,-60.000004 z M 694.04102,169.13477 C 630.1529,175.5738 566.1985,186.08877 502.98242,199.39844 520.49857,262.58937 450.9514,302.6112 460,375 c 1.81828,14.54628 11.57228,23.14188 23.31836,26.56836 -3.25415,26.67544 -20.68027,58.98688 -43.07422,53.24219 C 447.8128,455.05149 454.9816,450.0483 455,440 c 0.0457,-24.99996 -50,-40.22681 -50,15 0,26.44984 31.9708,41.44178 60.64453,32.24609 -5.21015,1.7975 -10.49347,2.9404 -15.66992,3.63086 l 0.0781,267.125 C 439.61776,747.05302 423.3242,740 405,740 c -31.50019,0 -57.03516,20.81876 -57.03516,46.5 0.001,1.03426 0.0459,2.06778 0.13282,3.09961 h -0.13282 l -0.041,7.125 c 24.46244,30.00124 46.92928,62.77961 67.72461,98.10547 L 749.79492,895 750,820.75586 h -0.15039 c 0.0834,-0.72647 0.13377,-1.45469 0.15039,-2.18359 10e-6,-18.09015 -20.14718,-32.75586 -45,-32.75586 -9.3762,0.59726 -16.97851,2.63189 -23.64258,5.92382 5.90727,-2.95 12.52926,-4.93925 20.47461,-5.80468 l 10.5332,-15.46094 64.76172,44.11328 10.30664,-14.78906 -64.46875,-44.32227 -6.74609,9.3418 125.96094,-184.88281 64.36133,44.25 9.8125,-15.13086 -63.99219,-43.99414 -3.30274,4.77929 51.69727,-75.88281 64.3418,44.23438 10.62109,-14.57227 L 918.03906,483.96289 910,485 l -8.74609,8.22656 3.99218,-5.85937 C 901.46298,489.02177 896.38289,490 890,490 c -25,0 -55,-5 -75,-5 -9.74732,0 -27.80835,-5.93899 -44.79883,-11.93945 C 759.82677,476.51042 742.84963,481.78759 730,485 c -17.6322,4.40805 -50.80833,-10.61536 -58.5332,-14.36133 -10.5374,15.72431 -24.31388,25.3146 -38.31641,29.89844 26.18124,-8.65688 51.55225,-34.88291 56.25586,-86.08984 C 714.14543,408.95861 735,391.29254 735,370 c 0,-55.22681 -55,-45 -55,-10 0,9.54012 3.41167,14.96313 8.10352,17.48242 -80.30609,-31.38926 38.06424,-123.36233 5.9375,-208.34765 z m 525.98828,80.83593 29.2891,29.28907 -29.2891,29.28906 -29.2891,-29.28906 z m 0,109.28907 c 17.9493,0 32.5,26.86292 32.5,60 0,33.13708 -14.5507,60 -32.5,60 -17.9493,0 -32.5,-26.86292 -32.5,-60 0,-33.13708 14.5507,-60 32.5,-60 z M 485.40625,476.125 c 0.0199,0.1606 0.0469,0.31527 0.0684,0.47461 -0.0144,-0.1039 -0.0332,-0.20416 -0.0469,-0.30859 -0.3811,0.24777 -0.76543,0.51244 -1.15039,0.77929 0.37815,-0.31113 0.75592,-0.62208 1.12891,-0.94531 z m -5.57813,4.25781 L 480,515 H 860 L 660.04297,802.21484 660,808.70312 v -9.3125 h -0.1582 c 0.088,-0.93551 0.14068,-1.8719 0.1582,-2.81054 10e-6,-23.29552 -21.26646,-42.18164 -47.5,-42.18164 -23.99951,0 -43.84262,15.80699 -47.30469,34.86718 C 563.62415,763.96812 541.10503,745 513.51758,745 c -17.98066,0 -33.79647,8.06327 -43.00196,20.22266 2.62391,-3.49145 5.77627,-6.6726 9.39063,-9.44141 l -0.11328,-275.375 c 0.0117,-0.008 0.0235,-0.0156 0.0351,-0.0234 z m 93.69922,3.89844 c 0.14529,0.26042 0.3062,0.51164 0.45899,0.76758 -0.10849,-0.17778 -0.22126,-0.35324 -0.32617,-0.53321 -15.41577,16.8619 -37.0589,24.86562 -55.10157,23.09376 18.02125,1.71512 39.62503,-6.34946 54.96875,-23.32813 z M 980.71289,516.29492 750,855 v 40 L 925.36914,637.10352 807.54492,810.74219 c 36.99705,2.2175 73.30998,9.25103 108.22852,20.7539 -34.92103,-11.47372 -71.25461,-18.48819 -108.28516,-20.66992 l -19.68164,28.85352 c 62.06311,1.18399 122.66874,16.54445 177.81641,44.67578 l 6.47656,3.37695 c 41.32649,22.00508 79.45159,51.25702 112.67189,86.99805 C 1164.9541,1060.9972 1210,1178.0004 1210,1300 c 0,34.7556 -3.6557,69.1062 -10.8496,102.4766 8.2799,4.2883 16.8014,8.4473 25.6523,12.5117 8.6624,-37.5146 13.0821,-75.7354 13.0821,-114.9883 0,-98.3028 -27.4571,-193.5597 -77.5137,-273.6934 -0.3615,-0.2659 -0.721,-0.5392 -1.082,-0.8066 42.1564,31.2681 89.8471,55.2147 140.7109,70.9355 V 899.50391 c -51.7122,-25.69313 -109.9716,-86.67251 -101.2891,-151.56836 -35.1208,-24.62762 -71.4492,-48.97531 -108.8418,-72.9668 74.9405,48.01368 145.3542,97.11149 210.1309,146.24219 V 708.4375 C 1195.393,639.78632 1099.363,580.03839 1000.4395,526.4707 l -0.076,0.11328 z M 335,520 l -20,8.48047 v 229.73047 l 20,22.57812 z m 55,18.59766 c -13.90165,0 -27.80412,8.59822 -10.60742,25.79492 -34.3934,-34.3934 -34.3934,55.60824 0,21.21484 -34.3934,34.3934 55.60824,34.3934 21.21484,0 26.21748,26.21748 32.80114,-20.19935 18.94727,-28.24609 -4.32033,-2.50938 -10.62715,-1.28887 -18.94727,7.03125 17.1967,-17.1967 3.29423,-25.79492 -10.60742,-25.79492 z M 480,570 v 25 H 804.05859 L 820,570 Z m 518.94531,48.58789 c 0.2944,0.17653 0.58463,0.35467 0.87891,0.53125 -0.29364,-0.17612 -0.58516,-0.35323 -0.87891,-0.5293 z m -609.55273,34.4043 c -13.90165,0 -27.80217,8.59822 -10.60547,25.79492 -34.3934,-34.3934 -34.3934,55.60629 0,21.21289 -34.3934,34.3934 55.60629,34.3934 21.21289,0 26.21748,26.21748 32.80309,-20.19935 18.94922,-28.24609 -4.32033,-2.50938 -10.6291,-1.28692 -18.94922,7.0332 17.1967,-17.1967 3.29423,-25.79492 -10.60742,-25.79492 z m 398.2207,7.24219 -10.24023,14.83398 64.65234,44.44922 10.23828,-14.83594 z M 470.21094,765.63281 c -0.20747,0.28063 -0.4109,0.56283 -0.61133,0.84766 0.19946,-0.28501 0.40492,-0.56658 0.61133,-0.84766 z m -8.27149,23.83594 c 0.0227,0.12092 0.0553,0.23109 0.0957,0.32617 v 0.006 c -0.0415,-0.0963 -0.0726,-0.20892 -0.0957,-0.33203 z m 218.41407,2.78711 c -0.48371,0.25169 -0.96319,0.51022 -1.4375,0.77539 0.47334,-0.26674 0.95499,-0.52188 1.4375,-0.77539 z m 337.20698,51.07617 c 0.3141,0.79139 0.632,1.58151 0.9512,2.37109 -0.319,-0.78974 -0.6372,-1.57952 -0.9512,-2.37109 z m 3.0821,7.5332 c 0.3083,0.73287 0.611,1.46799 0.9238,2.19922 -0.3126,-0.73147 -0.6156,-1.4661 -0.9238,-2.19922 z m 3.6816,8.49415 c 0.5139,1.14621 1.0395,2.28771 1.5645,3.42968 -0.5245,-1.14205 -1.0511,-2.28335 -1.5645,-3.42968 z m 3.0879,6.70703 c 0.597,1.26839 1.1941,2.53587 1.8047,3.79882 -0.6101,-1.26296 -1.2083,-2.53035 -1.8047,-3.79882 z m 2.7324,5.68359 c 1.3209,2.69587 2.6697,5.38071 4.0528,8.05078 -1.3822,-2.6705 -2.7328,-5.35412 -4.0528,-8.05078 z m 5.0293,9.92969 c 0.8177,1.55861 1.6417,3.11461 2.4805,4.66406 -0.8383,-1.54952 -1.6633,-3.10525 -2.4805,-4.66406 z m 2.7715,5.1914 c 1.8882,3.47545 3.8264,6.92978 5.8203,10.35743 3.0941,5.31894 6.3144,10.57806 9.6602,15.77539 -2.8443,-4.40843 -5.6065,-8.85465 -8.2617,-13.34766 -0.4756,-0.80484 -0.9288,-1.62012 -1.3985,-2.42773 -1.9936,-3.42804 -3.9326,-6.88079 -5.8203,-10.35743 z m -243.16405,17.86719 c 2.44383,7.2194 4.94346,14.36014 7.47852,21.44922 L 800,920 H 430 l 12.70703,24.69922 366.20508,-0.29883 -0.23633,-0.65039 c 1.41341,3.77728 2.83611,7.54048 4.27539,11.27539 202.04923,4.9742 319.65603,193.07281 296.89263,394.81051 11.2001,7.6075 22.8421,15.1195 34.7753,22.375 -6.5059,-9.679 -6.5121,-16.274 2.0176,-18.8203 C 1148.865,1335.794 1150,1317.9597 1150,1300 c 0,-5.3582 -0.1017,-10.7043 -0.3027,-16.0371 -13.4387,-10.0344 -11.8038,-19.084 -1.9395,-27.5938 -2.5698,-24.9118 -7.3261,-49.3937 -14.1465,-73.1347 -18.2832,-13.575 -11.4544,-18.32 -7.7441,-24.1621 -8.2138,-23.1681 -18.4482,-45.4906 -30.582,-66.6582 -8.3662,-4.1011 -14.6807,-8.7163 -9.7657,-16.1446 -12.678,-19.8798 -27.1048,-38.6042 -43.1738,-55.8925 -5.1036,-5.4909 -10.3424,-10.8048 -15.707,-15.9356 -3.9753,-2.3756 -8.0992,-4.4442 -10.6407,-9.79296 -23.46237,-20.77411 -49.10383,-38.22485 -76.28511,-52.06836 l -5.56445,-2.77344 c -27.63423,-13.47179 -56.79183,-23.25102 -86.81641,-29.04492 l -12.7168,-2.20703 c -13.14572,-2.02792 -26.43671,-3.29449 -39.83398,-3.81641 z m 259.01365,8.83203 c 0.9989,1.54604 2.0064,3.08828 3.0274,4.62305 -1.0226,-1.53444 -2.027,-3.07814 -3.0274,-4.62305 z m -536.11131,50.33203 c -13.90165,0 -27.80216,8.59823 -10.60547,25.79493 -34.39339,-34.3934 -34.39339,55.60633 0,21.21293 -34.39339,34.3934 55.6063,34.3934 21.2129,0 26.21748,26.2175 32.80113,-20.1994 18.94726,-28.24614 -4.32033,-2.50938 -10.62714,-1.28691 -18.94726,7.03321 17.1967,-17.1967 3.29422,-25.79493 -10.60743,-25.79493 z m 88.13086,0 c -13.90165,0 -27.80217,8.59823 -10.60547,25.79493 -34.3934,-34.3934 -34.3934,55.60633 0,21.21293 -34.3934,34.3934 55.60629,34.3934 21.2129,0 26.21748,26.2175 32.80308,-20.1994 18.94921,-28.24614 -4.32033,-2.50938 -10.62911,-1.28691 -18.94921,7.03321 17.19668,-17.1967 3.29422,-25.79493 -10.60743,-25.79493 z m 227.35157,41.04886 17.11328,35.0293 c 102.38312,30.8541 178.3105,129.8192 182.9004,248.6093 l 27.8555,24.2286 c 0.166,-4.2507 0.25,-8.5238 0.25,-12.8184 0,-147.0489 -98.33735,-269.3877 -228.11918,-295.0488 z"
       id="path1754" />
  </g>
  <g
     id="use1585"
     transform="matrix(-0.12676923,0,0,-0.13039999,45.200935,93.270322)">
    <path
       fill="#ffcc44"
       d="m 1220.0293,34.259766 c -31.4112,0 -56.875,47.010098 -56.875,105.000004 0.016,40.08742 12.395,76.65957 31.9043,94.25976 l -45.7402,45.74024 45.7754,45.77539 c -19.517,17.57622 -31.9093,54.13524 -31.9395,94.22461 0,33.25124 8.3726,62.89216 21.4375,82.13085 0.9359,3.77777 47.6967,25.61299 51.8223,18.44727 23.4244,-12.98714 40.4902,-53.10326 40.4902,-100.57812 C 1276.8879,379.17235 1264.5093,342.60019 1245,325 l 45.7402,-45.74023 -45.7754,-45.77539 c 19.5168,-17.57623 31.9093,-54.13524 31.9395,-94.22461 0,-57.989906 -25.4638,-105.000004 -56.875,-105.000004 z m 0,45 c 17.9493,0 32.5,26.862924 32.5,60.000004 0,33.13708 -14.5507,60 -32.5,60 -17.9493,0 -32.5,-26.86292 -32.5,-60 0,-33.13708 14.5507,-60.000004 32.5,-60.000004 z M 694.04102,169.13477 C 630.1529,175.5738 566.1985,186.08877 502.98242,199.39844 520.49857,262.58937 450.9514,302.6112 460,375 c 1.81828,14.54628 11.57228,23.14188 23.31836,26.56836 -3.25415,26.67544 -20.68027,58.98688 -43.07422,53.24219 C 447.8128,455.05149 454.9816,450.0483 455,440 c 0.0457,-24.99996 -50,-40.22681 -50,15 0,26.44984 31.9708,41.44178 60.64453,32.24609 -5.21015,1.7975 -10.49347,2.9404 -15.66992,3.63086 l 0.0781,267.125 C 439.61776,747.05302 423.3242,740 405,740 c -31.50019,0 -57.03516,20.81876 -57.03516,46.5 0.001,1.03426 0.0459,2.06778 0.13282,3.09961 h -0.13282 l -0.041,7.125 c 24.46244,30.00124 46.92928,62.77961 67.72461,98.10547 L 749.79492,895 750,820.75586 h -0.15039 c 0.0834,-0.72647 0.13377,-1.45469 0.15039,-2.18359 10e-6,-18.09015 -20.14718,-32.75586 -45,-32.75586 -9.3762,0.59726 -16.97851,2.63189 -23.64258,5.92382 5.90727,-2.95 12.52926,-4.93925 20.47461,-5.80468 l 10.5332,-15.46094 64.76172,44.11328 10.30664,-14.78906 -64.46875,-44.32227 -6.74609,9.3418 125.96094,-184.88281 64.36133,44.25 9.8125,-15.13086 -63.99219,-43.99414 -3.30274,4.77929 51.69727,-75.88281 64.3418,44.23438 10.62109,-14.57227 L 918.03906,483.96289 910,485 l -8.74609,8.22656 3.99218,-5.85937 C 901.46298,489.02177 896.38289,490 890,490 c -25,0 -55,-5 -75,-5 -9.74732,0 -27.80835,-5.93899 -44.79883,-11.93945 C 759.82677,476.51042 742.84963,481.78759 730,485 c -17.6322,4.40805 -50.80833,-10.61536 -58.5332,-14.36133 -10.5374,15.72431 -24.31388,25.3146 -38.31641,29.89844 26.18124,-8.65688 51.55225,-34.88291 56.25586,-86.08984 C 714.14543,408.95861 735,391.29254 735,370 c 0,-55.22681 -55,-45 -55,-10 0,9.54012 3.41167,14.96313 8.10352,17.48242 -80.30609,-31.38926 38.06424,-123.36233 5.9375,-208.34765 z m 525.98828,80.83593 29.2891,29.28907 -29.2891,29.28906 -29.2891,-29.28906 z m 0,109.28907 c 17.9493,0 32.5,26.86292 32.5,60 0,33.13708 -14.5507,60 -32.5,60 -17.9493,0 -32.5,-26.86292 -32.5,-60 0,-33.13708 14.5507,-60 32.5,-60 z M 485.40625,476.125 c 0.0199,0.1606 0.0469,0.31527 0.0684,0.47461 -0.0144,-0.1039 -0.0332,-0.20416 -0.0469,-0.30859 -0.3811,0.24777 -0.76543,0.51244 -1.15039,0.77929 0.37815,-0.31113 0.75592,-0.62208 1.12891,-0.94531 z m -5.57813,4.25781 L 480,515 H 860 L 660.04297,802.21484 660,808.70312 v -9.3125 h -0.1582 c 0.088,-0.93551 0.14068,-1.8719 0.1582,-2.81054 10e-6,-23.29552 -21.26646,-42.18164 -47.5,-42.18164 -23.99951,0 -43.84262,15.80699 -47.30469,34.86718 C 563.62415,763.96812 541.10503,745 513.51758,745 c -17.98066,0 -33.79647,8.06327 -43.00196,20.22266 2.62391,-3.49145 5.77627,-6.6726 9.39063,-9.44141 l -0.11328,-275.375 c 0.0117,-0.008 0.0235,-0.0156 0.0351,-0.0234 z m 93.69922,3.89844 c 0.14529,0.26042 0.3062,0.51164 0.45899,0.76758 -0.10849,-0.17778 -0.22126,-0.35324 -0.32617,-0.53321 -15.41577,16.8619 -37.0589,24.86562 -55.10157,23.09376 18.02125,1.71512 39.62503,-6.34946 54.96875,-23.32813 z M 980.71289,516.29492 750,855 v 40 L 925.36914,637.10352 807.54492,810.74219 c 36.99705,2.2175 73.30998,9.25103 108.22852,20.7539 -34.92103,-11.47372 -71.25461,-18.48819 -108.28516,-20.66992 l -19.68164,28.85352 c 62.06311,1.18399 122.66874,16.54445 177.81641,44.67578 l 6.47656,3.37695 c 41.32649,22.00508 79.45159,51.25702 112.67189,86.99805 C 1164.9541,1060.9972 1210,1178.0004 1210,1300 c 0,34.7556 -3.6557,69.1062 -10.8496,102.4766 8.2799,4.2883 16.8014,8.4473 25.6523,12.5117 8.6624,-37.5146 13.0821,-75.7354 13.0821,-114.9883 0,-98.3028 -27.4571,-193.5597 -77.5137,-273.6934 -0.3615,-0.2659 -0.721,-0.5392 -1.082,-0.8066 42.1564,31.2681 89.8471,55.2147 140.7109,70.9355 V 899.50391 c -51.7122,-25.69313 -109.9716,-86.67251 -101.2891,-151.56836 -35.1208,-24.62762 -71.4492,-48.97531 -108.8418,-72.9668 74.9405,48.01368 145.3542,97.11149 210.1309,146.24219 V 708.4375 C 1195.393,639.78632 1099.363,580.03839 1000.4395,526.4707 l -0.076,0.11328 z M 335,520 l -20,8.48047 v 229.73047 l 20,22.57812 z m 55,18.59766 c -13.90165,0 -27.80412,8.59822 -10.60742,25.79492 -34.3934,-34.3934 -34.3934,55.60824 0,21.21484 -34.3934,34.3934 55.60824,34.3934 21.21484,0 26.21748,26.21748 32.80114,-20.19935 18.94727,-28.24609 -4.32033,-2.50938 -10.62715,-1.28887 -18.94727,7.03125 17.1967,-17.1967 3.29423,-25.79492 -10.60742,-25.79492 z M 480,570 v 25 H 804.05859 L 820,570 Z m 518.94531,48.58789 c 0.2944,0.17653 0.58463,0.35467 0.87891,0.53125 -0.29364,-0.17612 -0.58516,-0.35323 -0.87891,-0.5293 z m -609.55273,34.4043 c -13.90165,0 -27.80217,8.59822 -10.60547,25.79492 -34.3934,-34.3934 -34.3934,55.60629 0,21.21289 -34.3934,34.3934 55.60629,34.3934 21.21289,0 26.21748,26.21748 32.80309,-20.19935 18.94922,-28.24609 -4.32033,-2.50938 -10.6291,-1.28692 -18.94922,7.0332 17.1967,-17.1967 3.29423,-25.79492 -10.60742,-25.79492 z m 398.2207,7.24219 -10.24023,14.83398 64.65234,44.44922 10.23828,-14.83594 z M 470.21094,765.63281 c -0.20747,0.28063 -0.4109,0.56283 -0.61133,0.84766 0.19946,-0.28501 0.40492,-0.56658 0.61133,-0.84766 z m -8.27149,23.83594 c 0.0227,0.12092 0.0553,0.23109 0.0957,0.32617 v 0.006 c -0.0415,-0.0963 -0.0726,-0.20892 -0.0957,-0.33203 z m 218.41407,2.78711 c -0.48371,0.25169 -0.96319,0.51022 -1.4375,0.77539 0.47334,-0.26674 0.95499,-0.52188 1.4375,-0.77539 z m 337.20698,51.07617 c 0.3141,0.79139 0.632,1.58151 0.9512,2.37109 -0.319,-0.78974 -0.6372,-1.57952 -0.9512,-2.37109 z m 3.0821,7.5332 c 0.3083,0.73287 0.611,1.46799 0.9238,2.19922 -0.3126,-0.73147 -0.6156,-1.4661 -0.9238,-2.19922 z m 3.6816,8.49415 c 0.5139,1.14621 1.0395,2.28771 1.5645,3.42968 -0.5245,-1.14205 -1.0511,-2.28335 -1.5645,-3.42968 z m 3.0879,6.70703 c 0.597,1.26839 1.1941,2.53587 1.8047,3.79882 -0.6101,-1.26296 -1.2083,-2.53035 -1.8047,-3.79882 z m 2.7324,5.68359 c 1.3209,2.69587 2.6697,5.38071 4.0528,8.05078 -1.3822,-2.6705 -2.7328,-5.35412 -4.0528,-8.05078 z m 5.0293,9.92969 c 0.8177,1.55861 1.6417,3.11461 2.4805,4.66406 -0.8383,-1.54952 -1.6633,-3.10525 -2.4805,-4.66406 z m 2.7715,5.1914 c 1.8882,3.47545 3.8264,6.92978 5.8203,10.35743 3.0941,5.31894 6.3144,10.57806 9.6602,15.77539 -2.8443,-4.40843 -5.6065,-8.85465 -8.2617,-13.34766 -0.4756,-0.80484 -0.9288,-1.62012 -1.3985,-2.42773 -1.9936,-3.42804 -3.9326,-6.88079 -5.8203,-10.35743 z m -243.16405,17.86719 c 2.44383,7.2194 4.94346,14.36014 7.47852,21.44922 L 800,920 H 430 l 12.70703,24.69922 366.20508,-0.29883 -0.23633,-0.65039 c 1.41341,3.77728 2.83611,7.54048 4.27539,11.27539 202.04923,4.9742 319.65603,193.07281 296.89263,394.81051 11.2001,7.6075 22.8421,15.1195 34.7753,22.375 -6.5059,-9.679 -6.5121,-16.274 2.0176,-18.8203 C 1148.865,1335.794 1150,1317.9597 1150,1300 c 0,-5.3582 -0.1017,-10.7043 -0.3027,-16.0371 -13.4387,-10.0344 -11.8038,-19.084 -1.9395,-27.5938 -2.5698,-24.9118 -7.3261,-49.3937 -14.1465,-73.1347 -18.2832,-13.575 -11.4544,-18.32 -7.7441,-24.1621 -8.2138,-23.1681 -18.4482,-45.4906 -30.582,-66.6582 -8.3662,-4.1011 -14.6807,-8.7163 -9.7657,-16.1446 -12.678,-19.8798 -27.1048,-38.6042 -43.1738,-55.8925 -5.1036,-5.4909 -10.3424,-10.8048 -15.707,-15.9356 -3.9753,-2.3756 -8.0992,-4.4442 -10.6407,-9.79296 -23.46237,-20.77411 -49.10383,-38.22485 -76.28511,-52.06836 l -5.56445,-2.77344 c -27.63423,-13.47179 -56.79183,-23.25102 -86.81641,-29.04492 l -12.7168,-2.20703 c -13.14572,-2.02792 -26.43671,-3.29449 -39.83398,-3.81641 z m 259.01365,8.83203 c 0.9989,1.54604 2.0064,3.08828 3.0274,4.62305 -1.0226,-1.53444 -2.027,-3.07814 -3.0274,-4.62305 z m -536.11131,50.33203 c -13.90165,0 -27.80216,8.59823 -10.60547,25.79493 -34.39339,-34.3934 -34.39339,55.60633 0,21.21293 -34.39339,34.3934 55.6063,34.3934 21.2129,0 26.21748,26.2175 32.80113,-20.1994 18.94726,-28.24614 -4.32033,-2.50938 -10.62714,-1.28691 -18.94726,7.03321 17.1967,-17.1967 3.29422,-25.79493 -10.60743,-25.79493 z m 88.13086,0 c -13.90165,0 -27.80217,8.59823 -10.60547,25.79493 -34.3934,-34.3934 -34.3934,55.60633 0,21.21293 -34.3934,34.3934 55.60629,34.3934 21.2129,0 26.21748,26.2175 32.80308,-20.1994 18.94921,-28.24614 -4.32033,-2.50938 -10.62911,-1.28691 -18.94921,7.03321 17.19668,-17.1967 3.29422,-25.79493 -10.60743,-25.79493 z m 227.35157,41.04886 17.11328,35.0293 c 102.38312,30.8541 178.3105,129.8192 182.9004,248.6093 l 27.8555,24.2286 c 0.166,-4.2507 0.25,-8.5238 0.25,-12.8184 0,-147.0489 -98.33735,-269.3877 -228.11918,-295.0488 z"
       id="path1758" />
  </g>
  <g
     id="use1587"
     transform="matrix(0.12676923,0,0,0.13039999,-119.59907,-167.52967)">
    <path
       fill="#ff0000"
       d="M 339.99414,0 C 387.43372,47.599847 440.5475,102.80581 480.33398,165.76562 600.0914,117.28142 839.09852,89.167466 958.60352,139.92578 1001.1555,89.326587 1052.4502,43.591271 1107.3164,0 Z m 880.03516,79.259766 a 32.5,60 0 0 0 -32.5,60.000004 32.5,60 0 0 0 32.5,60 32.5,60 0 0 0 32.5,-60 32.5,60 0 0 0 -32.5,-60.000004 z m 0,170.710934 -29.2891,29.28907 29.2891,29.28906 29.2891,-29.28906 z m 0,109.28907 a 32.5,60 0 0 0 -32.5,60 32.5,60 0 0 0 32.5,60 32.5,60 0 0 0 32.5,-60 32.5,60 0 0 0 -32.5,-60 z M 988.95898,543.5625 968.70703,573.10352 C 1089.3381,643.25027 1201.1142,717.77655 1300,792.44531 V 744.96094 C 1206.4059,675.42961 1101.5626,609.47613 988.95898,543.5625 Z m -708.95312,1.63867 c -47.87396,23.23284 -95.50789,47.34182 -142.25,72.6211 53.19471,30.11823 100.35637,65.09712 142.41992,105.29296 z m 110.21289,14.80078 a 15,15 0 0 0 -10.82617,4.39063 15,15 0 0 0 0,21.21484 15,15 0 0 0 21.21484,0 15,15 0 0 0 0,-21.21484 15,15 0 0 0 -10.38867,-4.39063 z M 480,635.21094 480.34961,755.45508 C 489.60803,748.87836 501.04406,745 513.51758,745 c 27.58745,0 50.10657,18.96812 51.67773,44.26562 3.46207,-19.0602 23.30518,-34.86718 47.30469,-34.86718 26.23354,0 47.50001,18.88612 47.5,42.18164 -0.0175,0.93864 -0.0702,1.87504 -0.1582,2.81054 H 660 l 0.043,2.96876 115.7793,-166.94532 z m -90.38672,39.18359 a 15,15 0 0 0 -10.82617,4.39258 15,15 0 0 0 0,21.21289 15,15 0 0 0 21.21289,0 15,15 0 0 0 0,-21.21289 15,15 0 0 0 -10.38672,-4.39258 z m 887.89652,130.15235 c -11.9054,22.59309 8.8818,47.77209 22.4902,59.20117 v -42.52344 c -7.3359,-5.55738 -14.7526,-11.11505 -22.4902,-16.67773 z M 808.91211,944.40039 c 0.0754,0.20121 0.15304,0.39852 0.22851,0.59961 h 0.38282 z M 651.2832,944.5293 443.34961,945 l -0.64258,-0.30078 c 17.48084,34.53045 33.43262,71.12378 47.98633,109.84768 L 490.47656,1055 H 651.375 Z M 812.94141,955 l 20.22461,49.9512 c 129.78183,25.6611 228.11918,147.9999 228.11918,295.0488 0,4.2946 -0.084,8.5677 -0.25,12.8184 L 1110,1350 c 22.6075,-201.9015 -94.9994,-390 -297.05859,-395 z m -295.25782,8.90234 c 13.90165,0 27.80413,8.59823 10.60743,25.79493 8.32012,-8.32012 14.62693,-9.54259 18.94726,-7.03321 13.85387,8.04674 7.27022,54.46364 -18.94726,28.24614 34.3934,34.3934 -55.60629,34.3934 -21.2129,0 -34.39339,34.3934 -34.39339,-55.60633 0,-21.21293 -17.19668,-17.1967 -3.29618,-25.79493 10.60547,-25.79493 z m -10.60547,25.79493 a 15,15 0 0 0 0,21.21293 15,15 0 0 0 21.2129,0 15,15 0 0 0 0,-21.21293 15,15 0 0 0 -21.2129,0 z m 98.73633,-25.79493 c 13.90165,0 27.80411,8.59823 10.60743,25.79493 8.3201,-8.32012 14.62888,-9.54259 18.94921,-7.03321 13.85387,8.04674 7.26825,54.46364 -18.94921,28.24614 34.3934,34.3934 -55.6063,34.3934 -21.2129,0 -34.3934,34.3934 -34.3934,-55.60633 0,-21.21293 -17.1967,-17.1967 -3.29618,-25.79493 10.60547,-25.79493 z m -10.60547,25.79493 a 15,15 0 0 0 0,21.21293 15,15 0 0 0 21.2129,0 15,15 0 0 0 0,-21.21293 15,15 0 0 0 -21.2129,0 z m 254.875,50.47463 c 47.76278,99.0049 107.68075,181.4087 182.80472,248.6484 -4.2979,-119.0192 -80.22626,-217.9857 -182.80472,-248.6484 z m 360.38872,18.2636 c 35.9884,73.8684 55.2949,156.6452 55.2949,241.5645 0,43.1858 -4.9929,85.8177 -14.4375,127.0312 15.9002,6.7874 32.0861,13.2199 48.6699,19.3321 v -349.9336 c -31.2146,-9.6475 -61.2385,-22.3839 -89.5273,-37.9942 z"
       id="path1762" />
  </g>
  <g
     id="use1589"
     transform="matrix(-0.12676923,0,0,-0.13039999,45.200935,93.270322)">
    <path
       fill="#ff0000"
       d="M 339.99414,0 C 387.43372,47.599847 440.5475,102.80581 480.33398,165.76562 600.0914,117.28142 839.09852,89.167466 958.60352,139.92578 1001.1555,89.326587 1052.4502,43.591271 1107.3164,0 Z m 880.03516,79.259766 a 32.5,60 0 0 0 -32.5,60.000004 32.5,60 0 0 0 32.5,60 32.5,60 0 0 0 32.5,-60 32.5,60 0 0 0 -32.5,-60.000004 z m 0,170.710934 -29.2891,29.28907 29.2891,29.28906 29.2891,-29.28906 z m 0,109.28907 a 32.5,60 0 0 0 -32.5,60 32.5,60 0 0 0 32.5,60 32.5,60 0 0 0 32.5,-60 32.5,60 0 0 0 -32.5,-60 z M 988.95898,543.5625 968.70703,573.10352 C 1089.3381,643.25027 1201.1142,717.77655 1300,792.44531 V 744.96094 C 1206.4059,675.42961 1101.5626,609.47613 988.95898,543.5625 Z m -708.95312,1.63867 c -47.87396,23.23284 -95.50789,47.34182 -142.25,72.6211 53.19471,30.11823 100.35637,65.09712 142.41992,105.29296 z m 110.21289,14.80078 a 15,15 0 0 0 -10.82617,4.39063 15,15 0 0 0 0,21.21484 15,15 0 0 0 21.21484,0 15,15 0 0 0 0,-21.21484 15,15 0 0 0 -10.38867,-4.39063 z M 480,635.21094 480.34961,755.45508 C 489.60803,748.87836 501.04406,745 513.51758,745 c 27.58745,0 50.10657,18.96812 51.67773,44.26562 3.46207,-19.0602 23.30518,-34.86718 47.30469,-34.86718 26.23354,0 47.50001,18.88612 47.5,42.18164 -0.0175,0.93864 -0.0702,1.87504 -0.1582,2.81054 H 660 l 0.043,2.96876 115.7793,-166.94532 z m -90.38672,39.18359 a 15,15 0 0 0 -10.82617,4.39258 15,15 0 0 0 0,21.21289 15,15 0 0 0 21.21289,0 15,15 0 0 0 0,-21.21289 15,15 0 0 0 -10.38672,-4.39258 z m 887.89652,130.15235 c -11.9054,22.59309 8.8818,47.77209 22.4902,59.20117 v -42.52344 c -7.3359,-5.55738 -14.7526,-11.11505 -22.4902,-16.67773 z M 808.91211,944.40039 c 0.0754,0.20121 0.15304,0.39852 0.22851,0.59961 h 0.38282 z M 651.2832,944.5293 443.34961,945 l -0.64258,-0.30078 c 17.48084,34.53045 33.43262,71.12378 47.98633,109.84768 L 490.47656,1055 H 651.375 Z M 812.94141,955 l 20.22461,49.9512 c 129.78183,25.6611 228.11918,147.9999 228.11918,295.0488 0,4.2946 -0.084,8.5677 -0.25,12.8184 L 1110,1350 c 22.6075,-201.9015 -94.9994,-390 -297.05859,-395 z m -295.25782,8.90234 c 13.90165,0 27.80413,8.59823 10.60743,25.79493 8.32012,-8.32012 14.62693,-9.54259 18.94726,-7.03321 13.85387,8.04674 7.27022,54.46364 -18.94726,28.24614 34.3934,34.3934 -55.60629,34.3934 -21.2129,0 -34.39339,34.3934 -34.39339,-55.60633 0,-21.21293 -17.19668,-17.1967 -3.29618,-25.79493 10.60547,-25.79493 z m -10.60547,25.79493 a 15,15 0 0 0 0,21.21293 15,15 0 0 0 21.2129,0 15,15 0 0 0 0,-21.21293 15,15 0 0 0 -21.2129,0 z m 98.73633,-25.79493 c 13.90165,0 27.80411,8.59823 10.60743,25.79493 8.3201,-8.32012 14.62888,-9.54259 18.94921,-7.03321 13.85387,8.04674 7.26825,54.46364 -18.94921,28.24614 34.3934,34.3934 -55.6063,34.3934 -21.2129,0 -34.3934,34.3934 -34.3934,-55.60633 0,-21.21293 -17.1967,-17.1967 -3.29618,-25.79493 10.60547,-25.79493 z m -10.60547,25.79493 a 15,15 0 0 0 0,21.21293 15,15 0 0 0 21.2129,0 15,15 0 0 0 0,-21.21293 15,15 0 0 0 -21.2129,0 z m 254.875,50.47463 c 47.76278,99.0049 107.68075,181.4087 182.80472,248.6484 -4.2979,-119.0192 -80.22626,-217.9857 -182.80472,-248.6484 z m 360.38872,18.2636 c 35.9884,73.8684 55.2949,156.6452 55.2949,241.5645 0,43.1858 -4.9929,85.8177 -14.4375,127.0312 15.9002,6.7874 32.0861,13.2199 48.6699,19.3321 v -349.9336 c -31.2146,-9.6475 -61.2385,-22.3839 -89.5273,-37.9942 z"
       id="path1766" />
  </g>
  <g
     id="use1591"
     transform="matrix(0.12676923,0,0,0.13039999,-119.59907,-167.52967)">
    <path
       fill="#4444ff"
       d="m 515,515 v 55 h 55 v -55 z m 27.5,10 A 17.5,17.5 0 0 1 560,542.5 17.5,17.5 0 0 1 542.5,560 17.5,17.5 0 0 1 525,542.5 17.5,17.5 0 0 1 542.5,525 Z M 635,515 v 55 h 55 v -55 z m 27.5,10 A 17.5,17.5 0 0 1 680,542.5 17.5,17.5 0 0 1 662.5,560 17.5,17.5 0 0 1 645,542.5 17.5,17.5 0 0 1 662.5,525 Z M 755,515 v 55 h 55 v -55 z m 27.5,10 A 17.5,17.5 0 0 1 800,542.5 17.5,17.5 0 0 1 782.5,560 17.5,17.5 0 0 1 765,542.5 17.5,17.5 0 0 1 782.5,525 Z m -270,245 a 37.5,37.5 0 0 0 -37.5,37.5 37.5,37.5 0 0 0 0.0879,2.5 H 475 v 85 h 75 v -85 h -0.125 A 37.5,37.5 0 0 0 550,807.5 37.5,37.5 0 0 0 512.5,770 Z m -107.96388,0 c -20.71068,0 -37.5,16.78932 -37.5,37.5 0.001,0.83408 0.0308,1.66788 0.0879,2.5 h -0.0879 v 12.24959 L 415.43514,895 h 26.60098 v -85 h -0.125 c 0.0695,-0.83171 0.11117,-1.66551 0.125,-2.5 0,-20.71068 -16.78932,-37.5 -37.5,-37.5 z M 612.5625,787.85714 A 32.4375,32.142857 0 0 0 580.125,820 a 32.4375,32.142857 0 0 0 0.076,2.14286 h -0.076 V 895 H 645 v -72.85714 h -0.10812 A 32.4375,32.142857 0 0 0 645,820 32.4375,32.142857 0 0 0 612.5625,787.85714 Z m 90,22.14285 a 27.4375,25.92857 0 0 0 -27.4375,25.92858 27.4375,25.92857 0 0 0 0.0643,1.72857 h -0.0643 v 58.77142 H 730 v -58.77142 h -0.0915 A 27.4375,25.92857 0 0 0 730,835.92857 27.4375,25.92857 0 0 0 702.5625,809.99999 Z m 308.252,-253.59765 -18.30473,30.58399 34.25003,20.66406 18.2011,-30.41211 z m 63.3144,38.625 -17.8965,29.90235 33.6094,21.73242 18.3047,-30.58399 z m 63.0566,39.05469 -18.5859,31.05274 33.1484,22.5039 19.252,-32.16601 z m 62.3926,40.16406 -19.2519,32.16407 32.4336,23.69726 19.9414,-33.3164 z m 61.0879,42.3418 -19.5566,32.67773 32.5605,23.48438 19.6094,-32.76367 z M 851.11816,747.94154 875,765 c 50,35 90,-35 50,-70 L 898.04279,677.02853 Z M 900,720 c 8.28427,0 15,6.71573 15,15 0,8.28427 -6.71573,15 -15,15 -8.28427,0 -15,-6.71573 -15,-15 0,-8.28427 6.71573,-15 15,-15 z M 998.39004,618.25643 956.06216,593.50521 919.52715,645.37654 940,660 c 20.55359,14.38751 39.41737,11.03212 51.72896,-0.34135 z M 965,615 c 8.28427,0 15,6.71573 15,15 0,8.28427 -6.71573,15 -15,15 -8.28427,0 -15,-6.71573 -15,-15 0,-8.28427 6.71573,-15 15,-15 z m -155,195 55.74525,7.93536 C 864.14631,807.90831 859.17993,798.03244 850,790 l -19.34919,-12.89946 z m 183.3359,-60.13754 -58.95405,88.20872 c 39.14825,14.88202 76.53205,35.64161 110.84985,61.70209 -27.3634,-46.31128 -45.1,-97.16506 -51.8958,-149.91081 z M 925,395 c 0,0 -15,-5 -20,-5 -5,0 -10,15 -20,15 -10,0 -10,5 -10,5 -0.61904,0.31621 22.90277,3.62526 30,-5 3.17696,-3.86095 20.18377,-2.235 20.18377,-2.235 M 850,395 c 15,0 35.00637,-26.64308 45,-27 l 25,-1 -4,8 c 0,0 -13,2 -18,2 -5,0 -23,23 -33,23 -10,0 -15,-5 -15,-5 z m 62,-43 c 26.02124,-3.85943 44.2604,-17.7743 28,-17 -21,1 -29,11 -33,16 m 2,-154 -8,8 c 0,0 -31,-12 -48,-10 -16.16732,1.90204 -78,33 -78,33 14,-18 87,-62 134,-31 z m -38.00006,50.5 a 7.9999995,17.499995 0 0 1 -8,17.49999 7.9999995,17.499995 0 0 1 -8,-17.49999 7.9999995,17.499995 0 0 1 8,-17.5 7.9999995,17.499995 0 0 1 8,17.5"
       id="path1770" />
  </g>
  <g
     id="use1593"
     transform="matrix(-0.12676923,0,0,-0.13039999,45.200935,93.270322)">
    <path
       fill="#4444ff"
       d="m 515,515 v 55 h 55 v -55 z m 27.5,10 A 17.5,17.5 0 0 1 560,542.5 17.5,17.5 0 0 1 542.5,560 17.5,17.5 0 0 1 525,542.5 17.5,17.5 0 0 1 542.5,525 Z M 635,515 v 55 h 55 v -55 z m 27.5,10 A 17.5,17.5 0 0 1 680,542.5 17.5,17.5 0 0 1 662.5,560 17.5,17.5 0 0 1 645,542.5 17.5,17.5 0 0 1 662.5,525 Z M 755,515 v 55 h 55 v -55 z m 27.5,10 A 17.5,17.5 0 0 1 800,542.5 17.5,17.5 0 0 1 782.5,560 17.5,17.5 0 0 1 765,542.5 17.5,17.5 0 0 1 782.5,525 Z m -270,245 a 37.5,37.5 0 0 0 -37.5,37.5 37.5,37.5 0 0 0 0.0879,2.5 H 475 v 85 h 75 v -85 h -0.125 A 37.5,37.5 0 0 0 550,807.5 37.5,37.5 0 0 0 512.5,770 Z m -107.96388,0 c -20.71068,0 -37.5,16.78932 -37.5,37.5 0.001,0.83408 0.0308,1.66788 0.0879,2.5 h -0.0879 v 12.24959 L 415.43514,895 h 26.60098 v -85 h -0.125 c 0.0695,-0.83171 0.11117,-1.66551 0.125,-2.5 0,-20.71068 -16.78932,-37.5 -37.5,-37.5 z M 612.5625,787.85714 A 32.4375,32.142857 0 0 0 580.125,820 a 32.4375,32.142857 0 0 0 0.076,2.14286 h -0.076 V 895 H 645 v -72.85714 h -0.10812 A 32.4375,32.142857 0 0 0 645,820 32.4375,32.142857 0 0 0 612.5625,787.85714 Z m 90,22.14285 a 27.4375,25.92857 0 0 0 -27.4375,25.92858 27.4375,25.92857 0 0 0 0.0643,1.72857 h -0.0643 v 58.77142 H 730 v -58.77142 h -0.0915 A 27.4375,25.92857 0 0 0 730,835.92857 27.4375,25.92857 0 0 0 702.5625,809.99999 Z m 308.252,-253.59765 -18.30473,30.58399 34.25003,20.66406 18.2011,-30.41211 z m 63.3144,38.625 -17.8965,29.90235 33.6094,21.73242 18.3047,-30.58399 z m 63.0566,39.05469 -18.5859,31.05274 33.1484,22.5039 19.252,-32.16601 z m 62.3926,40.16406 -19.2519,32.16407 32.4336,23.69726 19.9414,-33.3164 z m 61.0879,42.3418 -19.5566,32.67773 32.5605,23.48438 19.6094,-32.76367 z M 851.11816,747.94154 875,765 c 50,35 90,-35 50,-70 L 898.04279,677.02853 Z M 900,720 c 8.28427,0 15,6.71573 15,15 0,8.28427 -6.71573,15 -15,15 -8.28427,0 -15,-6.71573 -15,-15 0,-8.28427 6.71573,-15 15,-15 z M 998.39004,618.25643 956.06216,593.50521 919.52715,645.37654 940,660 c 20.55359,14.38751 39.41737,11.03212 51.72896,-0.34135 z M 965,615 c 8.28427,0 15,6.71573 15,15 0,8.28427 -6.71573,15 -15,15 -8.28427,0 -15,-6.71573 -15,-15 0,-8.28427 6.71573,-15 15,-15 z m -155,195 55.74525,7.93536 C 864.14631,807.90831 859.17993,798.03244 850,790 l -19.34919,-12.89946 z m 183.3359,-60.13754 -58.95405,88.20872 c 39.14825,14.88202 76.53205,35.64161 110.84985,61.70209 -27.3634,-46.31128 -45.1,-97.16506 -51.8958,-149.91081 z M 925,395 c 0,0 -15,-5 -20,-5 -5,0 -10,15 -20,15 -10,0 -10,5 -10,5 -0.61904,0.31621 22.90277,3.62526 30,-5 3.17696,-3.86095 20.18377,-2.235 20.18377,-2.235 M 850,395 c 15,0 35.00637,-26.64308 45,-27 l 25,-1 -4,8 c 0,0 -13,2 -18,2 -5,0 -23,23 -33,23 -10,0 -15,-5 -15,-5 z m 62,-43 c 26.02124,-3.85943 44.2604,-17.7743 28,-17 -21,1 -29,11 -33,16 m 2,-154 -8,8 c 0,0 -31,-12 -48,-10 -16.16732,1.90204 -78,33 -78,33 14,-18 87,-62 134,-31 z m -38.00006,50.5 a 7.9999995,17.499995 0 0 1 -8,17.49999 7.9999995,17.499995 0 0 1 -8,-17.49999 7.9999995,17.499995 0 0 1 8,-17.5 7.9999995,17.499995 0 0 1 8,17.5"
       id="path1774" />
  </g>
  <g
     id="use1595"
     transform="matrix(0.12676923,0,0,0.13039999,-119.59907,-167.52967)">
    <path
       fill="#000000"
       d="m 280,545 35,-16.51886 V 758.034 L 280.17505,723.11472 Z M 430.21347,920 415,895 h 376.46141 l 8.58826,25 z M 480,595 h 324.0582 l -28.44682,40 H 480 Z m 744.878,820.0239 c 8.5865,-37.5501 13.0062,-75.771 13.0062,-115.0239 0,-98.3028 -27.4558,-193.5601 -77.6822,-273.8189 16.5148,12.1765 33.7446,23.1627 50.9645,32.6352 35.2952,73.4867 54.6019,156.2644 54.6019,241.1837 0,43.1858 -4.9932,85.8177 -15.4283,126.6042 -9.1746,-4.0236 -17.4378,-7.7427 -25.4621,-11.5803 z M 955.31068,846.65464 985,800 c 5.5337,23.76638 11.8434,47.19874 18.2707,70.58049 M 480.48497,166.00437 C 487.46594,177.23965 493.99035,188.50098 500,200 643.73077,169.58589 791.68819,153.31898 935,170 942.47865,159.89935 950.30175,150.00872 958.6195,139.90719 839.09815,89.168384 600.09169,117.28095 480.48497,166.00437 Z"
       id="path1778" />
  </g>
  <g
     id="use1597"
     transform="matrix(-0.12676923,0,0,-0.13039999,45.200935,93.270322)">
    <path
       fill="#000000"
       d="m 280,545 35,-16.51886 V 758.034 L 280.17505,723.11472 Z M 430.21347,920 415,895 h 376.46141 l 8.58826,25 z M 480,595 h 324.0582 l -28.44682,40 H 480 Z m 744.878,820.0239 c 8.5865,-37.5501 13.0062,-75.771 13.0062,-115.0239 0,-98.3028 -27.4558,-193.5601 -77.6822,-273.8189 16.5148,12.1765 33.7446,23.1627 50.9645,32.6352 35.2952,73.4867 54.6019,156.2644 54.6019,241.1837 0,43.1858 -4.9932,85.8177 -15.4283,126.6042 -9.1746,-4.0236 -17.4378,-7.7427 -25.4621,-11.5803 z M 955.31068,846.65464 985,800 c 5.5337,23.76638 11.8434,47.19874 18.2707,70.58049 M 480.48497,166.00437 C 487.46594,177.23965 493.99035,188.50098 500,200 643.73077,169.58589 791.68819,153.31898 935,170 942.47865,159.89935 950.30175,150.00872 958.6195,139.90719 839.09815,89.168384 600.09169,117.28095 480.48497,166.00437 Z"
       id="path1782" />
  </g>
  <g
     id="use1599"
     transform="matrix(0.12676923,0,0,0.13039999,-119.59907,-167.52967)">
    <path
       stroke="#4444ff"
       stroke-linecap="round"
       stroke-linejoin="round"
       stroke-width="6"
       fill="none"
       d="M 1299.8944,708.3581 C 1165.2251,619.98007 1044.8012,546.40551 913.65916,481.79897 M 778.7865,854.44353 c 90.11299,301.86987 247.3627,490.95487 521.1311,591.89757 M 791.46141,895 H 415.84565 M 800.0821,920 H 430.21347 m 378.07881,25 H 443.34975 M 904.79479,487.64169 701.69648,785.8073 M 980.71276,516.29403 C 904.09847,629.53618 826.24409,741.94178 749.86927,855.34576 M 417.19312,481.26608 C 323.04456,523.75672 229.46646,568.37866 137.21364,617.95184 M 335,520.11494 V 780.78818 M 450,491.88289 V 758.20903 M 280,545.22068 V 723.31691 M 315,528.52994 V 758.21018 M 480,480.41707 V 755.59656 M 480,515 H 860 L 660.08695,802.67975 M 480,570 H 820.89408 M 480,595 H 804.0582 M 480,635 H 775.61138 M 400.6066,564.3934 a 15,15 0 0 1 0,21.2132 15,15 0 0 1 -21.2132,0 15,15 0 0 1 0,-21.2132 15,15 0 0 1 21.2132,0 v 0 m 0,0 c 8.32012,-8.32012 14.62812,-9.54225 18.94845,-7.03287 13.85387,8.04674 7.26903,54.46355 -18.94845,28.24607 C 435,620 345,620 379.3934,585.6066 345,620 345,530 379.3934,564.3934 345,530 435,530 400.6066,564.3934 v 0 M 400,678.7868 a 15,15 0 0 1 0,21.2132 15,15 0 0 1 -21.2132,0 15,15 0 0 1 0,-21.2132 15,15 0 0 1 21.2132,0 v 0 m 0,0 c 8.32012,-8.32012 14.62812,-9.54225 18.94845,-7.03287 C 432.80232,679.80067 426.21748,726.21748 400,700 c 34.3934,34.3934 -55.6066,34.3934 -21.2132,0 -34.3934,34.3934 -34.3934,-55.6066 0,-21.2132 -34.3934,-34.3934 55.6066,-34.3934 21.2132,0 v 0 M 335,620 h 115 m -115,20 h 115 m -43.18138,20 H 450 m -115,0 h 36.84064 m 52.82981,20 H 450 m -115,0 h 19.41506 m 69.96512,20 H 450 m -115,0 h 19.85962 m 51.23331,20 H 450 m -115,0 h 37.85659 M 422.92881,560 H 450 m -115,0 h 22.32695 m 69.08514,20 H 450 m -115,0 h 18.84366 m 54.7166,20 H 450 m -115,0 h 36.26009 m 4.93465,-100 H 450 M 332.92283,520 H 450 m -50.00281,20 H 450 m -115,0 h 44.9683 M 335,740 h 115 m -115,20 h 22.61722 M 335,780 h 10.86114 m 182.42965,209.6967 a 15,15 0 0 1 0,21.2132 15,15 0 0 1 -21.2132,0 15,15 0 0 1 0,-21.2132 15,15 0 0 1 21.2132,0 v 0 m 88.1311,0 a 15,15 0 0 1 0,21.2132 15,15 0 0 1 -21.2132,0 15,15 0 0 1 0,-21.2132 15,15 0 0 1 21.2132,0 v 0 m -88.1311,0 c 8.32012,-8.32012 14.62812,-9.54225 18.94845,-7.03287 13.85387,8.04674 7.26903,54.46357 -18.94845,28.24607 34.3934,34.3934 -55.6066,34.3934 -21.2132,0 -34.3934,34.3934 -34.3934,-55.6066 0,-21.2132 -34.3934,-34.3934 55.6066,-34.3934 21.2132,0 v 0 m 88.1311,0 c 8.32012,-8.32012 14.62812,-9.54225 18.94845,-7.03287 13.85387,8.04674 7.26903,54.46357 -18.94845,28.24607 34.3934,34.3934 -55.6066,34.3934 -21.2132,0 -34.3934,34.3934 -34.3934,-55.6066 0,-21.2132 -34.3934,-34.3934 55.6066,-34.3934 21.2132,0 v 0 M 750,895 v -74.24488 h -0.15004 c 0.0834,-0.72647 0.13342,-1.45477 0.15004,-2.18367 10e-6,-18.09015 -20.14718,-32.75512 -45,-32.75512 -20.61882,1.31343 -32.66348,9.57069 -45,22.88646 v -9.31135 h -0.15833 c 0.088,-0.93551 0.14081,-1.87338 0.15833,-2.81202 10e-6,-23.29552 -21.26647,-42.18028 -47.50001,-42.18028 -23.99951,0 -43.84193,15.8053 -47.304,34.86551 C 563.62483,763.96714 541.1055,745 513.51805,745 c -28.43268,0 -51.48193,20.14719 -51.48192,44.8 -0.33192,-0.77011 -0.017,-2.52159 10e-6,-3.3 0,-25.68124 -25.53595,-46.5 -57.03613,-46.5 -31.50019,0 -57.03613,20.81876 -57.03613,46.5 10e-4,1.03426 0.0468,2.06817 0.13369,3.1 h -0.13369 v 7.60854 M 1000.6315,526.4229 750,895 m 168.03602,-411.03773 57.68251,39.65672 m -198.34618,151.4495 64.65354,44.44931 m -54.41279,-59.28379 64.78179,44.53748 m -10.28292,-124.882 64.42924,44.29509 m -54.18001,-59.12376 63.9915,43.99416 m -15.75797,-115.2086 64.50218,44.34525 m -252.04823,232.34184 64.07861,44.05404 m -54.16259,-59.11178 64.74065,44.5092 M 956.06216,593.50521 C 1081.7078,666.31733 1197.894,743.7496 1300.0739,821.2551 M 968.65258,572.91621 C 1089.3699,643.26428 1201.2166,717.81816 1300.123,792.5081 M 988.78702,543.7901 C 1101.61,609.52585 1206.5194,675.49689 1300.1512,745.06727 m -0.2326,257.83533 C 1170.5171,952.17034 1080,835.64225 1080,700 c 0,-10.24692 0.5166,-20.38476 1.5274,-30.3934 m 218.4302,426.8174 C 1234.0099,1076.0348 1173.3923,1041.8193 1123.2663,995.74261 1037.9372,917.30686 989.99991,810.925 989.99991,700 c 0,-27.63121 2.97451,-54.98052 8.76052,-81.6862 M 1299.9269,978.6922 C 1187.5574,928.80253 1110,822.75827 1110,700 c 0,-4.01075 0.083,-8.00366 0.2469,-11.97735 m 189.6864,272.34849 C 1198.0314,911.70879 1128.3651,813.37885 1128.3651,700 m 171.5905,358.2083 c -57.8943,-18.8494 -111.0889,-48.9374 -155.476,-88.73832 C 1064.7767,898.00213 1020,801.07085 1020,700 c 0,-21.89211 2.1008,-43.59001 6.2022,-64.877 m 5.1585,95.15989 C 1030.457,720.24598 1030,710.14423 1030,700 c 0,-19.9333 1.7646,-39.70259 5.2158,-59.13814 m 25.9604,201.40444 c -15.1977,-33.32239 -25.0592,-68.62613 -29.0968,-104.8495 m 90.1393,197.73138 c -23.3711,-26.07046 -42.6284,-54.72186 -57.3907,-85.12449 m 139.0759,154.48931 c -18.5258,-11.92041 -36.048,-25.27002 -52.3532,-39.96908 -7.0342,-6.34128 -13.7897,-12.88677 -20.2596,-19.62101 m 152.6563,99.87739 c -20.0955,-7.6283 -39.5266,-16.6846 -58.102,-27.0975 M 1040.4088,716.50009 C 1040.1368,711.01534 1040,705.51406 1040,700 c 0,-15.85562 1.1087,-31.47649 3.2595,-46.80239 m 20.6972,171.20595 c -9.8882,-24.88987 -16.8217,-50.77807 -20.6013,-77.22853 m 70.8337,164.63837 c -13.5232,-17.35791 -25.3195,-35.69882 -35.2873,-54.80051 m 108.7298,126.47607 c -10.0464,-7.4963 -19.7301,-15.45853 -29.0099,-23.87117 -0.98,-0.88842 -1.9544,-1.78092 -2.9233,-2.67746 m 120.1065,76.64027 c -7.0487,-2.9381 -14.0061,-6.0605 -20.8632,-9.3639 M 972.10032,887.73255 c 41.32648,22.00508 79.45068,51.25725 112.67098,86.99828 C 1164.9539,1060.9976 1210,1178.0004 1210,1300 c 0,34.7556 -3.6559,69.1058 -10.7385,102.4552 M 965.62238,884.35597 c 2.16783,1.10583 4.32722,2.23139 6.47794,3.37658 M 787.75408,840.0354 c 62.11519,0.82925 122.72063,16.18924 177.8683,44.32057 m 228.86522,494.92153 c -0.4606,2.8069 -0.9482,5.6104 -1.4633,8.4109 m 4.9538,-34.3577 c -0.33,3.1236 -0.6912,6.2413 -1.0841,9.3538 m 3.785,-67.7309 c 0.017,1.6811 0.026,3.3633 0.026,5.0464 v 0 c 0,12.6708 -0.4306,25.1979 -1.3302,37.6182 m 0.5375,-65.3269 c 0.2323,4.0533 0.4138,8.1145 0.5443,12.1828 m -3.1848,-42.0289 c 0.6287,5.2465 1.1722,10.5109 1.6295,15.7911 m -12.2707,-73.9954 c 4.0148,16.2244 7.1926,32.7192 9.5052,49.4107 m -15.1871,-70.3221 c 1.1727,3.9578 2.2949,7.9342 3.366,11.9281 m -11.8966,-37.9354 c 1.415,3.9263 2.7789,7.8743 4.0913,11.8428 m -28.2017,-67.2451 c 7.1784,13.9408 13.6582,28.2719 19.415,42.9302 m -30.407,-63.0301 c 1.1168,1.9261 2.2198,3.8608 3.3087,5.8039 m -18.3686,-29.9975 c 2.1729,3.2575 4.3037,6.5438 6.3919,9.8579 m -48.8584,-63.96212 c 12.6398,13.74619 24.3747,28.27802 35.1633,43.48822 m -50.7055,-59.54273 c 1.5749,1.54505 3.14,3.1041 4.695,4.67707 m -23.1563,-21.75601 c 1.8506,1.61362 3.6895,3.24526 5.5165,4.8948 M 991.01094,909.9382 c 14.27156,8.83251 28.08436,18.58776 41.35776,29.22983 m -60.3743,-40.30519 c 1.44019,0.78769 2.8763,1.58444 4.30823,2.39021 m -25.47492,-13.17582 c 1.40604,0.66528 2.80871,1.3389 4.20794,2.02084 m -73.85369,-27.38076 c 17.61739,4.60518 34.91404,10.43187 51.78263,17.43227 m -73.57731,-22.47146 c 2.77501,0.55879 5.54333,1.14754 8.30457,1.76606 m -33.76754,-6.02419 c 2.96067,0.395 5.91528,0.82381 8.86337,1.28622 m -60.34524,-4.70625 c 11.82254,0 23.59348,0.53851 35.28448,1.60292 m 373.67768,446.01822 c 0,0.7928 0.01,1.5858 0.01,2.3791 0,12.2075 -0.4715,24.3626 -1.4037,36.4373 m -0.8882,-82.928 c 0.06,0.6049 0.1182,1.21 0.1756,1.8153 m -11.0523,-66.0691 c 3.423,14.1592 6.1952,28.5255 8.2969,43.0477 m -46.1442,-145.1068 c 6.6538,12.9561 12.6909,26.256 18.0911,39.8468 m -85.2786,-136.45603 c 11.9531,13.00193 23.0782,26.72263 33.3389,41.06693 M 985.98918,918.36727 c 13.85895,8.55551 27.27662,18.0002 40.17612,28.29974 m -146.23258,-73.9838 c 16.85777,4.45232 33.41294,10.04924 49.56698,16.74683 M 780.45821,860.00517 c 0.66124,-0.003 1.32265,-0.005 1.98423,-0.005 11.35913,0 22.66953,0.50842 33.90493,1.51356 m 365.75893,435.51207 c 0.01,0.991 0.01,1.9824 0.01,2.9742 0,12.5455 -0.5096,25.0345 -1.5164,37.4349 m -11.656,-146.9227 c 3.5692,14.5828 6.4315,29.3925 8.5642,44.3703 m -45.9751,-144.2654 c 6.9108,13.3378 13.1512,27.0521 18.6976,41.082 M 1065.023,995.91057 c 0.01,0.0112 0.021,0.0223 0.031,0.0335 12.5934,13.54903 24.2597,27.90913 34.9547,42.96613 M 978.96354,925.57112 c 14.75876,8.96575 29.01456,18.95801 42.67096,29.93385 M 875.91724,881.92421 c 17.61957,4.56047 34.90577,10.39887 51.74125,17.46288 M 785.30268,870.011 c 10.72696,0.0825 21.40732,0.6287 32.01786,1.6283 m 352.64006,422.4088 c 0.026,1.9824 0.039,3.9664 0.039,5.9519 0,13.6909 -0.6258,27.3124 -1.8605,40.8202 m -11.9117,-150.9935 c 4.2445,16.6665 7.5338,33.6479 9.8317,50.8504 m -47.0363,-147.3894 c 7.9717,15.0255 15.0592,30.5567 21.2264,46.4996 m -87.5866,-138.684 c 1.2826,1.3422 2.5574,2.6949 3.8244,4.058 13.1854,14.1859 25.3227,29.2888 36.3581,45.1692 M 967.72121,933.76935 c 17.31158,10.13688 33.93759,21.71384 49.71679,34.65899 M 868.25174,893.38242 c 20.16529,4.92634 39.89821,11.57345 59.01362,19.85881 M 788.57249,883.08726 c 10.83742,0.18423 21.62307,0.85634 32.33139,2.00497 m 338.97972,404.81657 c 0.078,3.359 0.1164,6.7229 0.1164,10.0912 0,15.3015 -0.8024,30.5138 -2.3823,45.5721 m -12.3791,-158.0476 c 5.2225,19.4967 9.0977,39.4533 11.5639,59.7096 m -48.9268,-153.1848 c 9.511,17.3974 17.7932,35.5144 24.786,54.1939 m -91.6504,-144.241 c 2.8391,2.871 5.6411,5.7934 8.4047,8.7667 14.1921,15.269 27.1377,31.6284 38.7663,48.8952 M 956.32888,939.43849 c 20.77016,11.59377 40.57795,25.28644 59.13852,40.95108 M 859.84544,902.42018 c 23.80621,5.36522 47.0268,13.18298 69.34499,23.31211 M 791.05554,893.89953 c 11.69057,0.28669 23.31666,1.15596 34.84437,2.59272 M 1149.6979,1283.962 c 0.201,5.3328 0.3021,10.6798 0.3021,16.038 0,17.9597 -1.1356,35.7933 -3.3639,53.3899 m -13.0239,-170.1551 c 6.8204,23.741 11.5753,48.2229 14.1451,73.1347 m -52.4712,-163.9563 c 12.1338,21.1676 22.3671,43.4904 30.5809,66.6585 m -40.3476,-82.8028 c 0.1493,0.2341 0.2983,0.4683 0.4471,0.7027 m -59.328,-72.5294 c 5.3646,5.1308 10.6028,10.4435 15.7064,15.9344 16.069,17.2883 30.4965,36.0125 43.1745,55.8923 M 939.71301,942.58052 c 27.18128,13.84351 52.82272,31.29473 76.28519,52.06884 m -81.85043,-54.84234 c 1.86206,0.90777 3.71721,1.8323 5.56524,2.7735 M 847.3313,910.76219 c 30.02458,5.7939 59.18224,15.57304 86.81647,29.04483 M 794.79409,904.77583 c 13.38433,0.48371 26.67628,1.75153 39.822,3.77945 M 812.94085,955 C 1015,960 1132.6075,1148.0985 1110,1350 M 833.16596,1004.9516 c 129.78183,25.6611 228.11834,147.9995 228.11834,295.0484 0,4.2946 -0.084,8.5681 -0.25,12.8188 m -210.75534,-272.839 c 102.38312,30.8541 178.31124,129.8207 182.90114,248.6108 m 126.9055,-262.4953 c 50.3428,80.3446 77.7986,175.6019 77.7986,273.9047 0,39.2529 -4.4197,77.4738 -12.8842,115 M 807.78322,810.75835 c 85.66761,5.13251 167.90104,36.182 237.42148,89.01342 m 165.2588,158.68793 c 35.9982,73.8433 55.3049,156.621 55.3049,241.5403 0,43.1858 -4.9932,85.8177 -14.6356,127.0024 M 1185,1155 c 1.5931,6.7172 -11.2734,15.5205 -28.7382,19.6626 -17.4647,4.1421 -32.9141,2.0546 -34.5073,-4.6626 -1.5931,-6.7172 11.2733,-15.5205 28.7381,-19.6626 17.4648,-4.1421 32.9143,-2.0546 34.5074,4.6626 v 0 m -60.9023,8.6342 c 1.5986,-6.5544 7.3813,-15.4591 15.9023,-23.6342 12.9523,-12.4264 27.3266,-18.4616 32.106,-13.4799 3.5939,3.746 1.3195,12.0741 -5.825,21.5467 m 7.1721,20.7391 c 9.837,3.822 14.6265,9.1352 13.8082,13.8719 -1.1754,6.8028 -16.4664,9.8402 -34.1537,6.7843 -14.6412,-2.5296 -26.3347,-8.4415 -29.2614,-14.2615 M 1205,1265 c 0.388,6.8927 -13.8252,13.2981 -31.7461,14.3069 -17.9208,1.0088 -32.763,-3.7609 -33.1511,-10.6536 -0.388,-6.8926 13.8251,-13.2981 31.746,-14.3069 17.9209,-1.0087 32.7632,3.761 33.1512,10.6536 v 0 m -61.4719,-2.2017 c 2.7254,-6.1715 9.9829,-13.9215 19.8078,-20.4721 14.9343,-9.9572 30.1454,-13.3726 33.9751,-7.6286 2.8797,4.3192 -0.8227,12.1181 -9.5205,20.1879 m 3.4163,21.6766 c 9.0123,5.4911 12.7937,11.5632 11.1558,16.0824 -2.3525,6.4905 -17.9393,6.7937 -34.8144,0.6774 -13.9689,-5.063 -24.4416,-12.9376 -26.3001,-19.1813 m 62.5949,98.7798 c -1.3958,6.761 -16.7775,9.3 -34.3561,5.6709 -17.5785,-3.6291 -30.6971,-12.0517 -29.3014,-18.8128 1.3958,-6.7609 16.7774,-9.3 34.356,-5.6709 17.5785,3.6291 30.6973,12.0519 29.3015,18.8128 v 0 M 1145,1355 c 4.2194,-5.2642 13.2244,-10.8896 24.4024,-14.6962 16.9911,-5.7863 32.5691,-5.1792 34.7946,1.3559 1.6734,4.914 -3.9083,11.5 -14.3874,17.0644 m -48.7856,11.2262 c -0.7085,-1.6584 -1.1009,-3.2007 -1.1414,-4.5744 m 47.6598,15.1749 c 7.2991,7.6222 9.3936,14.4619 6.6497,18.4087 M 1140,1050 c 3.7319,5.8079 -5.4842,18.3821 -20.5848,28.0851 -15.1005,9.7029 -30.3672,12.8605 -34.0992,7.0526 -3.7319,-5.8079 5.4841,-18.382 20.5847,-28.0849 15.1006,-9.703 30.3674,-12.8607 34.0993,-7.0528 v 0 m -54.586,28.3551 c -0.6671,-6.7135 1.833,-17.0326 7.1583,-27.5721 8.0947,-16.0204 19.6517,-26.4836 25.8134,-23.3702 4.6333,2.3411 5.2515,10.952 1.6552,22.2587 m 13.6479,17.1839 c 10.5479,0.3411 16.8291,3.7638 17.6291,8.5036 1.1486,6.8074 -12.2679,14.7469 -29.9671,17.7336 -14.6509,2.4724 -27.6436,0.7759 -32.3358,-3.7431 M 1065,955 c 4.6986,5.05781 -2.1528,19.06157 -15.3031,31.27811 -13.1504,12.21643 -27.6198,18.01969 -32.3185,12.96191 -4.6987,-5.05781 2.1527,-19.06146 15.303,-31.2779 C 1045.8318,955.74558 1060.3013,949.94218 1065,955 v 0 m -48.7227,37.54667 c -1.8418,-6.49028 -1.2027,-17.08867 2.1782,-28.40279 5.1392,-17.19784 14.6674,-29.53704 21.282,-27.56037 4.9738,1.48634 7.1025,9.85284 5.5589,21.61685 m 16.4673,14.50449 c 10.4424,-1.52645 17.2292,0.73357 18.8534,5.25768 2.3324,6.49769 -9.4717,16.68112 -26.3656,22.74567 -13.9843,5.02 -27.0724,5.6441 -32.4887,2.0244 M 970,885 c 5.80082,3.74284 2.61453,19.00374 -7.11687,34.08603 -9.73143,15.08217 -22.32279,24.27458 -28.12371,20.53176 -5.80082,-3.74284 -2.61459,-19.00361 7.11684,-34.0858 C 951.60766,890.44972 964.19908,881.25717 970,885 v 0 m -37.95826,48.4027 c -3.38553,-5.83559 -5.37995,-16.26424 -4.89363,-28.0627 0.73924,-17.93407 6.93012,-32.24194 13.82787,-31.95758 5.18674,0.21383 9.313,7.79695 10.71826,19.57828 m 19.53566,9.99544 c 9.74347,-4.05456 16.87794,-3.53805 19.56772,0.44576 3.86276,5.72181 -5.06535,18.50176 -19.94186,28.54525 -12.31433,8.31375 -24.8443,12.14623 -30.98598,9.9741 m -86.49682,-93.96016 c 6.70173,1.65688 8.64246,17.12559 4.33461,34.55023 -4.30791,17.42454 -13.23295,30.20681 -19.93476,28.54998 -6.70173,-1.65687 -8.64247,-17.12544 -4.33457,-34.55 4.30785,-17.42462 13.2329,-30.20704 19.93472,-28.55021 v 0 m -20.18835,58.10406 c -5.09667,-4.42039 -10.36871,-13.63669 -13.73909,-24.95396 -5.12308,-17.20266 -3.91256,-32.7454 2.70388,-34.71579 4.97522,-1.48162 11.33983,4.35117 16.49377,15.03814 m 21.72251,3.11181 c 7.89941,-6.99815 14.81512,-8.82582 18.65255,-5.93103 5.51111,4.15785 1.21559,19.14407 -9.59452,33.47319 -8.94827,11.86127 -19.55534,19.554 -26.06953,19.49341 m 18.84415,100.72498 14.1303,-49.45611 m 38.88959,73.01831 27.2768,-47.73439 m 15.36976,78.28649 38.56916,-42.0754 m 0.23159,82.5791 46.15817,-31.9557 m -12.7783,85.7266 49.9221,-21.3952 m -28.9284,78.4926 51.7468,-10.3494 M 1060.6602,1270 h 51.0881 m -282.65256,-275.97609 47.18324,-31.00036 38.93924,72.84455 81.21572,-11.5233 0.23159,82.5791 83.30197,32.3757 -28.9284,78.4926 60.6312,52.2078 -42.6813,49.5619 M 812.94085,955 l 49.25748,57.3059 80.29669,-24.17219 15.36976,78.28649 84.95892,8.548 -12.7783,85.7266 72.3584,46.8244 -41.7436,62.4808 51.4618,54.4373 -16.3977,15.7089 m -23.4091,-18.5523 40.0607,2.8615 M 1265,1432.8052 V 1190 m 15,248.8342 V 1200 m 15,244.9918 V 1210 M 1054.7695,851.07432 c 36.7852,-10.5862 25.2027,47.8822 76.0349,16.61714 m -40.8267,-90.43625 c -56.9522,26.84473 -5.2511,49.72119 -35.8918,72.30235 m 67.3041,97.6423 c 29.3452,-13.89336 35.5357,40.24756 74.9769,-4.42321 m -65.2278,-74.49986 c -45.7722,40.18439 4.0265,48.74082 -12.0838,76.04321 m 94.2567,75.3072 c 22.9936,-12.0375 42.6319,30.836 67.8616,-23.85233 m -83.3471,-52.62279 c -32.8612,48.92805 10.4948,47.17725 8.641,72.54102 m 74.7015,-19.91823 c -18.6621,48.53363 6.5311,48.67783 18.9937,60.83883 M 1021.9095,735.66532 c 40.8016,0.46532 9.283,53.476 67.827,40.60622 m -9.6366,-98.79281 c -62.251,7.21981 -19.1642,46.43222 -58.2984,57.08439 m 20.0362,-88.99046 c 3.4238,15.2601 1.4996,33.09858 38.2622,31.71118 m 2.2252,59.84868 C 1073.9618,739.50657 1065.4822,741.65926 1055,740 m 10,-25 c 0.5852,17.40783 8.793,17.80027 16.8799,18.46239 m 0.5059,6.5467 C 1074.7802,745.03899 1066.1914,751.53082 1065,760 m 41.5293,63.17663 c -7.9017,5.11287 -15.7323,10.29766 -27.1138,11.89221 m 2.2677,-26.83016 c 6.1264,17.89835 14.9948,13.97351 23.5798,12.30394 m 1.4609,5.2058 c -6.0736,7.24375 -13.3245,16.53901 -11.9063,25.53081 m 67.7395,58.06734 c -2.5972,8.29049 -5.4457,16.55665 -12.5742,24.40883 m -15.4283,-22.06734 c 15.791,9.60644 20.2608,1.53006 25.6138,-5.16682 m 4.8546,6.35732 c 0.1528,8.6384 1.2087,18.24926 7.169,23.47574 m 68.8118,37.55508 c -2.2944,6.66451 -5.2596,13.26412 -11.0067,19.59466 m -15.4283,-22.06734 c 12.1479,7.39014 17.5958,4.31545 21.9,-0.54552 m 8.6915,5.31121 c 0.409,7.60326 1.8985,15.38689 7.0459,19.90055 m 24.9748,-191.56605 c -11.6723,22.62013 9.2337,47.84315 22.8578,59.25861 m -50.4564,-80.09287 C 1204.9521,775.14915 1132.3012,766.75354 1140,740 c 2.9782,-8.93464 11.2783,-16.09533 17.5037,-20.42543 m 8.9002,46.62572 c -40.4163,31.35029 -11.9811,47.82447 107.397,53.1625 m -93.6595,-9.98165 c -27.5832,58.67578 44.2479,32.39236 96.1669,23.12579 M 1199.6,846.59747 c -13.2166,54.27209 30.4549,34.15916 84.7506,0.15437 m -63.8322,32.54844 c 7.836,58.41513 38.3043,28.02605 73.4886,-20.8665 m -44.7469,49.47642 c 27.8899,70.96407 38.9376,3.90016 50.7335,-37.55491 m -17.6771,57.73605 c 8.165,16.9417 13.8149,24.74545 17.7089,26.20993 m -406.24955,-154.39894 -1.4734,2.17501 m 68.8788,-101.67823 -2.54623,3.75872 m -53.24543,98.3623 -6.75297,9.96867 m 74.56433,-110.07115 -8.42267,12.43347 m -44.73849,85.80444 -17.51193,25.85094 m 87.07547,-128.53998 -21.52564,31.77595 m -26.25886,58.52498 -28.60589,42.22774 m 77.16643,-113.91236 -26.44824,39.04265 M 950,695 c 47.07068,37.65655 -7.7785,124.05737 -56.08373,104.85015 C 890.91012,798.65484 887.92932,797.05052 885,795 M 989.66698,699.22442 C 976.94794,704.41048 962.96936,704.07856 950,695 m -65,100 c 10.8224,8.65792 16.25708,19.89258 17.62231,31.82798 M 1220.0293,359.25976 c 17.9493,0 32.5,26.86292 32.5,60 0,33.13708 -14.5507,60 -32.5,60 -17.9493,0 -32.5,-26.86292 -32.5,-60 0,-33.13708 14.5507,-60 32.5,-60 v 0 m 0,-109.28906 29.2891,29.28906 -29.2891,29.28906 -29.2891,-29.28906 29.2891,-29.28906 v 0 m 0,-170.710939 c 17.9493,0 32.5,26.862919 32.5,59.999999 0,33.13708 -14.5507,60 -32.5,60 -17.9493,0 -32.5,-26.86292 -32.5,-60 0,-33.13708 14.5507,-59.999999 32.5,-59.999999 v 0 m 16.1263,440.719499 c 23.5569,-12.83499 40.7487,-53.07075 40.7487,-100.7195 C 1276.8879,379.17234 1264.5093,342.60019 1245,325 l 45.7402,-45.74024 -45.7754,-45.77539 c 19.5168,-17.57622 31.9093,-54.13524 31.9395,-94.22461 0,-57.989898 -25.4638,-104.999999 -56.875,-104.999999 -31.4112,0 -56.875,47.010101 -56.875,104.999999 0.016,40.08742 12.395,76.65958 31.9043,94.25977 l -45.7402,45.74023 45.7754,45.77539 c -19.5168,17.57622 -31.9093,54.13524 -31.9395,94.22461 0,33.82221 8.6621,63.90939 22.1141,83.11302 m -89.752,77.55117 C 1097.7345,566.50881 1106.7169,540.06875 1115,535 c 9.5306,-5.83214 45,-35 60,-35 15,0 30,20 60,20 25,0 20,20 0,20 -20,0 -35,-5 -35,-5 -15.0173,16.85284 -25.1301,15.34149 -35,20 -10.1107,4.77216 15,-5 20,5 4.4145,8.82908 -14.5567,52.73685 -19.06,62.8983 m 83.353,-87.3133 c 17.735,1.80413 30.707,7.5749 30.707,14.415 0,8.28427 -19.0279,15 -42.5,15 -23.4721,0 -42.5,-6.71573 -42.5,-15 0,-4.92064 6.7131,-9.2879 17.0833,-12.02313 m 35.7265,26.32236 c 17.8241,-0.29572 31.3851,3.90821 32.1902,10.70077 0.975,8.22669 -17.1303,17.13523 -40.4392,19.89776 -23.309,2.76254 -42.9951,-1.66703 -43.9701,-9.89373 C 1195.0116,580.11759 1205,570 1230,565 m 18.249,29.40147 c 17.8241,-0.29572 31.3851,3.90821 32.1902,10.70077 0.975,8.22669 -17.1303,17.13523 -40.4392,19.89776 -23.309,2.76254 -42.9951,-1.66703 -43.9701,-9.89373 -0.5582,-4.71002 8.7018,-14.28027 31.76,-19.44294 m 19.5216,29.4348 c 15.6412,1.66915 32.7369,8.90612 32.6885,15.61144 -0.059,8.12101 -16.9014,14.81108 -37.6191,14.94267 -20.7177,0.13159 -37.4654,-6.34513 -37.4068,-14.46615 0.034,-4.6495 9.2039,-12.95547 29.9684,-15.45267 M 930.06418,169.33525 C 930.1128,195.11124 920.04126,219.24753 921,225 c 1.64399,9.86394 49.73298,90.17231 52,105 4.13893,27.07116 -37.09691,27.44487 -39,31 -1.33486,2.49362 1,19 1,19 0,5 -10,20 -10,20 0,0 0,10 5,15 5,5 -25,20 -25,20 0,0 15,20 15,30 0,10 -5,25 -30,25 -25,0 -55,-5 -75,-5 -20,0 -75,-25 -85,-25 m -58.41762,10.7663 C 679.19086,474.38519 712.3678,489.40805 730,485 c 12.84963,-3.21241 29.82709,-8.48873 40.32417,-11.85089 M 925,395 c 0,0 -15,-3 -20,-3 -5,0 -10,13 -20,13 -10,0 -10,5 -10,5 -0.61904,0.31621 22.90277,3.62526 30,-5 3.17696,-3.86095 20.18377,-2.235 20.18377,-2.235 M 850,395 c 15,0 35.00637,-26.64308 45,-27 l 25,-1 -4,8 c 0,0 -13,2 -18,2 -5,0 -23,23 -33,23 -10,0 -15,-5 -15,-5 v 0 m 62,-74 c -15.11891,0.10227 -26.3924,34.91448 0,31 26.02124,-3.85942 44.2604,-17.7743 28,-17 -21,1 -29,11 -33,16 m 2,-154 -8,8 c 0,0 -31,-12 -48,-10 -16.16732,1.90204 -78,33 -78,33 14,-18 87,-62 134,-31 v 0 m -114,59 c 32,5 47,-31 103,-31 m -68,22 c -32,29 66,20 66,20 M 502.91686,199.43819 C 520.49823,262.58874 450.9514,302.6112 460,375 c 5,40 70,35 70,0 0,-25 -30,-20 -30,-5 0,15 10,20 10,20 m 13.08173,-194.76842 c 19.86653,64.44118 -51.41971,104.54858 -42.26552,177.7821 2.3656,18.92481 15.74064,22.62525 29.17802,17.56439 m 29.67513,-198.7348 C 564.96961,258.15109 493.6497,297.29454 500,370 m 58.38755,-181.32479 c 26.98532,64.08972 -37.16559,103.38456 -39.89299,168.97088 M 576.70868,184.9603 C 607.46384,251.85002 532.78,303.14874 530,370 m 62.92839,-187.39554 c 32.85599,69.92992 -46.19795,118.3091 -47.05193,184.48148 C 545,435 620,420 620,385 c 0,-35 -51.82514,-36.6487 -50,-5 1.82514,31.6487 38.51666,12.69331 30,5 m 13.38823,-205.94087 c 28.94935,66.23234 -46.49177,117.81868 -47.34095,183.61874 -0.20118,15.58859 3.84969,25.9873 10.21123,32.33408 m 57.97496,-218.90238 c 25.53691,63.44049 -43.11185,119.56033 -48.8604,181.85551 m 34.67317,27.20469 C 650.46087,441.03685 735,412.86965 735,370 c 0,-55.22681 -55,-45 -55,-10 0,34.64982 45,15 25,-5 M 655.2209,173.36273 C 678.04089,237.94503 610,312.17106 610,350 c 0,5.09251 1.28305,9.80067 2.30037,14.21462 m 62.04387,-193.2704 C 699.5877,234.95699 628.80923,298.09229 635,360 c 5,50 80,42.13137 80,15 0,-10 -10,-20 -10,-20 M 693.92284,168.86298 c 32.24421,85.25657 -86.12579,177.23104 -5.65452,208.70596 m -202.84146,98.3058 C 454.34201,503.04438 405,487.85891 405,455 c 0,-55.22681 50.04576,-39.99996 50,-15 -0.0376,20.55682 -30,20 -30,-5 m 84.92832,-34.41034 c 0.92351,17.77403 -1.02965,32.52191 -4.97893,44.56514 m -9.55974,-42.22873 C 505.67582,462.54762 425.84744,493.31316 420,455 c -0.75438,-4.94276 0,-10 5,-20 m 58.3872,-33.37106 C 480.06328,428.24339 462.63856,460.55564 440,455 m 133.47019,29.53862 C 542.26251,518.86814 485,516.45811 485,470 c 0,-30.41381 50,-35 50,-10 0,30 -30,20 -30,10 m 86.76233,-56.23082 c 1.29366,7.9347 1.67557,15.3995 1.28507,22.38217 M 576.23842,414.24019 C 576.98008,427.6742 575.97465,452.36887 565,465 c -29.33159,33.75882 -58.51096,14.88852 -60,5 -0.75959,-5.04435 1.66656,-7.2141 5,-10 m 53.84386,-50.53714 c -5.943,44.40707 -17.42916,71.91543 -38.67842,69.66045 m 27.83181,-80.48909 C 547.65706,421.34253 541.95662,442.819 535,460 m 11.47235,-83.29966 c -7.36756,23.26614 -17.8156,49.93947 -27.69571,67.15379 M 689.3867,414.39187 C 678.84586,529.44941 564.05831,518.47519 570,465 c 5,-45 48.84275,-29.9732 50,-5 1.18448,25.56084 -30,25 -30,5 m 84.25082,-48.7422 c -6.68173,41.85927 -47.13746,95.07883 -75.45651,62.59797 m 59.84025,-63.74973 c -4.81546,30.36436 -15.68949,53.83126 -42.5879,59.055 m 27.32349,-65.1803 c -4.07877,23.44522 -14.00077,38.51595 -23.64587,50.38327 m 9.72121,-61.27242 c -1.90547,17.57776 -8.15164,33.69673 -15.08106,48.14285 m -8.51422,-37.78455 c 2.14927,9.9888 1.72979,20.29869 0.13958,30.75492 M 339.38872,-0.60685455 C 395.39607,55.571926 459.42848,122.36942 500,200 643.73077,169.58589 791.68819,153.31898 935,170 981.78372,106.81396 1042.0468,51.847034 1107.3587,-0.04140766 M 480.44084,165.79345 c 119.65085,-48.5125 358.65731,-76.625066 478.36331,-26.28621"
       id="path1786" />
  </g>
  <g
     id="use1601"
     transform="matrix(-0.12676923,0,0,-0.13039999,45.200935,93.270322)">
    <path
       stroke="#4444ff"
       stroke-linecap="round"
       stroke-linejoin="round"
       stroke-width="6"
       fill="none"
       d="M 1299.8944,708.3581 C 1165.2251,619.98007 1044.8012,546.40551 913.65916,481.79897 M 778.7865,854.44353 c 90.11299,301.86987 247.3627,490.95487 521.1311,591.89757 M 791.46141,895 H 415.84565 M 800.0821,920 H 430.21347 m 378.07881,25 H 443.34975 M 904.79479,487.64169 701.69648,785.8073 M 980.71276,516.29403 C 904.09847,629.53618 826.24409,741.94178 749.86927,855.34576 M 417.19312,481.26608 C 323.04456,523.75672 229.46646,568.37866 137.21364,617.95184 M 335,520.11494 V 780.78818 M 450,491.88289 V 758.20903 M 280,545.22068 V 723.31691 M 315,528.52994 V 758.21018 M 480,480.41707 V 755.59656 M 480,515 H 860 L 660.08695,802.67975 M 480,570 H 820.89408 M 480,595 H 804.0582 M 480,635 H 775.61138 M 400.6066,564.3934 a 15,15 0 0 1 0,21.2132 15,15 0 0 1 -21.2132,0 15,15 0 0 1 0,-21.2132 15,15 0 0 1 21.2132,0 v 0 m 0,0 c 8.32012,-8.32012 14.62812,-9.54225 18.94845,-7.03287 13.85387,8.04674 7.26903,54.46355 -18.94845,28.24607 C 435,620 345,620 379.3934,585.6066 345,620 345,530 379.3934,564.3934 345,530 435,530 400.6066,564.3934 v 0 M 400,678.7868 a 15,15 0 0 1 0,21.2132 15,15 0 0 1 -21.2132,0 15,15 0 0 1 0,-21.2132 15,15 0 0 1 21.2132,0 v 0 m 0,0 c 8.32012,-8.32012 14.62812,-9.54225 18.94845,-7.03287 C 432.80232,679.80067 426.21748,726.21748 400,700 c 34.3934,34.3934 -55.6066,34.3934 -21.2132,0 -34.3934,34.3934 -34.3934,-55.6066 0,-21.2132 -34.3934,-34.3934 55.6066,-34.3934 21.2132,0 v 0 M 335,620 h 115 m -115,20 h 115 m -43.18138,20 H 450 m -115,0 h 36.84064 m 52.82981,20 H 450 m -115,0 h 19.41506 m 69.96512,20 H 450 m -115,0 h 19.85962 m 51.23331,20 H 450 m -115,0 h 37.85659 M 422.92881,560 H 450 m -115,0 h 22.32695 m 69.08514,20 H 450 m -115,0 h 18.84366 m 54.7166,20 H 450 m -115,0 h 36.26009 m 4.93465,-100 H 450 M 332.92283,520 H 450 m -50.00281,20 H 450 m -115,0 h 44.9683 M 335,740 h 115 m -115,20 h 22.61722 M 335,780 h 10.86114 m 182.42965,209.6967 a 15,15 0 0 1 0,21.2132 15,15 0 0 1 -21.2132,0 15,15 0 0 1 0,-21.2132 15,15 0 0 1 21.2132,0 v 0 m 88.1311,0 a 15,15 0 0 1 0,21.2132 15,15 0 0 1 -21.2132,0 15,15 0 0 1 0,-21.2132 15,15 0 0 1 21.2132,0 v 0 m -88.1311,0 c 8.32012,-8.32012 14.62812,-9.54225 18.94845,-7.03287 13.85387,8.04674 7.26903,54.46357 -18.94845,28.24607 34.3934,34.3934 -55.6066,34.3934 -21.2132,0 -34.3934,34.3934 -34.3934,-55.6066 0,-21.2132 -34.3934,-34.3934 55.6066,-34.3934 21.2132,0 v 0 m 88.1311,0 c 8.32012,-8.32012 14.62812,-9.54225 18.94845,-7.03287 13.85387,8.04674 7.26903,54.46357 -18.94845,28.24607 34.3934,34.3934 -55.6066,34.3934 -21.2132,0 -34.3934,34.3934 -34.3934,-55.6066 0,-21.2132 -34.3934,-34.3934 55.6066,-34.3934 21.2132,0 v 0 M 750,895 v -74.24488 h -0.15004 c 0.0834,-0.72647 0.13342,-1.45477 0.15004,-2.18367 10e-6,-18.09015 -20.14718,-32.75512 -45,-32.75512 -20.61882,1.31343 -32.66348,9.57069 -45,22.88646 v -9.31135 h -0.15833 c 0.088,-0.93551 0.14081,-1.87338 0.15833,-2.81202 10e-6,-23.29552 -21.26647,-42.18028 -47.50001,-42.18028 -23.99951,0 -43.84193,15.8053 -47.304,34.86551 C 563.62483,763.96714 541.1055,745 513.51805,745 c -28.43268,0 -51.48193,20.14719 -51.48192,44.8 -0.33192,-0.77011 -0.017,-2.52159 10e-6,-3.3 0,-25.68124 -25.53595,-46.5 -57.03613,-46.5 -31.50019,0 -57.03613,20.81876 -57.03613,46.5 10e-4,1.03426 0.0468,2.06817 0.13369,3.1 h -0.13369 v 7.60854 M 1000.6315,526.4229 750,895 m 168.03602,-411.03773 57.68251,39.65672 m -198.34618,151.4495 64.65354,44.44931 m -54.41279,-59.28379 64.78179,44.53748 m -10.28292,-124.882 64.42924,44.29509 m -54.18001,-59.12376 63.9915,43.99416 m -15.75797,-115.2086 64.50218,44.34525 m -252.04823,232.34184 64.07861,44.05404 m -54.16259,-59.11178 64.74065,44.5092 M 956.06216,593.50521 C 1081.7078,666.31733 1197.894,743.7496 1300.0739,821.2551 M 968.65258,572.91621 C 1089.3699,643.26428 1201.2166,717.81816 1300.123,792.5081 M 988.78702,543.7901 C 1101.61,609.52585 1206.5194,675.49689 1300.1512,745.06727 m -0.2326,257.83533 C 1170.5171,952.17034 1080,835.64225 1080,700 c 0,-10.24692 0.5166,-20.38476 1.5274,-30.3934 m 218.4302,426.8174 C 1234.0099,1076.0348 1173.3923,1041.8193 1123.2663,995.74261 1037.9372,917.30686 989.99991,810.925 989.99991,700 c 0,-27.63121 2.97451,-54.98052 8.76052,-81.6862 M 1299.9269,978.6922 C 1187.5574,928.80253 1110,822.75827 1110,700 c 0,-4.01075 0.083,-8.00366 0.2469,-11.97735 m 189.6864,272.34849 C 1198.0314,911.70879 1128.3651,813.37885 1128.3651,700 m 171.5905,358.2083 c -57.8943,-18.8494 -111.0889,-48.9374 -155.476,-88.73832 C 1064.7767,898.00213 1020,801.07085 1020,700 c 0,-21.89211 2.1008,-43.59001 6.2022,-64.877 m 5.1585,95.15989 C 1030.457,720.24598 1030,710.14423 1030,700 c 0,-19.9333 1.7646,-39.70259 5.2158,-59.13814 m 25.9604,201.40444 c -15.1977,-33.32239 -25.0592,-68.62613 -29.0968,-104.8495 m 90.1393,197.73138 c -23.3711,-26.07046 -42.6284,-54.72186 -57.3907,-85.12449 m 139.0759,154.48931 c -18.5258,-11.92041 -36.048,-25.27002 -52.3532,-39.96908 -7.0342,-6.34128 -13.7897,-12.88677 -20.2596,-19.62101 m 152.6563,99.87739 c -20.0955,-7.6283 -39.5266,-16.6846 -58.102,-27.0975 M 1040.4088,716.50009 C 1040.1368,711.01534 1040,705.51406 1040,700 c 0,-15.85562 1.1087,-31.47649 3.2595,-46.80239 m 20.6972,171.20595 c -9.8882,-24.88987 -16.8217,-50.77807 -20.6013,-77.22853 m 70.8337,164.63837 c -13.5232,-17.35791 -25.3195,-35.69882 -35.2873,-54.80051 m 108.7298,126.47607 c -10.0464,-7.4963 -19.7301,-15.45853 -29.0099,-23.87117 -0.98,-0.88842 -1.9544,-1.78092 -2.9233,-2.67746 m 120.1065,76.64027 c -7.0487,-2.9381 -14.0061,-6.0605 -20.8632,-9.3639 M 972.10032,887.73255 c 41.32648,22.00508 79.45068,51.25725 112.67098,86.99828 C 1164.9539,1060.9976 1210,1178.0004 1210,1300 c 0,34.7556 -3.6559,69.1058 -10.7385,102.4552 M 965.62238,884.35597 c 2.16783,1.10583 4.32722,2.23139 6.47794,3.37658 M 787.75408,840.0354 c 62.11519,0.82925 122.72063,16.18924 177.8683,44.32057 m 228.86522,494.92153 c -0.4606,2.8069 -0.9482,5.6104 -1.4633,8.4109 m 4.9538,-34.3577 c -0.33,3.1236 -0.6912,6.2413 -1.0841,9.3538 m 3.785,-67.7309 c 0.017,1.6811 0.026,3.3633 0.026,5.0464 v 0 c 0,12.6708 -0.4306,25.1979 -1.3302,37.6182 m 0.5375,-65.3269 c 0.2323,4.0533 0.4138,8.1145 0.5443,12.1828 m -3.1848,-42.0289 c 0.6287,5.2465 1.1722,10.5109 1.6295,15.7911 m -12.2707,-73.9954 c 4.0148,16.2244 7.1926,32.7192 9.5052,49.4107 m -15.1871,-70.3221 c 1.1727,3.9578 2.2949,7.9342 3.366,11.9281 m -11.8966,-37.9354 c 1.415,3.9263 2.7789,7.8743 4.0913,11.8428 m -28.2017,-67.2451 c 7.1784,13.9408 13.6582,28.2719 19.415,42.9302 m -30.407,-63.0301 c 1.1168,1.9261 2.2198,3.8608 3.3087,5.8039 m -18.3686,-29.9975 c 2.1729,3.2575 4.3037,6.5438 6.3919,9.8579 m -48.8584,-63.96212 c 12.6398,13.74619 24.3747,28.27802 35.1633,43.48822 m -50.7055,-59.54273 c 1.5749,1.54505 3.14,3.1041 4.695,4.67707 m -23.1563,-21.75601 c 1.8506,1.61362 3.6895,3.24526 5.5165,4.8948 M 991.01094,909.9382 c 14.27156,8.83251 28.08436,18.58776 41.35776,29.22983 m -60.3743,-40.30519 c 1.44019,0.78769 2.8763,1.58444 4.30823,2.39021 m -25.47492,-13.17582 c 1.40604,0.66528 2.80871,1.3389 4.20794,2.02084 m -73.85369,-27.38076 c 17.61739,4.60518 34.91404,10.43187 51.78263,17.43227 m -73.57731,-22.47146 c 2.77501,0.55879 5.54333,1.14754 8.30457,1.76606 m -33.76754,-6.02419 c 2.96067,0.395 5.91528,0.82381 8.86337,1.28622 m -60.34524,-4.70625 c 11.82254,0 23.59348,0.53851 35.28448,1.60292 m 373.67768,446.01822 c 0,0.7928 0.01,1.5858 0.01,2.3791 0,12.2075 -0.4715,24.3626 -1.4037,36.4373 m -0.8882,-82.928 c 0.06,0.6049 0.1182,1.21 0.1756,1.8153 m -11.0523,-66.0691 c 3.423,14.1592 6.1952,28.5255 8.2969,43.0477 m -46.1442,-145.1068 c 6.6538,12.9561 12.6909,26.256 18.0911,39.8468 m -85.2786,-136.45603 c 11.9531,13.00193 23.0782,26.72263 33.3389,41.06693 M 985.98918,918.36727 c 13.85895,8.55551 27.27662,18.0002 40.17612,28.29974 m -146.23258,-73.9838 c 16.85777,4.45232 33.41294,10.04924 49.56698,16.74683 M 780.45821,860.00517 c 0.66124,-0.003 1.32265,-0.005 1.98423,-0.005 11.35913,0 22.66953,0.50842 33.90493,1.51356 m 365.75893,435.51207 c 0.01,0.991 0.01,1.9824 0.01,2.9742 0,12.5455 -0.5096,25.0345 -1.5164,37.4349 m -11.656,-146.9227 c 3.5692,14.5828 6.4315,29.3925 8.5642,44.3703 m -45.9751,-144.2654 c 6.9108,13.3378 13.1512,27.0521 18.6976,41.082 M 1065.023,995.91057 c 0.01,0.0112 0.021,0.0223 0.031,0.0335 12.5934,13.54903 24.2597,27.90913 34.9547,42.96613 M 978.96354,925.57112 c 14.75876,8.96575 29.01456,18.95801 42.67096,29.93385 M 875.91724,881.92421 c 17.61957,4.56047 34.90577,10.39887 51.74125,17.46288 M 785.30268,870.011 c 10.72696,0.0825 21.40732,0.6287 32.01786,1.6283 m 352.64006,422.4088 c 0.026,1.9824 0.039,3.9664 0.039,5.9519 0,13.6909 -0.6258,27.3124 -1.8605,40.8202 m -11.9117,-150.9935 c 4.2445,16.6665 7.5338,33.6479 9.8317,50.8504 m -47.0363,-147.3894 c 7.9717,15.0255 15.0592,30.5567 21.2264,46.4996 m -87.5866,-138.684 c 1.2826,1.3422 2.5574,2.6949 3.8244,4.058 13.1854,14.1859 25.3227,29.2888 36.3581,45.1692 M 967.72121,933.76935 c 17.31158,10.13688 33.93759,21.71384 49.71679,34.65899 M 868.25174,893.38242 c 20.16529,4.92634 39.89821,11.57345 59.01362,19.85881 M 788.57249,883.08726 c 10.83742,0.18423 21.62307,0.85634 32.33139,2.00497 m 338.97972,404.81657 c 0.078,3.359 0.1164,6.7229 0.1164,10.0912 0,15.3015 -0.8024,30.5138 -2.3823,45.5721 m -12.3791,-158.0476 c 5.2225,19.4967 9.0977,39.4533 11.5639,59.7096 m -48.9268,-153.1848 c 9.511,17.3974 17.7932,35.5144 24.786,54.1939 m -91.6504,-144.241 c 2.8391,2.871 5.6411,5.7934 8.4047,8.7667 14.1921,15.269 27.1377,31.6284 38.7663,48.8952 M 956.32888,939.43849 c 20.77016,11.59377 40.57795,25.28644 59.13852,40.95108 M 859.84544,902.42018 c 23.80621,5.36522 47.0268,13.18298 69.34499,23.31211 M 791.05554,893.89953 c 11.69057,0.28669 23.31666,1.15596 34.84437,2.59272 M 1149.6979,1283.962 c 0.201,5.3328 0.3021,10.6798 0.3021,16.038 0,17.9597 -1.1356,35.7933 -3.3639,53.3899 m -13.0239,-170.1551 c 6.8204,23.741 11.5753,48.2229 14.1451,73.1347 m -52.4712,-163.9563 c 12.1338,21.1676 22.3671,43.4904 30.5809,66.6585 m -40.3476,-82.8028 c 0.1493,0.2341 0.2983,0.4683 0.4471,0.7027 m -59.328,-72.5294 c 5.3646,5.1308 10.6028,10.4435 15.7064,15.9344 16.069,17.2883 30.4965,36.0125 43.1745,55.8923 M 939.71301,942.58052 c 27.18128,13.84351 52.82272,31.29473 76.28519,52.06884 m -81.85043,-54.84234 c 1.86206,0.90777 3.71721,1.8323 5.56524,2.7735 M 847.3313,910.76219 c 30.02458,5.7939 59.18224,15.57304 86.81647,29.04483 M 794.79409,904.77583 c 13.38433,0.48371 26.67628,1.75153 39.822,3.77945 M 812.94085,955 C 1015,960 1132.6075,1148.0985 1110,1350 M 833.16596,1004.9516 c 129.78183,25.6611 228.11834,147.9995 228.11834,295.0484 0,4.2946 -0.084,8.5681 -0.25,12.8188 m -210.75534,-272.839 c 102.38312,30.8541 178.31124,129.8207 182.90114,248.6108 m 126.9055,-262.4953 c 50.3428,80.3446 77.7986,175.6019 77.7986,273.9047 0,39.2529 -4.4197,77.4738 -12.8842,115 M 807.78322,810.75835 c 85.66761,5.13251 167.90104,36.182 237.42148,89.01342 m 165.2588,158.68793 c 35.9982,73.8433 55.3049,156.621 55.3049,241.5403 0,43.1858 -4.9932,85.8177 -14.6356,127.0024 M 1185,1155 c 1.5931,6.7172 -11.2734,15.5205 -28.7382,19.6626 -17.4647,4.1421 -32.9141,2.0546 -34.5073,-4.6626 -1.5931,-6.7172 11.2733,-15.5205 28.7381,-19.6626 17.4648,-4.1421 32.9143,-2.0546 34.5074,4.6626 v 0 m -60.9023,8.6342 c 1.5986,-6.5544 7.3813,-15.4591 15.9023,-23.6342 12.9523,-12.4264 27.3266,-18.4616 32.106,-13.4799 3.5939,3.746 1.3195,12.0741 -5.825,21.5467 m 7.1721,20.7391 c 9.837,3.822 14.6265,9.1352 13.8082,13.8719 -1.1754,6.8028 -16.4664,9.8402 -34.1537,6.7843 -14.6412,-2.5296 -26.3347,-8.4415 -29.2614,-14.2615 M 1205,1265 c 0.388,6.8927 -13.8252,13.2981 -31.7461,14.3069 -17.9208,1.0088 -32.763,-3.7609 -33.1511,-10.6536 -0.388,-6.8926 13.8251,-13.2981 31.746,-14.3069 17.9209,-1.0087 32.7632,3.761 33.1512,10.6536 v 0 m -61.4719,-2.2017 c 2.7254,-6.1715 9.9829,-13.9215 19.8078,-20.4721 14.9343,-9.9572 30.1454,-13.3726 33.9751,-7.6286 2.8797,4.3192 -0.8227,12.1181 -9.5205,20.1879 m 3.4163,21.6766 c 9.0123,5.4911 12.7937,11.5632 11.1558,16.0824 -2.3525,6.4905 -17.9393,6.7937 -34.8144,0.6774 -13.9689,-5.063 -24.4416,-12.9376 -26.3001,-19.1813 m 62.5949,98.7798 c -1.3958,6.761 -16.7775,9.3 -34.3561,5.6709 -17.5785,-3.6291 -30.6971,-12.0517 -29.3014,-18.8128 1.3958,-6.7609 16.7774,-9.3 34.356,-5.6709 17.5785,3.6291 30.6973,12.0519 29.3015,18.8128 v 0 M 1145,1355 c 4.2194,-5.2642 13.2244,-10.8896 24.4024,-14.6962 16.9911,-5.7863 32.5691,-5.1792 34.7946,1.3559 1.6734,4.914 -3.9083,11.5 -14.3874,17.0644 m -48.7856,11.2262 c -0.7085,-1.6584 -1.1009,-3.2007 -1.1414,-4.5744 m 47.6598,15.1749 c 7.2991,7.6222 9.3936,14.4619 6.6497,18.4087 M 1140,1050 c 3.7319,5.8079 -5.4842,18.3821 -20.5848,28.0851 -15.1005,9.7029 -30.3672,12.8605 -34.0992,7.0526 -3.7319,-5.8079 5.4841,-18.382 20.5847,-28.0849 15.1006,-9.703 30.3674,-12.8607 34.0993,-7.0528 v 0 m -54.586,28.3551 c -0.6671,-6.7135 1.833,-17.0326 7.1583,-27.5721 8.0947,-16.0204 19.6517,-26.4836 25.8134,-23.3702 4.6333,2.3411 5.2515,10.952 1.6552,22.2587 m 13.6479,17.1839 c 10.5479,0.3411 16.8291,3.7638 17.6291,8.5036 1.1486,6.8074 -12.2679,14.7469 -29.9671,17.7336 -14.6509,2.4724 -27.6436,0.7759 -32.3358,-3.7431 M 1065,955 c 4.6986,5.05781 -2.1528,19.06157 -15.3031,31.27811 -13.1504,12.21643 -27.6198,18.01969 -32.3185,12.96191 -4.6987,-5.05781 2.1527,-19.06146 15.303,-31.2779 C 1045.8318,955.74558 1060.3013,949.94218 1065,955 v 0 m -48.7227,37.54667 c -1.8418,-6.49028 -1.2027,-17.08867 2.1782,-28.40279 5.1392,-17.19784 14.6674,-29.53704 21.282,-27.56037 4.9738,1.48634 7.1025,9.85284 5.5589,21.61685 m 16.4673,14.50449 c 10.4424,-1.52645 17.2292,0.73357 18.8534,5.25768 2.3324,6.49769 -9.4717,16.68112 -26.3656,22.74567 -13.9843,5.02 -27.0724,5.6441 -32.4887,2.0244 M 970,885 c 5.80082,3.74284 2.61453,19.00374 -7.11687,34.08603 -9.73143,15.08217 -22.32279,24.27458 -28.12371,20.53176 -5.80082,-3.74284 -2.61459,-19.00361 7.11684,-34.0858 C 951.60766,890.44972 964.19908,881.25717 970,885 v 0 m -37.95826,48.4027 c -3.38553,-5.83559 -5.37995,-16.26424 -4.89363,-28.0627 0.73924,-17.93407 6.93012,-32.24194 13.82787,-31.95758 5.18674,0.21383 9.313,7.79695 10.71826,19.57828 m 19.53566,9.99544 c 9.74347,-4.05456 16.87794,-3.53805 19.56772,0.44576 3.86276,5.72181 -5.06535,18.50176 -19.94186,28.54525 -12.31433,8.31375 -24.8443,12.14623 -30.98598,9.9741 m -86.49682,-93.96016 c 6.70173,1.65688 8.64246,17.12559 4.33461,34.55023 -4.30791,17.42454 -13.23295,30.20681 -19.93476,28.54998 -6.70173,-1.65687 -8.64247,-17.12544 -4.33457,-34.55 4.30785,-17.42462 13.2329,-30.20704 19.93472,-28.55021 v 0 m -20.18835,58.10406 c -5.09667,-4.42039 -10.36871,-13.63669 -13.73909,-24.95396 -5.12308,-17.20266 -3.91256,-32.7454 2.70388,-34.71579 4.97522,-1.48162 11.33983,4.35117 16.49377,15.03814 m 21.72251,3.11181 c 7.89941,-6.99815 14.81512,-8.82582 18.65255,-5.93103 5.51111,4.15785 1.21559,19.14407 -9.59452,33.47319 -8.94827,11.86127 -19.55534,19.554 -26.06953,19.49341 m 18.84415,100.72498 14.1303,-49.45611 m 38.88959,73.01831 27.2768,-47.73439 m 15.36976,78.28649 38.56916,-42.0754 m 0.23159,82.5791 46.15817,-31.9557 m -12.7783,85.7266 49.9221,-21.3952 m -28.9284,78.4926 51.7468,-10.3494 M 1060.6602,1270 h 51.0881 m -282.65256,-275.97609 47.18324,-31.00036 38.93924,72.84455 81.21572,-11.5233 0.23159,82.5791 83.30197,32.3757 -28.9284,78.4926 60.6312,52.2078 -42.6813,49.5619 M 812.94085,955 l 49.25748,57.3059 80.29669,-24.17219 15.36976,78.28649 84.95892,8.548 -12.7783,85.7266 72.3584,46.8244 -41.7436,62.4808 51.4618,54.4373 -16.3977,15.7089 m -23.4091,-18.5523 40.0607,2.8615 M 1265,1432.8052 V 1190 m 15,248.8342 V 1200 m 15,244.9918 V 1210 M 1054.7695,851.07432 c 36.7852,-10.5862 25.2027,47.8822 76.0349,16.61714 m -40.8267,-90.43625 c -56.9522,26.84473 -5.2511,49.72119 -35.8918,72.30235 m 67.3041,97.6423 c 29.3452,-13.89336 35.5357,40.24756 74.9769,-4.42321 m -65.2278,-74.49986 c -45.7722,40.18439 4.0265,48.74082 -12.0838,76.04321 m 94.2567,75.3072 c 22.9936,-12.0375 42.6319,30.836 67.8616,-23.85233 m -83.3471,-52.62279 c -32.8612,48.92805 10.4948,47.17725 8.641,72.54102 m 74.7015,-19.91823 c -18.6621,48.53363 6.5311,48.67783 18.9937,60.83883 M 1021.9095,735.66532 c 40.8016,0.46532 9.283,53.476 67.827,40.60622 m -9.6366,-98.79281 c -62.251,7.21981 -19.1642,46.43222 -58.2984,57.08439 m 20.0362,-88.99046 c 3.4238,15.2601 1.4996,33.09858 38.2622,31.71118 m 2.2252,59.84868 C 1073.9618,739.50657 1065.4822,741.65926 1055,740 m 10,-25 c 0.5852,17.40783 8.793,17.80027 16.8799,18.46239 m 0.5059,6.5467 C 1074.7802,745.03899 1066.1914,751.53082 1065,760 m 41.5293,63.17663 c -7.9017,5.11287 -15.7323,10.29766 -27.1138,11.89221 m 2.2677,-26.83016 c 6.1264,17.89835 14.9948,13.97351 23.5798,12.30394 m 1.4609,5.2058 c -6.0736,7.24375 -13.3245,16.53901 -11.9063,25.53081 m 67.7395,58.06734 c -2.5972,8.29049 -5.4457,16.55665 -12.5742,24.40883 m -15.4283,-22.06734 c 15.791,9.60644 20.2608,1.53006 25.6138,-5.16682 m 4.8546,6.35732 c 0.1528,8.6384 1.2087,18.24926 7.169,23.47574 m 68.8118,37.55508 c -2.2944,6.66451 -5.2596,13.26412 -11.0067,19.59466 m -15.4283,-22.06734 c 12.1479,7.39014 17.5958,4.31545 21.9,-0.54552 m 8.6915,5.31121 c 0.409,7.60326 1.8985,15.38689 7.0459,19.90055 m 24.9748,-191.56605 c -11.6723,22.62013 9.2337,47.84315 22.8578,59.25861 m -50.4564,-80.09287 C 1204.9521,775.14915 1132.3012,766.75354 1140,740 c 2.9782,-8.93464 11.2783,-16.09533 17.5037,-20.42543 m 8.9002,46.62572 c -40.4163,31.35029 -11.9811,47.82447 107.397,53.1625 m -93.6595,-9.98165 c -27.5832,58.67578 44.2479,32.39236 96.1669,23.12579 M 1199.6,846.59747 c -13.2166,54.27209 30.4549,34.15916 84.7506,0.15437 m -63.8322,32.54844 c 7.836,58.41513 38.3043,28.02605 73.4886,-20.8665 m -44.7469,49.47642 c 27.8899,70.96407 38.9376,3.90016 50.7335,-37.55491 m -17.6771,57.73605 c 8.165,16.9417 13.8149,24.74545 17.7089,26.20993 m -406.24955,-154.39894 -1.4734,2.17501 m 68.8788,-101.67823 -2.54623,3.75872 m -53.24543,98.3623 -6.75297,9.96867 m 74.56433,-110.07115 -8.42267,12.43347 m -44.73849,85.80444 -17.51193,25.85094 m 87.07547,-128.53998 -21.52564,31.77595 m -26.25886,58.52498 -28.60589,42.22774 m 77.16643,-113.91236 -26.44824,39.04265 M 950,695 c 47.07068,37.65655 -7.7785,124.05737 -56.08373,104.85015 C 890.91012,798.65484 887.92932,797.05052 885,795 M 989.66698,699.22442 C 976.94794,704.41048 962.96936,704.07856 950,695 m -65,100 c 10.8224,8.65792 16.25708,19.89258 17.62231,31.82798 M 1220.0293,359.25976 c 17.9493,0 32.5,26.86292 32.5,60 0,33.13708 -14.5507,60 -32.5,60 -17.9493,0 -32.5,-26.86292 -32.5,-60 0,-33.13708 14.5507,-60 32.5,-60 v 0 m 0,-109.28906 29.2891,29.28906 -29.2891,29.28906 -29.2891,-29.28906 29.2891,-29.28906 v 0 m 0,-170.710939 c 17.9493,0 32.5,26.862919 32.5,59.999999 0,33.13708 -14.5507,60 -32.5,60 -17.9493,0 -32.5,-26.86292 -32.5,-60 0,-33.13708 14.5507,-59.999999 32.5,-59.999999 v 0 m 16.1263,440.719499 c 23.5569,-12.83499 40.7487,-53.07075 40.7487,-100.7195 C 1276.8879,379.17234 1264.5093,342.60019 1245,325 l 45.7402,-45.74024 -45.7754,-45.77539 c 19.5168,-17.57622 31.9093,-54.13524 31.9395,-94.22461 0,-57.989898 -25.4638,-104.999999 -56.875,-104.999999 -31.4112,0 -56.875,47.010101 -56.875,104.999999 0.016,40.08742 12.395,76.65958 31.9043,94.25977 l -45.7402,45.74023 45.7754,45.77539 c -19.5168,17.57622 -31.9093,54.13524 -31.9395,94.22461 0,33.82221 8.6621,63.90939 22.1141,83.11302 m -89.752,77.55117 C 1097.7345,566.50881 1106.7169,540.06875 1115,535 c 9.5306,-5.83214 45,-35 60,-35 15,0 30,20 60,20 25,0 20,20 0,20 -20,0 -35,-5 -35,-5 -15.0173,16.85284 -25.1301,15.34149 -35,20 -10.1107,4.77216 15,-5 20,5 4.4145,8.82908 -14.5567,52.73685 -19.06,62.8983 m 83.353,-87.3133 c 17.735,1.80413 30.707,7.5749 30.707,14.415 0,8.28427 -19.0279,15 -42.5,15 -23.4721,0 -42.5,-6.71573 -42.5,-15 0,-4.92064 6.7131,-9.2879 17.0833,-12.02313 m 35.7265,26.32236 c 17.8241,-0.29572 31.3851,3.90821 32.1902,10.70077 0.975,8.22669 -17.1303,17.13523 -40.4392,19.89776 -23.309,2.76254 -42.9951,-1.66703 -43.9701,-9.89373 C 1195.0116,580.11759 1205,570 1230,565 m 18.249,29.40147 c 17.8241,-0.29572 31.3851,3.90821 32.1902,10.70077 0.975,8.22669 -17.1303,17.13523 -40.4392,19.89776 -23.309,2.76254 -42.9951,-1.66703 -43.9701,-9.89373 -0.5582,-4.71002 8.7018,-14.28027 31.76,-19.44294 m 19.5216,29.4348 c 15.6412,1.66915 32.7369,8.90612 32.6885,15.61144 -0.059,8.12101 -16.9014,14.81108 -37.6191,14.94267 -20.7177,0.13159 -37.4654,-6.34513 -37.4068,-14.46615 0.034,-4.6495 9.2039,-12.95547 29.9684,-15.45267 M 930.06418,169.33525 C 930.1128,195.11124 920.04126,219.24753 921,225 c 1.64399,9.86394 49.73298,90.17231 52,105 4.13893,27.07116 -37.09691,27.44487 -39,31 -1.33486,2.49362 1,19 1,19 0,5 -10,20 -10,20 0,0 0,10 5,15 5,5 -25,20 -25,20 0,0 15,20 15,30 0,10 -5,25 -30,25 -25,0 -55,-5 -75,-5 -20,0 -75,-25 -85,-25 m -58.41762,10.7663 C 679.19086,474.38519 712.3678,489.40805 730,485 c 12.84963,-3.21241 29.82709,-8.48873 40.32417,-11.85089 M 925,395 c 0,0 -15,-3 -20,-3 -5,0 -10,13 -20,13 -10,0 -10,5 -10,5 -0.61904,0.31621 22.90277,3.62526 30,-5 3.17696,-3.86095 20.18377,-2.235 20.18377,-2.235 M 850,395 c 15,0 35.00637,-26.64308 45,-27 l 25,-1 -4,8 c 0,0 -13,2 -18,2 -5,0 -23,23 -33,23 -10,0 -15,-5 -15,-5 v 0 m 62,-74 c -15.11891,0.10227 -26.3924,34.91448 0,31 26.02124,-3.85942 44.2604,-17.7743 28,-17 -21,1 -29,11 -33,16 m 2,-154 -8,8 c 0,0 -31,-12 -48,-10 -16.16732,1.90204 -78,33 -78,33 14,-18 87,-62 134,-31 v 0 m -114,59 c 32,5 47,-31 103,-31 m -68,22 c -32,29 66,20 66,20 M 502.91686,199.43819 C 520.49823,262.58874 450.9514,302.6112 460,375 c 5,40 70,35 70,0 0,-25 -30,-20 -30,-5 0,15 10,20 10,20 m 13.08173,-194.76842 c 19.86653,64.44118 -51.41971,104.54858 -42.26552,177.7821 2.3656,18.92481 15.74064,22.62525 29.17802,17.56439 m 29.67513,-198.7348 C 564.96961,258.15109 493.6497,297.29454 500,370 m 58.38755,-181.32479 c 26.98532,64.08972 -37.16559,103.38456 -39.89299,168.97088 M 576.70868,184.9603 C 607.46384,251.85002 532.78,303.14874 530,370 m 62.92839,-187.39554 c 32.85599,69.92992 -46.19795,118.3091 -47.05193,184.48148 C 545,435 620,420 620,385 c 0,-35 -51.82514,-36.6487 -50,-5 1.82514,31.6487 38.51666,12.69331 30,5 m 13.38823,-205.94087 c 28.94935,66.23234 -46.49177,117.81868 -47.34095,183.61874 -0.20118,15.58859 3.84969,25.9873 10.21123,32.33408 m 57.97496,-218.90238 c 25.53691,63.44049 -43.11185,119.56033 -48.8604,181.85551 m 34.67317,27.20469 C 650.46087,441.03685 735,412.86965 735,370 c 0,-55.22681 -55,-45 -55,-10 0,34.64982 45,15 25,-5 M 655.2209,173.36273 C 678.04089,237.94503 610,312.17106 610,350 c 0,5.09251 1.28305,9.80067 2.30037,14.21462 m 62.04387,-193.2704 C 699.5877,234.95699 628.80923,298.09229 635,360 c 5,50 80,42.13137 80,15 0,-10 -10,-20 -10,-20 M 693.92284,168.86298 c 32.24421,85.25657 -86.12579,177.23104 -5.65452,208.70596 m -202.84146,98.3058 C 454.34201,503.04438 405,487.85891 405,455 c 0,-55.22681 50.04576,-39.99996 50,-15 -0.0376,20.55682 -30,20 -30,-5 m 84.92832,-34.41034 c 0.92351,17.77403 -1.02965,32.52191 -4.97893,44.56514 m -9.55974,-42.22873 C 505.67582,462.54762 425.84744,493.31316 420,455 c -0.75438,-4.94276 0,-10 5,-20 m 58.3872,-33.37106 C 480.06328,428.24339 462.63856,460.55564 440,455 m 133.47019,29.53862 C 542.26251,518.86814 485,516.45811 485,470 c 0,-30.41381 50,-35 50,-10 0,30 -30,20 -30,10 m 86.76233,-56.23082 c 1.29366,7.9347 1.67557,15.3995 1.28507,22.38217 M 576.23842,414.24019 C 576.98008,427.6742 575.97465,452.36887 565,465 c -29.33159,33.75882 -58.51096,14.88852 -60,5 -0.75959,-5.04435 1.66656,-7.2141 5,-10 m 53.84386,-50.53714 c -5.943,44.40707 -17.42916,71.91543 -38.67842,69.66045 m 27.83181,-80.48909 C 547.65706,421.34253 541.95662,442.819 535,460 m 11.47235,-83.29966 c -7.36756,23.26614 -17.8156,49.93947 -27.69571,67.15379 M 689.3867,414.39187 C 678.84586,529.44941 564.05831,518.47519 570,465 c 5,-45 48.84275,-29.9732 50,-5 1.18448,25.56084 -30,25 -30,5 m 84.25082,-48.7422 c -6.68173,41.85927 -47.13746,95.07883 -75.45651,62.59797 m 59.84025,-63.74973 c -4.81546,30.36436 -15.68949,53.83126 -42.5879,59.055 m 27.32349,-65.1803 c -4.07877,23.44522 -14.00077,38.51595 -23.64587,50.38327 m 9.72121,-61.27242 c -1.90547,17.57776 -8.15164,33.69673 -15.08106,48.14285 m -8.51422,-37.78455 c 2.14927,9.9888 1.72979,20.29869 0.13958,30.75492 M 339.38872,-0.60685455 C 395.39607,55.571926 459.42848,122.36942 500,200 643.73077,169.58589 791.68819,153.31898 935,170 981.78372,106.81396 1042.0468,51.847034 1107.3587,-0.04140766 M 480.44084,165.79345 c 119.65085,-48.5125 358.65731,-76.625066 478.36331,-26.28621"
       id="path1790" />
  </g>
  <g
     id="use1603"
     transform="matrix(0.12676923,0,0,0.13039999,-119.59907,-167.52967)">
    <path
       stroke="#4444ff"
       stroke-linecap="round"
       stroke-linejoin="round"
       stroke-width="3"
       fill="none"
       d="m 1225,520 c 0,10 25,10 25,10 m -37.9167,7.97687 c 6.055,8.81002 1.0889,22.6431 0,22.02313 m -0.033,14.3073 c 6.055,8.81002 1.0889,22.6431 0,22.02313 m 1.5106,5.51381 c 6.055,8.81002 1.0889,22.6431 0,22.02313 m 8.4894,5.43993 c 6.055,8.81002 1.0889,22.6431 0,22.02313 M 1240,545 c 2.8165,4.38951 1.4689,7.21751 0,10 m 3.355,20.11831 c 2.8165,4.38951 1.4689,7.21751 0,10 m 0,20 c 2.8165,4.38951 1.4689,7.21751 0,10 m 0,20 c 2.8165,4.38951 1.4689,7.21751 0,10 M 934,385 c -10.82302,1.06092 -23.08148,-1.37924 -33,8 M 880,268 c -7,1 -19,18 -19,18 m 10.43746,-57.70503 C 873.65948,232.39336 875,237.70142 875,243.5 c 0,12.97869 -6.71573,23.5 -15,23.5 -8.28427,0 -15,-10.52131 -15,-23.5 0,-1.88879 0.14223,-3.72553 0.41083,-5.48537 M 786,243 c 28,0 58,-31 77,-31 11.49924,0 12,13 12,13"
       id="path1794" />
    <g
       id="g1798"
       transform="matrix(0.051197,0.03484477,-0.03584853,0.04976349,910.12279,546.67687)">
      <path
         d="m 0,-500 c 100,250 355,400 355,685 a 150,150 0 0 1 -300,0 10,10 0 0 0 -20,0 c 0,200 50,215 95,315 h -260 c 45,-100 95,-115 95,-315 a 10,10 0 0 0 -20,0 150,150 0 0 1 -300,0 c 0,-285 255,-435 355,-685 z"
         fill="#000000"
         id="path1796" />
    </g>
    <g
       id="g1802"
       transform="matrix(0.05241691,0.03308682,-0.03403994,0.05094924,845.14701,641.67229)">
      <path
         d="m 0,-500 c 100,250 355,400 355,685 a 150,150 0 0 1 -300,0 10,10 0 0 0 -20,0 c 0,200 50,215 95,315 h -260 c 45,-100 95,-115 95,-315 a 10,10 0 0 0 -20,0 150,150 0 0 1 -300,0 c 0,-285 255,-435 355,-685 z"
         fill="#000000"
         id="path1800" />
    </g>
    <g
       id="g1806"
       transform="matrix(0.05241691,0.03308682,-0.03403994,0.05094924,780.14701,739.67229)">
      <path
         d="m 0,-500 c 100,250 355,400 355,685 a 150,150 0 0 1 -300,0 10,10 0 0 0 -20,0 c 0,200 50,215 95,315 h -260 c 45,-100 95,-115 95,-315 a 10,10 0 0 0 -20,0 150,150 0 0 1 -300,0 c 0,-285 255,-435 355,-685 z"
         fill="#000000"
         id="path1804" />
    </g>
  </g>
  <g
     id="use1605"
     transform="matrix(-0.12676923,0,0,-0.13039999,45.200935,93.270322)">
    <path
       stroke="#4444ff"
       stroke-linecap="round"
       stroke-linejoin="round"
       stroke-width="3"
       fill="none"
       d="m 1225,520 c 0,10 25,10 25,10 m -37.9167,7.97687 c 6.055,8.81002 1.0889,22.6431 0,22.02313 m -0.033,14.3073 c 6.055,8.81002 1.0889,22.6431 0,22.02313 m 1.5106,5.51381 c 6.055,8.81002 1.0889,22.6431 0,22.02313 m 8.4894,5.43993 c 6.055,8.81002 1.0889,22.6431 0,22.02313 M 1240,545 c 2.8165,4.38951 1.4689,7.21751 0,10 m 3.355,20.11831 c 2.8165,4.38951 1.4689,7.21751 0,10 m 0,20 c 2.8165,4.38951 1.4689,7.21751 0,10 m 0,20 c 2.8165,4.38951 1.4689,7.21751 0,10 M 934,385 c -10.82302,1.06092 -23.08148,-1.37924 -33,8 M 880,268 c -7,1 -19,18 -19,18 m 10.43746,-57.70503 C 873.65948,232.39336 875,237.70142 875,243.5 c 0,12.97869 -6.71573,23.5 -15,23.5 -8.28427,0 -15,-10.52131 -15,-23.5 0,-1.88879 0.14223,-3.72553 0.41083,-5.48537 M 786,243 c 28,0 58,-31 77,-31 11.49924,0 12,13 12,13"
       id="path1810" />
    <g
       id="g1814"
       transform="matrix(0.051197,0.03484477,-0.03584853,0.04976349,910.12279,546.67687)">
      <path
         d="m 0,-500 c 100,250 355,400 355,685 a 150,150 0 0 1 -300,0 10,10 0 0 0 -20,0 c 0,200 50,215 95,315 h -260 c 45,-100 95,-115 95,-315 a 10,10 0 0 0 -20,0 150,150 0 0 1 -300,0 c 0,-285 255,-435 355,-685 z"
         fill="#000000"
         id="path1812" />
    </g>
    <g
       id="g1818"
       transform="matrix(0.05241691,0.03308682,-0.03403994,0.05094924,845.14701,641.67229)">
      <path
         d="m 0,-500 c 100,250 355,400 355,685 a 150,150 0 0 1 -300,0 10,10 0 0 0 -20,0 c 0,200 50,215 95,315 h -260 c 45,-100 95,-115 95,-315 a 10,10 0 0 0 -20,0 150,150 0 0 1 -300,0 c 0,-285 255,-435 355,-685 z"
         fill="#000000"
         id="path1816" />
    </g>
    <g
       id="g1822"
       transform="matrix(0.05241691,0.03308682,-0.03403994,0.05094924,780.14701,739.67229)">
      <path
         d="m 0,-500 c 100,250 355,400 355,685 a 150,150 0 0 1 -300,0 10,10 0 0 0 -20,0 c 0,200 50,215 95,315 h -260 c 45,-100 95,-115 95,-315 a 10,10 0 0 0 -20,0 150,150 0 0 1 -300,0 c 0,-285 255,-435 355,-685 z"
         fill="#000000"
         id="path1820" />
    </g>
  </g>
</svg>
