<?xml version="1.0" encoding="UTF-8" standalone="no"?>
<svg
   width="1.7249454in"
   height="2.7248178in"
   viewBox="-120 -168 165.59476 261.5825"
   preserveAspectRatio="none"
   class="card"
   face="JH"
   version="1.1"
   id="svg105"
   sodipodi:docname="JH.svg"
   xmlns:inkscape="http://www.inkscape.org/namespaces/inkscape"
   xmlns:sodipodi="http://sodipodi.sourceforge.net/DTD/sodipodi-0.dtd"
   xmlns="http://www.w3.org/2000/svg"
   xmlns:svg="http://www.w3.org/2000/svg">
  <sodipodi:namedview
     id="namedview107"
     pagecolor="#ffffff"
     bordercolor="#000000"
     borderopacity="0.25"
     inkscape:showpageshadow="2"
     inkscape:pageopacity="0.0"
     inkscape:pagecheckerboard="0"
     inkscape:deskcolor="#d1d1d1"
     inkscape:document-units="in"
     showgrid="false"
     showguides="true">
    <sodipodi:guide
       position="0.39640435,259.20666"
       orientation="1,0"
       id="guide213"
       inkscape:locked="false" />
    <sodipodi:guide
       position="39.548368,261.1168"
       orientation="0,-1"
       id="guide298"
       inkscape:locked="false" />
    <sodipodi:guide
       position="165.19594,139.36453"
       orientation="1,0"
       id="guide329"
       inkscape:locked="false" />
    <sodipodi:guide
       position="90.90822,0.46319475"
       orientation="0,-1"
       id="guide331"
       inkscape:locked="false" />
  </sodipodi:namedview>
  <defs
     id="defs19" />
  <g
     id="use65"
     transform="matrix(0.12676923,0,0,0.13039999,-119.60263,-167.60875)">
    <path
       fill="#ffcc44"
       d="M 0,27.173828 V 101.95703 L 60,175 v 479.35156 l 45,-31.19922 V 332.34375 c 47.54746,13.88505 57.73238,59.91066 59.79883,112.82227 C 207.18347,366.33183 172.25032,341.86946 155,305 c 22.43469,-6.79444 44.1013,-15.65172 60,-40 -19.52239,-21.33976 -39.81246,-27.13153 -60,-35 45.60008,-69.69913 20.41092,-97.0017 -2.07617,-126.05273 4.26215,33.89362 6.38364,68.40734 -47.38086,116.95312 L 105,280.75 V 155 Z M 616.34375,120.03906 C 526.3282,120.06041 439.18658,135.8115 366.16406,156.02734 314.55478,278.49343 383.86141,375.08483 320,480 c 20,-55 -81.65669,-74.73568 -75,5 1.6217,19.42514 15.24678,28.67574 31.95117,29.88281 -4.328,-0.20376 -8.26681,-0.74477 -11.52734,-1.72461 l -45.06641,31.08594 -0.004,-0.006 L 0,696.20703 v 30 L 235.47266,563.8125 220.76172,544.76562 497.5,902.5 497.53711,920 H 802.5 V 902.5 C 831.04785,785.34524 874.97288,678.68575 947.42969,583.45898 l -103.83594,-76.0625 c -18.96493,21.00634 -35.78143,42.99322 -50.81836,65.79297 L 794.87695,570 H 410.2832 L 360,505 h -21.81836 c 7.03111,-2.08932 14.31437,-4.3835 21.77539,-6.81055 3.81978,-0.61198 7.658,-1.20233 11.50391,-1.78515 L 360,505 371.69531,520 H 831.34375 L 843.54492,507.42188 820,490 H 412.90234 c 34.85939,-5.90774 68.5241,-14.10649 95.88282,-32.44922 7.35264,-4.9296 12.78884,-12.42658 20.59375,-17.13476 11.29317,-6.81241 22.21032,-13.53066 28.29687,-25.41602 l -25.60156,9.58594 25.20703,-9.50977 C 566.256,412.36441 572.55459,404.89083 580,390 640.11875,269.76248 560.23698,260.02899 644.35938,120.55078 c -9.361,-0.34689 -18.70368,-0.51393 -28.01563,-0.51172 z M 1163.4961,464.57422 C 1139.5891,464.36529 1111.0213,474.23404 1090,490 c -40,30 -80,15 -75,-25 -70,30 -5,140 65,95 42.1963,-27.12621 105,-40 115,-5 31.7426,-65.24868 5.7911,-90.09986 -31.5039,-90.42578 z m -868.3711,48.73242 -2.73633,1.02539 c -2.76961,0.29378 -5.48373,0.48671 -8.11719,0.58203 3.5681,-0.21551 7.21015,-0.7583 10.85352,-1.60742 z m 497.4707,60.15625 C 727.4259,672.39827 695.72535,786.61685 667.43945,902.42188 L 413.45703,574.10156 422.63867,585 H 785 Z m 226.8516,63.70703 c -52.41192,65.67627 -90.81922,136.71006 -119.543,212.91992 l 21.53125,23.41797 C 949.01815,793.98668 986.39464,719.93105 1038.2734,651.53516 1032.8619,678.34072 1030,706.28322 1030,735 c 0,136.63964 64.8075,255.72421 160.7383,318.2852 l -2.5957,-1.5899 c -45.7522,115.8302 -115.5438,225.8674 -185.6465,304.2617 l 13.8496,17.4961 c 72.4161,-75.901 146.448,-187.7806 195.8398,-307.0332 l -6.2675,-3.8379 c 29.1072,16.6244 60.7557,28.1762 94.082,33.7012 v -18.4707 c -143.4769,-19.1618 -255,-163.61481 -255,-339.00781 0,-26.57032 2.5625,-52.4286 7.4043,-77.25196 l -14.0156,-10.16992 c 0.1069,-0.14093 0.2113,-0.28295 0.3183,-0.42383 z m 88.4023,64.60547 17.75,13.19727 c -0.4431,6.60844 -0.668,13.28715 -0.668,20.02734 0,122.96218 75.111,225.58935 175.0684,249.65625 V 953.91992 C 1214.4587,930.39872 1150.8223,841.31333 1150.8223,735 c 0,-0.68109 -6e-4,-1.36136 0.01,-2.04102 z m -20.2754,13.24219 c -11.0121,-0.22638 -20.789,7.22834 -14.3144,26.10547 -44.4117,-8.72127 -25.5373,58.64315 7.2949,29.09961 7.5142,43.32743 68.5693,-5.00655 20.6015,-20.62891 18.9176,-19.53068 1.5087,-34.26595 -13.582,-34.57617 z m -254.97068,86.53711 -29.98633,105.49023 c 48.75509,35.02012 80.41992,91.60728 80.41992,155.45508 0,37.0158 -10.64204,71.592 -29.08789,100.9395 l 67.25586,87.8105 C 964.19332,1199.8956 990,1134.1564 990,1062.5 990,950.02267 926.41359,852.12447 832.60352,801.55469 Z m 276.73238,19.51758 c -12.9859,-0.007 -25.2401,9.4417 -13.3515,29.02929 -45.2497,0.95904 -12.4319,62.74162 13.3379,26.8711 16.5889,40.72513 65.9214,-19.52679 15.7246,-24.55078 12.7656,-20.61915 -1.8873,-31.34208 -15.711,-31.34961 z m 59.8321,95.60742 c -15.4147,0.1637 -32.1278,14.61347 -11.7266,32.82617 -42.995,14.13824 6.4427,63.63544 20.6074,21.80078 27.764,34.10106 57.3396,-37.93396 7.8653,-28.07226 5.0597,-19.18575 -5.4976,-26.67415 -16.7461,-26.55469 z m 92.3183,75.375 c -17.1575,-0.3911 -37.5381,22.87351 -8.5742,35.95901 -36.7797,26.3764 25.2245,58.778 26.1973,14.6211 8.7819,5.7917 15.8372,5.7501 20.8906,2.6777 v -35.2988 c -5.0219,-2.2384 -12.2178,-1.7718 -21.8047,3.4804 -0.7188,-15.41561 -8.3297,-21.24841 -16.709,-21.43941 z"
       id="path517" />
  </g>
  <g
     id="use67"
     transform="matrix(-0.12676923,0,0,-0.13039999,45.197374,93.191242)">
    <path
       fill="#ffcc44"
       d="M 0,27.173828 V 101.95703 L 60,175 v 479.35156 l 45,-31.19922 V 332.34375 c 47.54746,13.88505 57.73238,59.91066 59.79883,112.82227 C 207.18347,366.33183 172.25032,341.86946 155,305 c 22.43469,-6.79444 44.1013,-15.65172 60,-40 -19.52239,-21.33976 -39.81246,-27.13153 -60,-35 45.60008,-69.69913 20.41092,-97.0017 -2.07617,-126.05273 4.26215,33.89362 6.38364,68.40734 -47.38086,116.95312 L 105,280.75 V 155 Z M 616.34375,120.03906 C 526.3282,120.06041 439.18658,135.8115 366.16406,156.02734 314.55478,278.49343 383.86141,375.08483 320,480 c 20,-55 -81.65669,-74.73568 -75,5 1.6217,19.42514 15.24678,28.67574 31.95117,29.88281 -4.328,-0.20376 -8.26681,-0.74477 -11.52734,-1.72461 l -45.06641,31.08594 -0.004,-0.006 L 0,696.20703 v 30 L 235.47266,563.8125 220.76172,544.76562 497.5,902.5 497.53711,920 H 802.5 V 902.5 C 831.04785,785.34524 874.97288,678.68575 947.42969,583.45898 l -103.83594,-76.0625 c -18.96493,21.00634 -35.78143,42.99322 -50.81836,65.79297 L 794.87695,570 H 410.2832 L 360,505 h -21.81836 c 7.03111,-2.08932 14.31437,-4.3835 21.77539,-6.81055 3.81978,-0.61198 7.658,-1.20233 11.50391,-1.78515 L 360,505 371.69531,520 H 831.34375 L 843.54492,507.42188 820,490 H 412.90234 c 34.85939,-5.90774 68.5241,-14.10649 95.88282,-32.44922 7.35264,-4.9296 12.78884,-12.42658 20.59375,-17.13476 11.29317,-6.81241 22.21032,-13.53066 28.29687,-25.41602 l -25.60156,9.58594 25.20703,-9.50977 C 566.256,412.36441 572.55459,404.89083 580,390 640.11875,269.76248 560.23698,260.02899 644.35938,120.55078 c -9.361,-0.34689 -18.70368,-0.51393 -28.01563,-0.51172 z M 1163.4961,464.57422 C 1139.5891,464.36529 1111.0213,474.23404 1090,490 c -40,30 -80,15 -75,-25 -70,30 -5,140 65,95 42.1963,-27.12621 105,-40 115,-5 31.7426,-65.24868 5.7911,-90.09986 -31.5039,-90.42578 z m -868.3711,48.73242 -2.73633,1.02539 c -2.76961,0.29378 -5.48373,0.48671 -8.11719,0.58203 3.5681,-0.21551 7.21015,-0.7583 10.85352,-1.60742 z m 497.4707,60.15625 C 727.4259,672.39827 695.72535,786.61685 667.43945,902.42188 L 413.45703,574.10156 422.63867,585 H 785 Z m 226.8516,63.70703 c -52.41192,65.67627 -90.81922,136.71006 -119.543,212.91992 l 21.53125,23.41797 C 949.01815,793.98668 986.39464,719.93105 1038.2734,651.53516 1032.8619,678.34072 1030,706.28322 1030,735 c 0,136.63964 64.8075,255.72421 160.7383,318.2852 l -2.5957,-1.5899 c -45.7522,115.8302 -115.5438,225.8674 -185.6465,304.2617 l 13.8496,17.4961 c 72.4161,-75.901 146.448,-187.7806 195.8398,-307.0332 l -6.2675,-3.8379 c 29.1072,16.6244 60.7557,28.1762 94.082,33.7012 v -18.4707 c -143.4769,-19.1618 -255,-163.61481 -255,-339.00781 0,-26.57032 2.5625,-52.4286 7.4043,-77.25196 l -14.0156,-10.16992 c 0.1069,-0.14093 0.2113,-0.28295 0.3183,-0.42383 z m 88.4023,64.60547 17.75,13.19727 c -0.4431,6.60844 -0.668,13.28715 -0.668,20.02734 0,122.96218 75.111,225.58935 175.0684,249.65625 V 953.91992 C 1214.4587,930.39872 1150.8223,841.31333 1150.8223,735 c 0,-0.68109 -6e-4,-1.36136 0.01,-2.04102 z m -20.2754,13.24219 c -11.0121,-0.22638 -20.789,7.22834 -14.3144,26.10547 -44.4117,-8.72127 -25.5373,58.64315 7.2949,29.09961 7.5142,43.32743 68.5693,-5.00655 20.6015,-20.62891 18.9176,-19.53068 1.5087,-34.26595 -13.582,-34.57617 z m -254.97068,86.53711 -29.98633,105.49023 c 48.75509,35.02012 80.41992,91.60728 80.41992,155.45508 0,37.0158 -10.64204,71.592 -29.08789,100.9395 l 67.25586,87.8105 C 964.19332,1199.8956 990,1134.1564 990,1062.5 990,950.02267 926.41359,852.12447 832.60352,801.55469 Z m 276.73238,19.51758 c -12.9859,-0.007 -25.2401,9.4417 -13.3515,29.02929 -45.2497,0.95904 -12.4319,62.74162 13.3379,26.8711 16.5889,40.72513 65.9214,-19.52679 15.7246,-24.55078 12.7656,-20.61915 -1.8873,-31.34208 -15.711,-31.34961 z m 59.8321,95.60742 c -15.4147,0.1637 -32.1278,14.61347 -11.7266,32.82617 -42.995,14.13824 6.4427,63.63544 20.6074,21.80078 27.764,34.10106 57.3396,-37.93396 7.8653,-28.07226 5.0597,-19.18575 -5.4976,-26.67415 -16.7461,-26.55469 z m 92.3183,75.375 c -17.1575,-0.3911 -37.5381,22.87351 -8.5742,35.95901 -36.7797,26.3764 25.2245,58.778 26.1973,14.6211 8.7819,5.7917 15.8372,5.7501 20.8906,2.6777 v -35.2988 c -5.0219,-2.2384 -12.2178,-1.7718 -21.8047,3.4804 -0.7188,-15.41561 -8.3297,-21.24841 -16.709,-21.43941 z"
       id="path521" />
  </g>
  <g
     id="use69"
     transform="matrix(0.12676923,0,0,0.13039999,-119.60263,-167.60875)">
    <path
       fill="#ff0000"
       d="M 199.64844,0 355.70312,158.85547 C 484.17465,122.11158 658.57478,97.858259 815,150 L 960.45508,0 h -86.25586 l -72.25586,88.408203 -2.95898,-0.603515 C 763.77679,80.62013 729.26591,75.896485 695.65039,72.996094 L 690.62109,72.5625 697.58008,0 h -67.60352 l -0.084,70.974609 -4.99805,-0.0059 c -38.8849,-0.03567 -76.40043,2.698568 -112.47461,7.173828 L 507.77148,78.720703 492.76953,0 h -77.47851 l 32.89257,88.25 -5.82812,1.101562 C 413.49068,94.811819 385.99663,101.17094 359.80859,107.875 l -3.43554,0.88086 L 283.97852,0 Z m 96.34375,0 64.80078,97.351562 c 23.53388,-5.971783 48.18939,-11.615645 73.91601,-16.621093 L 404.61719,0 Z m 206.95703,0 12.90234,67.705078 c 33.44321,-3.997357 68.14902,-6.46984 104.05274,-6.654297 L 619.97656,0 Z m 204.67383,0 -6.0918,63.533203 c 31.42374,2.872145 63.62284,7.330913 96.45898,13.910156 L 861.2832,0 Z M 0,101.95703 V 696.48828 L 60,654.35156 V 175 Z m 434.89844,426.79688 c -6.16001,0 -12.29166,3.64996 -5.28711,10.93554 a 7.5,7.5 0 0 1 5.28711,-2.18554 7.5,7.5 0 0 1 5.28711,2.1875 c 7.0062,-7.28629 0.8732,-10.9375 -5.28711,-10.9375 z m 5.28711,10.9375 c -0.102,0.10608 -0.17948,0.20487 -0.28711,0.3125 0.10799,-0.10799 0.20802,-0.18478 0.31445,-0.28711 a 7.5,7.5 0 0 0 -0.0273,-0.0254 z m 0.0273,0.0254 a 7.5,7.5 0 0 1 2.18555,5.28711 7.5,7.5 0 0 1 -2.1875,5.28711 c 14.57223,14.01206 14.57341,-24.58368 0.002,-10.57422 z m -0.002,10.57422 c -0.10608,-0.102 -0.20487,-0.17948 -0.3125,-0.28711 0.10799,0.10799 0.18478,0.20802 0.28711,0.31445 a 7.5,7.5 0 0 0 0.0254,-0.0273 z m -0.0254,0.0273 a 7.5,7.5 0 0 1 -5.28711,2.18555 7.5,7.5 0 0 1 -5.28711,-2.1875 c -14.01206,14.57223 24.58368,14.57341 10.57422,0.002 z m -10.57422,-0.002 c 0.102,-0.10608 0.17948,-0.20487 0.28711,-0.3125 -0.10799,0.10799 -0.20803,0.18478 -0.31446,0.28711 a 7.5,7.5 0 0 0 0.0274,0.0254 z m -0.0274,-0.0254 a 7.5,7.5 0 0 1 -2.18554,-5.28711 7.5,7.5 0 0 1 2.1875,-5.28711 c -14.57223,-14.01206 -14.57342,24.58368 -0.002,10.57422 z m 0.002,-10.57422 c 0.10608,0.102 0.20487,0.17948 0.3125,0.28711 -0.10799,-0.10799 -0.18478,-0.20803 -0.28711,-0.31446 a 7.5,7.5 0 0 0 -0.0254,0.0274 z m 71.8164,-10.96289 c -6.16001,0 -12.29166,3.64996 -5.28711,10.93554 a 7.5,7.5 0 0 1 5.28711,-2.18554 7.5,7.5 0 0 1 5.28711,2.1875 c 7.0062,-7.28629 0.8732,-10.9375 -5.28711,-10.9375 z m 5.28711,10.9375 c -0.102,0.10608 -0.17948,0.20487 -0.28711,0.3125 0.10799,-0.10799 0.20803,-0.18478 0.31446,-0.28711 a 7.5,7.5 0 0 0 -0.0273,-0.0254 z m 0.0273,0.0254 a 7.5,7.5 0 0 1 2.18554,5.28711 7.5,7.5 0 0 1 -2.1875,5.28711 c 14.57223,14.01206 14.57342,-24.58368 0.002,-10.57422 z m -0.002,10.57422 c -0.10608,-0.102 -0.20487,-0.17948 -0.3125,-0.28711 0.10799,0.10799 0.18478,0.20802 0.28711,0.31445 a 7.5,7.5 0 0 0 0.0254,-0.0273 z m -0.0254,0.0273 a 7.5,7.5 0 0 1 -5.28711,2.18555 7.5,7.5 0 0 1 -5.28711,-2.1875 c -14.01206,14.57223 24.58368,14.57341 10.57422,0.002 z m -10.57422,-0.002 c 0.102,-0.10608 0.17948,-0.20487 0.28711,-0.3125 -0.10799,0.10799 -0.20802,0.18478 -0.31445,0.28711 a 7.5,7.5 0 0 0 0.0273,0.0254 z m -0.0273,-0.0254 a 7.5,7.5 0 0 1 -2.18555,-5.28711 7.5,7.5 0 0 1 2.1875,-5.28711 c -14.57223,-14.01206 -14.57341,24.58368 -0.002,10.57422 z m 0.002,-10.57422 c 0.10608,0.102 0.20487,0.17948 0.3125,0.28711 -0.10799,-0.10799 -0.18478,-0.20803 -0.28711,-0.31446 a 7.5,7.5 0 0 0 -0.0254,0.0274 z m 71.81641,-10.96289 c -6.16001,0 -12.29166,3.64996 -5.28711,10.93554 a 7.5,7.5 0 0 1 5.28711,-2.18554 7.5,7.5 0 0 1 5.28711,2.1875 c 7.0062,-7.28629 0.8732,-10.9375 -5.28711,-10.9375 z m 5.28711,10.9375 c -0.102,0.10608 -0.17948,0.20487 -0.28711,0.3125 0.10799,-0.10799 0.20802,-0.18478 0.31445,-0.28711 a 7.5,7.5 0 0 0 -0.0273,-0.0254 z m 0.0273,0.0254 a 7.5,7.5 0 0 1 2.18555,5.28711 7.5,7.5 0 0 1 -2.1875,5.28711 c 14.57223,14.01206 14.57341,-24.58368 0.002,-10.57422 z m -0.002,10.57422 c -0.10608,-0.102 -0.20487,-0.17948 -0.3125,-0.28711 0.10799,0.10799 0.18478,0.20802 0.28711,0.31445 a 7.5,7.5 0 0 0 0.0254,-0.0273 z m -0.0254,0.0273 a 7.5,7.5 0 0 1 -5.28711,2.18555 7.5,7.5 0 0 1 -5.28711,-2.1875 c -14.01206,14.57223 24.58368,14.57341 10.57422,0.002 z m -10.57422,-0.002 c 0.102,-0.10608 0.17948,-0.20487 0.28711,-0.3125 -0.10799,0.10799 -0.20802,0.18478 -0.31445,0.28711 a 7.5,7.5 0 0 0 0.0273,0.0254 z m -0.0273,-0.0254 a 7.5,7.5 0 0 1 -2.18555,-5.28711 7.5,7.5 0 0 1 2.1875,-5.28711 c -14.57223,-14.01206 -14.57341,24.58368 -0.002,10.57422 z m 0.002,-10.57422 c 0.10608,0.102 0.20487,0.17948 0.3125,0.28711 -0.10799,-0.10799 -0.18478,-0.20803 -0.28711,-0.31446 a 7.5,7.5 0 0 0 -0.0254,0.0274 z m 71.81445,-10.96289 c -6.16001,0 -12.29166,3.64996 -5.28711,10.93554 a 7.5,7.5 0 0 1 5.28711,-2.18554 7.5,7.5 0 0 1 5.28711,2.1875 c 7.0062,-7.28629 0.8732,-10.9375 -5.28711,-10.9375 z m 5.28711,10.9375 c -0.102,0.10608 -0.17948,0.20487 -0.28711,0.3125 0.10799,-0.10799 0.20803,-0.18478 0.31446,-0.28711 a 7.5,7.5 0 0 0 -0.0274,-0.0254 z m 0.0274,0.0254 a 7.5,7.5 0 0 1 2.18554,5.28711 7.5,7.5 0 0 1 -2.1875,5.28711 c 14.57223,14.01206 14.57342,-24.58368 0.002,-10.57422 z m -0.002,10.57422 c -0.10608,-0.102 -0.20487,-0.17948 -0.3125,-0.28711 0.10799,0.10799 0.18478,0.20802 0.28711,0.31445 a 7.5,7.5 0 0 0 0.0254,-0.0273 z m -0.0254,0.0273 a 7.5,7.5 0 0 1 -5.28711,2.18555 7.5,7.5 0 0 1 -5.28711,-2.1875 c -14.01206,14.57223 24.58368,14.57341 10.57422,0.002 z m -10.57422,-0.002 c 0.102,-0.10608 0.17948,-0.20487 0.28711,-0.3125 -0.10799,0.10799 -0.20802,0.18478 -0.31445,0.28711 a 7.5,7.5 0 0 0 0.0273,0.0254 z m -0.0273,-0.0254 a 7.5,7.5 0 0 1 -2.18555,-5.28711 7.5,7.5 0 0 1 2.1875,-5.28711 c -14.57223,-14.01206 -14.57341,24.58368 -0.002,10.57422 z m 0.002,-10.57422 c 0.10608,0.102 0.20487,0.17948 0.3125,0.28711 -0.10799,-0.10799 -0.18478,-0.20803 -0.28711,-0.31446 a 7.5,7.5 0 0 0 -0.0254,0.0274 z m 71.81641,-10.96289 c -6.16001,0 -12.29166,3.64996 -5.28711,10.93554 a 7.5,7.5 0 0 1 5.28711,-2.18554 7.5,7.5 0 0 1 5.28711,2.1875 c 7.0062,-7.28629 0.8732,-10.9375 -5.28711,-10.9375 z m 5.28711,10.9375 c -0.102,0.10608 -0.17948,0.20487 -0.28711,0.3125 0.10799,-0.10799 0.20802,-0.18478 0.31445,-0.28711 a 7.5,7.5 0 0 0 -0.0273,-0.0254 z m 0.0273,0.0254 a 7.5,7.5 0 0 1 2.18555,5.28711 7.5,7.5 0 0 1 -2.1875,5.28711 c 14.57223,14.01206 14.57341,-24.58368 0.002,-10.57422 z m -0.002,10.57422 c -0.10608,-0.102 -0.20487,-0.17948 -0.3125,-0.28711 0.10799,0.10799 0.18478,0.20802 0.28711,0.31445 a 7.5,7.5 0 0 0 0.0254,-0.0273 z m -0.0254,0.0273 a 7.5,7.5 0 0 1 -5.28711,2.18555 7.5,7.5 0 0 1 -5.28711,-2.1875 c -14.01206,14.57223 24.58368,14.57341 10.57422,0.002 z m -10.57422,-0.002 c 0.102,-0.10608 0.17948,-0.20487 0.28711,-0.3125 -0.10799,0.10799 -0.20802,0.18478 -0.31445,0.28711 a 7.5,7.5 0 0 0 0.0273,0.0254 z m -0.0273,-0.0254 a 7.5,7.5 0 0 1 -2.18555,-5.28711 7.5,7.5 0 0 1 2.1875,-5.28711 c -14.57223,-14.01206 -14.57341,24.58368 -0.002,10.57422 z m 0.002,-10.57422 c 0.10608,0.102 0.20487,0.17948 0.3125,0.28711 -0.10799,-0.10799 -0.18478,-0.20803 -0.28711,-0.31446 a 7.5,7.5 0 0 0 -0.0254,0.0274 z m 71.81445,-10.96289 c -6.16001,0 -12.29166,3.64996 -5.28711,10.93554 a 7.5,7.5 0 0 1 5.28711,-2.18554 7.5,7.5 0 0 1 5.28711,2.1875 c 7.0062,-7.28629 0.8732,-10.9375 -5.28711,-10.9375 z m 5.28711,10.9375 c -0.102,0.10608 -0.17948,0.20487 -0.28711,0.3125 0.10799,-0.10799 0.20803,-0.18478 0.31446,-0.28711 a 7.5,7.5 0 0 0 -0.0273,-0.0254 z m 0.0273,0.0254 a 7.5,7.5 0 0 1 2.18554,5.28711 7.5,7.5 0 0 1 -2.1875,5.28711 c 14.57223,14.01206 14.57342,-24.58368 0.002,-10.57422 z m -0.002,10.57422 c -0.10608,-0.102 -0.20487,-0.17948 -0.3125,-0.28711 0.10799,0.10799 0.18478,0.20802 0.28711,0.31445 a 7.5,7.5 0 0 0 0.0254,-0.0273 z m -0.0254,0.0273 a 7.5,7.5 0 0 1 -5.28711,2.18555 7.5,7.5 0 0 1 -5.28711,-2.1875 c -14.01206,14.57223 24.58368,14.57341 10.57422,0.002 z m -10.57422,-0.002 c 0.102,-0.10608 0.17948,-0.20487 0.28711,-0.3125 -0.10799,0.10799 -0.20802,0.18478 -0.31445,0.28711 a 7.5,7.5 0 0 0 0.0273,0.0254 z m -0.0273,-0.0254 a 7.5,7.5 0 0 1 -2.18555,-5.28711 7.5,7.5 0 0 1 2.1875,-5.28711 c -14.57223,-14.01206 -14.57341,24.58368 -0.002,10.57422 z m 0.002,-10.57422 c 0.10608,0.102 0.20487,0.17948 0.3125,0.28711 -0.10799,-0.10799 -0.18478,-0.20803 -0.28711,-0.31446 a 7.5,7.5 0 0 0 -0.0254,0.0274 z M 470,600 655,840 c 17.49896,-85.45089 45,-165 85,-240 z m 680.832,132.95898 c -0.01,0.67966 -0.01,1.35993 -0.01,2.04102 0,106.31333 63.6364,195.39872 149.1777,218.91992 v -62.3457 c -46.1093,-17.78491 -81.7451,-62.13411 -93.3594,-117.39453 z M 855.3457,851.5957 C 850.22328,851.6864 844.88281,854.14062 840,860 L 820.82227,883.01367 855.4668,913.43945 875,890 c 11.48438,-13.78125 -2.92105,-38.70057 -19.6543,-38.4043 z m 48.60742,53.82422 c -3.6587,0.0964 -7.67536,1.34387 -11.95117,4.0957 l -25.88672,16.66016 24.73243,38.89649 25.5625,-16.45118 c 16.62434,-10.69914 7.29998,-43.72176 -12.45704,-43.20117 z m -101.33593,1.625 -0.0879,11.30274 A 3.0003,3.0003 0 0 0 799.95508,916.95703 3.0003,3.0003 0 0 0 797,920 v 20 a 3.0003,3.0003 0 0 0 5.3457,1.91016 L 802,986.10156 c 42.30656,39.72244 28.55091,84.92134 15.5293,130.04884 l 36.41992,47.2891 c 18.44585,-29.3475 29.08789,-63.9237 29.08789,-100.9395 0,-63.8478 -31.66483,-120.43496 -80.41992,-155.45508 z m -302.66211,9.91211 A 3.0003,3.0003 0 0 0 497,920 v 20 a 3.0003,3.0003 0 1 0 6,0 v -20 a 3.0003,3.0003 0 0 0 -3.04492,-3.04297 z m 15,0 A 3.0003,3.0003 0 0 0 512,920 v 20 a 3.0003,3.0003 0 1 0 6,0 v -20 a 3.0003,3.0003 0 0 0 -3.04492,-3.04297 z m 15,0 A 3.0003,3.0003 0 0 0 527,920 v 20 a 3.0003,3.0003 0 1 0 6,0 v -20 a 3.0003,3.0003 0 0 0 -3.04492,-3.04297 z m 15,0 A 3.0003,3.0003 0 0 0 542,920 v 20 a 3.0003,3.0003 0 1 0 6,0 v -20 a 3.0003,3.0003 0 0 0 -3.04492,-3.04297 z m 15,0 A 3.0003,3.0003 0 0 0 557,920 v 20 a 3.0003,3.0003 0 1 0 6,0 v -20 a 3.0003,3.0003 0 0 0 -3.04492,-3.04297 z m 15,0 A 3.0003,3.0003 0 0 0 572,920 v 20 a 3.0003,3.0003 0 1 0 6,0 v -20 a 3.0003,3.0003 0 0 0 -3.04492,-3.04297 z m 15,0 A 3.0003,3.0003 0 0 0 587,920 v 20 a 3.0003,3.0003 0 1 0 6,0 v -20 a 3.0003,3.0003 0 0 0 -3.04492,-3.04297 z m 15,0 A 3.0003,3.0003 0 0 0 602,920 v 20 a 3.0003,3.0003 0 1 0 6,0 v -20 a 3.0003,3.0003 0 0 0 -3.04492,-3.04297 z m 15,0 A 3.0003,3.0003 0 0 0 617,920 v 20 a 3.0003,3.0003 0 1 0 6,0 v -20 a 3.0003,3.0003 0 0 0 -3.04492,-3.04297 z m 15,0 A 3.0003,3.0003 0 0 0 632,920 v 20 a 3.0003,3.0003 0 1 0 6,0 v -20 a 3.0003,3.0003 0 0 0 -3.04492,-3.04297 z m 15,0 A 3.0003,3.0003 0 0 0 647,920 v 20 a 3.0003,3.0003 0 1 0 6,0 v -20 a 3.0003,3.0003 0 0 0 -3.04492,-3.04297 z m 15,0 A 3.0003,3.0003 0 0 0 662,920 v 20 a 3.0003,3.0003 0 1 0 6,0 v -20 a 3.0003,3.0003 0 0 0 -3.04492,-3.04297 z m 15,0 A 3.0003,3.0003 0 0 0 677,920 v 20 a 3.0003,3.0003 0 1 0 6,0 v -20 a 3.0003,3.0003 0 0 0 -3.04492,-3.04297 z m 15,0 A 3.0003,3.0003 0 0 0 692,920 v 20 a 3.0003,3.0003 0 1 0 6,0 v -20 a 3.0003,3.0003 0 0 0 -3.04492,-3.04297 z m 15,0 A 3.0003,3.0003 0 0 0 707,920 v 20 a 3.0003,3.0003 0 1 0 6,0 v -20 a 3.0003,3.0003 0 0 0 -3.04492,-3.04297 z m 15,0 A 3.0003,3.0003 0 0 0 722,920 v 20 a 3.0003,3.0003 0 1 0 6,0 v -20 a 3.0003,3.0003 0 0 0 -3.04492,-3.04297 z m 15,0 A 3.0003,3.0003 0 0 0 737,920 v 20 a 3.0003,3.0003 0 1 0 6,0 v -20 a 3.0003,3.0003 0 0 0 -3.04492,-3.04297 z m 15,0 A 3.0003,3.0003 0 0 0 752,920 v 20 a 3.0003,3.0003 0 1 0 6,0 v -20 a 3.0003,3.0003 0 0 0 -3.04492,-3.04297 z m 15,0 A 3.0003,3.0003 0 0 0 767,920 v 20 a 3.0003,3.0003 0 1 0 6,0 v -20 a 3.0003,3.0003 0 0 0 -3.04492,-3.04297 z m 15,0 A 3.0003,3.0003 0 0 0 782,920 v 20 a 3.0003,3.0003 0 1 0 6,0 v -20 a 3.0003,3.0003 0 0 0 -3.04492,-3.04297 z m 148.31836,54.35547 c -2.10465,-0.01 -4.38863,0.26955 -6.85547,0.88477 l -28.98047,7.22656 12.8457,44.30277 26.66797,-6.6504 c 20.95829,-5.227 21.1571,-45.6492 -3.67773,-45.7637 z m -20.50196,71.0957 -0.70507,46.0918 25.52734,0.7383 c 23.42103,0.6763 34.49983,-45.1173 1.9707,-46.0567 z m -4.39843,67.3281 -14.51758,43.9063 28.37695,6.9004 c 22.76702,5.5376 43.1364,-36.9437 11.51563,-44.6348 z m -19.98243,55.2246 -14.91601,23.9707 25.91406,32.9922 c 16.52982,-3.8083 31.37867,-24.5517 12.15235,-39.2558 z"
       id="path525" />
  </g>
  <g
     id="use71"
     transform="matrix(-0.12676923,0,0,-0.13039999,45.197374,93.191242)">
    <path
       fill="#ff0000"
       d="M 199.64844,0 355.70312,158.85547 C 484.17465,122.11158 658.57478,97.858259 815,150 L 960.45508,0 h -86.25586 l -72.25586,88.408203 -2.95898,-0.603515 C 763.77679,80.62013 729.26591,75.896485 695.65039,72.996094 L 690.62109,72.5625 697.58008,0 h -67.60352 l -0.084,70.974609 -4.99805,-0.0059 c -38.8849,-0.03567 -76.40043,2.698568 -112.47461,7.173828 L 507.77148,78.720703 492.76953,0 h -77.47851 l 32.89257,88.25 -5.82812,1.101562 C 413.49068,94.811819 385.99663,101.17094 359.80859,107.875 l -3.43554,0.88086 L 283.97852,0 Z m 96.34375,0 64.80078,97.351562 c 23.53388,-5.971783 48.18939,-11.615645 73.91601,-16.621093 L 404.61719,0 Z m 206.95703,0 12.90234,67.705078 c 33.44321,-3.997357 68.14902,-6.46984 104.05274,-6.654297 L 619.97656,0 Z m 204.67383,0 -6.0918,63.533203 c 31.42374,2.872145 63.62284,7.330913 96.45898,13.910156 L 861.2832,0 Z M 0,101.95703 V 696.48828 L 60,654.35156 V 175 Z m 434.89844,426.79688 c -6.16001,0 -12.29166,3.64996 -5.28711,10.93554 a 7.5,7.5 0 0 1 5.28711,-2.18554 7.5,7.5 0 0 1 5.28711,2.1875 c 7.0062,-7.28629 0.8732,-10.9375 -5.28711,-10.9375 z m 5.28711,10.9375 c -0.102,0.10608 -0.17948,0.20487 -0.28711,0.3125 0.10799,-0.10799 0.20802,-0.18478 0.31445,-0.28711 a 7.5,7.5 0 0 0 -0.0273,-0.0254 z m 0.0273,0.0254 a 7.5,7.5 0 0 1 2.18555,5.28711 7.5,7.5 0 0 1 -2.1875,5.28711 c 14.57223,14.01206 14.57341,-24.58368 0.002,-10.57422 z m -0.002,10.57422 c -0.10608,-0.102 -0.20487,-0.17948 -0.3125,-0.28711 0.10799,0.10799 0.18478,0.20802 0.28711,0.31445 a 7.5,7.5 0 0 0 0.0254,-0.0273 z m -0.0254,0.0273 a 7.5,7.5 0 0 1 -5.28711,2.18555 7.5,7.5 0 0 1 -5.28711,-2.1875 c -14.01206,14.57223 24.58368,14.57341 10.57422,0.002 z m -10.57422,-0.002 c 0.102,-0.10608 0.17948,-0.20487 0.28711,-0.3125 -0.10799,0.10799 -0.20803,0.18478 -0.31446,0.28711 a 7.5,7.5 0 0 0 0.0274,0.0254 z m -0.0274,-0.0254 a 7.5,7.5 0 0 1 -2.18554,-5.28711 7.5,7.5 0 0 1 2.1875,-5.28711 c -14.57223,-14.01206 -14.57342,24.58368 -0.002,10.57422 z m 0.002,-10.57422 c 0.10608,0.102 0.20487,0.17948 0.3125,0.28711 -0.10799,-0.10799 -0.18478,-0.20803 -0.28711,-0.31446 a 7.5,7.5 0 0 0 -0.0254,0.0274 z m 71.8164,-10.96289 c -6.16001,0 -12.29166,3.64996 -5.28711,10.93554 a 7.5,7.5 0 0 1 5.28711,-2.18554 7.5,7.5 0 0 1 5.28711,2.1875 c 7.0062,-7.28629 0.8732,-10.9375 -5.28711,-10.9375 z m 5.28711,10.9375 c -0.102,0.10608 -0.17948,0.20487 -0.28711,0.3125 0.10799,-0.10799 0.20803,-0.18478 0.31446,-0.28711 a 7.5,7.5 0 0 0 -0.0273,-0.0254 z m 0.0273,0.0254 a 7.5,7.5 0 0 1 2.18554,5.28711 7.5,7.5 0 0 1 -2.1875,5.28711 c 14.57223,14.01206 14.57342,-24.58368 0.002,-10.57422 z m -0.002,10.57422 c -0.10608,-0.102 -0.20487,-0.17948 -0.3125,-0.28711 0.10799,0.10799 0.18478,0.20802 0.28711,0.31445 a 7.5,7.5 0 0 0 0.0254,-0.0273 z m -0.0254,0.0273 a 7.5,7.5 0 0 1 -5.28711,2.18555 7.5,7.5 0 0 1 -5.28711,-2.1875 c -14.01206,14.57223 24.58368,14.57341 10.57422,0.002 z m -10.57422,-0.002 c 0.102,-0.10608 0.17948,-0.20487 0.28711,-0.3125 -0.10799,0.10799 -0.20802,0.18478 -0.31445,0.28711 a 7.5,7.5 0 0 0 0.0273,0.0254 z m -0.0273,-0.0254 a 7.5,7.5 0 0 1 -2.18555,-5.28711 7.5,7.5 0 0 1 2.1875,-5.28711 c -14.57223,-14.01206 -14.57341,24.58368 -0.002,10.57422 z m 0.002,-10.57422 c 0.10608,0.102 0.20487,0.17948 0.3125,0.28711 -0.10799,-0.10799 -0.18478,-0.20803 -0.28711,-0.31446 a 7.5,7.5 0 0 0 -0.0254,0.0274 z m 71.81641,-10.96289 c -6.16001,0 -12.29166,3.64996 -5.28711,10.93554 a 7.5,7.5 0 0 1 5.28711,-2.18554 7.5,7.5 0 0 1 5.28711,2.1875 c 7.0062,-7.28629 0.8732,-10.9375 -5.28711,-10.9375 z m 5.28711,10.9375 c -0.102,0.10608 -0.17948,0.20487 -0.28711,0.3125 0.10799,-0.10799 0.20802,-0.18478 0.31445,-0.28711 a 7.5,7.5 0 0 0 -0.0273,-0.0254 z m 0.0273,0.0254 a 7.5,7.5 0 0 1 2.18555,5.28711 7.5,7.5 0 0 1 -2.1875,5.28711 c 14.57223,14.01206 14.57341,-24.58368 0.002,-10.57422 z m -0.002,10.57422 c -0.10608,-0.102 -0.20487,-0.17948 -0.3125,-0.28711 0.10799,0.10799 0.18478,0.20802 0.28711,0.31445 a 7.5,7.5 0 0 0 0.0254,-0.0273 z m -0.0254,0.0273 a 7.5,7.5 0 0 1 -5.28711,2.18555 7.5,7.5 0 0 1 -5.28711,-2.1875 c -14.01206,14.57223 24.58368,14.57341 10.57422,0.002 z m -10.57422,-0.002 c 0.102,-0.10608 0.17948,-0.20487 0.28711,-0.3125 -0.10799,0.10799 -0.20802,0.18478 -0.31445,0.28711 a 7.5,7.5 0 0 0 0.0273,0.0254 z m -0.0273,-0.0254 a 7.5,7.5 0 0 1 -2.18555,-5.28711 7.5,7.5 0 0 1 2.1875,-5.28711 c -14.57223,-14.01206 -14.57341,24.58368 -0.002,10.57422 z m 0.002,-10.57422 c 0.10608,0.102 0.20487,0.17948 0.3125,0.28711 -0.10799,-0.10799 -0.18478,-0.20803 -0.28711,-0.31446 a 7.5,7.5 0 0 0 -0.0254,0.0274 z m 71.81445,-10.96289 c -6.16001,0 -12.29166,3.64996 -5.28711,10.93554 a 7.5,7.5 0 0 1 5.28711,-2.18554 7.5,7.5 0 0 1 5.28711,2.1875 c 7.0062,-7.28629 0.8732,-10.9375 -5.28711,-10.9375 z m 5.28711,10.9375 c -0.102,0.10608 -0.17948,0.20487 -0.28711,0.3125 0.10799,-0.10799 0.20803,-0.18478 0.31446,-0.28711 a 7.5,7.5 0 0 0 -0.0274,-0.0254 z m 0.0274,0.0254 a 7.5,7.5 0 0 1 2.18554,5.28711 7.5,7.5 0 0 1 -2.1875,5.28711 c 14.57223,14.01206 14.57342,-24.58368 0.002,-10.57422 z m -0.002,10.57422 c -0.10608,-0.102 -0.20487,-0.17948 -0.3125,-0.28711 0.10799,0.10799 0.18478,0.20802 0.28711,0.31445 a 7.5,7.5 0 0 0 0.0254,-0.0273 z m -0.0254,0.0273 a 7.5,7.5 0 0 1 -5.28711,2.18555 7.5,7.5 0 0 1 -5.28711,-2.1875 c -14.01206,14.57223 24.58368,14.57341 10.57422,0.002 z m -10.57422,-0.002 c 0.102,-0.10608 0.17948,-0.20487 0.28711,-0.3125 -0.10799,0.10799 -0.20802,0.18478 -0.31445,0.28711 a 7.5,7.5 0 0 0 0.0273,0.0254 z m -0.0273,-0.0254 a 7.5,7.5 0 0 1 -2.18555,-5.28711 7.5,7.5 0 0 1 2.1875,-5.28711 c -14.57223,-14.01206 -14.57341,24.58368 -0.002,10.57422 z m 0.002,-10.57422 c 0.10608,0.102 0.20487,0.17948 0.3125,0.28711 -0.10799,-0.10799 -0.18478,-0.20803 -0.28711,-0.31446 a 7.5,7.5 0 0 0 -0.0254,0.0274 z m 71.81641,-10.96289 c -6.16001,0 -12.29166,3.64996 -5.28711,10.93554 a 7.5,7.5 0 0 1 5.28711,-2.18554 7.5,7.5 0 0 1 5.28711,2.1875 c 7.0062,-7.28629 0.8732,-10.9375 -5.28711,-10.9375 z m 5.28711,10.9375 c -0.102,0.10608 -0.17948,0.20487 -0.28711,0.3125 0.10799,-0.10799 0.20802,-0.18478 0.31445,-0.28711 a 7.5,7.5 0 0 0 -0.0273,-0.0254 z m 0.0273,0.0254 a 7.5,7.5 0 0 1 2.18555,5.28711 7.5,7.5 0 0 1 -2.1875,5.28711 c 14.57223,14.01206 14.57341,-24.58368 0.002,-10.57422 z m -0.002,10.57422 c -0.10608,-0.102 -0.20487,-0.17948 -0.3125,-0.28711 0.10799,0.10799 0.18478,0.20802 0.28711,0.31445 a 7.5,7.5 0 0 0 0.0254,-0.0273 z m -0.0254,0.0273 a 7.5,7.5 0 0 1 -5.28711,2.18555 7.5,7.5 0 0 1 -5.28711,-2.1875 c -14.01206,14.57223 24.58368,14.57341 10.57422,0.002 z m -10.57422,-0.002 c 0.102,-0.10608 0.17948,-0.20487 0.28711,-0.3125 -0.10799,0.10799 -0.20802,0.18478 -0.31445,0.28711 a 7.5,7.5 0 0 0 0.0273,0.0254 z m -0.0273,-0.0254 a 7.5,7.5 0 0 1 -2.18555,-5.28711 7.5,7.5 0 0 1 2.1875,-5.28711 c -14.57223,-14.01206 -14.57341,24.58368 -0.002,10.57422 z m 0.002,-10.57422 c 0.10608,0.102 0.20487,0.17948 0.3125,0.28711 -0.10799,-0.10799 -0.18478,-0.20803 -0.28711,-0.31446 a 7.5,7.5 0 0 0 -0.0254,0.0274 z m 71.81445,-10.96289 c -6.16001,0 -12.29166,3.64996 -5.28711,10.93554 a 7.5,7.5 0 0 1 5.28711,-2.18554 7.5,7.5 0 0 1 5.28711,2.1875 c 7.0062,-7.28629 0.8732,-10.9375 -5.28711,-10.9375 z m 5.28711,10.9375 c -0.102,0.10608 -0.17948,0.20487 -0.28711,0.3125 0.10799,-0.10799 0.20803,-0.18478 0.31446,-0.28711 a 7.5,7.5 0 0 0 -0.0273,-0.0254 z m 0.0273,0.0254 a 7.5,7.5 0 0 1 2.18554,5.28711 7.5,7.5 0 0 1 -2.1875,5.28711 c 14.57223,14.01206 14.57342,-24.58368 0.002,-10.57422 z m -0.002,10.57422 c -0.10608,-0.102 -0.20487,-0.17948 -0.3125,-0.28711 0.10799,0.10799 0.18478,0.20802 0.28711,0.31445 a 7.5,7.5 0 0 0 0.0254,-0.0273 z m -0.0254,0.0273 a 7.5,7.5 0 0 1 -5.28711,2.18555 7.5,7.5 0 0 1 -5.28711,-2.1875 c -14.01206,14.57223 24.58368,14.57341 10.57422,0.002 z m -10.57422,-0.002 c 0.102,-0.10608 0.17948,-0.20487 0.28711,-0.3125 -0.10799,0.10799 -0.20802,0.18478 -0.31445,0.28711 a 7.5,7.5 0 0 0 0.0273,0.0254 z m -0.0273,-0.0254 a 7.5,7.5 0 0 1 -2.18555,-5.28711 7.5,7.5 0 0 1 2.1875,-5.28711 c -14.57223,-14.01206 -14.57341,24.58368 -0.002,10.57422 z m 0.002,-10.57422 c 0.10608,0.102 0.20487,0.17948 0.3125,0.28711 -0.10799,-0.10799 -0.18478,-0.20803 -0.28711,-0.31446 a 7.5,7.5 0 0 0 -0.0254,0.0274 z M 470,600 655,840 c 17.49896,-85.45089 45,-165 85,-240 z m 680.832,132.95898 c -0.01,0.67966 -0.01,1.35993 -0.01,2.04102 0,106.31333 63.6364,195.39872 149.1777,218.91992 v -62.3457 c -46.1093,-17.78491 -81.7451,-62.13411 -93.3594,-117.39453 z M 855.3457,851.5957 C 850.22328,851.6864 844.88281,854.14062 840,860 L 820.82227,883.01367 855.4668,913.43945 875,890 c 11.48438,-13.78125 -2.92105,-38.70057 -19.6543,-38.4043 z m 48.60742,53.82422 c -3.6587,0.0964 -7.67536,1.34387 -11.95117,4.0957 l -25.88672,16.66016 24.73243,38.89649 25.5625,-16.45118 c 16.62434,-10.69914 7.29998,-43.72176 -12.45704,-43.20117 z m -101.33593,1.625 -0.0879,11.30274 A 3.0003,3.0003 0 0 0 799.95508,916.95703 3.0003,3.0003 0 0 0 797,920 v 20 a 3.0003,3.0003 0 0 0 5.3457,1.91016 L 802,986.10156 c 42.30656,39.72244 28.55091,84.92134 15.5293,130.04884 l 36.41992,47.2891 c 18.44585,-29.3475 29.08789,-63.9237 29.08789,-100.9395 0,-63.8478 -31.66483,-120.43496 -80.41992,-155.45508 z m -302.66211,9.91211 A 3.0003,3.0003 0 0 0 497,920 v 20 a 3.0003,3.0003 0 1 0 6,0 v -20 a 3.0003,3.0003 0 0 0 -3.04492,-3.04297 z m 15,0 A 3.0003,3.0003 0 0 0 512,920 v 20 a 3.0003,3.0003 0 1 0 6,0 v -20 a 3.0003,3.0003 0 0 0 -3.04492,-3.04297 z m 15,0 A 3.0003,3.0003 0 0 0 527,920 v 20 a 3.0003,3.0003 0 1 0 6,0 v -20 a 3.0003,3.0003 0 0 0 -3.04492,-3.04297 z m 15,0 A 3.0003,3.0003 0 0 0 542,920 v 20 a 3.0003,3.0003 0 1 0 6,0 v -20 a 3.0003,3.0003 0 0 0 -3.04492,-3.04297 z m 15,0 A 3.0003,3.0003 0 0 0 557,920 v 20 a 3.0003,3.0003 0 1 0 6,0 v -20 a 3.0003,3.0003 0 0 0 -3.04492,-3.04297 z m 15,0 A 3.0003,3.0003 0 0 0 572,920 v 20 a 3.0003,3.0003 0 1 0 6,0 v -20 a 3.0003,3.0003 0 0 0 -3.04492,-3.04297 z m 15,0 A 3.0003,3.0003 0 0 0 587,920 v 20 a 3.0003,3.0003 0 1 0 6,0 v -20 a 3.0003,3.0003 0 0 0 -3.04492,-3.04297 z m 15,0 A 3.0003,3.0003 0 0 0 602,920 v 20 a 3.0003,3.0003 0 1 0 6,0 v -20 a 3.0003,3.0003 0 0 0 -3.04492,-3.04297 z m 15,0 A 3.0003,3.0003 0 0 0 617,920 v 20 a 3.0003,3.0003 0 1 0 6,0 v -20 a 3.0003,3.0003 0 0 0 -3.04492,-3.04297 z m 15,0 A 3.0003,3.0003 0 0 0 632,920 v 20 a 3.0003,3.0003 0 1 0 6,0 v -20 a 3.0003,3.0003 0 0 0 -3.04492,-3.04297 z m 15,0 A 3.0003,3.0003 0 0 0 647,920 v 20 a 3.0003,3.0003 0 1 0 6,0 v -20 a 3.0003,3.0003 0 0 0 -3.04492,-3.04297 z m 15,0 A 3.0003,3.0003 0 0 0 662,920 v 20 a 3.0003,3.0003 0 1 0 6,0 v -20 a 3.0003,3.0003 0 0 0 -3.04492,-3.04297 z m 15,0 A 3.0003,3.0003 0 0 0 677,920 v 20 a 3.0003,3.0003 0 1 0 6,0 v -20 a 3.0003,3.0003 0 0 0 -3.04492,-3.04297 z m 15,0 A 3.0003,3.0003 0 0 0 692,920 v 20 a 3.0003,3.0003 0 1 0 6,0 v -20 a 3.0003,3.0003 0 0 0 -3.04492,-3.04297 z m 15,0 A 3.0003,3.0003 0 0 0 707,920 v 20 a 3.0003,3.0003 0 1 0 6,0 v -20 a 3.0003,3.0003 0 0 0 -3.04492,-3.04297 z m 15,0 A 3.0003,3.0003 0 0 0 722,920 v 20 a 3.0003,3.0003 0 1 0 6,0 v -20 a 3.0003,3.0003 0 0 0 -3.04492,-3.04297 z m 15,0 A 3.0003,3.0003 0 0 0 737,920 v 20 a 3.0003,3.0003 0 1 0 6,0 v -20 a 3.0003,3.0003 0 0 0 -3.04492,-3.04297 z m 15,0 A 3.0003,3.0003 0 0 0 752,920 v 20 a 3.0003,3.0003 0 1 0 6,0 v -20 a 3.0003,3.0003 0 0 0 -3.04492,-3.04297 z m 15,0 A 3.0003,3.0003 0 0 0 767,920 v 20 a 3.0003,3.0003 0 1 0 6,0 v -20 a 3.0003,3.0003 0 0 0 -3.04492,-3.04297 z m 15,0 A 3.0003,3.0003 0 0 0 782,920 v 20 a 3.0003,3.0003 0 1 0 6,0 v -20 a 3.0003,3.0003 0 0 0 -3.04492,-3.04297 z m 148.31836,54.35547 c -2.10465,-0.01 -4.38863,0.26955 -6.85547,0.88477 l -28.98047,7.22656 12.8457,44.30277 26.66797,-6.6504 c 20.95829,-5.227 21.1571,-45.6492 -3.67773,-45.7637 z m -20.50196,71.0957 -0.70507,46.0918 25.52734,0.7383 c 23.42103,0.6763 34.49983,-45.1173 1.9707,-46.0567 z m -4.39843,67.3281 -14.51758,43.9063 28.37695,6.9004 c 22.76702,5.5376 43.1364,-36.9437 11.51563,-44.6348 z m -19.98243,55.2246 -14.91601,23.9707 25.91406,32.9922 c 16.52982,-3.8083 31.37867,-24.5517 12.15235,-39.2558 z"
       id="path529" />
  </g>
  <g
     id="use73"
     transform="matrix(0.12676923,0,0,0.13039999,-119.60263,-167.60875)">
    <path
       fill="#4444ff"
       d="m 1011.2375,1309.3487 -48.70288,-63.3379 C 998.86267,1193.6214 1020,1130.4838 1020,1062.5 1020,987.1903 994.06177,917.82763 950.38033,862.18014 971.47043,806.53937 997.82593,754.00937 1031.0655,704.16801 1030.3772,714.25089 1030,724.5744 1030,735 c 0,123.54039 52.9686,232.74556 134.4214,299.0404 -37.0258,100.8237 -93.2943,198.0296 -153.1839,275.3083 z M 748,366 c 20.00463,-2.5693 42.80076,-23.89729 48,-29 4.09299,-4.017 14.92184,4.33969 14,10 -19.78153,10.29837 -48.04318,21.62838 -62,19 M 687,224 c 2.04677,3.4714 65.66773,-38.84566 77,-43 13.90454,-5.09732 26.59367,6.69159 26,6 l 2,11 c 0,0 -16.40931,-11.86356 -25,-9 -9,3 -78.94364,40.1459 -80,35 z m 100.99997,9.5 a 8.4999998,15.5 0 0 1 -8.5,15.5 8.4999998,15.5 0 0 1 -8.5,-15.5 8.4999998,15.5 0 0 1 8.5,-15.5 8.4999998,15.5 0 0 1 8.5,15.5 z"
       id="path533" />
  </g>
  <g
     id="use75"
     transform="matrix(-0.12676923,0,0,-0.13039999,45.197374,93.191242)">
    <path
       fill="#4444ff"
       d="m 1011.2375,1309.3487 -48.70288,-63.3379 C 998.86267,1193.6214 1020,1130.4838 1020,1062.5 1020,987.1903 994.06177,917.82763 950.38033,862.18014 971.47043,806.53937 997.82593,754.00937 1031.0655,704.16801 1030.3772,714.25089 1030,724.5744 1030,735 c 0,123.54039 52.9686,232.74556 134.4214,299.0404 -37.0258,100.8237 -93.2943,198.0296 -153.1839,275.3083 z M 748,366 c 20.00463,-2.5693 42.80076,-23.89729 48,-29 4.09299,-4.017 14.92184,4.33969 14,10 -19.78153,10.29837 -48.04318,21.62838 -62,19 M 687,224 c 2.04677,3.4714 65.66773,-38.84566 77,-43 13.90454,-5.09732 26.59367,6.69159 26,6 l 2,11 c 0,0 -16.40931,-11.86356 -25,-9 -9,3 -78.94364,40.1459 -80,35 z m 100.99997,9.5 a 8.4999998,15.5 0 0 1 -8.5,15.5 8.4999998,15.5 0 0 1 -8.5,-15.5 8.4999998,15.5 0 0 1 8.5,-15.5 8.4999998,15.5 0 0 1 8.5,15.5 z"
       id="path537" />
  </g>
  <g
     id="use77"
     transform="matrix(0.12676923,0,0,0.13039999,-119.60263,-167.60875)">
    <path
       fill="#000000"
       d="M 632.88086,93.753906 C 522.32033,93.230847 421.89438,114.26582 335.61914,138.32227 l 20.08398,20.5332 C 484.17465,122.11158 658.57478,97.858259 815,150 l 26.9668,-28.01758 C 769.20092,102.14267 699.21718,94.067742 632.88086,93.753906 Z m -366.95703,418.851564 -3.6836,2.35547 -6.79882,22.09765 11.08007,12.82422 48.81446,-7.50976 -14.82227,44.46484 10.31641,13.12695 46.3457,-3.86132 -11.91992,51.64843 11.38867,12.11133 45.49805,-7.58203 -11.91992,55.62305 11.42187,11.95898 44.03906,-7.33984 -15.24218,49.53515 11.08007,12.82422 49.22657,-7.57422 -15.30664,49.75 L 485,830 h 50.72266 L 520.60156,871.58203 530,885 h 49.4707 l -7.8164,17.19531 21.77734,0.41992 10.67188,-23.47656 L 595,865 H 544.27734 L 559.39844,823.41797 550,810 h -51.45898 l 16.01757,-52.05859 -11.08007,-12.82422 -49.22657,7.57422 15.30664,-49.75 -11.20312,-12.80469 -45.49805,7.58203 11.91992,-55.62305 -11.42187,-11.95898 -45.25,7.54101 11.63867,-50.42968 -10.57422,-12.21289 -44.88867,3.74023 15.20508,-45.61328 -11.00781,-13.04492 -49.22657,7.57422 3.76953,-12.25 z m 627.30078,30.62695 -44.74609,6.88477 -8.22266,12.13086 12.75195,55.25586 -55.25586,12.75195 -6.98242,13.58984 21.1543,50.76953 -50.76953,21.1543 -5.38477,13.07617 21.67578,52.02539 -42.58984,25.55469 -3.59766,13.42969 20.89649,37.61523 -43.40039,34.72071 c -3.1114,2.39843 -4.41618,6.26064 -3.70703,9.86132 l 22.80273,0.47266 43.39648,-34.7168 2.4961,-12.66406 -20.30274,-36.54687 41.70508,-25.02344 4.08594,-12.41992 -21.1543,-50.76953 50.76953,-21.1543 5.38477,-13.07617 -20.44727,-49.07227 53.46485,-12.33789 7.49609,-11.99219 -12.57812,-54.50586 52.48437,-8.07617 z M 350,550 a 7.5,7.5 0 0 0 -7.5,7.5 7.5,7.5 0 0 0 7.5,7.5 7.5,7.5 0 0 0 7.5,-7.5 7.5,7.5 0 0 0 -7.5,-7.5 z m -62.5,7.5 a 7.5,7.5 0 0 0 -7.5,7.5 7.5,7.5 0 0 0 7.5,7.5 7.5,7.5 0 0 0 7.5,-7.5 7.5,7.5 0 0 0 -7.5,-7.5 z m 605,20 a 7.5,7.5 0 0 0 -7.5,7.5 7.5,7.5 0 0 0 7.5,7.5 7.5,7.5 0 0 0 7.5,-7.5 7.5,7.5 0 0 0 -7.5,-7.5 z M 440,585 660,870 C 684.37858,769.03229 716.85829,670.13127 765,585 Z m 387.5,7.5 a 7.5,7.5 0 0 0 -7.5,7.5 7.5,7.5 0 0 0 7.5,7.5 7.5,7.5 0 0 0 7.5,-7.5 7.5,7.5 0 0 0 -7.5,-7.5 z M 470,600 h 270 c -40,75 -67.50104,154.54911 -85,240 z m -137.5,7.5 a 7.5,7.5 0 0 0 -7.5,7.5 7.5,7.5 0 0 0 7.5,7.5 7.5,7.5 0 0 0 7.5,-7.5 7.5,7.5 0 0 0 -7.5,-7.5 z m 60,0 a 7.5,7.5 0 0 0 -7.5,7.5 7.5,7.5 0 0 0 7.5,7.5 7.5,7.5 0 0 0 7.5,-7.5 7.5,7.5 0 0 0 -7.5,-7.5 z m 646.0098,43.64453 C 986.59951,719.5142 949.09448,793.76486 921.19922,873.48633 964.09618,924.86002 990,990.71027 990,1062.5 c 0,71.6564 -25.80649,137.3957 -68.66602,188.7656 l 80.89842,104.3867 c 70.3681,-78.0894 140.1574,-188.1254 185.9356,-304.125 -8.0489,-5.3952 -15.8824,-11.065 -23.4278,-17.2265 -37.3456,100.5639 -93.6123,197.7701 -153.5019,275.0488 l -48.70314,-63.3379 C 998.86321,1193.6223 1020,1130.4838 1020,1062.5 c 0,-4.8592 -0.1124,-9.6924 -0.3262,-14.5 H 1050 a 3.0003,3.0003 0 1 0 0,-6 h -30.6504 c -0.5096,-8.0838 -1.3301,-16.0845 -2.4277,-24 H 1062.5 a 3.0003,3.0003 0 1 0 0,-6 h -46.4648 c -1.2796,-8.0997 -2.8527,-16.10559 -4.7266,-24 H 1065 a 3.0003,3.0003 0 1 0 0,-6 h -55.1816 c -1.8291,-7.09289 -3.8888,-14.09687 -6.1817,-21 H 1080 a 6.0006,6.0006 0 0 0 4.3965,-1.83398 c -2.1617,-3.34316 -4.2641,-6.73858 -6.3301,-10.16602 h -78.67968 c -2.29271,-6.0859 -4.76933,-12.08684 -7.41406,-18 H 1065 a 6.0006,6.0006 0 0 0 2.5684,-0.54492 c -2,-3.77475 -3.9402,-7.59447 -5.8262,-11.45508 h -75.43556 c -3.03586,-6.10523 -6.25428,-12.10927 -9.6582,-18 h 76.84766 c -1.6961,-3.96114 -3.3312,-7.96196 -4.9082,-12 h -79.21876 c -3.90463,-6.13736 -8.01894,-12.13545 -12.31641,-18 h 84.97847 c -1.3369,-3.96504 -2.6,-7.97156 -3.8222,-12 h -86.59962 c 2.31428,-6.03484 4.67959,-12.03815 7.12109,-18 h 74.45313 c -1.0126,-3.97378 -1.9725,-7.97337 -2.8731,-12 h -66.54683 c 2.58201,-6.0357 5.22352,-12.03903 7.94531,-18 h 54.99222 c -0.7097,-3.97808 -1.3673,-7.97784 -1.9668,-12 h -47.41604 c 2.87844,-6.03674 5.82351,-12.03979 8.85547,-18 h 36.26167 c -0.4222,-3.98163 -0.7903,-7.98169 -1.1035,-12 h -28.90427 c 11.72897,-22.08559 24.55627,-43.65045 38.62887,-64.70312 1.34,-18.05589 3.7721,-35.74585 7.4532,-53.15235 z M 842.5,652.5 a 7.5,7.5 0 0 0 -7.5,7.5 7.5,7.5 0 0 0 7.5,7.5 7.5,7.5 0 0 0 7.5,-7.5 7.5,7.5 0 0 0 -7.5,-7.5 z m -465,15 a 7.5,7.5 0 0 0 -7.5,7.5 7.5,7.5 0 0 0 7.5,7.5 7.5,7.5 0 0 0 7.5,-7.5 7.5,7.5 0 0 0 -7.5,-7.5 z m 60,0 a 7.5,7.5 0 0 0 -7.5,7.5 7.5,7.5 0 0 0 7.5,7.5 7.5,7.5 0 0 0 7.5,-7.5 7.5,7.5 0 0 0 -7.5,-7.5 z m 345,10 a 7.5,7.5 0 0 0 -7.5,7.5 7.5,7.5 0 0 0 7.5,7.5 7.5,7.5 0 0 0 7.5,-7.5 7.5,7.5 0 0 0 -7.5,-7.5 z m -300,45 a 7.5,7.5 0 0 0 -7.5,7.5 7.5,7.5 0 0 0 7.5,7.5 7.5,7.5 0 0 0 7.5,-7.5 7.5,7.5 0 0 0 -7.5,-7.5 z m -65,5 a 7.5,7.5 0 0 0 -7.5,7.5 7.5,7.5 0 0 0 7.5,7.5 7.5,7.5 0 0 0 7.5,-7.5 7.5,7.5 0 0 0 -7.5,-7.5 z M 805,735 a 7.5,7.5 0 0 0 -7.5,7.5 7.5,7.5 0 0 0 7.5,7.5 7.5,7.5 0 0 0 7.5,-7.5 7.5,7.5 0 0 0 -7.5,-7.5 z m -55,30 a 7.5,7.5 0 0 0 -7.5,7.5 7.5,7.5 0 0 0 7.5,7.5 7.5,7.5 0 0 0 7.5,-7.5 7.5,7.5 0 0 0 -7.5,-7.5 z m 456.8242,9.25586 c 11.4441,55.1896 47.0675,99.5319 93.1758,117.31641 V 842.6582 c -31.005,-22.77868 -62.0072,-45.55561 -93.1758,-68.40234 z M 462.5,782.5 a 7.5,7.5 0 0 0 -7.5,7.5 7.5,7.5 0 0 0 7.5,7.5 7.5,7.5 0 0 0 7.5,-7.5 7.5,7.5 0 0 0 -7.5,-7.5 z m 65,0 a 7.5,7.5 0 0 0 -7.5,7.5 7.5,7.5 0 0 0 7.5,7.5 7.5,7.5 0 0 0 7.5,-7.5 7.5,7.5 0 0 0 -7.5,-7.5 z m 250,35 a 7.5,7.5 0 0 0 -7.5,7.5 7.5,7.5 0 0 0 7.5,7.5 7.5,7.5 0 0 0 7.5,-7.5 7.5,7.5 0 0 0 -7.5,-7.5 z m -270,25 a 7.5,7.5 0 0 0 -7.5,7.5 7.5,7.5 0 0 0 7.5,7.5 7.5,7.5 0 0 0 7.5,-7.5 7.5,7.5 0 0 0 -7.5,-7.5 z m 65,0 a 7.5,7.5 0 0 0 -7.5,7.5 7.5,7.5 0 0 0 7.5,7.5 7.5,7.5 0 0 0 7.5,-7.5 7.5,7.5 0 0 0 -7.5,-7.5 z M 725,845 a 7.5,7.5 0 0 0 -7.5,7.5 7.5,7.5 0 0 0 7.5,7.5 7.5,7.5 0 0 0 7.5,-7.5 7.5,7.5 0 0 0 -7.5,-7.5 z"
       id="path541" />
  </g>
  <g
     id="use79"
     transform="matrix(-0.12676923,0,0,-0.13039999,45.197374,93.191242)">
    <path
       fill="#000000"
       d="M 632.88086,93.753906 C 522.32033,93.230847 421.89438,114.26582 335.61914,138.32227 l 20.08398,20.5332 C 484.17465,122.11158 658.57478,97.858259 815,150 l 26.9668,-28.01758 C 769.20092,102.14267 699.21718,94.067742 632.88086,93.753906 Z m -366.95703,418.851564 -3.6836,2.35547 -6.79882,22.09765 11.08007,12.82422 48.81446,-7.50976 -14.82227,44.46484 10.31641,13.12695 46.3457,-3.86132 -11.91992,51.64843 11.38867,12.11133 45.49805,-7.58203 -11.91992,55.62305 11.42187,11.95898 44.03906,-7.33984 -15.24218,49.53515 11.08007,12.82422 49.22657,-7.57422 -15.30664,49.75 L 485,830 h 50.72266 L 520.60156,871.58203 530,885 h 49.4707 l -7.8164,17.19531 21.77734,0.41992 10.67188,-23.47656 L 595,865 H 544.27734 L 559.39844,823.41797 550,810 h -51.45898 l 16.01757,-52.05859 -11.08007,-12.82422 -49.22657,7.57422 15.30664,-49.75 -11.20312,-12.80469 -45.49805,7.58203 11.91992,-55.62305 -11.42187,-11.95898 -45.25,7.54101 11.63867,-50.42968 -10.57422,-12.21289 -44.88867,3.74023 15.20508,-45.61328 -11.00781,-13.04492 -49.22657,7.57422 3.76953,-12.25 z m 627.30078,30.62695 -44.74609,6.88477 -8.22266,12.13086 12.75195,55.25586 -55.25586,12.75195 -6.98242,13.58984 21.1543,50.76953 -50.76953,21.1543 -5.38477,13.07617 21.67578,52.02539 -42.58984,25.55469 -3.59766,13.42969 20.89649,37.61523 -43.40039,34.72071 c -3.1114,2.39843 -4.41618,6.26064 -3.70703,9.86132 l 22.80273,0.47266 43.39648,-34.7168 2.4961,-12.66406 -20.30274,-36.54687 41.70508,-25.02344 4.08594,-12.41992 -21.1543,-50.76953 50.76953,-21.1543 5.38477,-13.07617 -20.44727,-49.07227 53.46485,-12.33789 7.49609,-11.99219 -12.57812,-54.50586 52.48437,-8.07617 z M 350,550 a 7.5,7.5 0 0 0 -7.5,7.5 7.5,7.5 0 0 0 7.5,7.5 7.5,7.5 0 0 0 7.5,-7.5 7.5,7.5 0 0 0 -7.5,-7.5 z m -62.5,7.5 a 7.5,7.5 0 0 0 -7.5,7.5 7.5,7.5 0 0 0 7.5,7.5 7.5,7.5 0 0 0 7.5,-7.5 7.5,7.5 0 0 0 -7.5,-7.5 z m 605,20 a 7.5,7.5 0 0 0 -7.5,7.5 7.5,7.5 0 0 0 7.5,7.5 7.5,7.5 0 0 0 7.5,-7.5 7.5,7.5 0 0 0 -7.5,-7.5 z M 440,585 660,870 C 684.37858,769.03229 716.85829,670.13127 765,585 Z m 387.5,7.5 a 7.5,7.5 0 0 0 -7.5,7.5 7.5,7.5 0 0 0 7.5,7.5 7.5,7.5 0 0 0 7.5,-7.5 7.5,7.5 0 0 0 -7.5,-7.5 z M 470,600 h 270 c -40,75 -67.50104,154.54911 -85,240 z m -137.5,7.5 a 7.5,7.5 0 0 0 -7.5,7.5 7.5,7.5 0 0 0 7.5,7.5 7.5,7.5 0 0 0 7.5,-7.5 7.5,7.5 0 0 0 -7.5,-7.5 z m 60,0 a 7.5,7.5 0 0 0 -7.5,7.5 7.5,7.5 0 0 0 7.5,7.5 7.5,7.5 0 0 0 7.5,-7.5 7.5,7.5 0 0 0 -7.5,-7.5 z m 646.0098,43.64453 C 986.59951,719.5142 949.09448,793.76486 921.19922,873.48633 964.09618,924.86002 990,990.71027 990,1062.5 c 0,71.6564 -25.80649,137.3957 -68.66602,188.7656 l 80.89842,104.3867 c 70.3681,-78.0894 140.1574,-188.1254 185.9356,-304.125 -8.0489,-5.3952 -15.8824,-11.065 -23.4278,-17.2265 -37.3456,100.5639 -93.6123,197.7701 -153.5019,275.0488 l -48.70314,-63.3379 C 998.86321,1193.6223 1020,1130.4838 1020,1062.5 c 0,-4.8592 -0.1124,-9.6924 -0.3262,-14.5 H 1050 a 3.0003,3.0003 0 1 0 0,-6 h -30.6504 c -0.5096,-8.0838 -1.3301,-16.0845 -2.4277,-24 H 1062.5 a 3.0003,3.0003 0 1 0 0,-6 h -46.4648 c -1.2796,-8.0997 -2.8527,-16.10559 -4.7266,-24 H 1065 a 3.0003,3.0003 0 1 0 0,-6 h -55.1816 c -1.8291,-7.09289 -3.8888,-14.09687 -6.1817,-21 H 1080 a 6.0006,6.0006 0 0 0 4.3965,-1.83398 c -2.1617,-3.34316 -4.2641,-6.73858 -6.3301,-10.16602 h -78.67968 c -2.29271,-6.0859 -4.76933,-12.08684 -7.41406,-18 H 1065 a 6.0006,6.0006 0 0 0 2.5684,-0.54492 c -2,-3.77475 -3.9402,-7.59447 -5.8262,-11.45508 h -75.43556 c -3.03586,-6.10523 -6.25428,-12.10927 -9.6582,-18 h 76.84766 c -1.6961,-3.96114 -3.3312,-7.96196 -4.9082,-12 h -79.21876 c -3.90463,-6.13736 -8.01894,-12.13545 -12.31641,-18 h 84.97847 c -1.3369,-3.96504 -2.6,-7.97156 -3.8222,-12 h -86.59962 c 2.31428,-6.03484 4.67959,-12.03815 7.12109,-18 h 74.45313 c -1.0126,-3.97378 -1.9725,-7.97337 -2.8731,-12 h -66.54683 c 2.58201,-6.0357 5.22352,-12.03903 7.94531,-18 h 54.99222 c -0.7097,-3.97808 -1.3673,-7.97784 -1.9668,-12 h -47.41604 c 2.87844,-6.03674 5.82351,-12.03979 8.85547,-18 h 36.26167 c -0.4222,-3.98163 -0.7903,-7.98169 -1.1035,-12 h -28.90427 c 11.72897,-22.08559 24.55627,-43.65045 38.62887,-64.70312 1.34,-18.05589 3.7721,-35.74585 7.4532,-53.15235 z M 842.5,652.5 a 7.5,7.5 0 0 0 -7.5,7.5 7.5,7.5 0 0 0 7.5,7.5 7.5,7.5 0 0 0 7.5,-7.5 7.5,7.5 0 0 0 -7.5,-7.5 z m -465,15 a 7.5,7.5 0 0 0 -7.5,7.5 7.5,7.5 0 0 0 7.5,7.5 7.5,7.5 0 0 0 7.5,-7.5 7.5,7.5 0 0 0 -7.5,-7.5 z m 60,0 a 7.5,7.5 0 0 0 -7.5,7.5 7.5,7.5 0 0 0 7.5,7.5 7.5,7.5 0 0 0 7.5,-7.5 7.5,7.5 0 0 0 -7.5,-7.5 z m 345,10 a 7.5,7.5 0 0 0 -7.5,7.5 7.5,7.5 0 0 0 7.5,7.5 7.5,7.5 0 0 0 7.5,-7.5 7.5,7.5 0 0 0 -7.5,-7.5 z m -300,45 a 7.5,7.5 0 0 0 -7.5,7.5 7.5,7.5 0 0 0 7.5,7.5 7.5,7.5 0 0 0 7.5,-7.5 7.5,7.5 0 0 0 -7.5,-7.5 z m -65,5 a 7.5,7.5 0 0 0 -7.5,7.5 7.5,7.5 0 0 0 7.5,7.5 7.5,7.5 0 0 0 7.5,-7.5 7.5,7.5 0 0 0 -7.5,-7.5 z M 805,735 a 7.5,7.5 0 0 0 -7.5,7.5 7.5,7.5 0 0 0 7.5,7.5 7.5,7.5 0 0 0 7.5,-7.5 7.5,7.5 0 0 0 -7.5,-7.5 z m -55,30 a 7.5,7.5 0 0 0 -7.5,7.5 7.5,7.5 0 0 0 7.5,7.5 7.5,7.5 0 0 0 7.5,-7.5 7.5,7.5 0 0 0 -7.5,-7.5 z m 456.8242,9.25586 c 11.4441,55.1896 47.0675,99.5319 93.1758,117.31641 V 842.6582 c -31.005,-22.77868 -62.0072,-45.55561 -93.1758,-68.40234 z M 462.5,782.5 a 7.5,7.5 0 0 0 -7.5,7.5 7.5,7.5 0 0 0 7.5,7.5 7.5,7.5 0 0 0 7.5,-7.5 7.5,7.5 0 0 0 -7.5,-7.5 z m 65,0 a 7.5,7.5 0 0 0 -7.5,7.5 7.5,7.5 0 0 0 7.5,7.5 7.5,7.5 0 0 0 7.5,-7.5 7.5,7.5 0 0 0 -7.5,-7.5 z m 250,35 a 7.5,7.5 0 0 0 -7.5,7.5 7.5,7.5 0 0 0 7.5,7.5 7.5,7.5 0 0 0 7.5,-7.5 7.5,7.5 0 0 0 -7.5,-7.5 z m -270,25 a 7.5,7.5 0 0 0 -7.5,7.5 7.5,7.5 0 0 0 7.5,7.5 7.5,7.5 0 0 0 7.5,-7.5 7.5,7.5 0 0 0 -7.5,-7.5 z m 65,0 a 7.5,7.5 0 0 0 -7.5,7.5 7.5,7.5 0 0 0 7.5,7.5 7.5,7.5 0 0 0 7.5,-7.5 7.5,7.5 0 0 0 -7.5,-7.5 z M 725,845 a 7.5,7.5 0 0 0 -7.5,7.5 7.5,7.5 0 0 0 7.5,7.5 7.5,7.5 0 0 0 7.5,-7.5 7.5,7.5 0 0 0 -7.5,-7.5 z"
       id="path545" />
  </g>
  <g
     id="use81"
     transform="matrix(0.12676923,0,0,0.13039999,-119.60263,-167.60875)">
    <path
       stroke="#4444ff"
       stroke-linecap="round"
       stroke-linejoin="round"
       stroke-width="6"
       fill="none"
       d="m 497.5,1097.5 v -195 h 305 M 497.53695,920 h 304.5977 M 497.7422,940 H 802.54516 M 497.5,902.5 220.25073,544.1046 M 527.5,902.5 239.8832,530.70267 M 637.5,902.5 332.0425,507.6403 M 667.5,902.5 360,505 m 483.54523,2.42138 C 742.26363,619.63396 702.25643,759.86643 667.5,902.5 M 861.60228,521.11429 C 769.04953,630.9337 730.8566,765.61106 697.5,902.5 M 927.76658,569.28185 C 849.2527,668.40463 802.42708,779.68513 772.5,902.5 M 947.11176,583.06392 C 874.97254,678.68619 831.04785,785.34524 802.5,902.5 M 1019.4464,637.16898 C 967.03454,702.84525 928.62898,773.87944 899.9052,850.0893 M 1038.7061,650.95849 C 986.60024,719.51428 949.09489,793.76442 921.43496,873.50848 M 832.60383,801.55437 C 926.4139,852.12415 990,950.02267 990,1062.5 c 0,71.6564 -25.80726,137.3957 -68.7955,188.7501 M 809.46486,875.27936 c 62.6448,39.58869 104.13315,108.64851 104.13315,187.22064 0,47.0778 -14.89435,90.7407 -40.30962,126.6955 M 802.61707,907.04434 c 48.75509,35.02012 80.42015,91.60786 80.42015,155.45566 0,37.0158 -10.64298,71.5914 -29.08883,100.9389 M 410.44704,570 H 795.05972 M 371.6955,520 H 831.34393 M 380,490 h 440 l 479.9997,352.65281 M 266.06519,512.71366 -6.0121561e-5,696.20694 M 235.47171,563.81223 -1.1326293e-4,726.20659 M 950.47664,862.55118 C 994.06177,917.82763 1020,987.1903 1020,1062.5 c 0,67.9838 -21.13733,131.1214 -57.31256,183.4252 M 1299.9766,1096.2998 C 1147.3348,1070.9868 1030,918.87092 1030,735 c 0,-28.78989 2.8766,-56.80127 8.3149,-83.66927 m 261.6826,333.33302 C 1200.0407,960.59622 1124.9315,857.96173 1124.9315,735 c 0,-6.74019 0.2257,-13.4193 0.6688,-20.02774 m 174.3318,238.93631 C 1214.4234,930.36018 1150.8219,841.28651 1150.8219,735 c 0,-0.68109 0,-1.36148 0.01,-2.04114 m 149.1538,158.6271 c -46.1051,-17.78701 -81.7307,-62.14932 -93.3443,-117.40631 m 5.5435,292.24075 c -49.3918,119.2526 -123.4237,231.1324 -195.8398,307.0334 m 171.7969,-321.7576 c -45.7522,115.8302 -115.5424,225.8669 -185.6451,304.2612 m 162.32,-321.6632 c -37.4213,100.5699 -93.6898,197.7758 -153.4812,274.922 m -48.95389,-63.1199 48.75749,63.3848 m 19.8749,-605.19187 c -33.18827,49.72014 -59.54377,102.25014 -80.73019,157.51986 M 422.63854,585 h 362.2616 m 515.08236,492.8418 C 1156.5101,1058.6748 1045,914.19428 1045,738.80502 c 0,-26.88135 2.6195,-53.03664 7.572,-78.12596 m 6.8268,80.43034 c 0,-0.7675 -0.01,-1.53563 -0.01,-2.30438 0,-23.56378 2.1189,-46.54024 6.1428,-68.67569 m 12.3795,186.23452 c -8.1994,-24.99069 -13.8614,-51.48648 -16.6107,-79.04168 m 79.0175,191.77041 c -20.1073,-23.63481 -37.1356,-50.95235 -50.3073,-81.02974 m 151.4734,156.42286 c -31.0325,-13.0137 -59.4912,-32.4944 -84.2264,-57.07775 m 142.7031,73.23545 c -8.0784,-1.1381 -16.0486,-2.6948 -23.8949,-4.6511 M 1076.5153,718.27127 c 0.705,-12.56452 2.0523,-24.92048 4.0032,-37.02207 m 13.1913,169.11775 c -8.1545,-24.56307 -13.6959,-50.68734 -16.2177,-77.89045 m 72.5409,180.36885 c -17.5756,-21.10073 -32.5713,-45.23454 -44.3795,-71.68049 m 147.018,147.08804 c -28.5847,-11.0962 -54.9586,-27.9901 -78.1352,-49.51054 m -81.2768,-262.91232 c 0.5275,-7.84278 1.3227,-15.59602 2.3747,-23.24684 m 7.2641,129.45079 c -2.8744,-11.18221 -5.1848,-22.65642 -6.8916,-34.37593 m 54.8142,137.28132 c -7.8627,-10.79917 -15.0532,-22.30675 -21.4945,-34.43117 m 112.1263,111.92279 c -13.8083,-6.72368 -26.9716,-14.93093 -39.3489,-24.45461 m -92.9822,-246.44113 c 0.2141,-9.44092 0.844,-18.75874 1.8687,-27.92864 m -1.92,30.73557 c 0.013,-0.93684 0.03,-1.87249 0.051,-2.80693 m 0.2427,21.68982 c -0.2155,-4.77424 -0.3247,-9.58202 -0.3247,-14.42006 0,-1.49051 0.01,-2.97816 0.031,-4.46283 m 11.7713,89.73317 c -3.907,-13.6632 -6.9011,-27.82669 -8.8959,-42.38814 m 19.0783,71.96548 c -1.0209,-2.51801 -2.0094,-5.05809 -2.9647,-7.61949 m 38.8517,70.84874 c -8.7223,-11.4161 -16.6179,-23.73811 -23.5748,-36.83294 m 46.5421,62.92232 c -1.163,-1.14547 -2.316,-2.30466 -3.4589,-3.47737 m 113.5558,61.71774 c -32.0129,-5.53997 -61.8239,-19.13493 -87.9255,-38.99596 M 1125.046,852.42232 c 24.7576,-39.98864 -53.6064,-42.7593 -29.0623,-2.32039 -45.2497,0.95904 -12.4313,62.74216 13.3385,26.87164 16.5889,40.72513 65.9206,-19.52725 15.7238,-24.55125 v 0 m -23.8893,-102.82929 c 32.7223,-33.7828 -43.2444,-53.21583 -27.8973,-8.47005 -44.4117,-8.72127 -25.5367,58.64294 7.2955,29.0994 7.5142,43.32743 68.5695,-5.00699 20.6018,-20.62935 v 0 m 84.7568,193.64042 c 11.9934,-45.4773 -63.7606,-25.23078 -28.4721,6.27226 -42.995,14.13824 6.4431,63.63649 20.6078,21.80186 27.764,34.10103 57.3386,-37.9358 7.8643,-28.07412 v 0 m 114.2211,66.83545 c -5.0274,-2.3059 -12.2681,-1.873 -21.9391,3.4253 -2.1906,-46.98115 -68.3917,-4.9574 -25.2826,14.5187 -36.7797,26.3764 25.2227,58.7787 26.1955,14.6218 8.8116,5.8113 15.8896,5.7573 20.9466,2.654 m -497.70951,-4.0044 C 814.63704,1035.196 839.54293,1023.4286 855,1020 c 31.90193,-7.0763 33.67529,38.5554 5,40 -14.79504,0.7454 -43.33343,3.1297 -57.13915,4.3161 m -0.6023,-11.1307 L 835,1045 m -31.99829,-27.7728 c 8.41639,-9.3606 23.833,-25.79263 34.75877,-33.27917 C 861.51045,967.67407 877.96428,1004.3905 855,1015 c -15.99648,7.3905 -51.48716,25.4599 -51.48716,25.4599 m -0.87149,-9.9265 26.99137,-19.5741 m -26.83191,-42.38704 c 3.87242,-6.98034 7.98425,-13.66987 11.74319,-18.33954 18.05323,-22.4273 44.38909,7.99058 25.456,24.76728 -9.83206,8.71234 -28.32887,26.2301 -37.10666,34.5821 m -0.33121,-15.4146 11.98221,-15.72717 m -11.86379,-62.20215 c 12.41066,0.87889 23.55886,16.50494 13.28335,30.12997 -3.49586,4.63547 -8.30966,11.29224 -13.19342,18.13512 m 0.43739,103.30083 c 13.22136,-1.6585 41.62409,-4.7271 57.74749,-2.8041 32.44737,3.8698 19.03328,47.5214 -8.50686,39.4035 -12.40462,-3.6565 -35.10706,-9.5972 -49.6034,-13.3393 m 0.27143,-11.9154 30.69768,2.8324 m -30.98953,9.4503 c 13.12209,3.4126 40.07008,10.9394 54.14009,18.5685 25.82865,14.0049 5.32659,44.2101 -15.49798,37.2863 m -30.26798,-38.7784 14.27286,7.2529 M 820.8225,883.013 840,860 c 20.83333,-25 50,12 35,30 l -19.53316,23.43979 m 10.64791,12.73589 25.88781,-16.66095 c 27.36518,-17.61176 44.10978,26.42587 24.40685,39.10634 l -25.56123,16.45076 m 6.5891,14.35262 28.98058,-7.22761 c 31.57555,-7.87478 33.26702,39.20846 10.53261,44.87836 l -26.66754,6.6507 m 2.48916,18.6823 26.79187,0.7737 c 32.52913,0.9394 21.45053,46.7319 -1.9705,46.0556 l -25.52652,-0.7372 m -3.69468,21.2352 25.37541,6.1722 c 31.62077,7.6911 11.25123,50.1737 -11.51579,44.6361 l -28.3756,-6.9018 m -5.46625,11.3192 23.15134,17.7061 c 19.22632,14.7041 4.37666,35.4488 -12.15316,39.2571 M 830.62097,805.88837 c 8.31077,11.1943 11.71243,25.64414 4.93257,37.82254 33.97969,-40.77564 81.55128,19.57231 57.0859,48.93077 44.63332,-28.72524 71.9442,43.10127 39.80821,63.78344 51.50053,-12.84397 54.25937,63.94998 17.17898,73.19768 53.05587,1.5321 34.98636,76.221 -3.21387,75.1178 51.5743,12.5445 18.35102,81.8348 -18.78247,72.8027 29.40202,22.4864 9.94438,53.6341 -14.82051,62.5533 M -4.1946769e-5,27.173862 105,155 V 623.15271 M -2.8273735e-4,101.95617 60,175 V 654.3514 M 105.54275,220.90029 C 171.88778,160.99512 153.13361,122.45876 150,80 301.15308,208.77386 259.82851,334.77263 165,460 164.26867,400.69123 156.82035,347.16077 104.53351,332.20266 M 153.06712,103.9937 C 175.41109,132.99927 200.60008,160.30087 155,230 c 20.18754,7.86847 40.47761,13.66024 60,35 -15.8987,24.34828 -37.56531,33.20556 -60,40 17.25032,36.86946 52.18325,61.33171 9.93938,139.94598 M 1086.0394,685.5545 c 1.7233,-14.74679 5.1887,-42.09582 8.9606,-45.5545 5.2413,-4.80604 44.3306,-54.33061 50,-60 5,-5 35,-10 40,-10 5,0 26.7295,9.53056 30,25 9.5798,45.31219 -10.2427,75.36551 -35,10 -10,10 -15,10 -30,10 42.7191,33.89473 28.8882,60.20895 -15,80 m 54.8315,-125.17045 c 3.7063,-4.79594 8.7183,-9.81274 15.1685,-14.82955 30.7488,-23.91573 77.0146,-7.61148 30,30 -6.8761,5.50082 -13.2793,9.58326 -19.0927,12.44235 m 15.0595,-9.20716 c 37.4032,-11.4695 66.8088,9.20148 8.4314,42.19727 -55.5965,31.42397 -78.104,13.09477 -54.4123,-13.08287 m 53.1069,13.57077 c 34.2811,-2.65327 54.6718,18.51589 -2.5656,38.27169 -59.9763,20.70116 -76.9537,-1.87148 -43.8532,-22.36324 m 45.8218,21.75194 c 34.1493,-2.05232 55.8945,22.6568 0.3302,36.41925 -57.1622,14.15822 -68.359,-12.30845 -31.5144,-28.41069 m -28.4894,76.72141 c 22.2723,-6.8921 50.5575,-31.93645 53.3065,-46.62429 M 1168.572,672.59595 C 1173.4508,691.9311 1152.688,716.34327 1150,715 M 1015,465 c -5,40 35,55 75,25 53.8145,-40.36087 157.0904,-42.07476 105,65 -10,-35 -72.8037,-22.12621 -115,5 -70,45 -135,-65 -65,-95 v 0 m 0,0 c -45.45331,52.65511 14.2155,101.95688 90,50 74.2723,-50.9201 112.5215,23.68817 90,40 l -5,15 m -16.1727,-104.72245 c 8.6562,16.01934 15.1305,32.11284 16.2744,48.38751 m -39.7505,-48.35498 c 9.9197,11.14178 17.9456,22.90676 22.3083,35.87714 m -62.7681,-23.22172 c 9.1807,6.8231 17.7409,14.14097 24.6983,22.41128 m -58.2368,-1.76642 c 12.9644,2.47265 25.0837,6.15631 35.6306,12.09304 m -62.9773,-4.68554 c 9.8926,7.50188 18.5778,15.68412 25.1195,25.07438 m -54.3269,-39.75182 c 7.3907,15.13275 13.1172,30.23105 14.7384,45.24445 m 130.4783,-2.61967 c 5.593,-10.02146 4.31,-21.72479 0.053,-35.11 m -23.1106,36.61003 c 4.6695,-10.0807 3.3875,-22.60148 0.018,-37.07727 m -40.8324,49.94794 c 4.6469,-8.76053 5.254,-20.1225 4.4572,-33.29616 m -53.3202,55.41635 c 7.1559,-8.40756 10.151,-21.05102 12.2908,-36.06985 m -60.0441,18.12691 c 6.7414,-4.07742 12.7139,-10.69226 18.6459,-18.78401 M 807.13712,147.06767 C 812.8806,165.26885 820,189.03368 820,195 c 0,11.18034 -5,13.12816 -5,20 0,5 40,70 40,90 0,20 -20,20 -25,20 -5,0 0,20 0,25 0,5 -5,15 -5,15 0,0 5,7.92893 5,15 0,15 -30,15 -30,15 0,0 5,15 5,20 0,5 20,0 20,25 0,10 -30,35 -40,35 -10,0 -20,-10 -30,-10 -10,0 -25,10 -35,10 -10,0 -61.02633,-20.51317 -80,-30 -10,-5 -8.57698,-19.97248 -25.60017,-26.56822 -10.39523,-4.0277 -21.73865,-19.19489 -30.4987,-36.12401 M 800,295 c -39.02114,3.50289 -15.75534,40.28179 20,15 8.16508,-5.77334 0,5 0,5 -9.08317,0 -18.01656,4.73102 -25,4 m -47,47 c 20.00463,-2.5693 42.80076,-23.89729 48,-29 4.09299,-4.017 14.92184,4.33969 14,10 -19.78153,10.29837 -48.04318,21.62838 -62,19 m 36,8 c 14.112,-2.18007 28.14848,-0.78183 41,-10 M 687,224 c 2.04677,3.4714 65.66773,-38.84566 77,-43 13.90454,-5.09732 26.59367,6.69159 26,6 l 2,11 c 0,0 -16.40931,-11.86356 -25,-9 -9,3 -78.94364,40.1459 -80,35 v 0 m 28,21 c 33.34705,-2.16778 60.22567,-31.5381 87,-30 m -57.04008,21.78803 C 732.52561,265.24338 785.72384,244.61524 803,254 m 17,236 -24.89327,-18.66995 M 366.44945,156.05442 C 314.55451,278.49268 383.86141,375.08483 320,480 c -9.53236,15.66031 -50,25 -55,0 -8.82523,-44.12613 50.24631,-27.89151 35,-10 M 388.83082,150.20227 C 331.01917,274.73282 395.78822,368.42356 340,480 c -20,40 -91.15891,51.00962 -95,5 -6.65669,-79.73568 95,-60 75,-5 M 411.71309,144.17621 C 348.90694,271.72703 416.68449,366.63102 360,480 c -12.3444,24.6888 -44.17833,38.33341 -67.64358,34.34322 M 434.14583,139.28589 C 366.70555,269.31221 432.40655,365.18689 375,480 c -8.54683,17.09367 -22.77226,24.41423 -38.50395,25.97628 M 456.34823,135.07731 C 385.29084,266.55627 453.01849,353.96301 395,470 c -12.3444,24.6888 -36.53475,38.99019 -60,35 M 478.34759,131.42121 C 404.0323,264.67715 473.55298,347.89403 415,465 c -11.86382,23.72764 -30.05092,33.24264 -52.279,30.40547 M 500.27899,128.00352 C 422.83812,263.2613 494.05195,346.89608 435,465 c -12.3444,24.6888 -26.53475,28.99019 -50,25 M 521.68345,125.57289 C 441.98226,262.26286 514.40487,346.19024 455,465 c -12.3444,24.6888 -31.53475,28.99019 -55,25 M 543.01541,123.30571 C 461.1798,261.18125 534.73234,335.53531 475,455 c -12.3444,24.6888 -26.53475,33.99019 -50,30 M 563.98404,121.68268 C 480.60166,260.55951 554.96627,330.06746 495,450 c -12.3444,24.6888 -26.53475,33.99019 -50,30 M 584.58074,120.69207 C 500.24771,260.21318 575.10867,324.78265 515,445 c -10.35677,20.71354 -18.49341,27.07646 -34.70275,26.23205 M 605,120 c -85,140 -9.79203,189.58405 -70,310 -9.21459,18.42919 -16.67175,28.28448 -29.62065,30.43761 M 625,120 c -85,140 -9.79203,179.58405 -70,300 -6.15308,12.30616 -15.24933,18.30473 -25.73193,20.7321 M 644.62322,120.6215 C 560.2374,260.02865 640.11875,269.76248 580,390 c -7.44541,14.89083 -13.74345,22.36514 -22.7182,25.07689 M 335.61818,138.23352 C 473.65944,99.832554 647.92533,69.076687 841.9261,121.81864 M 199.64831,1.2820655e-4 355.70312,158.85547 C 484.17465,122.11158 658.57478,97.858259 815,150 L 960.45465,-4.1127205e-4"
       id="path549" />
  </g>
  <g
     id="use83"
     transform="matrix(-0.12676923,0,0,-0.13039999,45.197374,93.191242)">
    <path
       stroke="#4444ff"
       stroke-linecap="round"
       stroke-linejoin="round"
       stroke-width="6"
       fill="none"
       d="m 497.5,1097.5 v -195 h 305 M 497.53695,920 h 304.5977 M 497.7422,940 H 802.54516 M 497.5,902.5 220.25073,544.1046 M 527.5,902.5 239.8832,530.70267 M 637.5,902.5 332.0425,507.6403 M 667.5,902.5 360,505 m 483.54523,2.42138 C 742.26363,619.63396 702.25643,759.86643 667.5,902.5 M 861.60228,521.11429 C 769.04953,630.9337 730.8566,765.61106 697.5,902.5 M 927.76658,569.28185 C 849.2527,668.40463 802.42708,779.68513 772.5,902.5 M 947.11176,583.06392 C 874.97254,678.68619 831.04785,785.34524 802.5,902.5 M 1019.4464,637.16898 C 967.03454,702.84525 928.62898,773.87944 899.9052,850.0893 M 1038.7061,650.95849 C 986.60024,719.51428 949.09489,793.76442 921.43496,873.50848 M 832.60383,801.55437 C 926.4139,852.12415 990,950.02267 990,1062.5 c 0,71.6564 -25.80726,137.3957 -68.7955,188.7501 M 809.46486,875.27936 c 62.6448,39.58869 104.13315,108.64851 104.13315,187.22064 0,47.0778 -14.89435,90.7407 -40.30962,126.6955 M 802.61707,907.04434 c 48.75509,35.02012 80.42015,91.60786 80.42015,155.45566 0,37.0158 -10.64298,71.5914 -29.08883,100.9389 M 410.44704,570 H 795.05972 M 371.6955,520 H 831.34393 M 380,490 h 440 l 479.9997,352.65281 M 266.06519,512.71366 -6.0121561e-5,696.20694 M 235.47171,563.81223 -1.1326293e-4,726.20659 M 950.47664,862.55118 C 994.06177,917.82763 1020,987.1903 1020,1062.5 c 0,67.9838 -21.13733,131.1214 -57.31256,183.4252 M 1299.9766,1096.2998 C 1147.3348,1070.9868 1030,918.87092 1030,735 c 0,-28.78989 2.8766,-56.80127 8.3149,-83.66927 m 261.6826,333.33302 C 1200.0407,960.59622 1124.9315,857.96173 1124.9315,735 c 0,-6.74019 0.2257,-13.4193 0.6688,-20.02774 m 174.3318,238.93631 C 1214.4234,930.36018 1150.8219,841.28651 1150.8219,735 c 0,-0.68109 0,-1.36148 0.01,-2.04114 m 149.1538,158.6271 c -46.1051,-17.78701 -81.7307,-62.14932 -93.3443,-117.40631 m 5.5435,292.24075 c -49.3918,119.2526 -123.4237,231.1324 -195.8398,307.0334 m 171.7969,-321.7576 c -45.7522,115.8302 -115.5424,225.8669 -185.6451,304.2612 m 162.32,-321.6632 c -37.4213,100.5699 -93.6898,197.7758 -153.4812,274.922 m -48.95389,-63.1199 48.75749,63.3848 m 19.8749,-605.19187 c -33.18827,49.72014 -59.54377,102.25014 -80.73019,157.51986 M 422.63854,585 h 362.2616 m 515.08236,492.8418 C 1156.5101,1058.6748 1045,914.19428 1045,738.80502 c 0,-26.88135 2.6195,-53.03664 7.572,-78.12596 m 6.8268,80.43034 c 0,-0.7675 -0.01,-1.53563 -0.01,-2.30438 0,-23.56378 2.1189,-46.54024 6.1428,-68.67569 m 12.3795,186.23452 c -8.1994,-24.99069 -13.8614,-51.48648 -16.6107,-79.04168 m 79.0175,191.77041 c -20.1073,-23.63481 -37.1356,-50.95235 -50.3073,-81.02974 m 151.4734,156.42286 c -31.0325,-13.0137 -59.4912,-32.4944 -84.2264,-57.07775 m 142.7031,73.23545 c -8.0784,-1.1381 -16.0486,-2.6948 -23.8949,-4.6511 M 1076.5153,718.27127 c 0.705,-12.56452 2.0523,-24.92048 4.0032,-37.02207 m 13.1913,169.11775 c -8.1545,-24.56307 -13.6959,-50.68734 -16.2177,-77.89045 m 72.5409,180.36885 c -17.5756,-21.10073 -32.5713,-45.23454 -44.3795,-71.68049 m 147.018,147.08804 c -28.5847,-11.0962 -54.9586,-27.9901 -78.1352,-49.51054 m -81.2768,-262.91232 c 0.5275,-7.84278 1.3227,-15.59602 2.3747,-23.24684 m 7.2641,129.45079 c -2.8744,-11.18221 -5.1848,-22.65642 -6.8916,-34.37593 m 54.8142,137.28132 c -7.8627,-10.79917 -15.0532,-22.30675 -21.4945,-34.43117 m 112.1263,111.92279 c -13.8083,-6.72368 -26.9716,-14.93093 -39.3489,-24.45461 m -92.9822,-246.44113 c 0.2141,-9.44092 0.844,-18.75874 1.8687,-27.92864 m -1.92,30.73557 c 0.013,-0.93684 0.03,-1.87249 0.051,-2.80693 m 0.2427,21.68982 c -0.2155,-4.77424 -0.3247,-9.58202 -0.3247,-14.42006 0,-1.49051 0.01,-2.97816 0.031,-4.46283 m 11.7713,89.73317 c -3.907,-13.6632 -6.9011,-27.82669 -8.8959,-42.38814 m 19.0783,71.96548 c -1.0209,-2.51801 -2.0094,-5.05809 -2.9647,-7.61949 m 38.8517,70.84874 c -8.7223,-11.4161 -16.6179,-23.73811 -23.5748,-36.83294 m 46.5421,62.92232 c -1.163,-1.14547 -2.316,-2.30466 -3.4589,-3.47737 m 113.5558,61.71774 c -32.0129,-5.53997 -61.8239,-19.13493 -87.9255,-38.99596 M 1125.046,852.42232 c 24.7576,-39.98864 -53.6064,-42.7593 -29.0623,-2.32039 -45.2497,0.95904 -12.4313,62.74216 13.3385,26.87164 16.5889,40.72513 65.9206,-19.52725 15.7238,-24.55125 v 0 m -23.8893,-102.82929 c 32.7223,-33.7828 -43.2444,-53.21583 -27.8973,-8.47005 -44.4117,-8.72127 -25.5367,58.64294 7.2955,29.0994 7.5142,43.32743 68.5695,-5.00699 20.6018,-20.62935 v 0 m 84.7568,193.64042 c 11.9934,-45.4773 -63.7606,-25.23078 -28.4721,6.27226 -42.995,14.13824 6.4431,63.63649 20.6078,21.80186 27.764,34.10103 57.3386,-37.9358 7.8643,-28.07412 v 0 m 114.2211,66.83545 c -5.0274,-2.3059 -12.2681,-1.873 -21.9391,3.4253 -2.1906,-46.98115 -68.3917,-4.9574 -25.2826,14.5187 -36.7797,26.3764 25.2227,58.7787 26.1955,14.6218 8.8116,5.8113 15.8896,5.7573 20.9466,2.654 m -497.70951,-4.0044 C 814.63704,1035.196 839.54293,1023.4286 855,1020 c 31.90193,-7.0763 33.67529,38.5554 5,40 -14.79504,0.7454 -43.33343,3.1297 -57.13915,4.3161 m -0.6023,-11.1307 L 835,1045 m -31.99829,-27.7728 c 8.41639,-9.3606 23.833,-25.79263 34.75877,-33.27917 C 861.51045,967.67407 877.96428,1004.3905 855,1015 c -15.99648,7.3905 -51.48716,25.4599 -51.48716,25.4599 m -0.87149,-9.9265 26.99137,-19.5741 m -26.83191,-42.38704 c 3.87242,-6.98034 7.98425,-13.66987 11.74319,-18.33954 18.05323,-22.4273 44.38909,7.99058 25.456,24.76728 -9.83206,8.71234 -28.32887,26.2301 -37.10666,34.5821 m -0.33121,-15.4146 11.98221,-15.72717 m -11.86379,-62.20215 c 12.41066,0.87889 23.55886,16.50494 13.28335,30.12997 -3.49586,4.63547 -8.30966,11.29224 -13.19342,18.13512 m 0.43739,103.30083 c 13.22136,-1.6585 41.62409,-4.7271 57.74749,-2.8041 32.44737,3.8698 19.03328,47.5214 -8.50686,39.4035 -12.40462,-3.6565 -35.10706,-9.5972 -49.6034,-13.3393 m 0.27143,-11.9154 30.69768,2.8324 m -30.98953,9.4503 c 13.12209,3.4126 40.07008,10.9394 54.14009,18.5685 25.82865,14.0049 5.32659,44.2101 -15.49798,37.2863 m -30.26798,-38.7784 14.27286,7.2529 M 820.8225,883.013 840,860 c 20.83333,-25 50,12 35,30 l -19.53316,23.43979 m 10.64791,12.73589 25.88781,-16.66095 c 27.36518,-17.61176 44.10978,26.42587 24.40685,39.10634 l -25.56123,16.45076 m 6.5891,14.35262 28.98058,-7.22761 c 31.57555,-7.87478 33.26702,39.20846 10.53261,44.87836 l -26.66754,6.6507 m 2.48916,18.6823 26.79187,0.7737 c 32.52913,0.9394 21.45053,46.7319 -1.9705,46.0556 l -25.52652,-0.7372 m -3.69468,21.2352 25.37541,6.1722 c 31.62077,7.6911 11.25123,50.1737 -11.51579,44.6361 l -28.3756,-6.9018 m -5.46625,11.3192 23.15134,17.7061 c 19.22632,14.7041 4.37666,35.4488 -12.15316,39.2571 M 830.62097,805.88837 c 8.31077,11.1943 11.71243,25.64414 4.93257,37.82254 33.97969,-40.77564 81.55128,19.57231 57.0859,48.93077 44.63332,-28.72524 71.9442,43.10127 39.80821,63.78344 51.50053,-12.84397 54.25937,63.94998 17.17898,73.19768 53.05587,1.5321 34.98636,76.221 -3.21387,75.1178 51.5743,12.5445 18.35102,81.8348 -18.78247,72.8027 29.40202,22.4864 9.94438,53.6341 -14.82051,62.5533 M -4.1946769e-5,27.173862 105,155 V 623.15271 M -2.8273735e-4,101.95617 60,175 V 654.3514 M 105.54275,220.90029 C 171.88778,160.99512 153.13361,122.45876 150,80 301.15308,208.77386 259.82851,334.77263 165,460 164.26867,400.69123 156.82035,347.16077 104.53351,332.20266 M 153.06712,103.9937 C 175.41109,132.99927 200.60008,160.30087 155,230 c 20.18754,7.86847 40.47761,13.66024 60,35 -15.8987,24.34828 -37.56531,33.20556 -60,40 17.25032,36.86946 52.18325,61.33171 9.93938,139.94598 M 1086.0394,685.5545 c 1.7233,-14.74679 5.1887,-42.09582 8.9606,-45.5545 5.2413,-4.80604 44.3306,-54.33061 50,-60 5,-5 35,-10 40,-10 5,0 26.7295,9.53056 30,25 9.5798,45.31219 -10.2427,75.36551 -35,10 -10,10 -15,10 -30,10 42.7191,33.89473 28.8882,60.20895 -15,80 m 54.8315,-125.17045 c 3.7063,-4.79594 8.7183,-9.81274 15.1685,-14.82955 30.7488,-23.91573 77.0146,-7.61148 30,30 -6.8761,5.50082 -13.2793,9.58326 -19.0927,12.44235 m 15.0595,-9.20716 c 37.4032,-11.4695 66.8088,9.20148 8.4314,42.19727 -55.5965,31.42397 -78.104,13.09477 -54.4123,-13.08287 m 53.1069,13.57077 c 34.2811,-2.65327 54.6718,18.51589 -2.5656,38.27169 -59.9763,20.70116 -76.9537,-1.87148 -43.8532,-22.36324 m 45.8218,21.75194 c 34.1493,-2.05232 55.8945,22.6568 0.3302,36.41925 -57.1622,14.15822 -68.359,-12.30845 -31.5144,-28.41069 m -28.4894,76.72141 c 22.2723,-6.8921 50.5575,-31.93645 53.3065,-46.62429 M 1168.572,672.59595 C 1173.4508,691.9311 1152.688,716.34327 1150,715 M 1015,465 c -5,40 35,55 75,25 53.8145,-40.36087 157.0904,-42.07476 105,65 -10,-35 -72.8037,-22.12621 -115,5 -70,45 -135,-65 -65,-95 v 0 m 0,0 c -45.45331,52.65511 14.2155,101.95688 90,50 74.2723,-50.9201 112.5215,23.68817 90,40 l -5,15 m -16.1727,-104.72245 c 8.6562,16.01934 15.1305,32.11284 16.2744,48.38751 m -39.7505,-48.35498 c 9.9197,11.14178 17.9456,22.90676 22.3083,35.87714 m -62.7681,-23.22172 c 9.1807,6.8231 17.7409,14.14097 24.6983,22.41128 m -58.2368,-1.76642 c 12.9644,2.47265 25.0837,6.15631 35.6306,12.09304 m -62.9773,-4.68554 c 9.8926,7.50188 18.5778,15.68412 25.1195,25.07438 m -54.3269,-39.75182 c 7.3907,15.13275 13.1172,30.23105 14.7384,45.24445 m 130.4783,-2.61967 c 5.593,-10.02146 4.31,-21.72479 0.053,-35.11 m -23.1106,36.61003 c 4.6695,-10.0807 3.3875,-22.60148 0.018,-37.07727 m -40.8324,49.94794 c 4.6469,-8.76053 5.254,-20.1225 4.4572,-33.29616 m -53.3202,55.41635 c 7.1559,-8.40756 10.151,-21.05102 12.2908,-36.06985 m -60.0441,18.12691 c 6.7414,-4.07742 12.7139,-10.69226 18.6459,-18.78401 M 807.13712,147.06767 C 812.8806,165.26885 820,189.03368 820,195 c 0,11.18034 -5,13.12816 -5,20 0,5 40,70 40,90 0,20 -20,20 -25,20 -5,0 0,20 0,25 0,5 -5,15 -5,15 0,0 5,7.92893 5,15 0,15 -30,15 -30,15 0,0 5,15 5,20 0,5 20,0 20,25 0,10 -30,35 -40,35 -10,0 -20,-10 -30,-10 -10,0 -25,10 -35,10 -10,0 -61.02633,-20.51317 -80,-30 -10,-5 -8.57698,-19.97248 -25.60017,-26.56822 -10.39523,-4.0277 -21.73865,-19.19489 -30.4987,-36.12401 M 800,295 c -39.02114,3.50289 -15.75534,40.28179 20,15 8.16508,-5.77334 0,5 0,5 -9.08317,0 -18.01656,4.73102 -25,4 m -47,47 c 20.00463,-2.5693 42.80076,-23.89729 48,-29 4.09299,-4.017 14.92184,4.33969 14,10 -19.78153,10.29837 -48.04318,21.62838 -62,19 m 36,8 c 14.112,-2.18007 28.14848,-0.78183 41,-10 M 687,224 c 2.04677,3.4714 65.66773,-38.84566 77,-43 13.90454,-5.09732 26.59367,6.69159 26,6 l 2,11 c 0,0 -16.40931,-11.86356 -25,-9 -9,3 -78.94364,40.1459 -80,35 v 0 m 28,21 c 33.34705,-2.16778 60.22567,-31.5381 87,-30 m -57.04008,21.78803 C 732.52561,265.24338 785.72384,244.61524 803,254 m 17,236 -24.89327,-18.66995 M 366.44945,156.05442 C 314.55451,278.49268 383.86141,375.08483 320,480 c -9.53236,15.66031 -50,25 -55,0 -8.82523,-44.12613 50.24631,-27.89151 35,-10 M 388.83082,150.20227 C 331.01917,274.73282 395.78822,368.42356 340,480 c -20,40 -91.15891,51.00962 -95,5 -6.65669,-79.73568 95,-60 75,-5 M 411.71309,144.17621 C 348.90694,271.72703 416.68449,366.63102 360,480 c -12.3444,24.6888 -44.17833,38.33341 -67.64358,34.34322 M 434.14583,139.28589 C 366.70555,269.31221 432.40655,365.18689 375,480 c -8.54683,17.09367 -22.77226,24.41423 -38.50395,25.97628 M 456.34823,135.07731 C 385.29084,266.55627 453.01849,353.96301 395,470 c -12.3444,24.6888 -36.53475,38.99019 -60,35 M 478.34759,131.42121 C 404.0323,264.67715 473.55298,347.89403 415,465 c -11.86382,23.72764 -30.05092,33.24264 -52.279,30.40547 M 500.27899,128.00352 C 422.83812,263.2613 494.05195,346.89608 435,465 c -12.3444,24.6888 -26.53475,28.99019 -50,25 M 521.68345,125.57289 C 441.98226,262.26286 514.40487,346.19024 455,465 c -12.3444,24.6888 -31.53475,28.99019 -55,25 M 543.01541,123.30571 C 461.1798,261.18125 534.73234,335.53531 475,455 c -12.3444,24.6888 -26.53475,33.99019 -50,30 M 563.98404,121.68268 C 480.60166,260.55951 554.96627,330.06746 495,450 c -12.3444,24.6888 -26.53475,33.99019 -50,30 M 584.58074,120.69207 C 500.24771,260.21318 575.10867,324.78265 515,445 c -10.35677,20.71354 -18.49341,27.07646 -34.70275,26.23205 M 605,120 c -85,140 -9.79203,189.58405 -70,310 -9.21459,18.42919 -16.67175,28.28448 -29.62065,30.43761 M 625,120 c -85,140 -9.79203,179.58405 -70,300 -6.15308,12.30616 -15.24933,18.30473 -25.73193,20.7321 M 644.62322,120.6215 C 560.2374,260.02865 640.11875,269.76248 580,390 c -7.44541,14.89083 -13.74345,22.36514 -22.7182,25.07689 M 335.61818,138.23352 C 473.65944,99.832554 647.92533,69.076687 841.9261,121.81864 M 199.64831,1.2820655e-4 355.70312,158.85547 C 484.17465,122.11158 658.57478,97.858259 815,150 L 960.45465,-4.1127205e-4"
       id="path553" />
  </g>
  <g
     id="use85"
     transform="matrix(0.12676923,0,0,0.13039999,-119.60263,-167.60875)">
    <path
       stroke="#4444ff"
       stroke-linecap="round"
       stroke-linejoin="round"
       stroke-width="3"
       fill="none"
       d="m 115,211.83788 v 124.19729 m 10,-134.86525 v 140.31445 m 10,-152.8789 V 349.31836 M 145,171.89258 V 361.47461 M 155,90 V 382.19531 M 165,93.402342 V 455 m 10,-351.96485 v 343.24416 m 10,-332.81837 v 318.7246 M 195,124.76953 V 417.1758 m 10,-279.94142 v 263.63085 m 10,-249.625 V 383.21681 M 225,167.81836 V 363.49804 M 1202,680 c 9.8093,8.78849 7.628,26.84045 4,27 m -12,-58 c 9.8093,8.78849 7.628,26.84045 4,27 m 17,-73 c -9,5 -4,36 -4,36 m 10,9 c 3.2158,4.71238 3.8261,10.28421 4,16 m 6,18 c 3.2158,4.71238 3.8261,10.28421 4,16 M 804,254 c -2.91484,-2.55137 -26.0397,5.37637 -27,11 m 26,-51 c -12,3 -23,-10 -37,-10 -4.12311,0 -22,8 -22,8 m 41.39658,5.99026 c 3.63476,2.7787 5.51372,8.26714 5.60342,14.50974 0,10.21727 -6.49187,18.5 -14.5,18.5 -8.00813,0 -14.5,-8.28273 -14.5,-18.5 0,-1.54497 0.14844,-3.0457 0.4281,-4.48025 M 594.21182,400 h -19.49918 m 33.45649,15 h -50.49261 m 70.19704,15 h -79.844 m 91.74877,15 H 526.27258 M 670,460 H 510 m 135,15 H 474.75369"
       id="path557" />
    <g
       id="g561"
       transform="matrix(0.08333333,0,0,0.081,546,1000)">
      <path
         d="m 0,-300 c 0,-100 100,-200 200,-200 100,0 200,100 200,250 C 400,0 0,400 0,500 0,400 -400,0 -400,-250 c 0,-150 100,-250 200,-250 100,0 200,100 200,200 z"
         fill="#ff0000"
         id="path559" />
    </g>
    <g
       id="g565"
       transform="matrix(-0.08333333,0,0,-0.081,615,1000)">
      <path
         d="m 0,-300 c 0,-100 100,-200 200,-200 100,0 200,100 200,250 C 400,0 0,400 0,500 0,400 -400,0 -400,-250 c 0,-150 100,-250 200,-250 100,0 200,100 200,200 z"
         fill="#ff0000"
         id="path563" />
    </g>
    <g
       id="g569"
       transform="matrix(0.05412659,0.030375,-0.03125,0.05261104,883.18301,776.66389)">
      <path
         d="m 0,-300 c 0,-100 100,-200 200,-200 100,0 200,100 200,250 C 400,0 0,400 0,500 0,400 -400,0 -400,-250 c 0,-150 100,-250 200,-250 100,0 200,100 200,200 z"
         fill="#ff0000"
         id="path567" />
    </g>
    <g
       id="g573"
       transform="matrix(0.05412659,0.030375,-0.03125,0.05261104,915.18301,711.66389)">
      <path
         d="m 0,-300 c 0,-100 100,-200 200,-200 100,0 200,100 200,250 C 400,0 0,400 0,500 0,400 -400,0 -400,-250 c 0,-150 100,-250 200,-250 100,0 200,100 200,200 z"
         fill="#ff0000"
         id="path571" />
    </g>
    <g
       id="g577"
       transform="matrix(0.05412659,0.030375,-0.03125,0.05261104,954.18301,646.66389)">
      <path
         d="m 0,-300 c 0,-100 100,-200 200,-200 100,0 200,100 200,250 C 400,0 0,400 0,500 0,400 -400,0 -400,-250 c 0,-150 100,-250 200,-250 100,0 200,100 200,200 z"
         fill="#ff0000"
         id="path575" />
    </g>
    <g
       id="g581"
       transform="matrix(0.03125,0.05261104,-0.05412659,0.030375,219.81699,633.66389)">
      <path
         d="m 0,-300 c 0,-100 100,-200 200,-200 100,0 200,100 200,250 C 400,0 0,400 0,500 0,400 -400,0 -400,-250 c 0,-150 100,-250 200,-250 100,0 200,100 200,200 z"
         fill="#ff0000"
         id="path579" />
    </g>
    <g
       id="g585"
       transform="matrix(0.03125,0.05261104,-0.05412659,0.030375,154.81699,728.66389)">
      <path
         d="m 0,-300 c 0,-100 100,-200 200,-200 100,0 200,100 200,250 C 400,0 0,400 0,500 0,400 -400,0 -400,-250 c 0,-150 100,-250 200,-250 100,0 200,100 200,200 z"
         fill="#ff0000"
         id="path583" />
    </g>
    <g
       id="g589"
       transform="matrix(0.03125,0.05261104,-0.05412659,0.030375,51.816987,728.66389)">
      <path
         d="m 0,-300 c 0,-100 100,-200 200,-200 100,0 200,100 200,250 C 400,0 0,400 0,500 0,400 -400,0 -400,-250 c 0,-150 100,-250 200,-250 100,0 200,100 200,200 z"
         fill="#ff0000"
         id="path587" />
    </g>
    <g
       id="g593"
       transform="matrix(0.03125,0.05261104,-0.05412659,0.030375,95.816987,825.66389)">
      <path
         d="m 0,-300 c 0,-100 100,-200 200,-200 100,0 200,100 200,250 C 400,0 0,400 0,500 0,400 -400,0 -400,-250 c 0,-150 100,-250 200,-250 100,0 200,100 200,200 z"
         fill="#ff0000"
         id="path591" />
    </g>
  </g>
  <g
     id="use87"
     transform="matrix(-0.12676923,0,0,-0.13039999,45.197374,93.191242)">
    <path
       stroke="#4444ff"
       stroke-linecap="round"
       stroke-linejoin="round"
       stroke-width="3"
       fill="none"
       d="m 115,211.83788 v 124.19729 m 10,-134.86525 v 140.31445 m 10,-152.8789 V 349.31836 M 145,171.89258 V 361.47461 M 155,90 V 382.19531 M 165,93.402342 V 455 m 10,-351.96485 v 343.24416 m 10,-332.81837 v 318.7246 M 195,124.76953 V 417.1758 m 10,-279.94142 v 263.63085 m 10,-249.625 V 383.21681 M 225,167.81836 V 363.49804 M 1202,680 c 9.8093,8.78849 7.628,26.84045 4,27 m -12,-58 c 9.8093,8.78849 7.628,26.84045 4,27 m 17,-73 c -9,5 -4,36 -4,36 m 10,9 c 3.2158,4.71238 3.8261,10.28421 4,16 m 6,18 c 3.2158,4.71238 3.8261,10.28421 4,16 M 804,254 c -2.91484,-2.55137 -26.0397,5.37637 -27,11 m 26,-51 c -12,3 -23,-10 -37,-10 -4.12311,0 -22,8 -22,8 m 41.39658,5.99026 c 3.63476,2.7787 5.51372,8.26714 5.60342,14.50974 0,10.21727 -6.49187,18.5 -14.5,18.5 -8.00813,0 -14.5,-8.28273 -14.5,-18.5 0,-1.54497 0.14844,-3.0457 0.4281,-4.48025 M 594.21182,400 h -19.49918 m 33.45649,15 h -50.49261 m 70.19704,15 h -79.844 m 91.74877,15 H 526.27258 M 670,460 H 510 m 135,15 H 474.75369"
       id="path597" />
    <g
       id="g601"
       transform="matrix(0.08333333,0,0,0.081,546,1000)">
      <path
         d="m 0,-300 c 0,-100 100,-200 200,-200 100,0 200,100 200,250 C 400,0 0,400 0,500 0,400 -400,0 -400,-250 c 0,-150 100,-250 200,-250 100,0 200,100 200,200 z"
         fill="#ff0000"
         id="path599" />
    </g>
    <g
       id="g605"
       transform="matrix(-0.08333333,0,0,-0.081,615,1000)">
      <path
         d="m 0,-300 c 0,-100 100,-200 200,-200 100,0 200,100 200,250 C 400,0 0,400 0,500 0,400 -400,0 -400,-250 c 0,-150 100,-250 200,-250 100,0 200,100 200,200 z"
         fill="#ff0000"
         id="path603" />
    </g>
    <g
       id="g609"
       transform="matrix(0.05412659,0.030375,-0.03125,0.05261104,883.18301,776.66389)">
      <path
         d="m 0,-300 c 0,-100 100,-200 200,-200 100,0 200,100 200,250 C 400,0 0,400 0,500 0,400 -400,0 -400,-250 c 0,-150 100,-250 200,-250 100,0 200,100 200,200 z"
         fill="#ff0000"
         id="path607" />
    </g>
    <g
       id="g613"
       transform="matrix(0.05412659,0.030375,-0.03125,0.05261104,915.18301,711.66389)">
      <path
         d="m 0,-300 c 0,-100 100,-200 200,-200 100,0 200,100 200,250 C 400,0 0,400 0,500 0,400 -400,0 -400,-250 c 0,-150 100,-250 200,-250 100,0 200,100 200,200 z"
         fill="#ff0000"
         id="path611" />
    </g>
    <g
       id="g617"
       transform="matrix(0.05412659,0.030375,-0.03125,0.05261104,954.18301,646.66389)">
      <path
         d="m 0,-300 c 0,-100 100,-200 200,-200 100,0 200,100 200,250 C 400,0 0,400 0,500 0,400 -400,0 -400,-250 c 0,-150 100,-250 200,-250 100,0 200,100 200,200 z"
         fill="#ff0000"
         id="path615" />
    </g>
    <g
       id="g621"
       transform="matrix(0.03125,0.05261104,-0.05412659,0.030375,219.81699,633.66389)">
      <path
         d="m 0,-300 c 0,-100 100,-200 200,-200 100,0 200,100 200,250 C 400,0 0,400 0,500 0,400 -400,0 -400,-250 c 0,-150 100,-250 200,-250 100,0 200,100 200,200 z"
         fill="#ff0000"
         id="path619" />
    </g>
    <g
       id="g625"
       transform="matrix(0.03125,0.05261104,-0.05412659,0.030375,154.81699,728.66389)">
      <path
         d="m 0,-300 c 0,-100 100,-200 200,-200 100,0 200,100 200,250 C 400,0 0,400 0,500 0,400 -400,0 -400,-250 c 0,-150 100,-250 200,-250 100,0 200,100 200,200 z"
         fill="#ff0000"
         id="path623" />
    </g>
    <g
       id="g629"
       transform="matrix(0.03125,0.05261104,-0.05412659,0.030375,51.816987,728.66389)">
      <path
         d="m 0,-300 c 0,-100 100,-200 200,-200 100,0 200,100 200,250 C 400,0 0,400 0,500 0,400 -400,0 -400,-250 c 0,-150 100,-250 200,-250 100,0 200,100 200,200 z"
         fill="#ff0000"
         id="path627" />
    </g>
    <g
       id="g633"
       transform="matrix(0.03125,0.05261104,-0.05412659,0.030375,95.816987,825.66389)">
      <path
         d="m 0,-300 c 0,-100 100,-200 200,-200 100,0 200,100 200,250 C 400,0 0,400 0,500 0,400 -400,0 -400,-250 c 0,-150 100,-250 200,-250 100,0 200,100 200,200 z"
         fill="#ff0000"
         id="path631" />
    </g>
  </g>
</svg>
