<?xml version="1.0" encoding="UTF-8" standalone="no"?>
<svg
   width="1.7430769in"
   height="2.7248178in"
   viewBox="-120 -168 167.33538 261.5825"
   preserveAspectRatio="none"
   class="card"
   face="JD"
   version="1.1"
   id="svg3675"
   xmlns="http://www.w3.org/2000/svg"
   xmlns:svg="http://www.w3.org/2000/svg">
  <defs
     id="defs3589" />
  <g
     id="use3635"
     transform="matrix(0.12676923,0,0,0.13039999,-118.73231,-167.60874)">
    <path
       fill="#ffcc44"
       d="M 0,0 V 602.5 A 52.5,17.5 0 0 1 52.5,585 52.5,17.5 0 0 1 100,595.0918 V 397.39258 C 208.28637,356.23552 247.22219,289.51677 265,215 214.52335,256.16791 159.20261,282.41009 100,296.69141 V 100 Z M 0,602.5 V 635 c 0,-7.26326 13.907429,-13.49298 33.710938,-16.14062 l 0.300781,-0.002 A 52.5,17.5 0 0 1 0,602.5 Z M 0,635 v 35 A 52.5,17.5 0 0 1 52.5,652.5 52.5,17.5 0 0 1 100,662.5918 V 645.05664 C 90.047496,649.55699 73.608746,652.5 55,652.5 24.624339,652.5 0,644.66498 0,635 Z m 0,35 V 1710 L 100,1610 V 707.81445 C 92.207412,713.55569 76.108357,717.5 57.5,717.5 31.266474,717.5 10,709.66498 10,700 c 0,-5.86678 7.836947,-11.05926 19.863281,-14.23438 A 52.5,17.5 0 0 1 0,670 Z M 872.92188,165.36914 C 878.47445,185.24371 890,227.40901 890,235 c 0,10 -10,40 -10,55 0,15 -10,70 -20,95 -10,25 -44.99961,90.00021 -50.28516,100.82617 2.871,18.59214 22.05956,32.81595 42.18555,38.03516 l -1.48828,-0.0332 c -33.86112,23.7658 -71.46691,38.49444 -112.36328,44.6289 C 669.735,578.7041 590.81359,564.24079 505.55078,521.31641 l -0.65625,0.29492 c 11.60466,-7.36262 23.08961,-21.33691 32.70313,-45.24414 C 554.79596,433.59782 515,330 595,175 527.02204,174.999 461.4023,179.19548 403.7832,197.625 342.89407,325.70524 345.94685,412.39376 326.03125,454.13867 330,415.0003 240,390 240,465 c 0,20.57808 15.55526,49.79775 43.0293,51.08984 65.14888,21.07077 129.94852,36.62181 202.68359,12.24024 2.37743,-0.2151 4.79446,-0.65535 7.23242,-1.33399 l -10.6289,4.78711 c 93.45298,50.01793 181.50418,68.03239 258.69921,56.45313 52.21322,-7.83198 99.70025,-29.07774 141.03321,-63.69531 l -1.72852,-0.0391 c 9.59362,-2.60702 17.17768,-8.65363 20.14844,-18.9414 24.05022,-28.31987 34.1997,-44.00268 46.78125,-61.89649 2.82625,-6.00578 3.97324,-13.87818 2.75,-23.66406 -5,-40 -49.99945,-19.9998 -49.88086,-4.72656 -3.37335,-10.43234 -5.11978,-21.98096 -4.97461,-35.37696 C 914.50267,387.62207 940,374.14289 940,350 c 0,-40 -40,-5 -40,-5 0,0 16.80393,-123.50983 -17.26172,-178.78125 z m 88.27929,300.82422 C 905.56852,546.7108 830.5497,595.02887 743.98438,608.01367 655.93542,621.22101 556.54051,598.18252 453.02734,538.36914 L 445,540 l 27.33008,31.72461 c 96.1261,49.65099 189.63001,68.81702 274.62109,56.06836 70.77778,-10.61666 134.6094,-43.83375 186.82617,-96.9375 l -2.90039,3.17578 17.16407,274.62695 17.58593,-58.61328 c -4.42751,-70.84011 -9.68038,-154.88625 -14.85351,-237.65625 9.40756,-10.91156 18.38141,-22.524 26.88281,-34.82812 l 3.63281,-5.25782 z m 72.14063,19.82617 c 26.2591,105.35479 79.3583,198.01972 165.4805,268.01172 l 1.1054,-38.52539 C 1133.5631,655.6016 1090.5416,580.33244 1066.5605,494.35156 Z m -668.07813,55.54102 151.07031,170.17383 c -0.86201,-0.0593 -1.72222,-0.10314 -2.57812,-0.11524 -1.29732,-0.0183 -2.58589,0.0172 -3.86328,0.10547 -10.21915,0.70597 -19.68751,4.78712 -26.58789,11.6875 -11.54426,11.54425 -15.19004,30.27838 -8.34961,47.68555 -5.92821,-1.85933 -11.94503,-2.54172 -17.72266,-2.14258 -10.21914,0.70597 -19.68946,4.78712 -26.58984,11.6875 -9.67033,9.67033 -13.79327,24.38609 -10.85938,39.14062 -4.22585,-0.84038 -8.44886,-1.11149 -12.55078,-0.82812 -10.21914,0.70597 -19.68946,4.78712 -26.58984,11.6875 -9.61698,9.61698 -13.74842,24.22394 -10.9082,38.89648 -0.28337,-0.0598 -0.56613,-0.13305 -0.84961,-0.1875 -0.98,-0.2026 -1.97781,-0.30663 -2.97852,-0.31054 -0.86967,-0.003 -1.7231,0.0672 -2.55469,0.20703 l 0.38867,2.12695 C 342.12366,763.33303 292.8512,653.03287 207.75,544.89648 l -63.5957,41.58399 C 147.97971,601.13005 154.04474,623.7592 155,640 c 0.35155,5.97684 -0.33635,13.3761 -1.41211,21.78906 156.379,228.19892 134.2947,446.70094 38.82422,633.13674 27.04234,33.2885 49.71315,70.2902 68.01953,110.166 43.96344,-73.4827 78.35645,-154.4443 98.05078,-240.0977 l -0.30859,1.6231 295.53125,-300.14454 121.16015,136.47854 21.03516,-21.36331 -387.89453,-436.9375 z M 100,609.9043 a 52.5,17.5 0 0 1 -26.826172,8.65429 l 0.66211,-0.006 c 10.647705,1.23492 19.750557,3.48913 26.164062,6.38868 z m 0,67.5 a 52.5,17.5 0 0 1 -19.865234,7.44336 l 1.05664,-0.0195 c 8.064723,1.71304 14.628656,4.27541 18.808594,7.35352 z m 738.64062,20.33203 -25.58789,8.22461 C 821.50223,731.5797 835.54393,769.76151 850,790 c 10.84303,15.18024 28.26925,35.06396 44.5293,52.71484 0,0 23.03621,-12.07085 16.19922,-19.65625 C 897.24079,808.09442 883.90157,792.46219 875,780 860.87439,760.22415 847.14413,723.31512 838.64062,697.73633 Z m -51.79101,14.54297 -26.7168,4.64843 C 767.96686,741.66234 783.7206,787.20884 800,810 c 14.38872,20.1442 40.37142,48.56889 59.83594,69.07031 7.13332,7.51333 16.88281,-18.61328 16.88281,-18.61328 C 858.62803,841.11272 837.46408,817.44971 825,800 809.83353,778.76694 795.12464,737.78428 786.84961,712.2793 Z"
       id="path3803" />
  </g>
  <g
     id="use3637"
     transform="matrix(-0.12676923,0,0,-0.13039999,46.067696,93.19125)">
    <path
       fill="#ffcc44"
       d="M 0,0 V 602.5 A 52.5,17.5 0 0 1 52.5,585 52.5,17.5 0 0 1 100,595.0918 V 397.39258 C 208.28637,356.23552 247.22219,289.51677 265,215 214.52335,256.16791 159.20261,282.41009 100,296.69141 V 100 Z M 0,602.5 V 635 c 0,-7.26326 13.907429,-13.49298 33.710938,-16.14062 l 0.300781,-0.002 A 52.5,17.5 0 0 1 0,602.5 Z M 0,635 v 35 A 52.5,17.5 0 0 1 52.5,652.5 52.5,17.5 0 0 1 100,662.5918 V 645.05664 C 90.047496,649.55699 73.608746,652.5 55,652.5 24.624339,652.5 0,644.66498 0,635 Z m 0,35 V 1710 L 100,1610 V 707.81445 C 92.207412,713.55569 76.108357,717.5 57.5,717.5 31.266474,717.5 10,709.66498 10,700 c 0,-5.86678 7.836947,-11.05926 19.863281,-14.23438 A 52.5,17.5 0 0 1 0,670 Z M 872.92188,165.36914 C 878.47445,185.24371 890,227.40901 890,235 c 0,10 -10,40 -10,55 0,15 -10,70 -20,95 -10,25 -44.99961,90.00021 -50.28516,100.82617 2.871,18.59214 22.05956,32.81595 42.18555,38.03516 l -1.48828,-0.0332 c -33.86112,23.7658 -71.46691,38.49444 -112.36328,44.6289 C 669.735,578.7041 590.81359,564.24079 505.55078,521.31641 l -0.65625,0.29492 c 11.60466,-7.36262 23.08961,-21.33691 32.70313,-45.24414 C 554.79596,433.59782 515,330 595,175 527.02204,174.999 461.4023,179.19548 403.7832,197.625 342.89407,325.70524 345.94685,412.39376 326.03125,454.13867 330,415.0003 240,390 240,465 c 0,20.57808 15.55526,49.79775 43.0293,51.08984 65.14888,21.07077 129.94852,36.62181 202.68359,12.24024 2.37743,-0.2151 4.79446,-0.65535 7.23242,-1.33399 l -10.6289,4.78711 c 93.45298,50.01793 181.50418,68.03239 258.69921,56.45313 52.21322,-7.83198 99.70025,-29.07774 141.03321,-63.69531 l -1.72852,-0.0391 c 9.59362,-2.60702 17.17768,-8.65363 20.14844,-18.9414 24.05022,-28.31987 34.1997,-44.00268 46.78125,-61.89649 2.82625,-6.00578 3.97324,-13.87818 2.75,-23.66406 -5,-40 -49.99945,-19.9998 -49.88086,-4.72656 -3.37335,-10.43234 -5.11978,-21.98096 -4.97461,-35.37696 C 914.50267,387.62207 940,374.14289 940,350 c 0,-40 -40,-5 -40,-5 0,0 16.80393,-123.50983 -17.26172,-178.78125 z m 88.27929,300.82422 C 905.56852,546.7108 830.5497,595.02887 743.98438,608.01367 655.93542,621.22101 556.54051,598.18252 453.02734,538.36914 L 445,540 l 27.33008,31.72461 c 96.1261,49.65099 189.63001,68.81702 274.62109,56.06836 70.77778,-10.61666 134.6094,-43.83375 186.82617,-96.9375 l -2.90039,3.17578 17.16407,274.62695 17.58593,-58.61328 c -4.42751,-70.84011 -9.68038,-154.88625 -14.85351,-237.65625 9.40756,-10.91156 18.38141,-22.524 26.88281,-34.82812 l 3.63281,-5.25782 z m 72.14063,19.82617 c 26.2591,105.35479 79.3583,198.01972 165.4805,268.01172 l 1.1054,-38.52539 C 1133.5631,655.6016 1090.5416,580.33244 1066.5605,494.35156 Z m -668.07813,55.54102 151.07031,170.17383 c -0.86201,-0.0593 -1.72222,-0.10314 -2.57812,-0.11524 -1.29732,-0.0183 -2.58589,0.0172 -3.86328,0.10547 -10.21915,0.70597 -19.68751,4.78712 -26.58789,11.6875 -11.54426,11.54425 -15.19004,30.27838 -8.34961,47.68555 -5.92821,-1.85933 -11.94503,-2.54172 -17.72266,-2.14258 -10.21914,0.70597 -19.68946,4.78712 -26.58984,11.6875 -9.67033,9.67033 -13.79327,24.38609 -10.85938,39.14062 -4.22585,-0.84038 -8.44886,-1.11149 -12.55078,-0.82812 -10.21914,0.70597 -19.68946,4.78712 -26.58984,11.6875 -9.61698,9.61698 -13.74842,24.22394 -10.9082,38.89648 -0.28337,-0.0598 -0.56613,-0.13305 -0.84961,-0.1875 -0.98,-0.2026 -1.97781,-0.30663 -2.97852,-0.31054 -0.86967,-0.003 -1.7231,0.0672 -2.55469,0.20703 l 0.38867,2.12695 C 342.12366,763.33303 292.8512,653.03287 207.75,544.89648 l -63.5957,41.58399 C 147.97971,601.13005 154.04474,623.7592 155,640 c 0.35155,5.97684 -0.33635,13.3761 -1.41211,21.78906 156.379,228.19892 134.2947,446.70094 38.82422,633.13674 27.04234,33.2885 49.71315,70.2902 68.01953,110.166 43.96344,-73.4827 78.35645,-154.4443 98.05078,-240.0977 l -0.30859,1.6231 295.53125,-300.14454 121.16015,136.47854 21.03516,-21.36331 -387.89453,-436.9375 z M 100,609.9043 a 52.5,17.5 0 0 1 -26.826172,8.65429 l 0.66211,-0.006 c 10.647705,1.23492 19.750557,3.48913 26.164062,6.38868 z m 0,67.5 a 52.5,17.5 0 0 1 -19.865234,7.44336 l 1.05664,-0.0195 c 8.064723,1.71304 14.628656,4.27541 18.808594,7.35352 z m 738.64062,20.33203 -25.58789,8.22461 C 821.50223,731.5797 835.54393,769.76151 850,790 c 10.84303,15.18024 28.26925,35.06396 44.5293,52.71484 0,0 23.03621,-12.07085 16.19922,-19.65625 C 897.24079,808.09442 883.90157,792.46219 875,780 860.87439,760.22415 847.14413,723.31512 838.64062,697.73633 Z m -51.79101,14.54297 -26.7168,4.64843 C 767.96686,741.66234 783.7206,787.20884 800,810 c 14.38872,20.1442 40.37142,48.56889 59.83594,69.07031 7.13332,7.51333 16.88281,-18.61328 16.88281,-18.61328 C 858.62803,841.11272 837.46408,817.44971 825,800 809.83353,778.76694 795.12464,737.78428 786.84961,712.2793 Z"
       id="path3807" />
  </g>
  <g
     id="use3639"
     transform="matrix(0.12676923,0,0,0.13039999,-118.73231,-167.60874)">
    <path
       fill="#ff0000"
       d="m 199.52148,0 157.66407,165.58203 25.47265,-4.90234 c 149.95785,-27.99631 296.7759,-37.13788 441.39258,-36.50977 20.65953,0.0897 41.27525,0.37782 61.84766,0.83985 l 34.47461,1.57031 L 1040.9492,0 h -90.37108 l -73.62695,108.70117 -3.26758,-0.0723 c -17.43992,-0.38354 -35.10109,-0.6067 -52.80078,-0.6836 -14.19091,-0.0617 -28.39696,-0.0289 -43.67773,0.15235 l -7.91602,0.0937 L 798.26758,0 H 696.22266 l -7.77344,110.40039 -5.35938,0.2207 c -28.90564,1.19451 -58.05762,2.96537 -87.60546,5.35938 L 589.9707,116.42773 570.95508,0 H 447.89844 l 45.31445,126.51953 -7.39062,0.95703 c -26.19409,3.39116 -52.95007,7.40266 -79.91016,12.12305 L 402.36914,140.2207 292.63281,0 Z m 108.34961,0 99.54297,127.19727 c 23.43187,-4.05137 46.64908,-7.54037 69.50196,-10.58789 L 435.15039,0 Z m 275.24414,0 16.92383,103.62695 c 25.99132,-2.04096 51.6931,-3.60588 77.18946,-4.7207 L 684.19141,0 Z m 227.57618,0 -25.73047,96.070312 c 12.29871,-0.10653 24.2951,-0.175767 35.97461,-0.125 16.66399,0.07238 33.2704,0.301981 49.72461,0.644532 L 936.08594,0 Z M 0,50 v 70 l 80,80 v -70 z m 0,150 v 109.85352 c 27.325054,-0.91104 54.013626,-3.78058 80,-8.81641 V 280 Z m 225.89844,66.74805 C 156.88675,308.02603 80.516023,327.25303 0,329.85352 v 73.93554 c 87.941567,-16.24665 143.49015,-43.18838 179.62695,-75.49414 20.79357,-18.58912 35.41481,-39.20115 46.27149,-61.54687 z M 80,404.4375 C 56.423649,412.12851 29.870302,418.72246 0,424.09375 V 435 l 80,80 z m 182.08398,104.17188 -54.92968,36.68359 c 65.5852,82.86393 109.88762,167.06245 137.03125,251.62305 L 475.10742,665.29297 365.26367,541.56055 c -34.415,-10.87756 -70.71377,-12.66012 -103.17969,-32.95117 z m 863.33402,2.24023 -42.3438,33.26953 9.8067,23.38086 h 66.5136 l -40.5117,50.64062 14.3594,21.42383 61.3808,-10.23047 -17.6699,63.61329 12.2031,12.11523 10.9825,-39.53906 -0.5957,-43.38672 -6.0684,-7.82031 -60.3711,10.0625 36.7149,-45.89453 L 1156.7402,552.5 h -60.0566 l 46.6523,-36.65625 z M 0,515 v 87.5 a 52.5,17.5 0 0 1 52.5,-17.5 52.5,17.5 0 0 1 18.664062,1.16406 z m 0,87.5 V 635 c 0,-7.26326 13.907429,-13.49298 33.710938,-16.14062 l 0.300781,-0.002 A 52.5,17.5 0 0 1 0,602.5 Z M 0,635 v 35 a 52.5,17.5 0 0 1 52.5,-17.5 52.5,17.5 0 0 1 27.5,2.61914 v -4.54492 C 72.493327,651.79671 64.012037,652.5 55,652.5 24.624339,652.5 0,644.66498 0,635 Z m 0,35 v 80 l 80,80 V 715.41406 C 73.301978,716.74411 65.642419,717.5 57.5,717.5 31.266474,717.5 10,709.66498 10,700 c 0,-5.86678 7.836947,-11.05926 19.863281,-14.23438 A 52.5,17.5 0 0 1 0,670 Z M 170.15234,567 a 3.0003,3.0003 0 1 0 0,6 h 8.42774 0.38086 a 3.0003,3.0003 0 1 0 0,-6 h -0.38086 z M 72.720703,586.35352 A 52.5,17.5 0 0 1 80,587.61914 v -1.26562 z M 146.99805,587 a 3.0003,3.0003 0 1 0 0,6 h 46.9375 0.35547 a 3.0003,3.0003 0 1 0 0,-6 h -0.35547 z m 15.47265,20 a 3.0003,3.0003 0 1 0 0,6 h 45.8418 0.32422 a 3.0003,3.0003 0 1 0 0,-6 H 208.3125 Z M 80,617.39258 a 52.5,17.5 0 0 1 -6.863281,1.16601 l 0.699219,-0.006 c 2.125467,0.24652 4.170294,0.54449 6.164062,0.86915 z M 176.95508,627 a 3.0003,3.0003 0 1 0 0,6 h 44.98242 0.29688 a 3.0003,3.0003 0 1 0 0,-6 h -0.29688 z m 13.67187,20 a 3.0003,3.0003 0 1 0 0,6 h 44.19922 0.26953 a 3.0003,3.0003 0 1 0 0,-6 h -0.26953 z m 12.8711,20 a 3.0003,3.0003 0 1 0 0,6 h 43.38086 0.25 a 3.0003,3.0003 0 1 0 0,-6 h -0.25 z m 12.07812,20 a 3.0003,3.0003 0 1 0 0,6 h 42.42188 a 3.0003,3.0003 0 1 0 0,-6 z m 597.47656,18.96094 -26.20312,6.31836 C 795.12464,737.78428 809.83353,778.76694 825,800 c 12.70132,17.78185 34.43655,42.01754 52.74805,61.55859 L 894.5293,842.71484 C 878.26925,825.06396 860.84303,805.18024 850,790 835.54393,769.76151 821.50223,731.5797 813.05273,705.96094 Z M 226.8457,707 a 3.0003,3.0003 0 1 0 0,6 h 41.58203 a 3.0003,3.0003 0 1 0 0,-6 z m 10.30664,20 a 3.0003,3.0003 0 1 0 0,6 h 41.02149 a 3.0003,3.0003 0 1 0 0,-6 z m 9.55664,20 a 3.0003,3.0003 0 1 0 0,6 h 40.4668 a 3.0003,3.0003 0 1 0 0,-6 z m 8.81446,20 a 3.0003,3.0003 0 1 0 0,6 h 39.75976 0.15625 a 3.0003,3.0003 0 1 0 0,-6 h -0.15625 z m 8.08203,20 a 3.0003,3.0003 0 1 0 0,6 h 39.14062 a 3.0003,3.0003 0 1 0 0,-6 z m 7.35351,20 a 3.0003,3.0003 0 1 0 0,6 h 38.60938 a 3.0003,3.0003 0 1 0 0,-6 z m 6.51368,20 a 3.0003,3.0003 0 1 0 0,6 h 38.26367 a 3.0003,3.0003 0 1 0 0,-6 z M 0,830 v 235 l 80,80 V 910 Z m 283.21289,17 a 3.0003,3.0003 0 1 0 0,6 h 37.80859 a 3.0003,3.0003 0 1 0 0,-6 z m 5.04297,20 a 3.0003,3.0003 0 1 0 0,6 h 37.43945 a 3.0003,3.0003 0 1 0 0,-6 z m 4.35352,20 a 3.0003,3.0003 0 1 0 0,6 h 37.15234 a 3.0003,3.0003 0 1 0 0,-6 z m 3.66796,20 a 3.0003,3.0003 0 1 0 0,6 h 36.94532 a 3.0003,3.0003 0 1 0 0,-6 z m 2.98633,20 a 3.0003,3.0003 0 1 0 0,6 h 36.62695 a 3.0003,3.0003 0 1 0 0,-6 z m 2.19727,20 a 3.0003,3.0003 0 1 0 0,6 h 36.45312 a 3.0003,3.0003 0 1 0 0,-6 z m 1.49023,20 a 3.0003,3.0003 0 1 0 0,6 h 36.39844 a 3.0003,3.0003 0 1 0 0,-6 z m 0.83008,20 a 3.0003,3.0003 0 1 0 0,6 H 340 a 3.0003,3.0003 0 1 0 0,-6 z m 0.17383,20 a 3.0003,3.0003 0 1 0 0,6 H 340 a 3.0003,3.0003 0 1 0 0,-6 z m -0.48438,20 a 3.0003,3.0003 0 1 0 0,6 h 36.41211 a 3.0003,3.0003 0 1 0 0,-6 z m -1.13672,20 a 3.0003,3.0003 0 1 0 0,6 h 36.44727 a 3.0003,3.0003 0 1 0 0,-6 z m -1.7871,20 a 3.0003,3.0003 0 1 0 0,6 h 36.55468 a 3.0003,3.0003 0 1 0 0,-6 z m -2.51954,20 a 3.0003,3.0003 0 1 0 0,6 h 36.81641 a 3.0003,3.0003 0 1 0 0,-6 z m -3.18359,20 a 3.0003,3.0003 0 1 0 0,6 h 37.11523 a 3.0003,3.0003 0 1 0 0,-6 z m -3.82617,20 a 3.0003,3.0003 0 1 0 0,6 h 37.35351 a 3.0003,3.0003 0 1 0 0,-6 z M 0,1145 v 235 l 80,80 v -235 z m 286.55078,2 a 3.0003,3.0003 0 1 0 0,6 h 37.65625 a 3.0003,3.0003 0 1 0 0,-6 z m -5.10937,20 a 3.0003,3.0003 0 1 0 0,6 h 38.02343 a 3.0003,3.0003 0 1 0 0,-6 z m -5.75,20 a 3.0003,3.0003 0 1 0 0,6 h 38.44531 a 3.0003,3.0003 0 1 0 0,-6 z m -6.39649,20 a 3.0003,3.0003 0 1 0 0,6 h 38.91406 a 3.0003,3.0003 0 1 0 0,-6 z m -7.04101,20 a 3.0003,3.0003 0 1 0 0,6 h 39.39648 a 3.0003,3.0003 0 1 0 0,-6 z m -7.69141,20 a 3.0003,3.0003 0 1 0 0,6 h 39.84375 a 3.0003,3.0003 0 1 0 0,-6 z m -8.3418,20 a 3.0003,3.0003 0 1 0 0,6 h 40.33985 a 3.0003,3.0003 0 0 0 0.002,0 3.0003,3.0003 0 0 0 0.006,0 h 0.0391 a 3.0003,3.0003 0 0 0 0.16211,-5.9961 3.0003,3.0003 0 0 0 -0.17773,0 h -0.0312 z m -9,20 a 3.0003,3.0003 0 1 0 0,6 h 40.88282 a 3.0003,3.0003 0 1 0 0,-6 z m -9.66015,20 a 3.0003,3.0003 0 1 0 0,6 h 41.46289 a 3.0003,3.0003 0 1 0 0,-6 z m -9.125,20 a 3.0003,3.0003 0 1 0 0,6 h 40.87695 a 3.0003,3.0003 0 1 0 0,-6 z m 12.81836,20 a 3.0003,3.0003 0 1 0 0,6 h 17.70312 0.125 a 3.0003,3.0003 0 1 0 0,-6 h -0.125 z M 0,1459.9551 V 1660 l 80,-80 v -40.7676 z"
       id="path3811" />
  </g>
  <g
     id="use3641"
     transform="matrix(-0.12676923,0,0,-0.13039999,46.067696,93.19125)">
    <path
       fill="#ff0000"
       d="m 199.52148,0 157.66407,165.58203 25.47265,-4.90234 c 149.95785,-27.99631 296.7759,-37.13788 441.39258,-36.50977 20.65953,0.0897 41.27525,0.37782 61.84766,0.83985 l 34.47461,1.57031 L 1040.9492,0 h -90.37108 l -73.62695,108.70117 -3.26758,-0.0723 c -17.43992,-0.38354 -35.10109,-0.6067 -52.80078,-0.6836 -14.19091,-0.0617 -28.39696,-0.0289 -43.67773,0.15235 l -7.91602,0.0937 L 798.26758,0 H 696.22266 l -7.77344,110.40039 -5.35938,0.2207 c -28.90564,1.19451 -58.05762,2.96537 -87.60546,5.35938 L 589.9707,116.42773 570.95508,0 H 447.89844 l 45.31445,126.51953 -7.39062,0.95703 c -26.19409,3.39116 -52.95007,7.40266 -79.91016,12.12305 L 402.36914,140.2207 292.63281,0 Z m 108.34961,0 99.54297,127.19727 c 23.43187,-4.05137 46.64908,-7.54037 69.50196,-10.58789 L 435.15039,0 Z m 275.24414,0 16.92383,103.62695 c 25.99132,-2.04096 51.6931,-3.60588 77.18946,-4.7207 L 684.19141,0 Z m 227.57618,0 -25.73047,96.070312 c 12.29871,-0.10653 24.2951,-0.175767 35.97461,-0.125 16.66399,0.07238 33.2704,0.301981 49.72461,0.644532 L 936.08594,0 Z M 0,50 v 70 l 80,80 v -70 z m 0,150 v 109.85352 c 27.325054,-0.91104 54.013626,-3.78058 80,-8.81641 V 280 Z m 225.89844,66.74805 C 156.88675,308.02603 80.516023,327.25303 0,329.85352 v 73.93554 c 87.941567,-16.24665 143.49015,-43.18838 179.62695,-75.49414 20.79357,-18.58912 35.41481,-39.20115 46.27149,-61.54687 z M 80,404.4375 C 56.423649,412.12851 29.870302,418.72246 0,424.09375 V 435 l 80,80 z m 182.08398,104.17188 -54.92968,36.68359 c 65.5852,82.86393 109.88762,167.06245 137.03125,251.62305 L 475.10742,665.29297 365.26367,541.56055 c -34.415,-10.87756 -70.71377,-12.66012 -103.17969,-32.95117 z m 863.33402,2.24023 -42.3438,33.26953 9.8067,23.38086 h 66.5136 l -40.5117,50.64062 14.3594,21.42383 61.3808,-10.23047 -17.6699,63.61329 12.2031,12.11523 10.9825,-39.53906 -0.5957,-43.38672 -6.0684,-7.82031 -60.3711,10.0625 36.7149,-45.89453 L 1156.7402,552.5 h -60.0566 l 46.6523,-36.65625 z M 0,515 v 87.5 a 52.5,17.5 0 0 1 52.5,-17.5 52.5,17.5 0 0 1 18.664062,1.16406 z m 0,87.5 V 635 c 0,-7.26326 13.907429,-13.49298 33.710938,-16.14062 l 0.300781,-0.002 A 52.5,17.5 0 0 1 0,602.5 Z M 0,635 v 35 a 52.5,17.5 0 0 1 52.5,-17.5 52.5,17.5 0 0 1 27.5,2.61914 v -4.54492 C 72.493327,651.79671 64.012037,652.5 55,652.5 24.624339,652.5 0,644.66498 0,635 Z m 0,35 v 80 l 80,80 V 715.41406 C 73.301978,716.74411 65.642419,717.5 57.5,717.5 31.266474,717.5 10,709.66498 10,700 c 0,-5.86678 7.836947,-11.05926 19.863281,-14.23438 A 52.5,17.5 0 0 1 0,670 Z M 170.15234,567 a 3.0003,3.0003 0 1 0 0,6 h 8.42774 0.38086 a 3.0003,3.0003 0 1 0 0,-6 h -0.38086 z M 72.720703,586.35352 A 52.5,17.5 0 0 1 80,587.61914 v -1.26562 z M 146.99805,587 a 3.0003,3.0003 0 1 0 0,6 h 46.9375 0.35547 a 3.0003,3.0003 0 1 0 0,-6 h -0.35547 z m 15.47265,20 a 3.0003,3.0003 0 1 0 0,6 h 45.8418 0.32422 a 3.0003,3.0003 0 1 0 0,-6 H 208.3125 Z M 80,617.39258 a 52.5,17.5 0 0 1 -6.863281,1.16601 l 0.699219,-0.006 c 2.125467,0.24652 4.170294,0.54449 6.164062,0.86915 z M 176.95508,627 a 3.0003,3.0003 0 1 0 0,6 h 44.98242 0.29688 a 3.0003,3.0003 0 1 0 0,-6 h -0.29688 z m 13.67187,20 a 3.0003,3.0003 0 1 0 0,6 h 44.19922 0.26953 a 3.0003,3.0003 0 1 0 0,-6 h -0.26953 z m 12.8711,20 a 3.0003,3.0003 0 1 0 0,6 h 43.38086 0.25 a 3.0003,3.0003 0 1 0 0,-6 h -0.25 z m 12.07812,20 a 3.0003,3.0003 0 1 0 0,6 h 42.42188 a 3.0003,3.0003 0 1 0 0,-6 z m 597.47656,18.96094 -26.20312,6.31836 C 795.12464,737.78428 809.83353,778.76694 825,800 c 12.70132,17.78185 34.43655,42.01754 52.74805,61.55859 L 894.5293,842.71484 C 878.26925,825.06396 860.84303,805.18024 850,790 835.54393,769.76151 821.50223,731.5797 813.05273,705.96094 Z M 226.8457,707 a 3.0003,3.0003 0 1 0 0,6 h 41.58203 a 3.0003,3.0003 0 1 0 0,-6 z m 10.30664,20 a 3.0003,3.0003 0 1 0 0,6 h 41.02149 a 3.0003,3.0003 0 1 0 0,-6 z m 9.55664,20 a 3.0003,3.0003 0 1 0 0,6 h 40.4668 a 3.0003,3.0003 0 1 0 0,-6 z m 8.81446,20 a 3.0003,3.0003 0 1 0 0,6 h 39.75976 0.15625 a 3.0003,3.0003 0 1 0 0,-6 h -0.15625 z m 8.08203,20 a 3.0003,3.0003 0 1 0 0,6 h 39.14062 a 3.0003,3.0003 0 1 0 0,-6 z m 7.35351,20 a 3.0003,3.0003 0 1 0 0,6 h 38.60938 a 3.0003,3.0003 0 1 0 0,-6 z m 6.51368,20 a 3.0003,3.0003 0 1 0 0,6 h 38.26367 a 3.0003,3.0003 0 1 0 0,-6 z M 0,830 v 235 l 80,80 V 910 Z m 283.21289,17 a 3.0003,3.0003 0 1 0 0,6 h 37.80859 a 3.0003,3.0003 0 1 0 0,-6 z m 5.04297,20 a 3.0003,3.0003 0 1 0 0,6 h 37.43945 a 3.0003,3.0003 0 1 0 0,-6 z m 4.35352,20 a 3.0003,3.0003 0 1 0 0,6 h 37.15234 a 3.0003,3.0003 0 1 0 0,-6 z m 3.66796,20 a 3.0003,3.0003 0 1 0 0,6 h 36.94532 a 3.0003,3.0003 0 1 0 0,-6 z m 2.98633,20 a 3.0003,3.0003 0 1 0 0,6 h 36.62695 a 3.0003,3.0003 0 1 0 0,-6 z m 2.19727,20 a 3.0003,3.0003 0 1 0 0,6 h 36.45312 a 3.0003,3.0003 0 1 0 0,-6 z m 1.49023,20 a 3.0003,3.0003 0 1 0 0,6 h 36.39844 a 3.0003,3.0003 0 1 0 0,-6 z m 0.83008,20 a 3.0003,3.0003 0 1 0 0,6 H 340 a 3.0003,3.0003 0 1 0 0,-6 z m 0.17383,20 a 3.0003,3.0003 0 1 0 0,6 H 340 a 3.0003,3.0003 0 1 0 0,-6 z m -0.48438,20 a 3.0003,3.0003 0 1 0 0,6 h 36.41211 a 3.0003,3.0003 0 1 0 0,-6 z m -1.13672,20 a 3.0003,3.0003 0 1 0 0,6 h 36.44727 a 3.0003,3.0003 0 1 0 0,-6 z m -1.7871,20 a 3.0003,3.0003 0 1 0 0,6 h 36.55468 a 3.0003,3.0003 0 1 0 0,-6 z m -2.51954,20 a 3.0003,3.0003 0 1 0 0,6 h 36.81641 a 3.0003,3.0003 0 1 0 0,-6 z m -3.18359,20 a 3.0003,3.0003 0 1 0 0,6 h 37.11523 a 3.0003,3.0003 0 1 0 0,-6 z m -3.82617,20 a 3.0003,3.0003 0 1 0 0,6 h 37.35351 a 3.0003,3.0003 0 1 0 0,-6 z M 0,1145 v 235 l 80,80 v -235 z m 286.55078,2 a 3.0003,3.0003 0 1 0 0,6 h 37.65625 a 3.0003,3.0003 0 1 0 0,-6 z m -5.10937,20 a 3.0003,3.0003 0 1 0 0,6 h 38.02343 a 3.0003,3.0003 0 1 0 0,-6 z m -5.75,20 a 3.0003,3.0003 0 1 0 0,6 h 38.44531 a 3.0003,3.0003 0 1 0 0,-6 z m -6.39649,20 a 3.0003,3.0003 0 1 0 0,6 h 38.91406 a 3.0003,3.0003 0 1 0 0,-6 z m -7.04101,20 a 3.0003,3.0003 0 1 0 0,6 h 39.39648 a 3.0003,3.0003 0 1 0 0,-6 z m -7.69141,20 a 3.0003,3.0003 0 1 0 0,6 h 39.84375 a 3.0003,3.0003 0 1 0 0,-6 z m -8.3418,20 a 3.0003,3.0003 0 1 0 0,6 h 40.33985 a 3.0003,3.0003 0 0 0 0.002,0 3.0003,3.0003 0 0 0 0.006,0 h 0.0391 a 3.0003,3.0003 0 0 0 0.16211,-5.9961 3.0003,3.0003 0 0 0 -0.17773,0 h -0.0312 z m -9,20 a 3.0003,3.0003 0 1 0 0,6 h 40.88282 a 3.0003,3.0003 0 1 0 0,-6 z m -9.66015,20 a 3.0003,3.0003 0 1 0 0,6 h 41.46289 a 3.0003,3.0003 0 1 0 0,-6 z m -9.125,20 a 3.0003,3.0003 0 1 0 0,6 h 40.87695 a 3.0003,3.0003 0 1 0 0,-6 z m 12.81836,20 a 3.0003,3.0003 0 1 0 0,6 h 17.70312 0.125 a 3.0003,3.0003 0 1 0 0,-6 h -0.125 z M 0,1459.9551 V 1660 l 80,-80 v -40.7676 z"
       id="path3815" />
  </g>
  <g
     id="use3643"
     transform="matrix(0.12676923,0,0,0.13039999,-118.73231,-167.60874)">
    <path
       fill="#4444ff"
       d="m 509,758 c 9,0 28.31504,-1.23652 32,4 19,27 34.04704,54.14117 62,66 5.8946,2.50074 10.25821,21.90098 2,26 -38.41841,19.06926 -54.16748,-44.09457 -64,-71 -7.29748,-19.96864 -27.05442,-16.3424 -31,-17 -6,-1 -3.68742,-8 -1,-8 z m -52.66142,57.23111 c 9,0 28.31504,-1.23652 32,4 19,27 34.04704,54.14117 62,66 5.8946,2.50074 10.25821,21.90098 2,26 -38.41841,19.06926 -54.16748,-44.09457 -64,-71 -7.29748,-19.96864 -27.05442,-16.3424 -31,-17 -6,-1 -3.68742,-8 -1,-8 z m -50,50 c 9,0 28.31504,-1.23652 32,4 19,27 34.04704,54.14117 62,66 5.8946,2.50074 10.25821,21.90098 2,26 -38.41841,19.06926 -54.16748,-44.09457 -64,-71 -7.29748,-19.96864 -27.05442,-16.3424 -31,-17 -6,-1 -3.68742,-8 -1,-8 z m -35.09045,49.9176 c 7.57939,0.18799 14.95627,1.04959 17.09045,4.08236 19.00001,27 34.04704,54.14117 62,66 5.8946,2.50074 10.25821,21.90103 2,26.00003 -38.41841,19.0693 -54.16749,-44.0946 -64,-71.00003 -3.54885,-9.71099 -10.04436,-13.8418 -16.23502,-15.59885 m 4.18594,94.43338 c 7.01586,6.6818 14.83067,12.2547 24.04908,16.1655 5.89459,2.5007 10.2582,21.901 2,26 -10.87943,5.4001 -19.94095,4.2057 -27.565,-0.8923 M 697.24958,280 a 13.624805,20 0 0 1 -13.6248,20 13.624805,20 0 0 1 -13.62481,-20 13.624805,20 0 0 1 13.62481,-20 13.624805,20 0 0 1 13.6248,20 z m 162.75043,4.5064 a 12.499983,20.291776 0 0 1 -12.49999,20.29178 12.499983,20.291776 0 0 1 -12.49998,-20.29178 12.499983,20.291776 0 0 1 12.49998,-20.29178 12.499983,20.291776 0 0 1 12.49999,20.29178 z m 179.28779,309.78935 c -17.0093,-37.3226 -29.8743,-76.64471 -38.9183,-117.43495 l -19.08023,-4.55815 -3.63322,5.2579 c -8.474,12.26447 -17.41404,23.84632 -26.83922,34.71371 5.12511,82.79996 10.38084,166.89161 15.04414,237.70574 19.44237,-54.63238 44.35443,-106.74317 73.42683,-155.68425 z m 105.3118,-78.3251 55.1936,14.90547 m -55.1936,-14.90547 c 3.5097,27.01837 30.4012,77.53188 54.9427,106.16652 l 0.2509,-91.26105 M 137.56981,706.00019 c -4.34778,7.56853 -8.85478,12.68128 -13.24183,14.10728 C 109.29102,724.99519 100,709.97624 100,709.97624 l 0.0779,496.90446 c 23.97722,17.9539 45.70919,37.0813 66.05805,57.431 82.1026,-167.6265 100.65468,-356.41363 -28.56615,-558.31151 z M 100,1610 -10,1720 m 364.52828,-887.17878 141.61799,-143.82924 20.83045,22.78271 c -1.07786,-0.0888 -2.15214,-0.14044 -3.22086,-0.15555 -1.29732,-0.0183 -2.58589,0.0172 -3.86328,0.10547 -10.21915,0.70597 -19.68751,4.78712 -26.58789,11.6875 -11.54426,11.54425 -15.19004,30.27838 -8.34961,47.68555 -5.92821,-1.85933 -11.94503,-2.54172 -17.72266,-2.14258 -10.21914,0.70597 -19.68946,4.78712 -26.58984,11.6875 -9.67033,9.67033 -13.79327,24.38609 -10.85938,39.14062 -4.22585,-0.84038 -8.44886,-1.11149 -12.55078,-0.82812 -10.21914,0.70597 -19.68946,4.78712 -26.58984,11.6875 -9.61698,9.61698 -13.7484,24.22394 -10.9082,38.89648 -0.28336,-0.0598 -0.56613,-0.13305 -0.84961,-0.1875 -0.98,-0.2026 -1.97781,-0.30663 -2.97852,-0.31054 -0.86967,-0.003 -1.72346,0.068 -2.55505,0.20782 z M 1100,520 a 9.9999998,9.9999998 0 0 1 -10,10 9.9999998,9.9999998 0 0 1 -10,-10 9.9999998,9.9999998 0 0 1 10,-10 9.9999998,9.9999998 0 0 1 10,10 z m 30,65 a 9.9999998,9.9999998 0 0 1 -10,10 9.9999998,9.9999998 0 0 1 -10,-10 9.9999998,9.9999998 0 0 1 10,-10 9.9999998,9.9999998 0 0 1 10,10 z m 45,70 a 9.9999998,9.9999998 0 0 1 -10,10 9.9999998,9.9999998 0 0 1 -10,-10 9.9999998,9.9999998 0 0 1 10,-10 9.9999998,9.9999998 0 0 1 10,10 z"
       id="path3819" />
  </g>
  <g
     id="use3645"
     transform="matrix(-0.12676923,0,0,-0.13039999,46.067696,93.19125)">
    <path
       fill="#4444ff"
       d="m 509,758 c 9,0 28.31504,-1.23652 32,4 19,27 34.04704,54.14117 62,66 5.8946,2.50074 10.25821,21.90098 2,26 -38.41841,19.06926 -54.16748,-44.09457 -64,-71 -7.29748,-19.96864 -27.05442,-16.3424 -31,-17 -6,-1 -3.68742,-8 -1,-8 z m -52.66142,57.23111 c 9,0 28.31504,-1.23652 32,4 19,27 34.04704,54.14117 62,66 5.8946,2.50074 10.25821,21.90098 2,26 -38.41841,19.06926 -54.16748,-44.09457 -64,-71 -7.29748,-19.96864 -27.05442,-16.3424 -31,-17 -6,-1 -3.68742,-8 -1,-8 z m -50,50 c 9,0 28.31504,-1.23652 32,4 19,27 34.04704,54.14117 62,66 5.8946,2.50074 10.25821,21.90098 2,26 -38.41841,19.06926 -54.16748,-44.09457 -64,-71 -7.29748,-19.96864 -27.05442,-16.3424 -31,-17 -6,-1 -3.68742,-8 -1,-8 z m -35.09045,49.9176 c 7.57939,0.18799 14.95627,1.04959 17.09045,4.08236 19.00001,27 34.04704,54.14117 62,66 5.8946,2.50074 10.25821,21.90103 2,26.00003 -38.41841,19.0693 -54.16749,-44.0946 -64,-71.00003 -3.54885,-9.71099 -10.04436,-13.8418 -16.23502,-15.59885 m 4.18594,94.43338 c 7.01586,6.6818 14.83067,12.2547 24.04908,16.1655 5.89459,2.5007 10.2582,21.901 2,26 -10.87943,5.4001 -19.94095,4.2057 -27.565,-0.8923 M 697.24958,280 a 13.624805,20 0 0 1 -13.6248,20 13.624805,20 0 0 1 -13.62481,-20 13.624805,20 0 0 1 13.62481,-20 13.624805,20 0 0 1 13.6248,20 z m 162.75043,4.5064 a 12.499983,20.291776 0 0 1 -12.49999,20.29178 12.499983,20.291776 0 0 1 -12.49998,-20.29178 12.499983,20.291776 0 0 1 12.49998,-20.29178 12.499983,20.291776 0 0 1 12.49999,20.29178 z m 179.28779,309.78935 c -17.0093,-37.3226 -29.8743,-76.64471 -38.9183,-117.43495 l -19.08023,-4.55815 -3.63322,5.2579 c -8.474,12.26447 -17.41404,23.84632 -26.83922,34.71371 5.12511,82.79996 10.38084,166.89161 15.04414,237.70574 19.44237,-54.63238 44.35443,-106.74317 73.42683,-155.68425 z m 105.3118,-78.3251 55.1936,14.90547 m -55.1936,-14.90547 c 3.5097,27.01837 30.4012,77.53188 54.9427,106.16652 l 0.2509,-91.26105 M 137.56981,706.00019 c -4.34778,7.56853 -8.85478,12.68128 -13.24183,14.10728 C 109.29102,724.99519 100,709.97624 100,709.97624 l 0.0779,496.90446 c 23.97722,17.9539 45.70919,37.0813 66.05805,57.431 82.1026,-167.6265 100.65468,-356.41363 -28.56615,-558.31151 z M 100,1610 -10,1720 m 364.52828,-887.17878 141.61799,-143.82924 20.83045,22.78271 c -1.07786,-0.0888 -2.15214,-0.14044 -3.22086,-0.15555 -1.29732,-0.0183 -2.58589,0.0172 -3.86328,0.10547 -10.21915,0.70597 -19.68751,4.78712 -26.58789,11.6875 -11.54426,11.54425 -15.19004,30.27838 -8.34961,47.68555 -5.92821,-1.85933 -11.94503,-2.54172 -17.72266,-2.14258 -10.21914,0.70597 -19.68946,4.78712 -26.58984,11.6875 -9.67033,9.67033 -13.79327,24.38609 -10.85938,39.14062 -4.22585,-0.84038 -8.44886,-1.11149 -12.55078,-0.82812 -10.21914,0.70597 -19.68946,4.78712 -26.58984,11.6875 -9.61698,9.61698 -13.7484,24.22394 -10.9082,38.89648 -0.28336,-0.0598 -0.56613,-0.13305 -0.84961,-0.1875 -0.98,-0.2026 -1.97781,-0.30663 -2.97852,-0.31054 -0.86967,-0.003 -1.72346,0.068 -2.55505,0.20782 z M 1100,520 a 9.9999998,9.9999998 0 0 1 -10,10 9.9999998,9.9999998 0 0 1 -10,-10 9.9999998,9.9999998 0 0 1 10,-10 9.9999998,9.9999998 0 0 1 10,10 z m 30,65 a 9.9999998,9.9999998 0 0 1 -10,10 9.9999998,9.9999998 0 0 1 -10,-10 9.9999998,9.9999998 0 0 1 10,-10 9.9999998,9.9999998 0 0 1 10,10 z m 45,70 a 9.9999998,9.9999998 0 0 1 -10,10 9.9999998,9.9999998 0 0 1 -10,-10 9.9999998,9.9999998 0 0 1 10,-10 9.9999998,9.9999998 0 0 1 10,10 z"
       id="path3823" />
  </g>
  <g
     id="use3647"
     transform="matrix(0.12676923,0,0,0.13039999,-118.73231,-167.60874)">
    <path
       fill="#000000"
       d="m 130,1057 c -4.05697,-0.057 -4.05697,6.0574 0,6 h 60 c 4.05697,0.057 4.05697,-6.0574 0,-6 z m -10,25 c -4.05697,-0.057 -4.05697,6.0574 0,6 h 85 c 4.05697,0.057 4.05697,-6.0574 0,-6 z m -20,27 v 12 h 117.99556 l 2.32219,-12 z m 0,25 v 12 h 112.19009 l 2.61246,-12 z m 0,25 v 12 h 104.3527 l 3.77356,-12 z m 0,25 v 12 h 96.80558 l 3.48329,-12 z m 17.56086,37 h 68.50459 l 4.93466,-12 h -87.37239 z m 29.89819,25 h 27.86628 l 4.93465,-12 h -46.4438 z M 885.89844,125.00977 c -20.57241,-0.46203 -41.18813,-0.75012 -61.84766,-0.83985 -144.61668,-0.62811 -291.43473,8.51346 -441.39258,36.50977 L 356.76536,165.14144 390,200 c 167.85386,-31.33739 332.223,-38.65572 495,-35 l 35.36136,-38.40799 z m 48.58592,474.12195 c -96.95208,80.75964 -235.54034,102.4949 -377.10013,68.72074 l 43.71501,48.93565 c 123.68744,18.04212 244.25957,-3.94588 336.97192,-69.98917 z M 816.93387,960.22437 444.42427,540.61584 408.006,544.65043 795.89988,981.58838 Z M 496.14627,688.99198 354.52828,832.82122 344.45919,797.9729 475.10329,665.28888 Z M 877.7181,897.62075 c -4.42741,-4.52222 -10.57209,-10.85403 -17.54891,-18.39031 l 51.2367,-55.32553 c 6.54934,7.15907 13.21499,14.3439 19.38944,20.89501 M 192.9867,1295.5334 c 94.89675,-187.0442 116.97981,-405.54572 -39.01474,-633.20208 -4.97928,15.60172 -9.5041,32.46041 -16.21939,43.26065 129.03807,202.3061 110.48599,391.09323 29.07803,558.57083 z"
       id="path3827" />
  </g>
  <g
     id="use3649"
     transform="matrix(-0.12676923,0,0,-0.13039999,46.067696,93.19125)">
    <path
       fill="#000000"
       d="m 130,1057 c -4.05697,-0.057 -4.05697,6.0574 0,6 h 60 c 4.05697,0.057 4.05697,-6.0574 0,-6 z m -10,25 c -4.05697,-0.057 -4.05697,6.0574 0,6 h 85 c 4.05697,0.057 4.05697,-6.0574 0,-6 z m -20,27 v 12 h 117.99556 l 2.32219,-12 z m 0,25 v 12 h 112.19009 l 2.61246,-12 z m 0,25 v 12 h 104.3527 l 3.77356,-12 z m 0,25 v 12 h 96.80558 l 3.48329,-12 z m 17.56086,37 h 68.50459 l 4.93466,-12 h -87.37239 z m 29.89819,25 h 27.86628 l 4.93465,-12 h -46.4438 z M 885.89844,125.00977 c -20.57241,-0.46203 -41.18813,-0.75012 -61.84766,-0.83985 -144.61668,-0.62811 -291.43473,8.51346 -441.39258,36.50977 L 356.76536,165.14144 390,200 c 167.85386,-31.33739 332.223,-38.65572 495,-35 l 35.36136,-38.40799 z m 48.58592,474.12195 c -96.95208,80.75964 -235.54034,102.4949 -377.10013,68.72074 l 43.71501,48.93565 c 123.68744,18.04212 244.25957,-3.94588 336.97192,-69.98917 z M 816.93387,960.22437 444.42427,540.61584 408.006,544.65043 795.89988,981.58838 Z M 496.14627,688.99198 354.52828,832.82122 344.45919,797.9729 475.10329,665.28888 Z M 877.7181,897.62075 c -4.42741,-4.52222 -10.57209,-10.85403 -17.54891,-18.39031 l 51.2367,-55.32553 c 6.54934,7.15907 13.21499,14.3439 19.38944,20.89501 M 192.9867,1295.5334 c 94.89675,-187.0442 116.97981,-405.54572 -39.01474,-633.20208 -4.97928,15.60172 -9.5041,32.46041 -16.21939,43.26065 129.03807,202.3061 110.48599,391.09323 29.07803,558.57083 z"
       id="path3831" />
  </g>
  <g
     id="use3651"
     transform="matrix(0.12676923,0,0,0.13039999,-118.73231,-167.60874)">
    <path
       stroke="#4444ff"
       stroke-linecap="round"
       stroke-linejoin="round"
       stroke-width="6"
       fill="none"
       d="M 100,709.95247 V 1610 L -2.9802322e-6,1710 M 100,678.1109 v 13.91136 m 0,-46.98951 v 17.31193 m 0,-52.55406 v 14.83879 M 100,397.4104 V 594.64269 M 5.9604645e-7,5.9604645e-7 100,100 v 196.63027 m 0.15582,910.64513 c 107.99697,79.3471 171.73737,190.7171 199.48574,315.9144 M 207.29978,545.26132 C 445.37608,846.844 403.68199,1165.6564 260.67471,1405.6063 M 358.17377,1166.6171 653.7044,866.47198 M 365.26366,541.56136 774.86501,1002.9514 M 650,870.23634 V 1005 M 635,885.46875 V 1120.8047 M 620.00001,900.70314 620,1103.9082 m -15.00002,-187.97073 10e-6,171.07423 M 590,931.17188 V 1070.1152 M 575,946.40625 v 106.81255 m -15,-91.57818 -2e-5,74.68158 m -14.99996,-59.44717 -10e-6,42.55077 M 530,992.10938 v 10.41992 M 408.006,544.65043 795.89988,981.58838 M 444.42427,540.61584 816.93387,960.22437 M 368.80053,1110.7498 632.66142,842.76889 M 354.52828,832.82122 496.14627,688.99198 M 344.45919,797.9729 475.10329,665.28888 M 144.449,587.03401 262.0846,508.61027 m 678.01621,-48.1592 259.69239,70.42505 m -317.74426,-6.33574 c -41.33296,34.61757 -88.82013,55.86397 -141.03332,63.69595 -77.19506,11.57926 -165.24623,-6.43541 -258.69921,-56.45334 m -29.28845,6.58706 c 103.51317,59.81338 202.90746,82.85096 290.95642,69.64362 86.56533,-12.9848 161.58423,-61.30369 217.21688,-141.82113 m -110.7899,57.63645 C 816.55024,547.59478 778.9452,562.32257 738.04883,568.45703 669.735,578.7041 590.81405,564.2411 505.55124,521.31672 m 51.83299,146.53574 c 141.55979,33.77416 280.14805,12.0389 377.10013,-68.72074 m -3.60744,-65.10094 17.16427,274.62827 m 2.7251,-296.39834 c 5.17585,82.81351 10.43158,166.90516 14.86149,237.78369 M 601.09924,716.78811 c 123.68744,18.04212 244.25957,-3.94588 336.97192,-69.98917 M 760.13342,716.92782 C 767.96747,741.66243 783.7206,787.20884 800,810 c 19.66187,27.52662 60.97272,70.51679 77.7181,87.62075 M 786.84881,712.27861 C 795.12384,737.78359 809.83353,778.76694 825,800 c 12.46408,17.44971 33.62796,41.11357 51.71868,60.45788 M 813.05336,705.96085 C 821.50286,731.57961 835.54393,769.76151 850,790 c 10.84303,15.18024 28.27005,35.06333 44.5301,52.71421 M 838.64153,697.7371 C 847.14502,723.31589 860.87439,760.22415 875,780 c 13.41381,18.77933 36.90372,44.75588 55.79533,64.79992 M 153.97196,662.33132 C 309.96651,889.98768 287.88345,1108.4892 192.9867,1295.5334 M 1199.9275,715.50663 c -53.2268,-48.04534 -91.438,-105.97498 -116.8533,-171.3872 -6.2732,-16.14554 -11.7668,-32.74695 -16.5142,-49.76812 m 132.2628,259.68052 c -86.1222,-69.992 -139.2213,-162.65707 -165.4804,-268.01186 m 111.2572,29.95068 c 3.5097,27.01837 30.4012,77.53188 54.9427,106.16652 M 80,240 -2.9802322e-7,160 M 0,120 80,200 M 80,280 -2.9802322e-7,200 M 80,555 -2.9802322e-7,475 M 0,435 80,515 M 80,870 -2.9802322e-7,790 M 0,750 80,830 M 80,910 -2.9802322e-7,830 M 80,1185 -2.9802322e-7,1105 M 0,1065 l 80,80 m 0,80 L -2.9802322e-7,1145 M 80,1500 -2.9802322e-7,1420 M 0,1380 l 80,80 m 0,80 L -2.9802322e-7,1460 M 80,715.82616 V 1580 L -5.9604645e-7,1660 M 80,404.21152 V 586.91415 M 0,50 80,130 v 170.95825 m 512.66142,581.81064 -100,-110 c -20,-30 10,-60 40,-40 l 100,110 M 538.52391,938.3763 440,830 c -20,-30 10,-60 40,-40 l 98.19272,108.01199 M 488.88488,988.77337 390,880 c -20,-30 10,-60 40,-40 l 98.60644,108.46709 M 366.05543,884.0823 c 4.51896,0.86788 9.23176,2.77583 13.94457,5.9177 l 98.88554,108.77409 m -39.62634,40.41101 -62.91781,-69.20957 m 0.51486,21.56635 52.37077,57.60782 m -39.89231,40.1185 -15.594,-17.1534 M 516.97672,711.77469 c -1.07786,-0.0888 -2.15214,-0.14044 -3.22086,-0.15555 -1.29732,-0.0183 -2.58589,0.0172 -3.86328,0.10547 -10.21915,0.70597 -19.68751,4.78712 -26.58789,11.6875 -11.54426,11.54425 -15.19004,30.27838 -8.34961,47.68555 -5.92821,-1.85933 -11.94503,-2.54172 -17.72266,-2.14258 -10.21914,0.70597 -19.68946,4.78712 -26.58984,11.6875 -9.67033,9.67033 -13.79327,24.38609 -10.85938,39.14062 -4.22585,-0.84038 -8.44886,-1.11149 -12.55078,-0.82812 -10.21914,0.70597 -19.68946,4.78712 -26.58984,11.6875 -9.61698,9.61698 -13.7484,24.22394 -10.9082,38.89648 -0.28336,-0.0598 -0.56613,-0.13305 -0.84961,-0.1875 -0.98,-0.2026 -1.97781,-0.30663 -2.97852,-0.31054 -0.86967,-0.003 -1.72346,0.068 -2.55505,0.20782 m 548.14988,-45.14285 -51.30095,54.9653 M 848.93018,726.39834 c 30.43795,-14.24358 60.78089,-29.93562 91.00079,-47.50301 m -79.70245,74.22789 c 27.32544,-12.6791 54.57526,-26.51104 81.72919,-41.80447 m -67.89022,67.34248 c 23.36041,-10.81061 46.66577,-22.46044 69.90343,-35.14229 m -51.5463,58.58272 c 17.88294,-8.33956 35.73325,-17.17657 53.54525,-26.59757 m -33.55642,49.25769 c 11.86215,-5.5956 23.70971,-11.41378 35.541,-17.47981 m -27.99635,48.2721 c 6.27161,-2.87531 12.53932,-5.81026 18.80286,-8.80858 M 848.07126,724.08555 890,690 839.65088,700.6266 M 859.68627,751.83731 905,715 852.30913,726.12084 M 873.5528,777.75883 920,740 867.30913,751.12084 M 891.24185,800.57275 935,765 882.30913,776.12084 m 64.60704,14.53004 -49.60704,10.46996 m 12.97379,21.16674 36.74254,-29.86946 m -2.45175,27.94831 -27.26458,5.75441 m 4.56737,28.00068 18.25945,-14.84384 M 796.74486,810.82551 735,805 785,785 M 816.74486,835.82551 755,830 800.99542,811.60183 M 836.74486,860.82549 775,855 821.29268,836.48293 M 856.74486,885.82551 795,880 843.07627,860.76949 M 865.48731,910.23512 810,905 860,885 M 771.87513,751.15652 c -45.67506,6.44339 -87.51951,11.32255 -128.23276,13.29279 M 771.74486,750.82551 710,745 760,725 m 24.46281,56.69083 c -37.55991,5.86588 -76.03653,10.14182 -115.74062,12.28875 M 783.92844,780.55979 725,775 773.66615,755.53354 m 26.87701,55.19261 c -34.2109,5.51232 -69.17229,9.72296 -105.12088,12.22137 -0.11275,0.008 -0.22552,0.0157 -0.33829,0.0235 m 125.47846,12.75202 c -33.67312,5.42619 -68.07331,9.59137 -103.42624,12.10401 m 125.32413,12.5887 c -33.62642,5.4703 -67.97482,9.68837 -103.27051,12.26341 M 865,885 c -33.78449,5.56514 -68.2936,9.87349 -103.75657,12.52741 m 102.93184,14.97771 c -26.5723,4.03432 -53.60856,7.26393 -81.21807,9.49927 m 49.58189,22.2101 c -9.11779,0.98051 -18.29553,1.85704 -27.53732,2.62246 M 845.62647,931.47433 830,930 857.64283,918.94287 M 137.75257,705.59197 c 129.03807,202.3061 110.48599,391.09323 29.07803,558.57083 M 144.66368,587.05011 c 211.43274,263.85053 187.39438,526.87369 72.80724,741.45849 m 23.22689,36.9821 C 368.26421,1137.3105 400.01617,847.83877 175.71998,566.27445 m -30.93979,20.8572 C 356.09642,850.90064 332.05806,1113.9238 217.8535,1328.8699 M 176.02029,566.162 c 223.99588,281.67677 192.24392,571.1485 64.81741,798.8243 M 100,710 c 0,0 9.29102,14.99519 24.32798,10.10747 C 139.66775,715.12132 156.474,665.06009 155,640 c -1.46792,-24.95687 -15,-65 -15,-70 0,-5 1.90858,-14.69086 1.90858,-34.69086 0,-30 -31.90858,-45.30914 -34.07257,-2.52687 C 107.2092,545.17432 110,550 115,565 m 0,0 c -0.67582,4.55173 -10,15 -10,20 0,20 8.28635,22.80911 8.28635,22.80911 M 0,602.5 A 52.5,17.5 0 0 1 52.5,585 52.5,17.5 0 0 1 105,602.5 52.5,17.5 0 0 1 52.5,620 52.5,17.5 0 0 1 0,602.5 M 0,635 c 0,0 0,0 0,0 0,-7.26326 13.906764,-13.49304 33.710273,-16.14069 m 40.126321,-0.30605 C 94.935161,621.00027 110,627.44036 110,635 c 0,9.66498 -24.624339,17.5 -55,17.5 -30.375661,0 -55,-7.83502 -55,-17.5 m 0,35 A 52.5,17.5 0 0 1 52.5,652.5 52.5,17.5 0 0 1 105,670 52.5,17.5 0 0 1 52.5,687.5 52.5,17.5 0 0 1 0,670 m 81.190615,14.82855 C 95.42114,687.85126 105,693.5135 105,700 c 0,9.66498 -21.266474,17.5 -47.5,17.5 -26.233526,0 -47.5,-7.83502 -47.5,-17.5 0,-5.87034 7.845484,-11.06558 19.884218,-14.24016 M 71.353778,586.35378 1.8096853e-5,515.00002 M 0.01954654,309.85484 C 97.553847,306.60681 187.04569,278.57823 265,215 242.58207,308.96614 186.5467,390.54153 0.19208181,424.08377 M 0.02611495,329.86514 C 80.533659,327.26172 156.89334,308.02209 225.89844,266.74805 215.04176,289.09377 200.42052,309.7058 179.62695,328.29492 143.53144,360.56376 88.070217,387.48097 0.3030741,403.73347 M 403.78383,197.62419 C 336.26254,339.65518 347.37034,430.78708 320,465 c -20,25 -55,30 -55,0 0,-35 34.89995,-14.62572 35,-10 M 420.14983,194.7359 C 350.94562,338.29848 360.63805,429.10673 335,465 c -25,35 -70,30 -70,0 M 436.41732,192.11036 C 365.77167,337.15433 375.05923,428.37497 350,465 c -65,95 -110,35 -110,0 0,-75 90,-50 85,-10 M 452.66924,189.51025 C 380.3287,335.87349 384.96411,425.07179 365,465 c -20,40 -77.60248,65.60999 -94.57243,48.74508 M 468.76283,187.3051 C 395.28161,334.97808 400.06417,424.87166 380,465 c -20,40 -64.49987,68.13553 -85,55 M 484.86189,185.0972 C 410.17626,334.00089 413.8917,422.78304 398.06034,465 c -15,40 -63.99783,80.55502 -88.06034,60 M 500.98907,182.86551 C 425.26914,333.18324 432.82673,424.62811 416.12069,466.74877 395,520 361.55589,552.64659 333.87298,532.76206 M 517.08318,180.7002 C 440.17534,332.31117 447.07596,424.66245 433.30665,468.06034 420,510 385.05006,555.51218 355.84466,537.64093 M 532.95278,178.99081 C 455.14049,331.61469 463.1489,424.34891 453.11576,468.93473 445,505 414.57664,561.0215 378.60909,540.43286 M 548.83217,177.27211 C 470.16595,330.96483 486.95731,428.90208 472.48768,472.43227 460,510 433.17716,553.42269 404.18658,543.70568 M 564.71321,175.55622 C 485.04614,330.22679 504.28597,424.83822 496.66872,470.24631 490,510 460.57216,546.71261 428.47424,539.87503 M 580,175 C 500,330 527.49789,425.817 516.91502,470.6835 510,500 488.83632,539.01648 459.3735,536.33341 M 595,175 c -80,155 -40.20318,258.59763 -57.40148,301.367 -14.96324,37.21112 -34.46264,50.38617 -51.88548,51.96249 M 872.92278,165.36952 C 878.47536,185.24409 890,227.40901 890,235 c 0,10 -10,40 -10,55 0,15 -10,70 -20,95 -10,25 -45,90 -50,100 -5,10 -9.80911,39.56281 -24.80911,44.56281 C 770.19089,534.56281 735,550 720,540 c -15,-10 -20,-15 -30,-15 -10,0 -30,5 -45,0 -15,-5 -85,-15 -90,-30 -4.37927,-13.20852 -10,-20 -12.37685,-37.81404 M 600,250 c 38.33434,-16.37294 66.18557,-53.25333 135,-10 v 0 l -5,5 c -36.11885,-35.30746 -82.46014,-18.22506 -130,5 v 0 m 285,-10 c -35,-15 -45,-30 -95,5 v 0 c 30,-15 66.71102,-25.58291 95,-5 v 0 m -95,5 c -5.6154,2.79579 -7.25819,21.1243 -5,30 2.46569,9.69125 15,50 15,60 0,10 8.93473,52.18596 8.93473,57.18596 C 808.93473,402.18596 790,410 775,410 m -35,-40 c -20.80837,1.70765 -37.88441,39.0889 9.3165,31.367 C 779.33131,396.45667 760,390 730,400 m -35,40 v 15 l 10,-10 -10,-5 v 0 m 110,-5 -5,10 -10,-5 15,-5 v 0 m -105,10 c 15,0 30,-10 35,-10 5,0 15,10 20,10 5,0 15,-10 20,-10 5,0 10,5 15,5 m -55,30 c 10.01679,10.83217 40,15 40,-10 M 595,285 c 35,5 80,-30 120,-30 m -80,25 c -5,15 55,25 70,15 15,-10 20,-5 20,-5 m 65.92308,-4.73452 c 20,0 52.33169,-22.79967 70,-25 17.66831,-2.20033 20,10 20,10 M 790,285 c 20,10 33.07061,20 52.77504,20 C 862.47948,305 880,290 880,290 m 2.739,-123.7807 C 916.80465,221.49072 899.28677,285.40768 900,345 c 0.8771,16.2765 15,10 20,5 M 875.87082,322.90274 C 862.67976,401.7494 940,392.04303 940,350 c 0,-40 -40,-25 -40,-5 m -5,35 c 0,45 20,70 35,45 M 863.25836,377.67781 C 863.1492,465.86053 958.06226,484.49806 950,420 c -5,-40 -50,-20 -49.35411,-3.3237 m -50.93616,-7.25685 C 853.6922,459.1525 893.43355,482.28636 925,470 c 18.6631,-7.26409 21.41954,-17.96959 21.12553,-24.43459 M 836.38083,435.22668 C 844.55434,477.95113 902.81586,504.1707 930,470 M 826.95836,452.9799 c 9.23009,40.69099 44.6545,58.76253 73.33191,47.60065 9.37718,-3.78954 17.97636,-11.41482 19.48762,-21.62957 M 818.48383,468.74467 c 11.12771,36.61173 44.52103,52.45596 71.80644,41.83588 10.07967,-3.92323 15.51949,-8.85029 18.34481,-13.57099 m -99.20619,-10.35763 c 6.14859,37.14216 80.06298,56.92175 91.04012,18.90786 m 19.69043,-379.7803 -34.261,-0.76972 c -20.57241,-0.46203 -41.18813,-0.75012 -61.84766,-0.83985 -144.61668,-0.62811 -291.43473,8.51346 -441.39258,36.50977 l -25.62291,4.78298 M 199.52363,-1.861155e-4 390,200 C 557.85386,168.66261 722.223,161.34428 885,165 L 1041.0815,-4.7504902e-4 M 472.32911,571.72521 c 96.1261,49.65099 189.63098,68.81642 274.62206,56.06776 92.08707,-13.81305 172.41975,-65.87574 230.70508,-150.23242 l 3.63322,-5.2579"
       id="path3835" />
  </g>
  <g
     id="use3653"
     transform="matrix(-0.12676923,0,0,-0.13039999,46.067696,93.19125)">
    <path
       stroke="#4444ff"
       stroke-linecap="round"
       stroke-linejoin="round"
       stroke-width="6"
       fill="none"
       d="M 100,709.95247 V 1610 L -2.9802322e-6,1710 M 100,678.1109 v 13.91136 m 0,-46.98951 v 17.31193 m 0,-52.55406 v 14.83879 M 100,397.4104 V 594.64269 M 5.9604645e-7,5.9604645e-7 100,100 v 196.63027 m 0.15582,910.64513 c 107.99697,79.3471 171.73737,190.7171 199.48574,315.9144 M 207.29978,545.26132 C 445.37608,846.844 403.68199,1165.6564 260.67471,1405.6063 M 358.17377,1166.6171 653.7044,866.47198 M 365.26366,541.56136 774.86501,1002.9514 M 650,870.23634 V 1005 M 635,885.46875 V 1120.8047 M 620.00001,900.70314 620,1103.9082 m -15.00002,-187.97073 10e-6,171.07423 M 590,931.17188 V 1070.1152 M 575,946.40625 v 106.81255 m -15,-91.57818 -2e-5,74.68158 m -14.99996,-59.44717 -10e-6,42.55077 M 530,992.10938 v 10.41992 M 408.006,544.65043 795.89988,981.58838 M 444.42427,540.61584 816.93387,960.22437 M 368.80053,1110.7498 632.66142,842.76889 M 354.52828,832.82122 496.14627,688.99198 M 344.45919,797.9729 475.10329,665.28888 M 144.449,587.03401 262.0846,508.61027 m 678.01621,-48.1592 259.69239,70.42505 m -317.74426,-6.33574 c -41.33296,34.61757 -88.82013,55.86397 -141.03332,63.69595 -77.19506,11.57926 -165.24623,-6.43541 -258.69921,-56.45334 m -29.28845,6.58706 c 103.51317,59.81338 202.90746,82.85096 290.95642,69.64362 86.56533,-12.9848 161.58423,-61.30369 217.21688,-141.82113 m -110.7899,57.63645 C 816.55024,547.59478 778.9452,562.32257 738.04883,568.45703 669.735,578.7041 590.81405,564.2411 505.55124,521.31672 m 51.83299,146.53574 c 141.55979,33.77416 280.14805,12.0389 377.10013,-68.72074 m -3.60744,-65.10094 17.16427,274.62827 m 2.7251,-296.39834 c 5.17585,82.81351 10.43158,166.90516 14.86149,237.78369 M 601.09924,716.78811 c 123.68744,18.04212 244.25957,-3.94588 336.97192,-69.98917 M 760.13342,716.92782 C 767.96747,741.66243 783.7206,787.20884 800,810 c 19.66187,27.52662 60.97272,70.51679 77.7181,87.62075 M 786.84881,712.27861 C 795.12384,737.78359 809.83353,778.76694 825,800 c 12.46408,17.44971 33.62796,41.11357 51.71868,60.45788 M 813.05336,705.96085 C 821.50286,731.57961 835.54393,769.76151 850,790 c 10.84303,15.18024 28.27005,35.06333 44.5301,52.71421 M 838.64153,697.7371 C 847.14502,723.31589 860.87439,760.22415 875,780 c 13.41381,18.77933 36.90372,44.75588 55.79533,64.79992 M 153.97196,662.33132 C 309.96651,889.98768 287.88345,1108.4892 192.9867,1295.5334 M 1199.9275,715.50663 c -53.2268,-48.04534 -91.438,-105.97498 -116.8533,-171.3872 -6.2732,-16.14554 -11.7668,-32.74695 -16.5142,-49.76812 m 132.2628,259.68052 c -86.1222,-69.992 -139.2213,-162.65707 -165.4804,-268.01186 m 111.2572,29.95068 c 3.5097,27.01837 30.4012,77.53188 54.9427,106.16652 M 80,240 -2.9802322e-7,160 M 0,120 80,200 M 80,280 -2.9802322e-7,200 M 80,555 -2.9802322e-7,475 M 0,435 80,515 M 80,870 -2.9802322e-7,790 M 0,750 80,830 M 80,910 -2.9802322e-7,830 M 80,1185 -2.9802322e-7,1105 M 0,1065 l 80,80 m 0,80 L -2.9802322e-7,1145 M 80,1500 -2.9802322e-7,1420 M 0,1380 l 80,80 m 0,80 L -2.9802322e-7,1460 M 80,715.82616 V 1580 L -5.9604645e-7,1660 M 80,404.21152 V 586.91415 M 0,50 80,130 v 170.95825 m 512.66142,581.81064 -100,-110 c -20,-30 10,-60 40,-40 l 100,110 M 538.52391,938.3763 440,830 c -20,-30 10,-60 40,-40 l 98.19272,108.01199 M 488.88488,988.77337 390,880 c -20,-30 10,-60 40,-40 l 98.60644,108.46709 M 366.05543,884.0823 c 4.51896,0.86788 9.23176,2.77583 13.94457,5.9177 l 98.88554,108.77409 m -39.62634,40.41101 -62.91781,-69.20957 m 0.51486,21.56635 52.37077,57.60782 m -39.89231,40.1185 -15.594,-17.1534 M 516.97672,711.77469 c -1.07786,-0.0888 -2.15214,-0.14044 -3.22086,-0.15555 -1.29732,-0.0183 -2.58589,0.0172 -3.86328,0.10547 -10.21915,0.70597 -19.68751,4.78712 -26.58789,11.6875 -11.54426,11.54425 -15.19004,30.27838 -8.34961,47.68555 -5.92821,-1.85933 -11.94503,-2.54172 -17.72266,-2.14258 -10.21914,0.70597 -19.68946,4.78712 -26.58984,11.6875 -9.67033,9.67033 -13.79327,24.38609 -10.85938,39.14062 -4.22585,-0.84038 -8.44886,-1.11149 -12.55078,-0.82812 -10.21914,0.70597 -19.68946,4.78712 -26.58984,11.6875 -9.61698,9.61698 -13.7484,24.22394 -10.9082,38.89648 -0.28336,-0.0598 -0.56613,-0.13305 -0.84961,-0.1875 -0.98,-0.2026 -1.97781,-0.30663 -2.97852,-0.31054 -0.86967,-0.003 -1.72346,0.068 -2.55505,0.20782 m 548.14988,-45.14285 -51.30095,54.9653 M 848.93018,726.39834 c 30.43795,-14.24358 60.78089,-29.93562 91.00079,-47.50301 m -79.70245,74.22789 c 27.32544,-12.6791 54.57526,-26.51104 81.72919,-41.80447 m -67.89022,67.34248 c 23.36041,-10.81061 46.66577,-22.46044 69.90343,-35.14229 m -51.5463,58.58272 c 17.88294,-8.33956 35.73325,-17.17657 53.54525,-26.59757 m -33.55642,49.25769 c 11.86215,-5.5956 23.70971,-11.41378 35.541,-17.47981 m -27.99635,48.2721 c 6.27161,-2.87531 12.53932,-5.81026 18.80286,-8.80858 M 848.07126,724.08555 890,690 839.65088,700.6266 M 859.68627,751.83731 905,715 852.30913,726.12084 M 873.5528,777.75883 920,740 867.30913,751.12084 M 891.24185,800.57275 935,765 882.30913,776.12084 m 64.60704,14.53004 -49.60704,10.46996 m 12.97379,21.16674 36.74254,-29.86946 m -2.45175,27.94831 -27.26458,5.75441 m 4.56737,28.00068 18.25945,-14.84384 M 796.74486,810.82551 735,805 785,785 M 816.74486,835.82551 755,830 800.99542,811.60183 M 836.74486,860.82549 775,855 821.29268,836.48293 M 856.74486,885.82551 795,880 843.07627,860.76949 M 865.48731,910.23512 810,905 860,885 M 771.87513,751.15652 c -45.67506,6.44339 -87.51951,11.32255 -128.23276,13.29279 M 771.74486,750.82551 710,745 760,725 m 24.46281,56.69083 c -37.55991,5.86588 -76.03653,10.14182 -115.74062,12.28875 M 783.92844,780.55979 725,775 773.66615,755.53354 m 26.87701,55.19261 c -34.2109,5.51232 -69.17229,9.72296 -105.12088,12.22137 -0.11275,0.008 -0.22552,0.0157 -0.33829,0.0235 m 125.47846,12.75202 c -33.67312,5.42619 -68.07331,9.59137 -103.42624,12.10401 m 125.32413,12.5887 c -33.62642,5.4703 -67.97482,9.68837 -103.27051,12.26341 M 865,885 c -33.78449,5.56514 -68.2936,9.87349 -103.75657,12.52741 m 102.93184,14.97771 c -26.5723,4.03432 -53.60856,7.26393 -81.21807,9.49927 m 49.58189,22.2101 c -9.11779,0.98051 -18.29553,1.85704 -27.53732,2.62246 M 845.62647,931.47433 830,930 857.64283,918.94287 M 137.75257,705.59197 c 129.03807,202.3061 110.48599,391.09323 29.07803,558.57083 M 144.66368,587.05011 c 211.43274,263.85053 187.39438,526.87369 72.80724,741.45849 m 23.22689,36.9821 C 368.26421,1137.3105 400.01617,847.83877 175.71998,566.27445 m -30.93979,20.8572 C 356.09642,850.90064 332.05806,1113.9238 217.8535,1328.8699 M 176.02029,566.162 c 223.99588,281.67677 192.24392,571.1485 64.81741,798.8243 M 100,710 c 0,0 9.29102,14.99519 24.32798,10.10747 C 139.66775,715.12132 156.474,665.06009 155,640 c -1.46792,-24.95687 -15,-65 -15,-70 0,-5 1.90858,-14.69086 1.90858,-34.69086 0,-30 -31.90858,-45.30914 -34.07257,-2.52687 C 107.2092,545.17432 110,550 115,565 m 0,0 c -0.67582,4.55173 -10,15 -10,20 0,20 8.28635,22.80911 8.28635,22.80911 M 0,602.5 A 52.5,17.5 0 0 1 52.5,585 52.5,17.5 0 0 1 105,602.5 52.5,17.5 0 0 1 52.5,620 52.5,17.5 0 0 1 0,602.5 M 0,635 c 0,0 0,0 0,0 0,-7.26326 13.906764,-13.49304 33.710273,-16.14069 m 40.126321,-0.30605 C 94.935161,621.00027 110,627.44036 110,635 c 0,9.66498 -24.624339,17.5 -55,17.5 -30.375661,0 -55,-7.83502 -55,-17.5 m 0,35 A 52.5,17.5 0 0 1 52.5,652.5 52.5,17.5 0 0 1 105,670 52.5,17.5 0 0 1 52.5,687.5 52.5,17.5 0 0 1 0,670 m 81.190615,14.82855 C 95.42114,687.85126 105,693.5135 105,700 c 0,9.66498 -21.266474,17.5 -47.5,17.5 -26.233526,0 -47.5,-7.83502 -47.5,-17.5 0,-5.87034 7.845484,-11.06558 19.884218,-14.24016 M 71.353778,586.35378 1.8096853e-5,515.00002 M 0.01954654,309.85484 C 97.553847,306.60681 187.04569,278.57823 265,215 242.58207,308.96614 186.5467,390.54153 0.19208181,424.08377 M 0.02611495,329.86514 C 80.533659,327.26172 156.89334,308.02209 225.89844,266.74805 215.04176,289.09377 200.42052,309.7058 179.62695,328.29492 143.53144,360.56376 88.070217,387.48097 0.3030741,403.73347 M 403.78383,197.62419 C 336.26254,339.65518 347.37034,430.78708 320,465 c -20,25 -55,30 -55,0 0,-35 34.89995,-14.62572 35,-10 M 420.14983,194.7359 C 350.94562,338.29848 360.63805,429.10673 335,465 c -25,35 -70,30 -70,0 M 436.41732,192.11036 C 365.77167,337.15433 375.05923,428.37497 350,465 c -65,95 -110,35 -110,0 0,-75 90,-50 85,-10 M 452.66924,189.51025 C 380.3287,335.87349 384.96411,425.07179 365,465 c -20,40 -77.60248,65.60999 -94.57243,48.74508 M 468.76283,187.3051 C 395.28161,334.97808 400.06417,424.87166 380,465 c -20,40 -64.49987,68.13553 -85,55 M 484.86189,185.0972 C 410.17626,334.00089 413.8917,422.78304 398.06034,465 c -15,40 -63.99783,80.55502 -88.06034,60 M 500.98907,182.86551 C 425.26914,333.18324 432.82673,424.62811 416.12069,466.74877 395,520 361.55589,552.64659 333.87298,532.76206 M 517.08318,180.7002 C 440.17534,332.31117 447.07596,424.66245 433.30665,468.06034 420,510 385.05006,555.51218 355.84466,537.64093 M 532.95278,178.99081 C 455.14049,331.61469 463.1489,424.34891 453.11576,468.93473 445,505 414.57664,561.0215 378.60909,540.43286 M 548.83217,177.27211 C 470.16595,330.96483 486.95731,428.90208 472.48768,472.43227 460,510 433.17716,553.42269 404.18658,543.70568 M 564.71321,175.55622 C 485.04614,330.22679 504.28597,424.83822 496.66872,470.24631 490,510 460.57216,546.71261 428.47424,539.87503 M 580,175 C 500,330 527.49789,425.817 516.91502,470.6835 510,500 488.83632,539.01648 459.3735,536.33341 M 595,175 c -80,155 -40.20318,258.59763 -57.40148,301.367 -14.96324,37.21112 -34.46264,50.38617 -51.88548,51.96249 M 872.92278,165.36952 C 878.47536,185.24409 890,227.40901 890,235 c 0,10 -10,40 -10,55 0,15 -10,70 -20,95 -10,25 -45,90 -50,100 -5,10 -9.80911,39.56281 -24.80911,44.56281 C 770.19089,534.56281 735,550 720,540 c -15,-10 -20,-15 -30,-15 -10,0 -30,5 -45,0 -15,-5 -85,-15 -90,-30 -4.37927,-13.20852 -10,-20 -12.37685,-37.81404 M 600,250 c 38.33434,-16.37294 66.18557,-53.25333 135,-10 v 0 l -5,5 c -36.11885,-35.30746 -82.46014,-18.22506 -130,5 v 0 m 285,-10 c -35,-15 -45,-30 -95,5 v 0 c 30,-15 66.71102,-25.58291 95,-5 v 0 m -95,5 c -5.6154,2.79579 -7.25819,21.1243 -5,30 2.46569,9.69125 15,50 15,60 0,10 8.93473,52.18596 8.93473,57.18596 C 808.93473,402.18596 790,410 775,410 m -35,-40 c -20.80837,1.70765 -37.88441,39.0889 9.3165,31.367 C 779.33131,396.45667 760,390 730,400 m -35,40 v 15 l 10,-10 -10,-5 v 0 m 110,-5 -5,10 -10,-5 15,-5 v 0 m -105,10 c 15,0 30,-10 35,-10 5,0 15,10 20,10 5,0 15,-10 20,-10 5,0 10,5 15,5 m -55,30 c 10.01679,10.83217 40,15 40,-10 M 595,285 c 35,5 80,-30 120,-30 m -80,25 c -5,15 55,25 70,15 15,-10 20,-5 20,-5 m 65.92308,-4.73452 c 20,0 52.33169,-22.79967 70,-25 17.66831,-2.20033 20,10 20,10 M 790,285 c 20,10 33.07061,20 52.77504,20 C 862.47948,305 880,290 880,290 m 2.739,-123.7807 C 916.80465,221.49072 899.28677,285.40768 900,345 c 0.8771,16.2765 15,10 20,5 M 875.87082,322.90274 C 862.67976,401.7494 940,392.04303 940,350 c 0,-40 -40,-25 -40,-5 m -5,35 c 0,45 20,70 35,45 M 863.25836,377.67781 C 863.1492,465.86053 958.06226,484.49806 950,420 c -5,-40 -50,-20 -49.35411,-3.3237 m -50.93616,-7.25685 C 853.6922,459.1525 893.43355,482.28636 925,470 c 18.6631,-7.26409 21.41954,-17.96959 21.12553,-24.43459 M 836.38083,435.22668 C 844.55434,477.95113 902.81586,504.1707 930,470 M 826.95836,452.9799 c 9.23009,40.69099 44.6545,58.76253 73.33191,47.60065 9.37718,-3.78954 17.97636,-11.41482 19.48762,-21.62957 M 818.48383,468.74467 c 11.12771,36.61173 44.52103,52.45596 71.80644,41.83588 10.07967,-3.92323 15.51949,-8.85029 18.34481,-13.57099 m -99.20619,-10.35763 c 6.14859,37.14216 80.06298,56.92175 91.04012,18.90786 m 19.69043,-379.7803 -34.261,-0.76972 c -20.57241,-0.46203 -41.18813,-0.75012 -61.84766,-0.83985 -144.61668,-0.62811 -291.43473,8.51346 -441.39258,36.50977 l -25.62291,4.78298 M 199.52363,-1.861155e-4 390,200 C 557.85386,168.66261 722.223,161.34428 885,165 L 1041.0815,-4.7504902e-4 M 472.32911,571.72521 c 96.1261,49.65099 189.63098,68.81642 274.62206,56.06776 92.08707,-13.81305 172.41975,-65.87574 230.70508,-150.23242 l 3.63322,-5.2579"
       id="path3839" />
  </g>
  <g
     id="use3655"
     transform="matrix(0.12676923,0,0,0.13039999,-118.73231,-167.60874)">
    <path
       stroke="#4444ff"
       stroke-linecap="round"
       stroke-linejoin="round"
       stroke-width="3"
       fill="none"
       d="m 85,590 c -4.700789,8.72507 -5.186787,17.0989 0,25 m 3.710078,6.88418 c -4.700789,8.72507 -5.186787,17.0989 0,25 m 0,10 c -4.700789,8.72507 -5.186787,17.0989 0,25 m 0,5 c -4.700789,8.72507 -5.186787,17.0989 0,25 M 130,510 c 0,25 10,30 10,30 m -89.072313,57.4996 c -1.13052,2.57966 -1.33893,5.77405 0,10 m 0,23.02404 c -1.13052,2.57966 -1.33893,5.77405 0,10 m 0,24.47596 c -1.13052,2.57966 -1.33893,5.77405 0,10 m 0,25.0004 c -1.13052,2.57966 -1.33893,5.77405 0,10 m 0,-13.84068 c -1.13052,2.57966 -1.33893,5.77405 0,10 M 725,500 c 25,-10 40,-10 50,-5 M 705,255 c -30,-20 -60.95115,-7.27972 -90,15 m 170,5 c 24.49605,-30.28885 50.8757,-35.96138 70,-25 m -162.45974,8.60402 c 5.79878,4.0092 9.63542,10.97454 9.63542,18.89598 0,12.42641 -9.44135,22.5 -21.08785,22.5 -11.6465,0 -21.08785,-10.07359 -21.08785,-22.5 0,-3.28538 0.65995,-6.40629 1.84613,-9.22005 m 191.2777,-6.54105 c 6.97583,3.39911 11.87622,11.41458 11.87622,20.7611 0,12.42641 -8.66208,22.5 -19.34729,22.5 -10.68521,0 -19.34729,-10.07359 -19.34729,-22.5 0,-3.81643 0.81704,-7.41094 2.25881,-10.55985 M 835,317.32348 c 11.29232,3.96884 26.09989,-0.36152 27.06897,-2.32348 M 517.96925,509.82169 C 557.53794,533.35836 604.4889,555.09153 650,555 M 525.36882,498.26604 C 565.47164,522.39165 613.48777,545.09355 660,545"
       id="path3843" />
    <g
       id="g3847"
       style="stroke:#4444ff;stroke-width:36;stroke-linecap:round;stroke-linejoin:round"
       transform="matrix(0.16666667,0,0,0.162,650,1000)">
      <path
         d="M -400,0 C -350,0 0,-450 0,-500 0,-450 350,0 400,0 350,0 0,450 0,500 0,450 -350,0 -400,0 Z"
         fill="#ff0000"
         id="path3845" />
    </g>
    <g
       id="g3851"
       transform="matrix(0.03744975,-0.01775403,0.01826546,0.03640116,894,598)">
      <path
         d="M -400,0 C -350,0 0,-450 0,-500 0,-450 350,0 400,0 350,0 0,450 0,500 0,450 -350,0 -400,0 Z"
         fill="#ff0000"
         id="path3849" />
    </g>
    <g
       id="g3855"
       transform="matrix(0.03863266,-0.01517157,0.01560861,0.03755095,852,622.99999)">
      <path
         d="M -400,0 C -350,0 0,-450 0,-500 0,-450 350,0 400,0 350,0 0,450 0,500 0,450 -350,0 -400,0 Z"
         fill="#ff0000"
         id="path3853" />
    </g>
    <g
       id="g3859"
       transform="matrix(0.04042899,-0.00979784,0.01008008,0.03929698,806,639.00001)">
      <path
         d="M -400,0 C -350,0 0,-450 0,-500 0,-450 350,0 400,0 350,0 0,450 0,500 0,450 -350,0 -400,0 Z"
         fill="#ff0000"
         id="path3857" />
    </g>
    <g
       id="g3863"
       transform="matrix(0.04143841,-0.0042334,0.00435535,0.04027814,757,650)">
      <path
         d="M -400,0 C -350,0 0,-450 0,-500 0,-450 350,0 400,0 350,0 0,450 0,500 0,450 -350,0 -400,0 Z"
         fill="#ff0000"
         id="path3861" />
    </g>
    <g
       id="g3867"
       transform="matrix(0.04166667,0,0,0.0405,706,655)">
      <path
         d="M -400,0 C -350,0 0,-450 0,-500 0,-450 350,0 400,0 350,0 0,450 0,500 0,450 -350,0 -400,0 Z"
         fill="#ff0000"
         id="path3865" />
    </g>
    <g
       id="g3871"
       transform="matrix(0.04150811,0.00352981,-0.00363149,0.04034589,656.00001,653)">
      <path
         d="M -400,0 C -350,0 0,-450 0,-500 0,-450 350,0 400,0 350,0 0,450 0,500 0,450 -350,0 -400,0 Z"
         fill="#ff0000"
         id="path3869" />
    </g>
    <g
       id="g3875"
       transform="matrix(0.04103366,0.00703275,-0.00723534,0.03988471,607,647)">
      <path
         d="M -400,0 C -350,0 0,-450 0,-500 0,-450 350,0 400,0 350,0 0,450 0,500 0,450 -350,0 -400,0 Z"
         fill="#ff0000"
         id="path3873" />
    </g>
    <g
       id="g3879"
       transform="matrix(0.04024691,0.01048217,-0.01078413,0.03912,560,637)">
      <path
         d="M -400,0 C -350,0 0,-450 0,-500 0,-450 350,0 400,0 350,0 0,450 0,500 0,450 -350,0 -400,0 Z"
         fill="#ff0000"
         id="path3877" />
    </g>
  </g>
  <g
     id="use3657"
     transform="matrix(-0.12676923,0,0,-0.13039999,46.067696,93.19125)">
    <path
       stroke="#4444ff"
       stroke-linecap="round"
       stroke-linejoin="round"
       stroke-width="3"
       fill="none"
       d="m 85,590 c -4.700789,8.72507 -5.186787,17.0989 0,25 m 3.710078,6.88418 c -4.700789,8.72507 -5.186787,17.0989 0,25 m 0,10 c -4.700789,8.72507 -5.186787,17.0989 0,25 m 0,5 c -4.700789,8.72507 -5.186787,17.0989 0,25 M 130,510 c 0,25 10,30 10,30 m -89.072313,57.4996 c -1.13052,2.57966 -1.33893,5.77405 0,10 m 0,23.02404 c -1.13052,2.57966 -1.33893,5.77405 0,10 m 0,24.47596 c -1.13052,2.57966 -1.33893,5.77405 0,10 m 0,25.0004 c -1.13052,2.57966 -1.33893,5.77405 0,10 m 0,-13.84068 c -1.13052,2.57966 -1.33893,5.77405 0,10 M 725,500 c 25,-10 40,-10 50,-5 M 705,255 c -30,-20 -60.95115,-7.27972 -90,15 m 170,5 c 24.49605,-30.28885 50.8757,-35.96138 70,-25 m -162.45974,8.60402 c 5.79878,4.0092 9.63542,10.97454 9.63542,18.89598 0,12.42641 -9.44135,22.5 -21.08785,22.5 -11.6465,0 -21.08785,-10.07359 -21.08785,-22.5 0,-3.28538 0.65995,-6.40629 1.84613,-9.22005 m 191.2777,-6.54105 c 6.97583,3.39911 11.87622,11.41458 11.87622,20.7611 0,12.42641 -8.66208,22.5 -19.34729,22.5 -10.68521,0 -19.34729,-10.07359 -19.34729,-22.5 0,-3.81643 0.81704,-7.41094 2.25881,-10.55985 M 835,317.32348 c 11.29232,3.96884 26.09989,-0.36152 27.06897,-2.32348 M 517.96925,509.82169 C 557.53794,533.35836 604.4889,555.09153 650,555 M 525.36882,498.26604 C 565.47164,522.39165 613.48777,545.09355 660,545"
       id="path3883" />
    <g
       id="g3887"
       style="stroke:#4444ff;stroke-width:36;stroke-linecap:round;stroke-linejoin:round"
       transform="matrix(0.16666667,0,0,0.162,650,1000)">
      <path
         d="M -400,0 C -350,0 0,-450 0,-500 0,-450 350,0 400,0 350,0 0,450 0,500 0,450 -350,0 -400,0 Z"
         fill="#ff0000"
         id="path3885" />
    </g>
    <g
       id="g3891"
       transform="matrix(0.03744975,-0.01775403,0.01826546,0.03640116,894,598)">
      <path
         d="M -400,0 C -350,0 0,-450 0,-500 0,-450 350,0 400,0 350,0 0,450 0,500 0,450 -350,0 -400,0 Z"
         fill="#ff0000"
         id="path3889" />
    </g>
    <g
       id="g3895"
       transform="matrix(0.03863266,-0.01517157,0.01560861,0.03755095,852,622.99999)">
      <path
         d="M -400,0 C -350,0 0,-450 0,-500 0,-450 350,0 400,0 350,0 0,450 0,500 0,450 -350,0 -400,0 Z"
         fill="#ff0000"
         id="path3893" />
    </g>
    <g
       id="g3899"
       transform="matrix(0.04042899,-0.00979784,0.01008008,0.03929698,806,639.00001)">
      <path
         d="M -400,0 C -350,0 0,-450 0,-500 0,-450 350,0 400,0 350,0 0,450 0,500 0,450 -350,0 -400,0 Z"
         fill="#ff0000"
         id="path3897" />
    </g>
    <g
       id="g3903"
       transform="matrix(0.04143841,-0.0042334,0.00435535,0.04027814,757,650)">
      <path
         d="M -400,0 C -350,0 0,-450 0,-500 0,-450 350,0 400,0 350,0 0,450 0,500 0,450 -350,0 -400,0 Z"
         fill="#ff0000"
         id="path3901" />
    </g>
    <g
       id="g3907"
       transform="matrix(0.04166667,0,0,0.0405,706,655)">
      <path
         d="M -400,0 C -350,0 0,-450 0,-500 0,-450 350,0 400,0 350,0 0,450 0,500 0,450 -350,0 -400,0 Z"
         fill="#ff0000"
         id="path3905" />
    </g>
    <g
       id="g3911"
       transform="matrix(0.04150811,0.00352981,-0.00363149,0.04034589,656.00001,653)">
      <path
         d="M -400,0 C -350,0 0,-450 0,-500 0,-450 350,0 400,0 350,0 0,450 0,500 0,450 -350,0 -400,0 Z"
         fill="#ff0000"
         id="path3909" />
    </g>
    <g
       id="g3915"
       transform="matrix(0.04103366,0.00703275,-0.00723534,0.03988471,607,647)">
      <path
         d="M -400,0 C -350,0 0,-450 0,-500 0,-450 350,0 400,0 350,0 0,450 0,500 0,450 -350,0 -400,0 Z"
         fill="#ff0000"
         id="path3913" />
    </g>
    <g
       id="g3919"
       transform="matrix(0.04024691,0.01048217,-0.01078413,0.03912,560,637)">
      <path
         d="M -400,0 C -350,0 0,-450 0,-500 0,-450 350,0 400,0 350,0 0,450 0,500 0,450 -350,0 -400,0 Z"
         fill="#ff0000"
         id="path3917" />
    </g>
  </g>
</svg>
