<?xml version="1.0" encoding="UTF-8" standalone="no"?>
<svg
   width="1.7248914in"
   height="2.7248662in"
   viewBox="-120 -168 165.58958 261.58715"
   preserveAspectRatio="none"
   class="card"
   face="KD"
   version="1.1"
   id="svg3584"
   xmlns="http://www.w3.org/2000/svg"
   xmlns:svg="http://www.w3.org/2000/svg">
  <defs
     id="defs3494" />
  <g
     id="use3544"
     transform="matrix(0.12676923,0,0,0.13039999,-119.60522,-167.60641)">
    <path
       fill="#ffcc44"
       d="M 426.28125,0 C 462.75286,61.814306 494.76186,122.79415 510,190 730,140 800,325 1000,265 993.85231,157.30184 1056.1153,67.162634 1111.957,0 Z M 1300,80 l -80,80 0.459,444.0918 c 29.1573,15.31294 56.8802,32.77835 79.541,49.82812 z m -569.57617,480 -18.42969,16.25977 c -74.36078,65.61245 -115.84337,79.92354 -204.67187,102.39257 l 18.44335,129.40625 C 620.5912,784.3522 694.85471,758.78386 778.83594,690 h 83.00586 c -36.78346,78.64714 -60.01816,153.33497 -73.57813,225 H 527.68359 l -0.42187,25 h 256.63086 c -28.00362,175.1226 0.23259,332.4822 26.88086,486.0449 48.28627,-3.559 94.94466,-5.651 84.22656,43.9551 l 122.0977,-48.6777 C 928.02192,1156.0184 838.46944,972.11685 1025.8105,658.32031 L 1084.5078,560 Z m 330.37307,88.53711 -15.3281,25.76562 c 108.8237,68.97904 172.6249,150.48428 209.0898,262.34571 l 27.6641,-11.84766 C 1243.4152,808.10704 1173.8932,720.3067 1060.7969,648.53711 Z m -23.2324,39.33203 -11.0723,19.89258 c 4.5725,14.6211 -28.11324,34.81839 -9.7012,47.17383 20.4797,13.74293 35.3035,-2.51626 53.209,-19.93555 -14.9048,20.04709 -30.6967,38.70115 -10,55 19.4354,16.73082 36.5202,-2.19565 54.9844,-19.02148 -15.5509,19.55013 -29.9839,39.02167 -17.5938,56.48046 12.7916,18.0245 38.1411,-0.88906 60.2285,-12.55859 C 1137.6705,829.93662 1112.3377,843.18676 1125,865 c 12.5467,21.61399 39.1893,10.78943 62.5371,1.90625 C 1165.9007,879.39224 1144.1675,892.81609 1155,915 c 10.3717,21.24013 33.2381,11.17402 57.7031,6.125 -23.9263,7.68906 -52.1646,19.08916 -29.3027,51.67188 l 23.1133,-14.09766 c -20.7144,4.57302 -16.8573,-10.76104 -3.6641,-12.7832 39.846,-6.10727 26.3373,-27.50286 33.8945,-34.34375 -11.7554,-0.39965 -13.6382,-25.32894 -49.3281,-6.58789 -19.7209,7.81556 -18.3586,-7.93641 -5.6562,-12.03516 38.3635,-12.37896 21.6177,-31.34887 27.9882,-39.30664 -11.6689,1.47877 -17.5003,-22.83069 -48.6718,0.21289 -17.5424,9.02132 -18.1142,-6.78021 -6.0078,-12.40039 36.5634,-16.97392 17.6242,-33.75507 22.9746,-42.43164 -11.4008,2.89354 -20.159,-20.52233 -49.209,7.42578 -15.4814,14.50263 -19.9885,-0.65194 -9.6738,-9.12305 31.152,-25.58417 8.6163,-37.09063 11.625,-46.83008 C 1120.4713,756.15073 1106.1313,735.67115 1085,770 c -15,15 -19.9996,4e-4 -9.9668,-8.80273 30.3007,-26.5869 7.4004,-37.35312 10.0898,-47.18555 C 1074.999,719.99985 1060,700 1040,735 c -13.4656,16.39141 -19.9037,1.95058 -10.7773,-7.78906 19.814,-21.14534 13.0646,-31.47365 8.3418,-39.3418 z M 1300,1025.4961 c -115.9181,49.919 -199.8665,115.6362 -251.293,246.2715 l -3.1601,9.8496 c -14.1711,6.3701 -28.6586,12.5292 -43.2891,18.3476 12.1852,35.715 25.4267,73.4781 37.9317,111.0918 79.0265,-34.5097 160.3202,-78.7522 259.8105,-144.4511 z"
       id="path4122" />
  </g>
  <g
     id="use3546"
     transform="matrix(-0.12676923,0,0,-0.13039999,45.194788,93.193579)">
    <path
       fill="#ffcc44"
       d="M 426.28125,0 C 462.75286,61.814306 494.76186,122.79415 510,190 730,140 800,325 1000,265 993.85231,157.30184 1056.1153,67.162634 1111.957,0 Z M 1300,80 l -80,80 0.459,444.0918 c 29.1573,15.31294 56.8802,32.77835 79.541,49.82812 z m -569.57617,480 -18.42969,16.25977 c -74.36078,65.61245 -115.84337,79.92354 -204.67187,102.39257 l 18.44335,129.40625 C 620.5912,784.3522 694.85471,758.78386 778.83594,690 h 83.00586 c -36.78346,78.64714 -60.01816,153.33497 -73.57813,225 H 527.68359 l -0.42187,25 h 256.63086 c -28.00362,175.1226 0.23259,332.4822 26.88086,486.0449 48.28627,-3.559 94.94466,-5.651 84.22656,43.9551 l 122.0977,-48.6777 C 928.02192,1156.0184 838.46944,972.11685 1025.8105,658.32031 L 1084.5078,560 Z m 330.37307,88.53711 -15.3281,25.76562 c 108.8237,68.97904 172.6249,150.48428 209.0898,262.34571 l 27.6641,-11.84766 C 1243.4152,808.10704 1173.8932,720.3067 1060.7969,648.53711 Z m -23.2324,39.33203 -11.0723,19.89258 c 4.5725,14.6211 -28.11324,34.81839 -9.7012,47.17383 20.4797,13.74293 35.3035,-2.51626 53.209,-19.93555 -14.9048,20.04709 -30.6967,38.70115 -10,55 19.4354,16.73082 36.5202,-2.19565 54.9844,-19.02148 -15.5509,19.55013 -29.9839,39.02167 -17.5938,56.48046 12.7916,18.0245 38.1411,-0.88906 60.2285,-12.55859 C 1137.6705,829.93662 1112.3377,843.18676 1125,865 c 12.5467,21.61399 39.1893,10.78943 62.5371,1.90625 C 1165.9007,879.39224 1144.1675,892.81609 1155,915 c 10.3717,21.24013 33.2381,11.17402 57.7031,6.125 -23.9263,7.68906 -52.1646,19.08916 -29.3027,51.67188 l 23.1133,-14.09766 c -20.7144,4.57302 -16.8573,-10.76104 -3.6641,-12.7832 39.846,-6.10727 26.3373,-27.50286 33.8945,-34.34375 -11.7554,-0.39965 -13.6382,-25.32894 -49.3281,-6.58789 -19.7209,7.81556 -18.3586,-7.93641 -5.6562,-12.03516 38.3635,-12.37896 21.6177,-31.34887 27.9882,-39.30664 -11.6689,1.47877 -17.5003,-22.83069 -48.6718,0.21289 -17.5424,9.02132 -18.1142,-6.78021 -6.0078,-12.40039 36.5634,-16.97392 17.6242,-33.75507 22.9746,-42.43164 -11.4008,2.89354 -20.159,-20.52233 -49.209,7.42578 -15.4814,14.50263 -19.9885,-0.65194 -9.6738,-9.12305 31.152,-25.58417 8.6163,-37.09063 11.625,-46.83008 C 1120.4713,756.15073 1106.1313,735.67115 1085,770 c -15,15 -19.9996,4e-4 -9.9668,-8.80273 30.3007,-26.5869 7.4004,-37.35312 10.0898,-47.18555 C 1074.999,719.99985 1060,700 1040,735 c -13.4656,16.39141 -19.9037,1.95058 -10.7773,-7.78906 19.814,-21.14534 13.0646,-31.47365 8.3418,-39.3418 z M 1300,1025.4961 c -115.9181,49.919 -199.8665,115.6362 -251.293,246.2715 l -3.1601,9.8496 c -14.1711,6.3701 -28.6586,12.5292 -43.2891,18.3476 12.1852,35.715 25.4267,73.4781 37.9317,111.0918 79.0265,-34.5097 160.3202,-78.7522 259.8105,-144.4511 z"
       id="path4126" />
  </g>
  <g
     id="use3548"
     transform="matrix(0.12676923,0,0,0.13039999,-119.60522,-167.60641)">
    <path
       fill="#ff0000"
       d="m 750.06055,71.416016 c -8.08982,7.057807 -17.8132,12.834384 -28.66016,16.603515 -5.08019,17.497749 -12.87292,32.765689 -23.08984,45.496089 -57.34444,-8.46649 -118.20953,-13.38592 -182.86524,-7.31054 -0.23353,-1.28345 -1.0363,-2.56048 -1.79883,-3.84375 C 504.8856,107.6176 500.41843,94.124144 496.43359,82.621094 485.87378,80.533924 475.96492,76.497562 466.75586,72.613281 485.60878,111.4191 500.83584,149.58268 510,190 c 220,-50 290,135 490,75 -3.10327,-54.36459 11.2261,-104.25691 33.2832,-148.72656 -7.2955,1.61396 -15.012,2.78203 -23.2832,3.72656 -2.7462,15.65937 -7.5914,29.77038 -15.18164,42.07617 -62.43846,13.15325 -131.21343,0.63488 -208.16797,-13.49023 -7.44024,-15.9039 -12.00372,-34.03953 -12.78906,-53.951174 C 764.24949,88.28571 756.20808,80.2692 750.06055,71.416016 Z M 1300,136.57031 l -40,39.99805 1.2617,450.92969 c 14.2413,8.90673 27.2118,17.77157 38.7383,26.43164 z m -186.9375,426.5625 -7.0898,9.68164 -58.6973,98.32032 z m -88.0039,26.09375 c -8.7637,0.25357 -24.385,4.42685 -26.29102,0.76172 C 996.95705,593.01418 996,596.4738 996,600 c 0,10.22139 7.8934,18.70867 18.0879,19.44922 -2.5656,-4.93351 19.2511,-23.80086 16.6855,-28.73438 -0.6353,-1.22171 -2.7936,-1.5728 -5.7148,-1.48828 z m -279.50391,0.76172 C 741.08573,593.69291 738.5,599.19518 738.5,605 c 0,10.76955 8.73045,19.5 19.5,19.5 10.76955,0 19.5,-8.73045 19.5,-19.5 0,-5.80106 -2.58284,-11.30117 -7.04688,-15.00586 z m 80.71289,0 C 824.45705,593.01418 823.5,596.4738 823.5,600 c 0,10.76955 8.73045,19.5 19.5,19.5 10.76955,0 19.5,-8.73045 19.5,-19.5 0,-3.5258 -0.9555,-6.98606 -2.76562,-10.01172 z m 87.5,0 C 911.95705,593.01418 911,596.4738 911,600 c 0,10.76955 8.73045,19.5 19.5,19.5 10.76955,0 19.5,-8.73045 19.5,-19.5 0,-3.5258 -0.9555,-6.98606 -2.76562,-10.01172 z M 688,635.5 c -0.65843,0 -1.31564,0.033 -1.9707,0.0996 l -15.43946,10.61523 C 669.21531,648.93901 668.5,651.9487 668.5,655 c 0,10.76955 8.73045,19.5 19.5,19.5 10.76955,0 19.5,-8.73045 19.5,-19.5 0,-10.76955 -8.73045,-19.5 -19.5,-19.5 z m 282.5,20 c -10.76955,0 -19.5,8.73045 -19.5,19.5 0,10.76955 8.73045,19.5 19.5,19.5 0.21902,0 0.43736,-0.005 0.65625,-0.0117 l 16.12891,-29.41406 C 983.77607,659.13997 977.39413,655.5 970.5,655.5 Z m -354.57812,20.2207 -18.26368,7.24219 C 594.96412,686.3967 593.5,690.63546 593.5,695 c 0,10.76955 8.73045,19.5 19.5,19.5 10.76955,0 19.5,-8.73045 19.5,-19.5 0,-9.64087 -7.04617,-17.83427 -16.57812,-19.2793 z M 778.83594,690 c -83.98123,68.78386 -158.24572,94.35221 -254.41602,119.0293 l 290.46875,0.77343 C 827.24941,770.71955 842.71522,730.89476 861.8418,690 Z M 538.79102,701.37891 518.8418,706.5918 C 515.41163,710.21363 513.5,715.01164 513.5,720 c 0,10.76955 8.73045,19.5 19.5,19.5 10.76955,0 19.5,-8.73045 19.5,-19.5 0,-8.53906 -5.55507,-16.08548 -13.70898,-18.62109 z M 930.5,730.5 c -10.76955,0 -19.5,8.73045 -19.5,19.5 0,10.76955 8.73045,19.5 19.5,19.5 1.85186,0 3.6952,-0.26356 5.47266,-0.7832 l 12.02148,-27.33203 C 944.7122,734.72058 937.9285,730.5 930.5,730.5 Z m -30,80 c -10.76955,0 -19.5,8.73045 -19.5,19.5 0,10.76955 8.73045,19.5 19.5,19.5 2.47269,0 4.92374,-0.47122 7.2207,-1.38672 l 9.05664,-28.84961 C 913.16876,813.79272 907.05386,810.5 900.5,810.5 Z m 73.37891,13.07227 c -30.28734,84.62012 -37.40112,159.34009 -31.17188,232.30663 4.04514,47.383 14.00524,94.2663 27.80859,143.3203 35.46708,-73.4062 82.79598,-130.262 138.20118,-174.9765 l -6.2129,-20.6524 c -25.4532,-89.08574 -50.378,-129.3864 -128.62499,-179.99803 z m 323.72849,121.93359 -9.2754,3.73633 11.668,28.96484 v -26.76172 z m -97.8262,46.55078 -8.6874,4.95313 36.7324,64.40043 8.6855,-4.9551 z M 1300,1054.0137 l -21.3887,8.584 10.5782,22.2617 10.8105,-4.8379 z m -191.6797,2.7285 -7.4141,6.7109 49.4766,54.6621 7.4141,-6.709 z m 127.6934,28.5254 -31.8164,20.6289 14.0996,19.8105 30.0527,-19.373 z m -67.1856,49.3027 -26.3652,26.8945 18.5098,16.0332 24.3164,-25.082 z m -133.6465,3.5547 -5.5878,8.293 61.8281,41.6562 5.5879,-8.293 z m 77.92,62.1289 -17.7383,30.2441 21.8242,11.5782 16.6445,-28.375 z m -129.3516,32.9102 -3.76953,9.2617 69.16793,28.1601 3.7715,-9.2617 z"
       id="path4130" />
  </g>
  <g
     id="use3550"
     transform="matrix(-0.12676923,0,0,-0.13039999,45.194788,93.193579)">
    <path
       fill="#ff0000"
       d="m 750.06055,71.416016 c -8.08982,7.057807 -17.8132,12.834384 -28.66016,16.603515 -5.08019,17.497749 -12.87292,32.765689 -23.08984,45.496089 -57.34444,-8.46649 -118.20953,-13.38592 -182.86524,-7.31054 -0.23353,-1.28345 -1.0363,-2.56048 -1.79883,-3.84375 C 504.8856,107.6176 500.41843,94.124144 496.43359,82.621094 485.87378,80.533924 475.96492,76.497562 466.75586,72.613281 485.60878,111.4191 500.83584,149.58268 510,190 c 220,-50 290,135 490,75 -3.10327,-54.36459 11.2261,-104.25691 33.2832,-148.72656 -7.2955,1.61396 -15.012,2.78203 -23.2832,3.72656 -2.7462,15.65937 -7.5914,29.77038 -15.18164,42.07617 -62.43846,13.15325 -131.21343,0.63488 -208.16797,-13.49023 -7.44024,-15.9039 -12.00372,-34.03953 -12.78906,-53.951174 C 764.24949,88.28571 756.20808,80.2692 750.06055,71.416016 Z M 1300,136.57031 l -40,39.99805 1.2617,450.92969 c 14.2413,8.90673 27.2118,17.77157 38.7383,26.43164 z m -186.9375,426.5625 -7.0898,9.68164 -58.6973,98.32032 z m -88.0039,26.09375 c -8.7637,0.25357 -24.385,4.42685 -26.29102,0.76172 C 996.95705,593.01418 996,596.4738 996,600 c 0,10.22139 7.8934,18.70867 18.0879,19.44922 -2.5656,-4.93351 19.2511,-23.80086 16.6855,-28.73438 -0.6353,-1.22171 -2.7936,-1.5728 -5.7148,-1.48828 z m -279.50391,0.76172 C 741.08573,593.69291 738.5,599.19518 738.5,605 c 0,10.76955 8.73045,19.5 19.5,19.5 10.76955,0 19.5,-8.73045 19.5,-19.5 0,-5.80106 -2.58284,-11.30117 -7.04688,-15.00586 z m 80.71289,0 C 824.45705,593.01418 823.5,596.4738 823.5,600 c 0,10.76955 8.73045,19.5 19.5,19.5 10.76955,0 19.5,-8.73045 19.5,-19.5 0,-3.5258 -0.9555,-6.98606 -2.76562,-10.01172 z m 87.5,0 C 911.95705,593.01418 911,596.4738 911,600 c 0,10.76955 8.73045,19.5 19.5,19.5 10.76955,0 19.5,-8.73045 19.5,-19.5 0,-3.5258 -0.9555,-6.98606 -2.76562,-10.01172 z M 688,635.5 c -0.65843,0 -1.31564,0.033 -1.9707,0.0996 l -15.43946,10.61523 C 669.21531,648.93901 668.5,651.9487 668.5,655 c 0,10.76955 8.73045,19.5 19.5,19.5 10.76955,0 19.5,-8.73045 19.5,-19.5 0,-10.76955 -8.73045,-19.5 -19.5,-19.5 z m 282.5,20 c -10.76955,0 -19.5,8.73045 -19.5,19.5 0,10.76955 8.73045,19.5 19.5,19.5 0.21902,0 0.43736,-0.005 0.65625,-0.0117 l 16.12891,-29.41406 C 983.77607,659.13997 977.39413,655.5 970.5,655.5 Z m -354.57812,20.2207 -18.26368,7.24219 C 594.96412,686.3967 593.5,690.63546 593.5,695 c 0,10.76955 8.73045,19.5 19.5,19.5 10.76955,0 19.5,-8.73045 19.5,-19.5 0,-9.64087 -7.04617,-17.83427 -16.57812,-19.2793 z M 778.83594,690 c -83.98123,68.78386 -158.24572,94.35221 -254.41602,119.0293 l 290.46875,0.77343 C 827.24941,770.71955 842.71522,730.89476 861.8418,690 Z M 538.79102,701.37891 518.8418,706.5918 C 515.41163,710.21363 513.5,715.01164 513.5,720 c 0,10.76955 8.73045,19.5 19.5,19.5 10.76955,0 19.5,-8.73045 19.5,-19.5 0,-8.53906 -5.55507,-16.08548 -13.70898,-18.62109 z M 930.5,730.5 c -10.76955,0 -19.5,8.73045 -19.5,19.5 0,10.76955 8.73045,19.5 19.5,19.5 1.85186,0 3.6952,-0.26356 5.47266,-0.7832 l 12.02148,-27.33203 C 944.7122,734.72058 937.9285,730.5 930.5,730.5 Z m -30,80 c -10.76955,0 -19.5,8.73045 -19.5,19.5 0,10.76955 8.73045,19.5 19.5,19.5 2.47269,0 4.92374,-0.47122 7.2207,-1.38672 l 9.05664,-28.84961 C 913.16876,813.79272 907.05386,810.5 900.5,810.5 Z m 73.37891,13.07227 c -30.28734,84.62012 -37.40112,159.34009 -31.17188,232.30663 4.04514,47.383 14.00524,94.2663 27.80859,143.3203 35.46708,-73.4062 82.79598,-130.262 138.20118,-174.9765 l -6.2129,-20.6524 c -25.4532,-89.08574 -50.378,-129.3864 -128.62499,-179.99803 z m 323.72849,121.93359 -9.2754,3.73633 11.668,28.96484 v -26.76172 z m -97.8262,46.55078 -8.6874,4.95313 36.7324,64.40043 8.6855,-4.9551 z M 1300,1054.0137 l -21.3887,8.584 10.5782,22.2617 10.8105,-4.8379 z m -191.6797,2.7285 -7.4141,6.7109 49.4766,54.6621 7.4141,-6.709 z m 127.6934,28.5254 -31.8164,20.6289 14.0996,19.8105 30.0527,-19.373 z m -67.1856,49.3027 -26.3652,26.8945 18.5098,16.0332 24.3164,-25.082 z m -133.6465,3.5547 -5.5878,8.293 61.8281,41.6562 5.5879,-8.293 z m 77.92,62.1289 -17.7383,30.2441 21.8242,11.5782 16.6445,-28.375 z m -129.3516,32.9102 -3.76953,9.2617 69.16793,28.1601 3.7715,-9.2617 z"
       id="path4134" />
  </g>
  <g
     id="use3552"
     transform="matrix(0.12676923,0,0,0.13039999,-119.60522,-167.60641)">
    <path
       fill="#4444ff"
       d="m 600,445 c -40,0 -85,-35 -85,-35 v -15 c 40,15 30,45 85,50 m -75,-235 -5,15 c 0,0 45,-5 55,-5 30,0 60,45 95,45 -35,0 -65,-55 -95.29027,-56.16109 -9.99266,-0.38305 -13.61398,9.41945 -33.61398,9.41945 C 536.3817,218.25836 525,210 525,210 Z m 49.66702,73.06149 a 11.248988,20.384647 0 0 1 -11.24899,20.38465 11.248988,20.384647 0 0 1 -11.24899,-20.38465 11.248988,20.384647 0 0 1 11.24899,-20.38464 11.248988,20.384647 0 0 1 11.24899,20.38464 z m -85.65816,289.63694 133.64115,3.8248 c 19.96544,0.52183 52.3422,-5.55803 72.98839,-38.35624 8.82161,11.65309 21.89723,16.73002 35.87243,16.96944 l -1.087,4.86357 -18.42969,16.25977 c -74.36078,65.61245 -115.84262,79.92381 -204.95079,102.13167 -5.83569,-35.70851 -11.98026,-70.7978 -18.03449,-105.69301 z M 800,605 c 0,23.19596 -18.80404,42 -42,42 -29.83941,0.63699 -35.20181,-40.06181 -49.39258,-28.5957 C 721.82111,625.84521 730,639.83231 730,655 c 0,23.19596 -18.80404,42 -42,42 -20.92772,0 -38.65526,-15.40633 -41.58398,-36.11914 -1.7829,0.98077 -3.56529,1.93576 -5.34961,2.87695 C 649.93331,671.72327 655,683.07962 655,695 c 0,23.19596 -18.80404,42 -42,42 -17.87462,0 -33.13143,-11.17088 -39.19531,-26.9082 C 574.58751,713.31547 575,716.63884 575,720 c 0,23.19596 -18.80404,42 -42,42 -5.15691,0 -10.26911,-0.94888 -15.08203,-2.80078 l 2.2168,19.34375 C 616.39667,754.40585 684.39171,730.93507 767.92578,660 h 142.39453 c -156.78693,297.27564 -107.90617,528.8571 -68.79687,765.2539 30.59918,0.3778 51.77184,10.1961 52.52911,40.46 l 95.31268,-32.7686 C 915.03354,1236.3749 850.34937,1074.7875 901.13086,871.99414 900.92041,871.99708 900.71047,872 900.5,872 c -23.19596,0 -42,-18.80404 -42,-42 0,-23.19596 18.80404,-42 42,-42 8.80364,0 17.3828,2.76816 24.52734,7.9082 0.51273,-1.36306 1.02957,-2.72657 1.55274,-4.09375 C 905.00303,789.79234 888.5,771.68115 888.5,750 c 0,-23.19596 18.80404,-42 42,-42 10.39004,0 20.40683,3.85348 28.12109,10.80859 0.51029,-1.03432 1.01901,-2.06867 1.53516,-3.10547 C 941.54316,710.97321 928.5,694.21691 928.5,675 c 0,-23.19596 18.80404,-42 42,-42 10.66714,0 20.93338,4.05835 28.7168,11.35156 0.28021,-0.4708 0.5526,-0.93884 0.834,-1.41015 l 1.9023,-3.18555 C 984.93904,633.95822 973.5,617.97535 973.5,600 c 0,-3.37003 0.40653,-6.72693 1.20898,-10 h -3.41796 c 0.80242,3.27303 1.20899,6.63002 1.20898,10 0,23.19596 -18.80404,42 -42,42 -23.19596,0 -42,-18.80404 -42,-42 0,-3.37003 0.40653,-6.72693 1.20898,-10 h -5.91796 c 0.80242,3.27303 1.20899,6.63002 1.20898,10 0,23.19596 -18.80404,42 -42,42 -23.19596,0 -42,-18.80404 -42,-42 0,-3.37003 0.40653,-6.72693 1.20898,-10 -9.20029,-1.20745 -2.26146,7.46758 -2.20898,15 z m 175.10352,-15 55.56638,1.6543 0.9883,-1.6543 z m 23.63168,172.89986 c 94.5834,60.40167 136.8968,120.76076 165.8987,221.53143 L 1183.4,972.79684 c -22.8619,-32.5827 5.3761,-43.98227 29.3024,-51.67133 -24.465,5.04902 -47.3307,15.11462 -57.7024,-6.12551 -10.8325,-22.18391 10.9,-35.6086 32.5364,-48.09459 -23.3478,8.88318 -49.9897,19.70858 -62.5364,-1.90541 -12.6623,-21.81324 12.6704,-35.06278 32.619,-50.09901 -22.0874,11.66953 -47.4373,30.5823 -60.2289,12.5578 C 1085,810 1099.4331,790.52891 1114.984,770.97878 1096.5198,787.80461 1079.4354,806.73082 1060,790 c -20.6967,-16.29885 -4.9048,-34.95291 10,-55 -17.9055,17.41929 -32.7286,33.67924 -53.2083,19.93631 -18.41208,-12.35544 14.2739,-32.55318 9.7014,-47.17428 m 228.066,228.88719 C 1218.0942,824.78779 1154.2919,743.28085 1045.468,674.30181 l -7.9036,13.56809 c 4.7228,7.86815 11.4714,18.19567 -8.3426,39.34101 -9.1264,9.73964 -2.6874,24.1805 10.7782,7.78909 20,-35 35,-15 45.124,-20.98813 -2.6894,9.83243 20.2095,20.5981 -10.0912,47.185 C 1065,770 1070,785 1085,770 c 21.1313,-34.32885 35.4708,-13.85011 45.7847,-19.50475 -3.0087,9.73945 19.5268,21.24648 -11.6252,46.83065 -10.3147,8.47111 -5.8067,23.62626 9.6747,9.12363 29.05,-27.94811 37.8082,-4.53242 49.209,-7.42596 -5.3504,8.67657 13.5882,25.45717 -22.9752,42.43109 -12.1064,5.62018 -11.5346,21.42125 6.0078,12.39993 31.1715,-23.04358 37.0029,1.26683 48.6718,-0.21194 -6.3705,7.95777 10.3757,26.92678 -27.9878,39.30574 -12.7024,4.09875 -14.0656,19.85129 5.6553,12.03573 35.6899,-18.74104 37.5728,6.18798 49.3282,6.58763 -7.5572,6.84089 5.9522,28.23612 -33.8938,34.34339 -13.1932,2.02216 -17.0493,17.35616 3.6651,12.78314 z m -111.8033,62.20238 -1.791,-6.26957 C 1113.3306,895.8625 1077.631,843.00772 988.56827,785.96404 l -14.64523,37.85888 c 78.20346,50.36129 103.12766,90.66162 128.58086,179.74738 l 5.9889,20.9627"
       id="path4138" />
  </g>
  <g
     id="use3554"
     transform="matrix(-0.12676923,0,0,-0.13039999,45.194788,93.193579)">
    <path
       fill="#4444ff"
       d="m 600,445 c -40,0 -85,-35 -85,-35 v -15 c 40,15 30,45 85,50 m -75,-235 -5,15 c 0,0 45,-5 55,-5 30,0 60,45 95,45 -35,0 -65,-55 -95.29027,-56.16109 -9.99266,-0.38305 -13.61398,9.41945 -33.61398,9.41945 C 536.3817,218.25836 525,210 525,210 Z m 49.66702,73.06149 a 11.248988,20.384647 0 0 1 -11.24899,20.38465 11.248988,20.384647 0 0 1 -11.24899,-20.38465 11.248988,20.384647 0 0 1 11.24899,-20.38464 11.248988,20.384647 0 0 1 11.24899,20.38464 z m -85.65816,289.63694 133.64115,3.8248 c 19.96544,0.52183 52.3422,-5.55803 72.98839,-38.35624 8.82161,11.65309 21.89723,16.73002 35.87243,16.96944 l -1.087,4.86357 -18.42969,16.25977 c -74.36078,65.61245 -115.84262,79.92381 -204.95079,102.13167 -5.83569,-35.70851 -11.98026,-70.7978 -18.03449,-105.69301 z M 800,605 c 0,23.19596 -18.80404,42 -42,42 -29.83941,0.63699 -35.20181,-40.06181 -49.39258,-28.5957 C 721.82111,625.84521 730,639.83231 730,655 c 0,23.19596 -18.80404,42 -42,42 -20.92772,0 -38.65526,-15.40633 -41.58398,-36.11914 -1.7829,0.98077 -3.56529,1.93576 -5.34961,2.87695 C 649.93331,671.72327 655,683.07962 655,695 c 0,23.19596 -18.80404,42 -42,42 -17.87462,0 -33.13143,-11.17088 -39.19531,-26.9082 C 574.58751,713.31547 575,716.63884 575,720 c 0,23.19596 -18.80404,42 -42,42 -5.15691,0 -10.26911,-0.94888 -15.08203,-2.80078 l 2.2168,19.34375 C 616.39667,754.40585 684.39171,730.93507 767.92578,660 h 142.39453 c -156.78693,297.27564 -107.90617,528.8571 -68.79687,765.2539 30.59918,0.3778 51.77184,10.1961 52.52911,40.46 l 95.31268,-32.7686 C 915.03354,1236.3749 850.34937,1074.7875 901.13086,871.99414 900.92041,871.99708 900.71047,872 900.5,872 c -23.19596,0 -42,-18.80404 -42,-42 0,-23.19596 18.80404,-42 42,-42 8.80364,0 17.3828,2.76816 24.52734,7.9082 0.51273,-1.36306 1.02957,-2.72657 1.55274,-4.09375 C 905.00303,789.79234 888.5,771.68115 888.5,750 c 0,-23.19596 18.80404,-42 42,-42 10.39004,0 20.40683,3.85348 28.12109,10.80859 0.51029,-1.03432 1.01901,-2.06867 1.53516,-3.10547 C 941.54316,710.97321 928.5,694.21691 928.5,675 c 0,-23.19596 18.80404,-42 42,-42 10.66714,0 20.93338,4.05835 28.7168,11.35156 0.28021,-0.4708 0.5526,-0.93884 0.834,-1.41015 l 1.9023,-3.18555 C 984.93904,633.95822 973.5,617.97535 973.5,600 c 0,-3.37003 0.40653,-6.72693 1.20898,-10 h -3.41796 c 0.80242,3.27303 1.20899,6.63002 1.20898,10 0,23.19596 -18.80404,42 -42,42 -23.19596,0 -42,-18.80404 -42,-42 0,-3.37003 0.40653,-6.72693 1.20898,-10 h -5.91796 c 0.80242,3.27303 1.20899,6.63002 1.20898,10 0,23.19596 -18.80404,42 -42,42 -23.19596,0 -42,-18.80404 -42,-42 0,-3.37003 0.40653,-6.72693 1.20898,-10 -9.20029,-1.20745 -2.26146,7.46758 -2.20898,15 z m 175.10352,-15 55.56638,1.6543 0.9883,-1.6543 z m 23.63168,172.89986 c 94.5834,60.40167 136.8968,120.76076 165.8987,221.53143 L 1183.4,972.79684 c -22.8619,-32.5827 5.3761,-43.98227 29.3024,-51.67133 -24.465,5.04902 -47.3307,15.11462 -57.7024,-6.12551 -10.8325,-22.18391 10.9,-35.6086 32.5364,-48.09459 -23.3478,8.88318 -49.9897,19.70858 -62.5364,-1.90541 -12.6623,-21.81324 12.6704,-35.06278 32.619,-50.09901 -22.0874,11.66953 -47.4373,30.5823 -60.2289,12.5578 C 1085,810 1099.4331,790.52891 1114.984,770.97878 1096.5198,787.80461 1079.4354,806.73082 1060,790 c -20.6967,-16.29885 -4.9048,-34.95291 10,-55 -17.9055,17.41929 -32.7286,33.67924 -53.2083,19.93631 -18.41208,-12.35544 14.2739,-32.55318 9.7014,-47.17428 m 228.066,228.88719 C 1218.0942,824.78779 1154.2919,743.28085 1045.468,674.30181 l -7.9036,13.56809 c 4.7228,7.86815 11.4714,18.19567 -8.3426,39.34101 -9.1264,9.73964 -2.6874,24.1805 10.7782,7.78909 20,-35 35,-15 45.124,-20.98813 -2.6894,9.83243 20.2095,20.5981 -10.0912,47.185 C 1065,770 1070,785 1085,770 c 21.1313,-34.32885 35.4708,-13.85011 45.7847,-19.50475 -3.0087,9.73945 19.5268,21.24648 -11.6252,46.83065 -10.3147,8.47111 -5.8067,23.62626 9.6747,9.12363 29.05,-27.94811 37.8082,-4.53242 49.209,-7.42596 -5.3504,8.67657 13.5882,25.45717 -22.9752,42.43109 -12.1064,5.62018 -11.5346,21.42125 6.0078,12.39993 31.1715,-23.04358 37.0029,1.26683 48.6718,-0.21194 -6.3705,7.95777 10.3757,26.92678 -27.9878,39.30574 -12.7024,4.09875 -14.0656,19.85129 5.6553,12.03573 35.6899,-18.74104 37.5728,6.18798 49.3282,6.58763 -7.5572,6.84089 5.9522,28.23612 -33.8938,34.34339 -13.1932,2.02216 -17.0493,17.35616 3.6651,12.78314 z m -111.8033,62.20238 -1.791,-6.26957 C 1113.3306,895.8625 1077.631,843.00772 988.56827,785.96404 l -14.64523,37.85888 c 78.20346,50.36129 103.12766,90.66162 128.58086,179.74738 l 5.9889,20.9627"
       id="path4142" />
  </g>
  <g
     id="use3556"
     transform="matrix(0.12676923,0,0,0.13039999,-119.60522,-167.60641)">
    <path
       fill="#000000"
       d="m 1084.5078,560 -58.6973,98.32031 c -187.34106,313.79654 -97.78858,497.69809 -8.7128,763.00199 l 23.0918,-10.2657 -57.76177,-175.5117 C 1046.8746,1079.4869 1161.6683,999.67987 1300,944.44336 V 917.61523 C 1161.9788,971.41071 1041.6716,1050.4551 970.82812,1200.002 l 0.79493,2.7089 -1.41993,-4.3144 c -13.49084,-48.2508 -23.45095,-95.1346 -27.49609,-142.5176 -9.68778,-113.47837 12.89838,-231.1969 104.56837,-384.74413 l 58.6973,-98.32032 -29.7813,49.91602 C 1184.6867,691.72775 1257.1346,777.35088 1300,886.01562 V 653.91602 C 1247.8871,614.68957 1169.3267,573.4428 1112.0195,562.9043 l -0.064,0.10742 z M 220,625 c -38.24283,16.86912 -50.72991,39.82024 -50.18359,65.84961 -13.28958,-0.34787 -27.53429,4.81132 -43.6211,20.5957 C 129.14064,701.54104 129.6134,690.78569 130,680 91.688342,696.89948 79.224063,719.90293 79.818359,745.99023 70.667665,746.73051 61.030237,750.27464 50.632812,758.20508 54.075525,747.82091 54.590337,736.42898 55,725 16.462692,741.99901 4.0778842,765.17375 4.8300781,791.45117 3.2357829,791.65966 1.6258824,791.96264 0,792.35352 v 13.44921 C 6.4550922,804.97998 13.029216,804.84937 22.259766,805.2168 13.210678,807.83817 6.8373963,809.67947 0,811.01562 v 13.97071 c 15.19651,7.2e-4 32.096716,-6.11846 51.394531,-20.84766 -11.463177,-5.78838 -22.949782,-11.43728 -35.183593,-12.78125 13.190575,-5.09022 21.792967,-11.76219 27.439453,-19.45117 22.216707,12.23644 47.947119,11.84991 80.484379,-12.98437 -10.80315,-5.45511 -21.62773,-10.78362 -33.078129,-12.50586 19.824819,-7.61171 29.327649,-18.78077 34.013669,-31.60743 23.0285,14.30487 49.76513,15.29249 84.06446,-10.88671 -9.73511,-4.9158 -19.48738,-9.73402 -29.69922,-11.9004 17.50466,-6.37097 27.30161,-15.39824 32.84765,-25.88867 22.52767,13.01392 48.64459,13.13452 81.85157,-12.21093 -23.7779,-12.00676 -47.65411,-23.4465 -78.10938,3.05664 C 219.11573,646.92693 219.60641,635.98055 220,625 Z m -15,25 c -9.29458,18.58916 -14.42789,24.36992 -31.14258,41.13086 -0.4679,-0.0505 -0.93611,-0.10298 -1.40625,-0.14063 C 185.52163,669.58711 190.88484,664.11516 205,650 Z m 52.2793,4.80664 c 2.37707,0.0159 4.92783,0.0822 7.7207,0.19336 -19.15353,5.54847 -26.53952,7.60643 -51.5293,8.73047 0.20119,-0.43709 0.38211,-0.88071 0.57032,-1.32227 19.61931,-5.65292 27.96423,-7.70402 43.23828,-7.60156 z m -85,50 c 2.37707,0.0159 4.92783,0.0822 7.7207,0.19336 -19.93451,5.77471 -27.00557,7.77529 -54.58008,8.86914 0.0526,-0.15236 0.0952,-0.30813 0.14649,-0.46094 22.23837,-6.43816 30.55106,-8.70998 46.71289,-8.60156 z M 115,705 c -9.24144,18.48288 -14.36538,24.30049 -30.851562,40.83984 -0.535247,-0.007 -1.072902,-8e-5 -1.611329,0.0117 C 95.545291,724.565 100.91555,719.08445 115,705 Z M 40,750 C 30.712732,768.57454 25.581531,774.36152 8.8984375,791.0918 8.3776504,791.1133 7.853986,791.1519 7.3300781,791.1914 20.490717,769.61957 25.84063,764.15937 40,750 Z m 47.279297,9.80664 c 2.377069,0.0159 4.92783,0.0822 7.720703,0.19336 -18.541551,5.37119 -26.021403,7.47382 -49.138672,8.62305 0.418893,-0.68737 0.813976,-1.38301 1.19336,-2.08399 17.575675,-5.02058 25.720701,-6.82972 40.224609,-6.73242 z M 523.07617,810 527.68359,915 H 788.32812 L 814.875,810 Z m 467.70899,71.87109 -2.30469,9.46289 c -13.93563,57.21716 -16.33715,109.63622 -11.89649,161.65232 0.99746,11.6837 2.41448,23.3868 4.16602,35.1309 l 2.11914,14.2109 8.61524,-11.498 c 21.29782,-28.4219 44.77012,-53.8249 69.99222,-76.6211 l 2.7832,-2.5156 -1.043,-3.6055 c -17.2201,-59.46375 -30.2536,-90.30006 -65.01563,-119.90235 z m 7.12695,22.38282 c 26.41369,25.13479 37.62049,51.97746 52.73439,103.68749 -21.3047,19.5174 -41.3226,40.9825 -59.90431,64.4629 -0.85527,-6.8316 -1.62148,-13.6472 -2.20117,-20.4375 -4.08728,-47.8767 -2.1436,-95.76657 9.37109,-147.71289 z"
       id="path4146" />
  </g>
  <g
     id="use3558"
     transform="matrix(-0.12676923,0,0,-0.13039999,45.194788,93.193579)">
    <path
       fill="#000000"
       d="m 1084.5078,560 -58.6973,98.32031 c -187.34106,313.79654 -97.78858,497.69809 -8.7128,763.00199 l 23.0918,-10.2657 -57.76177,-175.5117 C 1046.8746,1079.4869 1161.6683,999.67987 1300,944.44336 V 917.61523 C 1161.9788,971.41071 1041.6716,1050.4551 970.82812,1200.002 l 0.79493,2.7089 -1.41993,-4.3144 c -13.49084,-48.2508 -23.45095,-95.1346 -27.49609,-142.5176 -9.68778,-113.47837 12.89838,-231.1969 104.56837,-384.74413 l 58.6973,-98.32032 -29.7813,49.91602 C 1184.6867,691.72775 1257.1346,777.35088 1300,886.01562 V 653.91602 C 1247.8871,614.68957 1169.3267,573.4428 1112.0195,562.9043 l -0.064,0.10742 z M 220,625 c -38.24283,16.86912 -50.72991,39.82024 -50.18359,65.84961 -13.28958,-0.34787 -27.53429,4.81132 -43.6211,20.5957 C 129.14064,701.54104 129.6134,690.78569 130,680 91.688342,696.89948 79.224063,719.90293 79.818359,745.99023 70.667665,746.73051 61.030237,750.27464 50.632812,758.20508 54.075525,747.82091 54.590337,736.42898 55,725 16.462692,741.99901 4.0778842,765.17375 4.8300781,791.45117 3.2357829,791.65966 1.6258824,791.96264 0,792.35352 v 13.44921 C 6.4550922,804.97998 13.029216,804.84937 22.259766,805.2168 13.210678,807.83817 6.8373963,809.67947 0,811.01562 v 13.97071 c 15.19651,7.2e-4 32.096716,-6.11846 51.394531,-20.84766 -11.463177,-5.78838 -22.949782,-11.43728 -35.183593,-12.78125 13.190575,-5.09022 21.792967,-11.76219 27.439453,-19.45117 22.216707,12.23644 47.947119,11.84991 80.484379,-12.98437 -10.80315,-5.45511 -21.62773,-10.78362 -33.078129,-12.50586 19.824819,-7.61171 29.327649,-18.78077 34.013669,-31.60743 23.0285,14.30487 49.76513,15.29249 84.06446,-10.88671 -9.73511,-4.9158 -19.48738,-9.73402 -29.69922,-11.9004 17.50466,-6.37097 27.30161,-15.39824 32.84765,-25.88867 22.52767,13.01392 48.64459,13.13452 81.85157,-12.21093 -23.7779,-12.00676 -47.65411,-23.4465 -78.10938,3.05664 C 219.11573,646.92693 219.60641,635.98055 220,625 Z m -15,25 c -9.29458,18.58916 -14.42789,24.36992 -31.14258,41.13086 -0.4679,-0.0505 -0.93611,-0.10298 -1.40625,-0.14063 C 185.52163,669.58711 190.88484,664.11516 205,650 Z m 52.2793,4.80664 c 2.37707,0.0159 4.92783,0.0822 7.7207,0.19336 -19.15353,5.54847 -26.53952,7.60643 -51.5293,8.73047 0.20119,-0.43709 0.38211,-0.88071 0.57032,-1.32227 19.61931,-5.65292 27.96423,-7.70402 43.23828,-7.60156 z m -85,50 c 2.37707,0.0159 4.92783,0.0822 7.7207,0.19336 -19.93451,5.77471 -27.00557,7.77529 -54.58008,8.86914 0.0526,-0.15236 0.0952,-0.30813 0.14649,-0.46094 22.23837,-6.43816 30.55106,-8.70998 46.71289,-8.60156 z M 115,705 c -9.24144,18.48288 -14.36538,24.30049 -30.851562,40.83984 -0.535247,-0.007 -1.072902,-8e-5 -1.611329,0.0117 C 95.545291,724.565 100.91555,719.08445 115,705 Z M 40,750 C 30.712732,768.57454 25.581531,774.36152 8.8984375,791.0918 8.3776504,791.1133 7.853986,791.1519 7.3300781,791.1914 20.490717,769.61957 25.84063,764.15937 40,750 Z m 47.279297,9.80664 c 2.377069,0.0159 4.92783,0.0822 7.720703,0.19336 -18.541551,5.37119 -26.021403,7.47382 -49.138672,8.62305 0.418893,-0.68737 0.813976,-1.38301 1.19336,-2.08399 17.575675,-5.02058 25.720701,-6.82972 40.224609,-6.73242 z M 523.07617,810 527.68359,915 H 788.32812 L 814.875,810 Z m 467.70899,71.87109 -2.30469,9.46289 c -13.93563,57.21716 -16.33715,109.63622 -11.89649,161.65232 0.99746,11.6837 2.41448,23.3868 4.16602,35.1309 l 2.11914,14.2109 8.61524,-11.498 c 21.29782,-28.4219 44.77012,-53.8249 69.99222,-76.6211 l 2.7832,-2.5156 -1.043,-3.6055 c -17.2201,-59.46375 -30.2536,-90.30006 -65.01563,-119.90235 z m 7.12695,22.38282 c 26.41369,25.13479 37.62049,51.97746 52.73439,103.68749 -21.3047,19.5174 -41.3226,40.9825 -59.90431,64.4629 -0.85527,-6.8316 -1.62148,-13.6472 -2.20117,-20.4375 -4.08728,-47.8767 -2.1436,-95.76657 9.37109,-147.71289 z"
       id="path4150" />
  </g>
  <g
     id="use3560"
     transform="matrix(0.12676923,0,0,0.13039999,-119.60522,-167.60641)">
    <path
       stroke="#4444ff"
       stroke-linecap="round"
       stroke-linejoin="round"
       stroke-width="6"
       fill="none"
       d="m 1205,261.18164 v 97.63672 M 1190,252.1289 v 115.7422 m -15,-17.56056 v 29.9961 m 0,-89.9004 -10e-5,39.18749 M 1175,239.69335 v 29.99609 m -15,98.6836 v 27.98437 m 0,-98.00194 10e-5,23.28907 M 1160,223.64258 v 27.98437 m -15,54.2461 v 8.2539 M 520.13446,778.54293 C 616.39636,754.40581 684.39171,730.93507 767.92578,660 H 910.32031 C 753.53338,957.27564 802.41449,1188.8569 841.52379,1425.2537 M 525.76562,808.05859 C 620.59119,784.3522 694.85471,758.78386 778.83594,690 h 83.00586 c -131.84598,281.90144 -89.77828,512.978 -51.06863,736.0453 m 178.593,6.9 C 889.2541,1168.1986 806.63756,966.90855 1000.0508,642.94141 L 1031.6582,590 H 741.76562 l -9.92187,8.75586 C 653.49449,667.88756 603.995,685.13006 511.71279,708.4804 m 505.38411,712.8423 C 928.0212,1156.0188 838.46934,972.11685 1025.8105,658.32031 L 1084.5078,560 H 730.42383 l -18.42969,16.25977 C 637.63336,641.87222 596.15152,656.18358 507.32302,678.65261 M 426.29144,0.00702507 C 462.76227,61.819745 494.76219,122.79563 510,190 730,140 800,325 1000,265 993.85203,157.29694 1056.1226,67.145249 1111.9664,-0.01834848 M 614.75871,0.03174285 C 631.48735,41.409963 670.70575,49.676525 670.33977,90.060085 c -0.4078,44.996545 -60.97867,44.224205 -60.33467,-0.77015 0.43526,-30.409995 34.90628,-29.556141 34.47696,0.44009 -0.2147,14.998125 -21.76276,14.723075 -21.5481,-0.27505 M 599.09597,0.04408137 C 581.14616,40.794213 541.83979,48.101132 541.05119,88.409775 c -0.88018,44.990505 59.69066,45.764495 60.33466,0.77015 0.43527,-30.410001 -34.0476,-30.436316 -34.47693,-0.44008 -0.21468,14.998125 21.33342,15.273165 21.54809,0.27505 M 910,3.4099281 c -3.95826,75.0516359 63.50376,83.5710439 57.93973,133.1765019 -5.01372,44.69932 -73.04277,36.17196 -67.76365,-8.49498 3.56795,-30.188676 42.24149,-24.92367 38.72211,4.85427 -1.75972,14.88897 -25.96102,11.85506 -24.20132,-3.03391 M 910,3.4099281 C 896.36123,77.247999 828.88472,68.851326 822.73189,118.38296 c -5.5443,44.63282 62.48457,53.16184 67.76365,8.49494 3.56796,-30.188691 -35.20268,-34.632196 -38.7221,-4.85425 -1.75969,14.88897 22.44162,17.92288 24.20131,3.0339 m -384.09036,3.74634 C 710,100 880,200 1015.6035,156.59474 m -20.19268,5.32816 C 1002.4081,149.77019 1007.2538,135.65937 1010,120 c 8.2712,-0.94453 15.9872,-2.11301 23.2045,-3.47492 m -81.71625,50.84911 c 19.21873,-13.48839 30.89168,-37.15278 31.90284,-75.195325 30.42501,-1.54844 52.50071,-5.644041 69.80531,-11.195181 M 466.51909,71.25512 c 9.446,5.241489 19.35411,9.278943 29.91392,11.366113 3.98484,11.50305 8.45187,24.996677 17.21275,39.740407 0.76253,1.28327 1.56561,2.56007 2.40931,3.8285 m 36.57338,-2.29721 C 531.21852,105.07197 528.49488,78.759296 516.72883,54.10509 491.69879,56.297 462.17773,35.159386 433.18294,8.3158803 M 698.80445,133.69588 c 9.72323,-12.91028 17.51651,-28.17792 22.5967,-45.675673 10.84696,-3.769131 20.57045,-9.546158 28.66027,-16.603965 6.14753,8.853184 14.18715,16.870197 23.79899,23.219253 0.78534,19.911645 5.34936,38.047205 12.74223,53.992355 M 757.09165,0.05247459 C 747.11204,32.94264 733.17361,60.760947 697.08876,62.687238 692.45939,93.201075 680.69719,114.37968 664.04529,129.14604 m 160.49298,26.22777 C 808.69153,135.9893 800.32723,110.64434 803.52674,76.109422 768.85613,65.233805 762.11592,34.58927 760.38141,0.04274993 M 0.12758657,733.28026 C 160.87224,627.13785 273.94651,577.15097 405.89243,531.56472 M 1084.5078,560 c 58.5556,0 155.0482,48.39296 215.6064,93.99597 m -239.3165,-5.45863 c 113.0963,71.76959 182.6168,159.56987 221.4243,276.26361 M 1045.468,674.30181 c 108.8239,68.97904 172.6262,150.48598 209.0911,262.34741 m 45.5122,-50.45963 C 1257.2145,777.44226 1184.7434,691.77084 1076.1707,622.79818 m -77.4355,140.10168 c 94.5834,60.40167 136.8968,120.76076 165.8987,221.53143 M 988.56827,785.96404 c 89.06273,57.04368 124.76233,109.89846 152.39653,206.61799 l 1.791,6.26957 M 973.92304,823.82292 c 78.20346,50.36129 103.12766,90.66162 128.58086,179.74738 l 5.9889,20.9627 m -63.1236,257.0588 3.3378,-9.8242 c 51.421,-130.6216 135.3498,-196.3419 251.2491,-246.2589 m -145.8655,202.4399 c 35.8119,-56.2116 81.9276,-90.805 145.8142,-120.7726 m -186.5255,142.2542 c 42.7642,-84.6421 101.8335,-131.0659 186.517,-169.5437 m -222.025,186.6938 c 47.6872,-111.379 119.4528,-168.5747 222.0057,-213.8957 M 970.82826,1200.0024 C 1041.6679,1050.4636 1161.9459,971.39134 1299.9572,917.59538 M 981.74106,1237.1891 C 1046.0578,1080.0411 1161.1748,999.87324 1299.9935,944.44308 M 1002.2784,1300.143 c 108.097,-44.3645 209.4748,-97.7156 297.742,-168.6012 m -329.81718,66.8542 c -13.49084,-48.2508 -23.45105,-95.1341 -27.49619,-142.5171 -9.68778,-113.47839 12.8984,-231.1969 104.56837,-384.74413 l 58.6973,-98.32032 7.0893,-9.68201 m -73.17,847.47336 c -19.6674,-59.8732 -42.01691,-121.2993 -58.39794,-173.9602 M 523.07617,809.99999 814.875,810 M 527.68361,915.00002 788.32812,915 M 527.26173,940.00002 783.95703,940 m 329.14387,260.2546 20.7305,13.4466 m 8.6319,-52.2366 18.5101,16.0333 m 7.8545,-42.9273 16.4611,17.8458 m 18.9079,-46.5199 14.1,19.8096 m 17.7159,-40.4383 12.3359,21.0656 m 30.262,-43.7352 10.5793,22.2621 m -193.8269,145.6376 21.8236,11.5782 M 1220,603.86522 V 160 l 80,-80.000001 M 1260,626.74805 V 176.56836 l 39.9995,-39.99853 m -80.0176,216.09449 C 1178.5001,366.00542 1146.587,405.67533 1120,460 c -1.436,-40.36288 -8.3056,-82.08674 20,-115 -16.063,-8.51062 -30.6803,-9.46321 -50,-35 19.3197,-25.53679 33.937,-26.48938 50,-35 -28.3056,-32.91326 -21.436,-74.63712 -20,-115 26.587,54.32467 58.5001,93.99458 99.9819,107.33568 m -71.6809,144.09906 c 0.056,-3.19695 0.1942,-6.27513 0.4412,-9.2238 1.32,-15.75587 4.7198,-26.855 14.0039,-37.65039 l 24.4941,-28.48243 -33.1953,-17.58789 c -8.6379,-4.57661 -14.026,-6.53096 -18.7031,-8.49023 4.6771,-1.95927 10.0652,-3.91362 18.7031,-8.49023 l 33.1953,-17.58789 -24.4941,-28.48243 c -9.2841,-10.79539 -12.6839,-21.89452 -14.0039,-37.65039 -0.247,-2.94867 -0.385,-6.02685 -0.4412,-9.22381 M 1120,160 c -80.2538,116.73042 -51.7455,210.78734 0,300 M 708.55864,618.37566 A 42,42 0 0 1 730,655 v 0 a 42,42 0 0 1 -42,42 42,42 0 0 1 -41.59831,-36.20511 M 686.0285,635.59992 A 19.5,19.5 0 0 1 688,635.5 19.5,19.5 0 0 1 707.5,655 19.5,19.5 0 0 1 688,674.5 19.5,19.5 0 0 1 668.5,655 a 19.5,19.5 0 0 1 2.09058,-8.7842 M 797.22857,589.99651 A 42,42 0 0 1 800,605 42,42 0 0 1 758,647 42,42 0 0 1 716.56355,611.85714 m 53.88961,-21.86255 A 19.5,19.5 0 0 1 777.5,605 19.5,19.5 0 0 1 758,624.5 19.5,19.5 0 0 1 738.5,605 a 19.5,19.5 0 0 1 7.05511,-15.01249 m 138.23451,0.002 A 42,42 0 0 1 885,600 a 42,42 0 0 1 -42,42 42,42 0 0 1 -42,-42 42,42 0 0 1 1.21089,-10.01241 m 57.52303,0.001 A 19.5,19.5 0 0 1 862.5,600 19.5,19.5 0 0 1 843,619.5 19.5,19.5 0 0 1 823.5,600 a 19.5,19.5 0 0 1 2.76669,-10.01231 m 145.02293,0.002 A 42,42 0 0 1 972.5,600 a 42,42 0 0 1 -42,42 42,42 0 0 1 -42,-42 42,42 0 0 1 1.21089,-10.01241 m 57.52303,0.001 A 19.5,19.5 0 0 1 950,600 19.5,19.5 0 0 1 930.5,619.5 19.5,19.5 0 0 1 911,600 a 19.5,19.5 0 0 1 2.76669,-10.01231 m 88.19401,49.77017 A 42,42 0 0 1 973.5,600 a 42,42 0 0 1 1.21089,-10.01241 m 39.37631,29.46116 A 19.5,19.5 0 0 1 996,600 a 19.5,19.5 0 0 1 2.76669,-10.01231 m -38.47274,125.7534 A 42,42 0 0 1 928.5,675 a 42,42 0 0 1 42,-42 42,42 0 0 1 28.73891,11.37199 m -28.082,50.11694 A 19.5,19.5 0 0 1 970.5,694.5 19.5,19.5 0 0 1 951,675 a 19.5,19.5 0 0 1 19.5,-19.5 19.5,19.5 0 0 1 16.78498,9.57456 m -60.6197,126.75001 A 42,42 0 0 1 888.5,750 a 42,42 0 0 1 42,-42 42,42 0 0 1 28.2289,10.9013 m -22.75716,49.81527 A 19.5,19.5 0 0 1 930.5,769.5 19.5,19.5 0 0 1 911,750 a 19.5,19.5 0 0 1 19.5,-19.5 19.5,19.5 0 0 1 17.49368,10.88483 m -46.75674,130.6087 A 42,42 0 0 1 900.5,872 a 42,42 0 0 1 -42,-42 42,42 0 0 1 42,-42 42,42 0 0 1 24.63624,7.98448 m -17.41646,52.12973 A 19.5,19.5 0 0 1 900.5,849.5 19.5,19.5 0 0 1 881,830 a 19.5,19.5 0 0 1 19.5,-19.5 19.5,19.5 0 0 1 16.27796,8.76324 M 641.0431,663.73365 A 42,42 0 0 1 655,695 a 42,42 0 0 1 -42,42 42,42 0 0 1 -42,-42 42,42 0 0 1 0.10369,-2.94948 m 44.81909,-16.33023 A 19.5,19.5 0 0 1 632.5,695 19.5,19.5 0 0 1 613,714.5 19.5,19.5 0 0 1 593.5,695 a 19.5,19.5 0 0 1 4.1583,-12.03671 m -31.95215,10.68698 A 42,42 0 0 1 575,720 a 42,42 0 0 1 -42,42 42,42 0 0 1 -15.08264,-2.80161 m 20.87302,-57.81885 A 19.5,19.5 0 0 1 552.5,720 19.5,19.5 0 0 1 533,739.5 19.5,19.5 0 0 1 513.5,720 19.5,19.5 0 0 1 518.8419,706.59112 M 795.15874,246.41185 C 741.57829,377.81587 800,422.2098 800,500 c 0,55 -115,90 -115,0 0,-55 75,-55 75,-10 0,35 -62.76516,44.8906 -60,10 3.05186,-38.5082 47.48736,-19.35457 35,-5 M 782.51711,240.73254 C 724.7769,376.33225 780.4844,412.89037 780.4844,491.78982 780.4844,546.78982 695,550 700,500 M 770,235 C 708.21196,375.32061 760,410 760,490 M 807.99686,251.82095 C 758.18508,379.05176 815,423.287 815,500 c 0,30.82308 -36.11806,55.36475 -67.87165,55.14387 M 821.04773,256.90115 C 774.70049,380.24547 830,424.31698 830,500 c 0,30.82308 -36.11806,55.36475 -67.87165,55.14387 M 834.32336,261.58294 C 791.10233,381.37499 845,425.28242 845,500 c 0,30.82308 -36.11806,55.36475 -67.87165,55.14387 M 847.74806,266.03904 C 807.44112,382.47731 860,426.21624 860,500 c 0,30.82308 -36.11806,55.36475 -67.87165,55.14387 M 861.46381,269.81818 C 823.57988,383.43372 875,427.01992 875,500 c 0,30.82308 -36.11806,55.36475 -67.87165,55.14387 M 875.46271,272.86832 C 839.50111,384.22051 890,427.67663 890,500 c 0,30.82308 -36.11806,55.36475 -67.87165,55.14387 M 889.73747,275.14186 C 855.189,384.81584 905,428.1709 905,500 c 0,30.82308 -36.11806,55.36475 -67.87165,55.14387 M 904.28317,276.59588 C 870.62945,385.20061 920,428.48918 920,500 c 0,30.82308 -36.11806,55.36475 -67.87165,55.14387 M 919.10028,277.18811 C 885.80896,385.35825 935,428.6193 935,500 c 0,30.82308 -36.11806,55.36475 -67.87165,55.14387 M 934.19481,276.88149 C 900.71601,385.27657 950,428.5519 950,500 c 0,30.82308 -36.11806,55.36475 -67.87165,55.14387 M 949.583,275.63358 C 915.3379,384.94561 965,428.27835 965,500 c 0,30.82308 -36.11806,55.36475 -67.87165,55.14387 M 965.28988,273.40505 C 929.66341,384.36036 980,427.79294 980,500 c 0,30.82308 -36.11806,55.36475 -67.87165,55.14387 M 981.35298,270.15113 C 943.68034,383.51895 995,427.09125 995,500 c 0,30.82308 -36.11806,55.36475 -67.87165,55.14387 m 70.7421,-289.45778 C 957.33493,382.38901 1010,426.14173 1010,500 c 0,30.82308 -36.11806,55.36475 -67.87165,55.14387 M 520,532.77778 C 465.79585,598.50432 405,580 405,540 c 0,-40 65,-45 65,-5 0,30 -45,25 -45,5 0,-10 0,-10 5,-15 m 70,9.44444 c -25.08277,26.79136 -49.17691,31.34092 -67.46305,18.09251 M 540,532.22222 c -20,40 -57.91528,45.68364 -79.40254,45.12203 M 560,533.88889 c -20,40 -55.86273,43.19595 -77.34999,42.63434 M 580,535 c -20,40 -55.86273,42.08484 -77.34999,41.52323 M 600,533.33333 c -20,40 -55.86273,43.75151 -77.34999,43.1899 M 620,531.66667 c -20,40 -55.86273,45.41817 -77.34999,44.85656 M 640,530.55556 c -20,40 -55.86273,46.52928 -77.34999,45.96767 M 660,531.11111 c -20,40 -55.86273,45.97373 -77.34999,45.41212 M 680,530 c -20,40 -55.86273,47.08484 -77.34999,46.52323 m 92.87257,-38.51066 c -20.53037,32.95263 -52.90713,39.03249 -72.87257,38.51066 M 517.82728,188.82725 C 514.88589,200.90948 510,221.50505 510,225 c 0,5 15,20 15,25 0,5 -25,30 -35,45 -10,15 -25,60 -25,70 0,10 -5,20 10,20 15,0 20,15 20,15 l -10,15 10,25 c 0,0 -1.83772,13.67544 -5,20 -5,10 20,15 20,20 0,5 -20.43692,15.01913 -20,20 3.90773,44.54792 -24.38342,56.24006 -25,50 m 70,-200 c 15,0 10,40 -10,30 -30,-15 -45,5 -15,-5 m 105,35 c 2.20477,-6.06312 7.38336,-10 15,-10 25,0 10,45 -30,45 -40,0 -85,-35 -85,-35 v -15 c 40,15 30,45 85,50 m -105,-5 c 20,0 40,5 60,20 -22.92526,-16.54382 -40,-35 -70,-45 m 40,-205 -5,15 c 0,0 45,-5 55,-5 30,0 60,45 95,45 -35,0 -65,-55 -95.29027,-56.16109 -9.99266,-0.38305 -13.61398,9.41945 -33.61398,9.41945 C 536.3817,218.25836 525,210 525,210 v 0 m 105,80 c -30,0 -45.34554,-24.91813 -65,-25 -10.13785,-0.0422 -30,5 -30,5 m 60.87082,9.64438 C 610.87277,299.64662 557.3738,309.07226 545,295 M 239.86931,597.1156 C 233.83109,582.48372 222.96633,557.69108 210,535 c -20,-35 -45,-15 -35,5 10,20 20,35 20,35 M 175.29027,539.93465 C 173.60935,538.91322 154.06592,512.45682 125,500 c -35,-15 -33.237561,7.22236 -10,25 11.23211,8.593 50,65 50,65 M 105,515.29027 C 85,495 60,500 80,530 c 20,30 55,75 55,75 M 80,530 c -15,-20 -30,0 -15,20 18.973666,25.29822 40,80 40,80 M 72.031916,560.58055 C 45,530 44.063832,561.80699 54.063832,581.80699 59.063831,591.80699 75,645 80,655 l 10.701172,21.40234 M 1037.5644,687.8699 c 4.7228,7.86815 11.4714,18.19567 -8.3426,39.34101 -9.1264,9.73964 -2.6874,24.1805 10.7782,7.78909 20,-35 35,-15 45.124,-20.98813 -2.6894,9.83243 20.2095,20.5981 -10.0912,47.185 C 1065,770 1070,785 1085,770 c 21.1313,-34.32885 35.4708,-13.85011 45.7847,-19.50475 -3.0087,9.73945 19.5268,21.24648 -11.6252,46.83065 -10.3147,8.47111 -5.8067,23.62626 9.6747,9.12363 29.05,-27.94811 37.8082,-4.53242 49.209,-7.42596 -5.3504,8.67657 13.5882,25.45717 -22.9752,42.43109 -12.1064,5.62018 -11.5346,21.42125 6.0078,12.39993 31.1715,-23.04358 37.0029,1.26683 48.6718,-0.21194 -6.3705,7.95777 10.3757,26.92678 -27.9878,39.30574 -12.7024,4.09875 -14.0656,19.85129 5.6553,12.03573 35.6899,-18.74104 37.5728,6.18798 49.3282,6.58763 -7.5572,6.84089 5.9522,28.23612 -33.8938,34.34339 -13.1932,2.02216 -17.0493,17.35616 3.6651,12.78314 M 1026.4931,707.76203 c 4.5725,14.6211 -28.11348,34.81884 -9.7014,47.17428 20.4797,13.74293 35.3028,-2.51702 53.2083,-19.93631 -14.9048,20.04709 -30.6967,38.70115 -10,55 19.4354,16.73082 36.5198,-2.19539 54.984,-19.02122 -15.5509,19.55013 -29.984,39.02122 -17.5939,56.48001 12.7916,18.0245 38.1415,-0.88827 60.2289,-12.5578 -19.9486,15.03623 -45.2813,28.28577 -32.619,50.09901 12.5467,21.61399 39.1886,10.78859 62.5364,1.90541 C 1165.9,879.3914 1144.1675,892.81609 1155,915 c 10.3717,21.24013 33.2374,11.17453 57.7024,6.12551 -23.9263,7.68906 -52.1643,19.08863 -29.3024,51.67133"
       id="path4154" />
  </g>
  <g
     id="use3562"
     transform="matrix(-0.12676923,0,0,-0.13039999,45.194788,93.193579)">
    <path
       stroke="#4444ff"
       stroke-linecap="round"
       stroke-linejoin="round"
       stroke-width="6"
       fill="none"
       d="m 1205,261.18164 v 97.63672 M 1190,252.1289 v 115.7422 m -15,-17.56056 v 29.9961 m 0,-89.9004 -10e-5,39.18749 M 1175,239.69335 v 29.99609 m -15,98.6836 v 27.98437 m 0,-98.00194 10e-5,23.28907 M 1160,223.64258 v 27.98437 m -15,54.2461 v 8.2539 M 520.13446,778.54293 C 616.39636,754.40581 684.39171,730.93507 767.92578,660 H 910.32031 C 753.53338,957.27564 802.41449,1188.8569 841.52379,1425.2537 M 525.76562,808.05859 C 620.59119,784.3522 694.85471,758.78386 778.83594,690 h 83.00586 c -131.84598,281.90144 -89.77828,512.978 -51.06863,736.0453 m 178.593,6.9 C 889.2541,1168.1986 806.63756,966.90855 1000.0508,642.94141 L 1031.6582,590 H 741.76562 l -9.92187,8.75586 C 653.49449,667.88756 603.995,685.13006 511.71279,708.4804 m 505.38411,712.8423 C 928.0212,1156.0188 838.46934,972.11685 1025.8105,658.32031 L 1084.5078,560 H 730.42383 l -18.42969,16.25977 C 637.63336,641.87222 596.15152,656.18358 507.32302,678.65261 M 426.29144,0.00702507 C 462.76227,61.819745 494.76219,122.79563 510,190 730,140 800,325 1000,265 993.85203,157.29694 1056.1226,67.145249 1111.9664,-0.01834848 M 614.75871,0.03174285 C 631.48735,41.409963 670.70575,49.676525 670.33977,90.060085 c -0.4078,44.996545 -60.97867,44.224205 -60.33467,-0.77015 0.43526,-30.409995 34.90628,-29.556141 34.47696,0.44009 -0.2147,14.998125 -21.76276,14.723075 -21.5481,-0.27505 M 599.09597,0.04408137 C 581.14616,40.794213 541.83979,48.101132 541.05119,88.409775 c -0.88018,44.990505 59.69066,45.764495 60.33466,0.77015 0.43527,-30.410001 -34.0476,-30.436316 -34.47693,-0.44008 -0.21468,14.998125 21.33342,15.273165 21.54809,0.27505 M 910,3.4099281 c -3.95826,75.0516359 63.50376,83.5710439 57.93973,133.1765019 -5.01372,44.69932 -73.04277,36.17196 -67.76365,-8.49498 3.56795,-30.188676 42.24149,-24.92367 38.72211,4.85427 -1.75972,14.88897 -25.96102,11.85506 -24.20132,-3.03391 M 910,3.4099281 C 896.36123,77.247999 828.88472,68.851326 822.73189,118.38296 c -5.5443,44.63282 62.48457,53.16184 67.76365,8.49494 3.56796,-30.188691 -35.20268,-34.632196 -38.7221,-4.85425 -1.75969,14.88897 22.44162,17.92288 24.20131,3.0339 m -384.09036,3.74634 C 710,100 880,200 1015.6035,156.59474 m -20.19268,5.32816 C 1002.4081,149.77019 1007.2538,135.65937 1010,120 c 8.2712,-0.94453 15.9872,-2.11301 23.2045,-3.47492 m -81.71625,50.84911 c 19.21873,-13.48839 30.89168,-37.15278 31.90284,-75.195325 30.42501,-1.54844 52.50071,-5.644041 69.80531,-11.195181 M 466.51909,71.25512 c 9.446,5.241489 19.35411,9.278943 29.91392,11.366113 3.98484,11.50305 8.45187,24.996677 17.21275,39.740407 0.76253,1.28327 1.56561,2.56007 2.40931,3.8285 m 36.57338,-2.29721 C 531.21852,105.07197 528.49488,78.759296 516.72883,54.10509 491.69879,56.297 462.17773,35.159386 433.18294,8.3158803 M 698.80445,133.69588 c 9.72323,-12.91028 17.51651,-28.17792 22.5967,-45.675673 10.84696,-3.769131 20.57045,-9.546158 28.66027,-16.603965 6.14753,8.853184 14.18715,16.870197 23.79899,23.219253 0.78534,19.911645 5.34936,38.047205 12.74223,53.992355 M 757.09165,0.05247459 C 747.11204,32.94264 733.17361,60.760947 697.08876,62.687238 692.45939,93.201075 680.69719,114.37968 664.04529,129.14604 m 160.49298,26.22777 C 808.69153,135.9893 800.32723,110.64434 803.52674,76.109422 768.85613,65.233805 762.11592,34.58927 760.38141,0.04274993 M 0.12758657,733.28026 C 160.87224,627.13785 273.94651,577.15097 405.89243,531.56472 M 1084.5078,560 c 58.5556,0 155.0482,48.39296 215.6064,93.99597 m -239.3165,-5.45863 c 113.0963,71.76959 182.6168,159.56987 221.4243,276.26361 M 1045.468,674.30181 c 108.8239,68.97904 172.6262,150.48598 209.0911,262.34741 m 45.5122,-50.45963 C 1257.2145,777.44226 1184.7434,691.77084 1076.1707,622.79818 m -77.4355,140.10168 c 94.5834,60.40167 136.8968,120.76076 165.8987,221.53143 M 988.56827,785.96404 c 89.06273,57.04368 124.76233,109.89846 152.39653,206.61799 l 1.791,6.26957 M 973.92304,823.82292 c 78.20346,50.36129 103.12766,90.66162 128.58086,179.74738 l 5.9889,20.9627 m -63.1236,257.0588 3.3378,-9.8242 c 51.421,-130.6216 135.3498,-196.3419 251.2491,-246.2589 m -145.8655,202.4399 c 35.8119,-56.2116 81.9276,-90.805 145.8142,-120.7726 m -186.5255,142.2542 c 42.7642,-84.6421 101.8335,-131.0659 186.517,-169.5437 m -222.025,186.6938 c 47.6872,-111.379 119.4528,-168.5747 222.0057,-213.8957 M 970.82826,1200.0024 C 1041.6679,1050.4636 1161.9459,971.39134 1299.9572,917.59538 M 981.74106,1237.1891 C 1046.0578,1080.0411 1161.1748,999.87324 1299.9935,944.44308 M 1002.2784,1300.143 c 108.097,-44.3645 209.4748,-97.7156 297.742,-168.6012 m -329.81718,66.8542 c -13.49084,-48.2508 -23.45105,-95.1341 -27.49619,-142.5171 -9.68778,-113.47839 12.8984,-231.1969 104.56837,-384.74413 l 58.6973,-98.32032 7.0893,-9.68201 m -73.17,847.47336 c -19.6674,-59.8732 -42.01691,-121.2993 -58.39794,-173.9602 M 523.07617,809.99999 814.875,810 M 527.68361,915.00002 788.32812,915 M 527.26173,940.00002 783.95703,940 m 329.14387,260.2546 20.7305,13.4466 m 8.6319,-52.2366 18.5101,16.0333 m 7.8545,-42.9273 16.4611,17.8458 m 18.9079,-46.5199 14.1,19.8096 m 17.7159,-40.4383 12.3359,21.0656 m 30.262,-43.7352 10.5793,22.2621 m -193.8269,145.6376 21.8236,11.5782 M 1220,603.86522 V 160 l 80,-80.000001 M 1260,626.74805 V 176.56836 l 39.9995,-39.99853 m -80.0176,216.09449 C 1178.5001,366.00542 1146.587,405.67533 1120,460 c -1.436,-40.36288 -8.3056,-82.08674 20,-115 -16.063,-8.51062 -30.6803,-9.46321 -50,-35 19.3197,-25.53679 33.937,-26.48938 50,-35 -28.3056,-32.91326 -21.436,-74.63712 -20,-115 26.587,54.32467 58.5001,93.99458 99.9819,107.33568 m -71.6809,144.09906 c 0.056,-3.19695 0.1942,-6.27513 0.4412,-9.2238 1.32,-15.75587 4.7198,-26.855 14.0039,-37.65039 l 24.4941,-28.48243 -33.1953,-17.58789 c -8.6379,-4.57661 -14.026,-6.53096 -18.7031,-8.49023 4.6771,-1.95927 10.0652,-3.91362 18.7031,-8.49023 l 33.1953,-17.58789 -24.4941,-28.48243 c -9.2841,-10.79539 -12.6839,-21.89452 -14.0039,-37.65039 -0.247,-2.94867 -0.385,-6.02685 -0.4412,-9.22381 M 1120,160 c -80.2538,116.73042 -51.7455,210.78734 0,300 M 708.55864,618.37566 A 42,42 0 0 1 730,655 v 0 a 42,42 0 0 1 -42,42 42,42 0 0 1 -41.59831,-36.20511 M 686.0285,635.59992 A 19.5,19.5 0 0 1 688,635.5 19.5,19.5 0 0 1 707.5,655 19.5,19.5 0 0 1 688,674.5 19.5,19.5 0 0 1 668.5,655 a 19.5,19.5 0 0 1 2.09058,-8.7842 M 797.22857,589.99651 A 42,42 0 0 1 800,605 42,42 0 0 1 758,647 42,42 0 0 1 716.56355,611.85714 m 53.88961,-21.86255 A 19.5,19.5 0 0 1 777.5,605 19.5,19.5 0 0 1 758,624.5 19.5,19.5 0 0 1 738.5,605 a 19.5,19.5 0 0 1 7.05511,-15.01249 m 138.23451,0.002 A 42,42 0 0 1 885,600 a 42,42 0 0 1 -42,42 42,42 0 0 1 -42,-42 42,42 0 0 1 1.21089,-10.01241 m 57.52303,0.001 A 19.5,19.5 0 0 1 862.5,600 19.5,19.5 0 0 1 843,619.5 19.5,19.5 0 0 1 823.5,600 a 19.5,19.5 0 0 1 2.76669,-10.01231 m 145.02293,0.002 A 42,42 0 0 1 972.5,600 a 42,42 0 0 1 -42,42 42,42 0 0 1 -42,-42 42,42 0 0 1 1.21089,-10.01241 m 57.52303,0.001 A 19.5,19.5 0 0 1 950,600 19.5,19.5 0 0 1 930.5,619.5 19.5,19.5 0 0 1 911,600 a 19.5,19.5 0 0 1 2.76669,-10.01231 m 88.19401,49.77017 A 42,42 0 0 1 973.5,600 a 42,42 0 0 1 1.21089,-10.01241 m 39.37631,29.46116 A 19.5,19.5 0 0 1 996,600 a 19.5,19.5 0 0 1 2.76669,-10.01231 m -38.47274,125.7534 A 42,42 0 0 1 928.5,675 a 42,42 0 0 1 42,-42 42,42 0 0 1 28.73891,11.37199 m -28.082,50.11694 A 19.5,19.5 0 0 1 970.5,694.5 19.5,19.5 0 0 1 951,675 a 19.5,19.5 0 0 1 19.5,-19.5 19.5,19.5 0 0 1 16.78498,9.57456 m -60.6197,126.75001 A 42,42 0 0 1 888.5,750 a 42,42 0 0 1 42,-42 42,42 0 0 1 28.2289,10.9013 m -22.75716,49.81527 A 19.5,19.5 0 0 1 930.5,769.5 19.5,19.5 0 0 1 911,750 a 19.5,19.5 0 0 1 19.5,-19.5 19.5,19.5 0 0 1 17.49368,10.88483 m -46.75674,130.6087 A 42,42 0 0 1 900.5,872 a 42,42 0 0 1 -42,-42 42,42 0 0 1 42,-42 42,42 0 0 1 24.63624,7.98448 m -17.41646,52.12973 A 19.5,19.5 0 0 1 900.5,849.5 19.5,19.5 0 0 1 881,830 a 19.5,19.5 0 0 1 19.5,-19.5 19.5,19.5 0 0 1 16.27796,8.76324 M 641.0431,663.73365 A 42,42 0 0 1 655,695 a 42,42 0 0 1 -42,42 42,42 0 0 1 -42,-42 42,42 0 0 1 0.10369,-2.94948 m 44.81909,-16.33023 A 19.5,19.5 0 0 1 632.5,695 19.5,19.5 0 0 1 613,714.5 19.5,19.5 0 0 1 593.5,695 a 19.5,19.5 0 0 1 4.1583,-12.03671 m -31.95215,10.68698 A 42,42 0 0 1 575,720 a 42,42 0 0 1 -42,42 42,42 0 0 1 -15.08264,-2.80161 m 20.87302,-57.81885 A 19.5,19.5 0 0 1 552.5,720 19.5,19.5 0 0 1 533,739.5 19.5,19.5 0 0 1 513.5,720 19.5,19.5 0 0 1 518.8419,706.59112 M 795.15874,246.41185 C 741.57829,377.81587 800,422.2098 800,500 c 0,55 -115,90 -115,0 0,-55 75,-55 75,-10 0,35 -62.76516,44.8906 -60,10 3.05186,-38.5082 47.48736,-19.35457 35,-5 M 782.51711,240.73254 C 724.7769,376.33225 780.4844,412.89037 780.4844,491.78982 780.4844,546.78982 695,550 700,500 M 770,235 C 708.21196,375.32061 760,410 760,490 M 807.99686,251.82095 C 758.18508,379.05176 815,423.287 815,500 c 0,30.82308 -36.11806,55.36475 -67.87165,55.14387 M 821.04773,256.90115 C 774.70049,380.24547 830,424.31698 830,500 c 0,30.82308 -36.11806,55.36475 -67.87165,55.14387 M 834.32336,261.58294 C 791.10233,381.37499 845,425.28242 845,500 c 0,30.82308 -36.11806,55.36475 -67.87165,55.14387 M 847.74806,266.03904 C 807.44112,382.47731 860,426.21624 860,500 c 0,30.82308 -36.11806,55.36475 -67.87165,55.14387 M 861.46381,269.81818 C 823.57988,383.43372 875,427.01992 875,500 c 0,30.82308 -36.11806,55.36475 -67.87165,55.14387 M 875.46271,272.86832 C 839.50111,384.22051 890,427.67663 890,500 c 0,30.82308 -36.11806,55.36475 -67.87165,55.14387 M 889.73747,275.14186 C 855.189,384.81584 905,428.1709 905,500 c 0,30.82308 -36.11806,55.36475 -67.87165,55.14387 M 904.28317,276.59588 C 870.62945,385.20061 920,428.48918 920,500 c 0,30.82308 -36.11806,55.36475 -67.87165,55.14387 M 919.10028,277.18811 C 885.80896,385.35825 935,428.6193 935,500 c 0,30.82308 -36.11806,55.36475 -67.87165,55.14387 M 934.19481,276.88149 C 900.71601,385.27657 950,428.5519 950,500 c 0,30.82308 -36.11806,55.36475 -67.87165,55.14387 M 949.583,275.63358 C 915.3379,384.94561 965,428.27835 965,500 c 0,30.82308 -36.11806,55.36475 -67.87165,55.14387 M 965.28988,273.40505 C 929.66341,384.36036 980,427.79294 980,500 c 0,30.82308 -36.11806,55.36475 -67.87165,55.14387 M 981.35298,270.15113 C 943.68034,383.51895 995,427.09125 995,500 c 0,30.82308 -36.11806,55.36475 -67.87165,55.14387 m 70.7421,-289.45778 C 957.33493,382.38901 1010,426.14173 1010,500 c 0,30.82308 -36.11806,55.36475 -67.87165,55.14387 M 520,532.77778 C 465.79585,598.50432 405,580 405,540 c 0,-40 65,-45 65,-5 0,30 -45,25 -45,5 0,-10 0,-10 5,-15 m 70,9.44444 c -25.08277,26.79136 -49.17691,31.34092 -67.46305,18.09251 M 540,532.22222 c -20,40 -57.91528,45.68364 -79.40254,45.12203 M 560,533.88889 c -20,40 -55.86273,43.19595 -77.34999,42.63434 M 580,535 c -20,40 -55.86273,42.08484 -77.34999,41.52323 M 600,533.33333 c -20,40 -55.86273,43.75151 -77.34999,43.1899 M 620,531.66667 c -20,40 -55.86273,45.41817 -77.34999,44.85656 M 640,530.55556 c -20,40 -55.86273,46.52928 -77.34999,45.96767 M 660,531.11111 c -20,40 -55.86273,45.97373 -77.34999,45.41212 M 680,530 c -20,40 -55.86273,47.08484 -77.34999,46.52323 m 92.87257,-38.51066 c -20.53037,32.95263 -52.90713,39.03249 -72.87257,38.51066 M 517.82728,188.82725 C 514.88589,200.90948 510,221.50505 510,225 c 0,5 15,20 15,25 0,5 -25,30 -35,45 -10,15 -25,60 -25,70 0,10 -5,20 10,20 15,0 20,15 20,15 l -10,15 10,25 c 0,0 -1.83772,13.67544 -5,20 -5,10 20,15 20,20 0,5 -20.43692,15.01913 -20,20 3.90773,44.54792 -24.38342,56.24006 -25,50 m 70,-200 c 15,0 10,40 -10,30 -30,-15 -45,5 -15,-5 m 105,35 c 2.20477,-6.06312 7.38336,-10 15,-10 25,0 10,45 -30,45 -40,0 -85,-35 -85,-35 v -15 c 40,15 30,45 85,50 m -105,-5 c 20,0 40,5 60,20 -22.92526,-16.54382 -40,-35 -70,-45 m 40,-205 -5,15 c 0,0 45,-5 55,-5 30,0 60,45 95,45 -35,0 -65,-55 -95.29027,-56.16109 -9.99266,-0.38305 -13.61398,9.41945 -33.61398,9.41945 C 536.3817,218.25836 525,210 525,210 v 0 m 105,80 c -30,0 -45.34554,-24.91813 -65,-25 -10.13785,-0.0422 -30,5 -30,5 m 60.87082,9.64438 C 610.87277,299.64662 557.3738,309.07226 545,295 M 239.86931,597.1156 C 233.83109,582.48372 222.96633,557.69108 210,535 c -20,-35 -45,-15 -35,5 10,20 20,35 20,35 M 175.29027,539.93465 C 173.60935,538.91322 154.06592,512.45682 125,500 c -35,-15 -33.237561,7.22236 -10,25 11.23211,8.593 50,65 50,65 M 105,515.29027 C 85,495 60,500 80,530 c 20,30 55,75 55,75 M 80,530 c -15,-20 -30,0 -15,20 18.973666,25.29822 40,80 40,80 M 72.031916,560.58055 C 45,530 44.063832,561.80699 54.063832,581.80699 59.063831,591.80699 75,645 80,655 l 10.701172,21.40234 M 1037.5644,687.8699 c 4.7228,7.86815 11.4714,18.19567 -8.3426,39.34101 -9.1264,9.73964 -2.6874,24.1805 10.7782,7.78909 20,-35 35,-15 45.124,-20.98813 -2.6894,9.83243 20.2095,20.5981 -10.0912,47.185 C 1065,770 1070,785 1085,770 c 21.1313,-34.32885 35.4708,-13.85011 45.7847,-19.50475 -3.0087,9.73945 19.5268,21.24648 -11.6252,46.83065 -10.3147,8.47111 -5.8067,23.62626 9.6747,9.12363 29.05,-27.94811 37.8082,-4.53242 49.209,-7.42596 -5.3504,8.67657 13.5882,25.45717 -22.9752,42.43109 -12.1064,5.62018 -11.5346,21.42125 6.0078,12.39993 31.1715,-23.04358 37.0029,1.26683 48.6718,-0.21194 -6.3705,7.95777 10.3757,26.92678 -27.9878,39.30574 -12.7024,4.09875 -14.0656,19.85129 5.6553,12.03573 35.6899,-18.74104 37.5728,6.18798 49.3282,6.58763 -7.5572,6.84089 5.9522,28.23612 -33.8938,34.34339 -13.1932,2.02216 -17.0493,17.35616 3.6651,12.78314 M 1026.4931,707.76203 c 4.5725,14.6211 -28.11348,34.81884 -9.7014,47.17428 20.4797,13.74293 35.3028,-2.51702 53.2083,-19.93631 -14.9048,20.04709 -30.6967,38.70115 -10,55 19.4354,16.73082 36.5198,-2.19539 54.984,-19.02122 -15.5509,19.55013 -29.984,39.02122 -17.5939,56.48001 12.7916,18.0245 38.1415,-0.88827 60.2289,-12.5578 -19.9486,15.03623 -45.2813,28.28577 -32.619,50.09901 12.5467,21.61399 39.1886,10.78859 62.5364,1.90541 C 1165.9,879.3914 1144.1675,892.81609 1155,915 c 10.3717,21.24013 33.2374,11.17453 57.7024,6.12551 -23.9263,7.68906 -52.1643,19.08863 -29.3024,51.67133"
       id="path4158" />
  </g>
  <g
     id="use3564"
     transform="matrix(0.12676923,0,0,0.13039999,-119.60522,-167.60641)">
    <path
       stroke="#4444ff"
       stroke-linecap="round"
       stroke-linejoin="round"
       stroke-width="3"
       fill="none"
       d="m 545,265 c 2.63987,-9.53087 17.64423,-23.57026 27.90274,-22.03192 C 591.20689,245.71293 610,280 620,280 m 10,10 c -10,0 -20,10 -20,10 m -26.99236,-28.15901 c 0.35325,1.98028 0.54101,4.05503 0.54101,6.19243 0,13.80712 -7.83502,25 -17.5,25 -9.66498,0 -17.5,-11.19288 -17.5,-25 0,-4.4285 0.80602,-8.58806 2.21992,-12.19562 M 120.80243,496.81511 c -3.72523,13.38464 -7.11981,15.26559 -16.17249,17.23428 m -8.167173,-5.55799 c -3.72523,13.38464 -11.328782,13.37882 -20.381462,15.34751 m 4.126133,6.10386 c -3.72523,13.38464 -7.70036,14.1045 -18.204409,13.751 m 7.587402,14.58715 c -5.031462,10.62704 -11.038508,10.47607 -19.655778,9.54203 M 181.95213,517.2424 C 188.17857,532.90274 210,535 210,535 M 65,590 c 4.796977,0.89471 7.936894,-1.11044 10,-5 m 33.20402,-33.97373 c 4.79698,0.89471 7.93689,-2.90642 10,-6.79598 M 65,590 c 4.796977,0.89471 7.936894,-1.11044 10,-5 m 61.02627,-52.30911 c 4.79698,0.89471 6.65405,-2.64985 8.71716,-6.53941 m -61.057059,40.66297 c 4.79698,0.89471 7.93689,-2.64985 10,-6.53941"
       id="path4162" />
    <g
       id="g4166"
       transform="matrix(0.1,0,0,0.0972,650,1000)">
      <path
         d="M -400,0 C -350,0 0,-450 0,-500 0,-450 350,0 400,0 350,0 0,450 0,500 0,450 -350,0 -400,0 Z"
         fill="#ff0000"
         id="path4164" />
    </g>
    <g
       id="g4170"
       transform="matrix(0.1,0,0,0.0972,570,1000)">
      <path
         d="M -400,0 C -350,0 0,-450 0,-500 0,-450 350,0 400,0 350,0 0,450 0,500 0,450 -350,0 -400,0 Z"
         fill="#ff0000"
         id="path4168" />
    </g>
    <g
       id="g4174"
       style="stroke:#4444ff;stroke-width:42.352;stroke-linecap:round;stroke-linejoin:round"
       transform="matrix(0.13683949,-0.03563938,0.03666603,0.13300799,400.00001,640)">
      <path
         d="M -400,0 C -350,0 0,-450 0,-500 0,-450 350,0 400,0 350,0 0,450 0,500 0,450 -350,0 -400,0 Z"
         fill="#ff0000"
         id="path4172" />
    </g>
    <g
       id="g4178"
       style="stroke:#4444ff;stroke-width:48;stroke-linecap:round;stroke-linejoin:round"
       transform="matrix(0.12310097,-0.02109825,0.02170602,0.11965414,435.00001,765)">
      <path
         d="M -400,0 C -350,0 0,-450 0,-500 0,-450 350,0 400,0 350,0 0,450 0,500 0,450 -350,0 -400,0 Z"
         fill="#ff0000"
         id="path4176" />
    </g>
    <g
       id="g4182"
       style="stroke:#4444ff;stroke-width:55.384;stroke-linecap:round;stroke-linejoin:round"
       transform="matrix(0.10792109,-0.0091775,0.00944187,0.1048993,453,885)">
      <path
         d="M -400,0 C -350,0 0,-450 0,-500 0,-450 350,0 400,0 350,0 0,450 0,500 0,450 -350,0 -400,0 Z"
         fill="#ff0000"
         id="path4180" />
    </g>
    <g
       id="g4186"
       style="stroke:#4444ff;stroke-width:65.454;stroke-linecap:round;stroke-linejoin:round"
       transform="matrix(0.09166667,0,0,0.0891,460,982)">
      <path
         d="M -400,0 C -350,0 0,-450 0,-500 0,-450 350,0 400,0 350,0 0,450 0,500 0,450 -350,0 -400,0 Z"
         fill="#ff0000"
         id="path4184" />
    </g>
    <g
       id="g4190"
       style="stroke:#4444ff;stroke-width:72;stroke-linecap:round;stroke-linejoin:round"
       transform="matrix(0.08206731,0.0140655,-0.01447068,0.07976943,450,1069.9999)">
      <path
         d="M -400,0 C -350,0 0,-450 0,-500 0,-450 350,0 400,0 350,0 0,450 0,500 0,450 -350,0 -400,0 Z"
         fill="#ff0000"
         id="path4188" />
    </g>
    <g
       id="g4194"
       transform="matrix(0.0375,0.06313325,-0.06495191,0.03645,1258.9999,1000)">
      <path
         d="M -400,0 C -350,0 0,-450 0,-500 0,-450 350,0 400,0 350,0 0,450 0,500 0,450 -350,0 -400,0 Z"
         fill="#ff0000"
         id="path4192" />
    </g>
    <g
       id="g4198"
       transform="matrix(0.04820907,0.05584464,-0.05745333,0.04685922,1173.0001,1052)">
      <path
         d="M -400,0 C -350,0 0,-450 0,-500 0,-450 350,0 400,0 350,0 0,450 0,500 0,450 -350,0 -400,0 Z"
         fill="#ff0000"
         id="path4196" />
    </g>
    <g
       id="g4202"
       transform="matrix(0.05745333,0.04685922,-0.04820907,0.05584464,1093.9999,1120)">
      <path
         d="M -400,0 C -350,0 0,-450 0,-500 0,-450 350,0 400,0 350,0 0,450 0,500 0,450 -350,0 -400,0 Z"
         fill="#ff0000"
         id="path4200" />
    </g>
    <g
       id="g4206"
       transform="matrix(0.06495191,0.03645,-0.0375,0.06313325,1038.0001,1208.9999)">
      <path
         d="M -400,0 C -350,0 0,-450 0,-500 0,-450 350,0 400,0 350,0 0,450 0,500 0,450 -350,0 -400,0 Z"
         fill="#ff0000"
         id="path4204" />
    </g>
  </g>
  <g
     id="use3566"
     transform="matrix(-0.12676923,0,0,-0.13039999,45.194788,93.193579)">
    <path
       stroke="#4444ff"
       stroke-linecap="round"
       stroke-linejoin="round"
       stroke-width="3"
       fill="none"
       d="m 545,265 c 2.63987,-9.53087 17.64423,-23.57026 27.90274,-22.03192 C 591.20689,245.71293 610,280 620,280 m 10,10 c -10,0 -20,10 -20,10 m -26.99236,-28.15901 c 0.35325,1.98028 0.54101,4.05503 0.54101,6.19243 0,13.80712 -7.83502,25 -17.5,25 -9.66498,0 -17.5,-11.19288 -17.5,-25 0,-4.4285 0.80602,-8.58806 2.21992,-12.19562 M 120.80243,496.81511 c -3.72523,13.38464 -7.11981,15.26559 -16.17249,17.23428 m -8.167173,-5.55799 c -3.72523,13.38464 -11.328782,13.37882 -20.381462,15.34751 m 4.126133,6.10386 c -3.72523,13.38464 -7.70036,14.1045 -18.204409,13.751 m 7.587402,14.58715 c -5.031462,10.62704 -11.038508,10.47607 -19.655778,9.54203 M 181.95213,517.2424 C 188.17857,532.90274 210,535 210,535 M 65,590 c 4.796977,0.89471 7.936894,-1.11044 10,-5 m 33.20402,-33.97373 c 4.79698,0.89471 7.93689,-2.90642 10,-6.79598 M 65,590 c 4.796977,0.89471 7.936894,-1.11044 10,-5 m 61.02627,-52.30911 c 4.79698,0.89471 6.65405,-2.64985 8.71716,-6.53941 m -61.057059,40.66297 c 4.79698,0.89471 7.93689,-2.64985 10,-6.53941"
       id="path4210" />
    <g
       id="g4214"
       transform="matrix(0.1,0,0,0.0972,650,1000)">
      <path
         d="M -400,0 C -350,0 0,-450 0,-500 0,-450 350,0 400,0 350,0 0,450 0,500 0,450 -350,0 -400,0 Z"
         fill="#ff0000"
         id="path4212" />
    </g>
    <g
       id="g4218"
       transform="matrix(0.1,0,0,0.0972,570,1000)">
      <path
         d="M -400,0 C -350,0 0,-450 0,-500 0,-450 350,0 400,0 350,0 0,450 0,500 0,450 -350,0 -400,0 Z"
         fill="#ff0000"
         id="path4216" />
    </g>
    <g
       id="g4222"
       style="stroke:#4444ff;stroke-width:42.352;stroke-linecap:round;stroke-linejoin:round"
       transform="matrix(0.13683949,-0.03563938,0.03666603,0.13300799,400.00001,640)">
      <path
         d="M -400,0 C -350,0 0,-450 0,-500 0,-450 350,0 400,0 350,0 0,450 0,500 0,450 -350,0 -400,0 Z"
         fill="#ff0000"
         id="path4220" />
    </g>
    <g
       id="g4226"
       style="stroke:#4444ff;stroke-width:48;stroke-linecap:round;stroke-linejoin:round"
       transform="matrix(0.12310097,-0.02109825,0.02170602,0.11965414,435.00001,765)">
      <path
         d="M -400,0 C -350,0 0,-450 0,-500 0,-450 350,0 400,0 350,0 0,450 0,500 0,450 -350,0 -400,0 Z"
         fill="#ff0000"
         id="path4224" />
    </g>
    <g
       id="g4230"
       style="stroke:#4444ff;stroke-width:55.384;stroke-linecap:round;stroke-linejoin:round"
       transform="matrix(0.10792109,-0.0091775,0.00944187,0.1048993,453,885)">
      <path
         d="M -400,0 C -350,0 0,-450 0,-500 0,-450 350,0 400,0 350,0 0,450 0,500 0,450 -350,0 -400,0 Z"
         fill="#ff0000"
         id="path4228" />
    </g>
    <g
       id="g4234"
       style="stroke:#4444ff;stroke-width:65.454;stroke-linecap:round;stroke-linejoin:round"
       transform="matrix(0.09166667,0,0,0.0891,460,982)">
      <path
         d="M -400,0 C -350,0 0,-450 0,-500 0,-450 350,0 400,0 350,0 0,450 0,500 0,450 -350,0 -400,0 Z"
         fill="#ff0000"
         id="path4232" />
    </g>
    <g
       id="g4238"
       style="stroke:#4444ff;stroke-width:72;stroke-linecap:round;stroke-linejoin:round"
       transform="matrix(0.08206731,0.0140655,-0.01447068,0.07976943,450,1069.9999)">
      <path
         d="M -400,0 C -350,0 0,-450 0,-500 0,-450 350,0 400,0 350,0 0,450 0,500 0,450 -350,0 -400,0 Z"
         fill="#ff0000"
         id="path4236" />
    </g>
    <g
       id="g4242"
       transform="matrix(0.0375,0.06313325,-0.06495191,0.03645,1258.9999,1000)">
      <path
         d="M -400,0 C -350,0 0,-450 0,-500 0,-450 350,0 400,0 350,0 0,450 0,500 0,450 -350,0 -400,0 Z"
         fill="#ff0000"
         id="path4240" />
    </g>
    <g
       id="g4246"
       transform="matrix(0.04820907,0.05584464,-0.05745333,0.04685922,1173.0001,1052)">
      <path
         d="M -400,0 C -350,0 0,-450 0,-500 0,-450 350,0 400,0 350,0 0,450 0,500 0,450 -350,0 -400,0 Z"
         fill="#ff0000"
         id="path4244" />
    </g>
    <g
       id="g4250"
       transform="matrix(0.05745333,0.04685922,-0.04820907,0.05584464,1093.9999,1120)">
      <path
         d="M -400,0 C -350,0 0,-450 0,-500 0,-450 350,0 400,0 350,0 0,450 0,500 0,450 -350,0 -400,0 Z"
         fill="#ff0000"
         id="path4248" />
    </g>
    <g
       id="g4254"
       transform="matrix(0.06495191,0.03645,-0.0375,0.06313325,1038.0001,1208.9999)">
      <path
         d="M -400,0 C -350,0 0,-450 0,-500 0,-450 350,0 400,0 350,0 0,450 0,500 0,450 -350,0 -400,0 Z"
         fill="#ff0000"
         id="path4252" />
    </g>
  </g>
</svg>
