<?xml version="1.0" encoding="UTF-8" standalone="no"?>
<svg
   class="card"
   face="QH"
   height="2.7248297in"
   preserveAspectRatio="none"
   viewBox="-120 -168 165.5804 261.58365"
   width="1.7247958in"
   version="1.1"
   id="svg799"
   sodipodi:docname="QH.svg"
   xmlns:inkscape="http://www.inkscape.org/namespaces/inkscape"
   xmlns:sodipodi="http://sodipodi.sourceforge.net/DTD/sodipodi-0.dtd"
   xmlns="http://www.w3.org/2000/svg"
   xmlns:svg="http://www.w3.org/2000/svg">
  <sodipodi:namedview
     id="namedview801"
     pagecolor="#ffffff"
     bordercolor="#000000"
     borderopacity="0.25"
     inkscape:showpageshadow="2"
     inkscape:pageopacity="0.0"
     inkscape:pagecheckerboard="0"
     inkscape:deskcolor="#d1d1d1"
     inkscape:document-units="in"
     showgrid="false" />
  <defs
     id="defs721" />
  <g
     id="use759"
     transform="matrix(0.12676923,0,0,0.13039999,-119.6098,-167.60817)">
    <path
       fill="#ffcc44"
       d="M 798.125,0 996.15039,316.93359 C 1026.6354,300.86653 1056.7752,290.13482 1095,305 1065.2482,211.34698 1028.7317,119.30478 1106.6836,0 Z M 494.94531,58.916016 C 427.8115,148.12585 357.76552,315.36093 285.76758,532.67188 l 15.62109,-9.03711 -18.01172,10.96289 c 89.61039,62.07958 188.59313,99.79514 291.49805,113.72265 29.42358,82.44201 45.91452,177.69944 53.13477,263.44141 16.14274,5.11028 33.43539,11.68412 51.53515,19.51953 42.50299,18.3996 67.67346,23.56276 85.70899,23.79492 4.53443,-101.69108 14.77857,-219.60609 49.41601,-315.82031 l -2.07226,0.0781 C 875.91474,626.31078 939.16307,604.91724 1001.1758,575.2324 L 981.72266,556.7949 C 751.03129,664.27149 506.35916,653.84417 306.95312,520.41797 L 423.39453,453.06055 C 450.1694,374.93279 477.26833,304.51484 504.12109,243.88281 499.40314,207.0768 495,168.12706 495,160 Z M 1265,515 c -52.3034,7.9422 -64.6941,51.59204 -55,115 61.9504,-13.8352 19.3892,-83.15789 55,-115 z M 245.45117,568.69922 c -24.81157,25.29489 -42.27809,53.29225 -50.63281,79.77734 -1.66482,5.27762 -2.98241,10.5867 -3.87891,15.50977 -4.75548,-3.91279 -11.30529,-10.16277 -20.19531,-24.13281 -7.07107,7.07106 -17.67848,24.74727 -10.60742,31.81836 -7.07106,-7.07106 -24.7473,3.53636 -31.81836,10.60742 18.90181,12.02843 23.66975,19.77367 26.97852,24.88086 -7.90943,0.93628 -16.21657,2.68878 -24.44727,5.28515 -27.12021,8.55507 -55.825538,26.66148 -81.591798,52.42774 C 26.312948,787.81791 9.4611255,813.0922 0,837.50391 v 38.625 c 2.5485798,-0.53117 5.1396251,-0.85186 7.7421875,-0.94532 11.4085125,-0.40965 23.0071145,3.46024 31.9453125,12.39844 17.8764,17.8764 15.482192,46.3889 -0.884766,62.75586 C 28.706862,960.43376 13.991085,965.20185 0,963.18359 v 67.80861 c 7.3753039,-12.2436 13.045898,-24.5693 16.835938,-36.584 2.129258,-6.7499 3.688798,-13.55111 4.884765,-20.70312 5.22493,2.77528 12.545278,8.39373 23.269531,25.24609 7.07106,-7.071 17.678497,-24.74726 10.607422,-31.81836 7.071075,7.0711 24.7473,-3.53632 31.81836,-10.60742 -15.692863,-9.98636 -21.643949,-17.0205 -24.802735,-21.86914 6.161002,-0.882 12.195195,-2.32395 18.189453,-4.21484 27.120216,-8.55506 55.825526,-26.66342 81.591796,-52.42969 25.76626,-25.76626 43.87462,-54.47354 52.42969,-81.59375 2.56524,-8.13203 4.30604,-16.3365 4.97266,-24.49414 4.77035,2.97905 12.6553,7.32469 25.19335,27.02734 7.07107,-7.07106 17.6785,-24.74729 10.60743,-31.81836 7.07107,7.07107 24.7473,-3.53636 31.81836,-10.60742 -14.14046,-8.99848 -20.37077,-15.60067 -23.97461,-20.32227 5.06439,-0.84537 10.22254,-2.134 15.35156,-3.75195 14.91762,-4.70577 30.31546,-12.3034 45.43945,-22.47461 -155.46071,181.18498 -124.46187,482.69554 -166.2793,612.25584 0,0 17.15695,27.7673 22.3418,13.2071 10.08391,-28.3179 15.25224,-61.9857 20.08789,-99.7383 7.3221,-57.1639 12.255,-123.7851 22.1875,-192.2344 C 241.73431,911.3991 279.32685,774.83387 382.5,687.10547 l -3.76758,-29.15625 10.91406,-8.68945 -30.33789,-13.58985 c -5.90169,7.84149 -12.63357,15.6355 -20.13671,23.13867 -23.01248,23.01248 -48.75541,38.77461 -70.23633,45.55079 -3.50661,1.10616 -6.83677,1.96253 -9.86524,1.95507 9.73945,-9.07723 12.90453,-20.86655 60.16602,-59.39062 -6.48182,-6.48181 -26.51605,-12.37455 -40.65821,1.76758 14.14214,-14.14213 8.24939,-34.17639 1.76758,-40.65821 -39.74603,48.76059 -51.03516,50.5831 -59.94726,61.47657 0.24766,-3.14402 1.20607,-7.0368 2.51172,-11.17579 6.77614,-21.48092 22.5383,-47.22384 45.55078,-70.23632 0.64983,-0.64983 1.30301,-1.29341 1.95703,-1.93164 z m 865.96293,8.84766 C 1101.15,577.413 1090.5577,579.65487 1080,585 c 46.0391,-3.5732 39.6973,80.55961 115,60 -8.1179,-29.82911 -43.3193,-66.92794 -83.5859,-67.45312 z m -79.5254,25.83398 c -25.4836,49.98699 -30.1284,144.16541 -42.43948,250.28906 l -2.14258,-0.0352 c -3.40999,-0.90985 -6.88832,-1.6577 -10.43164,-2.23633 -70.24614,-11.47141 -139.22418,47.99805 -154.06641,132.83008 -14.00915,80.07053 25.21668,154.11753 88.91016,171.56843 24.05883,-46.9573 40.6276,-97.7625 52.61523,-149.1914 -11.9649,51.3853 -28.47239,102.1165 -52.4375,148.9355 l -1.91601,56.0293 24.16992,-44.6387 c 54.85632,-107.1689 71.63021,-230.66952 83.09571,-336.74024 5.7327,-53.03537 10.0816,-101.7918 16.5391,-141.34571 5.8736,-22.70053 8.5169,-47.9106 17.871,-69.00781 z m -822.00589,71.77539 c 10.70732,0.12035 21.42513,4.04622 29.80469,12.42578 17.8764,17.8764 15.48219,46.3889 -0.88477,62.75586 -16.36695,16.36694 -44.87947,18.76115 -62.75585,0.88477 -17.87643,-17.87639 -15.48219,-46.38889 0.88476,-62.75586 8.18348,-8.18348 19.40204,-12.87356 30.81055,-13.28321 0.71303,-0.0256 1.4268,-0.0354 2.14062,-0.0273 z m -58.31054,62.79687 c -7.18806,8.68188 -16.25911,22.28853 -55.074223,53.92774 6.481823,6.48181 26.516073,12.37455 40.658203,-1.76758 -14.14213,14.14213 -8.2494,34.17638 -1.76758,40.6582 31.75558,-38.95788 45.34645,-47.95293 53.96875,-55.08007 -0.53953,3.56165 -1.43837,7.11357 -2.62304,10.86914 -6.77617,21.48091 -22.54028,47.22385 -45.55274,70.23633 -23.01247,23.01247 -48.755405,38.77659 -70.236328,45.55273 -3.455905,1.09017 -6.739301,1.93878 -9.943359,2.14648 8.365167,-8.80995 13.881561,-21.41914 58.234377,-57.57226 -6.48182,-6.48181 -26.516077,-12.37455 -40.658205,1.76758 14.142128,-14.14213 8.249385,-34.17638 1.767578,-40.65821 -37.615827,46.14726 -49.742805,50.25284 -58.207031,59.4668 0.588967,-3.43097 1.523611,-7.18895 2.78125,-11.17578 6.776141,-21.48092 22.538316,-47.22385 45.550781,-70.23633 23.012458,-23.01245 48.757367,-38.77658 70.238277,-45.55273 3.78182,-1.19296 7.35669,-2.0953 10.86329,-2.58204 z M 1300,788.51758 l -198.9785,184.24023 -5,29.99999 L 1300,813.88867 Z M 165,930 a 15,15 0 0 0 -15,15 15,15 0 0 0 15,15 15,15 0 0 0 15,-15 15,15 0 0 0 -15,-15 z M 38.427734,1047.3789 a 15,15 0 0 0 -15,15 15,15 0 0 0 15,15 15,15 0 0 0 15,-15 15,15 0 0 0 -15,-15 z"
       id="path903" />
  </g>
  <g
     id="use761"
     transform="matrix(-0.12676923,0,0,-0.13039999,45.190201,93.191814)">
    <path
       fill="#ffcc44"
       d="M 798.125,0 996.15039,316.93359 C 1026.6354,300.86653 1056.7752,290.13482 1095,305 1065.2482,211.34698 1028.7317,119.30478 1106.6836,0 Z M 494.94531,58.916016 C 427.8115,148.12585 357.76552,315.36093 285.76758,532.67188 l 15.62109,-9.03711 -18.01172,10.96289 c 89.61039,62.07958 188.59313,99.79514 291.49805,113.72265 29.42358,82.44201 45.91452,177.69944 53.13477,263.44141 16.14274,5.11028 33.43539,11.68412 51.53515,19.51953 42.50299,18.3996 67.67346,23.56276 85.70899,23.79492 4.53443,-101.69108 14.77857,-219.60609 49.41601,-315.82031 l -2.07226,0.0781 C 875.91474,626.31078 939.16307,604.91724 1001.1758,575.2324 L 981.72266,556.7949 C 751.03129,664.27149 506.35916,653.84417 306.95312,520.41797 L 423.39453,453.06055 C 450.1694,374.93279 477.26833,304.51484 504.12109,243.88281 499.40314,207.0768 495,168.12706 495,160 Z M 1265,515 c -52.3034,7.9422 -64.6941,51.59204 -55,115 61.9504,-13.8352 19.3892,-83.15789 55,-115 z M 245.45117,568.69922 c -24.81157,25.29489 -42.27809,53.29225 -50.63281,79.77734 -1.66482,5.27762 -2.98241,10.5867 -3.87891,15.50977 -4.75548,-3.91279 -11.30529,-10.16277 -20.19531,-24.13281 -7.07107,7.07106 -17.67848,24.74727 -10.60742,31.81836 -7.07106,-7.07106 -24.7473,3.53636 -31.81836,10.60742 18.90181,12.02843 23.66975,19.77367 26.97852,24.88086 -7.90943,0.93628 -16.21657,2.68878 -24.44727,5.28515 -27.12021,8.55507 -55.825538,26.66148 -81.591798,52.42774 C 26.312948,787.81791 9.4611255,813.0922 0,837.50391 v 38.625 c 2.5485798,-0.53117 5.1396251,-0.85186 7.7421875,-0.94532 11.4085125,-0.40965 23.0071145,3.46024 31.9453125,12.39844 17.8764,17.8764 15.482192,46.3889 -0.884766,62.75586 C 28.706862,960.43376 13.991085,965.20185 0,963.18359 v 67.80861 c 7.3753039,-12.2436 13.045898,-24.5693 16.835938,-36.584 2.129258,-6.7499 3.688798,-13.55111 4.884765,-20.70312 5.22493,2.77528 12.545278,8.39373 23.269531,25.24609 7.07106,-7.071 17.678497,-24.74726 10.607422,-31.81836 7.071075,7.0711 24.7473,-3.53632 31.81836,-10.60742 -15.692863,-9.98636 -21.643949,-17.0205 -24.802735,-21.86914 6.161002,-0.882 12.195195,-2.32395 18.189453,-4.21484 27.120216,-8.55506 55.825526,-26.66342 81.591796,-52.42969 25.76626,-25.76626 43.87462,-54.47354 52.42969,-81.59375 2.56524,-8.13203 4.30604,-16.3365 4.97266,-24.49414 4.77035,2.97905 12.6553,7.32469 25.19335,27.02734 7.07107,-7.07106 17.6785,-24.74729 10.60743,-31.81836 7.07107,7.07107 24.7473,-3.53636 31.81836,-10.60742 -14.14046,-8.99848 -20.37077,-15.60067 -23.97461,-20.32227 5.06439,-0.84537 10.22254,-2.134 15.35156,-3.75195 14.91762,-4.70577 30.31546,-12.3034 45.43945,-22.47461 -155.46071,181.18498 -124.46187,482.69554 -166.2793,612.25584 0,0 17.15695,27.7673 22.3418,13.2071 10.08391,-28.3179 15.25224,-61.9857 20.08789,-99.7383 7.3221,-57.1639 12.255,-123.7851 22.1875,-192.2344 C 241.73431,911.3991 279.32685,774.83387 382.5,687.10547 l -3.76758,-29.15625 10.91406,-8.68945 -30.33789,-13.58985 c -5.90169,7.84149 -12.63357,15.6355 -20.13671,23.13867 -23.01248,23.01248 -48.75541,38.77461 -70.23633,45.55079 -3.50661,1.10616 -6.83677,1.96253 -9.86524,1.95507 9.73945,-9.07723 12.90453,-20.86655 60.16602,-59.39062 -6.48182,-6.48181 -26.51605,-12.37455 -40.65821,1.76758 14.14214,-14.14213 8.24939,-34.17639 1.76758,-40.65821 -39.74603,48.76059 -51.03516,50.5831 -59.94726,61.47657 0.24766,-3.14402 1.20607,-7.0368 2.51172,-11.17579 6.77614,-21.48092 22.5383,-47.22384 45.55078,-70.23632 0.64983,-0.64983 1.30301,-1.29341 1.95703,-1.93164 z m 865.96293,8.84766 C 1101.15,577.413 1090.5577,579.65487 1080,585 c 46.0391,-3.5732 39.6973,80.55961 115,60 -8.1179,-29.82911 -43.3193,-66.92794 -83.5859,-67.45312 z m -79.5254,25.83398 c -25.4836,49.98699 -30.1284,144.16541 -42.43948,250.28906 l -2.14258,-0.0352 c -3.40999,-0.90985 -6.88832,-1.6577 -10.43164,-2.23633 -70.24614,-11.47141 -139.22418,47.99805 -154.06641,132.83008 -14.00915,80.07053 25.21668,154.11753 88.91016,171.56843 24.05883,-46.9573 40.6276,-97.7625 52.61523,-149.1914 -11.9649,51.3853 -28.47239,102.1165 -52.4375,148.9355 l -1.91601,56.0293 24.16992,-44.6387 c 54.85632,-107.1689 71.63021,-230.66952 83.09571,-336.74024 5.7327,-53.03537 10.0816,-101.7918 16.5391,-141.34571 5.8736,-22.70053 8.5169,-47.9106 17.871,-69.00781 z m -822.00589,71.77539 c 10.70732,0.12035 21.42513,4.04622 29.80469,12.42578 17.8764,17.8764 15.48219,46.3889 -0.88477,62.75586 -16.36695,16.36694 -44.87947,18.76115 -62.75585,0.88477 -17.87643,-17.87639 -15.48219,-46.38889 0.88476,-62.75586 8.18348,-8.18348 19.40204,-12.87356 30.81055,-13.28321 0.71303,-0.0256 1.4268,-0.0354 2.14062,-0.0273 z m -58.31054,62.79687 c -7.18806,8.68188 -16.25911,22.28853 -55.074223,53.92774 6.481823,6.48181 26.516073,12.37455 40.658203,-1.76758 -14.14213,14.14213 -8.2494,34.17638 -1.76758,40.6582 31.75558,-38.95788 45.34645,-47.95293 53.96875,-55.08007 -0.53953,3.56165 -1.43837,7.11357 -2.62304,10.86914 -6.77617,21.48091 -22.54028,47.22385 -45.55274,70.23633 -23.01247,23.01247 -48.755405,38.77659 -70.236328,45.55273 -3.455905,1.09017 -6.739301,1.93878 -9.943359,2.14648 8.365167,-8.80995 13.881561,-21.41914 58.234377,-57.57226 -6.48182,-6.48181 -26.516077,-12.37455 -40.658205,1.76758 14.142128,-14.14213 8.249385,-34.17638 1.767578,-40.65821 -37.615827,46.14726 -49.742805,50.25284 -58.207031,59.4668 0.588967,-3.43097 1.523611,-7.18895 2.78125,-11.17578 6.776141,-21.48092 22.538316,-47.22385 45.550781,-70.23633 23.012458,-23.01245 48.757367,-38.77658 70.238277,-45.55273 3.78182,-1.19296 7.35669,-2.0953 10.86329,-2.58204 z M 1300,788.51758 l -198.9785,184.24023 -5,29.99999 L 1300,813.88867 Z M 165,930 a 15,15 0 0 0 -15,15 15,15 0 0 0 15,15 15,15 0 0 0 15,-15 15,15 0 0 0 -15,-15 z M 38.427734,1047.3789 a 15,15 0 0 0 -15,15 15,15 0 0 0 15,15 15,15 0 0 0 15,-15 15,15 0 0 0 -15,-15 z"
       id="path907" />
  </g>
  <g
     id="use763"
     transform="matrix(0.12676923,0,0,0.13039999,-119.6098,-167.60817)">
    <path
       fill="#ff0000"
       d="m 746.03906,0 206.08789,341.30664 c 15.25792,-7.89742 29.39971,-16.48114 43.91993,-24.31836 L 798.12109,0 Z M 875,35 c -31.09169,8.314112 -41.51778,4.397835 -53.96875,1.679688 l 57.98828,92.058592 C 885.97118,109.28985 893.24753,89.815616 905,70 c -2.13718,-16.473512 2.28614,-21.782145 5,-30 -17.31384,2.037284 -27.14836,-0.831077 -35,-5 z m 165,245 c -15.2965,3.82414 -45.21675,4.72338 -66.08398,0.46094 l 23.33203,36.01172 C 1023.387,302.74869 1049.0711,293.33052 1079.834,300.13477 1064.599,294.37327 1048.9362,288.87536 1040,280 Z m 130,20 c 0,14.47623 -11.3428,28.05907 -19.5801,38.24219 -28.5032,-21.35508 -68.6004,20.92457 -47.7363,47.35547 C 1092.9221,393.77124 1079.4031,405 1065,405 c 14.2873,0 27.7035,11.04888 38.0605,18.70898 -22.7056,26.03072 19.1841,70.55521 47.3907,47.25977 C 1157.9234,481.07968 1170,495.06379 1170,510 c 0,-16.16559 14.145,-31.21637 21.4883,-41.59375 28.9733,29.69847 76.233,-20.1259 48.3535,-46.71289 C 1249.6269,414.21748 1261.9505,405 1275,405 c -12.8189,0 -24.9374,-8.8943 -34.832,-16.55859 27.3854,-26.86428 -19.6947,-76.4382 -48.8457,-47.14453 C 1183.6654,330.70075 1170,315.88891 1170,300 Z m -0.045,36.95703 A 3.0003,3.0003 0 0 1 1173,340 v 22.62305 c 20.7754,1.51644 37.8605,18.60163 39.377,39.37695 H 1240 a 3.0003,3.0003 0 1 1 0,6 h -27.623 c -1.5165,20.77532 -18.6016,37.86051 -39.377,39.37695 V 475 a 3.0003,3.0003 0 1 1 -6,0 V 447.37695 C 1146.2246,445.86051 1129.1395,428.77532 1127.623,408 H 1100 a 3.0003,3.0003 0 1 1 0,-6 h 27.623 c 1.5165,-20.77532 18.6016,-37.86051 39.377,-39.37695 V 340 a 3.0003,3.0003 0 0 1 2.9551,-3.04297 z m -692.10549,84.54492 -56.74023,32.92578 c 169.11103,93.38515 326.43729,62.84457 482.07226,15.60547 -11.29795,-14.85685 -22.13508,-30.33863 -32.57812,-46.59961 l -0.3711,-0.80859 c -134.97326,39.93921 -257.92619,61.7732 -392.38281,-1.12305 z m -87.25977,228.13282 -12.51367,8.07031 c 9.90456,58.4667 14.52116,126.90477 10.3418,186.23242 31.25135,8.71173 56.59628,31.0153 73.09961,61.36133 15.58022,-4.13129 31.75325,-7.55717 49.32617,-9.16016 6.29715,-0.57442 12.65066,-0.89187 19.07617,-0.95117 23.49424,-0.217 47.9301,3.00069 73.79297,9.54492 C 596.958,837.71289 584.02051,761.38141 565.00195,697.31055 505.44841,688.58067 446.91225,672.88012 390.58984,649.63477 Z m 504.78711,20.11914 -70.14453,17.49023 c -23.96928,84.29878 -30.93715,172.324 -34.75976,263.52344 13.061,-2.37876 28.42119,-9.18917 50.66015,-20.19922 L 841.14062,930 c 14.21407,-27.10399 34.59535,-48.9267 58.19532,-63.05664 z m -686.67578,35.26562 a 13.75,15 45 0 0 -10.55664,4.66016 13.75,15 45 0 0 -0.88476,20.33008 13.75,15 45 0 0 20.33007,-0.88477 13.75,15 45 0 0 0.88282,-20.33008 13.75,15 45 0 0 -9.77149,-3.77539 z m 1047.02543,36.81055 c 14.7777,7.70563 29.5386,15.28067 44.2734,22.82031 v -0.0684 z M 8.7011719,905.01953 A 13.75,15 45 0 0 0,908.10352 v 23.96484 A 13.75,15 45 0 0 17.589844,929.125 13.75,15 45 0 0 18.472656,908.79492 13.75,15 45 0 0 8.7011719,905.01953 Z M 540,955 a 10,10 0 0 0 -10,10 10,10 0 0 0 10,10 10,10 0 0 0 10,-10 10,10 0 0 0 -10,-10 z m 110,35 a 10,10 0 0 0 -10,10 10,10 0 0 0 10,10 10,10 0 0 0 10,-10 10,10 0 0 0 -10,-10 z"
       id="path911" />
  </g>
  <g
     id="use765"
     transform="matrix(-0.12676923,0,0,-0.13039999,45.190201,93.191814)">
    <path
       fill="#ff0000"
       d="m 746.03906,0 206.08789,341.30664 c 15.25792,-7.89742 29.39971,-16.48114 43.91993,-24.31836 L 798.12109,0 Z M 875,35 c -31.09169,8.314112 -41.51778,4.397835 -53.96875,1.679688 l 57.98828,92.058592 C 885.97118,109.28985 893.24753,89.815616 905,70 c -2.13718,-16.473512 2.28614,-21.782145 5,-30 -17.31384,2.037284 -27.14836,-0.831077 -35,-5 z m 165,245 c -15.2965,3.82414 -45.21675,4.72338 -66.08398,0.46094 l 23.33203,36.01172 C 1023.387,302.74869 1049.0711,293.33052 1079.834,300.13477 1064.599,294.37327 1048.9362,288.87536 1040,280 Z m 130,20 c 0,14.47623 -11.3428,28.05907 -19.5801,38.24219 -28.5032,-21.35508 -68.6004,20.92457 -47.7363,47.35547 C 1092.9221,393.77124 1079.4031,405 1065,405 c 14.2873,0 27.7035,11.04888 38.0605,18.70898 -22.7056,26.03072 19.1841,70.55521 47.3907,47.25977 C 1157.9234,481.07968 1170,495.06379 1170,510 c 0,-16.16559 14.145,-31.21637 21.4883,-41.59375 28.9733,29.69847 76.233,-20.1259 48.3535,-46.71289 C 1249.6269,414.21748 1261.9505,405 1275,405 c -12.8189,0 -24.9374,-8.8943 -34.832,-16.55859 27.3854,-26.86428 -19.6947,-76.4382 -48.8457,-47.14453 C 1183.6654,330.70075 1170,315.88891 1170,300 Z m -0.045,36.95703 A 3.0003,3.0003 0 0 1 1173,340 v 22.62305 c 20.7754,1.51644 37.8605,18.60163 39.377,39.37695 H 1240 a 3.0003,3.0003 0 1 1 0,6 h -27.623 c -1.5165,20.77532 -18.6016,37.86051 -39.377,39.37695 V 475 a 3.0003,3.0003 0 1 1 -6,0 V 447.37695 C 1146.2246,445.86051 1129.1395,428.77532 1127.623,408 H 1100 a 3.0003,3.0003 0 1 1 0,-6 h 27.623 c 1.5165,-20.77532 18.6016,-37.86051 39.377,-39.37695 V 340 a 3.0003,3.0003 0 0 1 2.9551,-3.04297 z m -692.10549,84.54492 -56.74023,32.92578 c 169.11103,93.38515 326.43729,62.84457 482.07226,15.60547 -11.29795,-14.85685 -22.13508,-30.33863 -32.57812,-46.59961 l -0.3711,-0.80859 c -134.97326,39.93921 -257.92619,61.7732 -392.38281,-1.12305 z m -87.25977,228.13282 -12.51367,8.07031 c 9.90456,58.4667 14.52116,126.90477 10.3418,186.23242 31.25135,8.71173 56.59628,31.0153 73.09961,61.36133 15.58022,-4.13129 31.75325,-7.55717 49.32617,-9.16016 6.29715,-0.57442 12.65066,-0.89187 19.07617,-0.95117 23.49424,-0.217 47.9301,3.00069 73.79297,9.54492 C 596.958,837.71289 584.02051,761.38141 565.00195,697.31055 505.44841,688.58067 446.91225,672.88012 390.58984,649.63477 Z m 504.78711,20.11914 -70.14453,17.49023 c -23.96928,84.29878 -30.93715,172.324 -34.75976,263.52344 13.061,-2.37876 28.42119,-9.18917 50.66015,-20.19922 L 841.14062,930 c 14.21407,-27.10399 34.59535,-48.9267 58.19532,-63.05664 z m -686.67578,35.26562 a 13.75,15 45 0 0 -10.55664,4.66016 13.75,15 45 0 0 -0.88476,20.33008 13.75,15 45 0 0 20.33007,-0.88477 13.75,15 45 0 0 0.88282,-20.33008 13.75,15 45 0 0 -9.77149,-3.77539 z m 1047.02543,36.81055 c 14.7777,7.70563 29.5386,15.28067 44.2734,22.82031 v -0.0684 z M 8.7011719,905.01953 A 13.75,15 45 0 0 0,908.10352 v 23.96484 A 13.75,15 45 0 0 17.589844,929.125 13.75,15 45 0 0 18.472656,908.79492 13.75,15 45 0 0 8.7011719,905.01953 Z M 540,955 a 10,10 0 0 0 -10,10 10,10 0 0 0 10,10 10,10 0 0 0 10,-10 10,10 0 0 0 -10,-10 z m 110,35 a 10,10 0 0 0 -10,10 10,10 0 0 0 10,10 10,10 0 0 0 10,-10 10,10 0 0 0 -10,-10 z"
       id="path915" />
  </g>
  <g
     id="use767"
     transform="matrix(0.12676923,0,0,0.13039999,-119.6098,-167.60817)">
    <path
       fill="#4444ff"
       d="m 526.43945,166.69922 a 12.5,20.068552 0 0 0 -12.5,20.06836 12.5,20.068552 0 0 0 12.5,20.06836 12.5,20.068552 0 0 0 12.5,-20.06836 12.5,20.068552 0 0 0 -12.5,-20.06836 z m 152.38086,2.47461 a 12.5,20.068552 0 0 0 -12.5,20.06836 12.5,20.068552 0 0 0 12.5,20.06836 12.5,20.068552 0 0 0 12.5,-20.06836 12.5,20.068552 0 0 0 -12.5,-20.06836 z m -200.18164,254.76367 -9.70117,2.42383 1.21094,4.85156 11.53711,46.14844 36.53515,-19.01563 14.37891,33.78516 35.80664,-20.46094 22.60156,34.31446 L 624,478.78125 l 26.43164,31.55469 29.7832,-30.64258 30.43555,27.65234 23.95508,-31.07812 29.28515,26.37695 25.16993,-38.99414 37.71289,23.32422 20.20898,-35.36719 38.17969,19.32227 6.5918,-15.51172 -6.64649,-9.92383 -4.9668,11.68555 -37.12304,-18.78711 -19.79102,34.63086 -37.24804,-23.03711 -24.1211,37.36914 -28.58203,-25.74414 -23.92578,31.04101 -29.56445,-26.86132 -28.80274,29.63086 -25.68945,-30.66797 -32.05664,26.43359 -21.64258,-32.85742 -34.19336,19.53906 -14.20898,-33.38476 -34.87696,18.15429 -8.46289,-33.85156 z m -57.34179,30.38086 -114.50391,66.25781 c 199.45786,133.26536 444.18766,143.72045 674.12891,36.00977 -27.70592,-26.00195 -53.37955,-54.40238 -77.5293,-86.27344 -5.42499,1.63467 -10.85226,3.24169 -16.28125,4.83203 l 56.91797,44.07031 6.72265,19.91407 c 12.79221,37.89934 -28.30624,41.21745 -37.90039,12.79297 l -25.89844,-76.73047 c -1.27818,0.37431 -2.55749,0.73783 -3.83593,1.10937 l 25.49609,81.25391 c 11.97581,38.16517 -29.1822,40.60044 -38.16406,11.97656 L 845,488.42969 876.38086,478.25391 c -11.94025,3.42062 -23.89434,6.69533 -35.86328,9.80273 l 18.7168,85.55274 c 8.54827,39.07591 -32.66498,37.85576 -39.07618,8.54882 l -18.16601,-83.03711 33.52539,-9.77734 c -11.64041,2.97109 -23.2955,5.7849 -34.97266,8.35742 l 13.62305,86.19531 c 6.24439,39.50959 -34.82452,35.87636 -39.50781,6.24414 l -13.26954,-83.95703 21.43555,-4.76562 c -7.48456,1.49541 -14.9783,2.88959 -22.48242,4.17383 l 6.44531,85.21679 c 3.01718,39.88604 -37.62383,32.93212 -39.88672,3.01758 l -6.24414,-82.55273 c -1.69197,0.19213 -3.3849,0.37203 -5.07812,0.55078 l 7.04492,82.85156 c 3.38896,39.85617 -37.31375,33.28081 -39.85547,3.38867 l -7.08789,-83.34179 c -0.71528,0.0272 -1.43095,0.0517 -2.14648,0.0762 v 84.08984 c 0,40 -40,30 -40,0 v -84.22461 c -1.4073,-0.0589 -2.81424,-0.11266 -4.22266,-0.18359 l -7.96484,82.47265 c -3.84586,39.81471 -42.70081,26.01531 -39.81641,-3.8457 l 7.94922,-82.28906 c -1.81997,-0.24421 -3.6389,-0.48946 -5.46094,-0.75586 l -7.74609,79.51367 c -3.87852,39.81152 -42.72139,25.97974 -39.8125,-3.8789 l 8.10351,-83.17579 c -0.89679,-0.21219 -1.79407,-0.43429 -2.6914,-0.65234 l -20.76172,79.11914 c -10.15296,38.69002 -46.30419,18.86517 -38.68945,-10.15234 l 15.68945,-59.78711 -22.75391,55.875 c -15.08612,37.04604 -48.36146,12.69858 -37.04687,-15.08594 l 27.29883,-67.03125 -37.2168,69.73047 c -18.83383,35.28862 -49.41443,7.63248 -35.28906,-18.83399 l 37.82031,-70.86328 -53.89844,64 c -25.76676,30.59532 -49.92077,-2.82108 -30.5957,-25.76757 l 8.57226,-10.17969 77.58399,-31.16797 0.53906,-1.00977 0.9082,0.42774 0.006,-0.002 -0.004,0.004 0.33984,0.16016 c -4.35238,-2.2534 -8.71043,-4.56895 -13.07812,-6.98633 z m 572.5371,178.67773 c -32.99272,14.84336 -65.94871,26.89166 -98.86132,36.87891 l 4.71093,196.86328 c 20.17285,-11.65399 42.26345,-17.69551 64.92579,-16.69531 0.49896,-3.37058 0.87631,-6.67392 1.24609,-9.9668 8.96545,-79.83689 12.57389,-152.20224 27.97851,-207.08008 z m -207.22656,11.19532 c -23.74309,4.06133 -47.59438,6.91352 -71.58789,8.60351 47.18437,3.22563 63.19132,22.5391 7.04492,27.49024 C 760.78633,685.21121 766.16472,699.83477 715,705 c 39.99949,4.04007 53.54843,23.37746 -1.51953,32.61719 34.78608,4.84217 43.16516,22.43333 -0.62695,27.38281 v 7.21875 c 32.00156,6.4503 40.40255,19.46742 -0.40821,22.53516 l -0.14843,8.13281 c 30.46298,5.04349 37.38878,16.29741 -0.38672,21.33008 l -0.082,4.49609 c 25.3503,5.12276 30.48355,14.81855 -0.35937,19.83594 l -0.0918,5.07617 c 25.8672,5.12444 31.1915,14.98029 -0.36328,20.00391 l -0.0879,4.9082 c 26.37966,5.12263 31.87557,15.13222 -0.36523,20.16211 l -0.0156,0.83008 c 21.08411,5.04767 24.91227,13.46952 -0.33398,18.36328 l -0.0274,1.55273 c 21.49299,5.06023 25.43089,13.60081 -0.33593,18.51172 l -0.0977,5.38477 c 11.78027,4.05356 22.05764,6.94407 30.75586,8.76367 4.05205,-97.40548 13.95685,-212.67202 46.10156,-307.91406 z m -184.51562,7.1582 c 30.0166,86.81703 45.43556,181.08389 51.96875,269.5293 8.13377,3.10564 16.71432,6.60577 25.48437,10.40234 5.16803,2.23725 10.0794,4.27936 14.92969,6.39453 l -0.82813,-16.97266 c -41.0223,-2.56281 -48.05473,-16.72297 -1.10937,-22.7246 l -0.16406,-3.33985 c -42.02184,-2.43082 -49.2894,-16.89508 -1.11719,-22.87695 l -0.043,-0.89844 c -44.05097,-2.14926 -51.82079,-17.25165 -1.13281,-23.18164 l -0.14258,-2.9082 c -45.02802,-2.00994 -53.08341,-17.41468 -1.13672,-23.31055 l -0.0625,-1.26758 c -47.39134,-1.83613 -56.19316,-19.83867 -1.28516,-26.31445 l -0.0762,-1.54883 c -51.16279,-1.13481 -61.00056,-20.48283 -1.30664,-26.76367 l -0.11523,-2.37891 C 635.97376,761.82878 626.48183,742.9 684.6543,736.55078 l -0.0762,-1.56055 c -56.12783,-0.11938 -67.56174,-22.89909 -1.42968,-29.28906 l -0.0215,-0.4082 c -63.898,1.84831 -77.87835,-24.12737 -1.45312,-29.77539 l -0.0391,-0.78516 c -56.39787,2.38257 -77.67165,-12.67231 -39.22657,-20.72656 -13.54401,-0.45894 -27.00034,-1.3419 -40.3164,-2.65625 z m 653.6348,90.48047 c 6.2064,3.23624 12.4119,6.45101 18.6152,9.65039 8.5624,4.41612 17.1161,8.7971 25.6582,13.16797 v -0.0664 z m 18.6152,9.65039 c -0.7477,-0.38573 -1.4943,-0.77014 -2.2422,-1.15625 l -2.8808,2.41601 c 13.9611,7.23997 1.8654,26.48229 -27.9571,28.85157 -0.6666,0.053 -1.3267,0.10269 -1.5429,0.20312 C 1236.832,801.15934 1218.6766,824.64547 1205,830 c -18.5269,7.25347 -62.3175,13.8707 -86.9004,-6.99219 -4.8223,45.97573 -9.7283,97.03125 -17.4101,149.50391 L 1300,788.1875 v -23.31641 c -8.496,-4.53016 -17.0663,-8.95826 -25.6582,-13.39062 z"
       id="path919" />
  </g>
  <g
     id="use769"
     transform="matrix(-0.12676923,0,0,-0.13039999,45.190201,93.191814)">
    <path
       fill="#4444ff"
       d="m 526.43945,166.69922 a 12.5,20.068552 0 0 0 -12.5,20.06836 12.5,20.068552 0 0 0 12.5,20.06836 12.5,20.068552 0 0 0 12.5,-20.06836 12.5,20.068552 0 0 0 -12.5,-20.06836 z m 152.38086,2.47461 a 12.5,20.068552 0 0 0 -12.5,20.06836 12.5,20.068552 0 0 0 12.5,20.06836 12.5,20.068552 0 0 0 12.5,-20.06836 12.5,20.068552 0 0 0 -12.5,-20.06836 z m -200.18164,254.76367 -9.70117,2.42383 1.21094,4.85156 11.53711,46.14844 36.53515,-19.01563 14.37891,33.78516 35.80664,-20.46094 22.60156,34.31446 L 624,478.78125 l 26.43164,31.55469 29.7832,-30.64258 30.43555,27.65234 23.95508,-31.07812 29.28515,26.37695 25.16993,-38.99414 37.71289,23.32422 20.20898,-35.36719 38.17969,19.32227 6.5918,-15.51172 -6.64649,-9.92383 -4.9668,11.68555 -37.12304,-18.78711 -19.79102,34.63086 -37.24804,-23.03711 -24.1211,37.36914 -28.58203,-25.74414 -23.92578,31.04101 -29.56445,-26.86132 -28.80274,29.63086 -25.68945,-30.66797 -32.05664,26.43359 -21.64258,-32.85742 -34.19336,19.53906 -14.20898,-33.38476 -34.87696,18.15429 -8.46289,-33.85156 z m -57.34179,30.38086 -114.50391,66.25781 c 199.45786,133.26536 444.18766,143.72045 674.12891,36.00977 -27.70592,-26.00195 -53.37955,-54.40238 -77.5293,-86.27344 -5.42499,1.63467 -10.85226,3.24169 -16.28125,4.83203 l 56.91797,44.07031 6.72265,19.91407 c 12.79221,37.89934 -28.30624,41.21745 -37.90039,12.79297 l -25.89844,-76.73047 c -1.27818,0.37431 -2.55749,0.73783 -3.83593,1.10937 l 25.49609,81.25391 c 11.97581,38.16517 -29.1822,40.60044 -38.16406,11.97656 L 845,488.42969 876.38086,478.25391 c -11.94025,3.42062 -23.89434,6.69533 -35.86328,9.80273 l 18.7168,85.55274 c 8.54827,39.07591 -32.66498,37.85576 -39.07618,8.54882 l -18.16601,-83.03711 33.52539,-9.77734 c -11.64041,2.97109 -23.2955,5.7849 -34.97266,8.35742 l 13.62305,86.19531 c 6.24439,39.50959 -34.82452,35.87636 -39.50781,6.24414 l -13.26954,-83.95703 21.43555,-4.76562 c -7.48456,1.49541 -14.9783,2.88959 -22.48242,4.17383 l 6.44531,85.21679 c 3.01718,39.88604 -37.62383,32.93212 -39.88672,3.01758 l -6.24414,-82.55273 c -1.69197,0.19213 -3.3849,0.37203 -5.07812,0.55078 l 7.04492,82.85156 c 3.38896,39.85617 -37.31375,33.28081 -39.85547,3.38867 l -7.08789,-83.34179 c -0.71528,0.0272 -1.43095,0.0517 -2.14648,0.0762 v 84.08984 c 0,40 -40,30 -40,0 v -84.22461 c -1.4073,-0.0589 -2.81424,-0.11266 -4.22266,-0.18359 l -7.96484,82.47265 c -3.84586,39.81471 -42.70081,26.01531 -39.81641,-3.8457 l 7.94922,-82.28906 c -1.81997,-0.24421 -3.6389,-0.48946 -5.46094,-0.75586 l -7.74609,79.51367 c -3.87852,39.81152 -42.72139,25.97974 -39.8125,-3.8789 l 8.10351,-83.17579 c -0.89679,-0.21219 -1.79407,-0.43429 -2.6914,-0.65234 l -20.76172,79.11914 c -10.15296,38.69002 -46.30419,18.86517 -38.68945,-10.15234 l 15.68945,-59.78711 -22.75391,55.875 c -15.08612,37.04604 -48.36146,12.69858 -37.04687,-15.08594 l 27.29883,-67.03125 -37.2168,69.73047 c -18.83383,35.28862 -49.41443,7.63248 -35.28906,-18.83399 l 37.82031,-70.86328 -53.89844,64 c -25.76676,30.59532 -49.92077,-2.82108 -30.5957,-25.76757 l 8.57226,-10.17969 77.58399,-31.16797 0.53906,-1.00977 0.9082,0.42774 0.006,-0.002 -0.004,0.004 0.33984,0.16016 c -4.35238,-2.2534 -8.71043,-4.56895 -13.07812,-6.98633 z m 572.5371,178.67773 c -32.99272,14.84336 -65.94871,26.89166 -98.86132,36.87891 l 4.71093,196.86328 c 20.17285,-11.65399 42.26345,-17.69551 64.92579,-16.69531 0.49896,-3.37058 0.87631,-6.67392 1.24609,-9.9668 8.96545,-79.83689 12.57389,-152.20224 27.97851,-207.08008 z m -207.22656,11.19532 c -23.74309,4.06133 -47.59438,6.91352 -71.58789,8.60351 47.18437,3.22563 63.19132,22.5391 7.04492,27.49024 C 760.78633,685.21121 766.16472,699.83477 715,705 c 39.99949,4.04007 53.54843,23.37746 -1.51953,32.61719 34.78608,4.84217 43.16516,22.43333 -0.62695,27.38281 v 7.21875 c 32.00156,6.4503 40.40255,19.46742 -0.40821,22.53516 l -0.14843,8.13281 c 30.46298,5.04349 37.38878,16.29741 -0.38672,21.33008 l -0.082,4.49609 c 25.3503,5.12276 30.48355,14.81855 -0.35937,19.83594 l -0.0918,5.07617 c 25.8672,5.12444 31.1915,14.98029 -0.36328,20.00391 l -0.0879,4.9082 c 26.37966,5.12263 31.87557,15.13222 -0.36523,20.16211 l -0.0156,0.83008 c 21.08411,5.04767 24.91227,13.46952 -0.33398,18.36328 l -0.0274,1.55273 c 21.49299,5.06023 25.43089,13.60081 -0.33593,18.51172 l -0.0977,5.38477 c 11.78027,4.05356 22.05764,6.94407 30.75586,8.76367 4.05205,-97.40548 13.95685,-212.67202 46.10156,-307.91406 z m -184.51562,7.1582 c 30.0166,86.81703 45.43556,181.08389 51.96875,269.5293 8.13377,3.10564 16.71432,6.60577 25.48437,10.40234 5.16803,2.23725 10.0794,4.27936 14.92969,6.39453 l -0.82813,-16.97266 c -41.0223,-2.56281 -48.05473,-16.72297 -1.10937,-22.7246 l -0.16406,-3.33985 c -42.02184,-2.43082 -49.2894,-16.89508 -1.11719,-22.87695 l -0.043,-0.89844 c -44.05097,-2.14926 -51.82079,-17.25165 -1.13281,-23.18164 l -0.14258,-2.9082 c -45.02802,-2.00994 -53.08341,-17.41468 -1.13672,-23.31055 l -0.0625,-1.26758 c -47.39134,-1.83613 -56.19316,-19.83867 -1.28516,-26.31445 l -0.0762,-1.54883 c -51.16279,-1.13481 -61.00056,-20.48283 -1.30664,-26.76367 l -0.11523,-2.37891 C 635.97376,761.82878 626.48183,742.9 684.6543,736.55078 l -0.0762,-1.56055 c -56.12783,-0.11938 -67.56174,-22.89909 -1.42968,-29.28906 l -0.0215,-0.4082 c -63.898,1.84831 -77.87835,-24.12737 -1.45312,-29.77539 l -0.0391,-0.78516 c -56.39787,2.38257 -77.67165,-12.67231 -39.22657,-20.72656 -13.54401,-0.45894 -27.00034,-1.3419 -40.3164,-2.65625 z m 653.6348,90.48047 c 6.2064,3.23624 12.4119,6.45101 18.6152,9.65039 8.5624,4.41612 17.1161,8.7971 25.6582,13.16797 v -0.0664 z m 18.6152,9.65039 c -0.7477,-0.38573 -1.4943,-0.77014 -2.2422,-1.15625 l -2.8808,2.41601 c 13.9611,7.23997 1.8654,26.48229 -27.9571,28.85157 -0.6666,0.053 -1.3267,0.10269 -1.5429,0.20312 C 1236.832,801.15934 1218.6766,824.64547 1205,830 c -18.5269,7.25347 -62.3175,13.8707 -86.9004,-6.99219 -4.8223,45.97573 -9.7283,97.03125 -17.4101,149.50391 L 1300,788.1875 v -23.31641 c -8.496,-4.53016 -17.0663,-8.95826 -25.6582,-13.39062 z"
       id="path923" />
  </g>
  <g
     id="use771"
     transform="matrix(0.12676923,0,0,0.13039999,-119.6098,-167.60817)">
    <path
       fill="#000000"
       d="M 676.06641,0 1040,600 1090,570 746.03516,0 Z M 504.14062,244.02539 C 477.26937,304.51512 450.16919,374.93353 423.2168,453.16406 L 545.43555,382.19531 C 528.42841,352.77379 517.23165,323.9266 515,315 c -2.28406,-9.13626 -6.654,-39.14028 -10.85938,-70.97461 z m -244.66796,304.30078 -24.02735,13.42578 c 100.21065,74.15489 212.68038,118.87952 329.55664,135.5586 19.01856,64.07086 31.95755,140.40246 38.45703,207.35742 7.82282,1.98583 15.91382,4.30428 24.60352,7.10937 C 621.58348,834.8652 607.60286,750.2777 583.66602,674.24805 468.89909,660.89656 358.34156,619.16903 259.47266,548.32617 Z m 762.29684,44.67969 c -70.66485,34.82432 -143.21898,59.19339 -215.76364,72.40039 -27.71471,90.50343 -36.59816,196.84663 -41.05469,289.66602 3.35201,0.074 6.83355,-0.0769 10.08008,-0.37305 4.95761,-0.45223 9.92965,-1.35478 15.47461,-3.93945 3.78994,-91.19072 10.75727,-179.21685 34.72656,-263.51563 56.38564,-11.54778 112.8155,-29.49407 168.60156,-54.24805 -15.40462,54.87784 -19.01306,127.24319 -27.97851,207.08008 -0.36978,3.29288 -0.74645,6.5965 -1.51563,9.95508 3.90847,0.22506 8.21984,0.66249 12.53516,1.36719 3.54332,0.57863 7.0211,1.3263 11.54297,1.97851 13.37813,-106.16949 18.02873,-200.09048 43.47073,-249.99609 z"
       id="path927" />
  </g>
  <g
     id="use773"
     transform="matrix(-0.12676923,0,0,-0.13039999,45.190201,93.191814)">
    <path
       fill="#000000"
       d="M 676.06641,0 1040,600 1090,570 746.03516,0 Z M 504.14062,244.02539 C 477.26937,304.51512 450.16919,374.93353 423.2168,453.16406 L 545.43555,382.19531 C 528.42841,352.77379 517.23165,323.9266 515,315 c -2.28406,-9.13626 -6.654,-39.14028 -10.85938,-70.97461 z m -244.66796,304.30078 -24.02735,13.42578 c 100.21065,74.15489 212.68038,118.87952 329.55664,135.5586 19.01856,64.07086 31.95755,140.40246 38.45703,207.35742 7.82282,1.98583 15.91382,4.30428 24.60352,7.10937 C 621.58348,834.8652 607.60286,750.2777 583.66602,674.24805 468.89909,660.89656 358.34156,619.16903 259.47266,548.32617 Z m 762.29684,44.67969 c -70.66485,34.82432 -143.21898,59.19339 -215.76364,72.40039 -27.71471,90.50343 -36.59816,196.84663 -41.05469,289.66602 3.35201,0.074 6.83355,-0.0769 10.08008,-0.37305 4.95761,-0.45223 9.92965,-1.35478 15.47461,-3.93945 3.78994,-91.19072 10.75727,-179.21685 34.72656,-263.51563 56.38564,-11.54778 112.8155,-29.49407 168.60156,-54.24805 -15.40462,54.87784 -19.01306,127.24319 -27.97851,207.08008 -0.36978,3.29288 -0.74645,6.5965 -1.51563,9.95508 3.90847,0.22506 8.21984,0.66249 12.53516,1.36719 3.54332,0.57863 7.0211,1.3263 11.54297,1.97851 13.37813,-106.16949 18.02873,-200.09048 43.47073,-249.99609 z"
       id="path931" />
  </g>
  <g
     id="use775"
     transform="matrix(0.12676923,0,0,0.13039999,-119.6098,-167.60817)">
    <path
       stroke="#4444ff"
       stroke-linecap="round"
       stroke-linejoin="round"
       stroke-width="6"
       fill="none"
       d="M 545.838,382.40958 -3.4457612e-4,698.42125 M 210.00357,967.03374 -5.0318125e-4,1161.4819 M 911.89621,1155.5408 C 1011.2833,961.37512 982.65289,699.95957 1031.8887,603.38151 M 388.45726,843.9485 c 63.51674,17.7062 102.74371,91.7518 88.73456,171.8223 -14.84223,84.832 -83.81994,144.3026 -154.06608,132.8312 -3.54332,-0.5786 -7.02218,-1.3267 -10.43217,-2.2366 m 597.28594,65.2046 24.17088,-44.6384 c 54.85632,-107.1689 71.63021,-230.66947 83.09571,-336.74019 5.7327,-53.03537 10.0816,-101.7918 16.5391,-141.34571 5.8736,-22.70053 8.5174,-47.90974 17.8715,-69.00695 m 67.8411,45.30651 c -9.9478,28.19624 -15.0782,61.66045 -19.8806,99.15357 -7.3221,57.16385 -12.255,123.78509 -22.1875,192.23437 -19.164,132.0677 -56.7571,268.6324 -159.93025,356.3608 M 378.07661,657.7054 c 9.90456,58.4667 14.51989,126.9043 10.30043,186.2208 m -230.42387,478.3065 c 46.14203,-142.959 3.6278,-495.27188 220.77976,-664.28425 l 10.91438,-8.68776 m 866.07859,92.56975 c 14.7981,7.71629 29.5968,15.31204 44.3521,22.86187 M 750.69391,123.08944 c 68.41761,306.46514 221.93186,452.11195 390.96519,555.148 M 283.37737,534.5969 c 211.008,146.18047 473.964,157.35655 717.79923,40.63511 M 259.47184,548.32638 c 98.8689,70.84286 209.42649,112.56949 324.30152,126.00234 m 222.08452,-8.40951 C 878.55054,652.19962 951.10459,627.83002 1021.7695,593.0057 M 981.7226,556.7953 C 750.98009,664.2957 506.25009,653.84093 306.81994,520.3306 M 1101.021,972.75833 1300.0004,788.51813 M 895.21063,669.95954 899.37321,866.78037 M 824.96318,687.4077 c 56.65536,-11.71079 113.08494,-29.65743 168.47343,-53.74053 M 235.44462,561.75161 c 100.21065,74.15489 212.68115,118.8803 329.73182,135.11225 M 994.23175,632.3254 c -15.80219,55.54873 -19.41083,127.91388 -28.37628,207.75077 -0.36978,3.29288 -0.74635,6.5965 -1.1305,9.90986 m -249.9224,-197.15301 -4.69876,290.7436 M 680.66676,654.00196 694.65174,937.92959 M 814.67063,639.25533 c -34.63744,96.21422 -44.88224,214.13029 -49.25917,315.81626 M 574.85438,648.25878 c 29.43746,82.45626 45.93283,177.7386 53.64308,263.69146 m 162.26505,37.63728 c 3.53303,-90.01922 10.5011,-178.04405 34.7401,-262.50585 m -39.01633,-42.90491 c -32.02269,95.25653 -41.92905,210.52384 -46.15246,307.88302 m -85.99944,-31.08399 c -6.80715,-88.54273 -22.2265,-182.80873 -51.9444,-269.70385 m -37.56235,46.48617 c 19.19296,63.62374 32.13126,139.95511 38.75326,206.92703 M 676.06582,3.6843121e-4 1040,600 1090,570 746.03466,2.9921532e-4 M 952.25828,341.3086 C 1000.9234,315.8944 1039.4134,283.383 1095,305 1065.2527,211.36107 1028.734,119.33488 1106.6398,0.05624388 M 996.58881,316.58215 798.13446,2.0549057e-4 M 988.51081,303.78536 944.78841,329.2901 m 34.3998,-40.89989 -43.23744,25.22184 m 33.50647,-40.37877 -43.08431,25.13251 m 33.44994,-40.3458 -43.35958,25.29309 m 33.96736,-40.64763 -30.22174,17.62935 m 20.50206,-32.79287 -22.52482,13.13948 M 1040,145 c -45,15 -83.58957,-37.43579 -115,-15 -35.00012,24.99983 5.62074,69.68963 25,60 20,-10 15,-40 -5,-40 -20,0 -10,15 -10,15 m 105,-20 c -35.2326,31.75948 -8.6313,91.18201 -43.63494,107.45231 -39.00402,18.12969 -57.86454,-39.24199 -39.88137,-51.32717 18.55919,-12.47226 42.19678,6.66577 32.33833,24.06726 -9.85844,17.40146 -17.98032,1.30689 -17.98032,1.30689 M 927.36298,206.53507 C 954.12808,198.30236 979.12831,182.21092 1005,170 m -50,25 c 22.59425,-17.66394 26.08007,-20.22888 30,-35 m -30,35 c 17.82252,-3.50586 40,-2.73029 50,5 m -41.75989,63.59543 C 990.16075,274.2978 1020,270 1045,255 c 10.1624,20.30608 32.0159,34.07048 50,50 M 973.91565,280.46103 C 994.78288,284.72347 1024.7035,283.82414 1040,280 c 8.9362,8.87536 24.5981,14.37237 40,20 M 821.03144,36.679301 C 833.48241,39.397449 843.90831,43.314112 875,35 c 7.85164,4.168923 17.68616,7.037284 35,5 -2.71386,8.217855 -7.13718,13.526488 -5,30 -11.75247,19.815616 -19.0289,39.2889 -25.98055,58.73733 m 18.70489,30.61352 C 902.36369,135.62079 899.74143,111.16316 930,90 931.61548,60.668738 936.91125,30.522559 943.84668,0.01331693 M 421.08044,454.25091 c 169.14032,93.56156 326.46568,63.02065 482.20961,15.86864 m -33.05736,-47.49372 c -134.97326,39.93921 -257.92573,61.77254 -392.67103,-1.22531 m 664.28184,256.99981 c 0,0 16.2001,-16.44391 18.1565,-18.40033 5,-5 27.7553,2.1466 39.3842,-13.48933 16.8462,-22.65095 34.8291,-5.69455 17.537,13.28408 -14.2871,15.68051 -36.9212,27.39737 -36.9212,27.39737 10.5216,34.89336 5.9503,67.2913 -10,97.80788 m 60,-140 c 40,-50 60.4702,-13.56217 25,20 -39.8629,37.71853 -63.642,28.30244 -25,-20 v 0 m 5.5241,35.0038 c 52.1811,-37.10984 61.8709,3.54544 18.555,26.09052 -48.6803,25.33706 -68.9644,9.75938 -18.555,-26.09052 v 0 m 0.2171,35.44005 c 54.2425,-29.75136 58.1949,11.838 14.2311,28.34987 -49.4084,18.55666 -66.6318,0.39139 -14.2311,-28.34987 v 0 m -0.4486,37.09076 c 55.0738,-12.59586 48.8229,25.65318 5.9684,29.05788 -48.1618,3.82627 -59.1723,-16.88964 -5.9684,-29.05788 v 0 m 4.8619,29.31632 C 1236.832,801.15856 1218.6766,824.64547 1205,830 c -18.5269,7.25347 -62.3179,13.87163 -86.9522,-6.55084 M 586.59556,977.68232 c 6.93102,1.79604 14.16001,3.93691 21.72999,6.44742 m -128.49821,-5.37406 c 5.08742,-1.64369 10.20248,-3.08348 15.39388,-4.29133 m 345.91216,-43.89602 c -31.00701,15.35093 -48.64245,22.53823 -66.10213,24.13089 -18.43533,1.68166 -44.48021,-1.33735 -95.48633,-23.41797 -56.2134,-24.33485 -104.64639,-36.50918 -149.625,-36.09375 -6.42551,0.0593 -12.77902,0.37675 -19.07617,0.95117 -17.57292,1.60299 -33.74548,5.02947 -48.86909,9.56858 m 34.63108,53.09646 c -6.12253,1.25438 -12.10187,2.80299 -17.99533,4.60054 m 136.68123,7.24981 c -11.60245,-3.91703 -22.52901,-7.03736 -32.90161,-9.42145 m 64.85193,21.5157 c -2.43795,-1.01347 -4.84784,-1.99646 -7.2305,-2.94941 m 105.95795,33.949 c -21.42451,-2.6444 -46.39131,-9.4416 -77.45704,-22.03561 m 151.94358,13.63391 c -13.17737,4.6655 -26.13542,7.8425 -39.97548,9.105 -2.44817,0.2233 -4.93354,0.3886 -7.46237,0.4919 M 524.4573,940.32392 c -3.20712,0.13076 -6.38077,0.34038 -9.52566,0.62725 -13.54724,1.23577 -26.21255,3.83475 -38.37884,7.40082 m 173.22777,19.21903 c -36.13853,-14.77335 -66.92763,-23.19001 -94.67663,-26.1672 m 184.85646,56.3333 c -16.3138,-2.72466 -35.18035,-8.01435 -57.93523,-16.80423 m 140.07574,7.77965 c -14.68669,5.731 -28.38425,9.46761 -42.98177,10.79918 M 520.04436,925.52763 c -2.17001,0.12805 -4.32833,0.29013 -6.476,0.48604 -14.27719,1.30236 -27.58866,3.99904 -40.26705,7.65265 m 352.20854,37.40673 c -17.40101,7.5008 -32.15396,12.07815 -47.75399,13.50117 -24.8237,2.2644 -56.47524,-2.53498 -110.12891,-25.76172 -40.94616,-17.72565 -76.09352,-28.15158 -107.97941,-31.97119 m 362.76255,206.62249 c -1.31568,-0.6092 -2.703,-1.112 -4.15423,-1.495 -48.7151,-13.5801 -83.01509,-73.7426 -70.82227,-143.43169 12.9179,-73.83331 71.29896,-121.30364 125.41211,-112.4668 2.72949,0.44573 5.39977,1.02079 8.01563,1.71875 1.84733,0.52403 3.70446,0.82603 5.5431,0.92205 M 955,1040 c -19.32997,0 -35,-17.9086 -35,-40 0,-22.09139 15.67004,-39.99999 35,-39.99999 6.60938,0 12.79087,2.09373 18.06437,5.73251 m -10.55984,49.11398 c -2.20733,1.4604 -4.77051,2.2964 -7.50453,2.2964 -8.28431,0 -15.00005,-7.6752 -15,-17.14297 3e-5,-9.46771 6.71575,-17.14279 15,-17.14279 5.25511,0 9.87904,3.08844 12.55792,7.76377 M 940.83932,963.36692 920,915 887.2981,910 890,950 l -35,15 15,40 -23.18198,30 33.18198,20 -10,40 h 40 l 5,35 m 5,-215 20,-35 35,20 -12.61978,60.65789 M 975,900 985.25547,889.74453 M 910,1095 939.33944,1035.4783 M 880,1055 926.21737,1022.6463 M 870,1005 l 50.10954,-2.7875 M 890,950 926.29267,976.48652 M 905,935 932.70571,969.18927 M 950,910 l 2.87052,49.48981 M 880,980 921.19777,990.37107 M 875,1030 921.85607,1013.3127 M 900,1070 932.52274,1030.5467 M 915,1130 l 11.12069,-4.4483 M 935,1090 946.82482,1039.0754 M 217.58969,729.12504 a 13.75,15 45 0 1 -20.32931,0.88388 13.75,15 45 0 1 0.88387,-20.32932 13.75,15 45 0 1 20.32932,-0.88388 13.75,15 45 0 1 -0.88388,20.32932 v 0 m 2.21679,16.29361 c 4.25225,3.00471 7.23595,8.20188 6.68988,19.49941 m 7.17525,-33.90474 c 3.39348,3.89696 8.95626,6.41454 20.55501,5.09409 m -73.30015,-29.19565 c -3.00471,-4.25226 -8.20188,-7.23594 -19.49941,-6.68987 m 33.90474,-7.17527 c -3.89696,-3.39347 -6.41455,-8.95626 -5.09408,-20.55499 m 9.96893,67.53464 c -6.35453,5.55159 -11.80322,13.41168 -14.7314,27.69501 m 1.76778,-40.65863 c -5.5516,6.35453 -13.4117,11.80322 -27.69502,14.73139 M 228.49092,711.742 c 5.5516,-6.35454 13.4117,-11.80322 27.69501,-14.73139 m -40.65864,1.76776 c 6.35455,-5.55159 11.80323,-13.41169 14.73139,-27.695 m -17.08841,81.90652 c 0.45476,28.00908 7.07107,7.07107 31.81981,45.96194 7.07107,-7.07106 17.67767,-24.74873 10.6066,-31.8198 7.07107,7.07107 24.74874,-3.53554 31.8198,-10.6066 -38.89087,-24.74874 -17.95286,-31.36505 -45.96194,-31.81981 m -67.17514,-10.6066 c -28.00907,-0.45476 -7.07107,-7.07107 -45.96193,-31.81981 7.07106,-7.07106 24.74873,-17.67766 31.81979,-10.6066 -7.07106,-7.07106 3.53554,-24.74874 10.60661,-31.8198 24.74873,38.89087 31.36505,17.95286 31.8198,45.96194 m 4.1248,60.69334 c -15.83478,41.09289 -14.14215,14.14213 -71.29994,84.26355 -6.48182,-6.48182 -12.37437,-26.51651 1.76776,-40.65864 -14.14213,14.14213 -34.17682,8.24958 -40.65864,1.76777 70.12142,-57.15779 43.17066,-55.46517 84.26356,-71.29994 m 54.21153,-2.35702 c 41.09289,-15.83477 14.14214,-14.14215 84.26356,-71.29994 -6.48182,-6.48181 -26.51651,-12.37436 -40.65864,1.76777 14.14213,-14.14213 8.24957,-34.17682 1.76776,-40.65864 -57.15778,70.12141 -55.46517,43.17066 -71.29993,84.26356 M -0.00965108,908.0902 a 13.75,15 45 0 1 18.48323308,0.70551 13.75,15 45 0 1 -0.883883,20.32932 13.75,15 45 0 1 -17.59665127,2.95817 M 19.8065,945.41859 c 4.252222,3.0048 7.235887,8.202 6.68988,19.4994 m 7.175225,-33.90467 c 3.39349,3.89695 8.956285,6.41457 20.555,5.09411 m -54.0199456,3.91886 c -0.07192,0.0628 -0.14372387,0.12596 -0.21540942,0.18939 M 28.490931,911.74199 c 5.55158,-6.35453 13.411687,-11.80322 27.694996,-14.73138 m -40.658625,1.76775 c 6.354528,-5.55158 11.803224,-13.41168 14.731381,-27.69499 m -17.088402,81.90652 c 0.454719,28.0091 7.071068,7.0711 31.819813,45.9619 7.07106,-7.071 17.677669,-24.7487 10.606594,-31.8198 7.071075,7.0711 24.748738,-3.5355 31.819798,-10.6066 C 48.52562,931.77668 69.463625,925.16037 41.454553,924.70561 M 0,870.62562 c 1.6873505,2.5151 2.4224871,6.49298 2.5636796,15.18912 m 4.1247944,60.69335 c -2.5351192,6.57888 -4.6209859,11.41372 -6.57101846,15.18206 M 34.972745,918.22381 c 41.092888,-15.83477 14.142129,-14.14215 84.263555,-71.29994 -6.48182,-6.48181 -26.51652,-12.37436 -40.658648,1.76777 14.142128,-14.14213 8.249581,-34.17682 1.767774,-40.65865 -57.157796,70.12143 -55.465174,43.17067 -71.299932,84.26356 m 13.037119,-24.70863 c 0.644139,-3.51959 1.579047,-7.27656 2.836686,-11.26339 6.776141,-21.48092 22.539707,-47.22491 45.552172,-70.23739 23.012458,-23.01245 48.756449,-38.776 70.237359,-45.55215 3.78182,-1.19296 7.3568,-2.09554 10.71853,-2.73501 m 38.0286,38.11197 c -0.63865,3.34135 -1.53696,6.89295 -2.72165,10.64852 -6.77615,21.48091 -22.5397,47.22489 -45.55216,70.23735 -23.01247,23.01247 -48.756456,38.77604 -70.237377,45.55218 -3.455906,1.09017 -6.739102,1.93782 -9.844687,2.56381 m 1.711149,29.7621 c 5.963109,-0.90155 11.997636,-2.3444 17.991894,-4.23529 27.120211,-8.55506 55.825951,-26.66332 81.592221,-52.42959 25.76626,-25.76626 43.87452,-54.472 52.42959,-81.59221 2.56524,-8.13203 4.30589,-16.33817 4.98909,-24.33954 m -64.33285,-64.64841 c -8.09338,0.66548 -16.4,2.41712 -24.6307,5.01349 -27.12021,8.55507 -55.825955,26.66332 -81.592212,52.42958 -22.968935,22.96893 -39.8523899,48.27374 -49.30785724,72.70897 M 263.38749,736.26207 c 5.118,-0.90346 10.2765,-2.19337 15.40552,-3.81132 14.98052,-4.72561 30.44482,-12.36606 45.63025,-22.60196 M 245.45053,568.69908 c -24.81157,25.29489 -42.27726,53.29212 -50.63198,79.77721 -1.66482,5.27762 -2.98233,10.58643 -3.88887,15.85024 M 220,670 c 0.64573,-3.6351 1.60353,-7.52636 2.90918,-11.66535 6.77614,-21.48092 22.53969,-47.2249 45.55217,-70.23738 0.64983,-0.64983 1.30184,-1.29388 1.95586,-1.93211 m 88.89223,49.50457 c -5.90169,7.84149 -12.63424,15.63504 -20.13741,23.13821 -23.01248,23.01248 -48.75646,38.77604 -70.23738,45.55218 -3.50661,1.10616 -6.8354,1.96264 -9.98126,2.59122 M 0.09745825,1030.8391 c 7.32997495,-12.193 12.96340575,-24.466 16.73755275,-36.43031 2.129258,-6.7499 3.690411,-13.5509 4.550246,-20.2434 m 31.503578,92.28751 27.170113,20.9001 m -77.9247283,-59.9421 29.0038533,22.3107 m 7.411978,27.24 28.803026,22.1562 M -5.4222262e-4,1047.3073 24.265974,1065.9738 M -2.2562456e-4,1068.846 54.646916,1110.8822 M -8.6287061e-4,1090.384 41.941045,1122.647 M 3.6951622e-4,1111.9233 29.234883,1134.4114 M -2.9326029e-4,1133.4613 15,1145 M 16.484917,995.37298 105.471,1063.8238 M 9.9716305,1011.9013 92.763889,1075.5876 M 74.432797,932.25601 169.00001,1005 m -85.754132,-44.42624 73.048242,56.19094 m -90.018273,-47.70635 77.312103,59.47085 m -87.498886,-45.76841 74.793966,57.53381 m -83.750576,-42.88502 71.043466,54.64882 m -97.134129,-74.71856 19.760218,15.20017 m 137.231361,-131.3605 49.28101,37.90847 m -90.95431,-69.96485 17.62444,13.55726 M 75.319541,782.16887 131.67845,825.52188 M -7.5124534e-5,724.23071 50.741008,763.26231 m 115.900982,110.69307 55.7336,42.872 M 62.860269,794.12329 142.5675,855.43654 M 2.4050016e-4,745.76944 38.78578,775.60445 m 115.39694,110.30534 63.57885,48.9068 m -105.95268,-81.50206 18.10285,13.92527 m -43.356292,-33.35099 8.380792,6.44677 m -42.963307,-33.0487 17.65861,13.58354 M -4.8733763e-4,767.3073 28.069306,788.89947 M 140.89692,897.2284 213.46868,953.05283 M 98.452593,864.57892 116.02577,878.09675 M 42.008254,821.1602 58.376856,833.75143 M -2.9633138e-4,788.84593 18.155887,802.81222 m 161.273443,145.59496 27.68858,21.29891 m -80.45938,-61.89183 c 10.47101,8.05462 20.94202,16.10924 31.41302,24.16386 M 85.967693,876.51361 c 5.117324,3.93641 10.234648,7.87281 15.351967,11.80921 m -67.789586,-52.14584 12.780495,9.83115 M 1.5424456e-5,810.38463 9.1736625,817.44128 m 156.3099075,141.77684 28.92724,22.25173 m -83.15037,-63.96182 37.34194,28.72457 m -74.504477,-57.31114 10.875381,8.36568 M 26.256477,852.12036 c 2.392071,1.84006 4.784143,3.68011 7.176214,5.52017 m 60.157188,67.8132 88.116271,67.78176 m -118.692066,-91.3016 2.998632,2.30664 m 151.891334,-120.08357 40.25944,30.9688 M 60.735892,663.25837 126.6209,713.93915 m 86.66645,88.20497 37.8553,29.11946 m -67.05566,-51.58127 3.89566,2.99666 m -52.57431,-40.44177 7.90238,6.07875 m -98.550808,-75.80831 63.771798,49.05523 m 97.65291,96.65607 38.4032,29.54092 m -73.57519,-56.5963 10.76432,8.28024 m -63.62055,-48.93888 13.36997,10.28459 M 28.782985,681.75614 92.262224,730.58632 m 105.444216,102.6494 40.69749,31.30576 m -79.39779,-61.07522 14.51475,11.16519 m -71.35207,-54.8862 16.81422,12.93402 M 12.808231,691.00635 77.086239,740.45096 m 111.441481,107.26267 44.06545,33.8965 m -84.89298,-65.30229 16.66761,12.82124 m -40.71647,-31.32036 6.19376,4.76443 m -41.818535,-32.1681 17.914905,13.7807 M 4.9861673e-4,702.69269 63.507823,751.54449 m 212.901147,13.00087 5.75958,4.43045 M 108.66356,635.51044 153.20021,669.7694 m 105.26481,102.51139 15.28866,11.76051 M 92.687573,644.75969 134.61552,677.01196 m 117.85737,112.19795 13.27869,10.21438 M 76.711591,654.00893 147.3499,708.34608 m 133.12215,-26.82911 14.68561,11.29662 m -65.74779,-50.57522 11.40505,8.77312 m -68.24678,-52.49753 32.54512,25.03471 m 99.44696,98.0361 6.37722,4.90556 m -41.66027,-32.04636 8.60291,6.61762 m -55.23976,-42.49212 4.87812,3.7524 m -70.92628,-54.55867 41.46962,31.89971 m 89.39171,90.30132 13.42955,10.33042 M 140.61523,617.01171 192.47118,656.9009 m 74.33874,78.72212 24.46923,18.82248 m -166.63867,-128.1836 36.20069,27.84668 m 125.78361,-32.47412 50.61793,38.93687 m -79.31424,-61.01096 17.90636,13.77412 m -55.33902,-42.56847 13.46923,10.36094 m 71.84416,76.8032 18.75213,14.42471 m -77.40914,-59.54548 17.68424,13.60326 m -60.3166,-46.39739 18.95086,14.57758 m 69.32394,74.86457 c 5.83779,4.49061 11.67559,8.98122 17.51338,13.47183 M 237.5207,626.939 c 5.22269,4.01745 10.44538,8.0349 15.66806,12.05236 m -64.64587,-49.7276 25.18524,19.37326 m 56.07013,-21.4845 79.33988,61.03067 m -112.66758,-86.66737 8.92003,6.86156 m 388.14494,-53.82423 v 84.33594 c 0,30 40,40 40,0 v -84.25 m -34.65891,0.19326 c 19.60182,54.51348 14.65891,94.05674 14.65891,94.05674 m 16.9577,-94.1374 c -16.9577,35.90857 -16.9577,94.1374 -16.9577,94.1374 m 22.13072,-94.35592 7.10273,83.53219 c 2.54172,29.89214 43.24514,36.46722 39.85618,-3.38895 l -7.06217,-83.05531 m -34.38925,2.68417 c 23.93653,52.43496 22.37057,92.02966 22.37057,92.02966 m 8.60757,-94.38125 c -13.46605,37.24268 -8.60757,94.38125 -8.60757,94.38125 m 17.10147,-95.22178 6.25682,82.71295 c 2.26289,29.91454 42.90323,36.86887 39.88605,-3.01717 l -6.45564,-85.34137 m -33.99683,5.14519 c 23.18518,52.37725 21.26374,91.67628 21.26374,91.67628 m 10.3176,-96.44832 c -14.81371,37.01121 -10.3176,96.44832 -10.3176,96.44832 m 13.78999,-96.10594 13.26933,83.95788 c 4.68329,29.63219 45.75398,33.26519 39.50959,-6.2444 l -13.65693,-86.4103 m -34.18329,7.91627 c 28.34083,51.20349 29.64652,91.49363 29.64652,91.49363 m 3.17369,-99.18822 c -12.84818,37.97565 -3.17369,99.18822 -3.17369,99.18822 m 6.01749,-97.7741 18.16509,83.03631 c 6.4112,29.30694 47.62419,30.52764 39.07591,-8.54827 L 840.48239,487.8944 m -33.60528,10.15913 c 31.29184,49.45525 34.95562,89.59969 34.95562,89.59969 m -2.55168,-99.53256 c -10.76755,38.64765 2.55168,99.53256 2.55168,99.53256 M 845,488.42986 l 25.44858,81.10098 c 8.98186,28.62388 50.14098,26.18937 38.16517,-11.9758 l -25.5629,-81.4653 m -33.2802,10.84314 c 35.54931,46.48921 42.75447,86.15135 42.75447,86.15135 m -11.7869,-96.38416 c -6.09126,39.40902 11.7869,96.38416 11.7869,96.38416 m 0.59647,-99.84541 C 927.34709,517.47234 935,555 935,555 m -48.12411,-80.03869 25.97639,76.95996 c 9.59415,28.4245 50.69154,25.10713 37.89933,-12.79221 L 944.0301,519.21531 M 921.38423,493.34009 C 924.85538,524.94465 935,555 935,555 m -345.51577,-44.21785 -7.95211,82.32496 c -2.8844,29.86101 35.96882,43.66055 39.81468,3.84586 l 7.98572,-82.67291 m -33.99002,-2.68378 c 13.68761,55.25976 5.1355,93.38742 5.1355,93.38742 m 25.26845,-90.94341 C 605.95473,548.28522 600.478,604.9837 600.478,604.9837 m -55.91115,-102.48149 -8.10504,83.19519 c -2.90889,29.85864 35.933,43.69004 39.81152,3.87852 l 7.75397,-79.59158 m -33.77824,-6.14992 c 13.76992,55.46728 5.14888,93.75512 5.14888,93.75512 m 23.90309,-88.35131 c -18.64883,34.41829 -23.90309,88.35131 -23.90309,88.35131 m -51.94946,-106.8824 -21.02722,80.12864 c -7.61471,29.01751 28.53706,48.84298 38.69002,10.15296 l 20.77353,-79.162 m -32.81297,-9.20159 c 4.67718,56.70761 -9.84381,92.95961 -9.84381,92.95961 m 38.69696,-84.79165 c -24.53379,30.81984 -38.69696,84.79165 -38.69696,84.79165 M 468.591,477.48093 438.31123,551.83706 c -11.31459,27.78452 21.95992,52.13216 37.04604,15.08612 l 30.69157,-75.36733 m -31.2912,-11.42141 c -3.12865,55.39876 -21.69492,88.50718 -21.69492,88.50718 m 48.80543,-78.50614 c -28.03946,27.51248 -48.80543,78.50614 -48.80543,78.50614 m -19.93737,-107.92598 -40.0219,74.98832 c -14.12537,26.46646 16.4548,54.12245 35.28863,18.83383 l 40.96167,-76.74916 m -31.81733,-14.71876 c -8.2522,57.93877 -31.49711,90.87315 -31.49711,90.87315 m 61.80988,-76.87713 c -32.93074,22.76679 -61.80988,76.87713 -61.80988,76.87713 m -51.03695,-61.04973 -8.57291,10.17942 c -19.32507,22.94649 4.82857,56.36208 30.59533,25.76676 l 57.01447,-67.69868 m -42.49149,10.89292 c -17.7162,34.41437 -36.26232,51.5712 -36.26232,51.5712 m 77.98835,-62.94793 c -37.37906,14.72867 -77.98835,62.94793 -77.98835,62.94793 m -69.45892,8.7264 C 357.76546,315.36014 427.81129,148.12599 494.89021,58.840442 M 322.97505,510.91708 C 381.61409,336.46517 438.96711,195.80008 494.44949,104.28184 M 384.89743,475.8662 c 38.25761,-111.11427 75.9475,-207.31304 112.90584,-284.29175 m -75.03101,261.6093 c 27.39717,-78.25083 54.4962,-148.66867 81.23655,-209.66286 m -209.59859,263.6507 25.68931,5.92829 m -20.58175,-20.90346 40.53127,9.35335 m -35.4223,-24.32821 55.37324,12.77843 m -50.26568,-27.7536 70.21478,16.2034 m -65.09938,-31.17678 85.05074,19.62709 m -79.6348,-34.53111 99.58389,22.9809 m -94.16608,-37.88448 101.51585,23.42674 m -96.09989,-38.33074 101.47476,23.41725 M 336.51579,387.65749 437.9472,411.06474 M 355,375 443.57819,395.44112 M 375,365 448.45693,381.9516 M 405,355 454.42401,366.40555 M 495,0 v 160 c 0,15 15,135 20,155 5,20 55,140 110,140 55,0 105,-55 105,-55 m 88.68813,-44.60036 c -18.70244,34.49992 -48.63822,66.04618 -74.20644,97.59545 m 14.55,-53.80661 c -15.63326,19.88187 -32.92052,39.14131 -48.28444,58.45629 m 78.83229,-79.43633 c -18.43571,26.75956 -41.85813,52.04221 -62.18857,77.37903 m -22.21543,-27.41704 c -9.07594,10.75807 -18.11924,21.42764 -26.523,32.12373 m 10.98443,-27.10258 c 43.90875,-10.77137 110.28052,-61.0549 137.78778,-85.22159 m 5.27859,9.22499 c -18.10187,32.62108 -46.06263,62.63198 -70.57659,92.55442 m 77.60165,-79.26564 c -16.89613,26.26181 -39.21879,50.99411 -59.5803,75.59704 m 66.20119,-63.26766 c -14.48896,20.29883 -31.61226,39.78858 -47.77761,59.15004 m 54.35022,-47.78255 c -11.22745,14.63986 -23.50259,28.91546 -35.42042,43.09307 m 41.80396,-32.15078 c -7.28052,9.03424 -14.83203,17.95256 -22.31288,26.81971 M 729.82967,416.6708 c -11.94059,14.33972 -24.20147,28.4529 -35.37594,42.60614 m -36.65309,-10.34909 c -3.27851,3.992 -6.49784,7.98201 -9.62642,11.97602 m 33.94391,-23.17402 c -6.46203,7.69125 -12.81445,15.3545 -18.83283,23.03227 m -53.1443,-8.5794 c -1.59275,1.95969 -3.16916,3.91928 -4.72551,5.87951 m 17.55275,-3.19315 c -1.21917,1.51504 -2.42757,3.03022 -3.62345,4.54588 m 19.53938,-5.68159 c -1.77645,2.19796 -3.53111,4.39605 -5.25871,6.59526 M 581.7172,432.26904 c -5.38247,6.38054 -10.72616,12.73499 -15.90375,19.08748 m 24.38823,-11.34235 c -3.9391,4.70268 -7.82885,9.39645 -11.61784,14.09105 m 21.03252,-7.38139 c -2.61027,3.15912 -5.18713,6.31629 -7.71495,9.47451 M 559.4262,404.97303 c -9.95799,12.36351 -20.42689,24.50931 -30.53143,36.60331 m 37.58781,-26.89468 c -8.48024,10.22731 -17.15589,20.33349 -25.51887,30.41481 m 32.89527,-21.29697 c -6.97613,8.29118 -13.9815,16.52086 -20.74028,24.7413 m -32.69704,-51.1274 c -8.27427,10.61176 -17.04813,21.04115 -25.78073,31.39067 m 51.27957,-45.3915 c -12.25087,17.08909 -26.34664,33.6086 -40.13884,49.96571 m 46.86851,-38.84367 c -11.21622,14.59751 -23.46362,28.83471 -35.34773,42.97589 m 434.53293,-96.44367 c 0.34096,0.003 0.68155,0.005 1.02175,0.005 M 819.09649,329.8511 c 20.8936,12.03069 50.76833,29.65148 82.54355,42.2414 m -93.53596,-66.84733 c 19.39203,11.12475 47.3371,27.79868 77.54912,40.59262 m -87.1814,-64.41485 c 17.87385,10.22982 43.35865,25.48396 71.2829,38.00519 m -80.07522,-61.34582 c 16.21671,9.27629 38.76054,22.74424 63.72809,34.54877 M 781.6294,235.16636 c 14.45142,8.27693 33.81252,19.77925 55.38856,30.46483 m -62.73782,-52.97817 c 12.51922,7.18826 28.53366,16.62681 46.38676,25.83079 m -53.05661,-47.95153 c 10.19434,5.86961 22.53171,13.07445 36.18769,20.37791 M 761.09171,168.501 c 7.69789,4.43963 16.52374,9.55619 26.15033,14.85885 m 44.06141,171.80182 c 22.31331,12.87513 53.54313,30.93436 86.1883,42.92596 m -72.23384,-16.6082 c 23.50907,13.52927 55.24385,31.31011 87.84512,42.3037 m -71.41989,-14.59484 c 24.23485,13.7717 55.35058,30.3804 86.79514,39.99805 m -68.7541,-11.46572 c 24.44448,13.54389 54.2983,28.51644 84.03005,36.62054 m -62.5585,-6.42024 c 23.594,12.45491 50.83412,24.92535 77.64486,31.29809 m -51.84719,0.64015 c 21.15869,10.22532 44.22837,19.43726 66.7635,23.96752 m -37.61397,8.53114 c 17.16795,7.15255 35.02079,12.99596 52.41567,15.81593 m -22.30513,14.48238 c 12.58168,4.83013 25.42253,8.82246 38.08783,11.32495 M 1226.7677,430.4038 C 1236.7061,426.6519 1255,405 1275,405 c -20,0 -38.2939,-21.6519 -48.2323,-25.4038 C 1215.8632,375.4796 1200,380 1185,390 c 10,-15 14.5204,-30.86328 10.4038,-41.76777 C 1191.6519,338.2939 1170,320 1170,300 c 0,20 -21.6519,38.2939 -25.4038,48.23223 C 1140.4796,359.13672 1145,375 1155,390 1140,380 1124.1368,375.4796 1113.2323,379.5962 1103.2939,383.3481 1085,405 1065,405 c 20,0 38.2939,21.6519 48.2323,25.4038 C 1124.1368,434.5204 1140,430 1155,420 c -10,15 -14.5204,30.86328 -10.4038,41.76777 C 1148.3481,471.7061 1170,490 1170,510 c 0,-20 21.6519,-38.2939 25.4038,-48.23223 C 1199.5204,450.86328 1195,435 1185,420 c 15,10 30.8632,14.5204 41.7677,10.4038 v 0 m -124.4733,-45.294 c -20.4756,-25.94348 19.6216,-68.22313 47.576,-46.85197 m 90.0698,49.89416 c 27.6137,-26.57534 -19.4668,-76.1485 -48.4601,-46.65991 m -88.1842,82.19762 c -22.9405,26.05054 18.9495,70.57393 47.3617,47.4311 m 89.1494,-49.40024 c 27.9147,26.56009 -19.3449,76.38398 -48.3801,46.73314 M 1155,390 1120,355 m 65,35 35,-35 m -65,65 -35,35 m 65,-35 35,35 m -59.6223,31.42052 c 3.8088,80.77311 35.1376,104.71144 35.0547,161.94598 m -19.8269,-157.70977 c 4.3238,71.49985 30.4518,97.50883 34.3427,145.38456 M 1195,645 c -10.1872,-37.43261 -63.0235,-86.31451 -115,-60 46.0391,-3.5732 39.6973,80.55961 115,60 v 0 m 0.4326,3.13982 C 1177.9271,620.66283 1156.5148,610.1093 1135,600 m 75,30 c -9.6941,-63.40796 2.6966,-107.0578 55,-115 -35.6108,31.84211 6.9504,101.1648 -55,115 v 0 m 0,0 c 4.9203,-31.94665 12.7832,-59.34103 25,-80 M 622.94327,0.04565899 C 641.19762,56.951358 678.422,84.549843 730.45252,89.273975 M 640.65863,0 c 16.18977,35.089124 41.58049,55.9635 74.70578,64.888556 M 663.88096,0.35915873 C 673.24957,15.491809 684.79555,27.260595 698.3436,35.936324 M 495.30432,102.08255 C 564.83808,63.139913 569.95875,31.777277 578.60239,6.5266414e-5 M 495.0485,78.346058 C 541.17425,49.330111 552.45353,24.414826 559.52081,-0.00479966 M 494.85919,48.322237 C 518.36785,31.111235 530.15353,15.27977 537.25102,0 M 605,330 c 0,0 -5,-20 -15,-20 -10,0 -20.05025,-3.93934 -20.05025,-18.93934 0,-10 23.76024,-81.56698 15.05025,-141.06066 -27.23969,-19.33581 -56.03661,-29.64381 -90,-10 1.71052,-0.37051 3.46873,0.15895 5.12877,-0.37589 C 530,130 558.25901,130.43652 585,150 m 35,0 c 35.93792,-42.8397 75.41308,-22.41924 115,0 -37.61142,-16.4876 -75,-35 -109.47384,0.18444 C 624.37724,151.35705 621.25075,148.82377 620,150 v 0 m 10,120 c 30.36676,-1.00978 25,35 10,35 -6.5502,0 -13.36325,-8.16819 -18.66415,-8.61698 C 605,295 605,305 625,300 m -50,50 v 10 l 5,-5 -5,-5 v 0 m 95,-5 v 10 l -5,-5 5,-5 m -90,10 c 11.94693,6.2699 14.48458,-4.75282 20,-5 5,0 10.65685,4.6967 15.65685,4.6967 5,0 12.82843,-6.16116 17.82843,-6.16116 C 651.30037,359.48712 652.81888,350.43393 665,350 m -70,25 c 13.06107,15.59169 28.64499,10.89619 45,0 -13.50934,8.03148 -29.04097,5.16713 -45,0 v 0 M 500,185 c 3.60493,-9.01233 14.37536,-17.16598 25.37113,-17.0953 C 544.87736,168.03008 560,190 575,190 m -77.19673,1.57445 C 501.09798,201.20636 512.48451,204.66444 525,205 c 21.48756,1.0473 35,-10 50,-15 m 55,0 c 21.96964,-0.78554 30.60857,-17.60143 45,-20 30,-5 50,20 65,20 m -90,-5 c -5,15 16.98324,24.90799 30,25 19.15313,0.13539 45,-20 60,-20 M 283.37737,534.5969 c 211.008,146.18047 473.964,157.35655 717.79923,40.63511 M 180,945 a 15,15 0 0 1 -15,15 15,15 0 0 1 -15,-15 15,15 0 0 1 15,-15 15,15 0 0 1 15,15 v 0 m 0,0 a 15,15 0 0 1 -15,15 15,15 0 0 1 -15,-15 15,15 0 0 1 15,-15 15,15 0 0 1 15,15 v 0 M 53.427887,1062.3798 a 15,15 0 0 1 -15,15 15,15 0 0 1 -15,-15 15,15 0 0 1 15,-15 15,15 0 0 1 15,15 v 0 M 1096.021,1002.7583 1300.0001,813.88882 M 540,1005 c -36.78985,22.2324 -13.09636,-13.8056 -10,-30 -16.19445,3.09636 -52.23247,26.7898 -30,-10 -1.38148,-2.28605 -2.53798,-4.33857 -3.48822,-6.17701 C 482.16958,931.07511 514.81184,952.09604 530,955 c -3.09636,-16.19445 -26.78985,-52.23247 10,-30 36.78985,-22.23247 13.09636,13.80555 10,30 15.56552,-2.97611 49.46325,-24.98059 32.33118,5.9826 -0.69222,1.25108 -1.46776,2.58863 -2.33118,4.0174 22.23247,36.7899 -13.80555,13.09636 -30,10 3.09636,16.1944 26.78985,52.2324 -10,30 v 0 m 89.99999,29.641 c -42.97714,0.8589 -4.43898,-18.5042 6.33975,-30.9807 -15.57301,-5.4157 -58.62955,-2.9156 -20.98076,-23.66029 -0.85894,-42.97723 18.50413,-4.43901 30.98076,6.33974 5.4157,-15.57298 2.91554,-58.62957 23.66025,-20.98076 42.97718,-0.85896 4.43901,18.50414 -6.33974,30.98076 15.57298,5.41565 58.62957,2.91555 20.98076,23.66025 0.85893,42.9772 -18.50416,4.439 -30.98076,-6.3397 -5.41568,15.5729 -2.91551,58.6295 -23.66026,20.9807 v 0 M 1170,387.5 c 9.3096,0 17.5,8.19036 17.5,17.5 0,9.30964 -8.1904,17.5 -17.5,17.5 -9.3096,0 -17.5,-8.19036 -17.5,-17.5 0,-9.30964 8.1904,-17.5 17.5,-17.5 v 0"
       id="path935" />
  </g>
  <g
     id="use777"
     transform="matrix(-0.12676923,0,0,-0.13039999,45.190201,93.191814)">
    <path
       stroke="#4444ff"
       stroke-linecap="round"
       stroke-linejoin="round"
       stroke-width="6"
       fill="none"
       d="M 545.838,382.40958 -3.4457612e-4,698.42125 M 210.00357,967.03374 -5.0318125e-4,1161.4819 M 911.89621,1155.5408 C 1011.2833,961.37512 982.65289,699.95957 1031.8887,603.38151 M 388.45726,843.9485 c 63.51674,17.7062 102.74371,91.7518 88.73456,171.8223 -14.84223,84.832 -83.81994,144.3026 -154.06608,132.8312 -3.54332,-0.5786 -7.02218,-1.3267 -10.43217,-2.2366 m 597.28594,65.2046 24.17088,-44.6384 c 54.85632,-107.1689 71.63021,-230.66947 83.09571,-336.74019 5.7327,-53.03537 10.0816,-101.7918 16.5391,-141.34571 5.8736,-22.70053 8.5174,-47.90974 17.8715,-69.00695 m 67.8411,45.30651 c -9.9478,28.19624 -15.0782,61.66045 -19.8806,99.15357 -7.3221,57.16385 -12.255,123.78509 -22.1875,192.23437 -19.164,132.0677 -56.7571,268.6324 -159.93025,356.3608 M 378.07661,657.7054 c 9.90456,58.4667 14.51989,126.9043 10.30043,186.2208 m -230.42387,478.3065 c 46.14203,-142.959 3.6278,-495.27188 220.77976,-664.28425 l 10.91438,-8.68776 m 866.07859,92.56975 c 14.7981,7.71629 29.5968,15.31204 44.3521,22.86187 M 750.69391,123.08944 c 68.41761,306.46514 221.93186,452.11195 390.96519,555.148 M 283.37737,534.5969 c 211.008,146.18047 473.964,157.35655 717.79923,40.63511 M 259.47184,548.32638 c 98.8689,70.84286 209.42649,112.56949 324.30152,126.00234 m 222.08452,-8.40951 C 878.55054,652.19962 951.10459,627.83002 1021.7695,593.0057 M 981.7226,556.7953 C 750.98009,664.2957 506.25009,653.84093 306.81994,520.3306 M 1101.021,972.75833 1300.0004,788.51813 M 895.21063,669.95954 899.37321,866.78037 M 824.96318,687.4077 c 56.65536,-11.71079 113.08494,-29.65743 168.47343,-53.74053 M 235.44462,561.75161 c 100.21065,74.15489 212.68115,118.8803 329.73182,135.11225 M 994.23175,632.3254 c -15.80219,55.54873 -19.41083,127.91388 -28.37628,207.75077 -0.36978,3.29288 -0.74635,6.5965 -1.1305,9.90986 m -249.9224,-197.15301 -4.69876,290.7436 M 680.66676,654.00196 694.65174,937.92959 M 814.67063,639.25533 c -34.63744,96.21422 -44.88224,214.13029 -49.25917,315.81626 M 574.85438,648.25878 c 29.43746,82.45626 45.93283,177.7386 53.64308,263.69146 m 162.26505,37.63728 c 3.53303,-90.01922 10.5011,-178.04405 34.7401,-262.50585 m -39.01633,-42.90491 c -32.02269,95.25653 -41.92905,210.52384 -46.15246,307.88302 m -85.99944,-31.08399 c -6.80715,-88.54273 -22.2265,-182.80873 -51.9444,-269.70385 m -37.56235,46.48617 c 19.19296,63.62374 32.13126,139.95511 38.75326,206.92703 M 676.06582,3.6843121e-4 1040,600 1090,570 746.03466,2.9921532e-4 M 952.25828,341.3086 C 1000.9234,315.8944 1039.4134,283.383 1095,305 1065.2527,211.36107 1028.734,119.33488 1106.6398,0.05624388 M 996.58881,316.58215 798.13446,2.0549057e-4 M 988.51081,303.78536 944.78841,329.2901 m 34.3998,-40.89989 -43.23744,25.22184 m 33.50647,-40.37877 -43.08431,25.13251 m 33.44994,-40.3458 -43.35958,25.29309 m 33.96736,-40.64763 -30.22174,17.62935 m 20.50206,-32.79287 -22.52482,13.13948 M 1040,145 c -45,15 -83.58957,-37.43579 -115,-15 -35.00012,24.99983 5.62074,69.68963 25,60 20,-10 15,-40 -5,-40 -20,0 -10,15 -10,15 m 105,-20 c -35.2326,31.75948 -8.6313,91.18201 -43.63494,107.45231 -39.00402,18.12969 -57.86454,-39.24199 -39.88137,-51.32717 18.55919,-12.47226 42.19678,6.66577 32.33833,24.06726 -9.85844,17.40146 -17.98032,1.30689 -17.98032,1.30689 M 927.36298,206.53507 C 954.12808,198.30236 979.12831,182.21092 1005,170 m -50,25 c 22.59425,-17.66394 26.08007,-20.22888 30,-35 m -30,35 c 17.82252,-3.50586 40,-2.73029 50,5 m -41.75989,63.59543 C 990.16075,274.2978 1020,270 1045,255 c 10.1624,20.30608 32.0159,34.07048 50,50 M 973.91565,280.46103 C 994.78288,284.72347 1024.7035,283.82414 1040,280 c 8.9362,8.87536 24.5981,14.37237 40,20 M 821.03144,36.679301 C 833.48241,39.397449 843.90831,43.314112 875,35 c 7.85164,4.168923 17.68616,7.037284 35,5 -2.71386,8.217855 -7.13718,13.526488 -5,30 -11.75247,19.815616 -19.0289,39.2889 -25.98055,58.73733 m 18.70489,30.61352 C 902.36369,135.62079 899.74143,111.16316 930,90 931.61548,60.668738 936.91125,30.522559 943.84668,0.01331693 M 421.08044,454.25091 c 169.14032,93.56156 326.46568,63.02065 482.20961,15.86864 m -33.05736,-47.49372 c -134.97326,39.93921 -257.92573,61.77254 -392.67103,-1.22531 m 664.28184,256.99981 c 0,0 16.2001,-16.44391 18.1565,-18.40033 5,-5 27.7553,2.1466 39.3842,-13.48933 16.8462,-22.65095 34.8291,-5.69455 17.537,13.28408 -14.2871,15.68051 -36.9212,27.39737 -36.9212,27.39737 10.5216,34.89336 5.9503,67.2913 -10,97.80788 m 60,-140 c 40,-50 60.4702,-13.56217 25,20 -39.8629,37.71853 -63.642,28.30244 -25,-20 v 0 m 5.5241,35.0038 c 52.1811,-37.10984 61.8709,3.54544 18.555,26.09052 -48.6803,25.33706 -68.9644,9.75938 -18.555,-26.09052 v 0 m 0.2171,35.44005 c 54.2425,-29.75136 58.1949,11.838 14.2311,28.34987 -49.4084,18.55666 -66.6318,0.39139 -14.2311,-28.34987 v 0 m -0.4486,37.09076 c 55.0738,-12.59586 48.8229,25.65318 5.9684,29.05788 -48.1618,3.82627 -59.1723,-16.88964 -5.9684,-29.05788 v 0 m 4.8619,29.31632 C 1236.832,801.15856 1218.6766,824.64547 1205,830 c -18.5269,7.25347 -62.3179,13.87163 -86.9522,-6.55084 M 586.59556,977.68232 c 6.93102,1.79604 14.16001,3.93691 21.72999,6.44742 m -128.49821,-5.37406 c 5.08742,-1.64369 10.20248,-3.08348 15.39388,-4.29133 m 345.91216,-43.89602 c -31.00701,15.35093 -48.64245,22.53823 -66.10213,24.13089 -18.43533,1.68166 -44.48021,-1.33735 -95.48633,-23.41797 -56.2134,-24.33485 -104.64639,-36.50918 -149.625,-36.09375 -6.42551,0.0593 -12.77902,0.37675 -19.07617,0.95117 -17.57292,1.60299 -33.74548,5.02947 -48.86909,9.56858 m 34.63108,53.09646 c -6.12253,1.25438 -12.10187,2.80299 -17.99533,4.60054 m 136.68123,7.24981 c -11.60245,-3.91703 -22.52901,-7.03736 -32.90161,-9.42145 m 64.85193,21.5157 c -2.43795,-1.01347 -4.84784,-1.99646 -7.2305,-2.94941 m 105.95795,33.949 c -21.42451,-2.6444 -46.39131,-9.4416 -77.45704,-22.03561 m 151.94358,13.63391 c -13.17737,4.6655 -26.13542,7.8425 -39.97548,9.105 -2.44817,0.2233 -4.93354,0.3886 -7.46237,0.4919 M 524.4573,940.32392 c -3.20712,0.13076 -6.38077,0.34038 -9.52566,0.62725 -13.54724,1.23577 -26.21255,3.83475 -38.37884,7.40082 m 173.22777,19.21903 c -36.13853,-14.77335 -66.92763,-23.19001 -94.67663,-26.1672 m 184.85646,56.3333 c -16.3138,-2.72466 -35.18035,-8.01435 -57.93523,-16.80423 m 140.07574,7.77965 c -14.68669,5.731 -28.38425,9.46761 -42.98177,10.79918 M 520.04436,925.52763 c -2.17001,0.12805 -4.32833,0.29013 -6.476,0.48604 -14.27719,1.30236 -27.58866,3.99904 -40.26705,7.65265 m 352.20854,37.40673 c -17.40101,7.5008 -32.15396,12.07815 -47.75399,13.50117 -24.8237,2.2644 -56.47524,-2.53498 -110.12891,-25.76172 -40.94616,-17.72565 -76.09352,-28.15158 -107.97941,-31.97119 m 362.76255,206.62249 c -1.31568,-0.6092 -2.703,-1.112 -4.15423,-1.495 -48.7151,-13.5801 -83.01509,-73.7426 -70.82227,-143.43169 12.9179,-73.83331 71.29896,-121.30364 125.41211,-112.4668 2.72949,0.44573 5.39977,1.02079 8.01563,1.71875 1.84733,0.52403 3.70446,0.82603 5.5431,0.92205 M 955,1040 c -19.32997,0 -35,-17.9086 -35,-40 0,-22.09139 15.67004,-39.99999 35,-39.99999 6.60938,0 12.79087,2.09373 18.06437,5.73251 m -10.55984,49.11398 c -2.20733,1.4604 -4.77051,2.2964 -7.50453,2.2964 -8.28431,0 -15.00005,-7.6752 -15,-17.14297 3e-5,-9.46771 6.71575,-17.14279 15,-17.14279 5.25511,0 9.87904,3.08844 12.55792,7.76377 M 940.83932,963.36692 920,915 887.2981,910 890,950 l -35,15 15,40 -23.18198,30 33.18198,20 -10,40 h 40 l 5,35 m 5,-215 20,-35 35,20 -12.61978,60.65789 M 975,900 985.25547,889.74453 M 910,1095 939.33944,1035.4783 M 880,1055 926.21737,1022.6463 M 870,1005 l 50.10954,-2.7875 M 890,950 926.29267,976.48652 M 905,935 932.70571,969.18927 M 950,910 l 2.87052,49.48981 M 880,980 921.19777,990.37107 M 875,1030 921.85607,1013.3127 M 900,1070 932.52274,1030.5467 M 915,1130 l 11.12069,-4.4483 M 935,1090 946.82482,1039.0754 M 217.58969,729.12504 a 13.75,15 45 0 1 -20.32931,0.88388 13.75,15 45 0 1 0.88387,-20.32932 13.75,15 45 0 1 20.32932,-0.88388 13.75,15 45 0 1 -0.88388,20.32932 v 0 m 2.21679,16.29361 c 4.25225,3.00471 7.23595,8.20188 6.68988,19.49941 m 7.17525,-33.90474 c 3.39348,3.89696 8.95626,6.41454 20.55501,5.09409 m -73.30015,-29.19565 c -3.00471,-4.25226 -8.20188,-7.23594 -19.49941,-6.68987 m 33.90474,-7.17527 c -3.89696,-3.39347 -6.41455,-8.95626 -5.09408,-20.55499 m 9.96893,67.53464 c -6.35453,5.55159 -11.80322,13.41168 -14.7314,27.69501 m 1.76778,-40.65863 c -5.5516,6.35453 -13.4117,11.80322 -27.69502,14.73139 M 228.49092,711.742 c 5.5516,-6.35454 13.4117,-11.80322 27.69501,-14.73139 m -40.65864,1.76776 c 6.35455,-5.55159 11.80323,-13.41169 14.73139,-27.695 m -17.08841,81.90652 c 0.45476,28.00908 7.07107,7.07107 31.81981,45.96194 7.07107,-7.07106 17.67767,-24.74873 10.6066,-31.8198 7.07107,7.07107 24.74874,-3.53554 31.8198,-10.6066 -38.89087,-24.74874 -17.95286,-31.36505 -45.96194,-31.81981 m -67.17514,-10.6066 c -28.00907,-0.45476 -7.07107,-7.07107 -45.96193,-31.81981 7.07106,-7.07106 24.74873,-17.67766 31.81979,-10.6066 -7.07106,-7.07106 3.53554,-24.74874 10.60661,-31.8198 24.74873,38.89087 31.36505,17.95286 31.8198,45.96194 m 4.1248,60.69334 c -15.83478,41.09289 -14.14215,14.14213 -71.29994,84.26355 -6.48182,-6.48182 -12.37437,-26.51651 1.76776,-40.65864 -14.14213,14.14213 -34.17682,8.24958 -40.65864,1.76777 70.12142,-57.15779 43.17066,-55.46517 84.26356,-71.29994 m 54.21153,-2.35702 c 41.09289,-15.83477 14.14214,-14.14215 84.26356,-71.29994 -6.48182,-6.48181 -26.51651,-12.37436 -40.65864,1.76777 14.14213,-14.14213 8.24957,-34.17682 1.76776,-40.65864 -57.15778,70.12141 -55.46517,43.17066 -71.29993,84.26356 M -0.00965108,908.0902 a 13.75,15 45 0 1 18.48323308,0.70551 13.75,15 45 0 1 -0.883883,20.32932 13.75,15 45 0 1 -17.59665127,2.95817 M 19.8065,945.41859 c 4.252222,3.0048 7.235887,8.202 6.68988,19.4994 m 7.175225,-33.90467 c 3.39349,3.89695 8.956285,6.41457 20.555,5.09411 m -54.0199456,3.91886 c -0.07192,0.0628 -0.14372387,0.12596 -0.21540942,0.18939 M 28.490931,911.74199 c 5.55158,-6.35453 13.411687,-11.80322 27.694996,-14.73138 m -40.658625,1.76775 c 6.354528,-5.55158 11.803224,-13.41168 14.731381,-27.69499 m -17.088402,81.90652 c 0.454719,28.0091 7.071068,7.0711 31.819813,45.9619 7.07106,-7.071 17.677669,-24.7487 10.606594,-31.8198 7.071075,7.0711 24.748738,-3.5355 31.819798,-10.6066 C 48.52562,931.77668 69.463625,925.16037 41.454553,924.70561 M 0,870.62562 c 1.6873505,2.5151 2.4224871,6.49298 2.5636796,15.18912 m 4.1247944,60.69335 c -2.5351192,6.57888 -4.6209859,11.41372 -6.57101846,15.18206 M 34.972745,918.22381 c 41.092888,-15.83477 14.142129,-14.14215 84.263555,-71.29994 -6.48182,-6.48181 -26.51652,-12.37436 -40.658648,1.76777 14.142128,-14.14213 8.249581,-34.17682 1.767774,-40.65865 -57.157796,70.12143 -55.465174,43.17067 -71.299932,84.26356 m 13.037119,-24.70863 c 0.644139,-3.51959 1.579047,-7.27656 2.836686,-11.26339 6.776141,-21.48092 22.539707,-47.22491 45.552172,-70.23739 23.012458,-23.01245 48.756449,-38.776 70.237359,-45.55215 3.78182,-1.19296 7.3568,-2.09554 10.71853,-2.73501 m 38.0286,38.11197 c -0.63865,3.34135 -1.53696,6.89295 -2.72165,10.64852 -6.77615,21.48091 -22.5397,47.22489 -45.55216,70.23735 -23.01247,23.01247 -48.756456,38.77604 -70.237377,45.55218 -3.455906,1.09017 -6.739102,1.93782 -9.844687,2.56381 m 1.711149,29.7621 c 5.963109,-0.90155 11.997636,-2.3444 17.991894,-4.23529 27.120211,-8.55506 55.825951,-26.66332 81.592221,-52.42959 25.76626,-25.76626 43.87452,-54.472 52.42959,-81.59221 2.56524,-8.13203 4.30589,-16.33817 4.98909,-24.33954 m -64.33285,-64.64841 c -8.09338,0.66548 -16.4,2.41712 -24.6307,5.01349 -27.12021,8.55507 -55.825955,26.66332 -81.592212,52.42958 -22.968935,22.96893 -39.8523899,48.27374 -49.30785724,72.70897 M 263.38749,736.26207 c 5.118,-0.90346 10.2765,-2.19337 15.40552,-3.81132 14.98052,-4.72561 30.44482,-12.36606 45.63025,-22.60196 M 245.45053,568.69908 c -24.81157,25.29489 -42.27726,53.29212 -50.63198,79.77721 -1.66482,5.27762 -2.98233,10.58643 -3.88887,15.85024 M 220,670 c 0.64573,-3.6351 1.60353,-7.52636 2.90918,-11.66535 6.77614,-21.48092 22.53969,-47.2249 45.55217,-70.23738 0.64983,-0.64983 1.30184,-1.29388 1.95586,-1.93211 m 88.89223,49.50457 c -5.90169,7.84149 -12.63424,15.63504 -20.13741,23.13821 -23.01248,23.01248 -48.75646,38.77604 -70.23738,45.55218 -3.50661,1.10616 -6.8354,1.96264 -9.98126,2.59122 M 0.09745825,1030.8391 c 7.32997495,-12.193 12.96340575,-24.466 16.73755275,-36.43031 2.129258,-6.7499 3.690411,-13.5509 4.550246,-20.2434 m 31.503578,92.28751 27.170113,20.9001 m -77.9247283,-59.9421 29.0038533,22.3107 m 7.411978,27.24 28.803026,22.1562 M -5.4222262e-4,1047.3073 24.265974,1065.9738 M -2.2562456e-4,1068.846 54.646916,1110.8822 M -8.6287061e-4,1090.384 41.941045,1122.647 M 3.6951622e-4,1111.9233 29.234883,1134.4114 M -2.9326029e-4,1133.4613 15,1145 M 16.484917,995.37298 105.471,1063.8238 M 9.9716305,1011.9013 92.763889,1075.5876 M 74.432797,932.25601 169.00001,1005 m -85.754132,-44.42624 73.048242,56.19094 m -90.018273,-47.70635 77.312103,59.47085 m -87.498886,-45.76841 74.793966,57.53381 m -83.750576,-42.88502 71.043466,54.64882 m -97.134129,-74.71856 19.760218,15.20017 m 137.231361,-131.3605 49.28101,37.90847 m -90.95431,-69.96485 17.62444,13.55726 M 75.319541,782.16887 131.67845,825.52188 M -7.5124534e-5,724.23071 50.741008,763.26231 m 115.900982,110.69307 55.7336,42.872 M 62.860269,794.12329 142.5675,855.43654 M 2.4050016e-4,745.76944 38.78578,775.60445 m 115.39694,110.30534 63.57885,48.9068 m -105.95268,-81.50206 18.10285,13.92527 m -43.356292,-33.35099 8.380792,6.44677 m -42.963307,-33.0487 17.65861,13.58354 M -4.8733763e-4,767.3073 28.069306,788.89947 M 140.89692,897.2284 213.46868,953.05283 M 98.452593,864.57892 116.02577,878.09675 M 42.008254,821.1602 58.376856,833.75143 M -2.9633138e-4,788.84593 18.155887,802.81222 m 161.273443,145.59496 27.68858,21.29891 m -80.45938,-61.89183 c 10.47101,8.05462 20.94202,16.10924 31.41302,24.16386 M 85.967693,876.51361 c 5.117324,3.93641 10.234648,7.87281 15.351967,11.80921 m -67.789586,-52.14584 12.780495,9.83115 M 1.5424456e-5,810.38463 9.1736625,817.44128 m 156.3099075,141.77684 28.92724,22.25173 m -83.15037,-63.96182 37.34194,28.72457 m -74.504477,-57.31114 10.875381,8.36568 M 26.256477,852.12036 c 2.392071,1.84006 4.784143,3.68011 7.176214,5.52017 m 60.157188,67.8132 88.116271,67.78176 m -118.692066,-91.3016 2.998632,2.30664 m 151.891334,-120.08357 40.25944,30.9688 M 60.735892,663.25837 126.6209,713.93915 m 86.66645,88.20497 37.8553,29.11946 m -67.05566,-51.58127 3.89566,2.99666 m -52.57431,-40.44177 7.90238,6.07875 m -98.550808,-75.80831 63.771798,49.05523 m 97.65291,96.65607 38.4032,29.54092 m -73.57519,-56.5963 10.76432,8.28024 m -63.62055,-48.93888 13.36997,10.28459 M 28.782985,681.75614 92.262224,730.58632 m 105.444216,102.6494 40.69749,31.30576 m -79.39779,-61.07522 14.51475,11.16519 m -71.35207,-54.8862 16.81422,12.93402 M 12.808231,691.00635 77.086239,740.45096 m 111.441481,107.26267 44.06545,33.8965 m -84.89298,-65.30229 16.66761,12.82124 m -40.71647,-31.32036 6.19376,4.76443 m -41.818535,-32.1681 17.914905,13.7807 M 4.9861673e-4,702.69269 63.507823,751.54449 m 212.901147,13.00087 5.75958,4.43045 M 108.66356,635.51044 153.20021,669.7694 m 105.26481,102.51139 15.28866,11.76051 M 92.687573,644.75969 134.61552,677.01196 m 117.85737,112.19795 13.27869,10.21438 M 76.711591,654.00893 147.3499,708.34608 m 133.12215,-26.82911 14.68561,11.29662 m -65.74779,-50.57522 11.40505,8.77312 m -68.24678,-52.49753 32.54512,25.03471 m 99.44696,98.0361 6.37722,4.90556 m -41.66027,-32.04636 8.60291,6.61762 m -55.23976,-42.49212 4.87812,3.7524 m -70.92628,-54.55867 41.46962,31.89971 m 89.39171,90.30132 13.42955,10.33042 M 140.61523,617.01171 192.47118,656.9009 m 74.33874,78.72212 24.46923,18.82248 m -166.63867,-128.1836 36.20069,27.84668 m 125.78361,-32.47412 50.61793,38.93687 m -79.31424,-61.01096 17.90636,13.77412 m -55.33902,-42.56847 13.46923,10.36094 m 71.84416,76.8032 18.75213,14.42471 m -77.40914,-59.54548 17.68424,13.60326 m -60.3166,-46.39739 18.95086,14.57758 m 69.32394,74.86457 c 5.83779,4.49061 11.67559,8.98122 17.51338,13.47183 M 237.5207,626.939 c 5.22269,4.01745 10.44538,8.0349 15.66806,12.05236 m -64.64587,-49.7276 25.18524,19.37326 m 56.07013,-21.4845 79.33988,61.03067 m -112.66758,-86.66737 8.92003,6.86156 m 388.14494,-53.82423 v 84.33594 c 0,30 40,40 40,0 v -84.25 m -34.65891,0.19326 c 19.60182,54.51348 14.65891,94.05674 14.65891,94.05674 m 16.9577,-94.1374 c -16.9577,35.90857 -16.9577,94.1374 -16.9577,94.1374 m 22.13072,-94.35592 7.10273,83.53219 c 2.54172,29.89214 43.24514,36.46722 39.85618,-3.38895 l -7.06217,-83.05531 m -34.38925,2.68417 c 23.93653,52.43496 22.37057,92.02966 22.37057,92.02966 m 8.60757,-94.38125 c -13.46605,37.24268 -8.60757,94.38125 -8.60757,94.38125 m 17.10147,-95.22178 6.25682,82.71295 c 2.26289,29.91454 42.90323,36.86887 39.88605,-3.01717 l -6.45564,-85.34137 m -33.99683,5.14519 c 23.18518,52.37725 21.26374,91.67628 21.26374,91.67628 m 10.3176,-96.44832 c -14.81371,37.01121 -10.3176,96.44832 -10.3176,96.44832 m 13.78999,-96.10594 13.26933,83.95788 c 4.68329,29.63219 45.75398,33.26519 39.50959,-6.2444 l -13.65693,-86.4103 m -34.18329,7.91627 c 28.34083,51.20349 29.64652,91.49363 29.64652,91.49363 m 3.17369,-99.18822 c -12.84818,37.97565 -3.17369,99.18822 -3.17369,99.18822 m 6.01749,-97.7741 18.16509,83.03631 c 6.4112,29.30694 47.62419,30.52764 39.07591,-8.54827 L 840.48239,487.8944 m -33.60528,10.15913 c 31.29184,49.45525 34.95562,89.59969 34.95562,89.59969 m -2.55168,-99.53256 c -10.76755,38.64765 2.55168,99.53256 2.55168,99.53256 M 845,488.42986 l 25.44858,81.10098 c 8.98186,28.62388 50.14098,26.18937 38.16517,-11.9758 l -25.5629,-81.4653 m -33.2802,10.84314 c 35.54931,46.48921 42.75447,86.15135 42.75447,86.15135 m -11.7869,-96.38416 c -6.09126,39.40902 11.7869,96.38416 11.7869,96.38416 m 0.59647,-99.84541 C 927.34709,517.47234 935,555 935,555 m -48.12411,-80.03869 25.97639,76.95996 c 9.59415,28.4245 50.69154,25.10713 37.89933,-12.79221 L 944.0301,519.21531 M 921.38423,493.34009 C 924.85538,524.94465 935,555 935,555 m -345.51577,-44.21785 -7.95211,82.32496 c -2.8844,29.86101 35.96882,43.66055 39.81468,3.84586 l 7.98572,-82.67291 m -33.99002,-2.68378 c 13.68761,55.25976 5.1355,93.38742 5.1355,93.38742 m 25.26845,-90.94341 C 605.95473,548.28522 600.478,604.9837 600.478,604.9837 m -55.91115,-102.48149 -8.10504,83.19519 c -2.90889,29.85864 35.933,43.69004 39.81152,3.87852 l 7.75397,-79.59158 m -33.77824,-6.14992 c 13.76992,55.46728 5.14888,93.75512 5.14888,93.75512 m 23.90309,-88.35131 c -18.64883,34.41829 -23.90309,88.35131 -23.90309,88.35131 m -51.94946,-106.8824 -21.02722,80.12864 c -7.61471,29.01751 28.53706,48.84298 38.69002,10.15296 l 20.77353,-79.162 m -32.81297,-9.20159 c 4.67718,56.70761 -9.84381,92.95961 -9.84381,92.95961 m 38.69696,-84.79165 c -24.53379,30.81984 -38.69696,84.79165 -38.69696,84.79165 M 468.591,477.48093 438.31123,551.83706 c -11.31459,27.78452 21.95992,52.13216 37.04604,15.08612 l 30.69157,-75.36733 m -31.2912,-11.42141 c -3.12865,55.39876 -21.69492,88.50718 -21.69492,88.50718 m 48.80543,-78.50614 c -28.03946,27.51248 -48.80543,78.50614 -48.80543,78.50614 m -19.93737,-107.92598 -40.0219,74.98832 c -14.12537,26.46646 16.4548,54.12245 35.28863,18.83383 l 40.96167,-76.74916 m -31.81733,-14.71876 c -8.2522,57.93877 -31.49711,90.87315 -31.49711,90.87315 m 61.80988,-76.87713 c -32.93074,22.76679 -61.80988,76.87713 -61.80988,76.87713 m -51.03695,-61.04973 -8.57291,10.17942 c -19.32507,22.94649 4.82857,56.36208 30.59533,25.76676 l 57.01447,-67.69868 m -42.49149,10.89292 c -17.7162,34.41437 -36.26232,51.5712 -36.26232,51.5712 m 77.98835,-62.94793 c -37.37906,14.72867 -77.98835,62.94793 -77.98835,62.94793 m -69.45892,8.7264 C 357.76546,315.36014 427.81129,148.12599 494.89021,58.840442 M 322.97505,510.91708 C 381.61409,336.46517 438.96711,195.80008 494.44949,104.28184 M 384.89743,475.8662 c 38.25761,-111.11427 75.9475,-207.31304 112.90584,-284.29175 m -75.03101,261.6093 c 27.39717,-78.25083 54.4962,-148.66867 81.23655,-209.66286 m -209.59859,263.6507 25.68931,5.92829 m -20.58175,-20.90346 40.53127,9.35335 m -35.4223,-24.32821 55.37324,12.77843 m -50.26568,-27.7536 70.21478,16.2034 m -65.09938,-31.17678 85.05074,19.62709 m -79.6348,-34.53111 99.58389,22.9809 m -94.16608,-37.88448 101.51585,23.42674 m -96.09989,-38.33074 101.47476,23.41725 M 336.51579,387.65749 437.9472,411.06474 M 355,375 443.57819,395.44112 M 375,365 448.45693,381.9516 M 405,355 454.42401,366.40555 M 495,0 v 160 c 0,15 15,135 20,155 5,20 55,140 110,140 55,0 105,-55 105,-55 m 88.68813,-44.60036 c -18.70244,34.49992 -48.63822,66.04618 -74.20644,97.59545 m 14.55,-53.80661 c -15.63326,19.88187 -32.92052,39.14131 -48.28444,58.45629 m 78.83229,-79.43633 c -18.43571,26.75956 -41.85813,52.04221 -62.18857,77.37903 m -22.21543,-27.41704 c -9.07594,10.75807 -18.11924,21.42764 -26.523,32.12373 m 10.98443,-27.10258 c 43.90875,-10.77137 110.28052,-61.0549 137.78778,-85.22159 m 5.27859,9.22499 c -18.10187,32.62108 -46.06263,62.63198 -70.57659,92.55442 m 77.60165,-79.26564 c -16.89613,26.26181 -39.21879,50.99411 -59.5803,75.59704 m 66.20119,-63.26766 c -14.48896,20.29883 -31.61226,39.78858 -47.77761,59.15004 m 54.35022,-47.78255 c -11.22745,14.63986 -23.50259,28.91546 -35.42042,43.09307 m 41.80396,-32.15078 c -7.28052,9.03424 -14.83203,17.95256 -22.31288,26.81971 M 729.82967,416.6708 c -11.94059,14.33972 -24.20147,28.4529 -35.37594,42.60614 m -36.65309,-10.34909 c -3.27851,3.992 -6.49784,7.98201 -9.62642,11.97602 m 33.94391,-23.17402 c -6.46203,7.69125 -12.81445,15.3545 -18.83283,23.03227 m -53.1443,-8.5794 c -1.59275,1.95969 -3.16916,3.91928 -4.72551,5.87951 m 17.55275,-3.19315 c -1.21917,1.51504 -2.42757,3.03022 -3.62345,4.54588 m 19.53938,-5.68159 c -1.77645,2.19796 -3.53111,4.39605 -5.25871,6.59526 M 581.7172,432.26904 c -5.38247,6.38054 -10.72616,12.73499 -15.90375,19.08748 m 24.38823,-11.34235 c -3.9391,4.70268 -7.82885,9.39645 -11.61784,14.09105 m 21.03252,-7.38139 c -2.61027,3.15912 -5.18713,6.31629 -7.71495,9.47451 M 559.4262,404.97303 c -9.95799,12.36351 -20.42689,24.50931 -30.53143,36.60331 m 37.58781,-26.89468 c -8.48024,10.22731 -17.15589,20.33349 -25.51887,30.41481 m 32.89527,-21.29697 c -6.97613,8.29118 -13.9815,16.52086 -20.74028,24.7413 m -32.69704,-51.1274 c -8.27427,10.61176 -17.04813,21.04115 -25.78073,31.39067 m 51.27957,-45.3915 c -12.25087,17.08909 -26.34664,33.6086 -40.13884,49.96571 m 46.86851,-38.84367 c -11.21622,14.59751 -23.46362,28.83471 -35.34773,42.97589 m 434.53293,-96.44367 c 0.34096,0.003 0.68155,0.005 1.02175,0.005 M 819.09649,329.8511 c 20.8936,12.03069 50.76833,29.65148 82.54355,42.2414 m -93.53596,-66.84733 c 19.39203,11.12475 47.3371,27.79868 77.54912,40.59262 m -87.1814,-64.41485 c 17.87385,10.22982 43.35865,25.48396 71.2829,38.00519 m -80.07522,-61.34582 c 16.21671,9.27629 38.76054,22.74424 63.72809,34.54877 M 781.6294,235.16636 c 14.45142,8.27693 33.81252,19.77925 55.38856,30.46483 m -62.73782,-52.97817 c 12.51922,7.18826 28.53366,16.62681 46.38676,25.83079 m -53.05661,-47.95153 c 10.19434,5.86961 22.53171,13.07445 36.18769,20.37791 M 761.09171,168.501 c 7.69789,4.43963 16.52374,9.55619 26.15033,14.85885 m 44.06141,171.80182 c 22.31331,12.87513 53.54313,30.93436 86.1883,42.92596 m -72.23384,-16.6082 c 23.50907,13.52927 55.24385,31.31011 87.84512,42.3037 m -71.41989,-14.59484 c 24.23485,13.7717 55.35058,30.3804 86.79514,39.99805 m -68.7541,-11.46572 c 24.44448,13.54389 54.2983,28.51644 84.03005,36.62054 m -62.5585,-6.42024 c 23.594,12.45491 50.83412,24.92535 77.64486,31.29809 m -51.84719,0.64015 c 21.15869,10.22532 44.22837,19.43726 66.7635,23.96752 m -37.61397,8.53114 c 17.16795,7.15255 35.02079,12.99596 52.41567,15.81593 m -22.30513,14.48238 c 12.58168,4.83013 25.42253,8.82246 38.08783,11.32495 M 1226.7677,430.4038 C 1236.7061,426.6519 1255,405 1275,405 c -20,0 -38.2939,-21.6519 -48.2323,-25.4038 C 1215.8632,375.4796 1200,380 1185,390 c 10,-15 14.5204,-30.86328 10.4038,-41.76777 C 1191.6519,338.2939 1170,320 1170,300 c 0,20 -21.6519,38.2939 -25.4038,48.23223 C 1140.4796,359.13672 1145,375 1155,390 1140,380 1124.1368,375.4796 1113.2323,379.5962 1103.2939,383.3481 1085,405 1065,405 c 20,0 38.2939,21.6519 48.2323,25.4038 C 1124.1368,434.5204 1140,430 1155,420 c -10,15 -14.5204,30.86328 -10.4038,41.76777 C 1148.3481,471.7061 1170,490 1170,510 c 0,-20 21.6519,-38.2939 25.4038,-48.23223 C 1199.5204,450.86328 1195,435 1185,420 c 15,10 30.8632,14.5204 41.7677,10.4038 v 0 m -124.4733,-45.294 c -20.4756,-25.94348 19.6216,-68.22313 47.576,-46.85197 m 90.0698,49.89416 c 27.6137,-26.57534 -19.4668,-76.1485 -48.4601,-46.65991 m -88.1842,82.19762 c -22.9405,26.05054 18.9495,70.57393 47.3617,47.4311 m 89.1494,-49.40024 c 27.9147,26.56009 -19.3449,76.38398 -48.3801,46.73314 M 1155,390 1120,355 m 65,35 35,-35 m -65,65 -35,35 m 65,-35 35,35 m -59.6223,31.42052 c 3.8088,80.77311 35.1376,104.71144 35.0547,161.94598 m -19.8269,-157.70977 c 4.3238,71.49985 30.4518,97.50883 34.3427,145.38456 M 1195,645 c -10.1872,-37.43261 -63.0235,-86.31451 -115,-60 46.0391,-3.5732 39.6973,80.55961 115,60 v 0 m 0.4326,3.13982 C 1177.9271,620.66283 1156.5148,610.1093 1135,600 m 75,30 c -9.6941,-63.40796 2.6966,-107.0578 55,-115 -35.6108,31.84211 6.9504,101.1648 -55,115 v 0 m 0,0 c 4.9203,-31.94665 12.7832,-59.34103 25,-80 M 622.94327,0.04565899 C 641.19762,56.951358 678.422,84.549843 730.45252,89.273975 M 640.65863,0 c 16.18977,35.089124 41.58049,55.9635 74.70578,64.888556 M 663.88096,0.35915873 C 673.24957,15.491809 684.79555,27.260595 698.3436,35.936324 M 495.30432,102.08255 C 564.83808,63.139913 569.95875,31.777277 578.60239,6.5266414e-5 M 495.0485,78.346058 C 541.17425,49.330111 552.45353,24.414826 559.52081,-0.00479966 M 494.85919,48.322237 C 518.36785,31.111235 530.15353,15.27977 537.25102,0 M 605,330 c 0,0 -5,-20 -15,-20 -10,0 -20.05025,-3.93934 -20.05025,-18.93934 0,-10 23.76024,-81.56698 15.05025,-141.06066 -27.23969,-19.33581 -56.03661,-29.64381 -90,-10 1.71052,-0.37051 3.46873,0.15895 5.12877,-0.37589 C 530,130 558.25901,130.43652 585,150 m 35,0 c 35.93792,-42.8397 75.41308,-22.41924 115,0 -37.61142,-16.4876 -75,-35 -109.47384,0.18444 C 624.37724,151.35705 621.25075,148.82377 620,150 v 0 m 10,120 c 30.36676,-1.00978 25,35 10,35 -6.5502,0 -13.36325,-8.16819 -18.66415,-8.61698 C 605,295 605,305 625,300 m -50,50 v 10 l 5,-5 -5,-5 v 0 m 95,-5 v 10 l -5,-5 5,-5 m -90,10 c 11.94693,6.2699 14.48458,-4.75282 20,-5 5,0 10.65685,4.6967 15.65685,4.6967 5,0 12.82843,-6.16116 17.82843,-6.16116 C 651.30037,359.48712 652.81888,350.43393 665,350 m -70,25 c 13.06107,15.59169 28.64499,10.89619 45,0 -13.50934,8.03148 -29.04097,5.16713 -45,0 v 0 M 500,185 c 3.60493,-9.01233 14.37536,-17.16598 25.37113,-17.0953 C 544.87736,168.03008 560,190 575,190 m -77.19673,1.57445 C 501.09798,201.20636 512.48451,204.66444 525,205 c 21.48756,1.0473 35,-10 50,-15 m 55,0 c 21.96964,-0.78554 30.60857,-17.60143 45,-20 30,-5 50,20 65,20 m -90,-5 c -5,15 16.98324,24.90799 30,25 19.15313,0.13539 45,-20 60,-20 M 283.37737,534.5969 c 211.008,146.18047 473.964,157.35655 717.79923,40.63511 M 180,945 a 15,15 0 0 1 -15,15 15,15 0 0 1 -15,-15 15,15 0 0 1 15,-15 15,15 0 0 1 15,15 v 0 m 0,0 a 15,15 0 0 1 -15,15 15,15 0 0 1 -15,-15 15,15 0 0 1 15,-15 15,15 0 0 1 15,15 v 0 M 53.427887,1062.3798 a 15,15 0 0 1 -15,15 15,15 0 0 1 -15,-15 15,15 0 0 1 15,-15 15,15 0 0 1 15,15 v 0 M 1096.021,1002.7583 1300.0001,813.88882 M 540,1005 c -36.78985,22.2324 -13.09636,-13.8056 -10,-30 -16.19445,3.09636 -52.23247,26.7898 -30,-10 -1.38148,-2.28605 -2.53798,-4.33857 -3.48822,-6.17701 C 482.16958,931.07511 514.81184,952.09604 530,955 c -3.09636,-16.19445 -26.78985,-52.23247 10,-30 36.78985,-22.23247 13.09636,13.80555 10,30 15.56552,-2.97611 49.46325,-24.98059 32.33118,5.9826 -0.69222,1.25108 -1.46776,2.58863 -2.33118,4.0174 22.23247,36.7899 -13.80555,13.09636 -30,10 3.09636,16.1944 26.78985,52.2324 -10,30 v 0 m 89.99999,29.641 c -42.97714,0.8589 -4.43898,-18.5042 6.33975,-30.9807 -15.57301,-5.4157 -58.62955,-2.9156 -20.98076,-23.66029 -0.85894,-42.97723 18.50413,-4.43901 30.98076,6.33974 5.4157,-15.57298 2.91554,-58.62957 23.66025,-20.98076 42.97718,-0.85896 4.43901,18.50414 -6.33974,30.98076 15.57298,5.41565 58.62957,2.91555 20.98076,23.66025 0.85893,42.9772 -18.50416,4.439 -30.98076,-6.3397 -5.41568,15.5729 -2.91551,58.6295 -23.66026,20.9807 v 0 M 1170,387.5 c 9.3096,0 17.5,8.19036 17.5,17.5 0,9.30964 -8.1904,17.5 -17.5,17.5 -9.3096,0 -17.5,-8.19036 -17.5,-17.5 0,-9.30964 8.1904,-17.5 17.5,-17.5 v 0"
       id="path939" />
  </g>
  <g
     id="use779"
     transform="matrix(0.12676923,0,0,0.13039999,-119.6098,-167.60817)">
    <path
       stroke="#4444ff"
       stroke-linecap="round"
       stroke-linejoin="round"
       stroke-width="3"
       fill="none"
       d="m 1197.8654,650 c 10.0574,2.91461 25.5081,-8.83844 25.5081,-8.83844 M 1217.1593,665 C 1230,670 1230,685 1230,685 m -11.1779,8.40806 c 10.346,9.10185 5.1999,23.19148 5.1999,23.19148 M 1220,730 c 9.3763,10.09794 2.8368,23.59737 2.8368,23.59737 m -7.4345,5.01136 c 9.2828,10.18402 2.619,23.62255 2.619,23.62255 M 1240,645 c 5.0425,2.35668 8.7799,5.45909 10,10 m -7.0625,30.7889 c 4.2582,3.58444 7.0625,7.55041 7.0625,12.25237 m -7.1141,23.87565 c 3.69,4.16703 5.8861,8.49951 5.2005,13.15122 m -6.9082,24.30411 c 1.8977,5.23256 2.3453,10.06917 0,14.14213 M 595,405 c 12.68307,-6.06073 25.88877,-7.25029 40,0 M 495,165 c 20,-20 45,-20 60,-5 m -35,70 c 20,5 40,-15 40,-15 m 90,-50 c 30,-15 60,0 75,15 v 0 m -55,50 c 35,0 55,-20 55,-20 M 541.52659,172.33481 c 1.53321,3.50623 2.41275,7.59372 2.41275,11.95808 0,13.02607 -7.83502,23.58578 -17.5,23.58578 -9.66498,0 -17.5,-10.55971 -17.5,-23.58578 0,-4.90159 1.10939,-9.45395 3.00823,-13.22587 m 180.91291,0.0755 c 3.01903,4.23816 4.87459,9.99321 4.87459,16.33237 0,13.02607 -7.83502,23.58578 -17.5,23.58578 -9.66498,0 -17.5,-10.55971 -17.5,-23.58578 0,-5.63733 1.46744,-10.81272 3.91557,-14.87019"
       id="path943" />
    <g
       id="g947"
       transform="matrix(0.05412659,0.030375,-0.03125,0.05261104,967.18301,1188.6639)">
      <path
         d="m 0,-300 c 0,-100 100,-200 200,-200 100,0 200,100 200,250 C 400,0 0,400 0,500 0,400 -400,0 -400,-250 c 0,-150 100,-250 200,-250 100,0 200,100 200,200 z"
         fill="#ff0000"
         id="path945" />
    </g>
    <g
       id="g951"
       transform="matrix(0.06037036,0.01572326,-0.01617619,0.05867999,1013.3536,1067.5953)">
      <path
         d="m 0,-300 c 0,-100 100,-200 200,-200 100,0 200,100 200,250 C 400,0 0,400 0,500 0,400 -400,0 -400,-250 c 0,-150 100,-250 200,-250 100,0 200,100 200,200 z"
         fill="#ff0000"
         id="path949" />
    </g>
    <g
       id="g955"
       transform="matrix(0.06241435,0.00317941,-0.003271,0.06066674,1041.4731,942.51077)">
      <path
         d="m 0,-300 c 0,-100 100,-200 200,-200 100,0 200,100 200,250 C 400,0 0,400 0,500 0,400 -400,0 -400,-250 c 0,-150 100,-250 200,-250 100,0 200,100 200,200 z"
         fill="#ff0000"
         id="path953" />
    </g>
    <g
       id="g959"
       transform="matrix(0.06226217,0.00529471,-0.00544723,0.06051883,1054.4546,816.5265)">
      <path
         d="m 0,-300 c 0,-100 100,-200 200,-200 100,0 200,100 200,250 C 400,0 0,400 0,500 0,400 -400,0 -400,-250 c 0,-150 100,-250 200,-250 100,0 200,100 200,200 z"
         fill="#ff0000"
         id="path957" />
    </g>
    <g
       id="g963"
       transform="matrix(0.06155048,0.01054913,-0.01085301,0.05982707,1068.4056,699.56301)">
      <path
         d="m 0,-300 c 0,-100 100,-200 200,-200 100,0 200,100 200,250 C 400,0 0,400 0,500 0,400 -400,0 -400,-250 c 0,-150 100,-250 200,-250 100,0 200,100 200,200 z"
         fill="#ff0000"
         id="path961" />
    </g>
  </g>
  <g
     id="use781"
     transform="matrix(-0.12676923,0,0,-0.13039999,45.190201,93.191814)">
    <path
       stroke="#4444ff"
       stroke-linecap="round"
       stroke-linejoin="round"
       stroke-width="3"
       fill="none"
       d="m 1197.8654,650 c 10.0574,2.91461 25.5081,-8.83844 25.5081,-8.83844 M 1217.1593,665 C 1230,670 1230,685 1230,685 m -11.1779,8.40806 c 10.346,9.10185 5.1999,23.19148 5.1999,23.19148 M 1220,730 c 9.3763,10.09794 2.8368,23.59737 2.8368,23.59737 m -7.4345,5.01136 c 9.2828,10.18402 2.619,23.62255 2.619,23.62255 M 1240,645 c 5.0425,2.35668 8.7799,5.45909 10,10 m -7.0625,30.7889 c 4.2582,3.58444 7.0625,7.55041 7.0625,12.25237 m -7.1141,23.87565 c 3.69,4.16703 5.8861,8.49951 5.2005,13.15122 m -6.9082,24.30411 c 1.8977,5.23256 2.3453,10.06917 0,14.14213 M 595,405 c 12.68307,-6.06073 25.88877,-7.25029 40,0 M 495,165 c 20,-20 45,-20 60,-5 m -35,70 c 20,5 40,-15 40,-15 m 90,-50 c 30,-15 60,0 75,15 v 0 m -55,50 c 35,0 55,-20 55,-20 M 541.52659,172.33481 c 1.53321,3.50623 2.41275,7.59372 2.41275,11.95808 0,13.02607 -7.83502,23.58578 -17.5,23.58578 -9.66498,0 -17.5,-10.55971 -17.5,-23.58578 0,-4.90159 1.10939,-9.45395 3.00823,-13.22587 m 180.91291,0.0755 c 3.01903,4.23816 4.87459,9.99321 4.87459,16.33237 0,13.02607 -7.83502,23.58578 -17.5,23.58578 -9.66498,0 -17.5,-10.55971 -17.5,-23.58578 0,-5.63733 1.46744,-10.81272 3.91557,-14.87019"
       id="path967" />
    <g
       id="g971"
       transform="matrix(0.05412659,0.030375,-0.03125,0.05261104,967.18301,1188.6639)">
      <path
         d="m 0,-300 c 0,-100 100,-200 200,-200 100,0 200,100 200,250 C 400,0 0,400 0,500 0,400 -400,0 -400,-250 c 0,-150 100,-250 200,-250 100,0 200,100 200,200 z"
         fill="#ff0000"
         id="path969" />
    </g>
    <g
       id="g975"
       transform="matrix(0.06037036,0.01572326,-0.01617619,0.05867999,1013.3536,1067.5953)">
      <path
         d="m 0,-300 c 0,-100 100,-200 200,-200 100,0 200,100 200,250 C 400,0 0,400 0,500 0,400 -400,0 -400,-250 c 0,-150 100,-250 200,-250 100,0 200,100 200,200 z"
         fill="#ff0000"
         id="path973" />
    </g>
    <g
       id="g979"
       transform="matrix(0.06241435,0.00317941,-0.003271,0.06066674,1041.4731,942.51077)">
      <path
         d="m 0,-300 c 0,-100 100,-200 200,-200 100,0 200,100 200,250 C 400,0 0,400 0,500 0,400 -400,0 -400,-250 c 0,-150 100,-250 200,-250 100,0 200,100 200,200 z"
         fill="#ff0000"
         id="path977" />
    </g>
    <g
       id="g983"
       transform="matrix(0.06226217,0.00529471,-0.00544723,0.06051883,1054.4546,816.5265)">
      <path
         d="m 0,-300 c 0,-100 100,-200 200,-200 100,0 200,100 200,250 C 400,0 0,400 0,500 0,400 -400,0 -400,-250 c 0,-150 100,-250 200,-250 100,0 200,100 200,200 z"
         fill="#ff0000"
         id="path981" />
    </g>
    <g
       id="g987"
       transform="matrix(0.06155048,0.01054913,-0.01085301,0.05982707,1068.4056,699.56301)">
      <path
         d="m 0,-300 c 0,-100 100,-200 200,-200 100,0 200,100 200,250 C 400,0 0,400 0,500 0,400 -400,0 -400,-250 c 0,-150 100,-250 200,-250 100,0 200,100 200,200 z"
         fill="#ff0000"
         id="path985" />
    </g>
  </g>
</svg>
