<?xml version="1.0" encoding="UTF-8" standalone="no"?>
<svg
   width="2.5in"
   height="3.5000002in"
   viewBox="-120 -168 240 336.00003"
   preserveAspectRatio="none"
   class="card"
   face="QD"
   version="1.1"
   id="svg4975"
   sodipodi:docname="QD.svg"
   xmlns:inkscape="http://www.inkscape.org/namespaces/inkscape"
   xmlns:sodipodi="http://sodipodi.sourceforge.net/DTD/sodipodi-0.dtd"
   xmlns="http://www.w3.org/2000/svg"
   xmlns:svg="http://www.w3.org/2000/svg">
  <sodipodi:namedview
     id="namedview4977"
     pagecolor="#ffffff"
     bordercolor="#000000"
     borderopacity="0.25"
     inkscape:showpageshadow="2"
     inkscape:pageopacity="0.0"
     inkscape:pagecheckerboard="0"
     inkscape:deskcolor="#d1d1d1"
     inkscape:document-units="in"
     showgrid="false" />
  <defs
     id="defs4901" />
  <g
     id="use4935"
     transform="matrix(0.12676923,0,0,0.13039999,-119.61963,-166.84669)">
    <path
       fill="#ffcc44"
       d="m 216.55469,0 c 22.67165,33.814818 49.20422,66.355164 53.93945,105.50781 l -25.36328,36.03516 -3.98633,-4.10156 c 6.32081,-11.19826 5.98002,-26.7756 -9.49023,-42.414066 C 199.50825,62.531765 146.22169,132.37427 90,90 c 50,50 -6.776128,124.44391 29.75195,149.35547 25.35786,17.29365 44.43314,10.19624 53.54102,-3.55078 l 3.41015,3.11914 c -8.94569,12.7304 -17.89228,25.46116 -26.59179,37.85351 C 124.29492,281.37234 99.510248,282.83927 80,270 c -14.682004,26.21157 -45.301898,28.69824 -70,40 61.375583,0.31228 120.48347,3.77189 154.33789,42.28711 L 411.89258,0 Z m 416.91797,0 8.8164,25.466797 C 760.63212,186.74907 859.79858,286.03042 876.7207,574.87305 l 31.29688,25.84765 C 895.36954,279.39746 784.08041,169.32614 660.83789,0 Z m 49.30468,231.1582 -3.29101,51.13477 c 3.5673,6.09029 7.011,12.23329 10.33008,18.45703 24.30689,45.57873 42.8779,96.272 54.71875,165.25391 l 34.53711,28.35937 C 763.24187,374.52309 729.91062,301.55205 682.77734,231.1582 Z M 280.42773,402.8418 269.30078,430.79883 C 359.64769,462.8086 447.6522,483.96189 540.50977,488.24609 519.1051,478.42724 497.65451,467.26522 480,470 c -24.28921,3.76254 -48.68239,-9.91497 -69.5,-29.47852 -42.95129,-9.33116 -86.01181,-22.1637 -130.07227,-37.67968 z M 269.26172,430.875 C 243.9434,488.29961 208.57727,533.64908 166.48633,568 c 116.12879,44.75704 235.19815,76.28584 363.18555,83.34961 l -2.2754,-0.0176 101.54688,210.34766 95.98242,-7.36524 c -73.62603,12.41954 -154.80419,10.87136 -249.01953,-14.78906 l 6.0918,32.58984 c 160.35182,40.14495 287.86396,12.701 399.98828,-33.3125 l -10.91797,-27.93945 c -46.13159,19.0093 -94.09261,34.63547 -145.76953,43.38867 L 627.69531,652.0742 623.53516,652.043 c 89.463,-3.60752 183.63485,-19.56901 284.36718,-51.37891 L 750.93555,471.47852 720.66992,446.67188 c -32.20545,5.73774 -63.26512,9.47478 -93.13476,10.875 -7.87603,11.69236 -16.50014,22.51194 -25.62305,30.9746 40.73292,-0.48642 83.42187,-4.82883 128.13672,-12.99023 -44.72414,8.16964 -87.47564,12.5722 -128.6836,13.49414 C 593.90739,495.7938 586.48603,500 580,500 568.2459,500 554.90284,494.68967 541.17578,488.54688 447.65355,483.96089 359.64783,462.80674 269.26172,430.875 Z m 869.03518,68.37695 c -22.7838,0.7721 -47.8281,39.9668 -8.2969,50.74805 -55,15 15,85 30,30 15,55 85,-15 30,-30 55,-15 -15,-85 -30,-30 -4.2188,-15.46875 -12.7877,-21.05017 -21.7031,-20.74805 z m 136.1269,104.44532 C 1250.8373,603.1835 1234.6136,619.72629 1220,640 l 15,10 c 24.2842,-10.69256 46.3348,-22.64813 50,-45 -3.6868,-0.80846 -7.2067,-1.22934 -10.5762,-1.30273 z m -221.3847,25.21484 c -17.5035,0.0552 -35.1592,7.582 -53.0391,26.08789 39.672,4.95901 54.7529,44.34612 137.9238,20.60156 l 1.6934,-0.9375 c -28.6567,-25.18051 -57.4057,-45.84391 -86.5781,-45.75195 z m -27.8907,68.43359 -132.79879,160.21875 c 20.03645,27.17358 39.69697,49.95433 58.55273,71.45703 C 921.95226,972.37657 905,1023.8192 905,1080 c -10e-6,95.0742 48.79738,177.6172 123.0527,226.0488 l 15.6758,10.2227 53.9336,-53.5801 c -1.8936,-19.379 -4.1818,-37.4267 -6.9648,-53.875 -4.0392,1.088 -8.0972,1.2952 -12.2364,0.9902 C 1016.0156,1206.1003 970.00002,1151.3507 970,1090 c 0,-29.304 10.12419,-57.7315 29.36719,-80.127 3.21981,-3.8561 6.96201,-7.1553 10.53321,-10.05073 42.2236,57.38583 74.671,127.70633 87.9824,262.47073 l 170.7305,-170.8653 15.0254,-14.8925 c -0.01,-0.041 -0.016,-0.081 -0.024,-0.1211 L 1300,1060.0156 v -0.01 l -16.3867,16.3926 c -6.9053,-37.354 -17.9277,-72.609 -39.0684,-101.38868 -17.3971,-23.68336 -41.7628,-42.33757 -74.6836,-53.19531 -5.9235,-4.44324 -15.7151,-8.48799 -29.9004,-11.01563 a 40,40 0 0 1 -39.1562,39.16992 c 11.3784,63.7792 53.9497,39.16972 44.1953,5.0293 14.4847,4.13849 27.256,-1.14244 32.2109,-9.46094 22.2125,9.90806 38.5779,24.10661 51.2168,41.3125 14.5321,19.78314 24.0315,44.13154 30.2246,70.37114 -16.8844,-23.3696 -41.2723,-2.4875 -33.6425,24.2168 -18.7158,-5.3474 -34.572,5.0327 -34.543,17.4667 -19.8331,-6.8634 -37.3031,-16.2034 -51.3848,-29.0214 -25.365,-23.0888 -41.3726,-57.8826 -41.1933,-113.77738 0.4435,-1.68467 0.8865,-3.81058 1.3066,-6.14844 A 40,40 0 0 1 1060,910 a 40,40 0 0 1 40,-40 40,40 0 0 1 39.9707,39.19531 C 1203.7499,897.81693 1179.1404,855.24559 1145,865 c 9.1389,-31.98628 -27.6585,-55.62112 -41.9883,-4.66211 -6.6042,-30.94608 -16.2172,-61.5275 -33.0722,-87.51172 L 1300,962.39258 v -38.85156 z m -3.7812,52.20118 c 10.657,7.85003 19.5217,17.0418 27.0605,27.30468 11.3212,15.412 19.5874,33.59538 25.2012,53.59766 -13.2447,-0.55224 -24.066,15.52081 -18.6289,34.55078 -24.1324,-6.89496 -43.5103,12.35652 -30.252,28.36914 -25.78137,-7.16003 -48.30075,-17.67745 -65.66597,-33.48437 -5.60626,-5.10318 -10.7561,-10.77783 -15.37305,-17.13477 z m 212.4785,9.9746 -15.7695,2.19532 c 13.8007,28.30906 34.2687,51.29953 14.5586,106.33593 l 12.414,9.6543 c 12.6916,-33.1171 12.7247,-58.55562 6.7676,-78.83789 -4.6665,-15.88828 -12.0268,-28.08534 -17.9707,-39.34766 z M 1015,810 c -8.2843,0 -15,6.71573 -15,15 0,8.28427 6.7157,15 15,15 8.2843,0 15,-6.71573 15,-15 0,-8.28427 -6.7157,-15 -15,-15 z m -78.43945,55.57031 c 2.88064,3.19835 5.9019,6.23206 9.05859,9.10547 24.94198,22.70376 57.13526,35.16899 92.02926,42.88672 -33.9021,16.09002 -11.727,45.74566 17.3516,37.4375 -6.4935,22.72736 10.2036,41.23809 25.1621,32.34766 4.9164,43.82224 21.2229,75.26874 45.457,97.32814 27.6905,25.2056 64.317,37.791 104.2442,45.1582 l 36.3476,-36.0254 -141.3828,141.4336 c -13.6147,-111.338 -41.9594,-181.0045 -78.5097,-235.68751 -33.3683,-49.92231 -71.29276,-86.37939 -109.75785,-133.98438 z m -54.24805,5.42383 c -110.83172,43.70534 -240.48243,69.42035 -397.60547,32.62109 l 0.32422,30.81055 c 143.122,31.82189 266.35773,13.7646 371.35547,-21.99414 z M 1175,1005 a 15,15 0 0 0 -15,15 15,15 0 0 0 15,15 15,15 0 0 0 15,-15 15,15 0 0 0 -15,-15 z m -30,130 c -8.2843,0 -15,6.7157 -15,15 0,8.2843 6.7157,15 15,15 8.2843,0 15,-6.7157 15,-15 0,-8.2843 -6.7157,-15 -15,-15 z"
       id="path5067" />
  </g>
  <g
     id="use4937"
     transform="matrix(-0.12676923,0,0,-0.13039999,45.180373,93.953301)">
    <path
       fill="#ffcc44"
       d="m 216.55469,0 c 22.67165,33.814818 49.20422,66.355164 53.93945,105.50781 l -25.36328,36.03516 -3.98633,-4.10156 c 6.32081,-11.19826 5.98002,-26.7756 -9.49023,-42.414066 C 199.50825,62.531765 146.22169,132.37427 90,90 c 50,50 -6.776128,124.44391 29.75195,149.35547 25.35786,17.29365 44.43314,10.19624 53.54102,-3.55078 l 3.41015,3.11914 c -8.94569,12.7304 -17.89228,25.46116 -26.59179,37.85351 C 124.29492,281.37234 99.510248,282.83927 80,270 c -14.682004,26.21157 -45.301898,28.69824 -70,40 61.375583,0.31228 120.48347,3.77189 154.33789,42.28711 L 411.89258,0 Z m 416.91797,0 8.8164,25.466797 C 760.63212,186.74907 859.79858,286.03042 876.7207,574.87305 l 31.29688,25.84765 C 895.36954,279.39746 784.08041,169.32614 660.83789,0 Z m 49.30468,231.1582 -3.29101,51.13477 c 3.5673,6.09029 7.011,12.23329 10.33008,18.45703 24.30689,45.57873 42.8779,96.272 54.71875,165.25391 l 34.53711,28.35937 C 763.24187,374.52309 729.91062,301.55205 682.77734,231.1582 Z M 280.42773,402.8418 269.30078,430.79883 C 359.64769,462.8086 447.6522,483.96189 540.50977,488.24609 519.1051,478.42724 497.65451,467.26522 480,470 c -24.28921,3.76254 -48.68239,-9.91497 -69.5,-29.47852 -42.95129,-9.33116 -86.01181,-22.1637 -130.07227,-37.67968 z M 269.26172,430.875 C 243.9434,488.29961 208.57727,533.64908 166.48633,568 c 116.12879,44.75704 235.19815,76.28584 363.18555,83.34961 l -2.2754,-0.0176 101.54688,210.34766 95.98242,-7.36524 c -73.62603,12.41954 -154.80419,10.87136 -249.01953,-14.78906 l 6.0918,32.58984 c 160.35182,40.14495 287.86396,12.701 399.98828,-33.3125 l -10.91797,-27.93945 c -46.13159,19.0093 -94.09261,34.63547 -145.76953,43.38867 L 627.69531,652.0742 623.53516,652.043 c 89.463,-3.60752 183.63485,-19.56901 284.36718,-51.37891 L 750.93555,471.47852 720.66992,446.67188 c -32.20545,5.73774 -63.26512,9.47478 -93.13476,10.875 -7.87603,11.69236 -16.50014,22.51194 -25.62305,30.9746 40.73292,-0.48642 83.42187,-4.82883 128.13672,-12.99023 -44.72414,8.16964 -87.47564,12.5722 -128.6836,13.49414 C 593.90739,495.7938 586.48603,500 580,500 568.2459,500 554.90284,494.68967 541.17578,488.54688 447.65355,483.96089 359.64783,462.80674 269.26172,430.875 Z m 869.03518,68.37695 c -22.7838,0.7721 -47.8281,39.9668 -8.2969,50.74805 -55,15 15,85 30,30 15,55 85,-15 30,-30 55,-15 -15,-85 -30,-30 -4.2188,-15.46875 -12.7877,-21.05017 -21.7031,-20.74805 z m 136.1269,104.44532 C 1250.8373,603.1835 1234.6136,619.72629 1220,640 l 15,10 c 24.2842,-10.69256 46.3348,-22.64813 50,-45 -3.6868,-0.80846 -7.2067,-1.22934 -10.5762,-1.30273 z m -221.3847,25.21484 c -17.5035,0.0552 -35.1592,7.582 -53.0391,26.08789 39.672,4.95901 54.7529,44.34612 137.9238,20.60156 l 1.6934,-0.9375 c -28.6567,-25.18051 -57.4057,-45.84391 -86.5781,-45.75195 z m -27.8907,68.43359 -132.79879,160.21875 c 20.03645,27.17358 39.69697,49.95433 58.55273,71.45703 C 921.95226,972.37657 905,1023.8192 905,1080 c -10e-6,95.0742 48.79738,177.6172 123.0527,226.0488 l 15.6758,10.2227 53.9336,-53.5801 c -1.8936,-19.379 -4.1818,-37.4267 -6.9648,-53.875 -4.0392,1.088 -8.0972,1.2952 -12.2364,0.9902 C 1016.0156,1206.1003 970.00002,1151.3507 970,1090 c 0,-29.304 10.12419,-57.7315 29.36719,-80.127 3.21981,-3.8561 6.96201,-7.1553 10.53321,-10.05073 42.2236,57.38583 74.671,127.70633 87.9824,262.47073 l 170.7305,-170.8653 15.0254,-14.8925 c -0.01,-0.041 -0.016,-0.081 -0.024,-0.1211 L 1300,1060.0156 v -0.01 l -16.3867,16.3926 c -6.9053,-37.354 -17.9277,-72.609 -39.0684,-101.38868 -17.3971,-23.68336 -41.7628,-42.33757 -74.6836,-53.19531 -5.9235,-4.44324 -15.7151,-8.48799 -29.9004,-11.01563 a 40,40 0 0 1 -39.1562,39.16992 c 11.3784,63.7792 53.9497,39.16972 44.1953,5.0293 14.4847,4.13849 27.256,-1.14244 32.2109,-9.46094 22.2125,9.90806 38.5779,24.10661 51.2168,41.3125 14.5321,19.78314 24.0315,44.13154 30.2246,70.37114 -16.8844,-23.3696 -41.2723,-2.4875 -33.6425,24.2168 -18.7158,-5.3474 -34.572,5.0327 -34.543,17.4667 -19.8331,-6.8634 -37.3031,-16.2034 -51.3848,-29.0214 -25.365,-23.0888 -41.3726,-57.8826 -41.1933,-113.77738 0.4435,-1.68467 0.8865,-3.81058 1.3066,-6.14844 A 40,40 0 0 1 1060,910 a 40,40 0 0 1 40,-40 40,40 0 0 1 39.9707,39.19531 C 1203.7499,897.81693 1179.1404,855.24559 1145,865 c 9.1389,-31.98628 -27.6585,-55.62112 -41.9883,-4.66211 -6.6042,-30.94608 -16.2172,-61.5275 -33.0722,-87.51172 L 1300,962.39258 v -38.85156 z m -3.7812,52.20118 c 10.657,7.85003 19.5217,17.0418 27.0605,27.30468 11.3212,15.412 19.5874,33.59538 25.2012,53.59766 -13.2447,-0.55224 -24.066,15.52081 -18.6289,34.55078 -24.1324,-6.89496 -43.5103,12.35652 -30.252,28.36914 -25.78137,-7.16003 -48.30075,-17.67745 -65.66597,-33.48437 -5.60626,-5.10318 -10.7561,-10.77783 -15.37305,-17.13477 z m 212.4785,9.9746 -15.7695,2.19532 c 13.8007,28.30906 34.2687,51.29953 14.5586,106.33593 l 12.414,9.6543 c 12.6916,-33.1171 12.7247,-58.55562 6.7676,-78.83789 -4.6665,-15.88828 -12.0268,-28.08534 -17.9707,-39.34766 z M 1015,810 c -8.2843,0 -15,6.71573 -15,15 0,8.28427 6.7157,15 15,15 8.2843,0 15,-6.71573 15,-15 0,-8.28427 -6.7157,-15 -15,-15 z m -78.43945,55.57031 c 2.88064,3.19835 5.9019,6.23206 9.05859,9.10547 24.94198,22.70376 57.13526,35.16899 92.02926,42.88672 -33.9021,16.09002 -11.727,45.74566 17.3516,37.4375 -6.4935,22.72736 10.2036,41.23809 25.1621,32.34766 4.9164,43.82224 21.2229,75.26874 45.457,97.32814 27.6905,25.2056 64.317,37.791 104.2442,45.1582 l 36.3476,-36.0254 -141.3828,141.4336 c -13.6147,-111.338 -41.9594,-181.0045 -78.5097,-235.68751 -33.3683,-49.92231 -71.29276,-86.37939 -109.75785,-133.98438 z m -54.24805,5.42383 c -110.83172,43.70534 -240.48243,69.42035 -397.60547,32.62109 l 0.32422,30.81055 c 143.122,31.82189 266.35773,13.7646 371.35547,-21.99414 z M 1175,1005 a 15,15 0 0 0 -15,15 15,15 0 0 0 15,15 15,15 0 0 0 15,-15 15,15 0 0 0 -15,-15 z m -30,130 c -8.2843,0 -15,6.7157 -15,15 0,8.2843 6.7157,15 15,15 8.2843,0 15,-6.7157 15,-15 0,-8.2843 -6.7157,-15 -15,-15 z"
       id="path5071" />
  </g>
  <g
     id="use4939"
     transform="matrix(0.12676923,0,0,0.13039999,-119.61963,-166.84669)">
    <path
       fill="#ff0000"
       d="M 411.89258,0 0,586.15234 V 715.76953 L 502.97266,0 Z M 642.42383,25.779297 C 660.14953,77.159552 690,165.89311 690,180 c 0,13.04885 -4.25628,34.61204 -7.21875,50.98047 47.12978,70.57281 80.46062,143.54262 96.29102,263.38281 l 97.64843,80.50977 C 859.79858,286.03042 760.6325,186.74817 642.42383,25.779297 Z M 1160,445 c -22.7883,0 -45.5736,18.41409 -27.5059,55.24023 10.8008,-3.24044 22.3731,0.93962 27.5059,19.75977 5.1328,-18.82015 16.7051,-23.00021 27.5059,-19.75977 C 1205.5736,463.41409 1182.7883,445 1160,445 Z m -73.8809,70.96289 c -48.3876,-0.40036 -40.3459,93.17196 24.1211,61.54297 -3.2404,-10.80073 0.9397,-22.37309 19.7598,-27.50586 -18.8201,-5.13277 -23.0002,-16.70513 -19.7598,-27.50586 -9.1852,-4.50648 -17.2268,-6.47421 -24.1211,-6.53125 z m 147.7618,0 c -6.8943,0.057 -14.9359,2.02477 -24.1211,6.53125 3.2404,10.80073 -0.9397,22.37309 -19.7598,27.50586 18.8201,5.13277 23.0002,16.70513 19.7598,27.50586 64.467,31.62899 72.5087,-61.94333 24.1211,-61.54297 z M 1160,533.66406 A 16.15836,16.335621 0 0 0 1143.8418,550 16.15836,16.335621 0 0 0 1160,566.33594 16.15836,16.335621 0 0 0 1176.1582,550 16.15836,16.335621 0 0 0 1160,533.66406 Z M 1160,580 c -5.1328,18.82015 -16.7051,23.00021 -27.5059,19.75977 -36.1355,73.65228 91.1473,73.65228 55.0118,0 C 1176.7051,603.00021 1165.1328,598.82015 1160,580 Z m -277.83203,60.61914 c -72.05602,19.59985 -141.37311,32.17803 -208.13867,38.24805 l 81.15429,169.35742 c 40.21215,-8.86984 78.64233,-22.01475 115.6875,-37.70313 C 863.7798,788.40318 860,764.73918 860,740 c 0,-35.87701 7.94963,-69.49119 22.16797,-99.38086 z m -507.36328,20.68555 c 49.6261,47.83604 85.52831,109.61963 101.19726,178.60547 41.47695,10.93791 80.51216,17.56878 118.21289,20.36328 L 508.07227,679.82031 c -45.30176,-3.44975 -89.72371,-9.77155 -133.26758,-18.51562 z M 1100,885 a 25,25 0 0 0 -25,25 25,25 0 0 0 25,25 25,25 0 0 0 25,-25 25,25 0 0 0 -25,-25 z m -62.4473,157.7441 C 1026.1754,1055.3961 1020,1072.3733 1020,1090 c 0,37.1632 26.9666,67.8498 61.4277,69.7891 -11.1748,-48.2711 -26.0468,-85.329 -43.875,-117.045 z"
       id="path5075" />
  </g>
  <g
     id="use4941"
     transform="matrix(-0.12676923,0,0,-0.13039999,45.180373,93.953301)">
    <path
       fill="#ff0000"
       d="M 411.89258,0 0,586.15234 V 715.76953 L 502.97266,0 Z M 642.42383,25.779297 C 660.14953,77.159552 690,165.89311 690,180 c 0,13.04885 -4.25628,34.61204 -7.21875,50.98047 47.12978,70.57281 80.46062,143.54262 96.29102,263.38281 l 97.64843,80.50977 C 859.79858,286.03042 760.6325,186.74817 642.42383,25.779297 Z M 1160,445 c -22.7883,0 -45.5736,18.41409 -27.5059,55.24023 10.8008,-3.24044 22.3731,0.93962 27.5059,19.75977 5.1328,-18.82015 16.7051,-23.00021 27.5059,-19.75977 C 1205.5736,463.41409 1182.7883,445 1160,445 Z m -73.8809,70.96289 c -48.3876,-0.40036 -40.3459,93.17196 24.1211,61.54297 -3.2404,-10.80073 0.9397,-22.37309 19.7598,-27.50586 -18.8201,-5.13277 -23.0002,-16.70513 -19.7598,-27.50586 -9.1852,-4.50648 -17.2268,-6.47421 -24.1211,-6.53125 z m 147.7618,0 c -6.8943,0.057 -14.9359,2.02477 -24.1211,6.53125 3.2404,10.80073 -0.9397,22.37309 -19.7598,27.50586 18.8201,5.13277 23.0002,16.70513 19.7598,27.50586 64.467,31.62899 72.5087,-61.94333 24.1211,-61.54297 z M 1160,533.66406 A 16.15836,16.335621 0 0 0 1143.8418,550 16.15836,16.335621 0 0 0 1160,566.33594 16.15836,16.335621 0 0 0 1176.1582,550 16.15836,16.335621 0 0 0 1160,533.66406 Z M 1160,580 c -5.1328,18.82015 -16.7051,23.00021 -27.5059,19.75977 -36.1355,73.65228 91.1473,73.65228 55.0118,0 C 1176.7051,603.00021 1165.1328,598.82015 1160,580 Z m -277.83203,60.61914 c -72.05602,19.59985 -141.37311,32.17803 -208.13867,38.24805 l 81.15429,169.35742 c 40.21215,-8.86984 78.64233,-22.01475 115.6875,-37.70313 C 863.7798,788.40318 860,764.73918 860,740 c 0,-35.87701 7.94963,-69.49119 22.16797,-99.38086 z m -507.36328,20.68555 c 49.6261,47.83604 85.52831,109.61963 101.19726,178.60547 41.47695,10.93791 80.51216,17.56878 118.21289,20.36328 L 508.07227,679.82031 c -45.30176,-3.44975 -89.72371,-9.77155 -133.26758,-18.51562 z M 1100,885 a 25,25 0 0 0 -25,25 25,25 0 0 0 25,25 25,25 0 0 0 25,-25 25,25 0 0 0 -25,-25 z m -62.4473,157.7441 C 1026.1754,1055.3961 1020,1072.3733 1020,1090 c 0,37.1632 26.9666,67.8498 61.4277,69.7891 -11.1748,-48.2711 -26.0468,-85.329 -43.875,-117.045 z"
       id="path5079" />
  </g>
  <g
     id="use4943"
     transform="matrix(0.12676923,0,0,0.13039999,-119.61963,-166.84669)">
    <path
       fill="#4444ff"
       d="m 664.82422,217.74805 -17.84961,3.0039 c -1.75242,4.06968 -2.80274,9.26192 -2.80273,14.91993 0,13.0583 5.59644,23.64453 12.5,23.64453 6.90354,0 12.5,-10.58623 12.5,-23.64453 0,-7.16665 -1.68539,-13.58779 -4.34766,-17.92383 z M 512.5,218.17773 A 12.5,23.644157 0 0 0 500,241.82227 12.5,23.644157 0 0 0 512.5,265.4668 12.5,23.644157 0 0 0 525,241.82227 12.5,23.644157 0 0 0 512.5,218.17773 Z m -228.76172,175.22852 -3.31055,9.43555 c 44.06046,15.51598 87.12148,28.34841 130.32032,37.86132 l -12.82813,-13.15234 c -37.73016,-9.00221 -75.51623,-20.52645 -114.18164,-34.14453 z m 426.74805,44.89063 c -26.24967,4.42617 -51.71568,7.50326 -76.58594,9.32617 l -6.7207,10.43359 c 30.22548,-1.91006 61.28478,-5.64702 93.49023,-11.38476 z M 137.4707,589.20898 C 114.30172,604.27982 89.466268,616.3877 63.728516,625.25 L 0,715.79297 V 897.58789 L 264.23438,633.43164 C 221.26581,620.73228 179.039,605.82432 137.4707,589.20898 Z m 770.64649,11.54493 C 878.40565,636.06049 860,685.41103 860,740 c 0,44.17716 12.05469,84.92264 32.36133,117.5918 L 1025.2363,697.41797 Z m -346.16016,52.00781 99.92383,208.52734 c 11.20467,-0.63165 22.4379,-1.55344 32.83984,-2.76367 L 594.76758,652.83203 c -10.82499,0.1113 -21.59728,0.0542 -32.81055,-0.0703 z m -187.16406,8.51953 c 43.55367,8.76621 87.97841,15.08814 133.48242,18.4707 z M 595,677.27539 a 10,10 0 0 1 10,10 10,10 0 0 1 -10,10 10,10 0 0 1 -10,-10 10,10 0 0 1 10,-10 z m 22.43359,46.68359 a 10,10 0 0 1 10,10 10,10 0 0 1 -10,10 10,10 0 0 1 -10,-10 10,10 0 0 1 10,-10 z m 22.43164,46.6836 a 10,10 0 0 1 10,10 10,10 0 0 1 -10,10 10,10 0 0 1 -10,-10 10,10 0 0 1 10,-10 z m 22.4336,46.68554 a 10,10 0 0 1 10,10 10,10 0 0 1 -10,10 10,10 0 0 1 -10,-10 10,10 0 0 1 10,-10 z m 255.71094,73.76368 a 7.5,7.4999982 0 0 0 -7.5,7.5 7.5,7.4999982 0 0 0 7.5,7.5 7.5,7.4999982 0 0 0 7.5,-7.5 7.5,7.4999982 0 0 0 -7.5,-7.5 z m 17.14843,19.90039 -37.38476,9.44726 -5.10352,10.11524 12.47461,30.42773 -33.97851,17.59961 -3.07422,10.35742 18.10937,31.94335 -29.54687,24.0332 -0.97266,10.6856 24.9375,29.2304 -23.72656,34.4864 1.57812,10.1738 31.50391,24.4707 -15.38477,37.4726 3.91602,9.7129 36.08594,15.8868 -5.52539,41.4179 6.09765,8.3711 38.59571,6.9844 3.01367,40.1621 6.78125,6.9063 47.52731,4.4453 -2.6582,25.4375 16.752,-15.9746 1.6133,-15.4434 -6.7618,-8.2461 -48.76949,-4.5625 -2.97461,-39.6328 -6.14258,-6.8184 -37.25976,-6.7422 5.32422,-39.9062 -4.41211,-7.8555 -34.54883,-15.2109 14.77148,-35.9805 -2.33789,-8.7715 -30.41601,-23.6269 22.97656,-33.3965 -0.47461,-9.1172 -23.6875,-27.7676 28.50781,-23.1875 1.79297,-9.5175 -17.39453,-30.68364 33.1543,-17.17188 3.48828,-9.5039 -11.79688,-28.7793 33.36524,-8.43164 c 1.21493,-0.28955 2.29559,-0.86349 3.18359,-1.63672 z m -49.99023,36.95508 a 7.5,7.4999982 0 0 0 -7.5,7.5 7.5,7.4999982 0 0 0 7.5,7.5 7.5,7.4999982 0 0 0 7.5,-7.5 7.5,7.4999982 0 0 0 -7.5,-7.5 z M 865.875,1010.1387 a 7.5,7.4999982 0 0 0 -7.5,7.5 7.5,7.4999982 0 0 0 7.5,7.5 7.5,7.4999982 0 0 0 7.5,-7.5 7.5,7.4999982 0 0 0 -7.5,-7.5 z m -5.54297,67.3242 a 7.5,7.4999982 0 0 0 -7.5,7.5 7.5,7.4999982 0 0 0 7.5,7.5 7.5,7.4999982 0 0 0 7.5,-7.5 7.5,7.4999982 0 0 0 -7.5,-7.5 z m 9.85352,73.8926 a 7.5,7.4999982 0 0 0 -7.5,7.5 7.5,7.4999982 0 0 0 7.5,7.5 7.5,7.4999982 0 0 0 7.5,-7.5 7.5,7.4999982 0 0 0 -7.5,-7.5 z m 27.09375,69.7851 a 7.5,7.4999982 0 0 0 -7.5,7.5 7.5,7.4999982 0 0 0 7.5,7.5 7.5,7.4999982 0 0 0 7.5,-7.5 7.5,7.4999982 0 0 0 -7.5,-7.5 z m 41.66601,58.9082 a 7.5,7.4999982 0 0 0 -7.5,7.5 7.5,7.4999982 0 0 0 7.5,7.5 7.5,7.4999982 0 0 0 7.5,-7.5 7.5,7.4999982 0 0 0 -7.5,-7.5 z m 58.08594,52.1348 a 7.5,7.4999982 0 0 0 -7.5,7.5 7.5,7.4999982 0 0 0 7.5,7.5 7.5,7.4999982 0 0 0 7.49995,-7.5 7.5,7.4999982 0 0 0 -7.49995,-7.5 z"
       id="path5083" />
  </g>
  <g
     id="use4945"
     transform="matrix(-0.12676923,0,0,-0.13039999,45.180373,93.953301)">
    <path
       fill="#4444ff"
       d="m 664.82422,217.74805 -17.84961,3.0039 c -1.75242,4.06968 -2.80274,9.26192 -2.80273,14.91993 0,13.0583 5.59644,23.64453 12.5,23.64453 6.90354,0 12.5,-10.58623 12.5,-23.64453 0,-7.16665 -1.68539,-13.58779 -4.34766,-17.92383 z M 512.5,218.17773 A 12.5,23.644157 0 0 0 500,241.82227 12.5,23.644157 0 0 0 512.5,265.4668 12.5,23.644157 0 0 0 525,241.82227 12.5,23.644157 0 0 0 512.5,218.17773 Z m -228.76172,175.22852 -3.31055,9.43555 c 44.06046,15.51598 87.12148,28.34841 130.32032,37.86132 l -12.82813,-13.15234 c -37.73016,-9.00221 -75.51623,-20.52645 -114.18164,-34.14453 z m 426.74805,44.89063 c -26.24967,4.42617 -51.71568,7.50326 -76.58594,9.32617 l -6.7207,10.43359 c 30.22548,-1.91006 61.28478,-5.64702 93.49023,-11.38476 z M 137.4707,589.20898 C 114.30172,604.27982 89.466268,616.3877 63.728516,625.25 L 0,715.79297 V 897.58789 L 264.23438,633.43164 C 221.26581,620.73228 179.039,605.82432 137.4707,589.20898 Z m 770.64649,11.54493 C 878.40565,636.06049 860,685.41103 860,740 c 0,44.17716 12.05469,84.92264 32.36133,117.5918 L 1025.2363,697.41797 Z m -346.16016,52.00781 99.92383,208.52734 c 11.20467,-0.63165 22.4379,-1.55344 32.83984,-2.76367 L 594.76758,652.83203 c -10.82499,0.1113 -21.59728,0.0542 -32.81055,-0.0703 z m -187.16406,8.51953 c 43.55367,8.76621 87.97841,15.08814 133.48242,18.4707 z M 595,677.27539 a 10,10 0 0 1 10,10 10,10 0 0 1 -10,10 10,10 0 0 1 -10,-10 10,10 0 0 1 10,-10 z m 22.43359,46.68359 a 10,10 0 0 1 10,10 10,10 0 0 1 -10,10 10,10 0 0 1 -10,-10 10,10 0 0 1 10,-10 z m 22.43164,46.6836 a 10,10 0 0 1 10,10 10,10 0 0 1 -10,10 10,10 0 0 1 -10,-10 10,10 0 0 1 10,-10 z m 22.4336,46.68554 a 10,10 0 0 1 10,10 10,10 0 0 1 -10,10 10,10 0 0 1 -10,-10 10,10 0 0 1 10,-10 z m 255.71094,73.76368 a 7.5,7.4999982 0 0 0 -7.5,7.5 7.5,7.4999982 0 0 0 7.5,7.5 7.5,7.4999982 0 0 0 7.5,-7.5 7.5,7.4999982 0 0 0 -7.5,-7.5 z m 17.14843,19.90039 -37.38476,9.44726 -5.10352,10.11524 12.47461,30.42773 -33.97851,17.59961 -3.07422,10.35742 18.10937,31.94335 -29.54687,24.0332 -0.97266,10.6856 24.9375,29.2304 -23.72656,34.4864 1.57812,10.1738 31.50391,24.4707 -15.38477,37.4726 3.91602,9.7129 36.08594,15.8868 -5.52539,41.4179 6.09765,8.3711 38.59571,6.9844 3.01367,40.1621 6.78125,6.9063 47.52731,4.4453 -2.6582,25.4375 16.752,-15.9746 1.6133,-15.4434 -6.7618,-8.2461 -48.76949,-4.5625 -2.97461,-39.6328 -6.14258,-6.8184 -37.25976,-6.7422 5.32422,-39.9062 -4.41211,-7.8555 -34.54883,-15.2109 14.77148,-35.9805 -2.33789,-8.7715 -30.41601,-23.6269 22.97656,-33.3965 -0.47461,-9.1172 -23.6875,-27.7676 28.50781,-23.1875 1.79297,-9.5175 -17.39453,-30.68364 33.1543,-17.17188 3.48828,-9.5039 -11.79688,-28.7793 33.36524,-8.43164 c 1.21493,-0.28955 2.29559,-0.86349 3.18359,-1.63672 z m -49.99023,36.95508 a 7.5,7.4999982 0 0 0 -7.5,7.5 7.5,7.4999982 0 0 0 7.5,7.5 7.5,7.4999982 0 0 0 7.5,-7.5 7.5,7.4999982 0 0 0 -7.5,-7.5 z M 865.875,1010.1387 a 7.5,7.4999982 0 0 0 -7.5,7.5 7.5,7.4999982 0 0 0 7.5,7.5 7.5,7.4999982 0 0 0 7.5,-7.5 7.5,7.4999982 0 0 0 -7.5,-7.5 z m -5.54297,67.3242 a 7.5,7.4999982 0 0 0 -7.5,7.5 7.5,7.4999982 0 0 0 7.5,7.5 7.5,7.4999982 0 0 0 7.5,-7.5 7.5,7.4999982 0 0 0 -7.5,-7.5 z m 9.85352,73.8926 a 7.5,7.4999982 0 0 0 -7.5,7.5 7.5,7.4999982 0 0 0 7.5,7.5 7.5,7.4999982 0 0 0 7.5,-7.5 7.5,7.4999982 0 0 0 -7.5,-7.5 z m 27.09375,69.7851 a 7.5,7.4999982 0 0 0 -7.5,7.5 7.5,7.4999982 0 0 0 7.5,7.5 7.5,7.4999982 0 0 0 7.5,-7.5 7.5,7.4999982 0 0 0 -7.5,-7.5 z m 41.66601,58.9082 a 7.5,7.4999982 0 0 0 -7.5,7.5 7.5,7.4999982 0 0 0 7.5,7.5 7.5,7.4999982 0 0 0 7.5,-7.5 7.5,7.4999982 0 0 0 -7.5,-7.5 z m 58.08594,52.1348 a 7.5,7.4999982 0 0 0 -7.5,7.5 7.5,7.4999982 0 0 0 7.5,7.5 7.5,7.4999982 0 0 0 7.49995,-7.5 7.5,7.4999982 0 0 0 -7.49995,-7.5 z"
       id="path5087" />
  </g>
  <g
     id="use4947"
     transform="matrix(0.12676923,0,0,0.13039999,-119.61963,-166.84669)">
    <path
       fill="#000000"
       d="m 1025.5147,697.64728 -25.2799,-20.36817 C 989.95229,689.7787 980,712.38354 980,740 c 0,3.9216 0.19511,7.74401 0.68552,11.31555 z M 933.78327,807.73717 C 925.19681,788.13084 920,765.00536 920,740 c 0,-41.10271 14.17944,-77.0794 34.05469,-100.79883 l -22.9961,-19.26953 C 906.29107,649.48959 890,692.15416 890,740 c 0,34.74556 8.55613,66.77026 22.76128,93.01148 M 882.51664,639.60689 c -72.40447,20.61225 -141.72089,33.1906 -208.48646,39.26062 l 81.55838,169.1255 -30.2734,6.29279 -97.43746,-202.30827 c 88.30614,-4.06982 180.99855,-20.04203 280.02469,-51.31314 M 594.8892,860.32312 508.07314,679.82011 c -45.30176,-3.44975 -89.72554,-9.77216 -133.16697,-18.41743 -16.41096,-15.82699 -34.45824,-30.22409 -53.42716,-42.80855 66.75224,17.08229 134.81586,28.60075 205.74881,32.70122 l 102.10372,210.46884 c -11.04049,-0.0306 -22.66475,-0.50875 -34.44234,-1.44107 z m 287.42425,10.67041 c -110.83172,43.70534 -240.48393,69.4213 -397.60697,32.62204 L 481.999,872.11521 c 160.35182,40.14495 287.86269,12.70114 399.98701,-33.31236 l 10.34109,18.76083 z M -0.64860342,940.6486 321.26546,618.48208 C 268.5163,604.88149 217.00732,587.87363 166.13787,568.28291 c -8.86925,7.21776 -18.12763,13.97721 -28.23467,20.64417 41.13628,16.89795 83.36201,31.80537 126.33058,44.50473 L -0.30976998,897.88399 M 318.66654,132.66592 310,85 355,80 350,30 394.26751,25.081388 M 274.19141,195.95703 265,150 312.56263,141.35225 M 234.44788,252.51548 225,210 270.75383,200.84923 M 199.36178,302.44714 190,265 232.27725,255.60506 M 164.15701,352.54534 150,310 l 47.38281,-4.73828 m 463.18072,91.30359 C 664.95023,386.4568 668.15553,377.37788 670,370 c 6.01015,-24.04061 8.40811,-58.91781 9.42528,-86.39957 3.62771,4.78345 7.07205,10.92583 10.39113,17.14957 24.30689,45.57873 42.87813,96.27209 53.03429,163.90859 z"
       id="path5091" />
  </g>
  <g
     id="use4949"
     transform="matrix(-0.12676923,0,0,-0.13039999,45.180373,93.953301)">
    <path
       fill="#000000"
       d="m 1025.5147,697.64728 -25.2799,-20.36817 C 989.95229,689.7787 980,712.38354 980,740 c 0,3.9216 0.19511,7.74401 0.68552,11.31555 z M 933.78327,807.73717 C 925.19681,788.13084 920,765.00536 920,740 c 0,-41.10271 14.17944,-77.0794 34.05469,-100.79883 l -22.9961,-19.26953 C 906.29107,649.48959 890,692.15416 890,740 c 0,34.74556 8.55613,66.77026 22.76128,93.01148 M 882.51664,639.60689 c -72.40447,20.61225 -141.72089,33.1906 -208.48646,39.26062 l 81.55838,169.1255 -30.2734,6.29279 -97.43746,-202.30827 c 88.30614,-4.06982 180.99855,-20.04203 280.02469,-51.31314 M 594.8892,860.32312 508.07314,679.82011 c -45.30176,-3.44975 -89.72554,-9.77216 -133.16697,-18.41743 -16.41096,-15.82699 -34.45824,-30.22409 -53.42716,-42.80855 66.75224,17.08229 134.81586,28.60075 205.74881,32.70122 l 102.10372,210.46884 c -11.04049,-0.0306 -22.66475,-0.50875 -34.44234,-1.44107 z m 287.42425,10.67041 c -110.83172,43.70534 -240.48393,69.4213 -397.60697,32.62204 L 481.999,872.11521 c 160.35182,40.14495 287.86269,12.70114 399.98701,-33.31236 l 10.34109,18.76083 z M -0.64860342,940.6486 321.26546,618.48208 C 268.5163,604.88149 217.00732,587.87363 166.13787,568.28291 c -8.86925,7.21776 -18.12763,13.97721 -28.23467,20.64417 41.13628,16.89795 83.36201,31.80537 126.33058,44.50473 L -0.30976998,897.88399 M 318.66654,132.66592 310,85 355,80 350,30 394.26751,25.081388 M 274.19141,195.95703 265,150 312.56263,141.35225 M 234.44788,252.51548 225,210 270.75383,200.84923 M 199.36178,302.44714 190,265 232.27725,255.60506 M 164.15701,352.54534 150,310 l 47.38281,-4.73828 m 463.18072,91.30359 C 664.95023,386.4568 668.15553,377.37788 670,370 c 6.01015,-24.04061 8.40811,-58.91781 9.42528,-86.39957 3.62771,4.78345 7.07205,10.92583 10.39113,17.14957 24.30689,45.57873 42.87813,96.27209 53.03429,163.90859 z"
       id="path5095" />
  </g>
  <g
     id="use4951"
     transform="matrix(0.12676923,0,0,0.13039999,-119.61963,-166.84669)">
    <path
       stroke="#4444ff"
       stroke-linecap="round"
       stroke-linejoin="round"
       stroke-width="6"
       fill="none"
       d="m 485.03158,934.42498 c 143.122,31.82189 266.35778,13.76468 371.35552,-21.99406 m -371.68062,-8.81535 c 157.12304,36.79926 286.77525,11.0833 397.60697,-32.62204 M 507.8709,679.88731 594.94776,860.2608 M 755.58856,847.99301 674.04692,679.08532 M 892.3716,857.6194 C 872.05375,824.92318 860,784.17717 860,740.00001 860,685.41104 878.40502,636.06115 908.06483,600.66467 M 1097.6624,1262.6913 C 1073.7319,1017.7899 986.60455,985.39506 892.34918,857.56527 L 1025.3213,697.65267 M 1300,923.52939 660.36646,396.77238 M 321.45731,618.5427 0.7881782,939.21182 M 321.11444,618.5687 C 419.81972,682.9473 485.00001,793.9098 485,920 c 0,83.9443 -28.88925,161.1837 -77.3271,222.4363 M 166.038,568.34901 c 222.81109,85.35138 455.93513,122.60795 741.86439,32.31538 M 674.01345,678.6497 c 66.7823,-5.85221 136.09872,-18.43056 208.50319,-39.04281 m -507.72271,21.67485 c 43.55367,8.76621 87.97745,15.08862 133.48146,18.47118 M 137.30591,589.35253 c 41.73357,16.4725 83.9593,31.37992 126.89836,44.20017 M 880.08828,577.82622 C 615.67717,656.77021 400.5566,624.01524 191.24175,545.83173 m 646.67791,-2.76909 C 603.55429,606.59044 413.04972,578.62896 222.99457,509.62891 M 809.31425,519.551 C 593.8867,573.65203 418.53077,547.90808 240.76659,484.20024 m 539.5806,11.50391 C 583.1255,540.99159 422.04886,516.86708 256.15981,457.9 m 284.95463,30.68728 C 447.65313,483.96092 359.64688,462.80771 269.29997,430.79794 m 481.63585,40.68049 c -52.35787,10.78978 -101.99097,16.48181 -149.86263,17.77681 m -73.67654,162.07629 101.5475,210.34839 M 725.31516,854.2858 627.6954,652.07344 m -66.24274,0.79474 100.64961,208.48849 m 31.96405,-2.79266 -99.31297,-205.71973 M 475.9067,839.52614 c 160.52552,43.72061 283.21622,17.46565 395.16135,-28.66323 M 481.999,872.11521 c 160.35182,40.14495 287.86269,12.70114 399.98701,-33.31236 M -1.4116988e-4,715.76944 502.97284,1.9287502e-4 M 307.83585,277.85707 C 288.6818,469.58426 186.99268,581.9841 63.685101,625.48128 m 418.571959,339.0487 c 58.99882,12.80161 114.94462,17.45078 167.74985,16.06718 M 484.15768,944.47291 c 58.49244,12.89853 113.77543,17.57368 165.89044,16.17753 m -166.67364,-6.11332 c 58.68418,12.82399 114.24447,17.47795 166.65653,16.09139 m -169.13421,3.83718 c 59.41682,12.8315 115.83945,17.49819 169.11944,16.12003 m -0.0232,28.81708 c -68.59965,1.7975 -131.89902,13.7763 -189.70618,31.2892 m 18.90431,-66.3648 c 59.96512,12.91581 116.97404,17.6217 170.82327,16.2467 m -0.0288,-1.14778 c -65.25657,1.66638 -125.87293,12.26298 -181.48692,28.00128 m 181.45317,11.9222 c -72.95114,1.9543 -139.69471,15.8052 -200.3445,35.6497 M 649.969,1029.3715 c -70.62493,1.8684 -135.53349,14.7048 -194.66613,33.299 m 194.6809,-53.2562 c -66.82646,1.7285 -128.70906,12.9665 -185.35488,29.531 m 12.64566,-44.80119 c 16.69905,3.59241 33.17656,6.55709 49.42678,8.93839 m 0.55838,-0.033 c -18.98768,3.7396 -37.47323,8.138 -55.44302,13.0716 M 980.55984,751.45048 C 980.19511,747.74401 980,743.9216 980,740 c 0,-27.61646 9.95229,-50.2213 20.043,-62.26367 M 933.78327,807.73717 C 925.19681,788.13084 920,765.00536 920,740 c 0,-41.10271 14.17944,-77.0794 34.05469,-100.79883 M 912.76128,833.01148 C 898.55613,806.77026 890,774.74556 890,740 c 0,-47.84584 16.29107,-90.51041 41.05859,-120.06836 m 193.76871,615.31006 c -13.6147,-111.338 -41.9586,-181.004 -78.5089,-235.68701 -35.0498,-52.43804 -75.12401,-89.99155 -115.57426,-141.24414 L 1029.582,739.4505 m 0.1142,0.33891 L 1300,962.39258 m -234.5938,332.20122 -20.9648,-13.6739 C 978.33595,1237.8039 934.99999,1164.7355 935,1080 c 0,-47.1817 13.33289,-90.31613 36.64777,-127.13443 m 72.08013,363.40683 -15.6752,-10.2236 C 953.79732,1257.6172 904.99999,1175.0742 905,1080 c 0,-56.1874 16.95622,-107.635 46.22992,-150.684 m 49.14268,430.3117 -5.09721,-3.325 C 904.72007,1297.2398 844.99999,1195.7515 845,1080 c 0,-74.3601 24.61207,-142.69129 66.25403,-197.86726 M 1081.423,1159.8939 A 65,70.000002 0 0 1 1020,1090 a 65,70.000002 0 0 1 17.2914,-47.5421 m 58.5998,-287.50965 C 1098.8365,739.39043 1109.2716,692.50071 1130,680 c 25.8422,-15.58472 34.7227,-11.66816 62.0363,-30.6826 31.5804,-21.98475 61.1325,0.18596 20,25 C 1177.5471,695.12376 1180,690 1165,695 c 15,35 10,60 -10,70 m 75,-82.42391 c 44.0224,-16.04252 67.8996,3.1383 10,22.42391 -82.8831,27.60727 -70.7182,-0.29718 -10,-22.42391 v 0 m 1.7243,-28.19675 c 39.5361,-13.04311 58.9983,5.44577 5.1115,24.03198 -28.2551,9.74552 -45.0721,12.57356 -52.426,11.18018 m 52.2578,16.39591 c 42.5132,-16.04252 65.5718,3.1383 9.6572,22.42391 -80.0415,27.60727 -68.2937,-0.29718 -9.6572,-22.42391 v 0 m 9.9539,23.80112 c 38.2905,-14.16582 57.6795,5.99876 7.4085,22.8183 -71.9628,24.07711 -60.2208,-3.28001 -7.4085,-22.8183 v 0 m -3.824,46.31563 c 9.1591,-9.43695 15.7422,-18.44975 17.2025,-25.6478 m -79.7611,74.44538 c 14.7069,-9.09632 34.5296,-23.21383 50.7715,-37.60398 m -12.9344,-25.58094 c 13.8007,28.30906 34.2697,51.29962 14.5596,106.33602 m 12.4137,9.65339 c 12.6916,-33.1171 12.7242,-58.55482 6.7671,-78.83709 -4.6665,-15.88828 -12.0275,-28.08515 -17.9714,-39.34747 M 1160,520 c -15,-55 -85,15 -30,30 -55,15 15,85 30,30 15,55 85,-15 30,-30 55,-15 -15,-85 -30,-30 v 0 m 16.1584,30 A 16.15836,16.335621 0 0 1 1160.0001,566.33562 16.15836,16.335621 0 0 1 1143.8417,550 16.15836,16.335621 0 0 1 1160.0001,533.66438 16.15836,16.335621 0 0 1 1176.1584,550 v 0 m -43.6253,-49.6755 c -36.2897,-73.766 91.2235,-73.766 54.9338,0 m 22.2086,22.20855 c 73.766,-36.2896 73.766,91.2235 0,54.9339 m -22.2086,22.20855 c 36.2897,73.766 -91.2235,73.766 -54.9338,0 m -22.2086,-22.20855 c -73.766,36.2896 -73.766,-91.2235 0,-54.9339 M 1130,550 h -45 m 5,0 a 5,5 0 0 1 -5,5 5,5 0 0 1 -5,-5 5,5 0 0 1 5,-5 5,5 0 0 1 5,5 v 0 m 70,-30 v -45 m 0,5 a 5,5 0 0 1 -5,-5 5,5 0 0 1 5,-5 5,5 0 0 1 5,5 5,5 0 0 1 -5,5 v 0 m 30,70 h 45 m -5,0 a 5,5 0 0 1 5,-5 5,5 0 0 1 5,5 5,5 0 0 1 -5,5 5,5 0 0 1 -5,-5 v 0 m -70,30 v 45 m 0,-5 a 5,5 0 0 1 5,5 5,5 0 0 1 -5,5 5,5 0 0 1 -5,-5 5,5 0 0 1 5,-5 v 0 M 1171.4824,538.51758 1185,525 m 5,0 a 5,5 0 0 1 -5,5 5,5 0 0 1 -5,-5 5,5 0 0 1 5,-5 5,5 0 0 1 5,5 v 0 M 1171.4785,561.4785 1185,575 m 0,5 a 5,5 0 0 1 -5,-5 5,5 0 0 1 5,-5 5,5 0 0 1 5,5 5,5 0 0 1 -5,5 v 0 M 1148.5214,538.52147 1135,525 m -5,0 a 5,5 0 0 0 5,5 5,5 0 0 0 5,-5 5,5 0 0 0 -5,-5 5,5 0 0 0 -5,5 v 0 m 18.5176,36.48242 L 1135,575 m 0,5 a 5,5 0 0 0 5,-5 5,5 0 0 0 -5,-5 5,5 0 0 0 -5,5 5,5 0 0 0 5,5 v 0 m 35.154,73.59002 3.9163,6.52717 m 11.8842,-15.19304 3.6027,6.00443 m -50.0516,23.78527 C 1107.7774,656.41489 1072.8728,648.40163 1035,650 m 104.6173,24.66345 C 1093.7666,634.37463 1047.6798,605.65095 1000,655 c 39.672,4.95901 54.7524,44.34643 137.9233,20.60187 M 1220,640 c 16.7012,-23.16996 35.5056,-41.46768 65,-35 -3.6652,22.35187 -25.7158,34.30744 -50,45 M 660.96204,0.18069302 C 784.15661,169.41306 895.37403,279.50213 908.01794,600.72065 M 642.28928,25.465998 C 760.63234,186.74827 859.7994,286.03061 876.72152,574.87324 M 682.77731,231.15871 c 47.13328,70.39385 80.46535,143.36467 96.29575,263.20486 M 679.48569,282.29359 c 3.5673,6.09029 7.01164,12.23267 10.33072,18.45641 24.30689,45.57873 42.87813,96.27209 54.71898,165.254 M 4.3799013e-4,586.15323 411.89187,3.0476709e-5 M 631.461,-5.8444137 C 640.64356,20.329826 690,161.86046 690,180 c 0,20 -10,60 -10,70 0,10 0,80 -10,120 -10,40 -60,130 -90,130 -30,0 -70.35359,-34.5924 -100,-30 -70.89083,10.98139 -142.66891,-126.59772 -130,-130 0,0 -5.34683,10.75511 -10,10 -17.89028,-2.90319 -28.81136,-31.8408 -34.62511,-54.08689 M 164.15701,352.54534 C 130.48424,313.77184 71.375583,310.31228 10,310 c 24.698102,-11.30176 55.317996,-13.78843 70,-40 19.510248,12.83927 44.29527,11.37142 70.35785,6.43837 m -32.46317,46.17305 C 193.46144,215.0741 269.0282,107.53678 344.59497,-5.3651708e-4 M 117.89468,322.61142 v 0 M 50.196901,311.19506 c 1.458803,-0.57067 2.924804,-1.16416 4.394896,-1.7849 10.374595,-4.38067 21.251125,-10.63365 30.03125,-20.34571 17.086673,6.83797 35.606153,6.88537 53.746263,4.51384 M 90,90 c 50,50 -6.775854,124.44424 29.75223,149.3558 50.52173,34.455 76.10175,-27.91411 47.6115,-46.77899 C 141.35725,175.35656 119.22825,211.72145 140,220 c 13.52517,5.39043 20,0 20,-10 M 89.999997,90 c 56.221693,42.37427 109.508833,-27.46879 141.654873,5.026798 36.77881,37.178712 -11.95773,74.011842 -32.40868,52.479702 -22.33086,-23.51142 11.17071,-52.63389 23.49932,-31.0373 8.02755,14.06227 -0.29378,19.99093 -9.89974,16.87473 M 190,220 c 17.04059,-28.96533 -18.4979,-48.18134 -40,-70 27.14758,10.56768 55.14236,33.87982 80,10 m 40.12198,-53.90556 C 265.7281,66.425982 239.23534,33.854639 216.5735,0.05298579 M 282.34482,88.619452 C 274.24207,54.850105 253.20133,26.540884 234.71036,-0.08114848 M 318.66654,132.66592 310,85 355,80 350,30 394.26751,25.081388 M 274.19141,195.95703 265,150 312.56263,141.35225 M 234.44788,252.51548 225,210 270.75383,200.84923 M 199.36178,302.44714 190,265 232.27725,255.60506 M 164.15701,352.54534 150,310 l 47.38281,-4.73828 m -33.2258,47.28362 v 0 M 413.88666,126.9619 C 495.08169,106.91785 535.72552,55.283395 571.73409,0.03794877 M 517.57044,0.06782864 C 501.2008,23.392359 484.40659,43.050629 462.13336,58.11878 M 535.71618,0.08269833 C 510.9162,36.527828 484.96258,66.79404 442.98578,85.599363 M 553.76479,0.07233782 C 522.67182,46.862826 489.10179,87.394369 427.44253,107.52824 m 243.27381,2.95271 C 628.16362,83.296392 600.62172,42.847217 575.75937,0.030202 m 52.70645,0.04221071 C 631.92828,5.5412852 635.42385,10.816889 639.00286,15.888793 M 610.81165,0.12494178 C 623.60344,21.076901 636.86303,40.05933 652.73515,56.208033 M 593.29254,0.18004176 C 612.8601,33.123416 633.7393,63.00243 662.61764,85.62946 M 340,265 c 10,55 -15,45 0,25 m 85,-90 c 32.57023,-21.83347 65.33389,-43.27456 130,0 -2.10123,-1.04787 2.38751,5.29878 0.44706,3.98575 C 520,180 475.76995,168.20552 425,200 v 0 m 180,-5 c 31.43942,-37.47882 60,-20 85,-10 -25,-5 -60,-20 -85,15 v -5 0 m 0,0 c -10,90 20.91232,95.60816 20,150 0,10 -30,5 -30,20 m -35,-45 c -21.32172,0.13819 -52.19824,34.45012 -10,35 7.17243,0.0935 17.26144,-10.36646 22.04093,-10.04518 C 610.65882,347.55068 571.16424,350.23401 560,350 m -35,40 v 10 l 5,-5 -5,-5 v 0 m 105,0 v 10 l -5,-5 5,-5 v 0 m -5,5 c -5,0 -25,-5 -30,-5 -5,0 -10,5 -15,5 -5,0 -15,-5 -20,-5 0,0 5,0 0,0 -5,0 -20,5 -30,5 m 30,20 c 5,15 40,15 40,0 M 435,245 c 28.54448,10.01655 49.29749,-25 75,-25 30,0 44.73189,33.14076 50,30 m -95,-10 c 22.44363,55 85,0 95,10 m 125,-25 c -32.58064,-22.58411 -65,15 -80,20 15,0 65,35 77.77731,-13.84129 m -333.59832,110.357 c -0.0904,-0.0285 -0.18069,-0.0571 -0.27105,-0.0857 m 1.79544,11.03217 c -2.86788,-0.89247 -5.74221,-1.79918 -8.62352,-2.71994 m 68.6675,90.9609 c -43.19884,-9.51292 -86.25868,-22.3457 -130.31914,-37.86168 m 38.58329,-71.2791 c -5.28878,-1.81429 -10.60792,-3.67332 -15.96073,-5.57603 m 28.69821,20.40474 c -10.57285,-3.47971 -21.24694,-7.14358 -32.04782,-10.98287 m 55.83774,28.98505 c -19.18355,-5.81079 -38.60932,-12.26005 -58.42685,-19.29306 m 64.7139,31.58371 c -22.01927,-6.44924 -44.29516,-13.74304 -67.04148,-21.79758 m 74.3844,34.28755 C 343.91802,382.06545 318.411,373.84158 292.34412,364.62982 m 85.16653,37.1821 c -28.90431,-7.76992 -58.04044,-17.00757 -87.83552,-27.5206 m 97.26299,40.29025 C 353.9155,406.17117 320.72173,395.83728 286.7624,383.86723 m 111.15809,43.68271 C 360.19033,418.54773 322.40401,407.0239 283.7386,393.40582 m 436.93224,53.26573 c -32.20545,5.73775 -63.26597,9.4751 -93.49145,11.38516 m 41.8624,-53.99159 c -4.15804,0.5256 -8.29465,1.0148 -12.41092,1.46804 m 23.03494,7.19033 c -9.52249,1.31267 -18.93452,2.43817 -28.24793,3.38148 m 38.53887,5.22844 c -14.8728,2.2081 -29.48172,3.96795 -43.86771,5.298 m 54.3815,3.18675 c -20.59349,3.27432 -40.69267,5.70423 -60.39608,7.33737 m 70.41276,1.14231 c -26.24967,4.42618 -51.71709,7.50266 -76.58735,9.32557 m -423.33972,105.14013 15.02011,-46.5623 m 70.86304,-66.17783 -44.98125,126.76535 m 80.30304,-115.64634 -37.41589,128.877 m 77.57508,-117.71658 -32.47414,129.89661 m 68.8604,-121.38695 -20.68051,132.35534 m 44.37973,8.18719 c 4.3371,-43.8719 6.40699,-90.011 10.62017,-134.00682 m 32.88286,139.70451 3.83102,-134.08592 m 40.24374,138.00978 -3.94761,-134.21875 m 47.89791,136.17956 -15.96777,-131.73424 m 58.67867,131.64826 -26.88317,-122.89446 m 72.41519,120.678 -45.25494,-131.65072 M 690.02902,617.15831 639.73058,487.22066 M 735.78169,610.96075 676.36556,483.64048 M 782.47432,602.4572 708.48437,479.14062 M 836.41814,589.92564 737.61062,473.9342 M 245.96003,365.75143 c 1.54975,37.59103 -1.76681,78.67292 -6.76412,120.9605 M 261.09004,344.2518 c 1.2114,36.59137 -2.04373,76.38684 -6.8769,117.31429 M 276.04559,322.9662 c 1.17666,32.63688 -1.24171,67.85269 -5.1928,104.16801 M 229.5475,389.12216 c 1.68233,37.378 -1.51647,78.25761 -6.44048,120.37447 m -8.50506,-99.12239 c 1.53279,36.48035 -1.53138,76.25834 -6.27616,117.24195 m -8.67161,-95.95223 c 1.35386,34.73352 -1.41091,72.42157 -5.79317,111.26993 m -9.15849,-89.98007 c 1.16759,32.44986 -1.21776,67.44845 -5.1293,103.54186 m -9.82368,-82.17528 c 0.97587,29.7057 -0.98897,61.52094 -4.34988,94.33766 m -10.77863,-72.82381 c 1.07928,26.37005 -0.2334,54.45597 -2.83905,83.46942 m -12.31666,-61.92514 c 1.11201,22.5837 0.41353,46.46616 -1.39304,71.14352 m -13.54832,-49.91528 c 0.86943,18.79858 0.49838,38.48702 -0.71056,58.77653 m -17.70532,-32.57573 c 0.4388,13.77958 0.24738,28.01124 -0.42041,42.58464 M 91.147659,586.1102 c 0.266216,9.20636 0.254421,18.61216 0.01022,28.18467 M 290.9993,301.73134 c 0.94371,24.24581 -0.11906,49.93097 -2.33766,76.44526 m 809.00076,884.5147 C 1073.7319,1017.7899 986.60455,985.39506 892.34918,857.56527 l 132.97212,-159.9126 m 8.653,435.71113 -58.09149,42.5678 c -8.06399,7.6989 -8.27681,20.5048 -0.47312,28.4675 7.80369,7.9626 20.61125,8.008 28.47121,0.1009 l 48.1684,-54.1611 m -35.3565,-140.9891 -31.07561,-22.70918 c -3.22059,-2.42382 -7.09834,-3.81807 -11.125,-4 -8.86586,-0.4018 -16.9363,5.08651 -19.82127,13.47947 -2.88497,8.39301 0.1055,17.68331 7.3447,22.81741 l 64.79098,39.8776 m 0,0 -59.60152,-27.5397 c -1.91289,-0.5963 -3.90452,-0.9018 -5.9082,-0.9063 -9.99821,-0.022 -18.47691,7.3422 -19.85499,17.245 -1.37809,9.9028 4.76778,19.3022 14.39209,22.0109 l 64.38182,14.6752 m 0,0 -61.16892,-4.6403 c -11.11403,0.6676 -19.54365,10.2821 -18.75212,21.388 0.79153,11.1059 10.49949,19.4277 21.59586,18.5123 l 60.53068,-10.6327 m 0,0 -61.28458,15.9827 c -10.33199,4.2161 -15.21595,16.0712 -10.85201,26.3416 4.36393,10.2704 16.28787,14.9837 26.49459,10.4728 l 57.195,-28.3608 m 18.075,16.9751 -46.8208,73.9267 c -4.8138,10.0679 -0.458,22.1278 9.6783,26.796 10.1363,4.6682 22.1321,0.1389 26.6537,-10.0636 l 29.2862,-82.6776 m 0,0 -25.1729,104.7753 c -1.4688,11.0677 6.4073,21.1951 17.4958,22.497 11.0886,1.3018 21.0962,-6.726 22.2308,-17.8329 l 6.3245,-53.8874 M 1145,955 c 10,35 -35,60 -45,-10 -10,70 -55,45 -45,10 -35,10 -60,-35 10,-45 -70,-10 -45,-55 -10,-45 -10,-35 35,-60 45,10 10,-70 55,-45 45,-10 35,-10 60,35 -10,45 70,10 45,55 10,45 v 0 m 125.0102,136.4402 c -10,-70 -55,-45 -45,-10 -35,-10 -60,35 10,45 m -44.5139,-27.4443 c -19.8621,-6.9528 -37.3326,-16.2931 -51.4143,-29.1111 -25.365,-23.0888 -41.3725,-57.8826 -41.0704,-114.58192 m -18.1366,32.13371 c 5.2044,43.73331 21.51,75.17981 45.7441,97.23921 27.6905,25.2056 64.3174,37.7916 104.2446,45.1588 m 53.7743,-53.2991 c -6.9037,-37.4041 -17.9269,-72.7094 -39.0931,-101.52378 -17.3971,-23.68336 -41.7632,-42.33819 -75.1124,-53.48035 m 7.6999,24.0108 c 22.292,9.90447 38.6564,24.1035 51.2953,41.30939 14.5321,19.78314 24.032,44.13144 30.6785,71.04864 M 936.39492,865.38804 c 2.93009,3.26584 6.0073,6.3595 9.22422,9.28774 24.94198,22.70376 57.13436,35.16872 92.45836,42.80357 m -13.3094,-23.99525 c -25.80202,-7.27415 -48.32085,-17.79241 -65.68607,-33.59933 -5.6113,-5.10776 -10.76466,-10.78836 -15.3848,-17.15223 m 77.56787,-93.26244 c 10.7027,7.86656 19.5996,17.08568 27.1626,27.38146 11.3212,15.412 19.5883,33.5947 25.8314,53.60423 m 28.4607,31.24463 c -6.3141,-32.31797 -15.9312,-62.90998 -32.7963,-88.89958 M 1030,825 a 15,15 0 0 1 -15,15 15,15 0 0 1 -15,-15 15,15 0 0 1 15,-15 15,15 0 0 1 15,15 v 0 m 160,195 a 15,15 0 0 1 -15,15 15,15 0 0 1 -15,-15 15,15 0 0 1 15,-15 15,15 0 0 1 15,15 v 0 m -30,130 a 15,15 0 0 1 -15,15 15,15 0 0 1 -15,-15 15,15 0 0 1 15,-15 15,15 0 0 1 15,15 v 0 m 70.8592,-24.3414 -3.2617,3.7129 m 40.8087,-46.4532 -37.547,42.7403 m 50.9885,-58.041 -13.4415,15.3007 m 31.5943,-35.9644 -18.1528,20.6637 m -71.0372,58.1351 -87.4292,99.5221 m 176.618,-201.0472 -22.2579,25.3365 m -83.0734,71.8361 -74.1171,84.3689 m 136.4507,-155.3241 -2.1246,2.4184 m 45.1224,-51.3636 -27.2209,30.986 m -134.8262,130.7474 -20.608,23.4584 m 61.9133,-70.477 -22.0502,25.1001 m 67.1289,-76.4138 -13.6078,15.4898 m 41.1154,-46.8024 -11.8403,13.4781 m 59.9962,-68.29459 -33.032,37.60079 m -136.9452,133.1591 -16.3141,18.5708 m 50.9549,-58.0028 -22.0504,25.1002 m 103.2133,-117.4893 -67.2783,76.5841 m 118.2158,-134.56711 -36.4903,41.53751 m -109.3172,101.7099 -41.3048,47.018 m 129.0598,-146.9108 -74.2211,84.487 m 120.6893,-137.38259 -32.5353,37.03544 m -114.4369,107.53765 -33.0092,37.5749 m 125.2329,-142.55467 -78.9384,89.85687 m 122.1018,-138.99041 -29.5904,33.68319 m -117.5256,111.05372 -26.2691,29.9026 m 70.9788,-80.7963 -31.513,35.8718 m 81.28,-92.52251 -32.0719,36.50801 m 73.1261,-83.24068 -27.7361,31.57237 m -118.3878,112.03511 -20.9513,23.8493 m 65.5878,-74.6597 -31.3393,35.674 m 81.2945,-92.53864 -33.4814,38.11224 m 73.4293,-83.58566 -26.8573,30.57211 m -117.056,110.51905 -17.5491,19.9764 m 109.7562,-124.93747 -78.614,89.48777 m 118.7349,-135.158 -27.031,30.76981 m -113.4671,106.43389 -15.566,17.7191 m 102.9579,-117.19872 -73.2506,83.38242 m 114.7717,-130.64659 -28.2988,32.213 m -107.5291,99.67459 -15.5277,17.6754 m 55.4282,-63.09476 -24.9228,28.37006 m 53.9915,-61.4594 -14.9441,17.011 m 70.2187,-79.93107 -30.5492,34.77474 m -99.2965,90.30303 -17.1334,19.5033 m 46.9392,-53.43167 -13.6854,15.57825 m 68.3592,-77.81439 -0.1909,0.21729 m 33.9717,-38.67062 -33.7808,38.45333 m -88.4944,78.00695 -20.7405,23.60926 m 45.9832,-52.34339 -7.8872,8.97815 M 1192.5,873.8638 1156.3359,915.03 m -85.2906,74.36011 -18.1546,20.66559 m 45.2247,-51.47994 -1.266,1.44111 m 4.9223,-5.60315 -3.6563,4.16204 m 43.8198,-49.88085 -1.9665,2.23852 m 40.9472,-46.61093 -6.1599,7.0119 m -116.4491,109.8282 -13.8416,15.75616 m 124.8652,-142.13615 -8.3082,9.45745 m -107.3099,99.4249 -18.1208,20.62724 m 122.1547,-139.05075 -11.4905,13.07987 m -105.783,97.68682 -14.0627,16.0078 m 119.7503,-136.31366 -3.7641,4.28478 m -116.2188,109.56596 -9.1504,10.41609 m 44.4753,-50.62692 -1.3848,1.57621 m 42.1562,-47.98694 -3.7423,4.25979 m 36.0446,-41.03006 -4.0637,4.62575 m -108.8802,101.21232 -14.2498,16.22089 m 23.5784,-26.83967 -9.3286,10.61878 m 13.3922,-15.24449 -4.0636,4.62571 m 92.0309,-104.76031 -24.2406,27.59349 m -80.0423,68.38579 -21.13873,24.06253 m 113.83643,-129.58188 -17.2504,19.63641 m -91.0698,80.93878 -15.40972,17.541 m 33.63802,-38.29067 -3.7247,4.24 m 36.559,-41.61584 -12.5381,14.27228 m 31.6999,-36.08449 -2.5438,2.89567 m 29.0547,-33.07344 -11.2711,12.83009 m -100.32142,91.4698 -10.51407,11.96835 m 89.70699,-102.11491 -65.1541,74.16594 m 85.9684,-97.8593 -6.1307,6.97865 m -107.76444,99.9424 -6.58735,7.49849 m 92.78139,-105.61464 -72.59638,82.63771 m 88.71318,-100.98369 -1.972,2.24472 m -113.29093,106.23337 -3.55398,4.04555 m 47.73131,-54.33335 -30.88277,35.15439 m 77.88337,-88.65594 -27.2357,31.00282 m -75.91101,63.68302 -1.41028,1.60535 m 53.43959,-60.83122 -38.85733,44.23199 m 44.35683,-50.49212 -5.4995,6.26013 m 42.1072,-47.93128 -36.6077,41.67115 m -68.43532,55.17344 -0.14794,0.1684 M 1033.2666,759.6619 951.7215,852.48613 M 264.2633,633.31092 7.6860364e-4,897.57345"
       id="path5099" />
  </g>
  <g
     id="use4953"
     transform="matrix(-0.12676923,0,0,-0.13039999,45.180373,93.953301)">
    <path
       stroke="#4444ff"
       stroke-linecap="round"
       stroke-linejoin="round"
       stroke-width="6"
       fill="none"
       d="m 485.03158,934.42498 c 143.122,31.82189 266.35778,13.76468 371.35552,-21.99406 m -371.68062,-8.81535 c 157.12304,36.79926 286.77525,11.0833 397.60697,-32.62204 M 507.8709,679.88731 594.94776,860.2608 M 755.58856,847.99301 674.04692,679.08532 M 892.3716,857.6194 C 872.05375,824.92318 860,784.17717 860,740.00001 860,685.41104 878.40502,636.06115 908.06483,600.66467 M 1097.6624,1262.6913 C 1073.7319,1017.7899 986.60455,985.39506 892.34918,857.56527 L 1025.3213,697.65267 M 1300,923.52939 660.36646,396.77238 M 321.45731,618.5427 0.7881782,939.21182 M 321.11444,618.5687 C 419.81972,682.9473 485.00001,793.9098 485,920 c 0,83.9443 -28.88925,161.1837 -77.3271,222.4363 M 166.038,568.34901 c 222.81109,85.35138 455.93513,122.60795 741.86439,32.31538 M 674.01345,678.6497 c 66.7823,-5.85221 136.09872,-18.43056 208.50319,-39.04281 m -507.72271,21.67485 c 43.55367,8.76621 87.97745,15.08862 133.48146,18.47118 M 137.30591,589.35253 c 41.73357,16.4725 83.9593,31.37992 126.89836,44.20017 M 880.08828,577.82622 C 615.67717,656.77021 400.5566,624.01524 191.24175,545.83173 m 646.67791,-2.76909 C 603.55429,606.59044 413.04972,578.62896 222.99457,509.62891 M 809.31425,519.551 C 593.8867,573.65203 418.53077,547.90808 240.76659,484.20024 m 539.5806,11.50391 C 583.1255,540.99159 422.04886,516.86708 256.15981,457.9 m 284.95463,30.68728 C 447.65313,483.96092 359.64688,462.80771 269.29997,430.79794 m 481.63585,40.68049 c -52.35787,10.78978 -101.99097,16.48181 -149.86263,17.77681 m -73.67654,162.07629 101.5475,210.34839 M 725.31516,854.2858 627.6954,652.07344 m -66.24274,0.79474 100.64961,208.48849 m 31.96405,-2.79266 -99.31297,-205.71973 M 475.9067,839.52614 c 160.52552,43.72061 283.21622,17.46565 395.16135,-28.66323 M 481.999,872.11521 c 160.35182,40.14495 287.86269,12.70114 399.98701,-33.31236 M -1.4116988e-4,715.76944 502.97284,1.9287502e-4 M 307.83585,277.85707 C 288.6818,469.58426 186.99268,581.9841 63.685101,625.48128 m 418.571959,339.0487 c 58.99882,12.80161 114.94462,17.45078 167.74985,16.06718 M 484.15768,944.47291 c 58.49244,12.89853 113.77543,17.57368 165.89044,16.17753 m -166.67364,-6.11332 c 58.68418,12.82399 114.24447,17.47795 166.65653,16.09139 m -169.13421,3.83718 c 59.41682,12.8315 115.83945,17.49819 169.11944,16.12003 m -0.0232,28.81708 c -68.59965,1.7975 -131.89902,13.7763 -189.70618,31.2892 m 18.90431,-66.3648 c 59.96512,12.91581 116.97404,17.6217 170.82327,16.2467 m -0.0288,-1.14778 c -65.25657,1.66638 -125.87293,12.26298 -181.48692,28.00128 m 181.45317,11.9222 c -72.95114,1.9543 -139.69471,15.8052 -200.3445,35.6497 M 649.969,1029.3715 c -70.62493,1.8684 -135.53349,14.7048 -194.66613,33.299 m 194.6809,-53.2562 c -66.82646,1.7285 -128.70906,12.9665 -185.35488,29.531 m 12.64566,-44.80119 c 16.69905,3.59241 33.17656,6.55709 49.42678,8.93839 m 0.55838,-0.033 c -18.98768,3.7396 -37.47323,8.138 -55.44302,13.0716 M 980.55984,751.45048 C 980.19511,747.74401 980,743.9216 980,740 c 0,-27.61646 9.95229,-50.2213 20.043,-62.26367 M 933.78327,807.73717 C 925.19681,788.13084 920,765.00536 920,740 c 0,-41.10271 14.17944,-77.0794 34.05469,-100.79883 M 912.76128,833.01148 C 898.55613,806.77026 890,774.74556 890,740 c 0,-47.84584 16.29107,-90.51041 41.05859,-120.06836 m 193.76871,615.31006 c -13.6147,-111.338 -41.9586,-181.004 -78.5089,-235.68701 -35.0498,-52.43804 -75.12401,-89.99155 -115.57426,-141.24414 L 1029.582,739.4505 m 0.1142,0.33891 L 1300,962.39258 m -234.5938,332.20122 -20.9648,-13.6739 C 978.33595,1237.8039 934.99999,1164.7355 935,1080 c 0,-47.1817 13.33289,-90.31613 36.64777,-127.13443 m 72.08013,363.40683 -15.6752,-10.2236 C 953.79732,1257.6172 904.99999,1175.0742 905,1080 c 0,-56.1874 16.95622,-107.635 46.22992,-150.684 m 49.14268,430.3117 -5.09721,-3.325 C 904.72007,1297.2398 844.99999,1195.7515 845,1080 c 0,-74.3601 24.61207,-142.69129 66.25403,-197.86726 M 1081.423,1159.8939 A 65,70.000002 0 0 1 1020,1090 a 65,70.000002 0 0 1 17.2914,-47.5421 m 58.5998,-287.50965 C 1098.8365,739.39043 1109.2716,692.50071 1130,680 c 25.8422,-15.58472 34.7227,-11.66816 62.0363,-30.6826 31.5804,-21.98475 61.1325,0.18596 20,25 C 1177.5471,695.12376 1180,690 1165,695 c 15,35 10,60 -10,70 m 75,-82.42391 c 44.0224,-16.04252 67.8996,3.1383 10,22.42391 -82.8831,27.60727 -70.7182,-0.29718 -10,-22.42391 v 0 m 1.7243,-28.19675 c 39.5361,-13.04311 58.9983,5.44577 5.1115,24.03198 -28.2551,9.74552 -45.0721,12.57356 -52.426,11.18018 m 52.2578,16.39591 c 42.5132,-16.04252 65.5718,3.1383 9.6572,22.42391 -80.0415,27.60727 -68.2937,-0.29718 -9.6572,-22.42391 v 0 m 9.9539,23.80112 c 38.2905,-14.16582 57.6795,5.99876 7.4085,22.8183 -71.9628,24.07711 -60.2208,-3.28001 -7.4085,-22.8183 v 0 m -3.824,46.31563 c 9.1591,-9.43695 15.7422,-18.44975 17.2025,-25.6478 m -79.7611,74.44538 c 14.7069,-9.09632 34.5296,-23.21383 50.7715,-37.60398 m -12.9344,-25.58094 c 13.8007,28.30906 34.2697,51.29962 14.5596,106.33602 m 12.4137,9.65339 c 12.6916,-33.1171 12.7242,-58.55482 6.7671,-78.83709 -4.6665,-15.88828 -12.0275,-28.08515 -17.9714,-39.34747 M 1160,520 c -15,-55 -85,15 -30,30 -55,15 15,85 30,30 15,55 85,-15 30,-30 55,-15 -15,-85 -30,-30 v 0 m 16.1584,30 A 16.15836,16.335621 0 0 1 1160.0001,566.33562 16.15836,16.335621 0 0 1 1143.8417,550 16.15836,16.335621 0 0 1 1160.0001,533.66438 16.15836,16.335621 0 0 1 1176.1584,550 v 0 m -43.6253,-49.6755 c -36.2897,-73.766 91.2235,-73.766 54.9338,0 m 22.2086,22.20855 c 73.766,-36.2896 73.766,91.2235 0,54.9339 m -22.2086,22.20855 c 36.2897,73.766 -91.2235,73.766 -54.9338,0 m -22.2086,-22.20855 c -73.766,36.2896 -73.766,-91.2235 0,-54.9339 M 1130,550 h -45 m 5,0 a 5,5 0 0 1 -5,5 5,5 0 0 1 -5,-5 5,5 0 0 1 5,-5 5,5 0 0 1 5,5 v 0 m 70,-30 v -45 m 0,5 a 5,5 0 0 1 -5,-5 5,5 0 0 1 5,-5 5,5 0 0 1 5,5 5,5 0 0 1 -5,5 v 0 m 30,70 h 45 m -5,0 a 5,5 0 0 1 5,-5 5,5 0 0 1 5,5 5,5 0 0 1 -5,5 5,5 0 0 1 -5,-5 v 0 m -70,30 v 45 m 0,-5 a 5,5 0 0 1 5,5 5,5 0 0 1 -5,5 5,5 0 0 1 -5,-5 5,5 0 0 1 5,-5 v 0 M 1171.4824,538.51758 1185,525 m 5,0 a 5,5 0 0 1 -5,5 5,5 0 0 1 -5,-5 5,5 0 0 1 5,-5 5,5 0 0 1 5,5 v 0 M 1171.4785,561.4785 1185,575 m 0,5 a 5,5 0 0 1 -5,-5 5,5 0 0 1 5,-5 5,5 0 0 1 5,5 5,5 0 0 1 -5,5 v 0 M 1148.5214,538.52147 1135,525 m -5,0 a 5,5 0 0 0 5,5 5,5 0 0 0 5,-5 5,5 0 0 0 -5,-5 5,5 0 0 0 -5,5 v 0 m 18.5176,36.48242 L 1135,575 m 0,5 a 5,5 0 0 0 5,-5 5,5 0 0 0 -5,-5 5,5 0 0 0 -5,5 5,5 0 0 0 5,5 v 0 m 35.154,73.59002 3.9163,6.52717 m 11.8842,-15.19304 3.6027,6.00443 m -50.0516,23.78527 C 1107.7774,656.41489 1072.8728,648.40163 1035,650 m 104.6173,24.66345 C 1093.7666,634.37463 1047.6798,605.65095 1000,655 c 39.672,4.95901 54.7524,44.34643 137.9233,20.60187 M 1220,640 c 16.7012,-23.16996 35.5056,-41.46768 65,-35 -3.6652,22.35187 -25.7158,34.30744 -50,45 M 660.96204,0.18069302 C 784.15661,169.41306 895.37403,279.50213 908.01794,600.72065 M 642.28928,25.465998 C 760.63234,186.74827 859.7994,286.03061 876.72152,574.87324 M 682.77731,231.15871 c 47.13328,70.39385 80.46535,143.36467 96.29575,263.20486 M 679.48569,282.29359 c 3.5673,6.09029 7.01164,12.23267 10.33072,18.45641 24.30689,45.57873 42.87813,96.27209 54.71898,165.254 M 4.3799013e-4,586.15323 411.89187,3.0476709e-5 M 631.461,-5.8444137 C 640.64356,20.329826 690,161.86046 690,180 c 0,20 -10,60 -10,70 0,10 0,80 -10,120 -10,40 -60,130 -90,130 -30,0 -70.35359,-34.5924 -100,-30 -70.89083,10.98139 -142.66891,-126.59772 -130,-130 0,0 -5.34683,10.75511 -10,10 -17.89028,-2.90319 -28.81136,-31.8408 -34.62511,-54.08689 M 164.15701,352.54534 C 130.48424,313.77184 71.375583,310.31228 10,310 c 24.698102,-11.30176 55.317996,-13.78843 70,-40 19.510248,12.83927 44.29527,11.37142 70.35785,6.43837 m -32.46317,46.17305 C 193.46144,215.0741 269.0282,107.53678 344.59497,-5.3651708e-4 M 117.89468,322.61142 v 0 M 50.196901,311.19506 c 1.458803,-0.57067 2.924804,-1.16416 4.394896,-1.7849 10.374595,-4.38067 21.251125,-10.63365 30.03125,-20.34571 17.086673,6.83797 35.606153,6.88537 53.746263,4.51384 M 90,90 c 50,50 -6.775854,124.44424 29.75223,149.3558 50.52173,34.455 76.10175,-27.91411 47.6115,-46.77899 C 141.35725,175.35656 119.22825,211.72145 140,220 c 13.52517,5.39043 20,0 20,-10 M 89.999997,90 c 56.221693,42.37427 109.508833,-27.46879 141.654873,5.026798 36.77881,37.178712 -11.95773,74.011842 -32.40868,52.479702 -22.33086,-23.51142 11.17071,-52.63389 23.49932,-31.0373 8.02755,14.06227 -0.29378,19.99093 -9.89974,16.87473 M 190,220 c 17.04059,-28.96533 -18.4979,-48.18134 -40,-70 27.14758,10.56768 55.14236,33.87982 80,10 m 40.12198,-53.90556 C 265.7281,66.425982 239.23534,33.854639 216.5735,0.05298579 M 282.34482,88.619452 C 274.24207,54.850105 253.20133,26.540884 234.71036,-0.08114848 M 318.66654,132.66592 310,85 355,80 350,30 394.26751,25.081388 M 274.19141,195.95703 265,150 312.56263,141.35225 M 234.44788,252.51548 225,210 270.75383,200.84923 M 199.36178,302.44714 190,265 232.27725,255.60506 M 164.15701,352.54534 150,310 l 47.38281,-4.73828 m -33.2258,47.28362 v 0 M 413.88666,126.9619 C 495.08169,106.91785 535.72552,55.283395 571.73409,0.03794877 M 517.57044,0.06782864 C 501.2008,23.392359 484.40659,43.050629 462.13336,58.11878 M 535.71618,0.08269833 C 510.9162,36.527828 484.96258,66.79404 442.98578,85.599363 M 553.76479,0.07233782 C 522.67182,46.862826 489.10179,87.394369 427.44253,107.52824 m 243.27381,2.95271 C 628.16362,83.296392 600.62172,42.847217 575.75937,0.030202 m 52.70645,0.04221071 C 631.92828,5.5412852 635.42385,10.816889 639.00286,15.888793 M 610.81165,0.12494178 C 623.60344,21.076901 636.86303,40.05933 652.73515,56.208033 M 593.29254,0.18004176 C 612.8601,33.123416 633.7393,63.00243 662.61764,85.62946 M 340,265 c 10,55 -15,45 0,25 m 85,-90 c 32.57023,-21.83347 65.33389,-43.27456 130,0 -2.10123,-1.04787 2.38751,5.29878 0.44706,3.98575 C 520,180 475.76995,168.20552 425,200 v 0 m 180,-5 c 31.43942,-37.47882 60,-20 85,-10 -25,-5 -60,-20 -85,15 v -5 0 m 0,0 c -10,90 20.91232,95.60816 20,150 0,10 -30,5 -30,20 m -35,-45 c -21.32172,0.13819 -52.19824,34.45012 -10,35 7.17243,0.0935 17.26144,-10.36646 22.04093,-10.04518 C 610.65882,347.55068 571.16424,350.23401 560,350 m -35,40 v 10 l 5,-5 -5,-5 v 0 m 105,0 v 10 l -5,-5 5,-5 v 0 m -5,5 c -5,0 -25,-5 -30,-5 -5,0 -10,5 -15,5 -5,0 -15,-5 -20,-5 0,0 5,0 0,0 -5,0 -20,5 -30,5 m 30,20 c 5,15 40,15 40,0 M 435,245 c 28.54448,10.01655 49.29749,-25 75,-25 30,0 44.73189,33.14076 50,30 m -95,-10 c 22.44363,55 85,0 95,10 m 125,-25 c -32.58064,-22.58411 -65,15 -80,20 15,0 65,35 77.77731,-13.84129 m -333.59832,110.357 c -0.0904,-0.0285 -0.18069,-0.0571 -0.27105,-0.0857 m 1.79544,11.03217 c -2.86788,-0.89247 -5.74221,-1.79918 -8.62352,-2.71994 m 68.6675,90.9609 c -43.19884,-9.51292 -86.25868,-22.3457 -130.31914,-37.86168 m 38.58329,-71.2791 c -5.28878,-1.81429 -10.60792,-3.67332 -15.96073,-5.57603 m 28.69821,20.40474 c -10.57285,-3.47971 -21.24694,-7.14358 -32.04782,-10.98287 m 55.83774,28.98505 c -19.18355,-5.81079 -38.60932,-12.26005 -58.42685,-19.29306 m 64.7139,31.58371 c -22.01927,-6.44924 -44.29516,-13.74304 -67.04148,-21.79758 m 74.3844,34.28755 C 343.91802,382.06545 318.411,373.84158 292.34412,364.62982 m 85.16653,37.1821 c -28.90431,-7.76992 -58.04044,-17.00757 -87.83552,-27.5206 m 97.26299,40.29025 C 353.9155,406.17117 320.72173,395.83728 286.7624,383.86723 m 111.15809,43.68271 C 360.19033,418.54773 322.40401,407.0239 283.7386,393.40582 m 436.93224,53.26573 c -32.20545,5.73775 -63.26597,9.4751 -93.49145,11.38516 m 41.8624,-53.99159 c -4.15804,0.5256 -8.29465,1.0148 -12.41092,1.46804 m 23.03494,7.19033 c -9.52249,1.31267 -18.93452,2.43817 -28.24793,3.38148 m 38.53887,5.22844 c -14.8728,2.2081 -29.48172,3.96795 -43.86771,5.298 m 54.3815,3.18675 c -20.59349,3.27432 -40.69267,5.70423 -60.39608,7.33737 m 70.41276,1.14231 c -26.24967,4.42618 -51.71709,7.50266 -76.58735,9.32557 m -423.33972,105.14013 15.02011,-46.5623 m 70.86304,-66.17783 -44.98125,126.76535 m 80.30304,-115.64634 -37.41589,128.877 m 77.57508,-117.71658 -32.47414,129.89661 m 68.8604,-121.38695 -20.68051,132.35534 m 44.37973,8.18719 c 4.3371,-43.8719 6.40699,-90.011 10.62017,-134.00682 m 32.88286,139.70451 3.83102,-134.08592 m 40.24374,138.00978 -3.94761,-134.21875 m 47.89791,136.17956 -15.96777,-131.73424 m 58.67867,131.64826 -26.88317,-122.89446 m 72.41519,120.678 -45.25494,-131.65072 M 690.02902,617.15831 639.73058,487.22066 M 735.78169,610.96075 676.36556,483.64048 M 782.47432,602.4572 708.48437,479.14062 M 836.41814,589.92564 737.61062,473.9342 M 245.96003,365.75143 c 1.54975,37.59103 -1.76681,78.67292 -6.76412,120.9605 M 261.09004,344.2518 c 1.2114,36.59137 -2.04373,76.38684 -6.8769,117.31429 M 276.04559,322.9662 c 1.17666,32.63688 -1.24171,67.85269 -5.1928,104.16801 M 229.5475,389.12216 c 1.68233,37.378 -1.51647,78.25761 -6.44048,120.37447 m -8.50506,-99.12239 c 1.53279,36.48035 -1.53138,76.25834 -6.27616,117.24195 m -8.67161,-95.95223 c 1.35386,34.73352 -1.41091,72.42157 -5.79317,111.26993 m -9.15849,-89.98007 c 1.16759,32.44986 -1.21776,67.44845 -5.1293,103.54186 m -9.82368,-82.17528 c 0.97587,29.7057 -0.98897,61.52094 -4.34988,94.33766 m -10.77863,-72.82381 c 1.07928,26.37005 -0.2334,54.45597 -2.83905,83.46942 m -12.31666,-61.92514 c 1.11201,22.5837 0.41353,46.46616 -1.39304,71.14352 m -13.54832,-49.91528 c 0.86943,18.79858 0.49838,38.48702 -0.71056,58.77653 m -17.70532,-32.57573 c 0.4388,13.77958 0.24738,28.01124 -0.42041,42.58464 M 91.147659,586.1102 c 0.266216,9.20636 0.254421,18.61216 0.01022,28.18467 M 290.9993,301.73134 c 0.94371,24.24581 -0.11906,49.93097 -2.33766,76.44526 m 809.00076,884.5147 C 1073.7319,1017.7899 986.60455,985.39506 892.34918,857.56527 l 132.97212,-159.9126 m 8.653,435.71113 -58.09149,42.5678 c -8.06399,7.6989 -8.27681,20.5048 -0.47312,28.4675 7.80369,7.9626 20.61125,8.008 28.47121,0.1009 l 48.1684,-54.1611 m -35.3565,-140.9891 -31.07561,-22.70918 c -3.22059,-2.42382 -7.09834,-3.81807 -11.125,-4 -8.86586,-0.4018 -16.9363,5.08651 -19.82127,13.47947 -2.88497,8.39301 0.1055,17.68331 7.3447,22.81741 l 64.79098,39.8776 m 0,0 -59.60152,-27.5397 c -1.91289,-0.5963 -3.90452,-0.9018 -5.9082,-0.9063 -9.99821,-0.022 -18.47691,7.3422 -19.85499,17.245 -1.37809,9.9028 4.76778,19.3022 14.39209,22.0109 l 64.38182,14.6752 m 0,0 -61.16892,-4.6403 c -11.11403,0.6676 -19.54365,10.2821 -18.75212,21.388 0.79153,11.1059 10.49949,19.4277 21.59586,18.5123 l 60.53068,-10.6327 m 0,0 -61.28458,15.9827 c -10.33199,4.2161 -15.21595,16.0712 -10.85201,26.3416 4.36393,10.2704 16.28787,14.9837 26.49459,10.4728 l 57.195,-28.3608 m 18.075,16.9751 -46.8208,73.9267 c -4.8138,10.0679 -0.458,22.1278 9.6783,26.796 10.1363,4.6682 22.1321,0.1389 26.6537,-10.0636 l 29.2862,-82.6776 m 0,0 -25.1729,104.7753 c -1.4688,11.0677 6.4073,21.1951 17.4958,22.497 11.0886,1.3018 21.0962,-6.726 22.2308,-17.8329 l 6.3245,-53.8874 M 1145,955 c 10,35 -35,60 -45,-10 -10,70 -55,45 -45,10 -35,10 -60,-35 10,-45 -70,-10 -45,-55 -10,-45 -10,-35 35,-60 45,10 10,-70 55,-45 45,-10 35,-10 60,35 -10,45 70,10 45,55 10,45 v 0 m 125.0102,136.4402 c -10,-70 -55,-45 -45,-10 -35,-10 -60,35 10,45 m -44.5139,-27.4443 c -19.8621,-6.9528 -37.3326,-16.2931 -51.4143,-29.1111 -25.365,-23.0888 -41.3725,-57.8826 -41.0704,-114.58192 m -18.1366,32.13371 c 5.2044,43.73331 21.51,75.17981 45.7441,97.23921 27.6905,25.2056 64.3174,37.7916 104.2446,45.1588 m 53.7743,-53.2991 c -6.9037,-37.4041 -17.9269,-72.7094 -39.0931,-101.52378 -17.3971,-23.68336 -41.7632,-42.33819 -75.1124,-53.48035 m 7.6999,24.0108 c 22.292,9.90447 38.6564,24.1035 51.2953,41.30939 14.5321,19.78314 24.032,44.13144 30.6785,71.04864 M 936.39492,865.38804 c 2.93009,3.26584 6.0073,6.3595 9.22422,9.28774 24.94198,22.70376 57.13436,35.16872 92.45836,42.80357 m -13.3094,-23.99525 c -25.80202,-7.27415 -48.32085,-17.79241 -65.68607,-33.59933 -5.6113,-5.10776 -10.76466,-10.78836 -15.3848,-17.15223 m 77.56787,-93.26244 c 10.7027,7.86656 19.5996,17.08568 27.1626,27.38146 11.3212,15.412 19.5883,33.5947 25.8314,53.60423 m 28.4607,31.24463 c -6.3141,-32.31797 -15.9312,-62.90998 -32.7963,-88.89958 M 1030,825 a 15,15 0 0 1 -15,15 15,15 0 0 1 -15,-15 15,15 0 0 1 15,-15 15,15 0 0 1 15,15 v 0 m 160,195 a 15,15 0 0 1 -15,15 15,15 0 0 1 -15,-15 15,15 0 0 1 15,-15 15,15 0 0 1 15,15 v 0 m -30,130 a 15,15 0 0 1 -15,15 15,15 0 0 1 -15,-15 15,15 0 0 1 15,-15 15,15 0 0 1 15,15 v 0 m 70.8592,-24.3414 -3.2617,3.7129 m 40.8087,-46.4532 -37.547,42.7403 m 50.9885,-58.041 -13.4415,15.3007 m 31.5943,-35.9644 -18.1528,20.6637 m -71.0372,58.1351 -87.4292,99.5221 m 176.618,-201.0472 -22.2579,25.3365 m -83.0734,71.8361 -74.1171,84.3689 m 136.4507,-155.3241 -2.1246,2.4184 m 45.1224,-51.3636 -27.2209,30.986 m -134.8262,130.7474 -20.608,23.4584 m 61.9133,-70.477 -22.0502,25.1001 m 67.1289,-76.4138 -13.6078,15.4898 m 41.1154,-46.8024 -11.8403,13.4781 m 59.9962,-68.29459 -33.032,37.60079 m -136.9452,133.1591 -16.3141,18.5708 m 50.9549,-58.0028 -22.0504,25.1002 m 103.2133,-117.4893 -67.2783,76.5841 m 118.2158,-134.56711 -36.4903,41.53751 m -109.3172,101.7099 -41.3048,47.018 m 129.0598,-146.9108 -74.2211,84.487 m 120.6893,-137.38259 -32.5353,37.03544 m -114.4369,107.53765 -33.0092,37.5749 m 125.2329,-142.55467 -78.9384,89.85687 m 122.1018,-138.99041 -29.5904,33.68319 m -117.5256,111.05372 -26.2691,29.9026 m 70.9788,-80.7963 -31.513,35.8718 m 81.28,-92.52251 -32.0719,36.50801 m 73.1261,-83.24068 -27.7361,31.57237 m -118.3878,112.03511 -20.9513,23.8493 m 65.5878,-74.6597 -31.3393,35.674 m 81.2945,-92.53864 -33.4814,38.11224 m 73.4293,-83.58566 -26.8573,30.57211 m -117.056,110.51905 -17.5491,19.9764 m 109.7562,-124.93747 -78.614,89.48777 m 118.7349,-135.158 -27.031,30.76981 m -113.4671,106.43389 -15.566,17.7191 m 102.9579,-117.19872 -73.2506,83.38242 m 114.7717,-130.64659 -28.2988,32.213 m -107.5291,99.67459 -15.5277,17.6754 m 55.4282,-63.09476 -24.9228,28.37006 m 53.9915,-61.4594 -14.9441,17.011 m 70.2187,-79.93107 -30.5492,34.77474 m -99.2965,90.30303 -17.1334,19.5033 m 46.9392,-53.43167 -13.6854,15.57825 m 68.3592,-77.81439 -0.1909,0.21729 m 33.9717,-38.67062 -33.7808,38.45333 m -88.4944,78.00695 -20.7405,23.60926 m 45.9832,-52.34339 -7.8872,8.97815 M 1192.5,873.8638 1156.3359,915.03 m -85.2906,74.36011 -18.1546,20.66559 m 45.2247,-51.47994 -1.266,1.44111 m 4.9223,-5.60315 -3.6563,4.16204 m 43.8198,-49.88085 -1.9665,2.23852 m 40.9472,-46.61093 -6.1599,7.0119 m -116.4491,109.8282 -13.8416,15.75616 m 124.8652,-142.13615 -8.3082,9.45745 m -107.3099,99.4249 -18.1208,20.62724 m 122.1547,-139.05075 -11.4905,13.07987 m -105.783,97.68682 -14.0627,16.0078 m 119.7503,-136.31366 -3.7641,4.28478 m -116.2188,109.56596 -9.1504,10.41609 m 44.4753,-50.62692 -1.3848,1.57621 m 42.1562,-47.98694 -3.7423,4.25979 m 36.0446,-41.03006 -4.0637,4.62575 m -108.8802,101.21232 -14.2498,16.22089 m 23.5784,-26.83967 -9.3286,10.61878 m 13.3922,-15.24449 -4.0636,4.62571 m 92.0309,-104.76031 -24.2406,27.59349 m -80.0423,68.38579 -21.13873,24.06253 m 113.83643,-129.58188 -17.2504,19.63641 m -91.0698,80.93878 -15.40972,17.541 m 33.63802,-38.29067 -3.7247,4.24 m 36.559,-41.61584 -12.5381,14.27228 m 31.6999,-36.08449 -2.5438,2.89567 m 29.0547,-33.07344 -11.2711,12.83009 m -100.32142,91.4698 -10.51407,11.96835 m 89.70699,-102.11491 -65.1541,74.16594 m 85.9684,-97.8593 -6.1307,6.97865 m -107.76444,99.9424 -6.58735,7.49849 m 92.78139,-105.61464 -72.59638,82.63771 m 88.71318,-100.98369 -1.972,2.24472 m -113.29093,106.23337 -3.55398,4.04555 m 47.73131,-54.33335 -30.88277,35.15439 m 77.88337,-88.65594 -27.2357,31.00282 m -75.91101,63.68302 -1.41028,1.60535 m 53.43959,-60.83122 -38.85733,44.23199 m 44.35683,-50.49212 -5.4995,6.26013 m 42.1072,-47.93128 -36.6077,41.67115 m -68.43532,55.17344 -0.14794,0.1684 M 1033.2666,759.6619 951.7215,852.48613 M 264.2633,633.31092 7.6860364e-4,897.57345"
       id="path5103" />
  </g>
  <g
     id="use4955"
     transform="matrix(0.12676923,0,0,0.13039999,-119.61963,-166.84669)">
    <path
       stroke="#4444ff"
       stroke-linecap="round"
       stroke-linejoin="round"
       stroke-width="3"
       fill="none"
       d="m 1200,695 c 4.4115,6.18328 6.9487,12.69664 5,20 m -0.6646,4.98234 c 4.4115,6.18328 6.9487,12.69664 5,20 m 6.8318,2.98097 c 4.4115,6.18328 6.9487,12.69664 5,20 M 1195,650 c 1.0298,15.05623 40.2085,0.0599 35,-5 M 550,455 c 15.3233,-7.55931 30.58277,-14.28434 45,-10 M 545,270 c -8.28172,10.54753 -23.95381,12.97919 -40,15 m 140,-10 c 16.67724,2.19986 19.87524,-1.84649 25,-5 M 445,225 c 25,0 48.60183,-42.3991 90,0 m 68.00603,3.10284 C 615,225 647.5,177.5 685,220 m -157.48444,4.23824 c 1.58324,3.94455 2.48442,8.48077 2.48442,13.30688 0,15.21274 -8.95431,27.54511 -20,27.54511 -11.04569,0 -20,-12.33237 -20,-27.54511 0,-4.51509 0.78877,-8.77645 2.18688,-12.53697 m 181.44877,-5.02789 C 674.51651,223.08558 675,226.46503 675,230 c 0,15.21274 -8.95431,27.54511 -20,27.54511 -11.04569,0 -20,-12.33237 -20,-27.54511 0,-1.30414 0.0658,-2.5871 0.19309,-3.84295 m 138.9198,362.78685 c 16.8774,-3.38935 33.95469,-7.24736 51.24581,-11.59432 m -222.42728,30.84537 c 14.44484,-0.31868 29.01838,-0.97612 43.7316,-1.98827 m -127.55437,0.0587 c 14.07372,0.95839 28.25601,1.60536 42.55807,1.92461 M 433.29641,596.50094 c 14.1116,2.24365 28.31431,4.1914 42.62039,5.82532 M 342.9985,577.99935 c 15.54242,3.87955 31.16702,7.43166 46.89144,10.63061 m -133.4899,-35.71154 c 13.96978,4.58099 27.98051,8.92908 42.04566,13.02466 m 470.23201,13.89762 c 16.28431,-3.21757 32.76049,-6.87567 49.44233,-10.99284 m -217.34167,29.45681 c 14.05521,-0.28412 28.23425,-0.89302 42.54823,-1.84167 m -124.50601,-0.16292 c 13.77471,0.95236 27.65376,1.60234 41.64868,1.93439 M 434.15883,586.57914 c 13.92527,2.22803 27.93746,4.16398 42.04952,5.79038 m -130.79082,-24.0378 c 15.25621,3.81439 30.58657,7.30906 46.00933,10.45939 M 259.74688,543.49657 c 13.79064,4.52293 27.61465,8.8161 41.48611,12.86056 M 355.09602,529.667 c -14.27835,-3.59446 -28.51118,-7.4848 -42.71929,-11.64993 m 124.80046,28.7992 c -13.26383,-2.18511 -26.45674,-4.65029 -39.59455,-7.37951 m 120.08939,16.99593 c -13.5364,-0.99615 -26.97135,-2.30105 -40.32041,-3.89892 m 114.84057,6.18072 c -12.26614,0.15129 -24.43212,0.042 -36.50851,-0.3173 m 191.27719,-15.0768 c -13.38623,2.46455 -26.6265,4.61882 -39.73172,6.47387 m 28.68694,-24.62968 c 12.72739,-2.26024 25.58958,-4.80872 38.5967,-7.6554 m -186.68702,21.5904 c 11.71725,-0.0963 23.52704,-0.43703 35.43927,-1.0319 m -106.20783,-1.35725 c 11.97911,0.90742 24.0383,1.56608 36.18912,1.96464 M 438.60999,527.15972 c 13.02212,2.17644 26.11198,4.07498 39.28558,5.67988 M 359.87078,510.56625 c 13.53775,3.42507 27.11477,6.57562 40.74994,9.43308 M 279.73708,487.12524 c 12.70446,4.19177 25.41058,8.17161 38.13425,11.92389 m 51.68281,-27.17498 c -13.51922,-3.44451 -27.02347,-7.17991 -40.53876,-11.18718 m 112.76041,26.66373 c -11.70261,-2.01647 -23.36032,-4.27142 -34.9895,-6.75286 m 109.11026,16.16233 c -12.36015,-0.99942 -24.63579,-2.28018 -36.84499,-3.82908 m 92.96958,6.38141 c -7.90822,-0.0798 -15.77287,-0.27716 -23.59835,-0.58895 m 165.43784,-10.35724 c -11.19006,1.80777 -22.26213,3.38259 -33.22607,4.73167 m 82.61728,77.62904 c 15.69275,-3.04925 31.56916,-6.5117 47.64274,-10.40422 m -212.26609,28.09046 c 13.66608,-0.2504 27.45106,-0.81178 41.36618,-1.69816 m -121.4619,-0.37926 c 13.47529,0.94604 27.05068,1.59872 40.73802,1.94323 M 435.00173,576.65552 c 13.74425,2.21347 27.57128,4.13849 41.49474,5.758 m -128.6577,-23.74648 c 14.97024,3.74912 30.00684,7.18621 45.12861,10.28774 M 263.09065,534.07633 c 13.61133,4.46483 27.2486,8.70308 40.92649,12.6964 m 48.65978,-7.44007 c -14.40711,-3.62048 -28.76265,-7.53802 -43.08636,-11.73119 m 86.45401,21.67421 c -14.52055,-3.00341 -28.96986,-6.32488 -43.36765,-9.94302 m 83.77373,17.42998 c -13.53973,-2.21348 -27.00325,-4.71473 -40.40608,-7.48696 m 121.91437,17.12463 c -13.72861,-0.99435 -27.35295,-2.3018 -40.88794,-3.90616 m 117.26531,6.12217 c -12.5867,0.18106 -25.06945,0.0914 -37.45874,-0.25776 m 195.5436,-15.89858 c -13.75529,2.58054 -27.36088,4.83699 -40.8276,6.78111 m 18.79433,-43.25147 c 12.11256,-2.10363 24.35117,-4.47109 36.7254,-7.11111 m -181.45837,20.29134 c 11.32337,-0.0678 22.73446,-0.36692 34.24311,-0.90642 m -103.13002,-1.53808 c 11.67738,0.89879 23.43081,1.55768 35.27202,1.96601 M 439.32725,517.19738 c 12.88334,2.17037 25.83029,4.06468 38.8578,5.66748 M 362.29209,500.89381 c 13.25171,3.35842 26.5356,6.44985 39.87093,9.25675 M 283.07873,477.70114 c 12.52598,4.13303 25.04623,8.05721 37.57723,11.75755 m -47.52536,16.35559 c -12.656,-4.15361 -25.30759,-8.51062 -37.96957,-13.05607 m 57.94701,-43.32963 c -9.3097,-3.07228 -18.63548,-6.26486 -27.98576,-9.57156 m 4.66091,75.37674 c -13.53447,-4.44109 -27.05683,-9.1119 -40.58389,-13.99418 m 60.56607,-42.38543 c -9.65104,-3.18472 -19.31459,-6.49692 -28.9994,-9.92973 m 106.36688,32.62387 c -13.64864,-3.47116 -27.27548,-7.23427 -40.90527,-11.26991 m 114.70485,27.01859 c -11.94034,-2.04205 -23.83114,-4.32854 -35.68841,-6.8469 m 110.94188,16.30005 c -12.5562,-0.99843 -25.02485,-2.28275 -37.42335,-3.83931 m 102.56101,6.38524 c -10.64217,0.0142 -21.20462,-0.18194 -31.6971,-0.58063 m 134.81445,94.13696 c 14.72213,-1.60024 29.58856,-3.55723 44.60975,-5.8862 m -48.32875,-3.7309 c 14.50482,-1.54131 29.1532,-3.43288 43.95613,-5.68953 m -58.86177,-32.83058 c -12.03465,1.15413 -23.96068,2.05533 -35.7871,2.71273 m 28.39248,-21.83511 c 13.16818,-1.19487 26.46866,-2.70087 39.91416,-4.53051 m -54.90196,-34.21109 c -11.30713,0.88764 -22.50671,1.53375 -33.61029,1.94679 m 67.17516,84.81679 c 14.29078,-1.48294 28.72432,-3.30984 43.31218,-5.49514 m -50.76413,-13.76674 c -12.17183,1.20005 -24.2351,2.14454 -36.19835,2.84274 m 21.33112,-41.27651 c 12.93861,-1.13602 26.00821,-2.57617 39.22204,-4.3325 m -46.71619,-15.03874 c -11.44006,0.93456 -22.77257,1.62517 -34.00852,2.08043 m 106.18107,-11.03828 c -11.5551,1.91422 -22.98813,3.58294 -34.30905,5.01397 m 133.61592,24.86075 c -9.88172,2.54285 -19.68039,4.91985 -29.39989,7.13493 M 760.66571,479.5797 c -5.24149,1.11863 -10.45582,2.1871 -15.64389,3.20609 m 83.31605,52.48872 c -10.71072,2.83073 -21.32687,5.46856 -31.85297,7.91839 m -25.90335,-55.53716 c -6.10737,1.35386 -12.17896,2.64041 -18.2161,3.8607 m -552.19941,44.86784 c 4.74975,1.49675 9.50476,2.9659 14.26557,4.40666 m -6.6179,-12.48087 c 3.22526,1.00427 6.45269,1.99555 9.68248,2.97361 m -2.67268,-11.25782 c 1.91132,0.58894 3.82332,1.17323 5.73603,1.75282 M 5.1947289e-4,686.13306 C 54.879979,608.03329 109.76086,529.93451 164.64128,451.83541 M 5.969578e-4,651.34603 C 48.333408,582.56379 96.666815,513.78198 145,445 M 5.762702e-4,616.55897 C 41.869828,556.97481 83.74002,497.39132 125.60981,437.80755 m 696.01304,-37.81358 c 10.74963,42.96206 18.64104,91.65732 23.21247,148.62876 m -32.09118,-28.44695 -3.92969,-29.74023 c -5.16298,-39.08508 -12.28322,-73.74277 -21.14881,-105.16932 m 104.84691,202.68489 -0.81724,-13.95503 c -3.35388,-57.2471 -9.98798,-107.30414 -19.37404,-151.9985 m -33.66288,-14.63378 c 10.5127,44.62034 18.07679,95.13468 22.16781,153.98272 m -64.918,-54.077 -1.96484,-14.87109 C 788.19465,448.87925 780.07638,411.18555 769.8262,377.44079 m -36.63116,-15.90376 c 12.1347,34.0143 21.74037,72.39113 28.67174,118.27174 m 42.52514,-87.35466 c 10.97508,41.17075 19.186,87.85869 24.23713,142.69571"
       id="path5107" />
    <g
       id="g5111"
       style="stroke:#4444ff;stroke-width:72;stroke-linecap:round;stroke-linejoin:round"
       transform="matrix(0.08333333,0,0,0.081,650,1000)">
      <path
         d="M -400,0 C -350,0 0,-450 0,-500 0,-450 350,0 400,0 350,0 0,450 0,500 0,450 -350,0 -400,0 Z"
         fill="#ff0000"
         id="path5109" />
    </g>
    <g
       id="g5115"
       style="stroke:#4444ff;stroke-width:72;stroke-linecap:round;stroke-linejoin:round"
       transform="matrix(0.08333333,0,0,0.081,580,1005)">
      <path
         d="M -400,0 C -350,0 0,-450 0,-500 0,-450 350,0 400,0 350,0 0,450 0,500 0,450 -350,0 -400,0 Z"
         fill="#ff0000"
         id="path5113" />
    </g>
    <g
       id="g5119"
       style="stroke:#4444ff;stroke-width:72;stroke-linecap:round;stroke-linejoin:round"
       transform="matrix(0.08333333,0,0,0.081,510,1010)">
      <path
         d="M -400,0 C -350,0 0,-450 0,-500 0,-450 350,0 400,0 350,0 0,450 0,500 0,450 -350,0 -400,0 Z"
         fill="#ff0000"
         id="path5117" />
    </g>
  </g>
  <g
     id="use4957"
     transform="matrix(-0.12676923,0,0,-0.13039999,45.180373,93.953301)">
    <path
       stroke="#4444ff"
       stroke-linecap="round"
       stroke-linejoin="round"
       stroke-width="3"
       fill="none"
       d="m 1200,695 c 4.4115,6.18328 6.9487,12.69664 5,20 m -0.6646,4.98234 c 4.4115,6.18328 6.9487,12.69664 5,20 m 6.8318,2.98097 c 4.4115,6.18328 6.9487,12.69664 5,20 M 1195,650 c 1.0298,15.05623 40.2085,0.0599 35,-5 M 550,455 c 15.3233,-7.55931 30.58277,-14.28434 45,-10 M 545,270 c -8.28172,10.54753 -23.95381,12.97919 -40,15 m 140,-10 c 16.67724,2.19986 19.87524,-1.84649 25,-5 M 445,225 c 25,0 48.60183,-42.3991 90,0 m 68.00603,3.10284 C 615,225 647.5,177.5 685,220 m -157.48444,4.23824 c 1.58324,3.94455 2.48442,8.48077 2.48442,13.30688 0,15.21274 -8.95431,27.54511 -20,27.54511 -11.04569,0 -20,-12.33237 -20,-27.54511 0,-4.51509 0.78877,-8.77645 2.18688,-12.53697 m 181.44877,-5.02789 C 674.51651,223.08558 675,226.46503 675,230 c 0,15.21274 -8.95431,27.54511 -20,27.54511 -11.04569,0 -20,-12.33237 -20,-27.54511 0,-1.30414 0.0658,-2.5871 0.19309,-3.84295 m 138.9198,362.78685 c 16.8774,-3.38935 33.95469,-7.24736 51.24581,-11.59432 m -222.42728,30.84537 c 14.44484,-0.31868 29.01838,-0.97612 43.7316,-1.98827 m -127.55437,0.0587 c 14.07372,0.95839 28.25601,1.60536 42.55807,1.92461 M 433.29641,596.50094 c 14.1116,2.24365 28.31431,4.1914 42.62039,5.82532 M 342.9985,577.99935 c 15.54242,3.87955 31.16702,7.43166 46.89144,10.63061 m -133.4899,-35.71154 c 13.96978,4.58099 27.98051,8.92908 42.04566,13.02466 m 470.23201,13.89762 c 16.28431,-3.21757 32.76049,-6.87567 49.44233,-10.99284 m -217.34167,29.45681 c 14.05521,-0.28412 28.23425,-0.89302 42.54823,-1.84167 m -124.50601,-0.16292 c 13.77471,0.95236 27.65376,1.60234 41.64868,1.93439 M 434.15883,586.57914 c 13.92527,2.22803 27.93746,4.16398 42.04952,5.79038 m -130.79082,-24.0378 c 15.25621,3.81439 30.58657,7.30906 46.00933,10.45939 M 259.74688,543.49657 c 13.79064,4.52293 27.61465,8.8161 41.48611,12.86056 M 355.09602,529.667 c -14.27835,-3.59446 -28.51118,-7.4848 -42.71929,-11.64993 m 124.80046,28.7992 c -13.26383,-2.18511 -26.45674,-4.65029 -39.59455,-7.37951 m 120.08939,16.99593 c -13.5364,-0.99615 -26.97135,-2.30105 -40.32041,-3.89892 m 114.84057,6.18072 c -12.26614,0.15129 -24.43212,0.042 -36.50851,-0.3173 m 191.27719,-15.0768 c -13.38623,2.46455 -26.6265,4.61882 -39.73172,6.47387 m 28.68694,-24.62968 c 12.72739,-2.26024 25.58958,-4.80872 38.5967,-7.6554 m -186.68702,21.5904 c 11.71725,-0.0963 23.52704,-0.43703 35.43927,-1.0319 m -106.20783,-1.35725 c 11.97911,0.90742 24.0383,1.56608 36.18912,1.96464 M 438.60999,527.15972 c 13.02212,2.17644 26.11198,4.07498 39.28558,5.67988 M 359.87078,510.56625 c 13.53775,3.42507 27.11477,6.57562 40.74994,9.43308 M 279.73708,487.12524 c 12.70446,4.19177 25.41058,8.17161 38.13425,11.92389 m 51.68281,-27.17498 c -13.51922,-3.44451 -27.02347,-7.17991 -40.53876,-11.18718 m 112.76041,26.66373 c -11.70261,-2.01647 -23.36032,-4.27142 -34.9895,-6.75286 m 109.11026,16.16233 c -12.36015,-0.99942 -24.63579,-2.28018 -36.84499,-3.82908 m 92.96958,6.38141 c -7.90822,-0.0798 -15.77287,-0.27716 -23.59835,-0.58895 m 165.43784,-10.35724 c -11.19006,1.80777 -22.26213,3.38259 -33.22607,4.73167 m 82.61728,77.62904 c 15.69275,-3.04925 31.56916,-6.5117 47.64274,-10.40422 m -212.26609,28.09046 c 13.66608,-0.2504 27.45106,-0.81178 41.36618,-1.69816 m -121.4619,-0.37926 c 13.47529,0.94604 27.05068,1.59872 40.73802,1.94323 M 435.00173,576.65552 c 13.74425,2.21347 27.57128,4.13849 41.49474,5.758 m -128.6577,-23.74648 c 14.97024,3.74912 30.00684,7.18621 45.12861,10.28774 M 263.09065,534.07633 c 13.61133,4.46483 27.2486,8.70308 40.92649,12.6964 m 48.65978,-7.44007 c -14.40711,-3.62048 -28.76265,-7.53802 -43.08636,-11.73119 m 86.45401,21.67421 c -14.52055,-3.00341 -28.96986,-6.32488 -43.36765,-9.94302 m 83.77373,17.42998 c -13.53973,-2.21348 -27.00325,-4.71473 -40.40608,-7.48696 m 121.91437,17.12463 c -13.72861,-0.99435 -27.35295,-2.3018 -40.88794,-3.90616 m 117.26531,6.12217 c -12.5867,0.18106 -25.06945,0.0914 -37.45874,-0.25776 m 195.5436,-15.89858 c -13.75529,2.58054 -27.36088,4.83699 -40.8276,6.78111 m 18.79433,-43.25147 c 12.11256,-2.10363 24.35117,-4.47109 36.7254,-7.11111 m -181.45837,20.29134 c 11.32337,-0.0678 22.73446,-0.36692 34.24311,-0.90642 m -103.13002,-1.53808 c 11.67738,0.89879 23.43081,1.55768 35.27202,1.96601 M 439.32725,517.19738 c 12.88334,2.17037 25.83029,4.06468 38.8578,5.66748 M 362.29209,500.89381 c 13.25171,3.35842 26.5356,6.44985 39.87093,9.25675 M 283.07873,477.70114 c 12.52598,4.13303 25.04623,8.05721 37.57723,11.75755 m -47.52536,16.35559 c -12.656,-4.15361 -25.30759,-8.51062 -37.96957,-13.05607 m 57.94701,-43.32963 c -9.3097,-3.07228 -18.63548,-6.26486 -27.98576,-9.57156 m 4.66091,75.37674 c -13.53447,-4.44109 -27.05683,-9.1119 -40.58389,-13.99418 m 60.56607,-42.38543 c -9.65104,-3.18472 -19.31459,-6.49692 -28.9994,-9.92973 m 106.36688,32.62387 c -13.64864,-3.47116 -27.27548,-7.23427 -40.90527,-11.26991 m 114.70485,27.01859 c -11.94034,-2.04205 -23.83114,-4.32854 -35.68841,-6.8469 m 110.94188,16.30005 c -12.5562,-0.99843 -25.02485,-2.28275 -37.42335,-3.83931 m 102.56101,6.38524 c -10.64217,0.0142 -21.20462,-0.18194 -31.6971,-0.58063 m 134.81445,94.13696 c 14.72213,-1.60024 29.58856,-3.55723 44.60975,-5.8862 m -48.32875,-3.7309 c 14.50482,-1.54131 29.1532,-3.43288 43.95613,-5.68953 m -58.86177,-32.83058 c -12.03465,1.15413 -23.96068,2.05533 -35.7871,2.71273 m 28.39248,-21.83511 c 13.16818,-1.19487 26.46866,-2.70087 39.91416,-4.53051 m -54.90196,-34.21109 c -11.30713,0.88764 -22.50671,1.53375 -33.61029,1.94679 m 67.17516,84.81679 c 14.29078,-1.48294 28.72432,-3.30984 43.31218,-5.49514 m -50.76413,-13.76674 c -12.17183,1.20005 -24.2351,2.14454 -36.19835,2.84274 m 21.33112,-41.27651 c 12.93861,-1.13602 26.00821,-2.57617 39.22204,-4.3325 m -46.71619,-15.03874 c -11.44006,0.93456 -22.77257,1.62517 -34.00852,2.08043 m 106.18107,-11.03828 c -11.5551,1.91422 -22.98813,3.58294 -34.30905,5.01397 m 133.61592,24.86075 c -9.88172,2.54285 -19.68039,4.91985 -29.39989,7.13493 M 760.66571,479.5797 c -5.24149,1.11863 -10.45582,2.1871 -15.64389,3.20609 m 83.31605,52.48872 c -10.71072,2.83073 -21.32687,5.46856 -31.85297,7.91839 m -25.90335,-55.53716 c -6.10737,1.35386 -12.17896,2.64041 -18.2161,3.8607 m -552.19941,44.86784 c 4.74975,1.49675 9.50476,2.9659 14.26557,4.40666 m -6.6179,-12.48087 c 3.22526,1.00427 6.45269,1.99555 9.68248,2.97361 m -2.67268,-11.25782 c 1.91132,0.58894 3.82332,1.17323 5.73603,1.75282 M 5.1947289e-4,686.13306 C 54.879979,608.03329 109.76086,529.93451 164.64128,451.83541 M 5.969578e-4,651.34603 C 48.333408,582.56379 96.666815,513.78198 145,445 M 5.762702e-4,616.55897 C 41.869828,556.97481 83.74002,497.39132 125.60981,437.80755 m 696.01304,-37.81358 c 10.74963,42.96206 18.64104,91.65732 23.21247,148.62876 m -32.09118,-28.44695 -3.92969,-29.74023 c -5.16298,-39.08508 -12.28322,-73.74277 -21.14881,-105.16932 m 104.84691,202.68489 -0.81724,-13.95503 c -3.35388,-57.2471 -9.98798,-107.30414 -19.37404,-151.9985 m -33.66288,-14.63378 c 10.5127,44.62034 18.07679,95.13468 22.16781,153.98272 m -64.918,-54.077 -1.96484,-14.87109 C 788.19465,448.87925 780.07638,411.18555 769.8262,377.44079 m -36.63116,-15.90376 c 12.1347,34.0143 21.74037,72.39113 28.67174,118.27174 m 42.52514,-87.35466 c 10.97508,41.17075 19.186,87.85869 24.23713,142.69571"
       id="path5123" />
    <g
       id="g5127"
       style="stroke:#4444ff;stroke-width:72;stroke-linecap:round;stroke-linejoin:round"
       transform="matrix(0.08333333,0,0,0.081,650,1000)">
      <path
         d="M -400,0 C -350,0 0,-450 0,-500 0,-450 350,0 400,0 350,0 0,450 0,500 0,450 -350,0 -400,0 Z"
         fill="#ff0000"
         id="path5125" />
    </g>
    <g
       id="g5131"
       style="stroke:#4444ff;stroke-width:72;stroke-linecap:round;stroke-linejoin:round"
       transform="matrix(0.08333333,0,0,0.081,580,1005)">
      <path
         d="M -400,0 C -350,0 0,-450 0,-500 0,-450 350,0 400,0 350,0 0,450 0,500 0,450 -350,0 -400,0 Z"
         fill="#ff0000"
         id="path5129" />
    </g>
    <g
       id="g5135"
       style="stroke:#4444ff;stroke-width:72;stroke-linecap:round;stroke-linejoin:round"
       transform="matrix(0.08333333,0,0,0.081,510,1010)">
      <path
         d="M -400,0 C -350,0 0,-450 0,-500 0,-450 350,0 400,0 350,0 0,450 0,500 0,450 -350,0 -400,0 Z"
         fill="#ff0000"
         id="path5133" />
    </g>
  </g>
</svg>
