<?xml version="1.0" encoding="UTF-8" standalone="no"?>
<svg
   width="1.7245898in"
   height="2.7248223in"
   viewBox="-120 -168 165.56062 261.58294"
   preserveAspectRatio="none"
   class="card"
   face="QS"
   version="1.1"
   id="svg1463"
   sodipodi:docname="QS.svg"
   xmlns:inkscape="http://www.inkscape.org/namespaces/inkscape"
   xmlns:sodipodi="http://sodipodi.sourceforge.net/DTD/sodipodi-0.dtd"
   xmlns="http://www.w3.org/2000/svg"
   xmlns:svg="http://www.w3.org/2000/svg">
  <sodipodi:namedview
     id="namedview1465"
     pagecolor="#ffffff"
     bordercolor="#000000"
     borderopacity="0.25"
     inkscape:showpageshadow="2"
     inkscape:pageopacity="0.0"
     inkscape:pagecheckerboard="0"
     inkscape:deskcolor="#d1d1d1"
     inkscape:document-units="in"
     showgrid="false" />
  <defs
     id="defs1383" />
  <g
     id="use1423"
     transform="matrix(0.12676923,0,0,0.13039999,-119.61969,-167.60851)">
    <path
       fill="#ffcc44"
       d="M 635.39648,0 851.86719,312.33789 C 895.10685,299.11869 938.83136,290.34833 975,285 924.90197,188.22401 899.89439,94.153799 874.11133,0 Z M 295.52539,27.285156 C 246.27551,180.9799 142.75435,335.54042 209.25195,483.08398 l -17.43359,13.44922 c 1.76531,151.10099 30.08527,286.57163 74.54102,398.60938 18.12594,21.287 38.56227,42.11564 61.47851,64.11523 3.61128,3.46683 7.28461,6.96262 11.33789,10.61914 L 901.47852,970 l -0.41407,-0.51953 c -0.12219,-0.138 -0.23745,-0.27418 -0.35937,-0.41211 15.27725,17.28278 32.6506,35.12574 52.3164,53.54294 C 1030.1434,1094.8366 1080,1150 1130,1250 c 52.9819,-70.6425 98.186,-110.0972 170,-152.7871 v -37.6016 c -68.6196,39.3343 -116.9422,76.6549 -164.5547,131.9668 -44.9491,-77.8482 -93.9175,-130.6069 -160.20897,-192.68943 -76.05982,-71.23062 -114.27421,-131.59148 -129.3711,-180.42578 -15.09688,-48.8343 -8.90849,-86.60287 7.94922,-120.96875 28.31708,-57.72677 91.51367,-102.35489 139.07032,-133.86328 l -26.7793,-21.49024 C 896.53697,588.11019 793.22595,665.67487 806.10938,786.48828 L 699.86133,787.5 568.0625,939.89258 429.48438,939.86328 C 578.06034,763.29892 745.82856,594.02803 899.1875,455.09961 l -9.56836,-10.99023 c -28.86687,-3.02061 -55.64392,-10.37642 -80.51758,-21.42774 -1.77605,4.17261 -4.43372,8.02096 -7.94336,11.23438 C 665.11643,558.39566 525.46983,665.166 419.78906,829.43164 L 392.45703,811.84766 C 501.69344,642.05529 644.58723,533.12674 779.21875,409.9375 l 17.51367,6.86328 c -17.74437,-8.98707 -34.48695,-19.8921 -50.29101,-32.48437 -124.71285,29.03155 -208.27492,36.48099 -267.26758,31.98242 0,0 -19.31641,14.60547 -29.31641,14.60547 -15,0 -25.58008,-5.64453 -30.58008,-5.64453 -5,0 -10,5 -25,5 -15,0 -30,-25 -40,-50 -1.51422,-2.01895 -3.01443,-4.07919 -4.23242,-5.79297 l -39.21875,30.25586 10.50977,-0.54493 c 7.17244,138.45299 -1.25836,281.23598 43.02929,408.13477 l -27.41796,17.66602 c -1.32891,-2.13106 -2.43311,-4.45616 -3.26758,-6.95704 C 288.22851,692.7888 295.29422,552.70428 289.59766,421.09961 l -69.70313,53.77344 20.20508,-16.59375 C 187.08454,297.85994 265.54029,182.85491 300.0957,58.960938 Z M 85,80 c -55.000004,50 -100.000004,145 -35,145 9.343263,0 15.215964,-5.70961 19.599609,-15.58984 l -0.05469,54.80664 C 63.116922,255.80043 55.218717,250 45,250 c -34.999996,0 -39.999996,70 -5,70 24.46345,0 22.957588,-43.08208 10.8125,-44.93164 53.48157,5.0855 -15.809214,250.16385 -15.302734,296.2207 0.268193,24.38822 6.628431,48.73678 31.46289,56.20899 C 48.176742,632.49354 35,645.1697 35,660 35,674.30844 47.265656,686.61054 65.384766,692.25586 41.674751,699.57565 35,720.74035 35,740 35,776.24391 48.1356,836.13212 55.517578,866.33008 82.604368,846.54619 106.08392,825.42866 128.83984,800.21875 132.14826,778.91478 135,756.88968 135,740 135,720.60063 128.2285,699.26867 104.15234,691.95898 118.02756,686.75065 129.28173,676.58841 135,660 c 0,-14.83344 -13.18185,-27.51102 -30.78711,-32.89844 24.05654,-8.65812 30.01787,-32.21714 30.27734,-55.8125 C 134.99671,525.23221 65.705931,280.15386 119.1875,275.06836 107.04241,276.91792 105.53655,320 130,320 c 35,0 30,-70 -5,-70 -10.83425,0 -19.06007,6.52154 -25.074219,15.02148 L 100.25195,209.2793 C 104.49041,218.99863 110.42097,225 120,225 185,225 140,130 85,80 Z m 641.48047,287.83789 c -86.62544,19.83455 -151.78802,28.17022 -200.80469,29.24219 -14.2248,6.27415 -30.07191,11.92239 -45.7793,18.95898 58.99266,4.49857 142.55438,-2.95118 267.19727,-32.03711 -7.7527,-5.20716 -14.38853,-10.76914 -20.61328,-16.16406 z m -370.49024,88.29102 c 29.62693,11.74538 64.9141,21.55877 110.0293,25.15039 51.3028,4.08421 115.55629,0.48608 200.56445,-14.4043 C 568.01187,553.99998 468.15967,644.25595 384.25,765.71289 359.23837,670.90747 359.53927,564.67648 355.99023,456.12891 Z M 1182.5,473.75 c -24.0403,0 -48.0562,17.34722 -29.8594,52.02344 A 45,42.5 0 0 1 1182.5,515 a 45,42.5 0 0 1 29.8652,10.76367 C 1230.552,491.09427 1206.538,473.75 1182.5,473.75 Z m -54.6914,47.48047 c -45.2477,0.77462 -37.6424,97.7377 22.793,66.2168 A 45,42.5 0 0 1 1137.5,557.5 a 45,42.5 0 0 1 13.1113,-29.94336 c -8.6891,-4.53343 -16.2978,-6.43753 -22.8027,-6.32617 z m 109.3828,0 c -6.5027,-0.11132 -14.1076,1.79222 -22.793,6.32226 A 45,42.5 0 0 1 1227.5,557.5 a 45,42.5 0 0 1 -13.1094,29.94336 c 60.4429,31.53409 68.0505,-65.43824 22.8008,-66.21289 z m -24.8301,67.99414 A 45,42.5 0 0 1 1182.5,600 45,42.5 0 0 1 1152.6348,589.23633 c -11.9875,22.85174 -5.6311,38.16959 6.9726,45.95898 -23.6821,34.46419 -48.941,66.02584 -74.9492,96.20703 C 1079.1653,675.69528 1058.4509,645.45798 1005,670 c 37.225,16.12754 38.5709,70.31699 75.9492,65.69727 -5.8664,6.76063 -11.768,13.45662 -17.6972,20.10156 l 15.207,1.88672 c 7.2551,-8.19076 14.4623,-16.46748 21.6113,-24.85352 5.1929,39.08146 35.0698,-7.57452 67.2129,-5.5 -16.4802,-41.743 -32.0495,-10.50502 -66.4785,4.63672 24.5708,-28.86629 48.4073,-59.08334 70.8027,-91.95508 26.5679,6.12811 61.7407,-10.79807 40.7539,-50.78906 z M 1255,655 c -32.9633,38.74398 -63.8666,77.97963 -125,110 16.8191,30.21345 26.6544,60.2083 30,90 47.2312,18.32372 82.8871,51.83723 115,90 2.3419,-37.0436 -4.2974,-71.38724 -30,-100 23.3498,-4.99857 40.0029,-20.01884 50,-45 -14.5281,-24.40208 -35.9759,-32.69918 -60,-35 44.8752,-32.16719 30.2665,-71.33926 20,-110 z M 811.88477,817.78516 c 10.86486,41.66548 35.34229,88.00659 78.58593,139.42382 -4.92291,-5.82285 -9.66276,-11.58316 -14.2207,-17.2539 l -286.46289,-0.0586 64.60547,-0.45703 75.1914,-86.93945 93.88282,-0.33984 c -4.9028,-11.9067 -8.74345,-23.39087 -11.58203,-34.375 z M 377.5,842.5 c 4.42321,0 9.31831,2.00257 14.86719,9.24023 C 397.91606,858.97789 402.5,871.0223 402.5,885 c 0,13.9777 -4.58394,26.0221 -10.13281,33.25977 C 386.81831,925.49743 381.92321,927.5 377.5,927.5 c -4.42321,0 -9.31831,-2.00257 -14.86719,-9.24023 C 357.08394,911.0221 352.5,898.9777 352.5,885 c 0,-13.9777 4.58394,-26.02211 10.13281,-33.25977 C 368.18169,844.50257 373.07679,842.5 377.5,842.5 Z"
       id="path2188" />
  </g>
  <g
     id="use1425"
     transform="matrix(-0.12676923,0,0,-0.13039999,45.180316,93.191479)">
    <path
       fill="#ffcc44"
       d="M 635.39648,0 851.86719,312.33789 C 895.10685,299.11869 938.83136,290.34833 975,285 924.90197,188.22401 899.89439,94.153799 874.11133,0 Z M 295.52539,27.285156 C 246.27551,180.9799 142.75435,335.54042 209.25195,483.08398 l -17.43359,13.44922 c 1.76531,151.10099 30.08527,286.57163 74.54102,398.60938 18.12594,21.287 38.56227,42.11564 61.47851,64.11523 3.61128,3.46683 7.28461,6.96262 11.33789,10.61914 L 901.47852,970 l -0.41407,-0.51953 c -0.12219,-0.138 -0.23745,-0.27418 -0.35937,-0.41211 15.27725,17.28278 32.6506,35.12574 52.3164,53.54294 C 1030.1434,1094.8366 1080,1150 1130,1250 c 52.9819,-70.6425 98.186,-110.0972 170,-152.7871 v -37.6016 c -68.6196,39.3343 -116.9422,76.6549 -164.5547,131.9668 -44.9491,-77.8482 -93.9175,-130.6069 -160.20897,-192.68943 -76.05982,-71.23062 -114.27421,-131.59148 -129.3711,-180.42578 -15.09688,-48.8343 -8.90849,-86.60287 7.94922,-120.96875 28.31708,-57.72677 91.51367,-102.35489 139.07032,-133.86328 l -26.7793,-21.49024 C 896.53697,588.11019 793.22595,665.67487 806.10938,786.48828 L 699.86133,787.5 568.0625,939.89258 429.48438,939.86328 C 578.06034,763.29892 745.82856,594.02803 899.1875,455.09961 l -9.56836,-10.99023 c -28.86687,-3.02061 -55.64392,-10.37642 -80.51758,-21.42774 -1.77605,4.17261 -4.43372,8.02096 -7.94336,11.23438 C 665.11643,558.39566 525.46983,665.166 419.78906,829.43164 L 392.45703,811.84766 C 501.69344,642.05529 644.58723,533.12674 779.21875,409.9375 l 17.51367,6.86328 c -17.74437,-8.98707 -34.48695,-19.8921 -50.29101,-32.48437 -124.71285,29.03155 -208.27492,36.48099 -267.26758,31.98242 0,0 -19.31641,14.60547 -29.31641,14.60547 -15,0 -25.58008,-5.64453 -30.58008,-5.64453 -5,0 -10,5 -25,5 -15,0 -30,-25 -40,-50 -1.51422,-2.01895 -3.01443,-4.07919 -4.23242,-5.79297 l -39.21875,30.25586 10.50977,-0.54493 c 7.17244,138.45299 -1.25836,281.23598 43.02929,408.13477 l -27.41796,17.66602 c -1.32891,-2.13106 -2.43311,-4.45616 -3.26758,-6.95704 C 288.22851,692.7888 295.29422,552.70428 289.59766,421.09961 l -69.70313,53.77344 20.20508,-16.59375 C 187.08454,297.85994 265.54029,182.85491 300.0957,58.960938 Z M 85,80 c -55.000004,50 -100.000004,145 -35,145 9.343263,0 15.215964,-5.70961 19.599609,-15.58984 l -0.05469,54.80664 C 63.116922,255.80043 55.218717,250 45,250 c -34.999996,0 -39.999996,70 -5,70 24.46345,0 22.957588,-43.08208 10.8125,-44.93164 53.48157,5.0855 -15.809214,250.16385 -15.302734,296.2207 0.268193,24.38822 6.628431,48.73678 31.46289,56.20899 C 48.176742,632.49354 35,645.1697 35,660 35,674.30844 47.265656,686.61054 65.384766,692.25586 41.674751,699.57565 35,720.74035 35,740 35,776.24391 48.1356,836.13212 55.517578,866.33008 82.604368,846.54619 106.08392,825.42866 128.83984,800.21875 132.14826,778.91478 135,756.88968 135,740 135,720.60063 128.2285,699.26867 104.15234,691.95898 118.02756,686.75065 129.28173,676.58841 135,660 c 0,-14.83344 -13.18185,-27.51102 -30.78711,-32.89844 24.05654,-8.65812 30.01787,-32.21714 30.27734,-55.8125 C 134.99671,525.23221 65.705931,280.15386 119.1875,275.06836 107.04241,276.91792 105.53655,320 130,320 c 35,0 30,-70 -5,-70 -10.83425,0 -19.06007,6.52154 -25.074219,15.02148 L 100.25195,209.2793 C 104.49041,218.99863 110.42097,225 120,225 185,225 140,130 85,80 Z m 641.48047,287.83789 c -86.62544,19.83455 -151.78802,28.17022 -200.80469,29.24219 -14.2248,6.27415 -30.07191,11.92239 -45.7793,18.95898 58.99266,4.49857 142.55438,-2.95118 267.19727,-32.03711 -7.7527,-5.20716 -14.38853,-10.76914 -20.61328,-16.16406 z m -370.49024,88.29102 c 29.62693,11.74538 64.9141,21.55877 110.0293,25.15039 51.3028,4.08421 115.55629,0.48608 200.56445,-14.4043 C 568.01187,553.99998 468.15967,644.25595 384.25,765.71289 359.23837,670.90747 359.53927,564.67648 355.99023,456.12891 Z M 1182.5,473.75 c -24.0403,0 -48.0562,17.34722 -29.8594,52.02344 A 45,42.5 0 0 1 1182.5,515 a 45,42.5 0 0 1 29.8652,10.76367 C 1230.552,491.09427 1206.538,473.75 1182.5,473.75 Z m -54.6914,47.48047 c -45.2477,0.77462 -37.6424,97.7377 22.793,66.2168 A 45,42.5 0 0 1 1137.5,557.5 a 45,42.5 0 0 1 13.1113,-29.94336 c -8.6891,-4.53343 -16.2978,-6.43753 -22.8027,-6.32617 z m 109.3828,0 c -6.5027,-0.11132 -14.1076,1.79222 -22.793,6.32226 A 45,42.5 0 0 1 1227.5,557.5 a 45,42.5 0 0 1 -13.1094,29.94336 c 60.4429,31.53409 68.0505,-65.43824 22.8008,-66.21289 z m -24.8301,67.99414 A 45,42.5 0 0 1 1182.5,600 45,42.5 0 0 1 1152.6348,589.23633 c -11.9875,22.85174 -5.6311,38.16959 6.9726,45.95898 -23.6821,34.46419 -48.941,66.02584 -74.9492,96.20703 C 1079.1653,675.69528 1058.4509,645.45798 1005,670 c 37.225,16.12754 38.5709,70.31699 75.9492,65.69727 -5.8664,6.76063 -11.768,13.45662 -17.6972,20.10156 l 15.207,1.88672 c 7.2551,-8.19076 14.4623,-16.46748 21.6113,-24.85352 5.1929,39.08146 35.0698,-7.57452 67.2129,-5.5 -16.4802,-41.743 -32.0495,-10.50502 -66.4785,4.63672 24.5708,-28.86629 48.4073,-59.08334 70.8027,-91.95508 26.5679,6.12811 61.7407,-10.79807 40.7539,-50.78906 z M 1255,655 c -32.9633,38.74398 -63.8666,77.97963 -125,110 16.8191,30.21345 26.6544,60.2083 30,90 47.2312,18.32372 82.8871,51.83723 115,90 2.3419,-37.0436 -4.2974,-71.38724 -30,-100 23.3498,-4.99857 40.0029,-20.01884 50,-45 -14.5281,-24.40208 -35.9759,-32.69918 -60,-35 44.8752,-32.16719 30.2665,-71.33926 20,-110 z M 811.88477,817.78516 c 10.86486,41.66548 35.34229,88.00659 78.58593,139.42382 -4.92291,-5.82285 -9.66276,-11.58316 -14.2207,-17.2539 l -286.46289,-0.0586 64.60547,-0.45703 75.1914,-86.93945 93.88282,-0.33984 c -4.9028,-11.9067 -8.74345,-23.39087 -11.58203,-34.375 z M 377.5,842.5 c 4.42321,0 9.31831,2.00257 14.86719,9.24023 C 397.91606,858.97789 402.5,871.0223 402.5,885 c 0,13.9777 -4.58394,26.0221 -10.13281,33.25977 C 386.81831,925.49743 381.92321,927.5 377.5,927.5 c -4.42321,0 -9.31831,-2.00257 -14.86719,-9.24023 C 357.08394,911.0221 352.5,898.9777 352.5,885 c 0,-13.9777 4.58394,-26.02211 10.13281,-33.25977 C 368.18169,844.50257 373.07679,842.5 377.5,842.5 Z"
       id="path2192" />
  </g>
  <g
     id="use1427"
     transform="matrix(0.12676923,0,0,0.13039999,-119.61969,-167.60851)">
    <path
       fill="#ff0000"
       d="M 557.51758,0 805.9668,330.45703 851.01367,311.99805 635.36719,0 Z m 78.02148,0 63.76563,90.75 C 709.99966,65.000167 725,65 725,65 716.50651,26.779299 728.31462,17.104416 733.20117,0 Z M 820,265 851.86719,312.33789 C 877.5079,304.49903 903.31958,298.22492 927.6543,293.26562 907.75762,290.72138 885.5191,284.6565 865,270 c -10,5 -30,10 -45,-5 z m 99.12695,216.28711 C 764.14521,621.01648 595.55342,787.07572 470.35547,940.01172 L 525,940 685,755 h 120.41797 l -0.0547,-0.41211 c 6.37431,-102.76161 97.50088,-170.65811 160.41211,-212.22851 z m -727.41992,15.5625 -59.86133,46.34766 -0.39648,0.30468 c 1.93099,12.0459 3.10803,21.69313 3.04101,27.78711 -0.25947,23.59536 -6.2208,47.15438 -30.27734,55.8125 C 121.81815,632.48898 135,645.16656 135,660 129.28173,676.58841 118.02756,686.75065 104.15234,691.95898 128.2285,699.26867 135,720.60063 135,740 c 0,16.88968 -2.85174,38.91478 -6.16016,60.21875 -1.95154,2.162 -3.90854,4.29257 -5.87304,6.39453 C 138.56664,789.96704 153.92711,771.43051 170,750 200.25102,810.50205 230.44886,854.59181 266.85742,895.71484 221.90196,783.10482 193.58426,647.63449 191.70703,496.84961 Z M 44.53125,610.36133 0,644.61523 V 902.7832 C 30.797744,884.46615 56.707359,866.73637 80.427734,846.89844 72.427991,853.57027 64.158102,860.01913 55.517578,866.33008 48.1356,836.13212 35,776.24391 35,740 35,720.74035 41.674751,699.57565 65.384766,692.25586 47.265656,686.61054 35,674.30844 35,660 35,645.1697 48.176742,632.49354 66.972656,627.49805 56.528563,624.35562 49.361734,618.22105 44.53125,610.36133 Z m 1190.09765,68.79687 -1.1211,1.04688 c -20.0542,23.0427 -41.8711,45.665 -71.7441,65.72265 27.117,39.37142 36.6532,80.37363 27.7441,123.12891 25.4392,14.76465 47.2329,33.87001 67.875,55.8418 -10.0896,-28.95393 -26.9566,-68.05217 -64.6191,-89.36328 C 1229.865,829.72137 1245.3631,819.51581 1260,800 c -28.5778,-21.24841 -50.4759,-15.94491 -77.3027,-15.66992 39.149,-21.89578 49.9371,-64.78262 51.9316,-105.17188 z M 110.74609,819.23828 c -0.7889,0.78628 -1.58065,1.56702 -2.37304,2.3457 0.792,-0.77791 1.58362,-1.55961 2.37304,-2.3457 z m -5.15234,5.05078 c -0.76819,0.74251 -1.53476,1.48679 -2.30664,2.22266 0.77112,-0.73534 1.53841,-1.48017 2.30664,-2.22266 z m -5.26172,5.00586 c -2.077449,1.94603 -4.165139,3.87648 -6.273436,5.7793 2.104356,-1.90192 4.194747,-3.83083 6.273436,-5.7793 z m -6.539061,6.02149 c -1.467973,1.32281 -2.945132,2.63598 -4.429688,3.93945 1.482456,-1.30407 2.961518,-2.61456 4.429688,-3.93945 z M 377.5,862.5 a 11,22.5 0 0 0 -11,22.5 11,22.5 0 0 0 11,22.5 11,22.5 0 0 0 11,-22.5 11,22.5 0 0 0 -11,-22.5 z m 225.17578,127.46484 a 10,10 0 0 0 -10,10 10,10 0 0 0 10,9.99996 10,10 0 0 0 10,-9.99996 10,10 0 0 0 -10,-10 z M 420,990 a 10,10 0 0 0 -10,10 10,10 0 0 0 10,10 10,10 0 0 0 10,-10 10,10 0 0 0 -10,-10 z m 91.13281,0.41016 a 10,10 0 0 0 -10,10.00004 10,10 0 0 0 10,10 10,10 0 0 0 10,-10 10,10 0 0 0 -10,-10.00004 z"
       id="path2196" />
  </g>
  <g
     id="use1429"
     transform="matrix(-0.12676923,0,0,-0.13039999,45.180316,93.191479)">
    <path
       fill="#ff0000"
       d="M 557.51758,0 805.9668,330.45703 851.01367,311.99805 635.36719,0 Z m 78.02148,0 63.76563,90.75 C 709.99966,65.000167 725,65 725,65 716.50651,26.779299 728.31462,17.104416 733.20117,0 Z M 820,265 851.86719,312.33789 C 877.5079,304.49903 903.31958,298.22492 927.6543,293.26562 907.75762,290.72138 885.5191,284.6565 865,270 c -10,5 -30,10 -45,-5 z m 99.12695,216.28711 C 764.14521,621.01648 595.55342,787.07572 470.35547,940.01172 L 525,940 685,755 h 120.41797 l -0.0547,-0.41211 c 6.37431,-102.76161 97.50088,-170.65811 160.41211,-212.22851 z m -727.41992,15.5625 -59.86133,46.34766 -0.39648,0.30468 c 1.93099,12.0459 3.10803,21.69313 3.04101,27.78711 -0.25947,23.59536 -6.2208,47.15438 -30.27734,55.8125 C 121.81815,632.48898 135,645.16656 135,660 129.28173,676.58841 118.02756,686.75065 104.15234,691.95898 128.2285,699.26867 135,720.60063 135,740 c 0,16.88968 -2.85174,38.91478 -6.16016,60.21875 -1.95154,2.162 -3.90854,4.29257 -5.87304,6.39453 C 138.56664,789.96704 153.92711,771.43051 170,750 200.25102,810.50205 230.44886,854.59181 266.85742,895.71484 221.90196,783.10482 193.58426,647.63449 191.70703,496.84961 Z M 44.53125,610.36133 0,644.61523 V 902.7832 C 30.797744,884.46615 56.707359,866.73637 80.427734,846.89844 72.427991,853.57027 64.158102,860.01913 55.517578,866.33008 48.1356,836.13212 35,776.24391 35,740 35,720.74035 41.674751,699.57565 65.384766,692.25586 47.265656,686.61054 35,674.30844 35,660 35,645.1697 48.176742,632.49354 66.972656,627.49805 56.528563,624.35562 49.361734,618.22105 44.53125,610.36133 Z m 1190.09765,68.79687 -1.1211,1.04688 c -20.0542,23.0427 -41.8711,45.665 -71.7441,65.72265 27.117,39.37142 36.6532,80.37363 27.7441,123.12891 25.4392,14.76465 47.2329,33.87001 67.875,55.8418 -10.0896,-28.95393 -26.9566,-68.05217 -64.6191,-89.36328 C 1229.865,829.72137 1245.3631,819.51581 1260,800 c -28.5778,-21.24841 -50.4759,-15.94491 -77.3027,-15.66992 39.149,-21.89578 49.9371,-64.78262 51.9316,-105.17188 z M 110.74609,819.23828 c -0.7889,0.78628 -1.58065,1.56702 -2.37304,2.3457 0.792,-0.77791 1.58362,-1.55961 2.37304,-2.3457 z m -5.15234,5.05078 c -0.76819,0.74251 -1.53476,1.48679 -2.30664,2.22266 0.77112,-0.73534 1.53841,-1.48017 2.30664,-2.22266 z m -5.26172,5.00586 c -2.077449,1.94603 -4.165139,3.87648 -6.273436,5.7793 2.104356,-1.90192 4.194747,-3.83083 6.273436,-5.7793 z m -6.539061,6.02149 c -1.467973,1.32281 -2.945132,2.63598 -4.429688,3.93945 1.482456,-1.30407 2.961518,-2.61456 4.429688,-3.93945 z M 377.5,862.5 a 11,22.5 0 0 0 -11,22.5 11,22.5 0 0 0 11,22.5 11,22.5 0 0 0 11,-22.5 11,22.5 0 0 0 -11,-22.5 z m 225.17578,127.46484 a 10,10 0 0 0 -10,10 10,10 0 0 0 10,9.99996 10,10 0 0 0 10,-9.99996 10,10 0 0 0 -10,-10 z M 420,990 a 10,10 0 0 0 -10,10 10,10 0 0 0 10,10 10,10 0 0 0 10,-10 10,10 0 0 0 -10,-10 z m 91.13281,0.41016 a 10,10 0 0 0 -10,10.00004 10,10 0 0 0 10,10 10,10 0 0 0 10,-10 10,10 0 0 0 -10,-10.00004 z"
       id="path2200" />
  </g>
  <g
     id="use1431"
     transform="matrix(0.12676923,0,0,0.13039999,-119.61969,-167.60851)">
    <path
       fill="#4444ff"
       d="m 472.5,150 a 12.5,20 0 0 0 -12.5,20 12.5,20 0 0 0 12.5,20 12.5,20 0 0 0 12.5,-20 12.5,20 0 0 0 -12.5,-20 z m -140,5 a 12.5,20 0 0 0 -12.5,20 12.5,20 0 0 0 12.5,20 12.5,20 0 0 0 12.5,-20 12.5,20 0 0 0 -12.5,-20 z m 23.49023,301.12891 c 3.54904,108.54757 3.24814,214.77856 28.25977,309.58398 83.90967,-121.45694 183.76187,-211.71291 282.33398,-298.83789 -85.00816,14.89038 -149.26165,18.48851 -200.56445,14.4043 -45.1152,-3.59162 -80.40237,-13.40501 -110.0293,-25.15039 z m 42.92579,22.92187 c 22.57573,0.10326 52.52779,2.34383 83.49804,6.2461 65.74558,8.28415 118.15335,21.65893 117.05469,29.87304 -1.09829,8.2139 -56.30922,5.07893 -122.05273,-3.20508 -65.73948,-8.28354 -117.1185,-18.57868 -116.02735,-26.79296 0.53448,-4.02047 14.07178,-6.22853 37.52735,-6.1211 z M 1117.5,492.5 c 2.4011,8.40385 4.2266,18.24941 5.4746,28.84375 v 0.36133 c 7.3876,-1.36391 16.4655,0.0837 27.2324,5.62304 l -21.2675,-21.26757 a 1.50015,1.50015 0 0 1 1.0449,-2.57617 1.50015,1.50015 0 0 1 1.0761,0.45507 l 21.2676,21.26758 c -5.5291,-10.74776 -6.9807,-19.81297 -5.6289,-27.19336 -10.7286,-1.24895 -20.7021,-3.08593 -29.1992,-5.51367 z m 130,0 c -8.4251,2.40718 -18.2988,4.23414 -28.9238,5.48242 h -0.2793 c 1.3613,7.38557 -0.087,16.46062 -5.6231,27.22266 l 21.2657,-21.26563 a 1.50015,1.50015 0 0 1 1.0312,-0.45312 1.50015,1.50015 0 0 1 1.0898,2.57422 l -21.2675,21.26757 c 10.7565,-5.53399 19.8272,-6.98416 27.2109,-5.62695 v -0.17187 c 1.2486,-10.6649 3.081,-20.57644 5.4961,-29.0293 z m -853.59961,15.25781 c 20.38428,0.10329 47.42876,2.34386 75.39258,6.2461 59.36368,8.28422 106.68388,21.65899 105.69141,29.87304 -0.99271,8.21355 -49.91699,8.15671 -109.27735,-0.12695 -59.36371,-8.28422 -106.68391,-21.659 -105.69141,-29.87305 0.48636,-4.01928 12.70935,-6.22659 33.88477,-6.11914 z m 7.69531,34.67969 c 15.09367,-0.0753 32.61454,0.81411 50.47852,2.5625 51.50146,5.04084 94.00823,14.75226 93.67578,23.00391 -0.32891,8.2521 -42.34749,10.85536 -93.84961,5.81445 C 400.39893,568.77752 358.91755,558.00165 359.25,549.75 c 0.20345,-5.08688 15.52034,-7.17888 42.3457,-7.3125 z m 590.81446,21.09375 c -26.28817,17.83124 -58.00395,39.71623 -85.84375,65.82227 L 1063.252,755.79883 c 5.9292,-6.64494 11.8308,-13.34093 17.6972,-20.10156 C 1043.5709,740.31699 1042.225,686.12754 1005,670 c 53.4509,-24.54202 74.1653,5.69528 79.6582,61.40234 18.288,-21.22222 36.2025,-43.13214 53.4609,-66.25 -50.4965,-31.89003 -99.3677,-65.63189 -145.70894,-101.62109 z m 92.24804,167.87109 c -1.2353,1.43353 -2.4703,2.86748 -3.709,4.29493 1.3064,-0.16146 2.6533,-0.388 4.0508,-0.69727 -0.1038,-1.21628 -0.2241,-2.40447 -0.3418,-3.59766 z m -21.4062,24.39649 1.3242,1.02344 C 1092.8236,758.22045 1130,765 1130,765 c 33.2353,-17.40792 57.5278,-36.95014 78.082,-57.38477 -19.9562,-11.65548 -39.7017,-23.55345 -59.2109,-35.71875 -15.5528,20.88792 -31.6462,40.7815 -48.0664,60.07227 34.429,-15.14174 49.9983,-46.37972 66.4785,-4.63672 -32.1431,-2.07452 -62.02,44.58146 -67.2129,5.5 -7.149,8.38604 -14.3562,16.66276 -21.6113,24.85352 z M 399.88477,574.98828 c 12.13924,-0.0753 26.23048,0.81416 40.59765,2.5625 41.42116,5.04089 74.78321,15.81675 74.51563,24.06836 -0.26463,8.25206 -34.05885,10.85531 -75.48047,5.81445 -41.42116,-5.04089 -74.78321,-15.81675 -74.51563,-24.06836 0.16364,-5.08693 13.30756,-8.24338 34.88282,-8.37695 z m 814.90823,12.6836 21.2675,21.26757 a 1.50015,1.50015 0 1 1 -2.121,2.1211 l -21.2657,-21.26563 c 5.5369,10.76367 6.9837,19.84044 5.6211,27.22656 h 0.3223 c 10.6094,1.24816 20.4685,3.07443 28.8828,5.47852 -2.4278,-8.49731 -4.2627,-18.47029 -5.5117,-29.19922 -7.3807,1.35234 -16.4468,-0.0994 -27.1953,-5.6289 z m -64.5879,0.002 c -10.7501,5.53028 -19.8161,6.98044 -27.1973,5.62695 v 0.0723 c -1.2488,10.70195 -3.0853,20.64836 -5.5078,29.12695 8.4975,-2.42785 18.4701,-4.26471 29.1992,-5.51367 -1.3518,-7.38039 0.1,-16.44561 5.6289,-27.19336 l -21.2676,21.26758 a 1.50015,1.50015 0 1 1 -2.121,-2.1211 z M 399.95117,608.2207 c 7.75591,-0.014 16.33902,0.59569 25.04883,1.7793 30.51033,4.14665 55.19775,16.74619 55.24414,25 0.0491,8.25469 -24.64792,11.5847 -55.16016,7.4375 -30.51033,-4.14665 -55.28173,-14.19933 -55.32812,-22.45312 -0.0324,-5.62262 11.68692,-11.73096 30.19531,-11.76368 z m 2.94141,36.28321 c 3.92832,-0.0157 8.00124,0.15115 12.10742,0.49609 25.08573,2.10744 44.77796,7.02839 45.42188,14.97852 0.64298,7.94981 -19.17087,12.68576 -44.25586,10.57812 -25.08573,-2.10744 -45.94398,-10.26081 -46.5879,-18.21094 -0.52278,-6.4668 13.79255,-7.76393 33.31446,-7.84179 z m -6.3711,30.78125 c 1.53788,10e-4 3.10151,0.0612 4.67383,0.17968 15.24356,1.1523 28.12847,7.43255 28.7793,14.02735 0.6519,6.59512 -11.17778,11.00764 -26.42188,9.85547 -15.24356,-1.1523 -28.12847,-7.43255 -28.77929,-14.02735 -0.57317,-5.81151 8.60794,-10.04793 21.74804,-10.03515 z m -2.7207,30.4707 c 0.97501,0.002 1.96625,0.0499 2.96289,0.14453 9.66123,0.91446 17.82809,5.89851 18.24219,11.13281 0.4126,5.23472 -7.08576,8.73687 -16.74805,7.82227 -9.66123,-0.91446 -17.82809,-5.89851 -18.24219,-11.13281 -0.3645,-4.61356 5.45528,-7.97697 13.78516,-7.9668 z m 906.19922,0.0781 -34.2773,2.85547 c 0.2249,20.00253 -6.7832,39.15319 -30.7188,56.31055 24.0241,2.30082 45.4719,10.59792 60,35 -9.9971,24.98116 -26.6502,40.00143 -50,45 19.6816,21.91005 28.1768,47.18324 30.0293,74.45312 l 0.01,0.008 24.957,11.09375 z m -167.2656,64.20508 c 0.2372,0.44647 0.4708,0.89347 0.7051,1.33985 -0.2343,-0.44637 -0.4679,-0.89339 -0.7051,-1.33985 z m 3.041,5.88282 c 0.083,0.16606 0.171,0.33199 0.2539,0.49804 -0.083,-0.16604 -0.1705,-0.33202 -0.2539,-0.49804 z m 2.6758,5.48437 c 0.2147,0.45253 0.425,0.90499 0.6367,1.35742 -0.2117,-0.45239 -0.4219,-0.90493 -0.6367,-1.35742 z m 2.455,5.32422 c 0.1795,0.40036 0.3641,0.80089 0.5411,1.20117 -0.177,-0.40029 -0.3615,-0.80081 -0.5411,-1.20117 z m 2.5958,5.98437 c 0.2099,0.50184 0.413,1.00415 0.6191,1.50586 -0.2062,-0.5018 -0.4092,-1.00393 -0.6191,-1.50586 z m 2.0703,5.11719 c 0.1975,0.50277 0.4,1.00516 0.5937,1.50781 -0.1937,-0.50252 -0.3962,-1.00516 -0.5937,-1.50781 z m 2.3418,6.1875 c 0.1922,0.53072 0.3764,1.06121 0.5644,1.5918 -0.188,-0.53055 -0.3722,-1.06112 -0.5644,-1.5918 z m 1.7324,4.96485 c 0.2042,0.60477 0.4106,1.20984 0.6094,1.81445 -0.1988,-0.60461 -0.4051,-1.20971 -0.6094,-1.81445 z m 2.0273,6.26562 c 0.1846,0.60177 0.3579,1.20308 0.5371,1.80469 -0.1792,-0.60139 -0.3525,-1.20313 -0.5371,-1.80469 z m 1.4688,5.00977 c 0.1799,0.63781 0.3593,1.27644 0.5332,1.91406 -0.174,-0.63786 -0.3532,-1.27602 -0.5332,-1.91406 z M 377.5,842.5 c -4.42321,0 -9.31831,2.00257 -14.86719,9.24023 C 357.08394,858.97789 352.5,871.0223 352.5,885 c 0,13.9777 4.58394,26.0221 10.13281,33.25977 5.54888,7.23766 10.44398,9.24023 14.86719,9.24023 4.42321,0 9.31831,-2.00257 14.86719,-9.24023 C 397.91606,911.0221 402.5,898.9777 402.5,885 c 0,-13.9777 -4.58394,-26.02211 -10.13281,-33.25977 C 386.81831,844.50257 381.92321,842.5 377.5,842.5 Z m -0.27344,4.79492 c 2.95574,0.0879 5.94922,5.08008 5.94922,10.70508 10.93128,-0.11104 14.67749,3.31056 5.67578,13 13.69744,3.7436 10.6454,8.69968 2.83789,14 7.80751,5.30032 10.85955,10.2564 -2.83789,14 9.00171,9.68944 5.2555,13.11104 -5.67578,13 0,10 -9.4596,18 -11.35156,0 -10.93128,0.11104 -14.67748,-3.31056 -5.67578,-13 -13.69744,-3.7436 -10.6454,-8.69968 -2.83789,-14 -7.80751,-5.30032 -10.85955,-10.2564 2.83789,-14 -9.0017,-9.68944 -5.2555,-13.11104 5.67578,-13 0.82773,-7.875 3.10344,-10.77344 5.40234,-10.70508 z m 352.35742,5.20508 -75.1914,86.93945 43.0039,-0.041 L 744.44531,885 H 840 l -15,-32.5 z m 29.72266,65 -19.23047,22.23633 L 876.25,939.95508 860,917.5 Z m -104.13476,52.41992 -315.75977,0.17969 c 2.43984,2.47881 4.98787,4.87423 7.56641,7.28906 15.37025,14.39437 29.32058,28.43253 41.91015,42.12693 1.06974,-4.4442 6.04965,-11.1309 16.11133,-19.5156 -30,-25 -15,-34.99999 15,-15 30,-19.99999 45,-10 15,15 30,25 15,35 -15,15 -11.06914,7.3794 -20.08451,10.6644 -25.5625,10.6289 1.31057,1.4627 2.62767,2.9262 3.90625,4.3809 l 256.41797,-0.1328 z m -170.01172,4.44531 C 490.60938,974.21875 499.75,977.5 511,985 c 30,-19.99999 45,-10 15,15 30,25 15,35 -15,15 -30,20 -45,10 -15,-15 -18.75,-15.625 -19.92188,-25.39063 -10.83984,-25.63477 z m 91,0 C 581.60938,974.21875 590.75,977.5 602,985 c 30,-19.99999 45,-10 15,15 30,25 15,35 -15,15 -30,20 -45,10 -15,-15 -18.75,-15.625 -19.92188,-25.39063 -10.83984,-25.63477 z"
       id="path2204" />
  </g>
  <g
     id="use1433"
     transform="matrix(-0.12676923,0,0,-0.13039999,45.180316,93.191479)">
    <path
       fill="#4444ff"
       d="m 472.5,150 a 12.5,20 0 0 0 -12.5,20 12.5,20 0 0 0 12.5,20 12.5,20 0 0 0 12.5,-20 12.5,20 0 0 0 -12.5,-20 z m -140,5 a 12.5,20 0 0 0 -12.5,20 12.5,20 0 0 0 12.5,20 12.5,20 0 0 0 12.5,-20 12.5,20 0 0 0 -12.5,-20 z m 23.49023,301.12891 c 3.54904,108.54757 3.24814,214.77856 28.25977,309.58398 83.90967,-121.45694 183.76187,-211.71291 282.33398,-298.83789 -85.00816,14.89038 -149.26165,18.48851 -200.56445,14.4043 -45.1152,-3.59162 -80.40237,-13.40501 -110.0293,-25.15039 z m 42.92579,22.92187 c 22.57573,0.10326 52.52779,2.34383 83.49804,6.2461 65.74558,8.28415 118.15335,21.65893 117.05469,29.87304 -1.09829,8.2139 -56.30922,5.07893 -122.05273,-3.20508 -65.73948,-8.28354 -117.1185,-18.57868 -116.02735,-26.79296 0.53448,-4.02047 14.07178,-6.22853 37.52735,-6.1211 z M 1117.5,492.5 c 2.4011,8.40385 4.2266,18.24941 5.4746,28.84375 v 0.36133 c 7.3876,-1.36391 16.4655,0.0837 27.2324,5.62304 l -21.2675,-21.26757 a 1.50015,1.50015 0 0 1 1.0449,-2.57617 1.50015,1.50015 0 0 1 1.0761,0.45507 l 21.2676,21.26758 c -5.5291,-10.74776 -6.9807,-19.81297 -5.6289,-27.19336 -10.7286,-1.24895 -20.7021,-3.08593 -29.1992,-5.51367 z m 130,0 c -8.4251,2.40718 -18.2988,4.23414 -28.9238,5.48242 h -0.2793 c 1.3613,7.38557 -0.087,16.46062 -5.6231,27.22266 l 21.2657,-21.26563 a 1.50015,1.50015 0 0 1 1.0312,-0.45312 1.50015,1.50015 0 0 1 1.0898,2.57422 l -21.2675,21.26757 c 10.7565,-5.53399 19.8272,-6.98416 27.2109,-5.62695 v -0.17187 c 1.2486,-10.6649 3.081,-20.57644 5.4961,-29.0293 z m -853.59961,15.25781 c 20.38428,0.10329 47.42876,2.34386 75.39258,6.2461 59.36368,8.28422 106.68388,21.65899 105.69141,29.87304 -0.99271,8.21355 -49.91699,8.15671 -109.27735,-0.12695 -59.36371,-8.28422 -106.68391,-21.659 -105.69141,-29.87305 0.48636,-4.01928 12.70935,-6.22659 33.88477,-6.11914 z m 7.69531,34.67969 c 15.09367,-0.0753 32.61454,0.81411 50.47852,2.5625 51.50146,5.04084 94.00823,14.75226 93.67578,23.00391 -0.32891,8.2521 -42.34749,10.85536 -93.84961,5.81445 C 400.39893,568.77752 358.91755,558.00165 359.25,549.75 c 0.20345,-5.08688 15.52034,-7.17888 42.3457,-7.3125 z m 590.81446,21.09375 c -26.28817,17.83124 -58.00395,39.71623 -85.84375,65.82227 L 1063.252,755.79883 c 5.9292,-6.64494 11.8308,-13.34093 17.6972,-20.10156 C 1043.5709,740.31699 1042.225,686.12754 1005,670 c 53.4509,-24.54202 74.1653,5.69528 79.6582,61.40234 18.288,-21.22222 36.2025,-43.13214 53.4609,-66.25 -50.4965,-31.89003 -99.3677,-65.63189 -145.70894,-101.62109 z m 92.24804,167.87109 c -1.2353,1.43353 -2.4703,2.86748 -3.709,4.29493 1.3064,-0.16146 2.6533,-0.388 4.0508,-0.69727 -0.1038,-1.21628 -0.2241,-2.40447 -0.3418,-3.59766 z m -21.4062,24.39649 1.3242,1.02344 C 1092.8236,758.22045 1130,765 1130,765 c 33.2353,-17.40792 57.5278,-36.95014 78.082,-57.38477 -19.9562,-11.65548 -39.7017,-23.55345 -59.2109,-35.71875 -15.5528,20.88792 -31.6462,40.7815 -48.0664,60.07227 34.429,-15.14174 49.9983,-46.37972 66.4785,-4.63672 -32.1431,-2.07452 -62.02,44.58146 -67.2129,5.5 -7.149,8.38604 -14.3562,16.66276 -21.6113,24.85352 z M 399.88477,574.98828 c 12.13924,-0.0753 26.23048,0.81416 40.59765,2.5625 41.42116,5.04089 74.78321,15.81675 74.51563,24.06836 -0.26463,8.25206 -34.05885,10.85531 -75.48047,5.81445 -41.42116,-5.04089 -74.78321,-15.81675 -74.51563,-24.06836 0.16364,-5.08693 13.30756,-8.24338 34.88282,-8.37695 z m 814.90823,12.6836 21.2675,21.26757 a 1.50015,1.50015 0 1 1 -2.121,2.1211 l -21.2657,-21.26563 c 5.5369,10.76367 6.9837,19.84044 5.6211,27.22656 h 0.3223 c 10.6094,1.24816 20.4685,3.07443 28.8828,5.47852 -2.4278,-8.49731 -4.2627,-18.47029 -5.5117,-29.19922 -7.3807,1.35234 -16.4468,-0.0994 -27.1953,-5.6289 z m -64.5879,0.002 c -10.7501,5.53028 -19.8161,6.98044 -27.1973,5.62695 v 0.0723 c -1.2488,10.70195 -3.0853,20.64836 -5.5078,29.12695 8.4975,-2.42785 18.4701,-4.26471 29.1992,-5.51367 -1.3518,-7.38039 0.1,-16.44561 5.6289,-27.19336 l -21.2676,21.26758 a 1.50015,1.50015 0 1 1 -2.121,-2.1211 z M 399.95117,608.2207 c 7.75591,-0.014 16.33902,0.59569 25.04883,1.7793 30.51033,4.14665 55.19775,16.74619 55.24414,25 0.0491,8.25469 -24.64792,11.5847 -55.16016,7.4375 -30.51033,-4.14665 -55.28173,-14.19933 -55.32812,-22.45312 -0.0324,-5.62262 11.68692,-11.73096 30.19531,-11.76368 z m 2.94141,36.28321 c 3.92832,-0.0157 8.00124,0.15115 12.10742,0.49609 25.08573,2.10744 44.77796,7.02839 45.42188,14.97852 0.64298,7.94981 -19.17087,12.68576 -44.25586,10.57812 -25.08573,-2.10744 -45.94398,-10.26081 -46.5879,-18.21094 -0.52278,-6.4668 13.79255,-7.76393 33.31446,-7.84179 z m -6.3711,30.78125 c 1.53788,10e-4 3.10151,0.0612 4.67383,0.17968 15.24356,1.1523 28.12847,7.43255 28.7793,14.02735 0.6519,6.59512 -11.17778,11.00764 -26.42188,9.85547 -15.24356,-1.1523 -28.12847,-7.43255 -28.77929,-14.02735 -0.57317,-5.81151 8.60794,-10.04793 21.74804,-10.03515 z m -2.7207,30.4707 c 0.97501,0.002 1.96625,0.0499 2.96289,0.14453 9.66123,0.91446 17.82809,5.89851 18.24219,11.13281 0.4126,5.23472 -7.08576,8.73687 -16.74805,7.82227 -9.66123,-0.91446 -17.82809,-5.89851 -18.24219,-11.13281 -0.3645,-4.61356 5.45528,-7.97697 13.78516,-7.9668 z m 906.19922,0.0781 -34.2773,2.85547 c 0.2249,20.00253 -6.7832,39.15319 -30.7188,56.31055 24.0241,2.30082 45.4719,10.59792 60,35 -9.9971,24.98116 -26.6502,40.00143 -50,45 19.6816,21.91005 28.1768,47.18324 30.0293,74.45312 l 0.01,0.008 24.957,11.09375 z m -167.2656,64.20508 c 0.2372,0.44647 0.4708,0.89347 0.7051,1.33985 -0.2343,-0.44637 -0.4679,-0.89339 -0.7051,-1.33985 z m 3.041,5.88282 c 0.083,0.16606 0.171,0.33199 0.2539,0.49804 -0.083,-0.16604 -0.1705,-0.33202 -0.2539,-0.49804 z m 2.6758,5.48437 c 0.2147,0.45253 0.425,0.90499 0.6367,1.35742 -0.2117,-0.45239 -0.4219,-0.90493 -0.6367,-1.35742 z m 2.455,5.32422 c 0.1795,0.40036 0.3641,0.80089 0.5411,1.20117 -0.177,-0.40029 -0.3615,-0.80081 -0.5411,-1.20117 z m 2.5958,5.98437 c 0.2099,0.50184 0.413,1.00415 0.6191,1.50586 -0.2062,-0.5018 -0.4092,-1.00393 -0.6191,-1.50586 z m 2.0703,5.11719 c 0.1975,0.50277 0.4,1.00516 0.5937,1.50781 -0.1937,-0.50252 -0.3962,-1.00516 -0.5937,-1.50781 z m 2.3418,6.1875 c 0.1922,0.53072 0.3764,1.06121 0.5644,1.5918 -0.188,-0.53055 -0.3722,-1.06112 -0.5644,-1.5918 z m 1.7324,4.96485 c 0.2042,0.60477 0.4106,1.20984 0.6094,1.81445 -0.1988,-0.60461 -0.4051,-1.20971 -0.6094,-1.81445 z m 2.0273,6.26562 c 0.1846,0.60177 0.3579,1.20308 0.5371,1.80469 -0.1792,-0.60139 -0.3525,-1.20313 -0.5371,-1.80469 z m 1.4688,5.00977 c 0.1799,0.63781 0.3593,1.27644 0.5332,1.91406 -0.174,-0.63786 -0.3532,-1.27602 -0.5332,-1.91406 z M 377.5,842.5 c -4.42321,0 -9.31831,2.00257 -14.86719,9.24023 C 357.08394,858.97789 352.5,871.0223 352.5,885 c 0,13.9777 4.58394,26.0221 10.13281,33.25977 5.54888,7.23766 10.44398,9.24023 14.86719,9.24023 4.42321,0 9.31831,-2.00257 14.86719,-9.24023 C 397.91606,911.0221 402.5,898.9777 402.5,885 c 0,-13.9777 -4.58394,-26.02211 -10.13281,-33.25977 C 386.81831,844.50257 381.92321,842.5 377.5,842.5 Z m -0.27344,4.79492 c 2.95574,0.0879 5.94922,5.08008 5.94922,10.70508 10.93128,-0.11104 14.67749,3.31056 5.67578,13 13.69744,3.7436 10.6454,8.69968 2.83789,14 7.80751,5.30032 10.85955,10.2564 -2.83789,14 9.00171,9.68944 5.2555,13.11104 -5.67578,13 0,10 -9.4596,18 -11.35156,0 -10.93128,0.11104 -14.67748,-3.31056 -5.67578,-13 -13.69744,-3.7436 -10.6454,-8.69968 -2.83789,-14 -7.80751,-5.30032 -10.85955,-10.2564 2.83789,-14 -9.0017,-9.68944 -5.2555,-13.11104 5.67578,-13 0.82773,-7.875 3.10344,-10.77344 5.40234,-10.70508 z m 352.35742,5.20508 -75.1914,86.93945 43.0039,-0.041 L 744.44531,885 H 840 l -15,-32.5 z m 29.72266,65 -19.23047,22.23633 L 876.25,939.95508 860,917.5 Z m -104.13476,52.41992 -315.75977,0.17969 c 2.43984,2.47881 4.98787,4.87423 7.56641,7.28906 15.37025,14.39437 29.32058,28.43253 41.91015,42.12693 1.06974,-4.4442 6.04965,-11.1309 16.11133,-19.5156 -30,-25 -15,-34.99999 15,-15 30,-19.99999 45,-10 15,15 30,25 15,35 -15,15 -11.06914,7.3794 -20.08451,10.6644 -25.5625,10.6289 1.31057,1.4627 2.62767,2.9262 3.90625,4.3809 l 256.41797,-0.1328 z m -170.01172,4.44531 C 490.60938,974.21875 499.75,977.5 511,985 c 30,-19.99999 45,-10 15,15 30,25 15,35 -15,15 -30,20 -45,10 -15,-15 -18.75,-15.625 -19.92188,-25.39063 -10.83984,-25.63477 z m 91,0 C 581.60938,974.21875 590.75,977.5 602,985 c 30,-19.99999 45,-10 15,15 30,25 15,35 -15,15 -30,20 -45,10 -15,-15 -18.75,-15.625 -19.92188,-25.39063 -10.83984,-25.63477 z"
       id="path2208" />
  </g>
  <g
     id="use1435"
     transform="matrix(0.12676923,0,0,0.13039999,-119.61969,-167.60851)">
    <path
       fill="#000000"
       d="M 499.67383,0 C 598.83088,212.42554 698.5156,423.78371 891.07812,444.24805 L 557.50781,0 Z M 299.89844,59.855469 C 265.54099,182.85387 187.08454,297.85994 240.09961,458.2793 L 349.875,372.94531 C 322.20549,333.64118 300,282.28964 300,255 c 0,-20 5.00324,-149.9992 5,-155 -10e-4,-2.004308 -2.41143,-19.27436 -5.10156,-40.144531 z M 899.91016,454.8418 C 746.55122,593.77022 578.78424,763.04072 429.50781,939.46875 l 40.84766,0.54297 C 595.55342,787.07576 764.14431,621.01748 918.95508,481.37891 Z m 65.79101,87.45703 c -28.87179,19.18723 -64.12524,44.12835 -93.97851,75.52344 l 25.55078,20.04296 c 30.22964,-29.84438 65.96002,-54.59002 95.59961,-73.97851 -9.28135,-6.87909 -18.47109,-14.10656 -27.17188,-21.58789 z M 685,755 525.10156,939.88281 570,940 699.86133,787.5 H 806.65039 L 805,755 Z"
       id="path2212" />
  </g>
  <g
     id="use1437"
     transform="matrix(-0.12676923,0,0,-0.13039999,45.180316,93.191479)">
    <path
       fill="#000000"
       d="M 499.67383,0 C 598.83088,212.42554 698.5156,423.78371 891.07812,444.24805 L 557.50781,0 Z M 299.89844,59.855469 C 265.54099,182.85387 187.08454,297.85994 240.09961,458.2793 L 349.875,372.94531 C 322.20549,333.64118 300,282.28964 300,255 c 0,-20 5.00324,-149.9992 5,-155 -10e-4,-2.004308 -2.41143,-19.27436 -5.10156,-40.144531 z M 899.91016,454.8418 C 746.55122,593.77022 578.78424,763.04072 429.50781,939.46875 l 40.84766,0.54297 C 595.55342,787.07576 764.14431,621.01748 918.95508,481.37891 Z m 65.79101,87.45703 c -28.87179,19.18723 -64.12524,44.12835 -93.97851,75.52344 l 25.55078,20.04296 c 30.22964,-29.84438 65.96002,-54.59002 95.59961,-73.97851 -9.28135,-6.87909 -18.47109,-14.10656 -27.17188,-21.58789 z M 685,755 525.10156,939.88281 570,940 699.86133,787.5 H 806.65039 L 805,755 Z"
       id="path2216" />
  </g>
  <g
     id="use1439"
     transform="matrix(0.12676923,0,0,0.13039999,-119.61969,-167.60851)">
    <path
       stroke="#4444ff"
       stroke-linecap="round"
       stroke-linejoin="round"
       stroke-width="6"
       fill="none"
       d="M 435,885 A 57.5,75.000002 0 0 1 377.5,960.00001 57.5,75.000002 0 0 1 320,885 57.5,75.000002 0 0 1 377.5,810 57.5,75.000002 0 0 1 435,885 v 0 m -17.92282,55 h 458.94909 m -567.75558,0 h 28.75722 m 2.46306,30 H 901.47783 M 131.84482,543.19629 351.03451,374.58883 M 6.9310566e-5,644.61533 44.832165,610.1291 M 1138.1663,665.18229 c -60.1737,-37.99916 -118.041,-78.62927 -172.87029,-122.72471 m 243.28359,165.44975 c -20.1878,-11.78458 -40.1599,-23.81534 -59.8906,-36.12132 M 557.51806,-3.5577172e-4 965.44559,542.57786 M 1299.7291,1059.765 c -68.4773,39.2778 -116.7334,76.5733 -164.2838,131.8131 -44.9491,-77.8482 -93.9175,-130.6069 -160.20897,-192.68943 -76.05982,-71.23062 -114.27421,-131.59148 -129.3711,-180.42578 -15.09688,-48.8343 -8.90849,-86.60287 7.94922,-120.96875 28.31708,-57.72677 91.51285,-102.35515 139.0695,-133.86354 M 499.68528,0.03748108 C 598.83742,212.45251 698.51437,423.77834 890.34164,443.851 M 364.36489,812.31243 C 320.07724,685.41364 328.50886,542.63024 321.33642,404.17725 c 76.71711,39.85219 163.35704,77.44074 457.8821,5.76082 C 644.587,533.12731 501.69292,642.05444 392.45651,811.84681 M 355.97656,456.125 c 29.62956,11.74764 64.92126,21.56216 110.04297,25.1543 51.30556,4.08443 115.56309,0.48617 200.57813,-14.40625 -98.57798,87.12824 -198.39177,177.48156 -282.2461,298.86133 -24.96545,-94.92731 -24.7974,-201.06283 -28.375,-309.60938 v 0 M 867.34252,440.4065 C 719.62961,574.07588 560.4386,730.57461 436.09373,879.43791 M 223.89186,472.86906 c -0.82324,183.16931 37.98603,343.48203 98.11552,466.27071 M 191.49798,496.71315 c 2.08648,150.92196 30.40471,286.39171 75.55251,398.73891 M 429.507,939.46794 C 578.78343,763.03991 746.55158,593.76963 899.91052,454.84121 M 470.35494,940.01166 C 595.55289,787.0757 764.14488,621.01728 918.95565,481.37871 M 525,940 685,755 H 805.41872 M 567.92551,940.0502 699.86133,787.5 H 806.65025 M 611.46541,939.39021 714.72266,820 h 97.2642 M 654.39213,939.43943 729.58398,852.5 h 93.89714 M 697.39662,939.39902 744.44531,885 h 95.04566 M 740.07521,939.73575 759.30664,917.5 H 860 M 906.39152,629.42293 1063.7852,756.67736 M 871.92369,617.813 1043.2441,757.01082 M 459.61865,481.34795 C 414.86903,573.51288 406.45192,669.62669 385,765 M 303.65592,-0.00221915 C 259.09343,162.78907 138.61386,327.07777 209.42337,483.4732 m 30.6766,-25.19366 C 187.0849,297.86018 265.54056,182.85405 300.09597,58.960082 M 805.81085,330.134 c 14.88787,-6.44544 30.42237,-12.16006 46.14865,-17.2138 M 0.09725143,902.73906 C 71.866196,860.06685 117.03718,820.61709 170,750 c 50,100 99.8567,155.1639 176.97865,227.3892 281.56105,263.6842 94.15072,409.6105 -13.08443,480.4695 M 377.5,842.5 c 4.42321,0 9.31831,2.00257 14.86719,9.24023 C 397.91606,858.97789 402.5,871.0223 402.5,885 c 0,13.9777 -4.58394,26.0221 -10.13281,33.25977 C 386.81831,925.49743 381.92321,927.5 377.5,927.5 c -4.42321,0 -9.31831,-2.00257 -14.86719,-9.24023 C 357.08394,911.0221 352.5,898.9777 352.5,885 c 0,-13.9777 4.58394,-26.02211 10.13281,-33.25977 C 368.18169,844.50257 373.07679,842.5 377.5,842.5 v 0 M 1130,765 c 16.8191,30.21345 26.6544,60.2083 30,90 47.2312,18.32372 82.8871,51.83723 115,90 2.3419,-37.0436 -4.2974,-71.38724 -30,-100 23.3498,-4.99857 40.0029,-20.01884 50,-45 -14.5281,-24.40208 -35.9759,-32.69918 -60,-35 44.8752,-32.16719 30.2665,-71.33926 20,-110 -32.9633,38.74398 -63.8666,77.97963 -125,110 v 0 m 170,-59.16666 -34.3239,2.86032 m 34.3236,221.86178 -26.1711,-11.63161 m -81.1017,-82.49825 c 37.6985,20.41997 54.5672,59.51932 65.2796,89.01033 M 1182.9686,784.9233 c 26.555,-0.86899 48.4536,-6.17171 77.0314,15.0767 -14.6369,19.51581 -30.1358,29.72065 -67.2011,34.6433 m 41.8298,-155.48539 c -1.9945,40.38926 -12.7829,83.27561 -52.2037,104.5774 m -20.0819,-38.31077 c 26.5383,39.87481 36.0743,80.87688 26.979,123.43436 M 1130,765 c 0,0 -82.1675,-15 -95,-5 -12.8325,10 -32.9691,31.30714 -40,40 -31.97044,39.52731 3.64509,49.72935 20,30 m 35,-30 c -59.31161,25.45028 -64.22618,120.61499 20,25 m -28.8067,28.52948 c -14.9444,32.29436 0.7581,60.30105 58.5,-5.24847 m -37.508,34.3097 C 1040.9944,921.29246 1103.755,918.14402 1160,855 m -96.7476,-99.20039 c 33.572,-37.62441 66.2866,-76.82735 96.4461,-120.73492 m -81.2403,122.62181 c 32.4929,-36.68328 64.0954,-75.00591 93.2554,-117.82589 M 1085,735 c -4.9523,-58.0017 -25.4042,-90.06768 -80,-65 38.526,16.69119 38.6175,74.15849 80,65 v 0 m -80,-65 c 37.8073,-6.25375 56.1399,40.79694 80,65 m 15,-2.66831 c 35,-15 50.6726,-47.07119 67.2824,-5 -32.2824,-2.08351 -62.2824,45 -67.2824,5 v 0 m 0.066,0.51364 c 26.3257,8.26747 52.4616,-23.9051 67.2162,-5.51364 M 1155.0001,585.00001 C 1080.0001,630 1080,484.99999 1155,530 c -45,-75 100,-75 55,0 75,-45 75,100 10e-5,55 45,75.00001 -100.0001,74.99999 -55,10e-6 v 0 M 1242.5,557.5 c -60,0 -60,0 -60,-60 0,60 0,60 -60,60 60,0 60,0 60,60 0,-60 0,-60 60,-60 v 0 m -119.5257,-36.15662 c -1.248,-10.59434 -3.0726,-20.43952 -5.4737,-28.84337 8.5766,2.45046 18.6544,4.30045 29.4977,5.54996 m -0.2429,118.92816 c -10.7509,1.24908 -20.7424,3.08971 -29.255,5.52188 2.4225,-8.47859 4.2581,-18.42426 5.5069,-29.12621 m 118.9412,-0.3881 c 1.2496,10.84959 3.1002,20.93331 5.5519,29.5143 -8.4143,-2.40409 -18.2735,-4.23021 -28.8829,-5.47837 m -0.041,-119.03844 c 10.625,-1.24828 20.4988,-3.07601 28.9239,-5.48319 -2.4151,8.45286 -4.2469,18.3639 -5.4955,29.0288 M 357.95908,386.26136 c -4.7848,-2.30618 -9.52375,-4.6875 -14.28345,-7.12611 m 404.39332,4.80377 C 622.45119,413.08814 538.88863,420.5377 479.79194,417.07826 m -123.80171,39.05065 c 29.62693,11.74538 64.9141,21.55877 110.0293,25.15039 51.3028,4.08421 115.55629,0.48608 200.56445,-14.4043 C 568.01187,553.99998 468.15967,644.25595 384.25,765.71289 359.23837,670.90747 359.53927,564.67648 355.99023,456.12891 v 0 M 85,135 c 10.787262,31.12992 5,90 35,90 65,0 20,-95 -35,-145 -55.000004,50 -100.000004,145 -35,145 30,0 24.21273,-58.87008 35,-90 v 0 M 40,285 c 0,0 0,-10 10,-10 12.88094,0 15,45 -10,45 -34.999996,0 -29.999996,-70 5,-70 30,0 40,50 40,50 0,0 10,-50 40,-50 35,0 40,70 5,70 -25,0 -22.88094,-45 -10,-45 10,0 10,10 10,10 m -10,-10 c -55,2.66831 15,250 14.49097,296.289 C 134.16784,600.67311 125,630 85,630 45,630 35.832163,600.67311 35.509031,571.289 35,525 105,277.66831 50,275 m 20,-10.01642 v -56.65025 m 30,56.8555 v -56.44499 m 3.20611,418.64879 C 121.81764,632.48836 135,645.16656 135,660 c 0,19.32997 -22.38576,35 -50,35 -27.614237,0 -50,-15.67003 -50,-35 0,-14.8303 13.176786,-27.50627 31.782083,-32.60414 M 65.931232,692.4756 C 41.674852,699.57662 35,720.74035 35,740 c 0,36.24391 13.136211,96.133 20.364326,126.34321 M 128.36935,800.67704 C 132.14739,778.91407 135,756.88968 135,740 c 0,-19.39937 -6.77205,-40.73054 -31.46191,-47.67672 M 256.89224,885 h 6.38602 M 1.1417102e-4,884.99999 28.737098,885 M 245.57157,870 h 11.90122 M 2.5229169e-5,870.00002 51.088175,870 M 233.67034,855 h 18.57752 M 4.1609595e-5,854.99999 52.539543,855 M 222.93022,840 h 24.09272 M 7.6084636e-5,840.00001 49.346532,840 M 212.77064,825 h 29.89819 M 4.2336546e-5,825.00002 46.443795,825 M 203.1916,810 h 34.54258 M 4.0905762e-6,810.00002 43.541058,810 M 194.48339,795 h 38.89668 m -103.91799,0 h 5.22493 M -3.8457096e-5,795.00001 40.638321,795 M 186.06545,780 h 42.96051 m -97.24169,0 h 14.51368 M -3.1733115e-5,780.00001 38.316131,780 M 178.22806,765 h 46.73407 m -91.14595,0 h 24.67327 M 10,765 h 26.284215 m 98.402795,-15 h 86.50156 M 10,750 H 34.542573 M 134.97728,735 h 83.01828 M 15,735 h 20.12312 m 97.53197,-15 H 205 M 15,720 H 37.844594 M 155,705 h 45 M 325,510 c -11.82334,-17.57111 -24.45521,-31.94743 -45.42097,-47.16261 -21.67788,-15.73198 -32.01525,9.6364 -23.86278,22.70472 M 325,540 c -13.68399,-15.7169 -40.72661,-39.31758 -62.25684,-51.80699 -20.39713,-11.83211 -26.52283,15.09906 -9.53546,27.99468 m 73.44133,56.35104 c -13.68399,-15.7169 -40.42328,-39.85576 -62.25684,-51.80699 -33.04187,-18.08643 -43.83934,14.15892 -2.74316,31.80699 m 68.03301,79.60586 c -13.68399,-15.7169 -40.42328,-39.85576 -62.25684,-51.80699 -30.81157,-16.86561 -37.65608,16.8659 -5.11631,35.80661 m 65.75875,-18.45644 c -13.86078,-13.59047 -33.31597,-27.70524 -50.77313,-39.51278 -22.07438,-14.9305 -34.10496,4.47364 -22.83565,17.22609 m 77.7369,83.98727 c -13.77031,-13.23256 -32.62008,-26.88451 -49.58329,-38.35795 -24.04479,-16.26322 -36.17268,12.27173 -19.25152,25.31598 m 72.11968,40.25996 C 319.24375,673.64242 295.51352,659.7442 277.4252,650.3376 c -31.2697,-16.26141 -36.88691,20.47944 -3.29829,37.12122 m 65.3155,22.48474 C 293.812,671.34406 241.20364,684.64228 285,715 m 60.57813,28.85785 c -49.78299,-42.23381 -140.14002,-42.27022 -51.45386,5.50004 m 65.02952,48.06945 C 296.30783,757.35598 217.41506,767.9862 315.25691,808.08817 m 40.89528,7.62772 c -43.41581,-18.1629 -92.79129,0.20988 -43.97099,13.65755 m 23.61529,4.1773 c -36.46249,-11.38361 -55.92576,9.42664 -11.42381,20.21059 m -0.73532,-386.3746 c -7.1925,-7.58612 -15.51039,-14.89158 -25.85855,-22.4014 -17.52111,-12.71535 -26.71907,0.32727 -25.12324,12.4885 m 49.5032,-29.24675 c -1.31784,-1.00168 -2.67007,-2.00587 -4.05887,-3.01374 -19.41173,-14.0874 -28.60717,3.4419 -24.22651,16.36102 m 57.62831,327.77232 c -41.8286,-32.62324 -87.13007,-22.98664 -57.82646,2.59886 m 102.8346,33.08844 c 97.55186,1.04019 65.93584,25.61549 21.19412,25.63392 m -7.49987,-44.95206 c 31.87867,-11.92022 60.58013,-9.17207 74.95842,-1.62887 16.81695,8.82258 14.04006,24.2047 -26.16419,30.34906 M 430.54986,757.7319 c 58.57662,-11.0001 103.69453,13.94896 55.48459,26.1888 m -34.41102,-54.31677 c 67.42086,-18.09697 125.45489,10.74224 49.42624,33.66324 m -31.89741,-55.6497 c 69.25339,-23.47062 135.42699,4.47512 67.15155,28.14525 m -39.26907,-60.02878 c 50.50234,-8.00778 88.6752,9.66559 55.551,28.0217 m -38.52288,-47.18849 c 77.25396,-19.94453 157.95502,17.262 48.7626,27.75334 m -11.91017,-66.01013 c 57.1762,-5.00205 100.00874,18.02731 40.2256,35.03407 m -22.25012,-52.40507 c 75.24789,-19.79781 151.84194,14.60918 51.22446,34.33609 m -23.27522,-61.11911 c 55.64482,-7.64299 102.46778,11.7471 64.24628,28.76475 m -40.34868,-50.8132 c 71.56974,-16.51587 140.66537,14.62009 53.45997,34.06378 m -13.46325,-70.60184 c 57.1151,-4.52529 99.00079,18.87447 36.45506,35.78648 m -12.8022,-56.7677 c 73.88041,-16.89549 144.8643,16.89901 43.68109,36.08147 m -5.27264,-69.84384 c 57.76542,-5.50387 101.75016,17.65976 42.02455,34.7974 M 748.43052,437.7647 c 68.01755,-11.92015 127.59071,17.4385 43.80212,36.02686 M 645.55164,273.86211 C 640.4516,285.47932 635.59316,297.26013 610,295 c -14.37233,81.30224 -73.77303,98.38804 -130,120 0,0 -19.41945,15.64589 -29.41945,15.64589 C 435.58055,430.64589 425,425 420,425 c -5,0 -10,5 -25,5 -15,0 -30,-25 -40,-50 -30,-40 -55,-96.04455 -55,-125 0,-20 5.003,-149.9992 5,-155 -0.002,-3.089335 -5.72781,-42.445846 -10.1037,-72.07356 m 328.03691,212.395 C 616.61632,250.552 609.19352,264.74236 615,265 c 2.73428,0.12132 6.96971,-10.37759 10.24354,-19.90618 m 278.91664,249.72066 50.56379,54.17549 m -64.73366,-40.78607 48.73454,52.21558 m -63.3769,-39.33239 48.01937,51.44933 m -61.73041,-37.5683 46.15447,49.45122 m -60.77483,-36.54447 45.96336,49.24646 m -60.14689,-35.87167 35.28817,37.80876 m -49.45804,-24.41934 24.02599,25.74214 m -38.82382,-13.02552 17.84203,19.11646 m -31.64333,-5.33213 8.92784,9.56554 M 482.75862,925 h 55.41872 m -42.28243,-15 h 55.00821 m -42.69294,-15 h 55.82923 m -42.69294,-15 h 55.41872 m -42.28243,-15 h 55.41872 M 552.95566,845 H 585 m 205,-25 v 32.5 M 765,820 v 32.5 M 740,820 v 32.5 m -36.73235,-19.23235 22.578,22.578 m -41.75698,-1.75698 23.39901,23.39901 m -41.55172,-1.55172 22.78325,22.78325 m -40.52545,-0.52545 22.578,22.578 m -41.55173,-1.55173 20.73071,20.73071 M 791.29599,310.75526 c 15.62961,-6.29692 31.83381,-11.83473 48.11454,-16.69002 m -63.25389,-3.71391 c 15.84539,-6.35519 32.2728,-11.93292 48.76488,-16.81275 m -64.09929,-3.05298 c 16.18061,-6.50419 32.97255,-12.19625 49.8241,-17.16102 m -64.09819,-1.09592 c 16.42632,-6.7965 33.54246,-12.73644 50.75899,-17.91046 m -58.18617,-5.14411 c 11.71799,-4.608 23.73402,-8.79725 35.84163,-12.5995 m -48.4158,-8.34685 c 8.46394,-3.2756 17.07495,-6.33535 25.75602,-9.1911 m -40.61657,-10.69747 c 5.39484,-2.00758 10.85695,-3.94932 16.37032,-5.82515 M 900.40882,94.431781 C 848.5463,114.25376 796.72828,69.769511 761.4322,93.621964 715,125.00001 755,185 789.33498,165.18883 821.13528,146.84017 790,105 775,115 c -9.30261,6.20174 -14.88842,18.30946 -10,25 6.18042,8.45885 10.48873,9.62814 20,5 M 901.46652,97.13303 C 861.76115,135.4564 879.34663,201.01228 842.74068,222.52055 794.42332,250.91 757.5027,188.96753 790.17065,166.51363 c 30.25635,-20.79631 54.6061,25.32412 39.1205,34.55428 -9.60379,5.72429 -22.93675,5.55043 -26.86936,-1.74304 -4.972,-9.22111 -4.17161,-13.61293 4.10189,-20.20332 M 765,180 855,120 m -10,40 c -10,-10 -45.467,-11.35662 -55,5 22.00764,-11.03808 34.76336,-24.75676 25,-45 m -20,110 c 25,30 50,20 75,10 24.05541,32.7653 64.66095,38.66637 105,45 M 725,130 C 715,110 740,85 755,75 749.14905,51.948962 757.70702,26.00987 766.59362,0.00490542 M 700,90 c 10,-25 25,-25 25,-25 -8.48271,-38.172217 3.28893,-47.867055 8.18679,-64.93099617 M 427.96416,0.01822477 C 445.06535,51.748024 483.31343,78.400493 539.31946,83.994433 M 446.67053,0.04362022 C 462.63103,38.843647 492.03631,61.699978 533.14043,70.683071 M 461.24526,0.01603427 C 475.22521,27.447203 496.92922,45.718691 525.58366,55.74792 M 476.99588,0.10806452 C 487.38028,16.453559 500.99836,28.964352 517.63646,37.893813 M 371.26432,0.04443925 C 356.34418,40.196712 340.91798,80.075485 304.69652,100.28589 M 355.60874,0.04353776 C 343.34293,31.804187 329.13875,61.845937 302.67098,80.298673 M 339.57059,0.02060224 C 329.73362,23.196287 317.89132,44.53011 299.71459,59.883794 M 325.15652,0.08430598 C 317.46458,14.722402 308.27692,27.964826 296.26758,38.544057 M 305,120 c 41.1016,-25.066138 61.56092,-14.28714 80,0 20,55 -15,110 -14.41945,151.6763 0.21559,15.47674 11.72696,13.44856 19.41945,13.3237 4.99934,-0.0811 15,10 15,10 M 305,125 c 29.58587,-20.97635 55.47603,-17.50669 80,-5 m 45,125 c 20,0 20,30 5,30 -40,5 -40,-10 -5,0 m -65,40 v 10 l 5,-5 -5,-5 v 0 m 90,5 5,-5 v 10 l -5,-5 v 0 m -85,0 c 0,0 5,5 10,5 5,0 5.24415,-4.00984 12.32219,-4.4848 C 400,320 400,325 405,325 c 5,0 15,-10 20,-10 5,0 15,5 20,5 h 10 m -65,20 c 3.06957,28.45212 45.6136,8.68856 45,5 -5,5 -44.77199,31.85105 -45,-5 v 0 m 40,-205 c 51.53607,-36.718861 85.86501,-16.18211 120,5 -35.40475,-25.98218 -85,-45 -120,-5 v 0 m 110,25 C 525,160 503.52953,134.61544 483.61398,136.45137 453.79885,139.1999 445,175 430,180 447.93464,158.59181 463.7944,151.78059 478.07024,151.93493 507.27438,152.25068 515,185 550,175 m -120,5 c 15,-10 32.80939,10.04302 45.17423,9.94542 C 504.08195,189.71723 519.49385,175 530,175 m -150,0 c -20,0 -30.87367,-19.1648 -47.03192,-20.29027 -12.3413,-0.85961 -29.19452,12.61246 -29.19452,17.61246 0,7.07107 11.23734,20.70784 22.74316,23.25836 C 342.90794,199.21402 362.81244,175.3491 380,175 v 0 m -75,-10 c 22.64276,-42.75014 64.95345,-9.49214 65,-5 m 450,105 c 15,15 35,10 45,5 20.5191,14.6565 42.75671,20.72048 62.68286,23.22939 m -75.81633,19.10768 C 895.10619,299.11787 938.83136,290.34833 975,285 924.90149,188.22308 899.90057,94.152754 874.11725,-0.00195137 M 851.86653,312.33707 C 895.10619,299.11787 938.83136,290.34833 975,285 924.90149,188.22308 899.90057,94.152754 874.11725,-0.00195137 M 851.01315,311.99775 635.36748,-2.4089679e-4 M 927.65339,293.26472 C 907.75671,290.72048 885.5191,284.6565 865,270 c -10,5 -30,10 -45,-5"
       id="path2220" />
  </g>
  <g
     id="use1441"
     transform="matrix(-0.12676923,0,0,-0.13039999,45.180316,93.191479)">
    <path
       stroke="#4444ff"
       stroke-linecap="round"
       stroke-linejoin="round"
       stroke-width="6"
       fill="none"
       d="M 435,885 A 57.5,75.000002 0 0 1 377.5,960.00001 57.5,75.000002 0 0 1 320,885 57.5,75.000002 0 0 1 377.5,810 57.5,75.000002 0 0 1 435,885 v 0 m -17.92282,55 h 458.94909 m -567.75558,0 h 28.75722 m 2.46306,30 H 901.47783 M 131.84482,543.19629 351.03451,374.58883 M 6.9310566e-5,644.61533 44.832165,610.1291 M 1138.1663,665.18229 c -60.1737,-37.99916 -118.041,-78.62927 -172.87029,-122.72471 m 243.28359,165.44975 c -20.1878,-11.78458 -40.1599,-23.81534 -59.8906,-36.12132 M 557.51806,-3.5577172e-4 965.44559,542.57786 M 1299.7291,1059.765 c -68.4773,39.2778 -116.7334,76.5733 -164.2838,131.8131 -44.9491,-77.8482 -93.9175,-130.6069 -160.20897,-192.68943 -76.05982,-71.23062 -114.27421,-131.59148 -129.3711,-180.42578 -15.09688,-48.8343 -8.90849,-86.60287 7.94922,-120.96875 28.31708,-57.72677 91.51285,-102.35515 139.0695,-133.86354 M 499.68528,0.03748108 C 598.83742,212.45251 698.51437,423.77834 890.34164,443.851 M 364.36489,812.31243 C 320.07724,685.41364 328.50886,542.63024 321.33642,404.17725 c 76.71711,39.85219 163.35704,77.44074 457.8821,5.76082 C 644.587,533.12731 501.69292,642.05444 392.45651,811.84681 M 355.97656,456.125 c 29.62956,11.74764 64.92126,21.56216 110.04297,25.1543 51.30556,4.08443 115.56309,0.48617 200.57813,-14.40625 -98.57798,87.12824 -198.39177,177.48156 -282.2461,298.86133 -24.96545,-94.92731 -24.7974,-201.06283 -28.375,-309.60938 v 0 M 867.34252,440.4065 C 719.62961,574.07588 560.4386,730.57461 436.09373,879.43791 M 223.89186,472.86906 c -0.82324,183.16931 37.98603,343.48203 98.11552,466.27071 M 191.49798,496.71315 c 2.08648,150.92196 30.40471,286.39171 75.55251,398.73891 M 429.507,939.46794 C 578.78343,763.03991 746.55158,593.76963 899.91052,454.84121 M 470.35494,940.01166 C 595.55289,787.0757 764.14488,621.01728 918.95565,481.37871 M 525,940 685,755 H 805.41872 M 567.92551,940.0502 699.86133,787.5 H 806.65025 M 611.46541,939.39021 714.72266,820 h 97.2642 M 654.39213,939.43943 729.58398,852.5 h 93.89714 M 697.39662,939.39902 744.44531,885 h 95.04566 M 740.07521,939.73575 759.30664,917.5 H 860 M 906.39152,629.42293 1063.7852,756.67736 M 871.92369,617.813 1043.2441,757.01082 M 459.61865,481.34795 C 414.86903,573.51288 406.45192,669.62669 385,765 M 303.65592,-0.00221915 C 259.09343,162.78907 138.61386,327.07777 209.42337,483.4732 m 30.6766,-25.19366 C 187.0849,297.86018 265.54056,182.85405 300.09597,58.960082 M 805.81085,330.134 c 14.88787,-6.44544 30.42237,-12.16006 46.14865,-17.2138 M 0.09725143,902.73906 C 71.866196,860.06685 117.03718,820.61709 170,750 c 50,100 99.8567,155.1639 176.97865,227.3892 281.56105,263.6842 94.15072,409.6105 -13.08443,480.4695 M 377.5,842.5 c 4.42321,0 9.31831,2.00257 14.86719,9.24023 C 397.91606,858.97789 402.5,871.0223 402.5,885 c 0,13.9777 -4.58394,26.0221 -10.13281,33.25977 C 386.81831,925.49743 381.92321,927.5 377.5,927.5 c -4.42321,0 -9.31831,-2.00257 -14.86719,-9.24023 C 357.08394,911.0221 352.5,898.9777 352.5,885 c 0,-13.9777 4.58394,-26.02211 10.13281,-33.25977 C 368.18169,844.50257 373.07679,842.5 377.5,842.5 v 0 M 1130,765 c 16.8191,30.21345 26.6544,60.2083 30,90 47.2312,18.32372 82.8871,51.83723 115,90 2.3419,-37.0436 -4.2974,-71.38724 -30,-100 23.3498,-4.99857 40.0029,-20.01884 50,-45 -14.5281,-24.40208 -35.9759,-32.69918 -60,-35 44.8752,-32.16719 30.2665,-71.33926 20,-110 -32.9633,38.74398 -63.8666,77.97963 -125,110 v 0 m 170,-59.16666 -34.3239,2.86032 m 34.3236,221.86178 -26.1711,-11.63161 m -81.1017,-82.49825 c 37.6985,20.41997 54.5672,59.51932 65.2796,89.01033 M 1182.9686,784.9233 c 26.555,-0.86899 48.4536,-6.17171 77.0314,15.0767 -14.6369,19.51581 -30.1358,29.72065 -67.2011,34.6433 m 41.8298,-155.48539 c -1.9945,40.38926 -12.7829,83.27561 -52.2037,104.5774 m -20.0819,-38.31077 c 26.5383,39.87481 36.0743,80.87688 26.979,123.43436 M 1130,765 c 0,0 -82.1675,-15 -95,-5 -12.8325,10 -32.9691,31.30714 -40,40 -31.97044,39.52731 3.64509,49.72935 20,30 m 35,-30 c -59.31161,25.45028 -64.22618,120.61499 20,25 m -28.8067,28.52948 c -14.9444,32.29436 0.7581,60.30105 58.5,-5.24847 m -37.508,34.3097 C 1040.9944,921.29246 1103.755,918.14402 1160,855 m -96.7476,-99.20039 c 33.572,-37.62441 66.2866,-76.82735 96.4461,-120.73492 m -81.2403,122.62181 c 32.4929,-36.68328 64.0954,-75.00591 93.2554,-117.82589 M 1085,735 c -4.9523,-58.0017 -25.4042,-90.06768 -80,-65 38.526,16.69119 38.6175,74.15849 80,65 v 0 m -80,-65 c 37.8073,-6.25375 56.1399,40.79694 80,65 m 15,-2.66831 c 35,-15 50.6726,-47.07119 67.2824,-5 -32.2824,-2.08351 -62.2824,45 -67.2824,5 v 0 m 0.066,0.51364 c 26.3257,8.26747 52.4616,-23.9051 67.2162,-5.51364 M 1155.0001,585.00001 C 1080.0001,630 1080,484.99999 1155,530 c -45,-75 100,-75 55,0 75,-45 75,100 10e-5,55 45,75.00001 -100.0001,74.99999 -55,10e-6 v 0 M 1242.5,557.5 c -60,0 -60,0 -60,-60 0,60 0,60 -60,60 60,0 60,0 60,60 0,-60 0,-60 60,-60 v 0 m -119.5257,-36.15662 c -1.248,-10.59434 -3.0726,-20.43952 -5.4737,-28.84337 8.5766,2.45046 18.6544,4.30045 29.4977,5.54996 m -0.2429,118.92816 c -10.7509,1.24908 -20.7424,3.08971 -29.255,5.52188 2.4225,-8.47859 4.2581,-18.42426 5.5069,-29.12621 m 118.9412,-0.3881 c 1.2496,10.84959 3.1002,20.93331 5.5519,29.5143 -8.4143,-2.40409 -18.2735,-4.23021 -28.8829,-5.47837 m -0.041,-119.03844 c 10.625,-1.24828 20.4988,-3.07601 28.9239,-5.48319 -2.4151,8.45286 -4.2469,18.3639 -5.4955,29.0288 M 357.95908,386.26136 c -4.7848,-2.30618 -9.52375,-4.6875 -14.28345,-7.12611 m 404.39332,4.80377 C 622.45119,413.08814 538.88863,420.5377 479.79194,417.07826 m -123.80171,39.05065 c 29.62693,11.74538 64.9141,21.55877 110.0293,25.15039 51.3028,4.08421 115.55629,0.48608 200.56445,-14.4043 C 568.01187,553.99998 468.15967,644.25595 384.25,765.71289 359.23837,670.90747 359.53927,564.67648 355.99023,456.12891 v 0 M 85,135 c 10.787262,31.12992 5,90 35,90 65,0 20,-95 -35,-145 -55.000004,50 -100.000004,145 -35,145 30,0 24.21273,-58.87008 35,-90 v 0 M 40,285 c 0,0 0,-10 10,-10 12.88094,0 15,45 -10,45 -34.999996,0 -29.999996,-70 5,-70 30,0 40,50 40,50 0,0 10,-50 40,-50 35,0 40,70 5,70 -25,0 -22.88094,-45 -10,-45 10,0 10,10 10,10 m -10,-10 c -55,2.66831 15,250 14.49097,296.289 C 134.16784,600.67311 125,630 85,630 45,630 35.832163,600.67311 35.509031,571.289 35,525 105,277.66831 50,275 m 20,-10.01642 v -56.65025 m 30,56.8555 v -56.44499 m 3.20611,418.64879 C 121.81764,632.48836 135,645.16656 135,660 c 0,19.32997 -22.38576,35 -50,35 -27.614237,0 -50,-15.67003 -50,-35 0,-14.8303 13.176786,-27.50627 31.782083,-32.60414 M 65.931232,692.4756 C 41.674852,699.57662 35,720.74035 35,740 c 0,36.24391 13.136211,96.133 20.364326,126.34321 M 128.36935,800.67704 C 132.14739,778.91407 135,756.88968 135,740 c 0,-19.39937 -6.77205,-40.73054 -31.46191,-47.67672 M 256.89224,885 h 6.38602 M 1.1417102e-4,884.99999 28.737098,885 M 245.57157,870 h 11.90122 M 2.5229169e-5,870.00002 51.088175,870 M 233.67034,855 h 18.57752 M 4.1609595e-5,854.99999 52.539543,855 M 222.93022,840 h 24.09272 M 7.6084636e-5,840.00001 49.346532,840 M 212.77064,825 h 29.89819 M 4.2336546e-5,825.00002 46.443795,825 M 203.1916,810 h 34.54258 M 4.0905762e-6,810.00002 43.541058,810 M 194.48339,795 h 38.89668 m -103.91799,0 h 5.22493 M -3.8457096e-5,795.00001 40.638321,795 M 186.06545,780 h 42.96051 m -97.24169,0 h 14.51368 M -3.1733115e-5,780.00001 38.316131,780 M 178.22806,765 h 46.73407 m -91.14595,0 h 24.67327 M 10,765 h 26.284215 m 98.402795,-15 h 86.50156 M 10,750 H 34.542573 M 134.97728,735 h 83.01828 M 15,735 h 20.12312 m 97.53197,-15 H 205 M 15,720 H 37.844594 M 155,705 h 45 M 325,510 c -11.82334,-17.57111 -24.45521,-31.94743 -45.42097,-47.16261 -21.67788,-15.73198 -32.01525,9.6364 -23.86278,22.70472 M 325,540 c -13.68399,-15.7169 -40.72661,-39.31758 -62.25684,-51.80699 -20.39713,-11.83211 -26.52283,15.09906 -9.53546,27.99468 m 73.44133,56.35104 c -13.68399,-15.7169 -40.42328,-39.85576 -62.25684,-51.80699 -33.04187,-18.08643 -43.83934,14.15892 -2.74316,31.80699 m 68.03301,79.60586 c -13.68399,-15.7169 -40.42328,-39.85576 -62.25684,-51.80699 -30.81157,-16.86561 -37.65608,16.8659 -5.11631,35.80661 m 65.75875,-18.45644 c -13.86078,-13.59047 -33.31597,-27.70524 -50.77313,-39.51278 -22.07438,-14.9305 -34.10496,4.47364 -22.83565,17.22609 m 77.7369,83.98727 c -13.77031,-13.23256 -32.62008,-26.88451 -49.58329,-38.35795 -24.04479,-16.26322 -36.17268,12.27173 -19.25152,25.31598 m 72.11968,40.25996 C 319.24375,673.64242 295.51352,659.7442 277.4252,650.3376 c -31.2697,-16.26141 -36.88691,20.47944 -3.29829,37.12122 m 65.3155,22.48474 C 293.812,671.34406 241.20364,684.64228 285,715 m 60.57813,28.85785 c -49.78299,-42.23381 -140.14002,-42.27022 -51.45386,5.50004 m 65.02952,48.06945 C 296.30783,757.35598 217.41506,767.9862 315.25691,808.08817 m 40.89528,7.62772 c -43.41581,-18.1629 -92.79129,0.20988 -43.97099,13.65755 m 23.61529,4.1773 c -36.46249,-11.38361 -55.92576,9.42664 -11.42381,20.21059 m -0.73532,-386.3746 c -7.1925,-7.58612 -15.51039,-14.89158 -25.85855,-22.4014 -17.52111,-12.71535 -26.71907,0.32727 -25.12324,12.4885 m 49.5032,-29.24675 c -1.31784,-1.00168 -2.67007,-2.00587 -4.05887,-3.01374 -19.41173,-14.0874 -28.60717,3.4419 -24.22651,16.36102 m 57.62831,327.77232 c -41.8286,-32.62324 -87.13007,-22.98664 -57.82646,2.59886 m 102.8346,33.08844 c 97.55186,1.04019 65.93584,25.61549 21.19412,25.63392 m -7.49987,-44.95206 c 31.87867,-11.92022 60.58013,-9.17207 74.95842,-1.62887 16.81695,8.82258 14.04006,24.2047 -26.16419,30.34906 M 430.54986,757.7319 c 58.57662,-11.0001 103.69453,13.94896 55.48459,26.1888 m -34.41102,-54.31677 c 67.42086,-18.09697 125.45489,10.74224 49.42624,33.66324 m -31.89741,-55.6497 c 69.25339,-23.47062 135.42699,4.47512 67.15155,28.14525 m -39.26907,-60.02878 c 50.50234,-8.00778 88.6752,9.66559 55.551,28.0217 m -38.52288,-47.18849 c 77.25396,-19.94453 157.95502,17.262 48.7626,27.75334 m -11.91017,-66.01013 c 57.1762,-5.00205 100.00874,18.02731 40.2256,35.03407 m -22.25012,-52.40507 c 75.24789,-19.79781 151.84194,14.60918 51.22446,34.33609 m -23.27522,-61.11911 c 55.64482,-7.64299 102.46778,11.7471 64.24628,28.76475 m -40.34868,-50.8132 c 71.56974,-16.51587 140.66537,14.62009 53.45997,34.06378 m -13.46325,-70.60184 c 57.1151,-4.52529 99.00079,18.87447 36.45506,35.78648 m -12.8022,-56.7677 c 73.88041,-16.89549 144.8643,16.89901 43.68109,36.08147 m -5.27264,-69.84384 c 57.76542,-5.50387 101.75016,17.65976 42.02455,34.7974 M 748.43052,437.7647 c 68.01755,-11.92015 127.59071,17.4385 43.80212,36.02686 M 645.55164,273.86211 C 640.4516,285.47932 635.59316,297.26013 610,295 c -14.37233,81.30224 -73.77303,98.38804 -130,120 0,0 -19.41945,15.64589 -29.41945,15.64589 C 435.58055,430.64589 425,425 420,425 c -5,0 -10,5 -25,5 -15,0 -30,-25 -40,-50 -30,-40 -55,-96.04455 -55,-125 0,-20 5.003,-149.9992 5,-155 -0.002,-3.089335 -5.72781,-42.445846 -10.1037,-72.07356 m 328.03691,212.395 C 616.61632,250.552 609.19352,264.74236 615,265 c 2.73428,0.12132 6.96971,-10.37759 10.24354,-19.90618 m 278.91664,249.72066 50.56379,54.17549 m -64.73366,-40.78607 48.73454,52.21558 m -63.3769,-39.33239 48.01937,51.44933 m -61.73041,-37.5683 46.15447,49.45122 m -60.77483,-36.54447 45.96336,49.24646 m -60.14689,-35.87167 35.28817,37.80876 m -49.45804,-24.41934 24.02599,25.74214 m -38.82382,-13.02552 17.84203,19.11646 m -31.64333,-5.33213 8.92784,9.56554 M 482.75862,925 h 55.41872 m -42.28243,-15 h 55.00821 m -42.69294,-15 h 55.82923 m -42.69294,-15 h 55.41872 m -42.28243,-15 h 55.41872 M 552.95566,845 H 585 m 205,-25 v 32.5 M 765,820 v 32.5 M 740,820 v 32.5 m -36.73235,-19.23235 22.578,22.578 m -41.75698,-1.75698 23.39901,23.39901 m -41.55172,-1.55172 22.78325,22.78325 m -40.52545,-0.52545 22.578,22.578 m -41.55173,-1.55173 20.73071,20.73071 M 791.29599,310.75526 c 15.62961,-6.29692 31.83381,-11.83473 48.11454,-16.69002 m -63.25389,-3.71391 c 15.84539,-6.35519 32.2728,-11.93292 48.76488,-16.81275 m -64.09929,-3.05298 c 16.18061,-6.50419 32.97255,-12.19625 49.8241,-17.16102 m -64.09819,-1.09592 c 16.42632,-6.7965 33.54246,-12.73644 50.75899,-17.91046 m -58.18617,-5.14411 c 11.71799,-4.608 23.73402,-8.79725 35.84163,-12.5995 m -48.4158,-8.34685 c 8.46394,-3.2756 17.07495,-6.33535 25.75602,-9.1911 m -40.61657,-10.69747 c 5.39484,-2.00758 10.85695,-3.94932 16.37032,-5.82515 M 900.40882,94.431781 C 848.5463,114.25376 796.72828,69.769511 761.4322,93.621964 715,125.00001 755,185 789.33498,165.18883 821.13528,146.84017 790,105 775,115 c -9.30261,6.20174 -14.88842,18.30946 -10,25 6.18042,8.45885 10.48873,9.62814 20,5 M 901.46652,97.13303 C 861.76115,135.4564 879.34663,201.01228 842.74068,222.52055 794.42332,250.91 757.5027,188.96753 790.17065,166.51363 c 30.25635,-20.79631 54.6061,25.32412 39.1205,34.55428 -9.60379,5.72429 -22.93675,5.55043 -26.86936,-1.74304 -4.972,-9.22111 -4.17161,-13.61293 4.10189,-20.20332 M 765,180 855,120 m -10,40 c -10,-10 -45.467,-11.35662 -55,5 22.00764,-11.03808 34.76336,-24.75676 25,-45 m -20,110 c 25,30 50,20 75,10 24.05541,32.7653 64.66095,38.66637 105,45 M 725,130 C 715,110 740,85 755,75 749.14905,51.948962 757.70702,26.00987 766.59362,0.00490542 M 700,90 c 10,-25 25,-25 25,-25 -8.48271,-38.172217 3.28893,-47.867055 8.18679,-64.93099617 M 427.96416,0.01822477 C 445.06535,51.748024 483.31343,78.400493 539.31946,83.994433 M 446.67053,0.04362022 C 462.63103,38.843647 492.03631,61.699978 533.14043,70.683071 M 461.24526,0.01603427 C 475.22521,27.447203 496.92922,45.718691 525.58366,55.74792 M 476.99588,0.10806452 C 487.38028,16.453559 500.99836,28.964352 517.63646,37.893813 M 371.26432,0.04443925 C 356.34418,40.196712 340.91798,80.075485 304.69652,100.28589 M 355.60874,0.04353776 C 343.34293,31.804187 329.13875,61.845937 302.67098,80.298673 M 339.57059,0.02060224 C 329.73362,23.196287 317.89132,44.53011 299.71459,59.883794 M 325.15652,0.08430598 C 317.46458,14.722402 308.27692,27.964826 296.26758,38.544057 M 305,120 c 41.1016,-25.066138 61.56092,-14.28714 80,0 20,55 -15,110 -14.41945,151.6763 0.21559,15.47674 11.72696,13.44856 19.41945,13.3237 4.99934,-0.0811 15,10 15,10 M 305,125 c 29.58587,-20.97635 55.47603,-17.50669 80,-5 m 45,125 c 20,0 20,30 5,30 -40,5 -40,-10 -5,0 m -65,40 v 10 l 5,-5 -5,-5 v 0 m 90,5 5,-5 v 10 l -5,-5 v 0 m -85,0 c 0,0 5,5 10,5 5,0 5.24415,-4.00984 12.32219,-4.4848 C 400,320 400,325 405,325 c 5,0 15,-10 20,-10 5,0 15,5 20,5 h 10 m -65,20 c 3.06957,28.45212 45.6136,8.68856 45,5 -5,5 -44.77199,31.85105 -45,-5 v 0 m 40,-205 c 51.53607,-36.718861 85.86501,-16.18211 120,5 -35.40475,-25.98218 -85,-45 -120,-5 v 0 m 110,25 C 525,160 503.52953,134.61544 483.61398,136.45137 453.79885,139.1999 445,175 430,180 447.93464,158.59181 463.7944,151.78059 478.07024,151.93493 507.27438,152.25068 515,185 550,175 m -120,5 c 15,-10 32.80939,10.04302 45.17423,9.94542 C 504.08195,189.71723 519.49385,175 530,175 m -150,0 c -20,0 -30.87367,-19.1648 -47.03192,-20.29027 -12.3413,-0.85961 -29.19452,12.61246 -29.19452,17.61246 0,7.07107 11.23734,20.70784 22.74316,23.25836 C 342.90794,199.21402 362.81244,175.3491 380,175 v 0 m -75,-10 c 22.64276,-42.75014 64.95345,-9.49214 65,-5 m 450,105 c 15,15 35,10 45,5 20.5191,14.6565 42.75671,20.72048 62.68286,23.22939 m -75.81633,19.10768 C 895.10619,299.11787 938.83136,290.34833 975,285 924.90149,188.22308 899.90057,94.152754 874.11725,-0.00195137 M 851.86653,312.33707 C 895.10619,299.11787 938.83136,290.34833 975,285 924.90149,188.22308 899.90057,94.152754 874.11725,-0.00195137 M 851.01315,311.99775 635.36748,-2.4089679e-4 M 927.65339,293.26472 C 907.75671,290.72048 885.5191,284.6565 865,270 c -10,5 -30,10 -45,-5"
       id="path2224" />
  </g>
  <g
     id="use1443"
     transform="matrix(0.12676923,0,0,0.13039999,-119.61969,-167.60851)">
    <path
       stroke="#4444ff"
       stroke-linecap="round"
       stroke-linejoin="round"
       stroke-width="3"
       fill="none"
       d="m 986.60333,811.20184 17.52527,26.83701 m 3.5763,5.47663 14.2883,21.88014 m -28.50289,-64.52787 c 12.59499,20.81314 26.36539,39.79428 40.67199,57.93996 m 3.6811,4.63683 c 6.0574,7.57938 12.2001,15.02588 18.3803,22.41378 m 3.5795,4.26824 c 4.9357,5.87225 9.8895,11.71638 14.8372,17.56998 m -72.3509,-116.41908 c 25.6547,42.89167 56.3312,77.95704 86.5273,113.77117 m -77.4962,-122.80446 c 26.5981,44.89853 58.7236,81.18275 90.1523,118.55299 M 1018.2105,775.40469 C 1045.4382,820.51985 1078.1971,857.01507 1110,895 M 91.990234,409.08984 c 5.346491,34.39969 12.364566,69.89746 17.978516,99.54297 5.61395,29.64551 9.60751,54.84672 9.52344,62.49219 -0.14502,13.18721 -2.60383,25.09508 -7.35157,32.2207 C 107.39289,610.47133 101.33414,615 85,615 68.665861,615 62.607113,610.47133 57.859375,603.3457 m 37.371094,-91.92187 c 2.783382,14.69817 5.162021,28.28252 6.812501,38.99023 1.65048,10.70771 2.46055,19.51658 2.44922,20.54688 -0.12561,11.42229 -3.03694,21.37127 -4.833987,24.06836 -1.554361,2.33286 -1.96098,2.67133 -3.316406,3.33203 C 94.986371,599.02203 91.780811,600 85,600 m 14.244141,41.85938 C 113.48363,645.75807 120,654.05348 120,660 c 0,3.87456 -2.13436,8.18273 -8.24609,12.46094 C 105.64218,676.73915 95.96981,680 85,680 74.030191,680 64.357824,676.73915 58.246094,672.46094 m 41.230468,34.30273 c 8.835718,2.48582 12.847888,6.43575 15.929688,11.99805 C 118.48805,724.32402 120,732.04575 120,740 c 0,15.20071 -2.70618,36.77501 -6.41016,58.11133 M 102.94922,660.2832 C 99.903483,662.33803 92.860098,665 85,665 c -7.997241,0 -15.198086,-2.76015 -18.152344,-4.82812 m 35.437504,65.85937 C 103.52282,728.2651 105,733.94656 105,740 c 0,13.42041 -2.56634,34.6744 -6.189453,55.54492 M 726.75998,368.27894 C 639.85431,387.67178 574.6926,396.00751 524.83867,397.57475 M 715.61309,356.58894 C 649.94086,370.7787 597.12268,378.4618 554.16847,381.63062 m 148.87046,-37.37117 c -49.76763,10.38288 -91.8849,16.91189 -127.75629,20.52287 M 690.7875,331.76901 c -38.30305,7.6982 -71.90839,13.04175 -101.50758,16.49148 m 90.85814,-29.38806 c -30.03631,5.82677 -57.08899,10.16495 -81.51547,13.25269 m 71.58257,-26.35948 c -23.347,4.36958 -44.8345,7.81564 -64.64196,10.45774 m 54.00966,-23.50827 c -18.04772,3.23925 -34.94556,5.91034 -50.78275,8.07274 M 390,380 c 11.94547,-13.95601 27.22073,-12.69836 45,0 m 5,-185 c 10,15 30,15 45,15 m -175,-5 c 50,25 60,-30 70,-30 m -29.98005,-12.94469 c 1.14299,3.17833 1.7863,6.76631 1.7863,10.56373 0,13.03628 -7.58139,23.60427 -16.9335,23.60427 -9.35211,0 -16.93349,-10.568 -16.93349,-23.60427 0,-5.79795 1.49965,-11.10766 3.98776,-15.21654 m 166.6313,-3.79563 c 1.90775,3.81995 3.02626,8.46304 3.02626,13.4703 0,13.03628 -7.58139,23.60427 -16.9335,23.60427 -9.35211,0 -16.93349,-10.568 -16.93349,-23.60427 0,-4.03258 0.72545,-7.82898 2.00436,-11.14943"
       id="path2228" />
    <g
       id="g2232"
       transform="matrix(0.05745333,-0.04685922,0.04820907,0.05584464,1188,935)">
      <path
         d="m 0,-500 c 100,250 355,400 355,685 a 150,150 0 0 1 -300,0 10,10 0 0 0 -20,0 c 0,200 50,215 95,315 h -260 c 45,-100 95,-115 95,-315 a 10,10 0 0 0 -20,0 150,150 0 0 1 -300,0 c 0,-285 255,-435 355,-685 z"
         fill="#000000"
         id="path2230" />
    </g>
    <g
       id="g2236"
       transform="matrix(0.05745333,-0.04685922,0.04820907,0.05584464,1194,1042.9999)">
      <path
         d="m 0,-500 c 100,250 355,400 355,685 a 150,150 0 0 1 -300,0 10,10 0 0 0 -20,0 c 0,200 50,215 95,315 h -260 c 45,-100 95,-115 95,-315 a 10,10 0 0 0 -20,0 150,150 0 0 1 -300,0 c 0,-285 255,-435 355,-685 z"
         fill="#000000"
         id="path2234" />
    </g>
    <g
       id="g2240"
       transform="matrix(0.05745333,-0.04685922,0.04820907,0.05584464,1096,1032.9999)">
      <path
         d="m 0,-500 c 100,250 355,400 355,685 a 150,150 0 0 1 -300,0 10,10 0 0 0 -20,0 c 0,200 50,215 95,315 h -260 c 45,-100 95,-115 95,-315 a 10,10 0 0 0 -20,0 150,150 0 0 1 -300,0 c 0,-285 255,-435 355,-685 z"
         fill="#000000"
         id="path2238" />
    </g>
    <g
       id="g2244"
       transform="matrix(0.05745333,-0.04685922,0.04820907,0.05584464,1022,947)">
      <path
         d="m 0,-500 c 100,250 355,400 355,685 a 150,150 0 0 1 -300,0 10,10 0 0 0 -20,0 c 0,200 50,215 95,315 h -260 c 45,-100 95,-115 95,-315 a 10,10 0 0 0 -20,0 150,150 0 0 1 -300,0 c 0,-285 255,-435 355,-685 z"
         fill="#000000"
         id="path2242" />
    </g>
    <g
       id="g2248"
       transform="matrix(0.05745333,-0.04685922,0.04820907,0.05584464,918.00001,851)">
      <path
         d="m 0,-500 c 100,250 355,400 355,685 a 150,150 0 0 1 -300,0 10,10 0 0 0 -20,0 c 0,200 50,215 95,315 h -260 c 45,-100 95,-115 95,-315 a 10,10 0 0 0 -20,0 150,150 0 0 1 -300,0 c 0,-285 255,-435 355,-685 z"
         fill="#000000"
         id="path2246" />
    </g>
    <g
       id="g2252"
       transform="matrix(0.05745333,-0.04685922,0.04820907,0.05584464,897.00001,726)">
      <path
         d="m 0,-500 c 100,250 355,400 355,685 a 150,150 0 0 1 -300,0 10,10 0 0 0 -20,0 c 0,200 50,215 95,315 h -260 c 45,-100 95,-115 95,-315 a 10,10 0 0 0 -20,0 150,150 0 0 1 -300,0 c 0,-285 255,-435 355,-685 z"
         fill="#000000"
         id="path2250" />
    </g>
  </g>
  <g
     id="use1445"
     transform="matrix(-0.12676923,0,0,-0.13039999,45.180316,93.191479)">
    <path
       stroke="#4444ff"
       stroke-linecap="round"
       stroke-linejoin="round"
       stroke-width="3"
       fill="none"
       d="m 986.60333,811.20184 17.52527,26.83701 m 3.5763,5.47663 14.2883,21.88014 m -28.50289,-64.52787 c 12.59499,20.81314 26.36539,39.79428 40.67199,57.93996 m 3.6811,4.63683 c 6.0574,7.57938 12.2001,15.02588 18.3803,22.41378 m 3.5795,4.26824 c 4.9357,5.87225 9.8895,11.71638 14.8372,17.56998 m -72.3509,-116.41908 c 25.6547,42.89167 56.3312,77.95704 86.5273,113.77117 m -77.4962,-122.80446 c 26.5981,44.89853 58.7236,81.18275 90.1523,118.55299 M 1018.2105,775.40469 C 1045.4382,820.51985 1078.1971,857.01507 1110,895 M 91.990234,409.08984 c 5.346491,34.39969 12.364566,69.89746 17.978516,99.54297 5.61395,29.64551 9.60751,54.84672 9.52344,62.49219 -0.14502,13.18721 -2.60383,25.09508 -7.35157,32.2207 C 107.39289,610.47133 101.33414,615 85,615 68.665861,615 62.607113,610.47133 57.859375,603.3457 m 37.371094,-91.92187 c 2.783382,14.69817 5.162021,28.28252 6.812501,38.99023 1.65048,10.70771 2.46055,19.51658 2.44922,20.54688 -0.12561,11.42229 -3.03694,21.37127 -4.833987,24.06836 -1.554361,2.33286 -1.96098,2.67133 -3.316406,3.33203 C 94.986371,599.02203 91.780811,600 85,600 m 14.244141,41.85938 C 113.48363,645.75807 120,654.05348 120,660 c 0,3.87456 -2.13436,8.18273 -8.24609,12.46094 C 105.64218,676.73915 95.96981,680 85,680 74.030191,680 64.357824,676.73915 58.246094,672.46094 m 41.230468,34.30273 c 8.835718,2.48582 12.847888,6.43575 15.929688,11.99805 C 118.48805,724.32402 120,732.04575 120,740 c 0,15.20071 -2.70618,36.77501 -6.41016,58.11133 M 102.94922,660.2832 C 99.903483,662.33803 92.860098,665 85,665 c -7.997241,0 -15.198086,-2.76015 -18.152344,-4.82812 m 35.437504,65.85937 C 103.52282,728.2651 105,733.94656 105,740 c 0,13.42041 -2.56634,34.6744 -6.189453,55.54492 M 726.75998,368.27894 C 639.85431,387.67178 574.6926,396.00751 524.83867,397.57475 M 715.61309,356.58894 C 649.94086,370.7787 597.12268,378.4618 554.16847,381.63062 m 148.87046,-37.37117 c -49.76763,10.38288 -91.8849,16.91189 -127.75629,20.52287 M 690.7875,331.76901 c -38.30305,7.6982 -71.90839,13.04175 -101.50758,16.49148 m 90.85814,-29.38806 c -30.03631,5.82677 -57.08899,10.16495 -81.51547,13.25269 m 71.58257,-26.35948 c -23.347,4.36958 -44.8345,7.81564 -64.64196,10.45774 m 54.00966,-23.50827 c -18.04772,3.23925 -34.94556,5.91034 -50.78275,8.07274 M 390,380 c 11.94547,-13.95601 27.22073,-12.69836 45,0 m 5,-185 c 10,15 30,15 45,15 m -175,-5 c 50,25 60,-30 70,-30 m -29.98005,-12.94469 c 1.14299,3.17833 1.7863,6.76631 1.7863,10.56373 0,13.03628 -7.58139,23.60427 -16.9335,23.60427 -9.35211,0 -16.93349,-10.568 -16.93349,-23.60427 0,-5.79795 1.49965,-11.10766 3.98776,-15.21654 m 166.6313,-3.79563 c 1.90775,3.81995 3.02626,8.46304 3.02626,13.4703 0,13.03628 -7.58139,23.60427 -16.9335,23.60427 -9.35211,0 -16.93349,-10.568 -16.93349,-23.60427 0,-4.03258 0.72545,-7.82898 2.00436,-11.14943"
       id="path2256" />
    <g
       id="g2260"
       transform="matrix(0.05745333,-0.04685922,0.04820907,0.05584464,1188,935)">
      <path
         d="m 0,-500 c 100,250 355,400 355,685 a 150,150 0 0 1 -300,0 10,10 0 0 0 -20,0 c 0,200 50,215 95,315 h -260 c 45,-100 95,-115 95,-315 a 10,10 0 0 0 -20,0 150,150 0 0 1 -300,0 c 0,-285 255,-435 355,-685 z"
         fill="#000000"
         id="path2258" />
    </g>
    <g
       id="g2264"
       transform="matrix(0.05745333,-0.04685922,0.04820907,0.05584464,1194,1042.9999)">
      <path
         d="m 0,-500 c 100,250 355,400 355,685 a 150,150 0 0 1 -300,0 10,10 0 0 0 -20,0 c 0,200 50,215 95,315 h -260 c 45,-100 95,-115 95,-315 a 10,10 0 0 0 -20,0 150,150 0 0 1 -300,0 c 0,-285 255,-435 355,-685 z"
         fill="#000000"
         id="path2262" />
    </g>
    <g
       id="g2268"
       transform="matrix(0.05745333,-0.04685922,0.04820907,0.05584464,1096,1032.9999)">
      <path
         d="m 0,-500 c 100,250 355,400 355,685 a 150,150 0 0 1 -300,0 10,10 0 0 0 -20,0 c 0,200 50,215 95,315 h -260 c 45,-100 95,-115 95,-315 a 10,10 0 0 0 -20,0 150,150 0 0 1 -300,0 c 0,-285 255,-435 355,-685 z"
         fill="#000000"
         id="path2266" />
    </g>
    <g
       id="g2272"
       transform="matrix(0.05745333,-0.04685922,0.04820907,0.05584464,1022,947)">
      <path
         d="m 0,-500 c 100,250 355,400 355,685 a 150,150 0 0 1 -300,0 10,10 0 0 0 -20,0 c 0,200 50,215 95,315 h -260 c 45,-100 95,-115 95,-315 a 10,10 0 0 0 -20,0 150,150 0 0 1 -300,0 c 0,-285 255,-435 355,-685 z"
         fill="#000000"
         id="path2270" />
    </g>
    <g
       id="g2276"
       transform="matrix(0.05745333,-0.04685922,0.04820907,0.05584464,918.00001,851)">
      <path
         d="m 0,-500 c 100,250 355,400 355,685 a 150,150 0 0 1 -300,0 10,10 0 0 0 -20,0 c 0,200 50,215 95,315 h -260 c 45,-100 95,-115 95,-315 a 10,10 0 0 0 -20,0 150,150 0 0 1 -300,0 c 0,-285 255,-435 355,-685 z"
         fill="#000000"
         id="path2274" />
    </g>
    <g
       id="g2280"
       transform="matrix(0.05745333,-0.04685922,0.04820907,0.05584464,897.00001,726)">
      <path
         d="m 0,-500 c 100,250 355,400 355,685 a 150,150 0 0 1 -300,0 10,10 0 0 0 -20,0 c 0,200 50,215 95,315 h -260 c 45,-100 95,-115 95,-315 a 10,10 0 0 0 -20,0 150,150 0 0 1 -300,0 c 0,-285 255,-435 355,-685 z"
         fill="#000000"
         id="path2278" />
    </g>
  </g>
</svg>
